<svg id="svg" version="1.1" xmlns="http://www.w3.org/2000/svg" xmlns:xlink="http://www.w3.org/1999/xlink" width="400" height="400" viewBox="0, 0, 400,400"><g id="svgg"><path id="path0" d="M106.000 34.123 C 103.340 34.703,101.680 36.039,100.745 38.354 C 99.783 40.733,99.798 56.901,100.764 59.297 C 103.367 65.754,114.149 65.330,116.205 58.690 C 117.015 56.077,116.888 40.681,116.039 38.578 C 114.559 34.908,110.553 33.130,106.000 34.123 M81.600 48.788 L 81.600 63.467 83.863 63.467 L 86.126 63.467 86.196 55.018 L 86.267 46.570 89.746 54.952 L 93.226 63.333 95.013 63.412 L 96.800 63.491 96.800 48.801 L 96.800 34.112 94.600 34.189 L 92.400 34.267 92.267 42.289 L 92.133 50.312 88.666 42.289 L 85.199 34.267 83.399 34.188 L 81.600 34.109 81.600 48.788 M36.721 35.514 C 35.014 36.976,30.575 39.593,26.803 41.362 L 23.737 42.800 23.735 48.163 L 23.733 53.527 27.667 52.130 C 29.830 51.362,32.260 50.479,33.067 50.167 C 33.873 49.855,34.623 49.600,34.733 49.600 C 34.843 49.600,34.933 63.340,34.933 80.133 L 34.933 110.667 42.267 110.667 L 49.600 110.667 49.600 72.533 L 49.600 34.400 43.800 34.409 L 38.000 34.419 36.721 35.514 M110.396 38.621 C 111.428 39.654,111.525 40.732,111.421 50.000 C 111.344 56.767,111.275 57.840,110.865 58.590 C 109.956 60.252,106.980 60.332,105.924 58.722 C 105.359 57.861,105.070 41.702,105.588 39.948 C 106.213 37.831,108.872 37.098,110.396 38.621 M105.351 81.999 C 100.518 83.090,99.733 85.124,99.733 96.554 C 99.733 108.627,100.630 110.648,106.342 111.458 C 112.076 112.272,115.417 109.862,116.281 104.288 C 116.838 100.700,116.477 88.480,115.755 86.477 C 114.370 82.633,110.301 80.882,105.351 81.999 M81.600 96.667 L 81.600 111.200 84.267 111.200 L 86.933 111.200 86.933 104.667 L 86.933 98.133 89.152 98.133 C 94.786 98.133,97.333 95.696,97.333 90.305 C 97.333 83.739,95.255 82.133,86.752 82.133 L 81.600 82.133 81.600 96.667 M118.947 82.456 C 118.954 82.645,120.254 89.160,121.835 96.933 L 124.709 111.067 127.280 111.143 C 129.767 111.217,129.857 111.199,129.998 110.610 C 130.291 109.390,135.733 82.586,135.733 82.363 C 135.733 82.237,134.653 82.133,133.333 82.133 C 131.942 82.133,130.933 82.243,130.933 82.395 C 130.933 82.769,127.765 100.532,127.556 101.333 C 127.332 102.187,127.498 102.917,125.349 91.600 L 123.578 82.267 121.255 82.190 C 119.493 82.131,118.937 82.195,118.947 82.456 M138.667 96.667 L 138.667 111.200 144.800 111.200 L 150.933 111.200 150.933 109.333 L 150.933 107.467 147.467 107.467 L 144.000 107.467 144.000 102.667 L 144.000 97.867 146.667 97.867 L 149.333 97.867 149.333 96.000 L 149.333 94.133 146.667 94.133 L 144.000 94.133 144.000 90.000 L 144.000 85.867 147.467 85.867 L 150.933 85.867 150.933 84.000 L 150.933 82.133 144.800 82.133 L 138.667 82.133 138.667 96.667 M153.867 96.667 L 153.867 111.200 156.533 111.200 L 159.200 111.200 159.200 104.533 L 159.200 97.867 160.400 97.867 C 161.060 97.867,161.601 97.897,161.602 97.933 C 161.610 98.243,165.029 110.984,165.131 111.086 C 165.204 111.160,166.403 111.186,167.795 111.143 L 170.325 111.067 168.341 104.001 C 166.480 97.375,166.386 96.918,166.843 96.668 C 170.776 94.505,170.957 86.139,167.127 83.556 C 165.386 82.383,163.876 82.133,158.520 82.133 L 153.867 82.133 153.867 96.667 M171.733 84.000 L 171.733 85.867 174.133 85.867 L 176.533 85.867 176.533 98.533 L 176.533 111.200 179.200 111.200 L 181.867 111.200 181.867 98.533 L 181.867 85.867 184.267 85.867 L 186.667 85.867 186.667 84.000 L 186.667 82.133 179.200 82.133 L 171.733 82.133 171.733 84.000 M189.887 90.862 L 192.800 99.591 192.800 105.395 L 192.800 111.200 195.333 111.200 L 197.867 111.200 197.867 105.837 L 197.867 100.474 200.800 91.479 C 202.413 86.531,203.733 82.404,203.733 82.308 C 203.733 82.212,202.665 82.133,201.359 82.133 L 198.985 82.133 198.449 83.933 C 198.153 84.923,197.402 87.448,196.779 89.543 C 196.156 91.638,195.560 93.258,195.454 93.143 C 195.295 92.968,193.082 86.026,192.221 83.000 L 191.975 82.133 189.475 82.133 L 186.975 82.133 189.887 90.862 M109.576 85.987 C 110.905 86.675,110.960 87.143,110.877 97.008 L 110.800 106.122 110.107 106.814 C 108.701 108.220,106.410 107.877,105.534 106.130 C 104.968 105.002,104.820 88.786,105.362 87.233 C 105.875 85.760,107.950 85.147,109.576 85.987 M163.213 86.140 C 164.261 86.701,164.798 87.993,164.799 89.960 C 164.801 93.202,163.729 94.400,160.826 94.400 L 159.200 94.400 159.200 89.961 L 159.200 85.523 160.932 85.685 C 161.884 85.774,162.911 85.979,163.213 86.140 M91.350 86.480 C 92.464 87.438,92.829 91.436,91.956 93.131 C 91.552 93.915,90.251 94.400,88.547 94.400 L 86.933 94.400 86.933 90.133 L 86.933 85.867 88.785 85.867 C 90.333 85.867,90.754 85.967,91.350 86.480 M70.533 180.093 C 58.094 184.209,61.339 202.635,74.356 201.802 C 85.766 201.071,88.788 185.569,78.464 180.727 C 76.369 179.744,72.518 179.436,70.533 180.093 M316.343 180.252 C 308.617 183.080,306.404 192.833,312.177 198.611 C 318.577 205.015,329.460 201.458,331.001 192.459 C 332.375 184.437,323.989 177.453,316.343 180.252 M165.733 186.492 C 154.144 190.333,156.529 207.031,168.667 207.031 C 179.872 207.031,183.267 191.872,173.125 187.126 C 171.046 186.153,167.638 185.861,165.733 186.492 M228.876 186.505 C 219.665 189.507,218.845 202.075,227.594 206.170 C 236.473 210.325,245.731 200.759,241.381 191.924 C 239.201 187.494,233.466 185.009,228.876 186.505 M58.454 206.673 C 54.306 207.759,50.902 210.409,49.005 214.027 C 47.205 217.461,47.208 217.421,47.204 236.049 C 47.200 253.250,47.225 253.686,48.285 254.818 C 48.797 255.364,48.760 255.582,43.722 282.268 C 37.930 312.952,38.086 311.200,41.136 311.200 C 43.081 311.200,42.726 312.597,48.326 282.913 C 53.366 256.194,53.433 255.882,54.185 255.249 C 55.634 254.030,55.591 254.489,55.733 238.894 C 55.858 225.315,55.900 224.286,56.349 223.789 C 57.030 223.038,58.041 222.906,58.746 223.478 L 59.333 223.953 59.467 265.243 L 59.600 306.533 60.176 307.600 C 62.641 312.170,68.825 312.170,71.291 307.600 C 71.866 306.535,71.867 306.494,72.005 282.133 C 72.082 268.713,72.172 257.700,72.205 257.660 C 72.692 257.078,74.188 257.097,75.261 257.699 C 75.295 257.718,75.385 268.713,75.461 282.133 C 75.617 309.455,75.466 307.447,77.509 309.386 C 80.447 312.175,85.301 311.289,87.291 307.600 L 87.867 306.533 87.937 265.283 L 88.008 224.032 88.662 223.518 C 89.435 222.910,90.419 223.018,91.117 223.789 C 91.567 224.286,91.609 225.319,91.733 239.028 C 91.884 255.599,91.756 254.647,93.973 255.720 C 95.976 256.690,97.990 256.277,99.286 254.632 C 99.675 254.138,99.995 253.876,99.997 254.051 C 99.999 254.226,101.794 257.608,103.986 261.567 C 109.660 271.809,109.333 271.076,109.333 273.595 C 109.333 275.443,109.040 276.823,107.217 283.537 C 106.053 287.825,105.020 291.663,104.922 292.067 L 104.742 292.800 107.038 292.800 L 109.333 292.800 109.333 300.210 C 109.333 307.364,109.354 307.661,109.933 308.810 C 111.407 311.732,115.637 311.934,117.359 309.165 C 117.991 308.147,118.001 308.031,118.082 300.467 L 118.163 292.800 119.333 292.800 L 120.503 292.800 120.585 300.333 C 120.661 307.355,120.704 307.938,121.221 308.923 C 122.795 311.924,127.195 311.857,128.733 308.809 C 129.313 307.661,129.333 307.365,129.333 300.210 L 129.333 292.800 131.600 292.800 C 133.063 292.800,133.867 292.697,133.867 292.508 C 133.867 292.348,132.847 288.476,131.600 283.905 C 128.334 271.928,128.196 273.222,133.812 263.156 C 135.585 259.979,137.417 256.619,137.883 255.690 C 138.945 253.571,138.827 253.659,139.480 254.490 C 140.930 256.333,144.519 256.233,145.986 254.308 C 146.862 253.161,146.767 253.444,150.834 239.756 C 154.955 225.888,154.680 226.607,155.813 226.718 C 157.588 226.891,157.709 226.292,151.077 250.329 C 147.728 262.468,144.931 272.670,144.863 273.000 L 144.738 273.600 150.359 273.600 L 155.981 273.600 156.057 290.333 L 156.133 307.067 156.800 308.255 C 158.645 311.543,162.927 312.146,165.492 309.479 C 167.209 307.694,167.200 307.796,167.200 289.749 L 167.200 273.600 168.657 273.600 L 170.114 273.600 170.191 290.333 C 170.266 307.007,170.269 307.071,170.855 308.166 C 172.686 311.589,176.974 312.230,179.625 309.477 C 181.342 307.695,181.333 307.797,181.333 289.749 L 181.333 273.600 186.964 273.600 L 192.596 273.600 192.476 273.000 C 192.410 272.670,189.615 262.462,186.266 250.316 C 179.644 226.306,179.762 226.889,181.520 226.718 C 182.661 226.607,182.394 225.903,186.674 240.304 C 191.277 255.792,191.752 256.624,195.484 255.729 C 200.184 254.602,200.132 253.678,194.310 234.763 C 188.799 216.863,188.056 215.374,183.515 213.144 L 182.000 212.400 168.667 212.400 L 155.333 212.400 153.862 213.123 C 152.103 213.988,149.796 216.222,148.565 218.254 C 147.760 219.583,138.400 249.040,138.400 250.246 C 138.400 250.524,138.167 250.488,137.400 250.089 C 135.070 248.877,134.022 249.621,130.934 254.680 C 126.678 261.654,127.237 261.333,119.333 261.333 C 111.466 261.333,111.944 261.609,107.753 254.667 C 104.725 249.652,103.658 248.890,101.349 250.094 L 100.290 250.646 100.211 234.323 L 100.133 218.000 99.446 216.235 C 97.399 210.981,93.573 207.621,88.400 206.535 C 85.253 205.874,61.077 205.985,58.454 206.673 M305.133 206.538 C 299.899 207.675,295.359 212.054,294.017 217.260 C 293.291 220.074,293.515 253.435,294.267 254.463 C 295.543 256.209,298.584 256.763,300.214 255.546 C 302.105 254.134,301.985 255.176,302.133 238.847 C 302.207 230.755,302.356 223.995,302.466 223.826 C 303.142 222.786,305.165 222.990,305.604 224.144 C 305.772 224.587,305.867 239.465,305.867 265.587 L 305.867 306.339 306.612 307.770 C 308.837 312.043,315.233 312.100,317.443 307.867 C 317.993 306.813,318.002 306.493,318.133 282.443 L 318.267 258.086 318.896 257.576 C 319.693 256.931,320.307 256.931,321.104 257.576 L 321.733 258.086 321.867 282.464 L 322.000 306.842 322.800 308.126 C 325.502 312.463,332.398 311.730,333.829 306.954 C 334.051 306.212,334.133 295.026,334.133 265.494 C 334.133 222.249,334.104 223.251,335.386 223.169 C 337.997 223.002,337.866 222.192,337.873 238.496 C 337.878 251.739,337.911 252.738,338.375 253.760 C 339.771 256.833,344.114 257.092,345.906 254.208 L 346.533 253.200 346.533 235.867 L 346.533 218.533 345.795 216.446 C 343.953 211.238,339.923 207.624,334.732 206.524 C 332.198 205.987,307.616 205.998,305.133 206.538 M218.476 212.649 C 215.739 213.516,213.122 215.851,211.558 218.821 C 210.586 220.668,201.599 249.720,201.601 251.010 C 201.611 256.338,208.292 257.762,210.171 252.837 C 210.318 252.450,212.060 246.673,214.042 240.000 C 217.827 227.251,218.046 226.667,219.019 226.667 C 220.923 226.667,220.991 226.324,214.133 251.206 C 210.760 263.444,208.000 273.488,208.000 273.524 C 208.000 273.560,210.550 273.622,213.667 273.661 L 219.333 273.733 219.467 290.711 L 219.600 307.688 220.400 308.820 C 222.855 312.295,228.132 311.766,229.903 307.869 C 230.356 306.872,230.389 305.679,230.394 290.187 L 230.400 273.573 231.933 273.653 L 233.467 273.733 233.600 290.711 L 233.733 307.688 234.533 308.820 C 236.988 312.295,242.265 311.766,244.036 307.869 C 244.489 306.872,244.522 305.680,244.527 290.205 L 244.533 273.610 250.225 273.539 L 255.916 273.467 252.095 259.600 C 242.288 224.019,242.878 226.667,244.761 226.667 C 245.927 226.667,245.856 226.482,249.865 239.975 C 254.631 256.018,255.064 256.775,258.876 255.749 C 263.433 254.522,263.372 253.512,257.611 234.800 C 252.088 216.859,251.280 215.249,246.738 213.121 L 245.200 212.400 232.400 212.346 C 222.341 212.304,219.359 212.369,218.476 212.649 M117.263 238.407 C 109.517 240.358,108.222 251.048,115.294 254.655 C 121.545 257.844,128.293 253.471,127.957 246.449 C 127.696 241.009,122.486 237.092,117.263 238.407 M275.929 238.407 C 268.121 240.374,266.862 251.172,274.029 254.701 C 280.305 257.791,286.958 253.431,286.623 246.449 C 286.362 241.009,281.152 237.092,275.929 238.407 M269.200 259.582 C 266.343 260.372,264.711 263.086,260.152 274.629 C 256.815 283.078,256.455 284.168,256.656 285.235 C 256.884 286.452,258.164 287.467,259.472 287.467 C 261.419 287.467,261.617 287.099,264.339 278.422 C 265.693 274.108,266.946 270.529,267.124 270.470 C 267.373 270.387,267.464 274.591,267.523 289.115 C 267.594 306.379,267.637 307.934,268.066 308.720 C 269.278 310.935,271.920 311.763,274.118 310.617 C 276.437 309.408,276.382 309.654,276.533 299.861 C 276.680 290.386,276.655 290.506,278.438 290.635 C 279.239 290.693,279.331 291.540,279.466 300.048 C 279.618 309.627,279.572 309.425,281.872 310.600 C 283.845 311.608,286.284 311.031,287.584 309.247 C 288.123 308.508,288.136 308.146,288.267 289.447 C 288.354 276.998,288.492 270.406,288.667 270.417 C 288.813 270.427,290.022 273.457,291.352 277.151 C 294.766 286.630,294.788 286.663,297.195 285.868 C 300.234 284.865,300.138 284.057,295.645 272.803 C 291.325 261.980,290.903 261.217,288.629 260.101 L 287.067 259.333 278.800 259.273 C 272.432 259.227,270.227 259.298,269.200 259.582 " stroke="none" fill="#fbfbfb" fill-rule="evenodd"></path><path id="path1" d="M0.000 200.000 L 0.000 400.000 200.000 400.000 L 400.000 400.000 400.000 200.000 L 400.000 0.000 200.000 0.000 L 0.000 0.000 0.000 200.000 M113.047 34.807 C 116.102 36.481,116.794 38.563,116.987 46.667 C 117.317 60.534,115.700 63.823,108.533 63.855 C 101.313 63.888,99.737 61.191,99.737 48.800 C 99.737 39.975,100.254 37.499,102.496 35.579 C 104.784 33.621,110.164 33.227,113.047 34.807 M49.600 72.533 L 49.600 110.933 42.133 110.933 L 34.667 110.933 34.667 80.285 L 34.667 49.637 33.017 50.308 C 31.608 50.880,23.994 53.600,23.800 53.600 C 23.763 53.600,23.733 51.144,23.733 48.143 L 23.733 42.686 26.824 41.217 C 30.820 39.317,35.086 36.770,36.713 35.311 L 38.000 34.157 43.800 34.145 L 49.600 34.133 49.600 72.533 M87.266 38.733 C 88.364 41.263,89.908 44.827,90.698 46.653 L 92.133 49.973 92.204 42.053 L 92.275 34.133 94.537 34.133 L 96.800 34.133 96.800 48.946 L 96.800 63.758 95.000 63.679 L 93.200 63.600 89.733 55.253 L 86.267 46.905 86.196 55.330 L 86.126 63.754 83.796 63.677 L 81.467 63.600 81.398 48.867 L 81.329 34.133 83.300 34.133 L 85.271 34.133 87.266 38.733 M107.270 38.161 C 105.614 38.645,105.571 38.937,105.657 49.229 L 105.733 58.447 106.482 59.090 C 107.523 59.986,109.369 59.989,110.261 59.096 C 111.185 58.172,111.236 57.541,111.147 48.072 L 111.067 39.478 110.400 38.831 C 109.607 38.061,108.456 37.815,107.270 38.161 M112.361 82.381 C 115.984 84.135,116.400 85.620,116.400 96.800 L 116.400 105.733 115.642 107.374 C 113.371 112.289,104.682 113.439,101.485 109.248 C 99.012 106.006,98.462 89.684,100.678 85.310 C 102.402 81.909,108.320 80.425,112.361 82.381 M93.467 82.489 C 96.356 83.769,97.905 87.162,97.513 91.354 C 97.077 96.027,94.775 98.045,89.553 98.333 L 86.933 98.478 86.933 104.981 L 86.933 111.485 84.200 111.409 L 81.467 111.333 81.397 96.933 C 81.359 89.013,81.390 82.373,81.465 82.176 C 81.689 81.590,92.045 81.860,93.467 82.489 M123.804 82.600 C 126.664 97.868,127.324 101.298,127.389 101.233 C 127.432 101.190,128.189 97.085,129.071 92.111 C 129.953 87.136,130.735 82.797,130.809 82.467 C 130.944 81.866,136.026 81.474,135.987 82.067 C 135.979 82.177,134.629 88.807,132.987 96.800 L 130.000 111.333 127.491 111.411 C 126.110 111.453,124.889 111.393,124.776 111.277 C 124.662 111.161,123.294 104.767,121.735 97.067 C 120.176 89.367,118.835 82.797,118.755 82.467 C 118.611 81.876,118.650 81.867,121.138 81.867 L 123.667 81.867 123.804 82.600 M150.933 83.867 L 150.933 85.867 147.467 85.867 L 144.000 85.867 144.000 90.000 L 144.000 94.133 146.800 94.133 L 149.600 94.133 149.600 96.133 L 149.600 98.133 146.800 98.133 L 144.000 98.133 144.000 102.800 L 144.000 107.467 147.612 107.467 L 151.223 107.467 151.145 109.400 L 151.067 111.333 144.867 111.405 L 138.667 111.476 138.667 96.672 L 138.667 81.867 144.800 81.867 L 150.933 81.867 150.933 83.867 M165.683 82.645 C 170.412 84.492,171.721 92.551,167.847 95.962 C 166.402 97.233,166.322 96.278,168.533 104.152 C 169.560 107.808,170.400 110.954,170.400 111.143 C 170.400 111.404,169.756 111.467,167.672 111.409 L 164.944 111.333 163.225 104.733 L 161.506 98.133 160.491 98.133 L 159.476 98.133 159.405 104.733 L 159.333 111.333 156.600 111.409 L 153.867 111.485 153.867 96.648 L 153.867 81.810 159.000 81.925 C 163.538 82.027,164.313 82.110,165.683 82.645 M186.667 84.000 L 186.667 86.133 184.403 86.133 L 182.139 86.133 182.069 98.733 L 182.000 111.333 179.267 111.409 L 176.533 111.485 176.533 98.819 L 176.533 86.153 174.067 86.077 L 171.600 86.000 171.520 84.295 C 171.395 81.656,170.730 81.867,179.192 81.867 L 186.667 81.867 186.667 84.000 M192.628 83.933 C 192.998 85.070,193.804 87.620,194.419 89.600 L 195.537 93.200 197.206 87.600 L 198.875 82.000 201.438 81.924 C 202.847 81.882,204.000 81.923,204.000 82.016 C 204.000 82.109,202.715 86.043,201.145 90.759 L 198.290 99.333 198.145 105.333 L 198.000 111.333 195.400 111.410 L 192.800 111.486 192.800 105.829 L 192.800 100.173 189.867 91.310 C 188.253 86.435,186.933 82.316,186.933 82.156 C 186.933 81.968,187.815 81.867,189.445 81.867 L 191.956 81.867 192.628 83.933 M86.933 90.170 L 86.933 94.473 88.699 94.331 C 91.599 94.099,92.191 93.384,92.240 90.058 C 92.289 86.757,91.435 85.872,88.200 85.868 L 86.933 85.867 86.933 90.170 M106.211 86.269 C 105.212 86.969,105.024 88.906,105.115 97.528 C 105.217 107.049,105.331 107.439,108.007 107.458 C 110.766 107.478,110.930 106.869,110.930 96.667 C 110.930 88.279,110.787 86.968,109.797 86.275 C 109.050 85.751,106.955 85.748,106.211 86.269 M159.467 90.170 L 159.467 94.474 161.107 94.325 C 163.883 94.074,165.017 92.502,164.678 89.377 C 164.385 86.683,163.474 85.867,160.760 85.867 L 159.467 85.867 159.467 90.170 M78.258 180.490 C 88.176 185.131,86.701 199.391,76.059 201.759 C 66.885 203.799,59.452 194.081,63.720 185.626 C 66.374 180.369,72.999 178.029,78.258 180.490 M323.167 179.969 C 334.530 183.506,333.560 199.746,321.859 201.868 C 316.448 202.849,310.917 199.407,309.288 194.045 C 306.696 185.510,314.744 177.348,323.167 179.969 M170.922 186.154 C 176.342 187.403,180.192 193.021,179.223 198.267 C 177.029 210.133,160.063 210.137,158.134 198.272 C 156.960 191.051,163.848 184.523,170.922 186.154 M235.734 186.649 C 242.760 189.324,244.895 198.256,239.820 203.738 C 233.427 210.643,221.927 206.645,221.388 197.331 C 220.934 189.483,228.459 183.880,235.734 186.649 M89.146 206.530 C 94.220 207.852,98.548 212.180,99.870 217.254 C 100.200 218.522,100.267 221.465,100.267 234.742 L 100.267 250.705 100.969 250.153 C 103.114 248.466,104.733 249.494,107.748 254.458 C 109.110 256.699,110.787 259.103,111.474 259.800 L 112.724 261.067 119.229 261.065 C 127.443 261.063,126.672 261.501,130.962 254.400 C 133.891 249.551,135.422 248.531,137.543 250.017 C 138.014 250.347,138.160 250.361,138.245 250.083 C 138.305 249.891,140.358 243.133,142.809 235.067 C 147.740 218.835,148.071 218.023,150.913 215.176 C 153.902 212.180,153.371 212.267,168.667 212.267 C 184.052 212.267,183.417 212.159,186.547 215.308 C 189.246 218.024,189.629 218.964,194.591 235.067 C 199.511 251.033,199.694 251.924,198.457 253.914 C 197.281 255.805,194.489 256.534,192.565 255.452 C 190.808 254.465,190.483 253.651,186.498 240.221 C 182.672 227.329,182.433 226.667,181.621 226.667 C 179.905 226.667,179.910 226.693,186.513 250.678 C 189.801 262.625,192.574 272.730,192.675 273.133 L 192.858 273.867 187.096 273.867 L 181.333 273.867 181.333 290.449 C 181.333 306.756,181.324 307.051,180.773 308.190 C 178.794 312.278,172.687 312.274,170.782 308.183 L 170.139 306.800 170.136 290.333 L 170.133 273.867 168.667 273.867 L 167.200 273.867 167.200 290.449 C 167.200 306.756,167.191 307.051,166.639 308.190 C 164.660 312.278,158.554 312.274,156.649 308.183 L 156.005 306.800 156.003 290.333 L 156.000 273.867 150.267 273.867 C 147.113 273.867,144.533 273.798,144.533 273.714 C 144.533 273.630,147.293 263.548,150.667 251.310 C 157.412 226.838,157.447 226.667,155.713 226.667 C 154.911 226.667,154.703 227.248,150.915 240.032 C 146.975 253.332,146.467 254.620,144.804 255.505 C 143.155 256.384,140.805 256.005,139.440 254.640 C 139.106 254.306,138.793 254.156,138.743 254.305 C 138.657 254.563,135.699 260.005,131.501 267.630 C 128.611 272.877,128.794 274.655,134.031 292.333 C 134.156 292.754,133.930 292.800,131.763 292.800 L 129.356 292.800 129.278 300.733 C 129.202 308.450,129.184 308.689,128.605 309.500 C 126.648 312.245,122.019 311.620,120.818 308.449 C 120.641 307.983,120.533 304.879,120.533 300.249 L 120.533 292.800 119.333 292.800 L 118.133 292.800 118.133 300.249 C 118.133 304.879,118.026 307.983,117.849 308.449 C 116.567 311.832,111.666 312.212,109.898 309.066 C 109.359 308.107,109.333 307.708,109.333 300.430 L 109.333 292.800 106.915 292.800 C 104.735 292.800,104.512 292.754,104.644 292.333 C 107.961 281.741,109.703 273.232,108.971 271.186 C 108.706 270.445,101.001 256.243,100.038 254.720 C 99.872 254.457,99.608 254.569,98.952 255.183 C 97.257 256.766,94.861 256.802,93.043 255.272 C 91.444 253.927,91.467 254.163,91.467 238.542 C 91.467 222.480,91.540 223.054,89.524 223.251 C 87.923 223.407,88.008 221.039,88.001 265.467 L 87.995 306.267 87.359 307.631 C 85.163 312.349,78.499 312.375,76.107 307.676 L 75.467 306.418 75.463 282.609 C 75.458 256.354,75.535 257.529,73.819 257.385 C 71.887 257.223,72.000 255.665,71.997 282.393 L 71.995 306.267 71.359 307.631 C 69.146 312.384,62.348 312.365,60.101 307.600 L 59.472 306.267 59.469 265.658 C 59.466 220.877,59.553 223.200,57.880 223.200 C 55.925 223.200,56.001 222.587,55.994 238.467 C 55.988 254.271,56.003 254.126,54.158 255.490 C 53.705 255.826,53.333 256.337,53.333 256.627 C 53.333 257.506,43.430 309.700,43.171 310.186 C 42.083 312.227,38.678 311.448,38.661 309.154 C 38.658 308.739,40.895 296.520,43.632 282.000 L 48.609 255.600 47.918 254.583 C 46.904 253.090,46.890 252.780,46.993 234.933 C 47.099 216.707,47.017 217.579,48.981 213.820 C 50.723 210.487,54.422 207.561,58.166 206.554 C 60.317 205.975,86.937 205.955,89.146 206.530 M335.455 206.527 C 340.192 207.787,343.895 211.149,345.809 215.925 L 346.533 217.733 346.616 235.067 C 346.707 253.938,346.714 253.835,345.200 255.164 C 343.537 256.624,341.668 256.800,339.794 255.673 C 337.959 254.570,338.015 255.058,337.867 238.894 C 337.719 222.752,337.772 223.200,335.991 223.200 C 334.445 223.200,334.545 220.566,334.400 265.308 C 334.271 305.109,334.249 306.569,333.761 307.552 C 331.392 312.321,324.855 312.370,322.324 307.638 L 321.733 306.533 321.600 282.190 C 321.455 255.644,321.566 257.347,319.975 257.337 C 318.324 257.328,318.415 255.927,318.338 282.416 C 318.270 305.484,318.245 306.578,317.761 307.552 C 315.392 312.321,308.855 312.370,306.324 307.638 L 305.733 306.533 305.663 265.350 C 305.585 220.281,305.692 223.200,304.122 223.200 C 302.344 223.200,302.416 222.575,302.337 238.686 L 302.267 253.240 301.534 254.346 C 299.766 257.017,296.196 257.086,294.214 254.488 L 293.467 253.508 293.467 235.887 C 293.467 219.310,293.496 218.180,293.970 216.800 C 295.684 211.807,298.850 208.536,303.553 206.899 L 305.733 206.140 319.867 206.140 C 331.375 206.140,334.270 206.212,335.455 206.527 M247.117 213.129 C 248.943 214.093,250.933 216.117,252.231 218.335 C 253.570 220.621,262.400 249.145,262.400 251.183 C 262.400 255.412,257.492 257.624,254.765 254.625 C 253.767 253.528,253.459 252.634,249.727 240.000 C 245.727 226.456,245.380 225.660,244.053 226.987 C 243.462 227.578,243.714 228.614,249.866 250.943 C 253.240 263.184,256.000 273.350,256.000 273.533 C 256.000 273.789,254.705 273.867,250.411 273.867 L 244.823 273.867 244.745 290.467 C 244.668 306.877,244.660 307.079,244.093 308.133 C 242.128 311.784,237.574 312.369,234.824 309.325 C 233.339 307.682,233.336 307.642,233.335 290.067 L 233.333 273.867 231.867 273.867 L 230.400 273.867 230.400 290.544 C 230.400 306.412,230.375 307.269,229.893 308.211 C 228.066 311.772,223.411 312.336,220.691 309.325 C 219.206 307.682,219.203 307.642,219.201 290.067 L 219.200 273.867 213.449 273.867 C 208.030 273.867,207.706 273.839,207.850 273.386 C 208.528 271.249,220.266 228.298,220.266 227.952 C 220.267 226.814,218.646 226.243,218.133 227.201 C 217.975 227.495,216.165 233.405,214.109 240.335 C 209.555 255.687,209.305 256.156,205.796 255.931 C 203.155 255.761,201.801 254.321,201.658 251.525 C 201.572 249.841,201.839 248.846,206.088 235.023 C 211.675 216.851,212.364 215.455,216.863 213.205 L 218.775 212.248 232.254 212.324 L 245.733 212.400 247.117 213.129 M122.510 238.681 C 127.892 240.695,129.925 247.382,126.584 252.081 C 123.308 256.688,116.769 257.139,112.919 253.023 C 106.507 246.169,113.715 235.390,122.510 238.681 M281.177 238.681 C 286.559 240.695,288.592 247.382,285.251 252.081 C 281.975 256.688,275.435 257.139,271.585 253.023 C 265.169 246.164,272.376 235.388,281.177 238.681 M286.628 259.341 C 288.243 259.512,290.204 260.652,291.139 261.963 C 292.174 263.413,299.467 281.753,299.467 282.905 C 299.467 284.719,297.978 286.133,296.067 286.133 C 294.411 286.133,294.356 286.028,290.893 276.305 C 289.875 273.447,288.931 270.919,288.796 270.687 C 288.644 270.427,288.544 277.393,288.536 288.933 C 288.522 306.551,288.494 307.661,288.025 308.693 C 286.466 312.127,281.268 312.127,279.708 308.693 C 279.259 307.705,279.211 306.821,279.206 299.453 C 279.200 290.894,279.169 290.667,278.000 290.667 C 276.831 290.667,276.800 290.893,276.800 299.436 C 276.800 307.131,276.770 307.626,276.244 308.714 C 274.581 312.148,269.538 312.135,267.975 308.693 C 267.506 307.661,267.478 306.561,267.473 288.947 C 267.468 274.734,267.393 270.367,267.156 270.604 C 266.984 270.776,265.784 274.288,264.488 278.410 C 261.515 287.867,261.253 288.273,258.643 287.491 C 255.804 286.640,255.879 285.031,259.143 276.800 C 266.184 259.044,265.864 259.413,274.380 259.188 C 279.803 259.045,284.372 259.102,286.628 259.341 " stroke="none" fill="#e4243c" fill-rule="evenodd"></path><path id="path2" d="M40.867 34.332 C 42.443 34.379,45.023 34.379,46.600 34.332 C 48.177 34.285,46.887 34.247,43.733 34.247 C 40.580 34.247,39.290 34.285,40.867 34.332 M111.318 48.800 C 111.318 53.273,111.355 55.103,111.399 52.867 C 111.444 50.630,111.444 46.970,111.399 44.733 C 111.355 42.497,111.318 44.327,111.318 48.800 M34.798 80.200 L 34.800 110.800 42.067 110.807 L 49.334 110.813 42.135 110.736 L 34.936 110.658 34.866 80.129 L 34.797 49.600 34.798 80.200 M107.667 63.922 C 107.997 63.985,108.537 63.985,108.867 63.922 C 109.197 63.858,108.927 63.806,108.267 63.806 C 107.607 63.806,107.337 63.858,107.667 63.922 M83.787 82.065 C 85.062 82.114,87.222 82.114,88.587 82.066 C 89.951 82.017,88.907 81.977,86.267 81.977 C 83.627 81.977,82.511 82.016,83.787 82.065 M119.600 82.035 C 121.510 82.233,123.674 82.251,123.560 82.067 C 123.491 81.957,122.392 81.886,121.118 81.909 C 119.843 81.933,119.160 81.989,119.600 82.035 M132.341 82.063 C 133.042 82.118,134.122 82.117,134.741 82.062 C 135.360 82.006,134.787 81.961,133.467 81.961 C 132.147 81.962,131.640 82.008,132.341 82.063 M141.667 82.066 C 143.390 82.112,146.210 82.112,147.933 82.066 C 149.657 82.019,148.247 81.981,144.800 81.981 C 141.353 81.981,139.943 82.019,141.667 82.066 M155.800 82.065 C 156.937 82.115,158.797 82.115,159.933 82.065 C 161.070 82.015,160.140 81.974,157.867 81.974 C 155.593 81.974,154.663 82.015,155.800 82.065 M175.400 82.066 C 177.490 82.111,180.910 82.111,183.000 82.066 C 185.090 82.021,183.380 81.984,179.200 81.984 C 175.020 81.984,173.310 82.021,175.400 82.066 M188.209 82.064 C 188.984 82.118,190.184 82.117,190.876 82.062 C 191.567 82.008,190.933 81.963,189.467 81.964 C 188.000 81.965,187.434 82.010,188.209 82.064 M199.600 82.036 C 201.485 82.233,203.941 82.251,203.826 82.067 C 203.758 81.957,202.599 81.886,201.251 81.909 C 199.903 81.933,199.160 81.990,199.600 82.036 M159.804 85.791 C 160.209 85.853,160.809 85.851,161.137 85.788 C 161.465 85.724,161.133 85.674,160.400 85.676 C 159.667 85.678,159.398 85.730,159.804 85.791 M172.867 86.063 C 173.563 86.118,174.703 86.118,175.400 86.063 C 176.097 86.008,175.527 85.963,174.133 85.963 C 172.740 85.963,172.170 86.008,172.867 86.063 M183.000 86.063 C 183.697 86.118,184.837 86.118,185.533 86.063 C 186.230 86.008,185.660 85.963,184.267 85.963 C 182.873 85.963,182.303 86.008,183.000 86.063 M92.329 90.133 C 92.329 90.647,92.383 90.857,92.450 90.600 C 92.518 90.343,92.518 89.923,92.450 89.667 C 92.383 89.410,92.329 89.620,92.329 90.133 M97.395 90.400 C 97.395 90.913,97.450 91.123,97.517 90.867 C 97.584 90.610,97.584 90.190,97.517 89.933 C 97.450 89.677,97.395 89.887,97.395 90.400 M99.583 96.533 C 99.583 100.420,99.620 102.010,99.666 100.067 C 99.712 98.123,99.712 94.943,99.666 93.000 C 99.620 91.057,99.583 92.647,99.583 96.533 M149.385 95.924 L 149.333 97.848 146.600 97.934 L 143.867 98.021 146.608 98.077 C 149.765 98.142,149.673 98.217,149.532 95.705 L 149.436 94.000 149.385 95.924 M87.533 98.324 C 87.937 98.385,88.597 98.385,89.000 98.324 C 89.403 98.263,89.073 98.213,88.267 98.213 C 87.460 98.213,87.130 98.263,87.533 98.324 M197.980 105.600 C 197.980 108.753,198.019 110.043,198.066 108.467 C 198.113 106.890,198.113 104.310,198.066 102.733 C 198.019 101.157,197.980 102.447,197.980 105.600 M73.137 179.658 C 73.542 179.719,74.142 179.718,74.470 179.654 C 74.798 179.591,74.467 179.541,73.733 179.543 C 73.000 179.545,72.732 179.597,73.137 179.658 M319.400 179.655 C 319.730 179.718,320.270 179.718,320.600 179.655 C 320.930 179.591,320.660 179.539,320.000 179.539 C 319.340 179.539,319.070 179.591,319.400 179.655 M62.462 190.667 C 62.462 191.180,62.517 191.390,62.584 191.133 C 62.651 190.877,62.651 190.457,62.584 190.200 C 62.517 189.943,62.462 190.153,62.462 190.667 M242.467 196.667 C 242.470 197.253,242.525 197.462,242.589 197.130 C 242.652 196.799,242.650 196.319,242.583 196.064 C 242.516 195.809,242.464 196.080,242.467 196.667 M81.450 198.733 L 80.667 199.600 81.533 198.817 C 82.341 198.087,82.523 197.867,82.317 197.867 C 82.271 197.867,81.881 198.257,81.450 198.733 M293.459 236.267 C 293.459 245.287,293.492 248.977,293.533 244.467 C 293.574 239.957,293.574 232.577,293.533 228.067 C 293.492 223.557,293.459 227.247,293.459 236.267 M55.857 238.667 C 55.857 246.367,55.891 249.517,55.933 245.667 C 55.975 241.817,55.975 235.517,55.933 231.667 C 55.891 227.817,55.857 230.967,55.857 238.667 M334.263 265.200 C 334.263 287.493,334.295 296.574,334.333 285.379 C 334.372 274.184,334.372 255.944,334.333 244.846 C 334.295 233.747,334.263 242.907,334.263 265.200 M91.591 238.800 C 91.591 246.427,91.625 249.508,91.667 245.648 C 91.708 241.788,91.708 235.548,91.666 231.781 C 91.625 228.015,91.591 231.173,91.591 238.800 M128.073 246.933 C 128.073 247.593,128.125 247.863,128.188 247.533 C 128.252 247.203,128.252 246.663,128.188 246.333 C 128.125 246.003,128.073 246.273,128.073 246.933 M286.739 246.933 C 286.739 247.593,286.791 247.863,286.855 247.533 C 286.918 247.203,286.918 246.663,286.855 246.333 C 286.791 246.003,286.739 246.273,286.739 246.933 M110.462 246.933 C 110.462 247.447,110.517 247.657,110.584 247.400 C 110.651 247.143,110.651 246.723,110.584 246.467 C 110.517 246.210,110.462 246.420,110.462 246.933 M269.134 247.067 C 269.137 247.653,269.191 247.862,269.255 247.530 C 269.319 247.199,269.317 246.719,269.250 246.464 C 269.183 246.209,269.131 246.480,269.134 247.067 M318.261 282.133 C 318.261 295.113,318.294 300.423,318.333 293.933 C 318.373 287.443,318.373 276.823,318.333 270.333 C 318.294 263.843,318.261 269.153,318.261 282.133 M288.389 270.467 C 288.319 270.650,288.294 279.020,288.333 289.067 L 288.404 307.333 288.469 288.851 C 288.517 274.962,288.610 270.416,288.841 270.559 C 289.032 270.677,289.077 270.632,288.959 270.441 C 288.713 270.044,288.548 270.052,288.389 270.467 M144.765 273.672 C 144.878 273.785,147.483 273.845,150.552 273.805 L 156.133 273.732 150.346 273.600 C 147.163 273.526,144.652 273.559,144.765 273.672 M186.933 273.600 L 181.200 273.749 186.851 273.808 C 190.395 273.845,192.563 273.767,192.667 273.600 C 192.757 273.453,192.794 273.360,192.749 273.392 C 192.704 273.424,190.087 273.518,186.933 273.600 M167.938 273.793 C 168.417 273.853,169.137 273.851,169.538 273.791 C 169.939 273.730,169.547 273.681,168.667 273.683 C 167.787 273.684,167.459 273.734,167.938 273.793 M213.598 273.797 L 219.196 273.877 219.268 290.005 L 219.340 306.133 219.336 289.933 L 219.333 273.733 213.666 273.725 L 208.000 273.717 213.598 273.797 M231.863 273.791 L 233.329 273.893 233.401 290.013 L 233.473 306.133 233.470 289.933 L 233.467 273.733 231.932 273.711 L 230.397 273.689 231.863 273.791 M247.252 273.799 C 248.820 273.846,251.460 273.846,253.119 273.799 C 254.777 273.752,253.493 273.714,250.267 273.714 C 247.040 273.713,245.683 273.752,247.252 273.799 M276.651 299.333 C 276.651 303.733,276.688 305.571,276.733 303.416 C 276.777 301.262,276.778 297.662,276.733 295.416 C 276.688 293.171,276.652 294.933,276.651 299.333 M279.318 299.600 C 279.318 304.000,279.355 305.837,279.399 303.683 C 279.444 301.529,279.444 297.929,279.400 295.683 C 279.355 293.437,279.318 295.200,279.318 299.600 " stroke="none" fill="#f4949c" fill-rule="evenodd"></path><path id="path3" d="M81.463 48.867 L 81.467 63.600 83.867 63.618 L 86.267 63.635 83.936 63.540 L 81.605 63.446 81.532 48.790 L 81.460 34.133 81.463 48.867 M105.451 48.933 C 105.451 53.333,105.488 55.171,105.533 53.016 C 105.577 50.862,105.578 47.262,105.533 45.016 C 105.488 42.771,105.452 44.533,105.451 48.933 M99.850 48.800 C 99.850 52.687,99.887 54.277,99.933 52.333 C 99.978 50.390,99.978 47.210,99.933 45.267 C 99.887 43.323,99.850 44.913,99.850 48.800 M116.913 48.800 C 116.913 51.953,116.952 53.243,116.999 51.667 C 117.046 50.090,117.046 47.510,116.999 45.933 C 116.952 44.357,116.913 45.647,116.913 48.800 M94.061 63.659 C 94.534 63.718,95.374 63.719,95.927 63.661 C 96.481 63.604,96.093 63.555,95.067 63.554 C 94.040 63.553,93.587 63.600,94.061 63.659 M81.463 96.667 L 81.467 111.333 84.133 111.347 L 86.800 111.361 84.202 111.271 L 81.605 111.181 81.532 96.591 L 81.460 82.000 81.463 96.667 M171.556 84.000 C 171.556 85.100,171.603 85.550,171.661 85.000 C 171.718 84.450,171.718 83.550,171.661 83.000 C 171.603 82.450,171.556 82.900,171.556 84.000 M159.309 90.133 C 159.309 92.553,159.349 93.543,159.398 92.333 C 159.448 91.123,159.448 89.143,159.398 87.933 C 159.349 86.723,159.309 87.713,159.309 90.133 M181.931 98.591 L 181.867 111.181 179.133 111.268 L 176.400 111.354 179.142 111.410 C 181.132 111.451,181.918 111.375,182.011 111.133 C 182.081 110.950,182.106 105.220,182.067 98.400 L 181.995 86.000 181.931 98.591 M159.378 98.044 C 159.280 98.142,159.200 101.138,159.200 104.702 L 159.200 111.181 156.600 111.271 L 154.000 111.361 156.667 111.347 L 159.333 111.333 159.405 104.748 L 159.476 98.164 160.605 98.062 L 161.733 97.960 160.644 97.913 C 160.046 97.888,159.476 97.947,159.378 98.044 M150.985 109.262 L 150.933 111.190 144.733 111.267 L 138.533 111.344 144.742 111.405 C 151.790 111.475,151.279 111.664,151.132 109.039 L 151.036 107.333 150.985 109.262 M165.036 111.277 C 165.152 111.392,166.436 111.452,167.890 111.409 L 170.533 111.330 167.679 111.198 C 166.109 111.126,164.919 111.161,165.036 111.277 M126.076 111.397 C 126.851 111.451,128.051 111.450,128.742 111.396 C 129.434 111.341,128.800 111.297,127.333 111.297 C 125.867 111.298,125.301 111.343,126.076 111.397 M194.076 111.397 C 194.851 111.451,196.051 111.450,196.742 111.396 C 197.434 111.341,196.800 111.297,195.333 111.297 C 193.867 111.298,193.301 111.343,194.076 111.397 M311.986 182.867 L 311.067 183.867 312.067 182.948 C 312.997 182.092,313.189 181.867,312.986 181.867 C 312.941 181.867,312.491 182.317,311.986 182.867 M238.667 188.350 C 238.667 188.396,239.057 188.786,239.533 189.217 L 240.400 190.000 239.617 189.133 C 238.887 188.325,238.667 188.144,238.667 188.350 M179.267 196.667 C 179.270 197.253,179.325 197.462,179.389 197.130 C 179.452 196.799,179.450 196.319,179.383 196.064 C 179.316 195.809,179.264 196.080,179.267 196.667 M327.850 198.733 L 327.067 199.600 327.933 198.817 C 328.741 198.087,328.923 197.867,328.717 197.867 C 328.671 197.867,328.281 198.257,327.850 198.733 M73.137 202.058 C 73.542 202.119,74.142 202.118,74.470 202.054 C 74.798 201.991,74.467 201.941,73.733 201.943 C 73.000 201.945,72.732 201.997,73.137 202.058 M319.400 202.055 C 319.730 202.118,320.270 202.118,320.600 202.055 C 320.930 201.991,320.660 201.939,320.000 201.939 C 319.340 201.939,319.070 201.991,319.400 202.055 M297.586 210.600 L 296.667 211.600 297.667 210.681 C 298.217 210.176,298.667 209.726,298.667 209.681 C 298.667 209.477,298.441 209.669,297.586 210.600 M213.987 215.267 L 212.933 216.400 214.067 215.346 C 214.690 214.766,215.200 214.256,215.200 214.213 C 215.200 214.011,214.968 214.213,213.987 215.267 M47.059 236.400 C 47.059 245.347,47.092 248.968,47.133 244.447 C 47.174 239.927,47.174 232.607,47.133 228.181 C 47.092 223.755,47.059 227.453,47.059 236.400 M302.257 238.533 C 302.257 246.160,302.292 249.242,302.333 245.381 C 302.375 241.521,302.375 235.281,302.333 231.515 C 302.291 227.748,302.257 230.907,302.257 238.533 M305.730 265.333 C 305.730 287.553,305.761 296.643,305.800 285.533 C 305.838 274.423,305.838 256.243,305.800 245.133 C 305.761 234.023,305.730 243.113,305.730 265.333 M280.203 259.122 C 280.535 259.186,281.015 259.183,281.270 259.117 C 281.525 259.050,281.253 258.998,280.667 259.001 C 280.080 259.004,279.871 259.058,280.203 259.122 M321.728 282.400 C 321.728 295.380,321.760 300.690,321.800 294.200 C 321.840 287.710,321.840 277.090,321.800 270.600 C 321.760 264.110,321.728 269.420,321.728 282.400 M116.467 261.266 C 118.117 261.313,120.817 261.313,122.467 261.266 C 124.117 261.219,122.767 261.181,119.467 261.181 C 116.167 261.181,114.817 261.219,116.467 261.266 M244.659 289.867 C 244.659 298.740,244.692 302.370,244.733 297.933 C 244.774 293.497,244.774 286.237,244.733 281.800 C 244.692 277.363,244.659 280.993,244.659 289.867 " stroke="none" fill="#ec6777" fill-rule="evenodd"></path><path id="path4" d="" stroke="none" fill="#f48494" fill-rule="evenodd"></path></g></svg>