<svg id="svg" version="1.1" xmlns="http://www.w3.org/2000/svg" xmlns:xlink="http://www.w3.org/1999/xlink" width="400" height="400" viewBox="0, 0, 400,400"><g id="svgg"><path id="path0" d="M47.067 33.615 C 36.612 35.240,31.200 42.713,31.200 55.526 L 31.200 58.400 38.359 58.400 L 45.518 58.400 45.683 54.867 C 46.009 47.909,47.372 45.305,50.909 44.887 C 55.642 44.326,57.733 47.283,57.733 54.533 C 57.733 62.769,55.755 65.513,49.604 65.809 L 46.933 65.938 46.933 71.236 L 46.933 76.533 48.654 76.533 C 55.305 76.533,57.833 79.941,57.855 88.933 C 57.873 96.009,56.617 99.004,53.338 99.707 C 48.373 100.772,46.132 97.812,45.690 89.605 L 45.518 86.400 38.317 86.400 L 31.117 86.400 31.293 90.333 C 31.762 100.807,34.865 106.994,41.173 110.029 C 46.899 112.785,57.109 112.635,62.669 109.714 C 75.086 103.189,75.636 75.136,63.430 70.881 L 62.576 70.583 64.260 69.787 C 73.611 65.370,75.156 46.907,66.868 38.619 C 62.760 34.512,54.588 32.446,47.067 33.615 M110.794 34.121 C 105.467 34.940,104.416 37.647,104.598 50.075 C 104.717 58.216,104.873 59.183,106.413 61.309 C 108.685 64.445,114.842 64.660,116.609 61.666 C 117.238 60.599,117.507 60.896,117.573 62.733 C 117.600 63.455,117.627 63.467,119.333 63.467 L 121.067 63.467 121.067 56.133 L 121.067 48.800 117.067 48.800 L 113.067 48.800 113.067 50.400 L 113.067 52.000 114.667 52.000 L 116.267 52.000 116.267 54.302 C 116.267 58.370,115.406 59.867,113.067 59.867 C 110.136 59.867,109.870 58.928,109.868 48.591 C 109.866 38.607,110.083 37.867,113.013 37.867 C 114.903 37.867,115.640 38.816,115.879 41.557 L 116.069 43.733 118.467 43.733 L 120.865 43.733 120.753 41.378 C 120.483 35.731,116.971 33.172,110.794 34.121 M130.800 34.129 C 128.110 34.560,126.359 35.857,125.299 38.202 C 124.543 39.873,124.306 56.280,125.004 58.575 C 126.962 65.019,137.613 65.843,140.233 59.753 C 141.877 55.932,141.787 41.116,140.099 37.647 C 138.715 34.802,135.110 33.438,130.800 34.129 M150.877 34.148 C 145.611 34.944,144.537 37.425,144.537 48.800 C 144.537 61.325,145.825 63.595,152.933 63.599 C 158.031 63.601,160.305 61.848,161.067 57.330 C 161.571 54.343,161.295 40.212,160.701 38.631 C 159.367 35.075,155.729 33.415,150.877 34.148 M165.067 48.910 L 165.067 63.467 169.284 63.467 C 180.125 63.467,181.055 62.304,181.063 48.746 C 181.070 35.462,180.438 34.610,170.467 34.443 L 165.067 34.353 165.067 48.910 M193.600 48.933 L 193.600 63.467 196.267 63.467 L 198.933 63.467 198.933 56.800 L 198.933 50.133 201.867 50.133 L 204.800 50.133 204.800 56.800 L 204.800 63.467 207.467 63.467 L 210.133 63.467 210.133 48.933 L 210.133 34.400 207.467 34.400 L 204.800 34.400 204.800 40.533 L 204.800 46.667 201.867 46.667 L 198.933 46.667 198.933 40.533 L 198.933 34.400 196.267 34.400 L 193.600 34.400 193.600 48.933 M214.400 48.933 L 214.400 63.467 220.533 63.467 L 226.667 63.467 226.667 61.741 L 226.667 60.016 223.267 59.941 L 219.867 59.867 219.794 55.000 L 219.721 50.133 222.394 50.133 L 225.067 50.133 225.067 48.267 L 225.067 46.400 222.393 46.400 L 219.720 46.400 219.793 42.200 L 219.867 38.000 223.267 37.925 L 226.667 37.851 226.667 36.125 L 226.667 34.400 220.533 34.400 L 214.400 34.400 214.400 48.933 M234.024 34.867 C 233.842 35.454,228.267 62.928,228.267 63.238 C 228.267 63.364,229.339 63.467,230.649 63.467 C 233.392 63.467,233.099 63.796,233.733 60.000 C 234.368 56.203,234.074 56.533,236.825 56.533 C 239.644 56.533,239.431 56.272,240.141 60.603 L 240.611 63.467 243.077 63.467 L 245.542 63.467 244.531 58.600 C 243.975 55.923,242.645 49.383,241.575 44.067 L 239.630 34.400 236.900 34.400 C 234.532 34.400,234.150 34.462,234.024 34.867 M248.267 48.933 L 248.267 63.467 254.400 63.467 L 260.533 63.467 260.533 61.733 L 260.533 60.000 257.067 60.000 L 253.600 60.000 253.600 47.200 L 253.600 34.400 250.933 34.400 L 248.267 34.400 248.267 48.933 M260.533 36.267 L 260.533 38.133 262.933 38.133 L 265.333 38.133 265.333 50.800 L 265.333 63.467 268.000 63.467 L 270.667 63.467 270.667 50.800 L 270.667 38.133 272.933 38.133 L 275.200 38.133 275.200 36.267 L 275.200 34.400 267.867 34.400 L 260.533 34.400 260.533 36.267 M277.600 48.933 L 277.600 63.467 280.267 63.467 L 282.933 63.467 282.933 56.800 L 282.933 50.133 285.867 50.133 L 288.800 50.133 288.800 56.800 L 288.800 63.467 291.467 63.467 L 294.133 63.467 294.133 48.933 L 294.133 34.400 291.467 34.400 L 288.800 34.400 288.800 40.533 L 288.800 46.667 285.867 46.667 L 282.933 46.667 282.933 40.533 L 282.933 34.400 280.267 34.400 L 277.600 34.400 277.600 48.933 M134.799 38.467 C 135.183 38.798,135.605 39.544,135.741 40.133 C 136.074 41.574,136.066 56.417,135.732 57.620 C 134.971 60.360,131.302 60.787,130.246 58.258 C 129.762 57.099,129.689 40.856,130.162 39.500 C 130.726 37.881,133.423 37.280,134.799 38.467 M154.636 38.302 C 155.910 39.194,156.000 39.900,156.000 48.991 C 155.999 56.529,155.948 57.569,155.533 58.393 C 154.555 60.337,151.488 60.456,150.468 58.590 C 149.971 57.681,149.602 43.289,150.005 40.557 C 150.345 38.255,152.837 37.042,154.636 38.302 M174.400 38.648 C 175.686 39.555,175.725 39.853,175.729 48.800 C 175.733 59.378,175.615 59.720,171.933 59.729 L 170.400 59.733 170.400 48.978 C 170.400 43.062,170.485 38.137,170.590 38.032 C 170.917 37.706,173.701 38.156,174.400 38.648 M237.842 46.933 C 238.297 49.793,238.731 52.403,238.806 52.733 C 238.939 53.315,238.881 53.333,236.938 53.333 C 235.691 53.333,234.933 53.225,234.933 53.048 C 234.933 52.092,236.780 41.489,236.920 41.635 C 236.972 41.689,237.387 44.073,237.842 46.933 M323.732 82.116 C 319.650 83.357,318.889 85.401,318.732 95.547 C 318.529 108.592,319.885 111.467,326.240 111.467 C 328.847 111.467,329.838 110.943,331.107 108.896 C 331.371 108.470,331.442 108.598,331.608 109.800 L 331.802 111.200 333.501 111.200 L 335.200 111.200 335.200 103.867 L 335.200 96.533 331.333 96.533 L 327.467 96.533 327.467 98.133 L 327.467 99.733 328.933 99.733 L 330.400 99.733 330.400 102.036 C 330.400 106.585,328.686 108.634,325.858 107.463 C 324.185 106.770,324.133 106.442,324.133 96.486 C 324.133 86.354,324.148 86.280,326.210 85.757 C 328.608 85.148,329.795 86.318,330.043 89.535 L 330.212 91.733 332.605 91.733 L 334.997 91.733 334.882 89.267 C 334.696 85.280,333.343 83.089,330.552 82.258 C 329.168 81.846,324.910 81.757,323.732 82.116 M109.333 82.348 C 109.333 82.560,103.877 109.451,103.601 110.600 C 103.459 111.190,103.499 111.200,105.954 111.200 L 108.452 111.200 108.918 108.467 C 109.672 104.051,109.264 104.533,112.244 104.533 L 114.830 104.533 115.303 107.501 C 115.945 111.529,115.665 111.200,118.457 111.200 C 120.812 111.200,120.855 111.189,120.712 110.600 C 120.631 110.270,119.351 104.000,117.868 96.667 C 116.385 89.333,115.104 83.063,115.023 82.733 C 114.873 82.122,109.333 81.746,109.333 82.348 M123.733 96.654 L 123.733 111.200 125.867 111.200 L 128.000 111.200 128.011 102.600 C 128.020 95.281,128.074 94.099,128.376 94.667 C 128.571 95.033,130.209 98.903,132.016 103.267 L 135.300 111.200 136.984 111.200 L 138.667 111.200 138.667 96.667 L 138.667 82.133 136.533 82.133 L 134.400 82.133 134.400 90.178 C 134.400 94.602,134.321 98.143,134.224 98.046 C 134.127 97.950,132.531 94.360,130.676 90.069 L 127.303 82.267 125.518 82.188 L 123.733 82.109 123.733 96.654 M142.933 96.667 L 142.933 111.256 148.200 111.161 C 158.142 110.983,158.933 109.904,158.933 96.533 C 158.933 83.188,158.312 82.346,148.333 82.173 L 142.933 82.079 142.933 96.667 M172.571 96.600 C 173.714 104.557,174.653 111.097,174.658 111.133 C 174.663 111.170,175.617 111.200,176.779 111.200 C 178.869 111.200,178.893 111.192,179.040 110.467 C 179.122 110.063,179.797 106.073,180.539 101.600 C 181.282 97.127,181.986 93.167,182.105 92.800 L 182.320 92.133 182.490 92.933 C 182.583 93.373,183.261 97.393,183.997 101.867 C 184.733 106.340,185.397 110.270,185.473 110.600 C 185.601 111.159,185.752 111.200,187.692 111.200 L 189.775 111.200 191.720 97.533 C 192.790 90.017,193.726 83.477,193.801 83.000 L 193.936 82.133 191.792 82.133 L 189.647 82.133 189.490 83.133 C 189.404 83.683,188.913 87.553,188.400 91.733 C 187.886 95.913,187.390 99.633,187.297 100.000 C 187.168 100.508,184.056 83.784,184.007 82.321 C 184.003 82.204,183.194 82.144,182.209 82.188 L 180.418 82.267 178.892 91.333 C 178.053 96.320,177.346 100.460,177.322 100.533 C 177.278 100.665,175.806 89.750,175.192 84.733 L 174.873 82.133 172.684 82.133 L 170.494 82.133 172.571 96.600 M197.333 96.667 L 197.333 111.200 203.333 111.200 L 209.333 111.200 209.333 109.475 L 209.333 107.749 205.933 107.675 L 202.533 107.600 202.461 102.733 L 202.388 97.867 205.194 97.867 L 208.000 97.867 208.000 96.000 L 208.000 94.133 205.193 94.133 L 202.386 94.133 202.460 89.933 L 202.533 85.733 205.933 85.659 L 209.333 85.584 209.333 83.859 L 209.333 82.133 203.333 82.133 L 197.333 82.133 197.333 96.667 M212.533 96.667 L 212.533 111.200 218.533 111.200 L 224.533 111.200 224.533 109.475 L 224.533 107.749 221.133 107.675 L 217.733 107.600 217.664 94.867 L 217.595 82.133 215.064 82.133 L 212.533 82.133 212.533 96.667 M227.467 96.667 L 227.467 111.200 233.467 111.200 L 239.467 111.200 239.467 109.475 L 239.467 107.749 236.067 107.675 L 232.667 107.600 232.597 94.867 L 232.528 82.133 229.997 82.133 L 227.467 82.133 227.467 96.667 M254.933 96.666 L 254.933 111.239 260.487 111.153 L 266.040 111.067 267.620 110.261 C 272.810 107.613,272.799 97.844,267.604 95.965 L 266.674 95.629 267.937 94.948 C 269.824 93.930,270.402 92.612,270.394 89.343 C 270.381 83.596,268.562 82.318,260.200 82.180 L 254.933 82.093 254.933 96.666 M274.933 96.667 L 274.933 111.200 280.933 111.200 L 286.933 111.200 286.933 109.475 L 286.933 107.749 283.533 107.675 L 280.133 107.600 280.061 102.733 L 279.988 97.867 282.661 97.867 L 285.333 97.867 285.333 96.000 L 285.333 94.133 282.660 94.133 L 279.986 94.133 280.060 89.933 L 280.133 85.733 283.533 85.659 L 286.933 85.584 286.933 83.859 L 286.933 82.133 280.933 82.133 L 274.933 82.133 274.933 96.667 M290.133 96.667 L 290.133 111.200 292.667 111.200 L 295.200 111.200 295.200 96.667 L 295.200 82.133 292.667 82.133 L 290.133 82.133 290.133 96.667 M299.733 96.667 L 299.733 111.200 301.867 111.200 L 304.000 111.200 304.000 102.613 C 304.000 97.182,304.093 94.120,304.254 94.280 C 304.393 94.420,306.050 98.254,307.935 102.800 L 311.362 111.067 313.148 111.146 L 314.933 111.224 314.933 96.679 L 314.933 82.133 312.800 82.133 L 310.667 82.133 310.667 90.133 C 310.667 94.533,310.577 98.133,310.467 98.133 C 310.357 98.133,308.716 94.533,306.821 90.133 L 303.375 82.133 301.554 82.133 L 299.733 82.133 299.733 96.667 M264.442 86.305 C 266.248 87.161,266.583 91.404,264.972 93.016 C 264.311 93.677,261.276 94.373,260.446 94.055 C 259.971 93.872,259.744 86.215,260.200 85.752 C 260.493 85.455,263.463 85.842,264.442 86.305 M152.596 86.645 L 153.467 87.422 153.538 96.311 C 153.627 107.316,153.575 107.467,149.716 107.467 L 148.267 107.467 148.267 96.667 L 148.267 85.867 149.996 85.867 C 151.529 85.867,151.823 85.955,152.596 86.645 M113.221 94.983 C 113.716 97.962,114.124 100.550,114.127 100.733 C 114.132 100.971,113.555 101.067,112.115 101.067 C 110.320 101.067,110.112 101.015,110.233 100.600 C 110.308 100.343,110.753 97.700,111.222 94.726 C 111.691 91.752,112.130 89.374,112.198 89.442 C 112.265 89.510,112.726 92.003,113.221 94.983 M264.474 98.236 C 265.638 98.838,266.199 100.056,266.330 102.267 C 266.554 106.028,265.345 107.467,261.961 107.467 L 260.000 107.467 260.000 102.711 C 260.000 100.096,260.090 97.863,260.200 97.750 C 260.525 97.415,263.553 97.760,264.474 98.236 M242.133 99.733 L 242.133 101.333 246.400 101.333 L 250.667 101.333 250.667 99.733 L 250.667 98.133 246.400 98.133 L 242.133 98.133 242.133 99.733 M267.467 150.700 C 266.615 151.039,265.650 151.941,265.189 152.827 C 264.990 153.208,254.018 189.448,240.806 233.360 C 227.595 277.272,216.686 313.440,216.565 313.733 L 216.345 314.267 216.186 313.733 C 216.098 313.440,213.077 295.980,209.471 274.933 C 202.254 232.796,202.855 236.044,202.097 235.081 C 200.787 233.415,198.377 232.910,196.373 233.880 C 194.937 234.575,196.096 232.592,184.138 254.800 C 173.011 275.462,173.017 275.452,172.888 275.061 C 172.841 274.918,170.654 259.774,168.028 241.408 C 164.056 213.624,163.162 207.868,162.707 207.132 C 161.180 204.661,157.306 204.371,155.440 206.588 C 155.073 207.025,149.745 218.680,143.601 232.487 L 132.430 257.592 100.415 257.662 C 68.664 257.733,68.392 257.738,67.468 258.281 C 64.515 260.016,64.557 264.699,67.541 266.330 C 68.585 266.901,134.513 267.211,136.578 266.655 C 138.802 266.056,138.784 266.090,147.908 245.536 C 153.703 232.481,156.459 226.553,156.584 226.869 C 156.686 227.124,158.823 241.784,161.334 259.445 C 163.845 277.106,166.060 291.867,166.256 292.246 C 167.360 294.381,170.143 295.226,172.427 294.120 C 173.860 293.427,172.703 295.402,184.522 273.467 C 190.132 263.053,195.034 253.993,195.415 253.333 L 196.108 252.133 196.323 252.933 C 196.442 253.373,199.726 272.333,203.622 295.067 C 209.085 326.940,210.826 336.595,211.233 337.253 C 212.821 339.823,217.207 339.935,218.838 337.447 C 219.094 337.055,230.711 298.847,244.652 252.541 C 258.593 206.235,270.105 168.322,270.234 168.291 C 270.363 168.259,275.025 177.691,280.595 189.250 C 286.165 200.809,290.980 210.548,291.295 210.892 C 294.074 213.931,299.200 211.959,299.200 207.850 C 299.200 206.485,274.046 153.688,272.546 151.905 C 271.406 150.550,269.172 150.020,267.467 150.700 M282.000 230.295 C 268.545 233.072,262.672 251.477,271.544 263.067 C 272.217 263.947,279.197 271.087,287.055 278.933 L 301.341 293.200 315.976 278.533 C 327.041 267.444,330.910 263.400,331.839 261.953 C 338.449 251.655,335.093 236.717,325.058 231.770 C 317.687 228.136,311.568 229.760,303.469 237.497 L 301.339 239.532 298.987 237.300 C 292.079 230.740,287.998 229.057,282.000 230.295 " stroke="none" fill="#fbfbfa" fill-rule="evenodd"></path><path id="path1" d="M0.000 200.000 L 0.000 400.000 200.000 400.000 L 400.000 400.000 400.000 200.000 L 400.000 0.000 200.000 0.000 L 0.000 0.000 0.000 200.000 M55.207 33.339 C 65.495 34.580,71.354 40.694,72.249 51.121 C 72.982 59.671,69.827 67.311,64.539 69.796 L 63.035 70.503 64.384 71.168 C 69.501 73.692,72.268 79.716,72.300 88.400 C 72.358 104.259,65.640 112.051,51.867 112.099 C 37.853 112.147,31.416 105.123,31.126 89.467 L 31.067 86.267 38.400 86.267 L 45.733 86.267 45.905 89.751 C 46.241 96.543,47.526 99.123,50.820 99.617 C 55.665 100.343,57.312 97.981,57.525 90.000 C 57.794 79.954,56.017 77.258,48.733 76.658 L 46.667 76.488 46.667 71.073 L 46.667 65.659 49.533 65.557 C 55.791 65.334,57.467 63.034,57.467 54.667 C 57.467 47.191,55.999 44.906,51.332 45.119 C 47.451 45.295,46.251 47.409,45.948 54.600 L 45.788 58.400 38.361 58.400 L 30.933 58.400 30.936 56.467 C 30.955 39.759,39.661 31.464,55.207 33.339 M116.234 34.282 C 119.184 35.158,120.727 37.539,120.992 41.627 L 121.146 44.000 118.439 44.000 L 115.733 44.000 115.732 42.333 C 115.729 38.781,114.536 37.450,111.973 38.141 C 110.163 38.628,110.133 38.798,110.133 48.662 C 110.133 59.299,110.245 59.733,112.990 59.733 C 115.094 59.733,115.873 58.498,116.159 54.705 L 116.343 52.267 114.705 52.267 L 113.067 52.267 113.067 50.400 L 113.067 48.533 117.204 48.533 L 121.342 48.533 121.271 56.067 L 121.200 63.600 119.491 63.680 C 117.589 63.770,117.344 63.602,117.337 62.200 C 117.333 61.161,117.022 61.087,116.528 62.009 C 114.660 65.501,107.631 64.344,105.636 60.216 C 103.713 56.238,103.669 41.776,105.568 37.719 C 107.149 34.340,111.600 32.906,116.234 34.282 M137.496 34.813 C 140.849 36.525,141.333 38.322,141.333 49.031 C 141.333 61.019,140.194 63.337,134.020 63.913 C 129.330 64.351,126.326 62.659,124.904 58.778 C 123.707 55.508,124.115 40.268,125.472 37.590 C 127.289 34.004,133.227 32.633,137.496 34.813 M157.467 34.696 C 160.790 36.378,161.383 38.244,161.534 47.503 C 161.756 61.053,160.212 63.900,152.667 63.851 C 145.808 63.807,144.533 61.449,144.533 48.796 C 144.533 37.357,145.157 35.639,149.867 34.102 C 151.370 33.611,156.046 33.977,157.467 34.696 M177.492 35.202 C 179.217 36.081,179.386 36.250,180.264 37.975 L 181.200 39.813 181.197 48.640 C 181.195 56.474,181.141 57.602,180.720 58.667 C 179.127 62.692,176.701 63.717,168.733 63.728 L 165.067 63.733 165.067 48.906 L 165.067 34.078 170.360 34.172 L 175.654 34.267 177.492 35.202 M198.933 40.267 L 198.933 46.400 201.867 46.400 L 204.800 46.400 204.800 40.267 L 204.800 34.133 207.602 34.133 L 210.405 34.133 210.336 48.867 L 210.267 63.600 207.533 63.676 L 204.800 63.752 204.800 57.076 L 204.800 50.400 201.867 50.400 L 198.933 50.400 198.933 57.076 L 198.933 63.752 196.200 63.676 L 193.467 63.600 193.398 48.867 L 193.329 34.133 196.131 34.133 L 198.933 34.133 198.933 40.267 M226.933 36.133 L 226.933 38.133 223.467 38.133 L 220.000 38.133 220.000 42.267 L 220.000 46.400 222.667 46.400 L 225.333 46.400 225.333 48.400 L 225.333 50.400 222.667 50.400 L 220.000 50.400 220.000 55.067 L 220.000 59.733 223.478 59.733 L 226.957 59.733 226.878 61.667 L 226.800 63.600 220.600 63.672 L 214.400 63.743 214.400 48.938 L 214.400 34.133 220.667 34.133 L 226.933 34.133 226.933 36.133 M239.862 34.733 C 240.291 36.581,245.600 63.087,245.600 63.381 C 245.600 63.681,240.582 63.962,240.519 63.667 C 240.511 63.630,240.241 62.100,239.919 60.267 L 239.333 56.933 236.892 56.857 L 234.451 56.781 234.134 58.724 C 233.960 59.792,233.676 61.327,233.503 62.133 L 233.189 63.600 230.563 63.677 C 227.947 63.753,227.938 63.751,228.079 63.143 C 228.157 62.808,229.512 56.143,231.089 48.333 L 233.958 34.133 236.841 34.133 C 239.611 34.133,239.729 34.157,239.862 34.733 M253.600 46.933 L 253.600 59.733 257.212 59.733 L 260.823 59.733 260.745 61.667 L 260.667 63.600 254.400 63.600 L 248.133 63.600 248.064 48.867 L 247.995 34.133 250.798 34.133 L 253.600 34.133 253.600 46.933 M275.467 36.267 L 275.467 38.400 273.067 38.400 L 270.667 38.400 270.667 51.076 L 270.667 63.752 267.933 63.676 L 265.200 63.600 265.131 51.010 L 265.061 38.421 262.731 38.344 L 260.400 38.267 260.322 36.200 L 260.244 34.133 267.855 34.133 L 275.467 34.133 275.467 36.267 M282.933 40.267 L 282.933 46.400 285.867 46.400 L 288.800 46.400 288.800 40.267 L 288.800 34.133 291.602 34.133 L 294.405 34.133 294.336 48.867 L 294.267 63.600 291.533 63.676 L 288.800 63.752 288.800 57.076 L 288.800 50.400 285.867 50.400 L 282.933 50.400 282.933 57.076 L 282.933 63.752 280.200 63.676 L 277.467 63.600 277.398 48.867 L 277.329 34.133 280.131 34.133 L 282.933 34.133 282.933 40.267 M131.736 38.212 C 130.107 38.775,130.017 39.233,129.911 47.509 C 129.773 58.348,130.119 59.733,132.960 59.733 C 135.668 59.733,135.789 59.213,135.682 48.072 L 135.600 39.478 134.933 38.831 C 134.098 38.021,132.940 37.796,131.736 38.212 M151.831 38.157 C 150.222 38.623,150.133 39.177,150.133 48.782 C 150.133 57.887,150.246 58.813,151.427 59.445 C 152.394 59.963,154.035 59.793,154.852 59.090 L 155.600 58.447 155.677 49.229 C 155.763 38.791,155.741 38.649,153.933 38.147 C 153.383 37.995,152.873 37.880,152.800 37.892 C 152.727 37.905,152.290 38.024,151.831 38.157 M170.667 48.970 L 170.667 59.807 172.195 59.627 C 175.609 59.226,175.600 59.255,175.600 48.788 C 175.600 38.258,175.557 38.141,171.667 38.135 L 170.667 38.133 170.667 48.970 M236.710 43.200 C 236.309 45.306,235.200 52.237,235.200 52.636 C 235.200 52.988,235.516 53.067,236.936 53.067 L 238.673 53.067 238.513 52.067 C 237.219 43.980,236.880 42.312,236.710 43.200 M330.367 82.015 C 333.318 82.891,334.860 85.273,335.125 89.360 L 335.279 91.733 332.606 91.733 L 329.934 91.733 329.815 89.468 C 329.661 86.541,329.146 85.867,327.067 85.867 C 325.935 85.867,325.579 85.988,325.046 86.554 L 324.400 87.242 324.319 95.821 C 324.214 107.035,324.319 107.467,327.141 107.467 C 329.299 107.467,330.034 106.326,330.298 102.565 L 330.479 100.000 328.839 100.000 L 327.200 100.000 327.200 98.126 L 327.200 96.253 331.267 96.326 L 335.333 96.400 335.333 103.867 L 335.333 111.333 333.624 111.414 C 331.709 111.504,331.477 111.339,331.471 109.881 L 331.467 108.962 330.563 109.949 C 327.602 113.182,321.638 112.052,319.717 107.896 C 317.820 103.789,317.837 89.296,319.744 85.410 C 321.358 82.121,325.869 80.679,330.367 82.015 M118.028 96.533 C 119.656 104.527,120.905 111.162,120.803 111.278 C 120.701 111.394,119.551 111.454,118.248 111.411 L 115.878 111.333 115.564 109.867 C 115.391 109.060,115.107 107.526,114.932 106.457 L 114.615 104.514 112.188 104.590 L 109.762 104.667 109.163 108.000 C 108.833 109.833,108.557 111.363,108.549 111.400 C 108.455 111.809,103.467 111.398,103.467 110.982 C 103.467 110.505,108.947 83.254,109.230 82.325 C 109.359 81.901,109.684 81.857,112.221 81.925 L 115.067 82.000 118.028 96.533 M130.667 89.644 L 134.000 97.412 134.133 89.706 L 134.267 82.000 136.602 81.923 L 138.938 81.846 138.869 96.590 L 138.800 111.333 137.038 111.411 L 135.276 111.489 131.838 103.233 L 128.400 94.977 128.267 103.155 L 128.133 111.333 125.800 111.410 L 123.467 111.487 123.467 96.677 L 123.467 81.867 125.400 81.872 L 127.333 81.876 130.667 89.644 M152.943 82.158 C 158.230 83.135,159.034 84.834,159.155 95.282 C 159.324 109.947,158.180 111.467,146.978 111.467 L 142.933 111.467 142.933 96.667 L 142.933 81.867 147.151 81.867 C 149.471 81.867,152.077 81.998,152.943 82.158 M174.957 81.933 C 174.971 81.970,175.494 85.900,176.119 90.667 C 176.745 95.433,177.327 99.153,177.412 98.933 C 177.544 98.591,180.267 82.442,180.267 82.000 C 180.267 81.914,181.133 81.879,182.193 81.922 L 184.119 82.000 185.635 90.800 C 186.468 95.640,187.170 99.480,187.194 99.333 C 187.218 99.187,187.739 95.227,188.352 90.533 L 189.467 82.000 191.824 81.923 L 194.180 81.845 194.031 82.589 C 193.948 82.999,193.035 89.333,192.000 96.667 C 190.965 104.000,190.053 110.330,189.972 110.733 C 189.800 111.587,185.755 111.914,185.442 111.099 C 185.365 110.897,184.615 106.615,183.776 101.582 L 182.251 92.432 180.659 101.883 L 179.067 111.333 176.862 111.411 C 175.249 111.468,174.624 111.396,174.529 111.144 C 174.371 110.726,170.400 83.026,170.400 82.347 C 170.400 81.935,174.813 81.534,174.957 81.933 M209.545 83.933 L 209.623 85.867 206.145 85.867 L 202.667 85.867 202.667 90.000 L 202.667 94.133 205.333 94.133 L 208.000 94.133 208.000 96.133 L 208.000 98.133 205.333 98.133 L 202.667 98.133 202.667 102.800 L 202.667 107.467 206.133 107.467 L 209.600 107.467 209.600 109.467 L 209.600 111.467 203.333 111.467 L 197.067 111.467 197.067 96.662 L 197.067 81.857 203.267 81.928 L 209.467 82.000 209.545 83.933 M217.867 94.667 L 217.867 107.467 221.333 107.467 L 224.800 107.467 224.800 109.467 L 224.800 111.467 218.533 111.467 L 212.267 111.467 212.267 96.667 L 212.267 81.867 215.067 81.867 L 217.867 81.867 217.867 94.667 M232.800 94.667 L 232.800 107.467 236.267 107.467 L 239.733 107.467 239.733 109.472 L 239.733 111.476 233.533 111.405 L 227.333 111.333 227.264 96.600 L 227.195 81.867 229.998 81.867 L 232.800 81.867 232.800 94.667 M266.382 82.497 C 269.534 83.690,270.533 85.335,270.533 89.333 C 270.533 92.660,269.868 94.226,268.097 95.066 L 267.109 95.535 268.131 96.032 C 273.127 98.462,272.716 107.901,267.502 110.468 L 265.746 111.333 260.273 111.333 L 254.800 111.333 254.731 96.933 C 254.693 89.013,254.724 82.371,254.800 82.172 C 255.014 81.611,264.765 81.885,266.382 82.497 M287.145 83.933 L 287.223 85.867 283.745 85.867 L 280.267 85.867 280.267 90.000 L 280.267 94.133 282.933 94.133 L 285.600 94.133 285.600 96.133 L 285.600 98.133 282.933 98.133 L 280.267 98.133 280.267 102.800 L 280.267 107.467 283.745 107.467 L 287.223 107.467 287.145 109.400 L 287.067 111.333 280.867 111.405 L 274.667 111.476 274.667 96.667 L 274.667 81.857 280.867 81.928 L 287.067 82.000 287.145 83.933 M295.467 96.676 L 295.467 111.485 292.733 111.409 L 290.000 111.333 289.931 96.933 C 289.893 89.013,289.919 82.383,289.989 82.200 C 290.079 81.964,290.897 81.867,292.792 81.867 L 295.467 81.867 295.467 96.676 M306.138 88.200 C 307.642 91.683,309.207 95.253,309.614 96.133 L 310.354 97.733 310.377 89.800 L 310.400 81.867 312.667 81.867 L 314.933 81.867 314.933 96.679 L 314.933 111.491 313.133 111.412 L 311.333 111.333 307.867 102.995 L 304.400 94.657 304.330 103.072 L 304.259 111.487 301.930 111.410 L 299.600 111.333 299.531 96.933 C 299.450 80.198,299.225 81.867,301.559 81.867 L 303.402 81.867 306.138 88.200 M148.533 96.667 L 148.533 107.543 150.200 107.374 C 153.495 107.042,153.717 106.217,153.547 94.933 C 153.419 86.431,153.368 86.296,150.130 85.958 L 148.533 85.791 148.533 96.667 M260.267 89.830 L 260.267 93.867 261.609 93.867 C 264.310 93.867,265.525 92.837,265.784 90.326 C 266.093 87.328,265.092 86.181,261.945 85.928 L 260.267 85.794 260.267 89.830 M111.348 94.984 C 110.933 97.644,110.536 100.042,110.466 100.311 C 110.351 100.749,110.522 100.800,112.102 100.800 C 113.540 100.800,113.867 100.721,113.867 100.374 C 113.867 99.873,112.270 90.315,112.170 90.214 C 112.132 90.177,111.762 92.323,111.348 94.984 M250.933 99.733 L 250.933 101.600 246.533 101.600 L 242.133 101.600 242.133 99.733 L 242.133 97.867 246.533 97.867 L 250.933 97.867 250.933 99.733 M260.267 102.705 L 260.267 107.544 262.120 107.389 C 265.344 107.118,266.131 106.219,266.132 102.800 C 266.133 99.200,264.963 97.868,261.800 97.867 L 260.267 97.867 260.267 102.705 M271.506 150.821 C 271.937 151.043,272.597 151.670,272.971 152.213 C 274.136 153.901,299.238 206.209,299.392 207.269 C 299.977 211.296,294.955 214.104,291.772 211.528 C 290.941 210.855,289.379 207.786,280.561 189.505 C 274.926 177.822,270.273 168.304,270.223 168.355 C 270.172 168.406,258.797 206.116,244.946 252.157 C 231.094 298.197,219.484 336.405,219.147 337.062 C 218.000 339.298,215.318 340.088,212.880 338.908 C 210.629 337.818,211.201 340.476,203.295 294.347 C 199.356 271.364,196.052 252.644,195.953 252.747 C 195.853 252.849,190.958 261.873,185.074 272.800 C 172.686 295.805,172.829 295.608,169.269 294.649 C 165.855 293.730,166.354 295.904,161.048 258.885 L 156.434 226.704 147.881 245.925 C 140.061 263.499,139.240 265.216,138.306 265.973 L 137.284 266.800 102.870 266.870 L 68.457 266.939 67.359 266.296 C 65.118 264.983,64.402 262.114,65.744 259.825 C 67.073 257.557,64.086 257.750,100.225 257.600 L 132.317 257.467 143.458 232.444 C 149.586 218.681,154.867 207.060,155.193 206.619 C 157.132 203.996,161.505 204.470,163.067 207.473 C 163.260 207.842,165.547 223.022,168.150 241.206 C 170.752 259.389,172.961 274.358,173.058 274.471 C 173.155 274.583,177.966 265.883,183.748 255.137 C 190.500 242.590,194.600 235.251,195.207 234.626 C 197.547 232.214,201.631 232.982,202.769 236.047 C 203.004 236.681,206.148 254.420,209.755 275.467 C 213.362 296.513,216.334 313.755,216.360 313.781 C 216.385 313.807,224.956 285.427,235.405 250.714 C 245.855 216.001,256.764 179.767,259.647 170.192 C 264.211 155.039,264.997 152.663,265.712 151.845 C 267.149 150.202,269.505 149.786,271.506 150.821 M288.079 229.997 C 291.207 230.812,294.870 233.194,299.133 237.186 L 301.332 239.245 303.400 237.335 C 311.864 229.510,317.795 227.938,325.056 231.595 C 335.457 236.832,338.813 252.267,331.741 262.337 C 330.970 263.435,324.603 270.064,315.911 278.820 L 301.370 293.467 287.467 279.600 C 279.820 271.973,272.833 264.833,271.939 263.733 C 263.586 253.452,266.606 237.104,277.867 231.644 C 281.605 229.831,285.209 229.250,288.079 229.997 " stroke="none" fill="#4c9c3c" fill-rule="evenodd"></path><path id="path2" d="M51.136 33.255 C 51.468 33.319,51.948 33.317,52.203 33.250 C 52.458 33.183,52.187 33.131,51.600 33.134 C 51.013 33.137,50.805 33.191,51.136 33.255 M260.356 36.267 C 260.356 37.367,260.403 37.817,260.461 37.267 C 260.518 36.717,260.518 35.817,260.461 35.267 C 260.403 34.717,260.356 35.167,260.356 36.267 M120.880 42.400 C 120.880 43.207,120.930 43.537,120.991 43.133 C 121.052 42.730,121.052 42.070,120.991 41.667 C 120.930 41.263,120.880 41.593,120.880 42.400 M149.985 48.800 C 149.985 53.127,150.021 54.897,150.066 52.733 C 150.111 50.570,150.111 47.030,150.066 44.867 C 150.021 42.703,149.985 44.473,149.985 48.800 M135.851 48.933 C 135.851 53.040,135.888 54.683,135.933 52.584 C 135.978 50.485,135.978 47.125,135.933 45.117 C 135.887 43.109,135.850 44.827,135.851 48.933 M181.183 48.667 C 181.183 52.480,181.220 54.003,181.266 52.051 C 181.312 50.099,181.312 46.979,181.266 45.118 C 181.220 43.256,181.183 44.853,181.183 48.667 M124.382 48.800 C 124.382 52.393,124.420 53.863,124.466 52.067 C 124.512 50.270,124.512 47.330,124.466 45.533 C 124.420 43.737,124.382 45.207,124.382 48.800 M51.136 44.989 C 51.468 45.052,51.948 45.050,52.203 44.983 C 52.458 44.916,52.187 44.864,51.600 44.867 C 51.013 44.870,50.805 44.925,51.136 44.989 M200.333 50.330 C 201.177 50.383,202.557 50.383,203.400 50.330 C 204.243 50.277,203.553 50.234,201.867 50.234 C 200.180 50.234,199.490 50.277,200.333 50.330 M284.333 50.330 C 285.177 50.383,286.557 50.383,287.400 50.330 C 288.243 50.277,287.553 50.234,285.867 50.234 C 284.180 50.234,283.490 50.277,284.333 50.330 M113.800 52.193 C 114.277 52.252,115.057 52.252,115.533 52.193 C 116.010 52.134,115.620 52.085,114.667 52.085 C 113.713 52.085,113.323 52.134,113.800 52.193 M235.927 53.259 C 236.401 53.318,237.241 53.319,237.794 53.261 C 238.347 53.204,237.960 53.155,236.933 53.154 C 235.907 53.153,235.454 53.200,235.927 53.259 M45.685 56.800 C 45.685 57.753,45.734 58.143,45.793 57.667 C 45.852 57.190,45.852 56.410,45.793 55.933 C 45.734 55.457,45.685 55.847,45.685 56.800 M226.754 61.733 C 226.755 62.760,226.804 63.147,226.861 62.594 C 226.919 62.041,226.918 61.201,226.859 60.727 C 226.800 60.254,226.753 60.707,226.754 61.733 M132.200 63.922 C 132.530 63.985,133.070 63.985,133.400 63.922 C 133.730 63.858,133.460 63.806,132.800 63.806 C 132.140 63.806,131.870 63.858,132.200 63.922 M152.337 63.925 C 152.742 63.986,153.342 63.984,153.670 63.921 C 153.998 63.858,153.667 63.808,152.933 63.810 C 152.200 63.812,151.932 63.863,152.337 63.925 M110.743 82.064 C 111.592 82.117,112.912 82.117,113.676 82.063 C 114.441 82.009,113.747 81.966,112.133 81.966 C 110.520 81.967,109.894 82.011,110.743 82.064 M124.461 82.059 C 124.934 82.118,125.774 82.119,126.327 82.061 C 126.881 82.004,126.493 81.955,125.467 81.954 C 124.440 81.953,123.987 82.000,124.461 82.059 M136.598 82.061 L 138.662 82.155 138.734 96.611 L 138.807 111.067 138.803 96.533 L 138.800 82.000 136.667 81.984 L 134.533 81.968 136.598 82.061 M145.013 82.065 C 146.230 82.115,148.150 82.115,149.279 82.065 C 150.409 82.015,149.413 81.974,147.067 81.975 C 144.720 81.975,143.796 82.016,145.013 82.065 M171.541 82.063 C 172.242 82.118,173.322 82.117,173.941 82.062 C 174.560 82.006,173.987 81.961,172.667 81.961 C 171.347 81.962,170.840 82.008,171.541 82.063 M181.261 82.059 C 181.734 82.118,182.574 82.119,183.127 82.061 C 183.681 82.004,183.293 81.955,182.267 81.954 C 181.240 81.953,180.787 82.000,181.261 82.059 M190.133 82.032 C 191.678 82.230,194.075 82.252,193.960 82.067 C 193.891 81.957,192.852 81.885,191.651 81.907 C 190.450 81.929,189.767 81.985,190.133 82.032 M200.348 82.066 C 202.080 82.112,204.840 82.112,206.482 82.066 C 208.123 82.019,206.707 81.981,203.333 81.981 C 199.960 81.981,198.617 82.019,200.348 82.066 M215.063 82.061 L 217.595 82.153 217.668 94.876 L 217.741 107.600 217.737 94.800 L 217.733 82.000 215.133 81.985 L 212.532 81.969 215.063 82.061 M227.326 82.190 C 227.254 82.379,227.227 89.013,227.266 96.933 L 227.338 111.333 227.402 96.733 L 227.467 82.133 229.997 82.133 L 232.528 82.133 232.601 94.867 L 232.675 107.600 232.671 94.800 L 232.667 82.000 230.062 81.924 C 228.128 81.867,227.424 81.936,227.326 82.190 M257.013 82.065 C 258.230 82.115,260.150 82.115,261.279 82.065 C 262.409 82.015,261.413 81.974,259.067 81.975 C 256.720 81.975,255.796 82.016,257.013 82.065 M277.948 82.066 C 279.680 82.112,282.440 82.112,284.082 82.066 C 285.723 82.019,284.307 81.981,280.933 81.981 C 277.560 81.981,276.217 82.019,277.948 82.066 M291.409 82.064 C 292.184 82.118,293.384 82.117,294.076 82.062 C 294.767 82.008,294.133 81.963,292.667 81.964 C 291.200 81.965,290.634 82.010,291.409 82.064 M300.461 82.059 C 300.934 82.118,301.774 82.119,302.327 82.061 C 302.881 82.004,302.493 81.955,301.467 81.954 C 300.440 81.953,299.987 82.000,300.461 82.059 M311.667 82.062 C 312.290 82.118,313.310 82.118,313.933 82.062 C 314.557 82.006,314.047 81.960,312.800 81.960 C 311.553 81.960,311.043 82.006,311.667 82.062 M202.508 90.000 C 202.508 92.347,202.549 93.271,202.599 92.054 C 202.648 90.837,202.648 88.917,202.598 87.787 C 202.548 86.658,202.508 87.653,202.508 90.000 M45.676 87.600 C 45.678 88.333,45.730 88.602,45.791 88.196 C 45.853 87.791,45.851 87.191,45.788 86.863 C 45.724 86.535,45.674 86.867,45.676 87.600 M335.016 90.267 C 335.017 91.147,335.067 91.475,335.127 90.995 C 335.186 90.516,335.185 89.796,335.124 89.395 C 335.063 88.995,335.014 89.387,335.016 90.267 M159.050 96.400 C 159.050 100.213,159.087 101.736,159.133 99.784 C 159.178 97.832,159.178 94.712,159.132 92.851 C 159.087 90.990,159.049 92.587,159.050 96.400 M128.000 102.800 C 128.000 107.469,128.057 111.232,128.126 111.163 C 128.306 110.983,128.327 94.638,128.148 94.459 C 128.067 94.378,128.000 98.131,128.000 102.800 M329.412 96.465 C 330.556 96.515,332.356 96.515,333.412 96.464 C 334.469 96.414,333.533 96.373,331.333 96.373 C 329.133 96.374,328.269 96.415,329.412 96.465 M260.733 97.788 C 261.063 97.852,261.603 97.852,261.933 97.788 C 262.263 97.725,261.993 97.673,261.333 97.673 C 260.673 97.673,260.403 97.725,260.733 97.788 M202.518 98.210 C 202.446 98.399,202.423 100.589,202.467 103.076 L 202.547 107.600 202.607 102.876 L 202.667 98.152 205.400 98.066 L 208.133 97.979 205.392 97.923 C 203.361 97.881,202.616 97.956,202.518 98.210 M244.200 98.065 C 245.410 98.114,247.390 98.114,248.600 98.065 C 249.810 98.016,248.820 97.975,246.400 97.975 C 243.980 97.975,242.990 98.016,244.200 98.065 M281.542 98.064 C 282.317 98.118,283.517 98.117,284.209 98.062 C 284.901 98.008,284.267 97.963,282.800 97.964 C 281.333 97.965,280.767 98.010,281.542 98.064 M328.205 99.927 C 328.684 99.986,329.404 99.985,329.805 99.924 C 330.205 99.863,329.813 99.814,328.933 99.816 C 328.053 99.817,327.725 99.867,328.205 99.927 M244.200 101.532 C 245.410 101.581,247.390 101.581,248.600 101.532 C 249.810 101.482,248.820 101.442,246.400 101.442 C 243.980 101.442,242.990 101.482,244.200 101.532 M287.021 109.467 C 287.022 110.493,287.070 110.881,287.128 110.327 C 287.186 109.774,287.185 108.934,287.126 108.461 C 287.067 107.987,287.020 108.440,287.021 109.467 M50.733 112.194 C 51.283 112.252,52.183 112.252,52.733 112.194 C 53.283 112.137,52.833 112.090,51.733 112.090 C 50.633 112.090,50.183 112.137,50.733 112.194 " stroke="none" fill="#a4cc9c" fill-rule="evenodd"></path><path id="path3" d="M193.463 48.867 L 193.467 63.600 196.133 63.614 L 198.800 63.628 196.202 63.538 L 193.605 63.448 193.532 48.791 L 193.460 34.133 193.463 48.867 M210.198 48.724 L 210.133 63.448 207.400 63.534 L 204.667 63.621 207.408 63.677 C 209.399 63.718,210.185 63.642,210.278 63.400 C 210.348 63.217,210.373 56.527,210.334 48.533 L 210.262 34.000 210.198 48.724 M226.758 36.133 C 226.759 37.307,226.806 37.753,226.862 37.126 C 226.919 36.499,226.918 35.539,226.861 34.993 C 226.803 34.447,226.757 34.960,226.758 36.133 M248.130 48.867 L 248.133 63.600 254.400 63.600 L 260.667 63.600 260.687 61.600 L 260.707 59.600 260.609 61.533 L 260.510 63.467 254.391 63.467 L 248.271 63.467 248.199 48.800 L 248.126 34.133 248.130 48.867 M277.463 48.867 L 277.467 63.600 280.133 63.614 L 282.800 63.628 280.202 63.538 L 277.605 63.448 277.532 48.791 L 277.460 34.133 277.463 48.867 M294.198 48.724 L 294.133 63.448 291.400 63.534 L 288.667 63.621 291.408 63.677 C 293.399 63.718,294.185 63.642,294.278 63.400 C 294.348 63.217,294.373 56.527,294.334 48.533 L 294.262 34.000 294.198 48.724 M170.522 48.933 C 170.522 54.947,170.557 57.445,170.600 54.485 C 170.643 51.524,170.643 46.604,170.600 43.551 C 170.557 40.498,170.522 42.920,170.522 48.933 M219.841 42.267 C 219.842 44.613,219.882 45.538,219.932 44.321 C 219.981 43.104,219.981 41.184,219.931 40.054 C 219.881 38.924,219.841 39.920,219.841 42.267 M262.731 38.326 L 265.061 38.421 265.131 51.010 L 265.200 63.600 267.867 63.614 L 270.533 63.628 267.936 63.538 L 265.339 63.448 265.269 50.857 L 265.200 38.267 262.800 38.249 L 260.400 38.232 262.731 38.326 M271.800 38.329 C 272.497 38.384,273.637 38.384,274.333 38.329 C 275.030 38.274,274.460 38.229,273.067 38.229 C 271.673 38.229,271.103 38.274,271.800 38.329 M155.852 48.800 C 155.852 53.273,155.888 55.103,155.933 52.867 C 155.977 50.630,155.977 46.970,155.933 44.733 C 155.888 42.497,155.852 44.327,155.852 48.800 M109.984 48.800 C 109.984 52.980,110.021 54.690,110.066 52.600 C 110.111 50.510,110.111 47.090,110.066 45.000 C 110.021 42.910,109.984 44.620,109.984 48.800 M161.450 48.800 C 161.450 52.687,161.487 54.277,161.533 52.333 C 161.578 50.390,161.578 47.210,161.533 45.267 C 161.487 43.323,161.450 44.913,161.450 48.800 M104.382 48.933 C 104.382 52.453,104.420 53.856,104.466 52.051 C 104.512 50.246,104.512 47.366,104.466 45.651 C 104.419 43.936,104.381 45.413,104.382 48.933 M121.129 55.921 L 121.067 63.442 119.267 63.536 L 117.467 63.629 119.275 63.681 C 121.538 63.746,121.357 64.472,121.267 55.730 L 121.191 48.400 121.129 55.921 M219.852 50.476 C 219.779 50.665,219.756 52.855,219.800 55.343 L 219.880 59.867 219.940 55.143 L 220.000 50.419 222.733 50.332 L 225.467 50.246 222.725 50.190 C 220.694 50.148,219.949 50.222,219.852 50.476 M31.031 55.867 C 31.031 57.333,31.076 57.899,31.130 57.124 C 31.184 56.349,31.184 55.149,31.129 54.458 C 31.074 53.766,31.030 54.400,31.031 55.867 M57.676 54.533 C 57.678 55.267,57.730 55.535,57.791 55.130 C 57.853 54.724,57.851 54.124,57.788 53.796 C 57.724 53.468,57.674 53.800,57.676 54.533 M167.000 63.665 C 168.137 63.715,169.997 63.715,171.133 63.665 C 172.270 63.615,171.340 63.574,169.067 63.574 C 166.793 63.574,165.863 63.615,167.000 63.665 M217.400 63.666 C 219.123 63.712,221.943 63.712,223.667 63.666 C 225.390 63.619,223.980 63.581,220.533 63.581 C 217.087 63.581,215.677 63.619,217.400 63.666 M229.276 63.664 C 230.051 63.718,231.251 63.717,231.942 63.662 C 232.634 63.608,232.000 63.563,230.533 63.564 C 229.067 63.565,228.501 63.610,229.276 63.664 M241.809 63.664 C 242.584 63.718,243.784 63.717,244.476 63.662 C 245.167 63.608,244.533 63.563,243.067 63.564 C 241.600 63.565,241.034 63.610,241.809 63.664 M47.533 65.794 C 48.083 65.852,48.983 65.852,49.533 65.794 C 50.083 65.737,49.633 65.690,48.533 65.690 C 47.433 65.690,46.983 65.737,47.533 65.794 M134.075 89.893 C 134.034 94.160,134.088 97.790,134.196 97.959 C 134.304 98.128,134.394 94.637,134.396 90.200 C 134.398 85.763,134.344 82.133,134.275 82.133 C 134.206 82.133,134.116 85.625,134.075 89.893 M209.423 84.000 C 209.423 85.100,209.470 85.550,209.528 85.000 C 209.585 84.450,209.585 83.550,209.528 83.000 C 209.470 82.450,209.423 82.900,209.423 84.000 M254.797 96.667 L 254.800 111.333 259.733 111.343 L 264.667 111.352 259.802 111.270 L 254.938 111.188 254.865 96.594 L 254.793 82.000 254.797 96.667 M287.023 84.000 C 287.023 85.100,287.070 85.550,287.128 85.000 C 287.185 84.450,287.185 83.550,287.128 83.000 C 287.070 82.450,287.023 82.900,287.023 84.000 M289.997 96.667 L 290.000 111.333 292.667 111.347 L 295.333 111.361 292.736 111.271 L 290.138 111.181 290.065 96.591 L 289.993 82.000 289.997 96.667 M299.597 96.667 L 299.600 111.333 301.867 111.349 L 304.133 111.364 301.936 111.272 L 299.738 111.179 299.665 96.590 L 299.593 82.000 299.597 96.667 M148.388 96.667 C 148.388 102.680,148.423 105.178,148.466 102.218 C 148.509 99.258,148.509 94.338,148.466 91.285 C 148.424 88.231,148.389 90.653,148.388 96.667 M280.108 90.000 C 280.108 92.347,280.149 93.271,280.199 92.054 C 280.248 90.837,280.248 88.917,280.198 87.787 C 280.148 86.658,280.108 87.653,280.108 90.000 M31.045 86.495 C 30.968 86.694,30.949 87.624,31.002 88.561 L 31.097 90.267 31.149 88.338 L 31.200 86.409 38.467 86.333 L 45.733 86.258 38.458 86.196 C 32.540 86.145,31.157 86.201,31.045 86.495 M57.683 88.933 C 57.684 89.813,57.734 90.141,57.793 89.662 C 57.853 89.183,57.851 88.463,57.791 88.062 C 57.730 87.661,57.681 88.053,57.683 88.933 M72.329 88.533 C 72.329 89.047,72.383 89.257,72.450 89.000 C 72.518 88.743,72.518 88.323,72.450 88.067 C 72.383 87.810,72.329 88.020,72.329 88.533 M324.117 96.400 C 324.117 100.507,324.154 102.149,324.199 100.051 C 324.245 97.952,324.244 94.592,324.199 92.584 C 324.154 90.576,324.117 92.293,324.117 96.400 M318.515 96.667 C 318.515 100.187,318.553 101.590,318.599 99.785 C 318.646 97.980,318.645 95.100,318.599 93.385 C 318.553 91.670,318.515 93.147,318.515 96.667 M335.262 103.788 L 335.200 111.176 333.400 111.269 L 331.600 111.362 333.408 111.414 C 335.671 111.480,335.490 112.188,335.400 103.596 L 335.324 96.400 335.262 103.788 M280.110 102.800 C 280.110 105.440,280.150 106.484,280.199 105.120 C 280.247 103.756,280.247 101.596,280.198 100.320 C 280.150 99.044,280.110 100.160,280.110 102.800 M112.133 100.800 L 110.267 100.972 112.200 101.020 C 113.343 101.047,114.133 100.958,114.133 100.800 C 114.133 100.653,114.103 100.555,114.067 100.580 C 114.030 100.606,113.160 100.705,112.133 100.800 M266.201 102.800 C 266.204 103.387,266.258 103.595,266.322 103.264 C 266.386 102.932,266.383 102.452,266.317 102.197 C 266.250 101.942,266.198 102.213,266.201 102.800 M118.400 111.200 L 115.867 111.365 118.318 111.416 C 119.722 111.445,120.839 111.353,120.933 111.200 C 121.024 111.053,121.061 110.956,121.016 110.984 C 120.970 111.012,119.793 111.109,118.400 111.200 M104.742 111.397 C 105.517 111.451,106.717 111.450,107.409 111.396 C 108.101 111.341,107.467 111.297,106.000 111.297 C 104.533 111.298,103.967 111.343,104.742 111.397 M124.608 111.396 C 125.309 111.451,126.389 111.451,127.008 111.395 C 127.627 111.339,127.053 111.294,125.733 111.295 C 124.413 111.295,123.907 111.341,124.608 111.396 M135.927 111.392 C 136.401 111.451,137.241 111.452,137.794 111.395 C 138.347 111.337,137.960 111.289,136.933 111.288 C 135.907 111.286,135.454 111.334,135.927 111.392 M145.146 111.399 C 146.437 111.448,148.477 111.447,149.680 111.398 C 150.883 111.349,149.827 111.309,147.333 111.309 C 144.840 111.309,143.856 111.350,145.146 111.399 M175.667 111.395 C 176.290 111.451,177.310 111.451,177.933 111.395 C 178.557 111.339,178.047 111.293,176.800 111.293 C 175.553 111.293,175.043 111.339,175.667 111.395 M186.600 111.395 C 187.223 111.451,188.243 111.451,188.867 111.395 C 189.490 111.339,188.980 111.293,187.733 111.293 C 186.487 111.293,185.977 111.339,186.600 111.395 M200.215 111.399 C 202.020 111.446,204.900 111.445,206.615 111.399 C 208.330 111.353,206.853 111.315,203.333 111.315 C 199.813 111.315,198.410 111.353,200.215 111.399 M215.415 111.399 C 217.220 111.446,220.100 111.445,221.815 111.399 C 223.530 111.353,222.053 111.315,218.533 111.315 C 215.013 111.315,213.610 111.353,215.415 111.399 M230.467 111.399 C 232.190 111.446,235.010 111.446,236.733 111.399 C 238.457 111.353,237.047 111.315,233.600 111.315 C 230.153 111.315,228.743 111.353,230.467 111.399 M277.667 111.399 C 279.390 111.446,282.210 111.446,283.933 111.399 C 285.657 111.353,284.247 111.315,280.800 111.315 C 277.353 111.315,275.943 111.353,277.667 111.399 M312.194 111.392 C 312.667 111.451,313.507 111.452,314.061 111.395 C 314.614 111.337,314.227 111.289,313.200 111.288 C 312.173 111.286,311.721 111.334,312.194 111.392 M285.137 229.791 C 285.542 229.853,286.142 229.851,286.470 229.788 C 286.798 229.724,286.467 229.674,285.733 229.676 C 285.000 229.678,284.732 229.730,285.137 229.791 M316.736 229.789 C 317.068 229.852,317.548 229.850,317.803 229.783 C 318.058 229.716,317.787 229.664,317.200 229.667 C 316.613 229.670,316.405 229.725,316.736 229.789 M329.322 234.733 C 330.427 235.911,330.667 236.122,330.667 235.922 C 330.667 235.879,330.097 235.309,329.400 234.656 L 328.133 233.467 329.322 234.733 M299.667 237.867 L 301.333 239.594 302.867 238.000 L 304.400 236.406 302.866 237.861 L 301.333 239.316 299.666 237.727 L 298.000 236.139 299.667 237.867 M287.000 279.067 L 301.333 293.466 313.133 281.600 L 324.933 269.734 313.133 281.466 L 301.333 293.198 287.000 278.933 L 272.667 264.667 287.000 279.067 " stroke="none" fill="#7cb46c" fill-rule="evenodd"></path><path id="path4" d="M167.012 34.332 C 168.156 34.382,169.956 34.382,171.012 34.331 C 172.069 34.281,171.133 34.240,168.933 34.240 C 166.733 34.240,165.869 34.282,167.012 34.332 M194.867 34.330 C 195.637 34.384,196.897 34.384,197.667 34.330 C 198.437 34.276,197.807 34.232,196.267 34.232 C 194.727 34.232,194.097 34.276,194.867 34.330 M206.067 34.330 C 206.837 34.384,208.097 34.384,208.867 34.330 C 209.637 34.276,209.007 34.232,207.467 34.232 C 205.927 34.232,205.297 34.276,206.067 34.330 M217.400 34.332 C 219.123 34.379,221.943 34.379,223.667 34.332 C 225.390 34.286,223.980 34.248,220.533 34.248 C 217.087 34.248,215.677 34.286,217.400 34.332 M234.044 34.311 C 233.947 34.409,233.869 34.619,233.871 34.778 C 233.873 34.956,233.953 34.943,234.080 34.743 C 234.214 34.534,235.266 34.389,237.076 34.333 L 239.867 34.246 237.044 34.190 C 235.492 34.159,234.142 34.213,234.044 34.311 M249.533 34.330 C 250.303 34.384,251.563 34.384,252.333 34.330 C 253.103 34.276,252.473 34.232,250.933 34.232 C 249.393 34.232,248.763 34.276,249.533 34.330 M267.788 34.333 L 275.177 34.408 275.269 36.338 L 275.361 38.267 275.414 36.200 L 275.467 34.133 267.933 34.196 L 260.400 34.258 267.788 34.333 M278.867 34.330 C 279.637 34.384,280.897 34.384,281.667 34.330 C 282.437 34.276,281.807 34.232,280.267 34.232 C 278.727 34.232,278.097 34.276,278.867 34.330 M290.067 34.330 C 290.837 34.384,292.097 34.384,292.867 34.330 C 293.637 34.276,293.007 34.232,291.467 34.232 C 289.927 34.232,289.297 34.276,290.067 34.330 M221.678 38.065 C 222.674 38.116,224.234 38.116,225.144 38.064 C 226.055 38.012,225.240 37.970,223.333 37.970 C 221.427 37.971,220.682 38.013,221.678 38.065 M115.781 42.600 L 115.733 44.000 118.333 43.945 L 120.933 43.889 118.481 43.802 L 116.028 43.714 115.929 42.457 L 115.829 41.200 115.781 42.600 M200.333 46.597 C 201.177 46.650,202.557 46.650,203.400 46.597 C 204.243 46.544,203.553 46.501,201.867 46.501 C 200.180 46.501,199.490 46.544,200.333 46.597 M225.156 48.267 C 225.156 49.367,225.203 49.817,225.261 49.267 C 225.318 48.717,225.318 47.817,225.261 47.267 C 225.203 46.717,225.156 47.167,225.156 48.267 M284.333 46.597 C 285.177 46.650,286.557 46.650,287.400 46.597 C 288.243 46.544,287.553 46.501,285.867 46.501 C 284.180 46.501,283.490 46.544,284.333 46.597 M115.000 48.732 C 116.137 48.782,117.997 48.782,119.133 48.732 C 120.270 48.682,119.340 48.641,117.067 48.641 C 114.793 48.641,113.863 48.682,115.000 48.732 M45.667 54.267 C 45.670 54.853,45.725 55.062,45.789 54.730 C 45.852 54.399,45.850 53.919,45.783 53.664 C 45.716 53.409,45.664 53.680,45.667 54.267 M235.533 56.729 C 236.230 56.784,237.370 56.784,238.067 56.729 C 238.763 56.674,238.193 56.629,236.800 56.629 C 235.407 56.629,234.837 56.674,235.533 56.729 M221.678 59.931 C 222.674 59.983,224.234 59.982,225.144 59.930 C 226.055 59.879,225.240 59.836,223.333 59.837 C 221.427 59.837,220.682 59.880,221.678 59.931 M255.267 59.931 C 256.257 59.982,257.877 59.982,258.867 59.931 C 259.857 59.880,259.047 59.838,257.067 59.838 C 255.087 59.838,254.277 59.880,255.267 59.931 M46.779 71.200 C 46.779 74.207,46.818 75.437,46.866 73.933 C 46.913 72.430,46.913 69.970,46.866 68.467 C 46.818 66.963,46.779 68.193,46.779 71.200 M326.470 81.791 C 326.876 81.853,327.476 81.851,327.804 81.788 C 328.132 81.724,327.800 81.674,327.067 81.676 C 326.333 81.678,326.065 81.730,326.470 81.791 M123.591 96.667 C 123.591 104.733,123.625 108.072,123.666 104.086 C 123.708 100.099,123.708 93.499,123.667 89.419 C 123.625 85.338,123.591 88.600,123.591 96.667 M197.191 96.667 C 197.191 104.733,197.225 108.072,197.266 104.086 C 197.308 100.099,197.308 93.499,197.267 89.419 C 197.225 85.338,197.191 88.600,197.191 96.667 M212.391 96.667 C 212.391 104.733,212.425 108.072,212.466 104.086 C 212.508 100.099,212.508 93.499,212.467 89.419 C 212.425 85.338,212.391 88.600,212.391 96.667 M274.791 96.667 C 274.791 104.733,274.825 108.072,274.866 104.086 C 274.908 100.099,274.908 93.499,274.867 89.419 C 274.825 85.338,274.791 88.600,274.791 96.667 M295.324 96.667 C 295.324 104.733,295.358 108.072,295.400 104.086 C 295.441 100.099,295.441 93.499,295.400 89.419 C 295.358 85.338,295.325 88.600,295.324 96.667 M310.341 90.133 C 310.300 94.534,310.357 98.134,310.467 98.133 C 310.577 98.133,310.667 94.533,310.667 90.133 C 310.667 85.733,310.610 82.133,310.541 82.133 C 310.472 82.133,310.382 85.733,310.341 90.133 M204.344 85.798 C 205.341 85.849,206.901 85.849,207.811 85.797 C 208.722 85.745,207.907 85.703,206.000 85.704 C 204.093 85.704,203.348 85.747,204.344 85.798 M260.117 85.946 C 260.044 86.136,260.018 88.026,260.059 90.146 L 260.133 94.000 261.333 94.029 L 262.533 94.059 261.400 93.947 L 260.267 93.836 260.267 89.867 L 260.267 85.899 261.267 85.794 L 262.267 85.690 261.258 85.645 C 260.643 85.617,260.198 85.735,260.117 85.946 M281.944 85.798 C 282.941 85.849,284.501 85.849,285.411 85.797 C 286.322 85.745,285.507 85.703,283.600 85.704 C 281.693 85.704,280.948 85.747,281.944 85.798 M270.483 89.467 C 270.484 90.347,270.534 90.675,270.593 90.195 C 270.653 89.716,270.651 88.996,270.591 88.595 C 270.530 88.195,270.481 88.587,270.483 89.467 M45.667 89.733 C 45.670 90.320,45.725 90.529,45.789 90.197 C 45.852 89.865,45.850 89.385,45.783 89.130 C 45.716 88.875,45.664 89.147,45.667 89.733 M329.949 90.267 C 329.951 91.147,330.001 91.475,330.060 90.995 C 330.119 90.516,330.118 89.796,330.057 89.395 C 329.996 88.995,329.948 89.387,329.949 90.267 M285.423 96.000 C 285.423 97.100,285.470 97.550,285.528 97.000 C 285.585 96.450,285.585 95.550,285.528 95.000 C 285.470 94.450,285.423 94.900,285.423 96.000 M304.119 102.667 C 304.119 107.433,304.155 109.383,304.200 107.000 C 304.244 104.617,304.244 100.717,304.200 98.333 C 304.155 95.950,304.119 97.900,304.119 102.667 M327.285 98.133 C 327.285 99.087,327.334 99.477,327.393 99.000 C 327.452 98.523,327.452 97.743,327.393 97.267 C 327.334 96.790,327.285 97.180,327.285 98.133 M260.111 102.667 C 260.111 105.380,260.150 106.490,260.199 105.133 C 260.247 103.777,260.247 101.557,260.199 100.200 C 260.150 98.843,260.111 99.953,260.111 102.667 M250.752 99.733 C 250.752 100.687,250.800 101.077,250.860 100.600 C 250.919 100.123,250.919 99.343,250.860 98.867 C 250.800 98.390,250.752 98.780,250.752 99.733 M205.921 107.666 L 209.309 107.749 209.402 109.541 L 209.496 111.333 209.548 109.400 L 209.600 107.467 206.067 107.525 L 202.533 107.583 205.921 107.666 M221.121 107.666 L 224.509 107.749 224.602 109.541 L 224.696 111.333 224.748 109.400 L 224.800 107.467 221.267 107.525 L 217.733 107.583 221.121 107.666 M236.055 107.666 L 239.443 107.749 239.536 109.541 L 239.629 111.333 239.681 109.400 L 239.733 107.467 236.200 107.525 L 232.667 107.583 236.055 107.666 M281.944 107.665 C 282.941 107.716,284.501 107.716,285.411 107.664 C 286.322 107.612,285.507 107.570,283.600 107.570 C 281.693 107.571,280.948 107.613,281.944 107.665 M325.670 111.658 C 326.076 111.719,326.676 111.718,327.004 111.654 C 327.332 111.591,327.000 111.541,326.267 111.543 C 325.533 111.545,325.265 111.597,325.670 111.658 M335.283 250.267 C 335.284 251.147,335.334 251.475,335.393 250.995 C 335.453 250.516,335.451 249.796,335.391 249.395 C 335.330 248.995,335.281 249.387,335.283 250.267 M65.134 262.267 C 65.137 262.853,65.191 263.062,65.255 262.730 C 65.319 262.399,65.317 261.919,65.250 261.664 C 65.183 261.409,65.131 261.680,65.134 262.267 M214.603 339.389 C 214.935 339.452,215.415 339.450,215.670 339.383 C 215.925 339.316,215.653 339.264,215.067 339.267 C 214.480 339.270,214.271 339.325,214.603 339.389 " stroke="none" fill="#b4d4ac" fill-rule="evenodd"></path></g></svg>