<svg xmlns="http://www.w3.org/2000/svg" viewBox="0 0 853.71 459.08"><defs><style>.cls-1{fill:none;}.cls-2{fill:#fff;}.cls-3{fill:#e26e40;}</style></defs><title>Trail logo-dark background</title><g id="Layer_2" data-name="Layer 2"><g id="Layer_1-2" data-name="Layer 1"><rect class="cls-1" width="853.71" height="459.08"/><path class="cls-2" d="M231.94,246.36H205.55a4,4,0,0,0-4,4v31.89c0,5.55,1.32,9.65,4,12.3s6.59,4.15,11.79,4.49a143.43,143.43,0,0,0,14.36.07,4.54,4.54,0,0,1,4.75,4.49V350a4.6,4.6,0,0,1-4,4.51q-49,6.15-70.26-9.5-22.1-16.28-22.1-59.48V250.35a4,4,0,0,0-4-4H121.33a4.51,4.51,0,0,1-4.51-4.51V192.38a4.51,4.51,0,0,1,4.51-4.51h14.76a4,4,0,0,0,4-4V163a4.51,4.51,0,0,1,3.23-4.33l52.46-15.59a4.5,4.5,0,0,1,5.79,4.32v36.48a4,4,0,0,0,4,4h26.39a4.51,4.51,0,0,1,4.51,4.51v49.47A4.51,4.51,0,0,1,231.94,246.36Z"/><path class="cls-2" d="M321.19,222.38q4.63-16.95,18.27-26.26A53.52,53.52,0,0,1,366.34,187a4.47,4.47,0,0,1,4.69,4.51v56.86a4.55,4.55,0,0,1-4.91,4.47,46.49,46.49,0,0,0-30,8.26q-15,10.49-14.95,33.4v57.3a4.51,4.51,0,0,1-4.51,4.51H264.22a4.51,4.51,0,0,1-4.51-4.51V194.65a4.51,4.51,0,0,1,4.51-4.51h52.46a4.51,4.51,0,0,1,4.51,4.51Z"/><path class="cls-2" d="M503.81,185.48h52.45a4.5,4.5,0,0,1,4.51,4.51V347.12a4.5,4.5,0,0,1-4.51,4.51H503.81a4.51,4.51,0,0,1-4.51-4.51V336.68q-16,19.6-44.53,19.61-33.57,0-54.83-24.93t-21.27-62.8q0-37.89,21.27-62.81t54.83-24.92q28.58,0,44.53,19.6V190A4.51,4.51,0,0,1,503.81,185.48ZM448.29,290.82q8.13,9,21.43,9t21.44-9q8.13-9,8.14-22.26t-8.14-22.27q-8.15-9-21.44-9t-21.43,9q-8.15,9-8.14,22.27T448.29,290.82Z"/><path class="cls-2" d="M587.35,351.78V194.65a4.51,4.51,0,0,1,4.51-4.51h52.46a4.51,4.51,0,0,1,4.51,4.51V351.78a4.51,4.51,0,0,1-4.51,4.51H591.86A4.51,4.51,0,0,1,587.35,351.78Z"/><path class="cls-2" d="M675.41,351.78V118.22a4.51,4.51,0,0,1,4.51-4.51h52.46a4.51,4.51,0,0,1,4.51,4.51V351.78a4.51,4.51,0,0,1-4.51,4.51H679.92A4.51,4.51,0,0,1,675.41,351.78Z"/><path class="cls-3" d="M586.66,166.59h59.18a3,3,0,0,0,3-3V104.42a1.63,1.63,0,0,0-2.78-1.15l-60.54,60.55A1.62,1.62,0,0,0,586.66,166.59Z"/></g></g></svg>