<svg id="svg" version="1.1" xmlns="http://www.w3.org/2000/svg" xmlns:xlink="http://www.w3.org/1999/xlink" width="400" height="400" viewBox="0, 0, 400,400"><g id="svgg"><path id="path0" d="M35.980 35.092 C 34.550 36.621,27.352 40.834,23.800 42.220 L 22.667 42.662 22.667 47.998 C 22.667 50.932,22.737 53.333,22.823 53.333 C 23.135 53.333,30.833 50.578,32.200 49.978 L 33.600 49.363 33.600 80.015 L 33.600 110.667 40.933 110.667 L 48.267 110.667 48.267 72.533 L 48.267 34.400 42.446 34.400 L 36.626 34.400 35.980 35.092 M58.395 37.667 C 58.392 39.463,58.214 47.713,58.000 56.000 C 57.786 64.287,57.608 72.537,57.605 74.333 L 57.600 77.600 63.742 77.600 C 68.416 77.600,69.911 77.520,69.999 77.267 C 71.845 71.952,74.100 70.150,77.888 70.963 C 82.125 71.871,83.521 77.142,82.930 90.000 C 82.572 97.795,81.485 100.334,78.209 101.029 C 73.871 101.949,70.945 98.565,70.931 92.611 C 70.930 92.055,70.853 90.970,70.761 90.200 L 70.592 88.800 63.696 88.800 L 56.800 88.800 56.800 90.874 C 56.800 105.401,62.640 111.773,76.000 111.818 C 90.020 111.867,95.300 106.127,96.559 89.467 C 97.631 75.289,94.283 64.691,87.727 61.511 C 82.746 59.095,74.753 59.819,70.200 63.099 C 69.617 63.520,69.600 63.510,69.603 62.766 C 69.612 60.647,70.418 47.121,70.548 46.910 C 70.635 46.769,75.530 46.667,82.149 46.667 L 93.600 46.667 93.600 40.533 L 93.600 34.400 76.000 34.400 L 58.400 34.400 58.395 37.667 M127.467 48.933 L 127.467 63.467 133.600 63.467 L 139.733 63.467 139.733 61.733 L 139.733 60.000 136.267 60.000 L 132.800 60.000 132.800 47.200 L 132.800 34.400 130.133 34.400 L 127.467 34.400 127.467 48.933 M141.600 48.933 L 141.600 63.467 144.267 63.467 L 146.933 63.467 146.933 48.933 L 146.933 34.400 144.267 34.400 L 141.600 34.400 141.600 48.933 M150.400 48.933 L 150.400 63.467 152.929 63.467 L 155.457 63.467 155.529 56.867 L 155.600 50.267 158.200 50.190 L 160.800 50.114 160.800 48.257 L 160.800 46.400 158.127 46.400 L 155.453 46.400 155.527 42.200 L 155.600 38.000 158.867 37.925 L 162.133 37.850 162.133 36.125 L 162.133 34.400 156.267 34.400 L 150.400 34.400 150.400 48.933 M164.000 48.933 L 164.000 63.467 170.133 63.467 L 176.267 63.467 176.267 61.741 L 176.267 60.016 172.867 59.941 L 169.467 59.867 169.394 55.000 L 169.321 50.133 171.994 50.133 L 174.667 50.133 174.667 48.267 L 174.667 46.400 171.993 46.400 L 169.320 46.400 169.393 42.200 L 169.467 38.000 172.867 37.925 L 176.267 37.851 176.267 36.125 L 176.267 34.400 170.133 34.400 L 164.000 34.400 164.000 48.933 M131.624 82.272 C 127.567 83.812,126.809 86.402,126.998 98.063 C 127.123 105.769,127.283 106.803,128.659 108.790 C 131.209 112.469,139.559 112.412,142.063 108.697 C 143.539 106.508,143.600 106.020,143.600 96.400 L 143.600 87.600 142.851 86.001 C 141.341 82.775,140.070 82.052,135.733 81.949 C 133.519 81.897,132.377 81.987,131.624 82.272 M146.667 96.667 L 146.667 111.200 148.800 111.200 L 150.933 111.200 150.933 102.613 C 150.933 97.169,151.026 94.120,151.188 94.281 C 151.327 94.421,152.986 98.255,154.873 102.801 L 158.304 111.067 160.085 111.146 L 161.867 111.224 161.867 96.679 L 161.867 82.133 159.733 82.133 L 157.600 82.133 157.600 90.133 C 157.600 94.533,157.510 98.133,157.400 98.133 C 157.290 98.133,155.649 94.533,153.754 90.133 L 150.309 82.133 148.488 82.133 L 146.667 82.133 146.667 96.667 M173.067 96.667 L 173.067 111.200 179.067 111.200 L 185.067 111.200 185.067 109.475 L 185.067 107.749 181.667 107.675 L 178.267 107.600 178.197 94.867 L 178.128 82.133 175.597 82.133 L 173.067 82.133 173.067 96.667 M191.341 82.457 C 191.158 82.995,185.600 110.506,185.600 110.873 C 185.600 111.107,186.277 111.200,187.978 111.200 L 190.356 111.200 190.621 109.933 C 190.767 109.237,191.033 107.737,191.213 106.600 L 191.540 104.533 194.136 104.533 L 196.732 104.533 197.175 107.000 C 197.419 108.357,197.687 109.857,197.772 110.333 L 197.926 111.200 200.296 111.200 C 202.382 111.200,202.665 111.144,202.651 110.733 C 202.643 110.477,201.351 103.967,199.780 96.267 L 196.925 82.267 194.191 82.191 C 192.148 82.134,191.428 82.201,191.341 82.457 M204.800 96.654 L 204.800 111.200 206.933 111.200 L 209.067 111.200 209.071 102.600 C 209.073 97.260,209.168 94.147,209.320 94.388 C 209.455 94.601,211.095 98.471,212.964 102.988 L 216.363 111.200 218.048 111.200 L 219.733 111.200 219.733 96.667 L 219.733 82.133 217.600 82.133 L 215.467 82.133 215.467 90.178 C 215.467 94.602,215.389 98.145,215.294 98.050 C 215.199 97.955,213.604 94.365,211.748 90.072 L 208.375 82.267 206.587 82.188 L 204.800 82.109 204.800 96.654 M223.200 96.667 L 223.200 111.200 227.667 111.196 C 238.353 111.186,239.336 109.810,239.158 95.109 L 239.067 87.600 238.267 86.012 C 236.656 82.813,234.823 82.133,227.811 82.133 L 223.200 82.133 223.200 96.667 M137.036 86.035 C 138.310 86.928,138.400 87.634,138.400 96.725 C 138.399 104.261,138.348 105.303,137.933 106.130 C 136.646 108.695,133.164 108.150,132.535 105.285 C 131.992 102.805,132.275 87.766,132.882 86.840 C 133.697 85.598,135.823 85.186,137.036 86.035 M232.779 86.514 C 233.723 87.368,233.864 88.670,233.864 96.533 C 233.864 106.742,233.709 107.234,230.432 107.420 L 228.533 107.527 228.533 96.667 L 228.533 85.806 230.380 85.911 C 231.703 85.986,232.384 86.157,232.779 86.514 M195.981 100.333 C 196.000 101.065,195.996 101.067,194.133 101.067 C 192.602 101.067,192.267 100.990,192.267 100.641 C 192.267 100.108,193.808 90.772,194.045 89.867 C 194.212 89.230,195.937 98.551,195.981 100.333 M152.620 159.058 C 140.093 161.002,129.801 171.843,128.742 184.208 L 128.667 185.083 126.339 185.201 C 106.234 186.219,98.505 213.020,115.223 223.748 C 116.799 224.759,116.801 224.418,115.202 226.530 C 104.909 240.129,113.020 260.285,129.733 262.640 C 132.675 263.055,176.918 263.305,179.999 262.924 C 199.910 260.465,212.583 240.557,206.504 221.288 C 203.407 211.473,194.968 203.245,185.160 200.478 L 183.051 199.883 183.927 197.551 C 191.712 176.825,174.500 155.661,152.620 159.058 M250.408 159.083 C 244.701 160.320,242.974 164.511,248.340 164.101 C 253.538 163.703,258.972 166.740,262.586 172.063 C 264.189 174.422,264.675 174.491,268.953 172.967 C 274.599 170.956,280.587 171.685,284.037 174.802 C 286.083 176.650,288.533 174.649,287.061 172.332 C 283.030 165.986,275.637 163.234,268.692 165.494 L 267.117 166.007 264.815 163.705 C 260.561 159.451,255.783 157.918,250.408 159.083 M242.420 181.881 C 239.815 182.563,236.455 184.210,234.225 185.898 C 232.454 187.238,232.417 187.252,231.747 186.812 C 223.346 181.288,213.175 181.954,206.415 188.469 C 203.751 191.036,205.403 194.513,208.278 192.392 C 213.043 188.876,223.972 190.620,230.687 195.966 C 232.757 197.614,233.412 197.523,235.814 195.253 C 242.044 189.366,251.301 186.646,256.632 189.136 C 260.792 191.078,261.907 187.711,258.022 184.939 C 253.377 181.624,247.671 180.506,242.420 181.881 M236.638 232.756 C 233.348 233.593,229.469 235.693,226.533 238.226 C 224.058 240.361,225.866 244.004,228.492 242.173 C 234.380 238.069,247.140 240.783,255.691 247.957 C 258.294 250.142,258.763 250.147,261.308 248.022 C 269.848 240.886,282.395 238.095,288.328 242.010 C 290.426 243.396,291.812 242.767,291.681 240.489 L 291.600 239.069 289.413 237.318 C 281.051 230.622,270.038 230.562,260.464 237.158 C 258.305 238.646,258.834 238.645,256.635 237.160 C 250.471 232.994,242.554 231.250,236.638 232.756 M153.131 271.155 C 152.867 271.322,152.810 274.607,152.864 286.684 L 152.933 302.000 159.467 302.000 L 166.000 302.000 166.069 286.684 C 166.123 274.607,166.067 271.322,165.802 271.155 C 165.618 271.037,162.767 270.942,159.467 270.942 C 156.167 270.942,153.316 271.037,153.131 271.155 M99.520 314.987 C 99.065 315.441,99.065 327.759,99.520 328.213 C 99.859 328.553,295.230 328.710,296.112 328.371 C 296.750 328.126,296.750 315.074,296.112 314.829 C 295.230 314.490,99.859 314.647,99.520 314.987 M99.378 338.844 C 99.003 339.219,99.177 351.649,99.561 351.968 C 99.827 352.189,125.758 352.250,198.161 352.200 L 296.400 352.133 296.471 345.400 L 296.542 338.667 198.049 338.667 C 143.878 338.667,99.476 338.747,99.378 338.844 " stroke="none" fill="#fbfbfb" fill-rule="evenodd"></path><path id="path1" d="M0.000 200.000 L 0.000 400.000 200.000 400.000 L 400.000 400.000 400.000 200.000 L 400.000 0.000 200.000 0.000 L 0.000 0.000 0.000 200.000 M48.267 72.533 L 48.267 110.933 40.933 110.933 L 33.600 110.933 33.600 80.271 L 33.600 49.608 32.200 50.170 C 30.461 50.869,22.781 53.600,22.555 53.600 C 22.464 53.600,22.422 51.124,22.461 48.098 L 22.533 42.595 24.800 41.594 C 29.273 39.617,36.533 35.134,36.533 34.348 C 36.533 34.230,39.173 34.133,42.400 34.133 L 48.267 34.133 48.267 72.533 M93.867 40.533 L 93.867 46.933 82.279 46.933 L 70.691 46.933 70.559 47.800 C 70.418 48.735,69.863 60.175,69.865 62.108 C 69.867 63.205,69.897 63.256,70.333 62.872 C 73.195 60.352,81.239 59.110,85.640 60.508 C 93.558 63.024,97.041 71.150,96.729 86.382 C 96.369 104.006,91.676 110.817,79.072 112.012 C 64.410 113.401,57.449 107.133,56.627 91.800 L 56.452 88.533 63.653 88.533 L 70.853 88.533 71.032 91.400 C 71.451 98.133,72.650 100.465,75.946 100.959 C 81.391 101.776,83.357 96.714,82.842 83.200 C 82.532 75.048,81.368 72.009,78.257 71.225 C 74.507 70.281,71.452 72.377,70.381 76.631 L 70.070 77.867 63.702 77.867 L 57.333 77.867 57.328 77.000 C 57.312 74.406,58.170 38.683,58.298 36.600 L 58.450 34.133 76.158 34.133 L 93.867 34.133 93.867 40.533 M132.800 46.933 L 132.800 59.733 136.412 59.733 L 140.023 59.733 139.945 61.667 L 139.867 63.600 133.600 63.600 L 127.333 63.600 127.264 48.867 L 127.195 34.133 129.998 34.133 L 132.800 34.133 132.800 46.933 M146.933 48.933 L 146.933 63.733 144.267 63.733 L 141.600 63.733 141.600 48.933 L 141.600 34.133 144.267 34.133 L 146.933 34.133 146.933 48.933 M162.400 36.133 L 162.400 38.133 159.067 38.133 L 155.733 38.133 155.733 42.267 L 155.733 46.400 158.400 46.400 L 161.067 46.400 161.067 48.400 L 161.067 50.400 158.400 50.400 L 155.733 50.400 155.733 57.076 L 155.733 63.752 153.000 63.676 L 150.267 63.600 150.198 48.867 L 150.129 34.133 156.264 34.133 L 162.400 34.133 162.400 36.133 M176.533 36.133 L 176.533 38.133 173.067 38.133 L 169.600 38.133 169.600 42.267 L 169.600 46.400 172.267 46.400 L 174.933 46.400 174.933 48.400 L 174.933 50.400 172.267 50.400 L 169.600 50.400 169.600 55.067 L 169.600 59.733 173.078 59.733 L 176.557 59.733 176.478 61.667 L 176.400 63.600 170.200 63.672 L 164.000 63.743 164.000 48.938 L 164.000 34.133 170.267 34.133 L 176.533 34.133 176.533 36.133 M139.782 82.455 C 143.205 84.034,143.782 85.829,143.934 95.372 C 144.153 109.071,142.318 112.204,134.395 111.663 C 127.918 111.220,126.842 108.909,126.979 95.727 L 127.067 87.320 127.945 85.536 C 129.787 81.798,135.266 80.371,139.782 82.455 M152.334 86.467 C 153.432 88.997,154.976 92.567,155.765 94.400 L 157.200 97.733 157.271 89.800 L 157.341 81.867 159.604 81.867 L 161.867 81.867 161.867 96.679 L 161.867 111.491 160.067 111.412 L 158.267 111.333 154.800 102.987 L 151.333 94.642 151.263 103.064 L 151.192 111.487 148.863 111.410 L 146.533 111.333 146.464 96.933 C 146.384 80.197,146.159 81.867,148.494 81.867 L 150.338 81.867 152.334 86.467 M178.336 94.733 L 178.405 107.467 181.869 107.467 L 185.333 107.467 185.357 109.000 C 185.375 110.187,185.882 108.092,187.599 99.733 C 188.819 93.793,190.146 87.343,190.548 85.400 L 191.278 81.867 194.172 81.867 C 195.764 81.867,197.067 81.919,197.067 81.984 C 197.067 82.048,198.387 88.612,200.000 96.570 C 201.613 104.527,202.933 111.139,202.933 111.262 C 202.933 111.385,201.770 111.452,200.348 111.410 L 197.762 111.333 197.163 108.000 C 196.833 106.167,196.557 104.637,196.549 104.600 C 196.540 104.563,195.464 104.533,194.158 104.533 L 191.783 104.533 191.331 107.133 C 191.083 108.563,190.794 110.093,190.690 110.533 L 190.500 111.333 181.650 111.404 L 172.800 111.475 172.800 96.661 L 172.800 81.848 175.533 81.924 L 178.267 82.000 178.336 94.733 M211.733 89.644 L 215.067 97.412 215.200 89.706 L 215.333 82.000 217.669 81.923 L 220.005 81.846 219.936 96.590 L 219.867 111.333 218.101 111.411 L 216.335 111.489 212.901 103.214 L 209.467 94.938 209.333 103.136 L 209.200 111.333 206.867 111.410 L 204.533 111.487 204.533 96.677 L 204.533 81.867 206.467 81.872 L 208.400 81.876 211.733 89.644 M234.782 82.541 C 238.482 83.880,239.215 85.791,239.398 94.577 C 239.711 109.682,238.269 111.631,226.933 111.409 L 223.067 111.333 222.997 96.933 C 222.959 89.013,222.991 82.369,223.068 82.168 C 223.290 81.589,233.006 81.898,234.782 82.541 M133.313 86.554 L 132.667 87.242 132.586 95.821 C 132.497 105.274,132.548 105.906,133.472 106.830 C 134.365 107.722,136.210 107.719,137.252 106.823 L 138.000 106.180 138.078 97.157 C 138.161 87.535,138.138 87.205,137.327 86.393 C 136.492 85.558,134.161 85.652,133.313 86.554 M228.533 96.629 L 228.533 107.467 229.667 107.452 C 233.475 107.401,233.599 107.058,233.600 96.617 C 233.600 86.320,233.600 86.320,230.182 85.963 L 228.533 85.791 228.533 96.629 M194.044 90.933 C 193.948 91.300,193.528 93.670,193.110 96.200 L 192.350 100.800 194.169 100.800 L 195.987 100.800 195.842 100.067 C 195.763 99.663,195.365 97.293,194.958 94.800 C 194.462 91.761,194.160 90.486,194.044 90.933 M159.978 158.677 C 179.254 160.655,191.327 180.843,183.768 198.455 L 183.229 199.710 185.414 200.377 C 217.288 210.100,214.834 256.106,182.084 262.828 C 179.514 263.355,134.813 263.423,130.400 262.906 C 113.172 260.888,104.509 240.372,115.026 226.497 C 116.521 224.525,116.511 224.766,115.133 223.856 C 104.990 217.156,102.923 202.276,110.806 192.718 C 114.548 188.181,120.899 185.067,126.408 185.067 L 128.464 185.067 128.648 183.441 C 130.058 170.981,141.086 160.160,153.867 158.698 C 156.726 158.371,156.984 158.370,159.978 158.677 M257.600 159.102 C 260.273 159.854,262.651 161.317,264.975 163.637 L 267.150 165.809 268.975 165.302 C 276.174 163.302,283.324 165.906,286.892 171.828 C 288.793 174.985,286.328 177.210,283.656 174.747 C 280.223 171.582,272.953 171.129,267.126 173.716 C 264.579 174.847,264.119 174.702,262.511 172.261 C 259.065 167.030,252.220 163.210,248.135 164.238 C 245.970 164.784,244.814 163.737,245.367 161.733 C 246.053 159.248,252.895 157.777,257.600 159.102 M250.611 181.490 C 254.206 182.231,259.816 185.331,260.124 186.745 C 260.763 189.686,259.509 190.593,256.634 189.267 C 251.529 186.912,242.139 189.591,236.272 195.077 C 233.254 197.900,232.973 197.918,229.777 195.499 C 223.464 190.721,212.876 189.196,208.488 192.433 C 206.231 194.098,203.787 191.651,205.403 189.344 C 210.359 182.267,224.276 180.892,231.846 186.731 C 232.315 187.093,232.484 187.030,233.876 185.972 C 239.146 181.964,245.132 180.361,250.611 181.490 M247.600 232.793 C 250.203 233.493,254.653 235.576,256.904 237.150 L 258.570 238.314 260.018 237.266 C 269.670 230.284,281.194 230.371,289.898 237.492 C 291.871 239.106,292.000 239.311,292.000 240.822 C 292.000 242.960,290.527 243.461,288.163 242.127 C 281.523 238.380,269.058 241.265,261.144 248.381 C 258.801 250.487,258.450 250.425,254.438 247.182 C 246.627 240.870,234.872 238.616,228.682 242.244 C 225.702 243.990,223.746 240.655,226.333 238.239 C 232.023 232.928,240.254 230.820,247.600 232.793 M166.238 271.355 C 166.483 271.993,166.424 301.416,166.177 301.805 C 166.011 302.066,164.455 302.127,159.315 302.071 L 152.667 302.000 152.597 286.800 C 152.559 278.440,152.586 271.450,152.656 271.267 C 152.870 270.707,166.022 270.793,166.238 271.355 M296.670 315.267 C 296.751 315.597,296.783 318.687,296.742 322.133 L 296.667 328.400 198.133 328.468 C 105.730 328.532,99.579 328.508,99.267 328.084 C 98.842 327.507,98.790 315.966,99.209 315.182 C 99.482 314.674,100.875 314.667,198.004 314.667 L 296.523 314.667 296.670 315.267 M296.505 338.766 C 296.719 339.024,296.788 341.062,296.738 345.633 L 296.667 352.133 198.133 352.202 C 105.730 352.265,99.579 352.242,99.267 351.817 C 98.842 351.240,98.790 339.699,99.209 338.916 C 99.574 338.234,295.941 338.086,296.505 338.766 " stroke="none" fill="#54c42c" fill-rule="evenodd"></path><path id="path2" d="M39.519 34.332 C 41.087 34.379,43.727 34.379,45.385 34.333 C 47.043 34.286,45.760 34.247,42.533 34.247 C 39.307 34.247,37.950 34.285,39.519 34.332 M75.928 34.332 L 93.590 34.404 93.669 40.469 L 93.748 46.533 93.741 40.400 L 93.733 34.267 76.000 34.264 L 58.267 34.261 75.928 34.332 M150.258 48.933 C 150.258 57.000,150.292 60.338,150.333 56.352 C 150.375 52.366,150.375 45.766,150.333 41.686 C 150.292 37.605,150.258 40.867,150.258 48.933 M157.267 38.064 C 158.183 38.116,159.683 38.116,160.600 38.064 C 161.517 38.012,160.767 37.969,158.933 37.969 C 157.100 37.969,156.350 38.012,157.267 38.064 M58.213 40.800 C 58.213 41.607,58.263 41.937,58.324 41.533 C 58.385 41.130,58.385 40.470,58.324 40.067 C 58.263 39.663,58.213 39.993,58.213 40.800 M22.513 48.133 C 22.513 51.213,22.552 52.437,22.599 50.852 C 22.646 49.268,22.646 46.748,22.599 45.252 C 22.551 43.757,22.513 45.053,22.513 48.133 M57.947 51.733 C 57.947 52.540,57.997 52.870,58.058 52.467 C 58.119 52.063,58.119 51.403,58.058 51.000 C 57.997 50.597,57.947 50.927,57.947 51.733 M176.354 61.733 C 176.355 62.760,176.404 63.147,176.461 62.594 C 176.519 62.041,176.518 61.201,176.459 60.727 C 176.400 60.254,176.353 60.707,176.354 61.733 M57.680 62.933 C 57.680 63.740,57.730 64.070,57.791 63.667 C 57.852 63.263,57.852 62.603,57.791 62.200 C 57.730 61.797,57.680 62.127,57.680 62.933 M57.413 74.133 C 57.413 74.940,57.463 75.270,57.524 74.867 C 57.585 74.463,57.585 73.803,57.524 73.400 C 57.463 72.997,57.413 73.327,57.413 74.133 M147.394 82.059 C 147.867 82.118,148.707 82.119,149.261 82.061 C 149.814 82.004,149.427 81.955,148.400 81.954 C 147.373 81.953,146.921 82.000,147.394 82.059 M158.600 82.062 C 159.223 82.118,160.243 82.118,160.867 82.062 C 161.490 82.006,160.980 81.960,159.733 81.960 C 158.487 81.960,157.977 82.006,158.600 82.062 M174.342 82.064 C 175.117 82.118,176.317 82.117,177.009 82.062 C 177.701 82.008,177.067 81.963,175.600 81.964 C 174.133 81.965,173.567 82.010,174.342 82.064 M192.733 82.063 C 193.503 82.117,194.763 82.117,195.533 82.063 C 196.303 82.009,195.673 81.965,194.133 81.965 C 192.593 81.965,191.963 82.009,192.733 82.063 M205.527 82.059 C 206.001 82.118,206.841 82.119,207.394 82.061 C 207.947 82.004,207.560 81.955,206.533 81.954 C 205.507 81.953,205.054 82.000,205.527 82.059 M217.664 82.061 L 219.729 82.155 219.801 96.611 L 219.873 111.067 219.870 96.533 L 219.867 82.000 217.733 81.984 L 215.600 81.968 217.664 82.061 M225.133 82.065 C 226.270 82.115,228.130 82.115,229.267 82.065 C 230.403 82.015,229.473 81.974,227.200 81.974 C 224.927 81.974,223.997 82.015,225.133 82.065 M132.385 96.533 C 132.385 100.860,132.421 102.630,132.466 100.467 C 132.511 98.303,132.511 94.763,132.466 92.600 C 132.421 90.437,132.385 92.207,132.385 96.533 M56.606 90.667 C 56.606 91.327,56.658 91.597,56.722 91.267 C 56.785 90.937,56.785 90.397,56.722 90.067 C 56.658 89.737,56.606 90.007,56.606 90.667 M143.847 96.667 C 143.847 99.893,143.886 101.177,143.933 99.519 C 143.979 97.860,143.979 95.220,143.932 93.652 C 143.885 92.083,143.847 93.440,143.847 96.667 M209.186 102.800 C 209.186 107.493,209.222 109.376,209.266 106.983 C 209.311 104.591,209.310 100.751,209.266 98.450 C 209.222 96.149,209.186 98.107,209.186 102.800 M185.067 109.467 C 185.067 110.469,185.148 111.207,185.248 111.107 C 185.437 110.919,185.374 107.952,185.178 107.756 C 185.117 107.694,185.067 108.464,185.067 109.467 M37.283 110.866 C 39.382 110.911,42.742 110.911,44.749 110.866 C 46.757 110.821,45.040 110.784,40.933 110.784 C 36.827 110.784,35.184 110.821,37.283 110.866 M273.536 164.722 C 273.868 164.786,274.348 164.783,274.603 164.717 C 274.858 164.650,274.587 164.598,274.000 164.601 C 273.413 164.604,273.205 164.658,273.536 164.722 M274.603 171.922 C 274.935 171.986,275.415 171.983,275.670 171.917 C 275.925 171.850,275.653 171.798,275.067 171.801 C 274.480 171.804,274.271 171.858,274.603 171.922 M246.338 181.260 C 246.817 181.319,247.537 181.318,247.938 181.257 C 248.339 181.196,247.947 181.148,247.067 181.149 C 246.187 181.151,245.859 181.201,246.338 181.260 M251.138 188.460 C 251.617 188.519,252.337 188.518,252.738 188.457 C 253.139 188.396,252.747 188.348,251.867 188.349 C 250.987 188.351,250.659 188.401,251.138 188.460 M105.949 206.267 C 105.951 207.147,106.001 207.475,106.060 206.995 C 106.119 206.516,106.118 205.796,106.057 205.395 C 105.996 204.995,105.948 205.387,105.949 206.267 M208.091 231.067 C 208.092 232.240,208.139 232.687,208.196 232.060 C 208.252 231.432,208.251 230.472,208.194 229.926 C 208.137 229.380,208.090 229.893,208.091 231.067 M137.948 263.132 C 139.532 263.180,142.052 263.180,143.548 263.132 C 145.043 263.085,143.747 263.046,140.667 263.046 C 137.587 263.046,136.363 263.085,137.948 263.132 " stroke="none" fill="#ace494" fill-rule="evenodd"></path><path id="path3" d="M127.330 48.867 L 127.333 63.600 133.600 63.600 L 139.867 63.600 139.887 61.600 L 139.907 59.600 139.809 61.533 L 139.710 63.467 133.591 63.467 L 127.471 63.467 127.399 48.800 L 127.326 34.133 127.330 48.867 M176.358 36.133 C 176.359 37.307,176.406 37.753,176.462 37.126 C 176.519 36.499,176.518 35.539,176.461 34.993 C 176.403 34.447,176.357 34.960,176.358 36.133 M58.216 38.000 C 58.217 38.880,58.267 39.208,58.327 38.729 C 58.386 38.249,58.385 37.529,58.324 37.129 C 58.263 36.728,58.214 37.120,58.216 38.000 M169.441 42.267 C 169.442 44.613,169.482 45.538,169.532 44.321 C 169.581 43.104,169.581 41.184,169.531 40.054 C 169.481 38.924,169.441 39.920,169.441 42.267 M57.947 49.067 C 57.947 49.873,57.997 50.203,58.058 49.800 C 58.119 49.397,58.119 48.737,58.058 48.333 C 57.997 47.930,57.947 48.260,57.947 49.067 M157.000 50.330 C 157.770 50.384,159.030 50.384,159.800 50.330 C 160.570 50.276,159.940 50.232,158.400 50.232 C 156.860 50.232,156.230 50.276,157.000 50.330 M169.452 50.476 C 169.379 50.665,169.356 52.855,169.400 55.343 L 169.480 59.867 169.540 55.143 L 169.600 50.419 172.333 50.332 L 175.067 50.246 172.325 50.190 C 170.294 50.148,169.549 50.222,169.452 50.476 M57.680 60.267 C 57.680 61.073,57.730 61.403,57.791 61.000 C 57.852 60.597,57.852 59.937,57.791 59.533 C 57.730 59.130,57.680 59.460,57.680 60.267 M80.600 59.917 C 80.857 59.984,81.277 59.984,81.533 59.917 C 81.790 59.850,81.580 59.795,81.067 59.795 C 80.553 59.795,80.343 59.850,80.600 59.917 M90.133 63.017 C 90.133 63.063,90.523 63.453,91.000 63.883 L 91.867 64.667 91.083 63.800 C 90.353 62.992,90.133 62.811,90.133 63.017 M142.867 63.663 C 143.637 63.717,144.897 63.717,145.667 63.663 C 146.437 63.609,145.807 63.565,144.267 63.565 C 142.727 63.565,142.097 63.609,142.867 63.663 M151.667 63.663 C 152.437 63.717,153.697 63.717,154.467 63.663 C 155.237 63.609,154.607 63.565,153.067 63.565 C 151.527 63.565,150.897 63.609,151.667 63.663 M167.000 63.666 C 168.723 63.712,171.543 63.712,173.267 63.666 C 174.990 63.619,173.580 63.581,170.133 63.581 C 166.687 63.581,165.277 63.619,167.000 63.666 M57.413 71.467 C 57.413 72.273,57.463 72.603,57.524 72.200 C 57.585 71.797,57.585 71.137,57.524 70.733 C 57.463 70.330,57.413 70.660,57.413 71.467 M146.530 96.667 L 146.533 111.333 148.800 111.349 L 151.067 111.364 148.869 111.272 L 146.671 111.179 146.599 96.590 L 146.526 82.000 146.530 96.667 M178.257 94.800 C 178.257 101.840,178.291 104.682,178.333 101.115 C 178.375 97.548,178.375 91.788,178.333 88.315 C 178.291 84.842,178.257 87.760,178.257 94.800 M215.141 89.892 C 215.100 94.160,215.157 97.707,215.267 97.775 C 215.377 97.843,215.467 94.351,215.467 90.016 C 215.467 85.680,215.410 82.133,215.341 82.133 C 215.272 82.133,215.182 85.625,215.141 89.892 M223.063 96.667 L 223.067 111.333 227.333 111.343 L 231.600 111.353 227.402 111.270 L 223.205 111.187 223.132 96.593 L 223.060 82.000 223.063 96.667 M138.252 96.533 C 138.252 101.007,138.288 102.837,138.333 100.600 C 138.377 98.363,138.377 94.703,138.333 92.467 C 138.288 90.230,138.252 92.060,138.252 96.533 M82.729 90.667 C 82.729 91.180,82.783 91.390,82.850 91.133 C 82.918 90.877,82.918 90.457,82.850 90.200 C 82.783 89.943,82.729 90.153,82.729 90.667 M233.715 96.400 C 233.715 99.920,233.753 101.323,233.799 99.518 C 233.846 97.713,233.845 94.833,233.799 93.118 C 233.753 91.403,233.715 92.880,233.715 96.400 M239.315 96.400 C 239.315 99.920,239.353 101.323,239.399 99.518 C 239.446 97.713,239.445 94.833,239.399 93.118 C 239.353 91.403,239.315 92.880,239.315 96.400 M193.133 100.994 C 193.683 101.052,194.583 101.052,195.133 100.994 C 195.683 100.937,195.233 100.890,194.133 100.890 C 193.033 100.890,192.583 100.937,193.133 100.994 M61.600 107.333 C 62.098 107.847,62.565 108.267,62.638 108.267 C 62.711 108.267,62.364 107.847,61.867 107.333 C 61.369 106.820,60.902 106.400,60.829 106.400 C 60.755 106.400,61.102 106.820,61.600 107.333 M197.668 110.933 C 197.755 111.253,198.306 111.337,200.422 111.350 L 203.067 111.366 200.542 111.272 C 198.971 111.214,197.932 111.057,197.789 110.856 C 197.625 110.626,197.591 110.648,197.668 110.933 M159.127 111.392 C 159.601 111.451,160.441 111.452,160.994 111.395 C 161.547 111.337,161.160 111.289,160.133 111.288 C 159.107 111.286,158.654 111.334,159.127 111.392 M175.800 111.399 C 177.523 111.446,180.343 111.446,182.067 111.399 C 183.790 111.353,182.380 111.315,178.933 111.315 C 175.487 111.315,174.077 111.353,175.800 111.399 M186.609 111.397 C 187.384 111.451,188.584 111.450,189.276 111.396 C 189.967 111.341,189.333 111.297,187.867 111.297 C 186.400 111.298,185.834 111.343,186.609 111.397 M205.675 111.396 C 206.376 111.451,207.456 111.451,208.075 111.395 C 208.694 111.339,208.120 111.294,206.800 111.295 C 205.480 111.295,204.974 111.341,205.675 111.396 M216.994 111.392 C 217.467 111.451,218.307 111.452,218.861 111.395 C 219.414 111.337,219.027 111.289,218.000 111.288 C 216.973 111.286,216.521 111.334,216.994 111.392 M75.533 112.191 C 75.937 112.252,76.597 112.252,77.000 112.191 C 77.403 112.130,77.073 112.080,76.267 112.080 C 75.460 112.080,75.130 112.130,75.533 112.191 M156.333 158.591 C 156.737 158.652,157.397 158.652,157.800 158.591 C 158.203 158.530,157.873 158.480,157.067 158.480 C 156.260 158.480,155.930 158.530,156.333 158.591 M253.270 158.589 C 253.601 158.652,254.081 158.650,254.336 158.583 C 254.591 158.516,254.320 158.464,253.733 158.467 C 253.147 158.470,252.938 158.525,253.270 158.589 M264.789 163.533 C 265.443 164.230,266.013 164.800,266.056 164.800 C 266.256 164.800,266.044 164.561,264.867 163.456 L 263.600 162.267 264.789 163.533 M259.867 169.067 C 260.440 169.653,260.968 170.133,261.042 170.133 C 261.115 170.133,260.706 169.653,260.133 169.067 C 259.560 168.480,259.032 168.000,258.958 168.000 C 258.885 168.000,259.294 168.480,259.867 169.067 M185.949 187.333 C 185.951 188.213,186.001 188.541,186.060 188.062 C 186.119 187.583,186.118 186.863,186.057 186.462 C 185.996 186.061,185.948 186.453,185.949 187.333 M112.123 191.267 L 110.800 192.667 112.200 191.343 C 112.970 190.616,113.600 189.986,113.600 189.943 C 113.600 189.744,113.353 189.966,112.123 191.267 M235.590 195.533 L 234.267 196.933 235.667 195.610 C 236.968 194.380,237.189 194.133,236.990 194.133 C 236.948 194.133,236.318 194.763,235.590 195.533 M198.667 208.400 C 199.164 208.913,199.631 209.333,199.705 209.333 C 199.778 209.333,199.431 208.913,198.933 208.400 C 198.436 207.887,197.969 207.467,197.895 207.467 C 197.822 207.467,198.169 207.887,198.667 208.400 M132.461 263.126 C 132.934 263.185,133.774 263.186,134.327 263.128 C 134.881 263.070,134.493 263.022,133.467 263.021 C 132.440 263.020,131.987 263.067,132.461 263.126 M171.133 263.398 C 172.343 263.448,174.323 263.448,175.533 263.398 C 176.743 263.349,175.753 263.309,173.333 263.309 C 170.913 263.309,169.923 263.349,171.133 263.398 M99.048 321.600 C 99.048 325.047,99.086 326.457,99.132 324.733 C 99.179 323.010,99.179 320.190,99.132 318.467 C 99.086 316.743,99.048 318.153,99.048 321.600 M99.048 345.333 C 99.048 348.780,99.086 350.190,99.132 348.467 C 99.179 346.743,99.179 343.923,99.132 342.200 C 99.086 340.477,99.048 341.887,99.048 345.333 " stroke="none" fill="#8cd66f" fill-rule="evenodd"></path><path id="path4" d="M128.733 34.330 C 129.503 34.384,130.763 34.384,131.533 34.330 C 132.303 34.276,131.673 34.232,130.133 34.232 C 128.593 34.232,127.963 34.276,128.733 34.330 M142.867 34.330 C 143.637 34.384,144.897 34.384,145.667 34.330 C 146.437 34.276,145.807 34.232,144.267 34.232 C 142.727 34.232,142.097 34.276,142.867 34.330 M156.188 34.333 L 162.109 34.410 162.202 36.205 L 162.296 38.000 162.348 36.067 L 162.400 34.133 156.333 34.195 L 150.267 34.256 156.188 34.333 M167.000 34.332 C 168.723 34.379,171.543 34.379,173.267 34.332 C 174.990 34.286,173.580 34.248,170.133 34.248 C 166.687 34.248,165.277 34.286,167.000 34.332 M171.278 38.065 C 172.274 38.116,173.834 38.116,174.744 38.064 C 175.655 38.012,174.840 37.970,172.933 37.970 C 171.027 37.971,170.282 38.013,171.278 38.065 M155.575 42.267 C 155.575 44.613,155.616 45.538,155.665 44.321 C 155.715 43.104,155.715 41.184,155.665 40.054 C 155.615 38.924,155.574 39.920,155.575 42.267 M58.213 43.467 C 58.213 44.273,58.263 44.603,58.324 44.200 C 58.385 43.797,58.385 43.137,58.324 42.733 C 58.263 42.330,58.213 42.660,58.213 43.467 M160.890 48.267 C 160.890 49.367,160.937 49.817,160.994 49.267 C 161.052 48.717,161.052 47.817,160.994 47.267 C 160.937 46.717,160.890 47.167,160.890 48.267 M174.756 48.267 C 174.756 49.367,174.803 49.817,174.861 49.267 C 174.918 48.717,174.918 47.817,174.861 47.267 C 174.803 46.717,174.756 47.167,174.756 48.267 M76.333 46.866 C 79.523 46.909,84.743 46.909,87.933 46.866 C 91.123 46.824,88.513 46.789,82.133 46.789 C 75.753 46.789,73.143 46.824,76.333 46.866 M155.582 56.933 C 155.582 60.600,155.620 62.137,155.666 60.349 C 155.712 58.561,155.712 55.561,155.666 53.682 C 155.620 51.804,155.582 53.267,155.582 56.933 M57.949 54.533 C 57.951 55.413,58.001 55.741,58.060 55.262 C 58.119 54.783,58.118 54.063,58.057 53.662 C 57.996 53.261,57.948 53.653,57.949 54.533 M134.467 59.931 C 135.457 59.982,137.077 59.982,138.067 59.931 C 139.057 59.880,138.247 59.838,136.267 59.838 C 134.287 59.838,133.477 59.880,134.467 59.931 M171.278 59.931 C 172.274 59.983,173.834 59.982,174.744 59.930 C 175.655 59.879,174.840 59.836,172.933 59.837 C 171.027 59.837,170.282 59.880,171.278 59.931 M57.683 65.733 C 57.684 66.613,57.734 66.941,57.793 66.462 C 57.853 65.983,57.851 65.263,57.791 64.862 C 57.730 64.461,57.681 64.853,57.683 65.733 M57.380 76.600 L 57.333 77.867 63.584 77.867 C 67.022 77.867,69.891 77.777,69.959 77.667 C 70.027 77.557,67.281 77.501,63.857 77.543 L 57.632 77.619 57.529 76.476 L 57.427 75.333 57.380 76.600 M134.737 81.791 C 135.142 81.853,135.742 81.851,136.070 81.788 C 136.398 81.724,136.067 81.674,135.333 81.676 C 134.600 81.678,134.332 81.730,134.737 81.791 M157.274 90.133 C 157.233 94.534,157.290 98.134,157.400 98.133 C 157.510 98.133,157.600 94.533,157.600 90.133 C 157.600 85.733,157.543 82.133,157.474 82.133 C 157.405 82.133,157.315 85.733,157.274 90.133 M172.924 96.667 C 172.924 104.733,172.958 108.072,173.000 104.086 C 173.041 100.099,173.041 93.499,173.000 89.419 C 172.958 85.338,172.925 88.600,172.924 96.667 M204.658 96.667 C 204.658 104.733,204.692 108.072,204.733 104.086 C 204.775 100.099,204.775 93.499,204.733 89.419 C 204.692 85.338,204.658 88.600,204.658 96.667 M83.016 85.200 C 83.017 86.080,83.067 86.408,83.127 85.929 C 83.186 85.449,83.185 84.729,83.124 84.329 C 83.063 83.928,83.014 84.320,83.016 85.200 M56.564 89.133 C 56.588 89.585,56.625 89.618,56.717 89.267 C 56.829 88.837,57.392 88.800,63.737 88.800 L 70.634 88.800 70.739 89.800 L 70.844 90.800 70.889 89.667 L 70.933 88.533 63.733 88.533 L 56.533 88.533 56.564 89.133 M151.052 102.667 C 151.052 107.433,151.089 109.383,151.133 107.000 C 151.177 104.617,151.177 100.717,151.133 98.333 C 151.089 95.950,151.052 97.900,151.052 102.667 M180.078 107.665 C 181.074 107.716,182.634 107.716,183.544 107.664 C 184.455 107.612,183.640 107.570,181.733 107.570 C 179.827 107.571,179.082 107.613,180.078 107.665 M134.870 111.655 C 135.201 111.719,135.681 111.717,135.936 111.650 C 136.191 111.583,135.920 111.531,135.333 111.534 C 134.747 111.537,134.538 111.591,134.870 111.655 M112.000 221.200 C 112.498 221.713,112.965 222.133,113.038 222.133 C 113.111 222.133,112.764 221.713,112.267 221.200 C 111.769 220.687,111.302 220.267,111.229 220.267 C 111.155 220.267,111.502 220.687,112.000 221.200 M241.133 232.184 C 241.390 232.251,241.810 232.251,242.067 232.184 C 242.323 232.117,242.113 232.062,241.600 232.062 C 241.087 232.062,240.877 232.117,241.133 232.184 M274.867 232.188 C 275.197 232.252,275.737 232.252,276.067 232.188 C 276.397 232.125,276.127 232.073,275.467 232.073 C 274.807 232.073,274.537 232.125,274.867 232.188 M110.473 240.267 C 110.473 240.927,110.525 241.197,110.588 240.867 C 110.652 240.537,110.652 239.997,110.588 239.667 C 110.525 239.337,110.473 239.607,110.473 240.267 M291.801 240.667 C 291.804 241.253,291.858 241.462,291.922 241.130 C 291.986 240.799,291.983 240.319,291.917 240.064 C 291.850 239.809,291.798 240.080,291.801 240.667 M235.667 240.460 C 236.143 240.519,236.923 240.519,237.400 240.460 C 237.877 240.400,237.487 240.352,236.533 240.352 C 235.580 240.352,235.190 240.400,235.667 240.460 M279.667 240.460 C 280.143 240.519,280.923 240.519,281.400 240.460 C 281.877 240.400,281.487 240.352,280.533 240.352 C 279.580 240.352,279.190 240.400,279.667 240.460 M116.267 255.550 C 116.267 255.596,116.657 255.986,117.133 256.417 L 118.000 257.200 117.217 256.333 C 116.487 255.525,116.267 255.344,116.267 255.550 M148.867 263.132 C 150.443 263.179,153.023 263.179,154.600 263.132 C 156.177 263.085,154.887 263.047,151.733 263.047 C 148.580 263.047,147.290 263.085,148.867 263.132 M152.658 286.533 C 152.658 294.893,152.692 298.275,152.733 294.048 C 152.774 289.821,152.774 282.981,152.733 278.848 C 152.692 274.715,152.658 278.173,152.658 286.533 M166.258 286.533 C 166.258 294.747,166.292 298.145,166.333 294.086 C 166.375 290.026,166.375 283.306,166.333 279.152 C 166.292 274.999,166.258 278.320,166.258 286.533 M296.649 321.600 C 296.649 325.193,296.686 326.663,296.733 324.867 C 296.779 323.070,296.779 320.130,296.733 318.333 C 296.686 316.537,296.649 318.007,296.649 321.600 M148.712 338.600 C 175.723 338.637,220.003 338.637,247.112 338.600 C 274.220 338.563,252.120 338.532,198.000 338.532 C 143.880 338.532,121.700 338.563,148.712 338.600 M296.649 345.333 C 296.649 348.927,296.686 350.397,296.733 348.600 C 296.779 346.803,296.779 343.863,296.733 342.067 C 296.686 340.270,296.649 341.740,296.649 345.333 " stroke="none" fill="#b4e4a4" fill-rule="evenodd"></path></g></svg>