<svg id="svg" version="1.1" xmlns="http://www.w3.org/2000/svg" xmlns:xlink="http://www.w3.org/1999/xlink" width="400" height="400" viewBox="0, 0, 400,400"><g id="svgg"><path id="path0" d="M109.867 34.294 C 105.448 35.476,104.531 38.021,104.537 49.089 C 104.541 56.516,104.754 58.351,105.858 60.516 C 107.800 64.323,114.352 65.075,116.533 61.741 L 117.200 60.722 117.438 62.094 L 117.675 63.467 119.371 63.467 L 121.067 63.467 121.067 56.000 L 121.067 48.533 117.067 48.533 L 113.067 48.533 113.067 50.267 L 113.067 52.000 114.697 52.000 L 116.327 52.000 116.217 54.733 C 116.054 58.758,114.894 60.317,112.409 59.851 C 110.110 59.420,109.881 58.405,109.875 48.667 C 109.868 38.783,110.130 37.867,112.954 37.867 C 114.959 37.867,115.554 38.647,115.725 41.503 L 115.867 43.867 118.366 43.944 L 120.865 44.021 120.756 41.529 C 120.490 35.457,116.193 32.602,109.867 34.294 M124.978 34.311 C 124.880 34.409,124.800 41.009,124.800 48.978 L 124.800 63.467 131.079 63.467 L 137.358 63.467 137.279 61.667 L 137.200 59.867 133.667 59.792 L 130.133 59.718 130.133 54.926 L 130.133 50.133 132.933 50.133 L 135.733 50.133 135.733 48.267 L 135.733 46.400 132.933 46.400 L 130.133 46.400 130.133 42.267 L 130.133 38.133 133.600 38.133 L 137.067 38.133 137.067 36.133 L 137.067 34.133 131.111 34.133 C 127.836 34.133,125.076 34.213,124.978 34.311 M140.189 34.300 C 140.085 34.404,140.000 41.009,140.000 48.978 L 140.000 63.467 142.267 63.467 L 144.533 63.467 144.533 54.880 C 144.533 50.157,144.634 46.407,144.757 46.547 C 144.879 46.686,146.529 50.549,148.423 55.130 L 151.867 63.461 153.669 63.464 L 155.471 63.467 155.402 48.867 L 155.333 34.267 153.137 34.189 L 150.941 34.112 150.871 42.295 L 150.800 50.479 147.303 42.373 L 143.806 34.267 142.092 34.189 C 141.149 34.146,140.292 34.196,140.189 34.300 M159.667 34.281 C 159.557 34.395,159.467 41.021,159.467 49.006 L 159.467 63.522 164.733 63.416 C 174.911 63.210,175.956 61.632,175.662 46.933 C 175.478 37.731,174.754 35.976,170.659 34.814 C 168.824 34.293,160.063 33.868,159.667 34.281 M179.467 48.800 L 179.467 63.467 185.600 63.467 L 191.733 63.467 191.733 61.600 L 191.733 59.733 188.267 59.733 L 184.800 59.733 184.800 54.933 L 184.800 50.133 187.467 50.133 L 190.133 50.133 190.133 48.267 L 190.133 46.400 187.467 46.400 L 184.800 46.400 184.800 42.267 L 184.800 38.133 188.133 38.133 L 191.467 38.133 191.467 36.133 L 191.467 34.133 185.467 34.133 L 179.467 34.133 179.467 48.800 M194.667 48.800 L 194.667 63.467 197.333 63.467 L 200.000 63.467 200.000 56.800 L 200.000 50.133 201.141 50.133 L 202.283 50.133 204.008 56.799 L 205.733 63.465 208.333 63.466 C 209.805 63.466,210.933 63.356,210.933 63.212 C 210.933 63.072,210.093 59.990,209.067 56.362 C 206.869 48.597,206.949 49.358,208.227 48.330 C 210.073 46.847,210.924 43.708,210.395 40.333 C 209.637 35.499,206.906 34.141,197.933 34.135 L 194.667 34.133 194.667 48.800 M33.861 34.467 C 33.842 34.714,32.808 76.310,32.804 77.000 L 32.800 77.867 39.018 77.867 L 45.236 77.867 45.706 76.333 C 46.792 72.790,48.623 71.126,51.603 70.976 C 56.990 70.704,58.277 73.690,58.252 86.400 C 58.228 98.302,57.114 101.050,52.307 101.062 C 48.259 101.073,46.952 99.102,46.340 92.067 L 46.033 88.533 38.979 88.533 L 31.924 88.533 32.107 91.533 C 33.019 106.547,38.175 111.886,51.733 111.857 C 65.479 111.827,70.855 105.782,72.020 89.046 C 72.996 75.032,69.655 64.728,63.094 61.515 C 58.315 59.175,50.590 59.692,46.306 62.640 L 45.067 63.492 45.066 62.479 C 45.065 60.976,45.587 50.525,45.760 48.600 L 45.909 46.933 57.488 46.933 L 69.067 46.933 69.067 40.667 L 69.067 34.400 51.467 34.400 C 41.787 34.400,33.864 34.430,33.861 34.467 M203.442 38.215 C 204.993 38.759,205.468 39.702,205.457 42.220 C 205.443 45.543,204.454 46.664,201.533 46.666 L 200.000 46.667 200.000 42.267 L 200.000 37.867 201.267 37.882 C 201.963 37.890,202.942 38.040,203.442 38.215 M168.761 38.513 C 170.075 39.193,170.133 39.634,170.132 48.879 C 170.131 59.547,170.064 59.733,166.249 59.733 L 164.800 59.733 164.800 48.933 L 164.800 38.133 166.413 38.133 C 167.301 38.133,168.357 38.304,168.761 38.513 M125.925 81.885 C 120.632 82.811,119.867 84.661,119.867 96.533 C 119.867 108.856,120.694 110.675,126.677 111.504 L 128.565 111.765 131.164 114.416 C 134.243 117.555,134.211 117.547,134.812 115.327 L 135.282 113.588 133.894 112.194 L 132.505 110.800 133.119 110.400 C 135.992 108.529,136.368 107.097,136.480 97.600 C 136.580 89.135,136.424 87.486,135.312 85.292 C 133.916 82.536,130.106 81.154,125.925 81.885 M105.067 96.667 L 105.067 111.200 111.200 111.200 L 117.333 111.200 117.333 109.333 L 117.333 107.467 113.867 107.467 L 110.400 107.467 110.400 102.667 L 110.400 97.867 113.067 97.867 L 115.733 97.867 115.733 96.000 L 115.733 94.133 113.067 94.133 L 110.400 94.133 110.400 90.008 L 110.400 85.883 113.800 85.808 L 117.200 85.733 117.279 83.933 L 117.358 82.133 111.212 82.133 L 105.067 82.133 105.067 96.667 M140.002 92.600 C 140.004 105.429,140.292 107.538,142.330 109.666 C 144.444 111.873,150.519 112.238,153.353 110.328 C 156.143 108.447,156.347 107.360,156.470 93.667 L 156.573 82.133 153.887 82.133 L 151.200 82.133 151.185 93.533 C 151.174 101.631,151.078 105.204,150.852 105.867 C 150.105 108.055,146.938 108.226,145.827 106.137 C 145.368 105.274,145.333 104.390,145.333 93.671 L 145.333 82.133 142.667 82.133 L 140.000 82.133 140.002 92.600 M164.800 82.274 C 164.800 82.430,159.290 109.644,159.065 110.600 C 158.926 111.190,158.966 111.200,161.428 111.200 L 163.932 111.200 164.375 108.733 C 164.619 107.377,164.888 105.872,164.974 105.391 L 165.130 104.515 167.692 104.591 L 170.255 104.667 170.805 107.867 L 171.356 111.067 173.811 111.143 C 175.162 111.186,176.267 111.162,176.267 111.092 C 176.267 110.936,170.736 83.577,170.534 82.733 C 170.399 82.170,164.800 81.721,164.800 82.274 M178.933 96.667 L 178.933 111.200 185.212 111.200 L 191.491 111.200 191.412 109.400 L 191.333 107.600 187.800 107.526 L 184.267 107.451 184.267 94.792 L 184.267 82.133 181.600 82.133 L 178.933 82.133 178.933 96.667 M194.133 96.667 L 194.133 111.200 196.800 111.200 L 199.467 111.200 199.467 96.667 L 199.467 82.133 196.800 82.133 L 194.133 82.133 194.133 96.667 M201.600 83.990 L 201.600 85.847 204.067 85.923 L 206.533 86.000 206.603 98.600 L 206.672 111.200 209.336 111.200 L 212.000 111.200 212.000 98.533 L 212.000 85.867 214.267 85.867 L 216.533 85.867 216.533 84.000 L 216.533 82.133 209.067 82.133 L 201.600 82.133 201.600 83.990 M217.130 82.456 C 217.201 82.645,218.536 86.719,220.096 91.509 L 222.933 100.218 222.933 105.709 L 222.933 111.200 225.467 111.200 L 228.000 111.200 228.000 105.617 L 228.000 100.033 230.911 91.150 L 233.821 82.267 231.535 82.189 C 228.722 82.093,229.131 81.555,227.324 87.733 C 226.488 90.593,225.718 93.027,225.613 93.142 C 225.508 93.257,224.647 90.857,223.700 87.809 L 221.978 82.267 219.490 82.190 C 217.546 82.129,217.030 82.188,217.130 82.456 M130.301 86.494 C 131.166 87.500,131.248 88.568,131.152 97.600 C 131.060 106.383,131.026 106.596,129.605 107.331 C 127.874 108.226,125.839 107.437,125.351 105.681 C 124.981 104.347,124.975 89.008,125.344 87.679 C 125.938 85.539,128.875 84.837,130.301 86.494 M168.682 95.110 C 169.181 98.166,169.592 100.757,169.595 100.867 C 169.598 100.977,168.760 101.067,167.733 101.067 C 166.134 101.067,165.866 101.000,165.865 100.600 C 165.862 99.824,167.562 89.340,167.672 89.450 C 167.729 89.507,168.183 92.054,168.682 95.110 M241.511 151.111 C 241.413 151.209,241.333 155.229,241.333 160.044 L 241.333 168.800 251.666 168.800 L 261.999 168.800 250.918 179.881 L 239.836 190.963 236.056 188.419 C 192.453 159.079,133.869 190.080,133.795 242.533 C 133.748 275.330,156.683 301.907,189.933 307.587 L 190.933 307.758 190.933 317.342 L 190.933 326.927 180.733 326.997 L 170.533 327.067 170.533 336.400 L 170.533 345.733 180.667 345.867 L 190.800 346.000 190.933 355.733 L 191.067 365.467 199.867 365.541 C 204.707 365.582,208.935 365.550,209.263 365.470 L 209.860 365.325 209.930 355.662 L 210.000 346.000 220.133 345.867 L 230.267 345.733 230.267 336.400 L 230.267 327.067 220.067 326.997 L 209.867 326.927 209.867 317.188 C 209.867 309.624,209.941 307.430,210.200 307.359 C 210.383 307.310,211.793 307.005,213.333 306.682 C 240.074 301.078,260.990 278.134,264.388 250.675 C 266.330 234.984,262.583 219.646,253.327 205.399 C 252.948 204.815,253.247 204.487,263.802 193.932 L 274.667 183.067 274.667 192.414 C 274.667 199.327,274.750 201.843,274.987 202.080 C 275.444 202.538,292.022 202.538,292.480 202.080 C 292.944 201.616,292.944 151.717,292.480 151.253 C 292.131 150.904,241.858 150.764,241.511 151.111 M205.641 194.789 C 241.914 199.617,259.924 242.122,238.092 271.376 C 216.324 300.544,171.372 296.192,155.731 263.402 C 139.329 229.016,167.882 189.762,205.641 194.789 M169.663 230.467 L 169.733 238.000 199.533 238.068 L 229.333 238.136 229.333 230.534 L 229.333 222.933 199.463 222.933 L 169.592 222.933 169.663 230.467 M169.663 255.800 L 169.733 263.333 199.533 263.401 L 229.333 263.469 229.333 255.868 L 229.333 248.267 199.463 248.267 L 169.592 248.267 169.663 255.800 " stroke="none" fill="#fcfbfb" fill-rule="evenodd"></path><path id="path1" d="M0.000 200.000 L 0.000 400.000 200.000 400.000 L 400.000 400.000 400.000 200.000 L 400.000 0.000 200.000 0.000 L 0.000 0.000 0.000 200.000 M116.234 34.282 C 119.184 35.158,120.727 37.539,120.992 41.627 L 121.146 44.000 118.439 44.000 L 115.733 44.000 115.732 42.333 C 115.729 38.781,114.536 37.450,111.973 38.141 C 110.163 38.628,110.133 38.798,110.133 48.662 C 110.133 59.299,110.245 59.733,112.990 59.733 C 115.094 59.733,115.873 58.498,116.159 54.705 L 116.343 52.267 114.705 52.267 L 113.067 52.267 113.067 50.400 L 113.067 48.533 117.204 48.533 L 121.342 48.533 121.271 56.067 L 121.200 63.600 119.491 63.680 C 117.589 63.770,117.344 63.602,117.337 62.200 C 117.333 61.161,117.022 61.087,116.528 62.009 C 114.660 65.501,107.631 64.344,105.636 60.216 C 103.713 56.238,103.669 41.776,105.568 37.719 C 107.149 34.340,111.600 32.906,116.234 34.282 M69.067 40.533 L 69.067 46.933 57.467 46.933 L 45.867 46.933 45.856 48.467 C 45.850 49.310,45.683 52.940,45.485 56.533 C 45.066 64.148,44.942 63.367,46.412 62.385 C 51.153 59.219,59.979 59.092,64.390 62.126 C 69.870 65.897,72.139 72.588,72.123 84.933 C 72.099 103.373,67.310 110.808,54.690 111.998 C 39.935 113.389,32.743 107.091,32.083 92.200 L 31.921 88.533 39.121 88.533 L 46.322 88.533 46.470 91.667 C 46.831 99.279,49.170 102.108,53.997 100.768 C 57.168 99.888,57.916 97.470,58.069 87.600 C 58.255 75.706,57.318 72.228,53.658 71.212 C 49.940 70.179,46.525 72.622,45.725 76.886 L 45.541 77.867 39.104 77.867 L 32.667 77.867 33.152 56.333 C 33.418 44.490,33.685 34.650,33.743 34.467 C 33.827 34.204,37.606 34.133,51.458 34.133 L 69.067 34.133 69.067 40.533 M137.333 36.133 L 137.333 38.133 133.867 38.133 L 130.400 38.133 130.400 42.267 L 130.400 46.400 133.067 46.400 L 135.733 46.400 135.733 48.400 L 135.733 50.400 133.067 50.400 L 130.400 50.400 130.400 55.067 L 130.400 59.733 133.867 59.733 L 137.333 59.733 137.333 61.733 L 137.333 63.733 131.067 63.733 L 124.800 63.733 124.800 48.933 L 124.800 34.133 131.067 34.133 L 137.333 34.133 137.333 36.133 M147.343 42.146 L 150.800 50.158 150.871 42.146 L 150.941 34.133 153.204 34.133 L 155.467 34.133 155.467 48.933 L 155.467 63.733 153.648 63.733 L 151.830 63.733 148.382 55.401 L 144.933 47.068 144.800 55.334 L 144.667 63.600 142.333 63.677 L 140.000 63.754 140.000 48.944 L 140.000 34.133 141.943 34.133 L 143.886 34.133 147.343 42.146 M171.305 34.798 C 175.149 36.207,175.600 37.691,175.600 48.939 L 175.600 57.745 174.705 59.563 C 173.097 62.829,171.566 63.441,164.467 63.656 L 159.467 63.808 159.467 48.943 L 159.467 34.078 164.733 34.199 C 168.911 34.295,170.270 34.419,171.305 34.798 M191.733 36.133 L 191.733 38.133 188.267 38.133 L 184.800 38.133 184.800 42.267 L 184.800 46.400 187.612 46.400 L 190.423 46.400 190.345 48.333 L 190.267 50.267 187.533 50.343 L 184.800 50.419 184.800 55.076 L 184.800 59.733 188.267 59.733 L 191.733 59.733 191.733 61.738 L 191.733 63.743 185.533 63.672 L 179.333 63.600 179.264 48.867 L 179.195 34.133 185.464 34.133 L 191.733 34.133 191.733 36.133 M204.854 34.433 C 209.077 35.328,210.887 38.001,210.603 42.919 C 210.420 46.070,209.220 48.337,207.273 49.206 C 207.239 49.220,208.108 52.405,209.203 56.283 C 210.298 60.161,211.195 63.423,211.197 63.533 C 211.202 63.873,205.920 63.769,205.708 63.426 C 205.604 63.257,204.777 60.287,203.870 56.826 L 202.222 50.533 201.111 50.451 L 200.000 50.369 200.000 57.061 L 200.000 63.752 197.267 63.676 L 194.533 63.600 194.464 48.867 L 194.395 34.133 198.918 34.133 C 201.405 34.133,204.076 34.268,204.854 34.433 M165.067 48.970 L 165.067 59.807 166.595 59.627 C 170.009 59.226,170.000 59.253,170.000 48.800 C 170.000 38.352,169.924 38.133,166.275 38.133 L 165.067 38.133 165.067 48.970 M200.000 42.407 L 200.000 46.741 201.641 46.592 C 204.555 46.328,205.392 45.257,205.276 41.939 C 205.173 38.960,204.605 38.333,201.869 38.179 L 200.000 38.073 200.000 42.407 M132.635 82.506 C 135.882 84.095,136.563 86.162,136.732 94.933 C 136.923 104.875,136.390 107.708,133.918 109.883 L 132.711 110.946 134.094 112.279 L 135.478 113.613 135.054 115.140 C 134.821 115.979,134.583 116.815,134.525 116.997 C 134.287 117.741,128.800 112.926,128.800 111.973 C 128.800 111.841,128.286 111.733,127.658 111.733 C 120.978 111.733,119.292 108.256,119.534 94.980 C 119.671 87.460,119.858 86.346,121.325 84.320 C 123.293 81.604,128.941 80.699,132.635 82.506 M117.333 83.867 L 117.333 85.867 113.867 85.867 L 110.400 85.867 110.400 90.000 L 110.400 94.133 113.212 94.133 L 116.023 94.133 115.945 96.067 L 115.867 98.000 113.133 98.076 L 110.400 98.152 110.400 102.809 L 110.400 107.467 113.867 107.467 L 117.333 107.467 117.333 109.472 L 117.333 111.476 111.133 111.405 L 104.933 111.333 104.864 96.600 L 104.795 81.867 111.064 81.867 L 117.333 81.867 117.333 83.867 M145.333 92.787 C 145.333 106.607,145.505 107.467,148.267 107.467 C 151.028 107.467,151.200 106.607,151.200 92.787 L 151.200 81.867 153.867 81.867 L 156.533 81.867 156.529 93.133 C 156.524 108.442,156.101 109.932,151.375 111.336 C 146.953 112.649,142.756 111.239,141.067 107.874 L 140.133 106.014 140.054 93.940 L 139.975 81.867 142.654 81.867 L 145.333 81.867 145.333 92.787 M173.498 96.533 C 175.128 104.527,176.377 111.162,176.274 111.278 C 176.170 111.394,175.023 111.454,173.725 111.411 L 171.366 111.333 171.173 110.533 C 171.067 110.093,170.775 108.563,170.525 107.133 L 170.070 104.533 167.720 104.533 C 165.025 104.533,165.320 104.211,164.678 107.867 C 163.970 111.903,164.360 111.467,161.462 111.467 C 159.203 111.467,158.933 111.415,158.933 110.986 C 158.933 110.590,164.185 84.465,164.668 82.458 C 164.811 81.864,164.888 81.851,167.674 81.924 L 170.533 82.000 173.498 96.533 M184.533 94.667 L 184.533 107.467 188.000 107.467 L 191.467 107.467 191.467 109.467 L 191.467 111.467 185.200 111.467 L 178.933 111.467 178.933 96.667 L 178.933 81.867 181.733 81.867 L 184.533 81.867 184.533 94.667 M199.467 96.667 L 199.467 111.467 196.800 111.467 L 194.133 111.467 194.133 96.667 L 194.133 81.867 196.800 81.867 L 199.467 81.867 199.467 96.667 M223.743 87.456 C 224.686 90.530,225.535 92.900,225.631 92.723 C 225.726 92.545,226.500 90.030,227.350 87.133 L 228.897 81.867 231.382 81.867 C 234.433 81.867,234.486 80.719,230.933 91.540 L 228.000 100.475 228.000 105.981 L 228.000 111.486 225.400 111.410 L 222.800 111.333 222.657 105.200 L 222.515 99.067 219.685 90.667 L 216.855 82.267 216.827 84.200 L 216.800 86.133 214.400 86.133 L 212.000 86.133 212.000 98.809 L 212.000 111.485 209.267 111.409 L 206.533 111.333 206.464 98.733 L 206.395 86.133 203.997 86.133 L 201.600 86.133 201.600 84.000 L 201.600 81.867 211.814 81.867 L 222.028 81.867 223.743 87.456 M126.113 86.555 L 125.467 87.243 125.467 96.711 L 125.467 106.180 126.215 106.823 C 127.250 107.713,129.017 107.713,130.052 106.823 L 130.800 106.180 130.800 96.711 L 130.800 87.243 130.154 86.555 C 129.621 85.988,129.265 85.867,128.133 85.867 C 127.001 85.867,126.646 85.988,126.113 86.555 M166.823 95.022 C 166.397 97.686,165.993 100.077,165.926 100.333 C 165.819 100.743,166.020 100.800,167.569 100.800 C 168.924 100.800,169.333 100.711,169.333 100.417 C 169.333 99.901,167.778 90.356,167.678 90.256 C 167.634 90.212,167.250 92.357,166.823 95.022 M292.667 176.667 L 292.667 202.267 283.733 202.267 L 274.800 202.267 274.667 192.865 L 274.533 183.464 263.811 194.199 L 253.089 204.933 254.158 206.533 C 280.006 245.217,256.801 299.576,211.133 307.321 L 210.133 307.491 210.133 317.079 L 210.133 326.667 219.933 326.671 C 225.323 326.673,229.885 326.771,230.070 326.889 C 230.333 327.056,230.392 329.169,230.337 336.551 L 230.267 346.000 220.200 346.070 L 210.133 346.140 210.129 355.537 C 210.127 360.705,210.029 365.085,209.911 365.270 C 209.744 365.533,207.631 365.592,200.249 365.537 L 190.800 365.467 190.730 355.803 L 190.660 346.140 180.597 346.070 L 170.533 346.000 170.463 336.551 C 170.408 329.169,170.467 327.056,170.730 326.889 C 170.915 326.771,175.477 326.673,180.867 326.671 L 190.667 326.667 190.667 317.237 L 190.667 307.807 188.600 307.479 C 142.148 300.121,118.436 246.152,144.329 206.714 C 165.409 174.605,207.626 167.417,239.370 190.532 C 239.649 190.736,242.268 188.265,250.600 179.932 L 261.466 169.067 251.586 169.067 C 244.258 169.067,241.624 168.984,241.387 168.747 C 241.048 168.408,240.901 152.209,241.229 151.354 C 241.376 150.971,243.823 150.937,267.029 150.999 L 292.667 151.067 292.667 176.667 M195.200 194.678 C 161.641 197.685,141.348 233.364,155.998 263.600 C 172.775 298.224,221.381 300.062,240.932 266.812 C 260.487 233.555,233.654 191.231,195.200 194.678 M229.178 222.829 C 229.728 223.040,229.825 237.535,229.280 238.080 C 228.729 238.631,170.306 238.534,169.752 237.981 C 169.206 237.435,169.114 223.526,169.653 222.987 C 169.993 222.647,228.303 222.493,229.178 222.829 M229.178 248.162 C 229.728 248.373,229.825 262.868,229.280 263.413 C 228.729 263.965,170.306 263.867,169.752 263.314 C 169.206 262.768,169.114 248.859,169.653 248.320 C 169.993 247.981,228.303 247.826,229.178 248.162 " stroke="none" fill="#fc3c24" fill-rule="evenodd"></path><path id="path2" d="M42.600 34.333 C 47.477 34.374,55.457 34.374,60.333 34.333 C 65.210 34.293,61.220 34.259,51.467 34.259 C 41.713 34.259,37.723 34.293,42.600 34.333 M137.154 36.133 C 137.155 37.160,137.204 37.547,137.261 36.994 C 137.319 36.441,137.318 35.601,137.259 35.127 C 137.200 34.654,137.153 35.107,137.154 36.133 M179.324 48.933 C 179.324 57.000,179.358 60.338,179.400 56.352 C 179.441 52.366,179.441 45.766,179.400 41.686 C 179.358 37.605,179.325 40.867,179.324 48.933 M191.554 36.133 C 191.555 37.160,191.604 37.547,191.661 36.994 C 191.719 36.441,191.718 35.601,191.659 35.127 C 191.600 34.654,191.553 35.107,191.554 36.133 M194.524 48.933 C 194.524 57.000,194.558 60.338,194.600 56.352 C 194.641 52.366,194.641 45.766,194.600 41.686 C 194.558 37.605,194.525 40.867,194.524 48.933 M33.683 37.200 C 33.684 38.080,33.734 38.408,33.793 37.929 C 33.853 37.449,33.851 36.729,33.791 36.329 C 33.730 35.928,33.681 36.320,33.683 37.200 M130.241 42.267 C 130.242 44.613,130.282 45.538,130.332 44.321 C 130.381 43.104,130.381 41.184,130.331 40.054 C 130.281 38.924,130.241 39.920,130.241 42.267 M164.922 48.933 C 164.922 54.947,164.957 57.445,165.000 54.485 C 165.043 51.524,165.043 46.604,165.000 43.551 C 164.957 40.498,164.922 42.920,164.922 48.933 M120.880 42.400 C 120.880 43.207,120.930 43.537,120.991 43.133 C 121.052 42.730,121.052 42.070,120.991 41.667 C 120.930 41.263,120.880 41.593,120.880 42.400 M144.533 54.933 C 144.533 59.676,144.590 63.499,144.660 63.429 C 144.839 63.250,144.860 46.638,144.681 46.459 C 144.600 46.378,144.533 50.191,144.533 54.933 M33.413 48.267 C 33.413 49.073,33.463 49.403,33.524 49.000 C 33.585 48.597,33.585 47.937,33.524 47.533 C 33.463 47.130,33.413 47.460,33.413 48.267 M130.244 54.933 C 130.244 57.647,130.284 58.757,130.332 57.400 C 130.380 56.043,130.380 53.823,130.332 52.467 C 130.284 51.110,130.244 52.220,130.244 54.933 M113.800 52.193 C 114.277 52.252,115.057 52.252,115.533 52.193 C 116.010 52.134,115.620 52.085,114.667 52.085 C 113.713 52.085,113.323 52.134,113.800 52.193 M33.147 59.467 C 33.147 60.273,33.197 60.603,33.258 60.200 C 33.319 59.797,33.319 59.137,33.258 58.733 C 33.197 58.330,33.147 58.660,33.147 59.467 M32.880 70.667 C 32.880 71.473,32.930 71.803,32.991 71.400 C 33.052 70.997,33.052 70.337,32.991 69.933 C 32.930 69.530,32.880 69.860,32.880 70.667 M104.922 82.200 C 104.852 82.383,104.827 89.013,104.866 96.933 L 104.938 111.333 105.002 96.738 L 105.067 82.143 111.133 82.066 L 117.200 81.989 111.125 81.928 C 106.465 81.881,105.020 81.944,104.922 82.200 M141.276 82.064 C 142.051 82.118,143.251 82.117,143.942 82.062 C 144.634 82.008,144.000 81.963,142.533 81.964 C 141.067 81.965,140.501 82.010,141.276 82.064 M152.742 82.064 C 153.517 82.118,154.717 82.117,155.409 82.062 C 156.101 82.008,155.467 81.963,154.000 81.964 C 152.533 81.965,151.967 82.010,152.742 82.064 M166.210 82.064 C 167.058 82.117,168.378 82.117,169.143 82.063 C 169.908 82.009,169.213 81.966,167.600 81.966 C 165.987 81.967,165.361 82.011,166.210 82.064 M181.730 82.061 L 184.262 82.153 184.335 94.876 L 184.408 107.600 184.404 94.800 L 184.400 82.000 181.799 81.985 L 179.199 81.969 181.730 82.061 M195.400 82.063 C 196.170 82.117,197.430 82.117,198.200 82.063 C 198.970 82.009,198.340 81.965,196.800 81.965 C 195.260 81.965,194.630 82.009,195.400 82.063 M209.200 82.064 L 216.533 82.142 216.533 83.994 L 216.533 85.846 214.333 85.939 L 212.133 86.031 214.400 86.016 L 216.667 86.000 216.667 84.000 L 216.667 82.000 209.267 81.994 L 201.866 81.987 209.200 82.064 M217.733 82.036 C 219.619 82.233,222.074 82.251,221.960 82.067 C 221.891 81.957,220.732 81.886,219.384 81.909 C 218.036 81.933,217.293 81.990,217.733 82.036 M228.974 82.067 C 228.905 82.177,229.648 82.234,230.625 82.193 C 233.718 82.065,234.081 81.953,231.549 81.909 C 230.201 81.886,229.042 81.957,228.974 82.067 M204.064 86.060 L 206.395 86.154 206.468 98.610 L 206.541 111.067 206.537 98.533 L 206.533 86.000 204.133 85.982 L 201.733 85.965 204.064 86.060 M72.062 87.733 C 72.062 88.247,72.117 88.457,72.184 88.200 C 72.251 87.943,72.251 87.523,72.184 87.267 C 72.117 87.010,72.062 87.220,72.062 87.733 M46.213 90.133 C 46.213 90.940,46.263 91.270,46.324 90.867 C 46.385 90.463,46.385 89.803,46.324 89.400 C 46.263 88.997,46.213 89.327,46.213 90.133 M58.201 90.267 C 58.204 90.853,58.258 91.062,58.322 90.730 C 58.386 90.399,58.383 89.919,58.317 89.664 C 58.250 89.409,58.198 89.680,58.201 90.267 M111.667 98.063 C 112.437 98.117,113.697 98.117,114.467 98.063 C 115.237 98.009,114.607 97.965,113.067 97.965 C 111.527 97.965,110.897 98.009,111.667 98.063 M36.267 106.483 C 36.267 106.529,36.657 106.919,37.133 107.350 L 38.000 108.133 37.217 107.267 C 36.487 106.459,36.267 106.277,36.267 106.483 M131.333 114.933 C 131.906 115.520,132.435 116.000,132.508 116.000 C 132.582 116.000,132.173 115.520,131.600 114.933 C 131.027 114.347,130.498 113.867,130.425 113.867 C 130.352 113.867,130.760 114.347,131.333 114.933 M246.884 169.000 C 249.717 169.043,254.277 169.043,257.018 169.000 C 259.758 168.956,257.440 168.921,251.867 168.921 C 246.293 168.921,244.051 168.956,246.884 169.000 M263.733 194.000 C 257.795 199.940,252.996 204.800,253.069 204.800 C 253.142 204.800,258.061 199.940,264.000 194.000 C 269.939 188.060,274.738 183.200,274.664 183.200 C 274.591 183.200,269.672 188.060,263.733 194.000 M184.887 222.867 C 193.075 222.906,206.395 222.906,214.487 222.867 C 222.579 222.827,215.880 222.795,199.600 222.795 C 183.320 222.795,176.699 222.827,184.887 222.867 M229.451 230.533 C 229.451 234.640,229.488 236.283,229.533 234.184 C 229.578 232.085,229.578 228.725,229.533 226.717 C 229.487 224.709,229.450 226.427,229.451 230.533 M133.662 239.733 C 133.662 240.247,133.717 240.457,133.784 240.200 C 133.851 239.943,133.851 239.523,133.784 239.267 C 133.717 239.010,133.662 239.220,133.662 239.733 M151.029 242.667 C 151.029 244.060,151.074 244.630,151.129 243.933 C 151.184 243.237,151.184 242.097,151.129 241.400 C 151.074 240.703,151.029 241.273,151.029 242.667 M264.896 242.667 C 264.896 244.060,264.941 244.630,264.996 243.933 C 265.051 243.237,265.051 242.097,264.996 241.400 C 264.941 240.703,264.896 241.273,264.896 242.667 M133.662 245.600 C 133.662 246.113,133.717 246.323,133.784 246.067 C 133.851 245.810,133.851 245.390,133.784 245.133 C 133.717 244.877,133.662 245.087,133.662 245.600 M184.887 248.200 C 193.075 248.239,206.395 248.239,214.487 248.200 C 222.579 248.161,215.880 248.129,199.600 248.129 C 183.320 248.129,176.699 248.161,184.887 248.200 M229.451 255.867 C 229.451 259.973,229.488 261.616,229.533 259.517 C 229.578 257.418,229.578 254.058,229.533 252.051 C 229.487 250.043,229.450 251.760,229.451 255.867 M209.988 307.535 C 209.918 307.719,209.893 312.189,209.933 317.468 L 210.007 327.067 210.070 317.289 C 210.119 309.764,210.210 307.480,210.467 307.377 C 210.728 307.271,210.726 307.238,210.458 307.221 C 210.270 307.209,210.059 307.351,209.988 307.535 M190.787 317.333 C 190.787 322.687,190.823 324.877,190.866 322.200 C 190.910 319.523,190.910 315.143,190.866 312.467 C 190.823 309.790,190.787 311.980,190.787 317.333 M180.730 346.065 L 190.660 346.140 190.735 355.537 L 190.810 364.933 190.805 355.467 L 190.800 346.000 180.800 345.995 L 170.800 345.990 180.730 346.065 M209.988 346.202 C 209.917 346.386,209.893 350.736,209.933 355.868 L 210.007 365.200 210.070 355.670 L 210.133 346.140 220.067 346.067 L 230.000 345.993 220.058 345.930 C 212.280 345.880,210.089 345.940,209.988 346.202 " stroke="none" fill="#fc9c94" fill-rule="evenodd"></path><path id="path3" d="M200.470 38.055 C 200.801 38.119,201.281 38.117,201.536 38.050 C 201.791 37.983,201.520 37.931,200.933 37.934 C 200.347 37.937,200.138 37.991,200.470 38.055 M109.984 48.667 C 109.984 52.773,110.021 54.416,110.066 52.317 C 110.111 50.218,110.111 46.858,110.066 44.851 C 110.021 42.843,109.984 44.560,109.984 48.667 M104.382 48.933 C 104.382 52.453,104.420 53.856,104.466 52.051 C 104.512 50.246,104.512 47.366,104.466 45.651 C 104.419 43.936,104.381 45.413,104.382 48.933 M33.413 45.333 C 33.413 46.140,33.463 46.470,33.524 46.067 C 33.585 45.663,33.585 45.003,33.524 44.600 C 33.463 44.197,33.413 44.527,33.413 45.333 M190.185 48.191 L 190.133 50.115 187.400 50.201 L 184.667 50.288 187.408 50.344 C 190.565 50.409,190.473 50.484,190.332 47.972 L 190.236 46.267 190.185 48.191 M121.129 55.921 L 121.067 63.442 119.267 63.536 L 117.467 63.629 119.275 63.681 C 121.538 63.746,121.357 64.472,121.267 55.730 L 121.191 48.400 121.129 55.921 M131.667 50.330 C 132.437 50.384,133.697 50.384,134.467 50.330 C 135.237 50.276,134.607 50.232,133.067 50.232 C 131.527 50.232,130.897 50.276,131.667 50.330 M200.133 50.268 C 200.743 50.481,202.353 50.539,202.232 50.344 C 202.161 50.228,201.599 50.143,200.984 50.154 C 200.370 50.166,199.987 50.217,200.133 50.268 M33.147 56.533 C 33.147 57.340,33.197 57.670,33.258 57.267 C 33.319 56.863,33.319 56.203,33.258 55.800 C 33.197 55.397,33.147 55.727,33.147 56.533 M55.800 59.917 C 56.057 59.984,56.477 59.984,56.733 59.917 C 56.990 59.850,56.780 59.795,56.267 59.795 C 55.753 59.795,55.543 59.850,55.800 59.917 M127.949 63.666 C 129.754 63.712,132.634 63.712,134.349 63.666 C 136.064 63.619,134.587 63.581,131.067 63.582 C 127.547 63.582,126.144 63.620,127.949 63.666 M141.141 63.663 C 141.842 63.718,142.922 63.717,143.541 63.662 C 144.160 63.606,143.587 63.561,142.267 63.561 C 140.947 63.562,140.440 63.608,141.141 63.663 M152.600 63.661 C 153.150 63.718,154.050 63.718,154.600 63.661 C 155.150 63.603,154.700 63.556,153.600 63.556 C 152.500 63.556,152.050 63.603,152.600 63.661 M161.400 63.665 C 162.537 63.715,164.397 63.715,165.533 63.665 C 166.670 63.615,165.740 63.574,163.467 63.574 C 161.193 63.574,160.263 63.615,161.400 63.665 M182.467 63.666 C 184.190 63.712,187.010 63.712,188.733 63.666 C 190.457 63.619,189.047 63.581,185.600 63.581 C 182.153 63.581,180.743 63.619,182.467 63.666 M195.933 63.663 C 196.703 63.717,197.963 63.717,198.733 63.663 C 199.503 63.609,198.873 63.565,197.333 63.565 C 195.793 63.565,195.163 63.609,195.933 63.663 M207.133 63.663 C 207.903 63.717,209.163 63.717,209.933 63.663 C 210.703 63.609,210.073 63.565,208.533 63.565 C 206.993 63.565,206.363 63.609,207.133 63.663 M32.880 67.733 C 32.880 68.540,32.930 68.870,32.991 68.467 C 33.052 68.063,33.052 67.403,32.991 67.000 C 32.930 66.597,32.880 66.927,32.880 67.733 M58.238 85.600 C 58.238 87.580,58.280 88.390,58.331 87.400 C 58.382 86.410,58.382 84.790,58.331 83.800 C 58.280 82.810,58.238 83.620,58.238 85.600 M125.184 96.533 C 125.184 100.713,125.221 102.423,125.266 100.333 C 125.311 98.243,125.311 94.823,125.266 92.733 C 125.221 90.643,125.184 92.353,125.184 96.533 M131.050 96.533 C 131.050 100.567,131.087 102.217,131.133 100.200 C 131.178 98.183,131.178 94.883,131.133 92.867 C 131.087 90.850,131.050 92.500,131.050 96.533 M119.583 96.533 C 119.583 100.273,119.620 101.803,119.666 99.933 C 119.712 98.063,119.712 95.003,119.666 93.133 C 119.620 91.263,119.583 92.793,119.583 96.533 M136.649 96.533 C 136.649 100.127,136.686 101.597,136.733 99.800 C 136.779 98.003,136.779 95.063,136.733 93.267 C 136.686 91.470,136.649 92.940,136.649 96.533 M115.823 96.000 C 115.823 97.100,115.870 97.550,115.928 97.000 C 115.985 96.450,115.985 95.550,115.928 95.000 C 115.870 94.450,115.823 94.900,115.823 96.000 M222.792 105.666 L 222.800 111.333 225.401 111.349 L 228.001 111.364 225.473 111.272 L 222.944 111.181 222.864 105.590 L 222.784 100.000 222.792 105.666 M167.600 100.800 L 165.733 100.972 167.667 101.020 C 168.809 101.047,169.600 100.958,169.600 100.800 C 169.600 100.653,169.570 100.555,169.533 100.580 C 169.497 100.606,168.627 100.705,167.600 100.800 M173.867 111.200 L 171.333 111.365 173.784 111.416 C 175.189 111.445,176.306 111.353,176.400 111.200 C 176.491 111.053,176.528 110.956,176.482 110.984 C 176.437 111.012,175.260 111.109,173.867 111.200 M108.067 111.399 C 109.790 111.446,112.610 111.446,114.333 111.399 C 116.057 111.353,114.647 111.315,111.200 111.315 C 107.753 111.315,106.343 111.353,108.067 111.399 M160.209 111.397 C 160.984 111.451,162.184 111.450,162.876 111.396 C 163.567 111.341,162.933 111.297,161.467 111.297 C 160.000 111.298,159.434 111.343,160.209 111.397 M182.082 111.399 C 183.887 111.446,186.767 111.445,188.482 111.399 C 190.197 111.353,188.720 111.315,185.200 111.315 C 181.680 111.315,180.277 111.353,182.082 111.399 M195.400 111.397 C 196.170 111.450,197.430 111.450,198.200 111.397 C 198.970 111.343,198.340 111.299,196.800 111.299 C 195.260 111.299,194.630 111.343,195.400 111.397 M207.933 111.397 C 208.703 111.450,209.963 111.450,210.733 111.397 C 211.503 111.343,210.873 111.299,209.333 111.299 C 207.793 111.299,207.163 111.343,207.933 111.397 M51.000 112.191 C 51.403 112.252,52.063 112.252,52.467 112.191 C 52.870 112.130,52.540 112.080,51.733 112.080 C 50.927 112.080,50.597 112.130,51.000 112.191 M241.186 160.000 C 241.186 164.767,241.222 166.717,241.266 164.333 C 241.310 161.950,241.310 158.050,241.266 155.667 C 241.222 153.283,241.186 155.233,241.186 160.000 M250.527 180.001 C 244.510 186.014,239.650 190.933,239.728 190.933 C 239.806 190.933,244.788 186.013,250.800 180.000 C 256.812 173.987,261.671 169.067,261.599 169.068 C 261.526 169.068,256.544 173.988,250.527 180.001 M198.333 176.993 C 198.810 177.052,199.590 177.052,200.067 176.993 C 200.543 176.934,200.153 176.885,199.200 176.885 C 198.247 176.885,197.857 176.934,198.333 176.993 M152.791 196.200 L 151.333 197.733 152.867 196.276 C 154.291 194.922,154.522 194.667,154.324 194.667 C 154.283 194.667,153.593 195.357,152.791 196.200 M165.067 208.667 C 164.419 209.327,163.949 209.867,164.022 209.867 C 164.096 209.867,164.686 209.327,165.333 208.667 C 165.981 208.007,166.451 207.467,166.378 207.467 C 166.304 207.467,165.714 208.007,165.067 208.667 M169.450 230.400 C 169.450 234.433,169.487 236.083,169.533 234.067 C 169.578 232.050,169.578 228.750,169.533 226.733 C 169.487 224.717,169.450 226.367,169.450 230.400 M184.887 238.333 C 193.075 238.372,206.395 238.372,214.487 238.333 C 222.579 238.294,215.880 238.262,199.600 238.262 C 183.320 238.262,176.699 238.294,184.887 238.333 M169.450 255.733 C 169.450 259.767,169.487 261.417,169.533 259.400 C 169.578 257.383,169.578 254.083,169.533 252.067 C 169.487 250.050,169.450 251.700,169.450 255.733 M184.887 263.667 C 193.075 263.706,206.395 263.706,214.487 263.667 C 222.579 263.627,215.880 263.595,199.600 263.595 C 183.320 263.595,176.699 263.627,184.887 263.667 M196.867 290.850 C 197.123 290.918,197.543 290.918,197.800 290.850 C 198.057 290.783,197.847 290.729,197.333 290.729 C 196.820 290.729,196.610 290.783,196.867 290.850 M200.867 290.850 C 201.123 290.918,201.543 290.918,201.800 290.850 C 202.057 290.783,201.847 290.729,201.333 290.729 C 200.820 290.729,200.610 290.783,200.867 290.850 M175.800 326.866 C 178.550 326.910,183.050 326.910,185.800 326.866 C 188.550 326.823,186.300 326.787,180.800 326.787 C 175.300 326.787,173.050 326.823,175.800 326.866 M215.000 326.866 C 217.750 326.910,222.250 326.910,225.000 326.866 C 227.750 326.823,225.500 326.787,220.000 326.787 C 214.500 326.787,212.250 326.823,215.000 326.866 " stroke="none" fill="#fc7160" fill-rule="evenodd"></path><path id="path4" d="M65.983 107.267 L 65.200 108.133 66.067 107.350 C 66.543 106.919,66.933 106.529,66.933 106.483 C 66.933 106.277,66.713 106.459,65.983 107.267 M233.322 208.600 C 233.976 209.297,234.546 209.867,234.589 209.867 C 234.789 209.867,234.577 209.627,233.400 208.522 L 232.133 207.333 233.322 208.600 M233.183 276.867 L 232.400 277.733 233.267 276.950 C 233.743 276.519,234.133 276.129,234.133 276.083 C 234.133 275.877,233.913 276.059,233.183 276.867 " stroke="none" fill="#fc9484" fill-rule="evenodd"></path></g></svg>