<svg id="svg" version="1.1" xmlns="http://www.w3.org/2000/svg" xmlns:xlink="http://www.w3.org/1999/xlink" width="400" height="400" viewBox="0, 0, 400,400"><g id="svgg"><path id="path0" d="M47.200 33.626 C 37.031 35.177,31.597 42.690,32.077 54.533 C 32.337 60.950,34.407 65.826,38.389 69.406 L 39.734 70.616 38.599 71.281 C 28.245 77.349,28.166 101.027,38.475 108.366 C 46.073 113.774,59.836 112.997,66.006 106.811 C 74.479 98.316,73.456 77.395,64.277 71.447 L 62.999 70.619 64.766 68.832 C 72.258 61.253,72.489 45.532,65.214 38.275 C 61.373 34.443,54.119 32.571,47.200 33.626 M139.067 34.256 C 138.333 34.469,137.660 34.648,137.571 34.655 C 136.901 34.703,134.887 37.013,134.355 38.342 C 133.612 40.198,133.259 54.709,133.885 57.676 C 134.776 61.901,137.065 63.600,141.867 63.600 C 147.462 63.600,149.331 61.597,149.769 55.133 L 149.945 52.533 147.239 52.533 L 144.533 52.533 144.533 55.213 C 144.533 59.338,143.200 60.825,140.626 59.568 C 138.967 58.758,138.895 58.259,138.987 48.272 C 139.080 38.172,139.164 37.867,141.867 37.867 C 143.977 37.867,144.533 38.788,144.533 42.279 L 144.533 44.800 147.239 44.800 L 149.945 44.800 149.770 42.306 C 149.293 35.521,145.230 32.465,139.067 34.256 M237.641 34.257 C 233.053 35.367,232.011 38.060,232.011 48.800 C 232.011 61.003,233.569 63.733,240.533 63.733 C 244.813 63.733,247.170 62.220,248.283 58.759 C 248.998 56.534,249.342 45.889,248.833 41.733 C 248.062 35.446,243.985 32.722,237.641 34.257 M100.533 48.800 L 100.533 63.467 105.011 63.467 C 111.994 63.467,113.944 62.732,115.535 59.503 L 116.400 57.747 116.491 49.873 C 116.660 35.301,115.726 34.143,103.800 34.135 L 100.533 34.133 100.533 48.800 M119.644 34.311 C 119.547 34.409,119.467 41.009,119.467 48.978 L 119.467 63.467 125.746 63.467 L 132.024 63.467 131.946 61.667 L 131.867 59.867 128.333 59.792 L 124.800 59.718 124.800 54.926 L 124.800 50.133 127.600 50.133 L 130.400 50.133 130.400 48.267 L 130.400 46.400 127.600 46.400 L 124.800 46.400 124.800 42.267 L 124.800 38.133 128.267 38.133 L 131.733 38.133 131.733 36.133 L 131.733 34.133 125.778 34.133 C 122.502 34.133,119.742 34.213,119.644 34.311 M152.533 48.800 L 152.533 63.467 158.667 63.467 L 164.800 63.467 164.800 61.600 L 164.800 59.733 161.333 59.733 L 157.867 59.733 157.867 54.933 L 157.867 50.133 160.533 50.133 L 163.200 50.133 163.200 48.267 L 163.200 46.400 160.533 46.400 L 157.867 46.400 157.867 42.267 L 157.867 38.133 161.333 38.133 L 164.800 38.133 164.800 36.133 L 164.800 34.133 158.667 34.133 L 152.533 34.133 152.533 48.800 M166.933 48.800 L 166.933 63.467 169.196 63.467 L 171.459 63.467 171.530 54.919 L 171.600 46.371 173.846 51.785 C 175.081 54.763,176.684 58.610,177.408 60.333 L 178.724 63.467 180.429 63.467 L 182.133 63.467 182.133 48.800 L 182.133 34.133 180.000 34.133 L 177.867 34.133 177.867 42.320 C 177.867 47.088,177.768 50.401,177.630 50.253 C 177.500 50.114,175.858 46.430,173.980 42.067 L 170.567 34.133 168.750 34.133 L 166.933 34.133 166.933 48.800 M183.649 34.307 C 183.549 34.407,183.467 35.309,183.467 36.311 L 183.467 38.133 186.000 38.133 L 188.533 38.133 188.533 50.800 L 188.533 63.467 191.200 63.467 L 193.867 63.467 193.867 50.800 L 193.867 38.133 196.278 38.133 L 198.690 38.133 198.612 36.200 L 198.533 34.267 191.182 34.196 C 187.139 34.157,183.749 34.207,183.649 34.307 M206.933 34.614 C 206.933 34.879,207.833 41.382,208.933 49.067 C 210.033 56.751,210.933 63.135,210.933 63.253 C 210.933 63.370,211.932 63.467,213.153 63.467 L 215.373 63.467 216.949 54.009 C 217.815 48.807,218.599 44.637,218.690 44.742 C 218.781 44.847,219.057 46.193,219.303 47.733 C 219.549 49.273,220.247 53.443,220.854 57.000 L 221.958 63.467 224.041 63.467 C 225.983 63.467,226.132 63.426,226.257 62.867 C 226.331 62.537,227.236 56.267,228.269 48.933 C 229.302 41.600,230.215 35.265,230.298 34.856 L 230.447 34.111 228.224 34.189 L 226.000 34.267 225.171 40.667 C 224.714 44.187,224.190 48.302,224.006 49.813 C 223.821 51.323,223.620 52.509,223.559 52.447 C 223.497 52.386,222.755 48.270,221.909 43.301 L 220.371 34.267 218.616 34.189 L 216.861 34.110 216.593 35.655 C 216.445 36.505,215.752 40.651,215.053 44.868 C 214.353 49.086,213.739 52.494,213.687 52.443 C 213.636 52.392,213.111 48.521,212.521 43.841 C 211.931 39.162,211.390 35.063,211.319 34.733 C 211.140 33.902,206.933 33.788,206.933 34.614 M252.000 48.800 L 252.000 63.467 254.667 63.467 L 257.333 63.467 257.333 56.800 L 257.333 50.133 258.475 50.133 L 259.618 50.133 261.342 56.798 L 263.067 63.463 265.667 63.465 C 267.097 63.466,268.269 63.377,268.272 63.267 C 268.275 63.157,267.414 59.981,266.358 56.210 L 264.438 49.353 265.668 48.208 C 267.546 46.459,268.291 43.572,267.727 40.228 C 266.925 35.475,264.197 34.141,255.267 34.135 L 252.000 34.133 252.000 48.800 M270.933 48.800 L 270.933 63.467 273.600 63.467 L 276.267 63.467 276.267 57.565 C 276.267 51.957,276.296 51.616,276.851 50.718 C 277.241 50.086,277.477 49.899,277.560 50.153 C 278.032 51.591,282.374 63.263,282.473 63.362 C 282.542 63.431,283.736 63.452,285.126 63.410 L 287.655 63.333 286.224 59.600 C 285.437 57.547,284.066 53.947,283.177 51.600 L 281.561 47.333 284.247 41.005 C 287.494 33.357,287.466 34.097,284.497 34.190 L 282.060 34.267 279.230 40.533 L 276.400 46.800 276.329 40.467 L 276.257 34.133 273.595 34.133 L 270.933 34.133 270.933 48.800 M301.575 34.191 C 301.562 34.232,300.211 40.807,298.573 48.800 L 295.595 63.333 297.975 63.411 C 300.798 63.502,300.575 63.748,301.207 59.856 L 301.704 56.800 304.319 56.800 C 305.757 56.800,306.934 56.890,306.935 57.000 C 306.936 57.110,307.175 58.580,307.467 60.267 C 307.758 61.953,307.997 63.363,307.998 63.400 C 307.999 63.437,309.080 63.467,310.400 63.467 C 312.511 63.467,312.799 63.411,312.791 63.000 C 312.786 62.743,311.488 56.173,309.907 48.400 L 307.032 34.267 304.316 34.191 C 302.822 34.149,301.589 34.149,301.575 34.191 M314.933 48.800 L 314.933 63.467 317.200 63.467 L 319.467 63.467 319.477 54.867 L 319.487 46.267 323.035 54.800 L 326.583 63.333 328.358 63.412 L 330.133 63.491 330.133 48.801 L 330.133 34.112 327.933 34.189 L 325.733 34.267 325.600 42.253 L 325.467 50.240 322.431 43.187 C 320.761 39.307,319.169 35.683,318.892 35.133 L 318.389 34.133 316.661 34.133 L 314.933 34.133 314.933 48.800 M333.600 48.760 L 333.600 63.467 338.077 63.467 C 345.061 63.467,347.011 62.732,348.602 59.502 L 349.467 57.746 349.554 49.558 C 349.702 35.536,348.984 34.542,338.467 34.208 L 333.600 34.054 333.600 48.760 M242.173 38.155 C 243.357 38.788,243.467 39.705,243.467 48.938 C 243.467 58.644,243.423 58.911,241.702 59.630 C 240.509 60.129,239.168 59.884,238.356 59.020 L 237.733 58.358 237.656 49.259 C 237.576 39.697,237.641 39.041,238.763 38.256 C 239.414 37.800,241.400 37.741,242.173 38.155 M260.775 38.215 C 262.326 38.759,262.801 39.702,262.791 42.220 C 262.776 45.543,261.787 46.664,258.867 46.666 L 257.333 46.667 257.333 42.267 L 257.333 37.867 258.600 37.882 C 259.297 37.890,260.275 38.040,260.775 38.215 M110.131 38.890 C 111.173 39.932,111.249 40.740,111.151 49.733 C 111.045 59.426,110.923 59.733,107.160 59.733 L 105.867 59.733 105.867 48.933 L 105.867 38.133 107.621 38.133 C 109.191 38.133,109.453 38.212,110.131 38.890 M343.198 38.890 C 344.242 39.935,344.320 40.755,344.220 49.733 C 344.111 59.426,343.989 59.733,340.227 59.733 L 338.933 59.733 338.933 48.933 L 338.933 38.133 340.687 38.133 C 342.258 38.133,342.520 38.212,343.198 38.890 M306.122 52.733 C 306.133 53.299,306.028 53.333,304.267 53.333 C 303.240 53.333,302.400 53.219,302.400 53.079 C 302.400 52.532,304.038 42.510,304.189 42.133 C 304.338 41.761,306.099 51.411,306.122 52.733 M54.051 45.221 C 57.174 47.603,57.685 58.763,54.863 62.951 C 52.805 66.004,48.848 65.671,47.220 62.308 C 45.455 58.662,45.300 50.382,46.937 47.201 C 48.410 44.339,51.696 43.424,54.051 45.221 M54.524 77.975 C 57.958 80.594,58.671 94.340,55.613 98.961 C 53.785 101.723,48.837 101.721,47.000 98.957 C 44.088 94.576,44.588 81.188,47.774 78.216 C 49.315 76.779,52.793 76.655,54.524 77.975 M120.995 81.863 C 115.664 82.816,114.800 84.880,114.800 96.667 C 114.800 108.474,115.723 110.549,121.377 111.452 C 127.402 112.415,130.527 109.674,130.862 103.133 L 131.009 100.267 128.468 100.267 L 125.927 100.267 125.824 103.056 C 125.679 106.960,124.318 108.482,121.876 107.471 C 120.187 106.771,120.133 106.439,120.133 96.667 C 120.133 86.157,120.282 85.600,123.097 85.600 C 125.118 85.600,125.863 86.910,125.865 90.467 L 125.867 92.533 128.435 92.533 L 131.003 92.533 130.877 89.800 C 130.589 83.586,127.089 80.775,120.995 81.863 M139.662 81.877 C 134.581 82.731,133.579 84.866,133.400 95.220 C 133.184 107.748,134.328 110.546,140.037 111.449 C 147.914 112.695,150.403 109.145,150.398 96.674 C 150.393 83.944,147.889 80.493,139.662 81.877 M178.096 81.858 C 175.059 82.405,173.295 84.006,172.357 87.067 C 171.226 90.761,171.728 105.333,173.078 108.000 C 175.698 113.172,185.339 112.811,187.709 107.452 C 189.574 103.234,189.151 87.659,187.090 84.625 C 185.526 82.324,181.827 81.186,178.096 81.858 M230.800 81.871 C 225.371 82.953,224.666 84.669,224.668 96.800 C 224.669 109.323,225.873 111.512,232.776 111.548 C 238.123 111.577,240.377 109.155,240.725 103.008 L 240.880 100.267 238.346 100.267 L 235.812 100.267 235.627 103.133 C 235.379 106.966,234.613 108.002,232.300 107.633 C 230.071 107.277,229.866 106.339,229.868 96.482 C 229.870 86.711,230.161 85.600,232.720 85.600 C 234.849 85.600,235.376 86.366,235.611 89.800 L 235.797 92.533 238.337 92.533 L 240.878 92.533 240.726 89.933 C 240.353 83.519,236.841 80.667,230.800 81.871 M257.600 81.872 C 252.332 82.793,251.333 85.173,251.333 96.800 C 251.333 105.131,251.579 106.766,253.186 109.111 C 255.255 112.132,261.481 112.491,263.292 109.694 C 264.046 108.530,264.219 108.570,264.318 109.933 L 264.400 111.067 266.200 111.146 L 268.000 111.224 268.000 103.879 L 268.000 96.533 264.000 96.533 L 260.000 96.533 260.000 98.120 L 260.000 99.707 261.533 99.787 L 263.067 99.867 263.046 102.267 C 263.012 106.122,262.072 107.736,259.867 107.728 C 257.007 107.718,256.801 106.968,256.800 96.574 C 256.800 86.166,256.952 85.600,259.759 85.600 C 261.847 85.600,262.662 86.854,262.665 90.067 L 262.667 91.733 265.237 91.733 L 267.807 91.733 267.674 89.388 C 267.337 83.489,263.733 80.800,257.600 81.872 M296.000 81.956 C 293.330 82.573,291.961 83.655,290.881 86.000 C 290.032 87.843,289.921 104.476,290.742 106.829 C 293.050 113.439,303.935 113.277,306.277 106.599 C 306.889 104.854,307.184 91.559,306.678 88.571 C 305.767 83.195,301.655 80.648,296.000 81.956 M100.533 96.667 L 100.533 111.200 106.667 111.200 L 112.800 111.200 112.800 109.333 L 112.800 107.467 109.333 107.467 L 105.867 107.467 105.867 102.667 L 105.867 97.867 108.533 97.867 L 111.200 97.867 111.200 96.000 L 111.200 94.133 108.533 94.133 L 105.867 94.133 105.867 90.000 L 105.867 85.867 109.333 85.867 L 112.800 85.867 112.800 84.000 L 112.800 82.133 106.667 82.133 L 100.533 82.133 100.533 96.667 M153.333 96.667 L 153.333 111.200 155.600 111.200 L 157.867 111.200 157.871 102.600 C 157.873 97.073,157.965 94.143,158.128 94.400 C 158.267 94.620,159.908 98.490,161.774 103.000 L 165.167 111.200 166.983 111.200 L 168.800 111.200 168.800 96.667 L 168.800 82.133 166.533 82.133 L 164.267 82.133 164.260 90.333 L 164.253 98.533 160.727 90.340 L 157.200 82.146 155.267 82.140 L 153.333 82.133 153.333 96.667 M192.165 93.267 C 192.075 99.390,191.955 105.930,191.898 107.800 L 191.795 111.200 193.898 111.200 L 196.000 111.200 196.035 104.467 C 196.054 100.763,196.144 96.374,196.235 94.713 L 196.400 91.692 198.221 100.446 C 199.223 105.261,200.157 109.650,200.298 110.200 L 200.554 111.200 202.095 111.200 L 203.636 111.200 205.605 101.707 C 206.840 95.755,207.647 92.399,207.769 92.707 C 207.875 92.978,207.972 96.260,207.983 100.000 C 207.994 103.740,208.080 107.790,208.174 109.000 L 208.346 111.200 210.319 111.200 L 212.292 111.200 212.144 106.200 C 212.063 103.450,211.923 96.910,211.834 91.667 L 211.671 82.133 209.054 82.133 C 206.793 82.133,206.417 82.197,206.294 82.600 C 206.215 82.857,205.305 87.073,204.271 91.971 C 202.172 101.915,202.108 102.197,201.974 102.063 C 201.876 101.965,197.867 82.719,197.867 82.345 C 197.867 82.229,196.621 82.133,195.098 82.133 L 192.329 82.133 192.165 93.267 M216.000 96.667 L 216.000 111.200 218.667 111.200 L 221.333 111.200 221.333 96.667 L 221.333 82.133 218.667 82.133 L 216.000 82.133 216.000 96.667 M271.200 96.667 L 271.200 111.200 273.867 111.200 L 276.533 111.200 276.533 104.533 L 276.533 97.867 277.728 97.867 C 278.811 97.867,278.940 97.936,279.103 98.600 C 279.869 101.734,282.359 110.982,282.465 111.088 C 282.538 111.161,283.734 111.186,285.122 111.143 L 287.646 111.067 285.661 104.008 L 283.675 96.949 284.304 96.544 C 286.364 95.221,287.067 93.452,287.067 89.593 C 287.066 83.702,284.708 82.133,275.854 82.133 L 271.200 82.133 271.200 96.667 M309.218 83.133 C 309.305 83.683,310.240 90.193,311.296 97.600 L 313.216 111.067 315.384 111.144 L 317.553 111.221 317.708 110.477 C 317.793 110.068,318.520 105.846,319.325 101.095 C 320.129 96.344,320.831 92.413,320.884 92.360 C 320.977 92.267,321.878 97.347,323.422 106.667 L 324.151 111.067 326.295 111.143 L 328.438 111.220 330.385 97.543 C 331.456 90.021,332.393 83.477,332.467 83.000 L 332.603 82.133 330.464 82.133 C 328.464 82.133,328.315 82.173,328.185 82.733 C 328.109 83.063,327.607 86.933,327.070 91.333 C 326.534 95.733,326.006 99.563,325.897 99.844 C 325.775 100.160,325.167 97.126,324.294 91.844 C 323.521 87.163,322.826 83.063,322.749 82.733 C 322.621 82.185,322.455 82.133,320.832 82.133 L 319.054 82.133 317.621 90.867 C 316.833 95.670,316.108 99.756,316.009 99.948 C 315.910 100.139,315.499 97.619,315.095 94.348 C 314.691 91.076,314.173 86.990,313.943 85.267 L 313.526 82.133 311.293 82.133 L 309.060 82.133 309.218 83.133 M333.333 84.000 L 333.333 85.867 335.733 85.867 L 338.133 85.867 338.133 98.533 L 338.133 111.200 340.800 111.200 L 343.467 111.200 343.467 98.533 L 343.467 85.867 345.867 85.867 L 348.267 85.867 348.267 84.000 L 348.267 82.133 340.800 82.133 L 333.333 82.133 333.333 84.000 M349.867 96.667 L 349.867 111.200 352.533 111.200 L 355.200 111.200 355.200 104.667 L 355.200 98.133 358.133 98.133 L 361.067 98.133 361.067 104.667 L 361.067 111.200 363.733 111.200 L 366.400 111.200 366.400 96.667 L 366.400 82.133 363.733 82.133 L 361.067 82.133 361.067 88.133 L 361.067 94.133 358.133 94.133 L 355.200 94.133 355.200 88.133 L 355.200 82.133 352.533 82.133 L 349.867 82.133 349.867 96.667 M143.470 86.002 C 144.746 86.661,144.841 87.497,144.749 97.261 L 144.667 106.122 143.927 106.861 C 142.864 107.924,140.869 107.924,139.806 106.861 L 139.067 106.122 138.990 97.008 C 138.935 90.469,139.001 87.679,139.227 87.136 C 139.810 85.727,141.873 85.176,143.470 86.002 M181.842 85.987 C 183.172 86.675,183.227 87.143,183.144 97.008 L 183.067 106.122 182.327 106.861 C 181.264 107.924,179.269 107.924,178.206 106.861 L 177.467 106.122 177.384 97.261 C 177.294 87.602,177.395 86.674,178.610 86.014 C 179.542 85.508,180.894 85.497,181.842 85.987 M280.726 86.281 C 281.639 86.879,282.133 88.238,282.133 90.151 C 282.133 93.187,280.999 94.400,278.159 94.400 L 276.533 94.400 276.533 89.961 L 276.533 85.523 278.303 85.688 C 279.277 85.779,280.367 86.046,280.726 86.281 M299.837 85.855 C 301.380 86.442,301.467 87.020,301.467 96.667 C 301.467 104.556,301.418 105.555,300.998 106.323 C 300.081 108.002,297.332 108.147,296.160 106.578 C 295.616 105.849,295.600 105.562,295.600 96.492 L 295.600 87.156 296.471 86.378 C 297.396 85.552,298.562 85.371,299.837 85.855 M277.200 151.970 C 268.400 153.974,261.050 155.707,260.867 155.822 C 260.015 156.356,260.620 157.248,264.461 161.119 L 268.388 165.078 232.861 200.605 L 197.334 236.132 180.703 219.503 C 167.537 206.338,163.968 202.908,163.570 203.035 C 162.858 203.261,101.333 264.853,101.333 265.339 C 101.333 265.859,110.682 275.200,111.202 275.200 C 111.420 275.200,123.329 263.471,137.665 249.135 L 163.731 223.070 180.337 239.668 C 189.471 248.797,197.120 256.267,197.336 256.267 C 197.552 256.267,215.940 238.058,238.197 215.802 L 278.664 175.338 282.466 179.100 C 284.556 181.169,286.465 182.930,286.707 183.013 C 287.814 183.391,287.955 182.900,291.476 166.523 C 293.366 157.729,294.979 150.265,295.061 149.937 C 295.233 149.241,294.391 148.250,293.667 148.296 C 293.410 148.313,286.000 149.966,277.200 151.970 M277.733 195.885 C 276.076 196.727,234.588 236.558,233.867 238.000 L 233.200 239.333 233.200 295.556 L 233.200 351.779 233.948 352.423 L 234.696 353.067 256.667 353.067 L 278.637 353.067 279.385 352.423 L 280.133 351.780 280.209 275.023 C 280.251 232.807,280.214 197.870,280.128 197.385 C 279.838 195.763,279.003 195.240,277.733 195.885 M157.926 248.072 C 156.940 249.011,147.373 258.106,136.667 268.283 C 125.960 278.460,116.929 287.109,116.597 287.502 C 115.148 289.221,115.200 287.978,115.200 321.112 L 115.200 351.758 115.855 352.412 L 116.509 353.067 138.499 353.067 C 162.045 353.067,161.160 353.108,161.743 351.981 C 162.285 350.934,162.331 248.274,161.790 247.200 C 161.121 245.870,159.963 246.131,157.926 248.072 M208.259 263.878 C 201.137 270.992,197.304 274.639,197.051 274.541 C 196.839 274.460,192.423 270.071,187.237 264.788 C 177.521 254.891,176.656 254.137,175.577 254.628 C 174.623 255.063,174.643 253.872,174.724 304.357 L 174.800 352.047 175.430 352.557 C 176.413 353.354,219.853 353.354,220.837 352.557 L 221.467 352.047 221.535 303.180 C 221.612 249.116,221.738 253.067,219.935 253.067 C 219.167 253.067,217.997 254.150,208.259 263.878 " stroke="none" fill="#fbfafa" fill-rule="evenodd"></path><path id="path1" d="M0.000 200.000 L 0.000 400.000 200.000 400.000 L 400.000 400.000 400.000 200.000 L 400.000 0.000 200.000 0.000 L 0.000 0.000 0.000 200.000 M56.745 33.749 C 65.995 35.622,71.274 43.666,70.558 54.800 C 70.155 61.064,68.423 65.375,64.875 68.950 L 63.216 70.621 64.550 71.477 C 74.407 77.802,74.403 101.113,64.544 108.371 C 57.152 113.813,42.937 113.147,36.681 107.066 C 27.916 98.548,28.923 76.795,38.338 71.278 L 39.529 70.580 38.447 69.681 C 29.218 62.014,29.684 42.995,39.262 36.492 C 43.463 33.639,50.638 32.513,56.745 33.749 M145.257 34.294 C 148.431 35.357,149.641 37.412,149.818 42.040 L 149.934 45.067 147.234 45.067 L 144.533 45.067 144.532 42.867 C 144.529 38.767,143.497 37.374,141.014 38.117 C 139.213 38.657,139.109 39.125,138.991 47.200 C 138.833 57.997,139.225 59.733,141.822 59.733 C 143.890 59.733,144.529 58.522,144.532 54.600 L 144.533 52.267 147.200 52.267 L 149.867 52.267 149.867 54.611 C 149.867 60.929,147.429 63.849,142.142 63.861 C 137.833 63.871,135.413 62.425,134.121 59.067 C 132.804 55.642,133.076 40.849,134.514 37.703 C 135.994 34.464,141.012 32.872,145.257 34.294 M243.955 34.278 C 246.491 35.031,248.153 37.136,248.797 40.409 C 249.381 43.378,249.042 57.422,248.344 59.149 C 245.559 66.047,234.621 65.652,232.470 58.575 C 232.000 57.028,231.994 40.590,232.463 39.051 C 233.768 34.769,238.705 32.719,243.955 34.278 M110.720 34.433 C 115.970 35.546,116.667 37.212,116.667 48.667 C 116.667 62.290,115.700 63.548,105.200 63.584 L 100.400 63.600 100.331 48.867 L 100.262 34.133 104.785 34.133 C 107.272 34.133,109.943 34.268,110.720 34.433 M132.000 36.133 L 132.000 38.133 128.533 38.133 L 125.067 38.133 125.067 42.267 L 125.067 46.400 127.733 46.400 L 130.400 46.400 130.400 48.400 L 130.400 50.400 127.733 50.400 L 125.067 50.400 125.067 55.067 L 125.067 59.733 128.533 59.733 L 132.000 59.733 132.000 61.733 L 132.000 63.733 125.733 63.733 L 119.467 63.733 119.467 48.933 L 119.467 34.133 125.733 34.133 L 132.000 34.133 132.000 36.133 M164.800 36.133 L 164.800 38.133 161.333 38.133 L 157.867 38.133 157.867 42.267 L 157.867 46.400 160.678 46.400 L 163.490 46.400 163.412 48.333 L 163.333 50.267 160.600 50.343 L 157.867 50.419 157.867 55.076 L 157.867 59.733 161.478 59.733 L 165.090 59.733 165.012 61.667 L 164.933 63.600 158.667 63.600 L 152.400 63.600 152.331 48.867 L 152.262 34.133 158.531 34.133 L 164.800 34.133 164.800 36.133 M174.118 42.027 L 177.467 49.786 177.537 41.960 L 177.608 34.133 180.006 34.133 L 182.405 34.133 182.336 48.867 L 182.267 63.600 180.436 63.600 L 178.605 63.600 175.236 55.467 L 171.867 47.333 171.733 55.467 L 171.600 63.600 169.267 63.677 L 166.933 63.754 166.933 48.932 L 166.933 34.110 168.852 34.188 L 170.770 34.267 174.118 42.027 M198.667 36.267 L 198.667 38.400 196.267 38.400 L 193.867 38.400 193.867 51.076 L 193.867 63.752 191.133 63.676 L 188.400 63.600 188.331 51.000 L 188.261 38.400 185.864 38.400 L 183.467 38.400 183.467 36.267 L 183.467 34.133 191.067 34.133 L 198.667 34.133 198.667 36.267 M211.467 34.405 C 211.467 34.554,211.947 38.421,212.533 42.999 C 213.120 47.577,213.613 51.505,213.629 51.728 C 213.644 51.951,214.338 48.113,215.170 43.200 L 216.682 34.267 218.608 34.188 C 219.667 34.145,220.533 34.174,220.533 34.253 C 220.533 34.331,221.193 38.267,221.999 42.998 C 222.806 47.729,223.478 51.720,223.494 51.867 C 223.516 52.075,225.791 35.155,225.852 34.333 C 225.891 33.802,230.400 34.122,230.400 34.657 C 230.400 35.304,226.425 62.939,226.265 63.400 C 226.066 63.976,221.937 63.853,221.770 63.267 C 221.698 63.010,221.022 59.020,220.269 54.400 C 219.516 49.780,218.831 45.820,218.745 45.600 C 218.660 45.380,217.954 48.980,217.176 53.600 C 216.397 58.220,215.689 62.390,215.602 62.867 L 215.442 63.733 213.193 63.733 C 211.078 63.733,210.936 63.698,210.810 63.133 C 210.736 62.803,209.829 56.533,208.794 49.200 C 207.759 41.867,206.844 35.477,206.760 35.000 L 206.607 34.133 209.037 34.133 C 210.506 34.133,211.467 34.241,211.467 34.405 M262.187 34.433 C 266.410 35.328,268.221 38.001,267.936 42.919 C 267.753 46.070,266.553 48.337,264.606 49.206 C 264.572 49.220,265.441 52.405,266.536 56.283 C 267.631 60.161,268.529 63.423,268.530 63.533 C 268.535 63.857,263.255 63.771,263.053 63.444 C 262.955 63.285,262.127 60.315,261.214 56.844 L 259.554 50.533 258.443 50.451 L 257.333 50.369 257.333 57.061 L 257.333 63.752 254.600 63.676 L 251.867 63.600 251.798 48.867 L 251.729 34.133 256.251 34.133 C 258.739 34.133,261.410 34.268,262.187 34.433 M276.595 40.021 L 276.667 45.909 279.324 40.021 L 281.982 34.133 284.591 34.133 C 286.026 34.133,287.200 34.202,287.200 34.286 C 287.200 34.369,285.982 37.279,284.492 40.752 C 283.003 44.225,281.785 47.187,281.785 47.333 C 281.785 47.480,283.123 51.102,284.759 55.382 C 286.395 59.661,287.733 63.296,287.733 63.458 C 287.733 63.658,286.871 63.728,285.032 63.676 L 282.330 63.600 279.934 57.067 C 276.681 48.196,276.725 48.194,276.533 57.279 L 276.400 63.600 273.667 63.676 L 270.933 63.752 270.933 48.943 L 270.933 34.133 273.728 34.133 L 276.523 34.133 276.595 40.021 M307.200 34.249 C 307.200 34.312,308.520 40.871,310.133 48.824 C 311.747 56.777,313.067 63.390,313.067 63.519 C 313.067 63.647,311.903 63.718,310.481 63.676 L 307.895 63.600 307.296 60.267 C 306.967 58.433,306.690 56.903,306.682 56.867 C 306.674 56.830,305.592 56.800,304.279 56.800 L 301.891 56.800 301.715 57.800 C 301.618 58.350,301.341 59.880,301.100 61.200 L 300.660 63.600 298.064 63.676 C 296.575 63.720,295.467 63.646,295.467 63.503 C 295.467 63.366,296.787 56.750,298.400 48.800 C 300.013 40.850,301.333 34.298,301.333 34.240 C 301.333 34.181,302.653 34.133,304.267 34.133 C 305.880 34.133,307.200 34.185,307.200 34.249 M322.089 42.086 L 325.467 49.904 325.537 42.019 L 325.608 34.133 328.006 34.133 L 330.405 34.133 330.336 48.867 L 330.267 63.600 328.414 63.600 L 326.561 63.600 323.081 55.218 L 319.600 46.836 319.530 55.295 L 319.459 63.754 317.130 63.677 L 314.800 63.600 314.731 48.855 L 314.662 34.111 316.687 34.189 L 318.712 34.267 322.089 42.086 M343.787 34.433 C 348.763 35.488,349.615 37.279,349.799 47.067 C 350.075 61.818,348.867 63.548,338.267 63.584 L 333.467 63.600 333.398 48.867 L 333.329 34.133 337.851 34.133 C 340.339 34.133,343.010 34.268,343.787 34.433 M239.491 38.091 C 237.782 38.591,237.733 38.880,237.733 48.619 C 237.733 59.355,237.833 59.733,240.664 59.733 C 243.148 59.733,243.454 58.533,243.454 48.800 C 243.454 38.462,242.943 37.082,239.491 38.091 M105.867 48.935 L 105.867 59.809 107.479 59.641 C 110.977 59.275,110.933 59.415,110.933 48.684 L 110.933 40.008 110.192 39.178 C 109.537 38.446,109.238 38.331,107.658 38.204 L 105.867 38.060 105.867 48.935 M257.333 42.407 L 257.333 46.741 258.974 46.592 C 261.889 46.328,262.725 45.257,262.610 41.939 C 262.506 38.960,261.938 38.333,259.203 38.179 L 257.333 38.073 257.333 42.407 M338.933 48.931 L 338.933 59.802 340.587 59.615 C 344.063 59.222,344.000 59.423,344.000 48.684 L 344.000 40.008 343.258 39.178 C 342.604 38.446,342.304 38.331,340.725 38.204 L 338.933 38.060 338.933 48.931 M304.272 42.667 C 304.239 42.740,303.828 45.110,303.358 47.933 L 302.503 53.067 304.311 53.067 L 306.120 53.067 305.978 52.333 C 305.900 51.930,305.498 49.560,305.083 47.067 C 304.669 44.573,304.304 42.593,304.272 42.667 M49.106 44.971 C 44.113 47.514,45.056 63.638,50.267 64.807 C 54.447 65.744,56.840 61.020,56.467 52.568 C 56.181 46.090,53.118 42.928,49.106 44.971 M49.432 77.357 C 46.591 78.180,45.467 81.501,45.467 89.067 C 45.467 97.966,46.848 100.815,51.171 100.835 C 55.605 100.857,57.329 97.563,57.330 89.067 C 57.331 79.704,54.715 75.825,49.432 77.357 M126.236 81.978 C 129.462 82.948,130.727 85.044,130.884 89.677 L 130.990 92.820 128.362 92.743 L 125.733 92.667 125.600 89.827 C 125.431 86.232,125.144 85.805,122.975 85.922 C 120.399 86.060,120.415 86.002,120.318 95.686 C 120.206 106.775,120.364 107.472,122.988 107.463 C 125.122 107.455,125.600 106.639,125.600 103.007 L 125.600 100.267 128.267 100.267 L 130.933 100.267 130.933 102.891 C 130.933 109.105,128.677 111.602,123.067 111.598 C 118.641 111.595,116.312 110.072,115.194 106.450 C 113.808 101.964,114.553 86.956,116.287 84.425 C 117.951 81.997,122.544 80.866,126.236 81.978 M145.901 82.227 C 149.805 83.922,150.486 86.278,150.346 97.601 C 150.200 109.467,148.908 111.600,141.867 111.600 C 134.498 111.600,133.229 109.205,133.386 95.600 C 133.512 84.693,134.208 83.074,139.333 81.765 C 140.412 81.490,144.936 81.807,145.901 82.227 M184.627 82.381 C 188.251 84.135,188.667 85.620,188.667 96.800 L 188.667 105.733 187.909 107.374 C 186.440 110.553,184.546 111.600,180.267 111.600 C 175.761 111.600,173.628 110.248,172.348 106.581 C 171.628 104.515,171.623 88.565,172.342 86.504 C 173.837 82.223,180.017 80.149,184.627 82.381 M237.265 82.496 C 239.727 83.748,240.800 86.121,240.800 90.309 L 240.800 92.800 238.133 92.800 L 235.467 92.800 235.467 90.440 C 235.467 86.676,234.983 85.867,232.731 85.867 C 231.817 85.867,231.418 86.018,230.913 86.555 L 230.267 87.243 230.267 96.711 L 230.267 106.180 231.015 106.823 C 233.404 108.878,235.295 107.314,235.424 103.179 L 235.514 100.267 238.186 100.267 L 240.858 100.267 240.748 103.267 C 240.523 109.454,237.877 112.037,232.147 111.661 C 225.756 111.243,224.283 108.434,224.283 96.667 C 224.283 86.191,225.206 83.589,229.461 82.063 C 231.514 81.327,235.392 81.542,237.265 82.496 M264.133 82.462 C 266.711 83.778,267.941 86.500,267.992 91.000 L 268.000 91.733 265.227 91.733 L 262.453 91.733 262.360 89.310 C 262.248 86.391,261.847 85.867,259.733 85.867 C 257.001 85.867,256.815 86.533,256.806 96.320 C 256.798 106.350,257.104 107.467,259.867 107.467 C 262.082 107.467,262.933 106.000,262.933 102.182 L 262.933 100.027 261.400 99.947 L 259.867 99.867 259.867 98.133 L 259.867 96.400 263.933 96.326 L 268.000 96.253 268.000 103.872 L 268.000 111.491 266.208 111.412 L 264.415 111.333 264.202 110.251 L 263.989 109.169 262.804 110.304 C 259.803 113.180,254.074 111.778,252.303 107.733 C 250.919 104.573,250.693 89.557,251.980 86.267 C 253.638 82.027,259.616 80.155,264.133 82.462 M301.834 82.015 C 306.162 83.300,306.926 85.503,306.930 96.705 C 306.934 105.839,306.724 107.169,304.951 109.240 C 302.035 112.647,294.253 112.503,291.711 108.994 C 289.496 105.935,288.982 89.473,290.978 85.494 C 292.651 82.159,297.301 80.669,301.834 82.015 M112.800 83.867 L 112.800 85.867 109.333 85.867 L 105.867 85.867 105.867 90.000 L 105.867 94.133 108.667 94.133 L 111.467 94.133 111.467 96.133 L 111.467 98.133 108.667 98.133 L 105.867 98.133 105.867 102.800 L 105.867 107.467 109.478 107.467 L 113.090 107.467 113.012 109.400 L 112.933 111.333 106.667 111.333 L 100.400 111.333 100.331 96.933 C 100.293 89.013,100.319 82.383,100.389 82.200 C 100.486 81.947,101.991 81.867,106.658 81.867 L 112.800 81.867 112.800 83.867 M160.667 89.916 L 164.133 97.966 164.204 89.916 L 164.274 81.867 166.537 81.867 L 168.800 81.867 168.800 96.667 L 168.800 111.467 166.973 111.467 L 165.145 111.467 161.706 103.185 L 158.267 94.903 158.133 103.118 L 158.000 111.333 155.667 111.410 L 153.333 111.487 153.333 96.677 L 153.333 81.867 155.267 81.867 L 157.200 81.867 160.667 89.916 M197.963 82.333 C 198.036 82.590,198.951 87.000,199.997 92.133 C 201.042 97.267,201.925 101.570,201.959 101.696 C 201.992 101.823,202.955 97.506,204.098 92.103 C 205.241 86.700,206.234 82.187,206.304 82.073 C 206.374 81.960,207.615 81.867,209.061 81.867 L 211.691 81.867 211.839 83.533 C 211.920 84.450,212.062 91.115,212.155 98.345 L 212.323 111.490 210.228 111.412 L 208.133 111.333 207.968 105.333 C 207.877 102.033,207.776 97.833,207.744 96.000 L 207.686 92.667 205.986 100.667 C 205.052 105.067,204.152 109.302,203.988 110.079 L 203.690 111.491 202.045 111.412 L 200.400 111.333 198.752 103.600 C 197.846 99.347,196.927 95.087,196.711 94.133 L 196.319 92.400 196.293 97.491 C 196.278 100.291,196.188 104.581,196.091 107.024 L 195.916 111.467 193.803 111.467 L 191.691 111.467 191.852 99.667 C 191.940 93.177,192.082 86.517,192.166 84.867 L 192.319 81.867 195.075 81.867 C 197.471 81.867,197.848 81.928,197.963 82.333 M221.333 96.676 L 221.333 111.485 218.600 111.409 L 215.867 111.333 215.797 96.933 C 215.759 89.013,215.785 82.383,215.856 82.200 C 215.946 81.964,216.764 81.867,218.658 81.867 L 221.333 81.867 221.333 96.676 M283.016 82.650 C 288.010 84.584,289.024 93.748,284.546 96.489 L 283.821 96.933 285.776 103.867 C 286.852 107.680,287.732 110.954,287.732 111.143 C 287.733 111.404,287.088 111.467,285.000 111.409 L 282.267 111.333 280.545 104.733 L 278.824 98.133 277.679 98.133 L 276.533 98.133 276.533 104.800 L 276.533 111.467 273.867 111.467 L 271.200 111.467 271.200 96.635 L 271.200 81.803 276.333 81.927 C 280.839 82.035,281.656 82.124,283.016 82.650 M313.692 82.333 C 313.762 82.590,314.274 86.490,314.830 91.000 C 315.386 95.510,315.918 99.110,316.013 99.000 C 316.109 98.890,316.751 95.320,317.440 91.067 C 318.129 86.813,318.758 82.998,318.837 82.589 C 318.980 81.848,318.990 81.845,320.878 81.922 L 322.775 82.000 324.247 90.762 C 325.298 97.017,325.773 99.306,325.908 98.762 C 326.011 98.343,326.536 94.460,327.074 90.133 C 328.231 80.833,327.794 81.867,330.570 81.867 L 332.842 81.867 332.695 82.600 C 332.614 83.003,331.701 89.333,330.667 96.667 C 329.632 104.000,328.719 110.330,328.638 110.733 C 328.493 111.459,328.468 111.467,326.395 111.467 C 323.819 111.467,324.303 112.652,322.481 101.884 C 321.630 96.852,320.884 92.960,320.824 93.235 C 320.763 93.509,320.043 97.693,319.224 102.533 L 317.733 111.333 315.625 111.412 C 314.466 111.455,313.416 111.389,313.292 111.265 C 313.076 111.049,309.067 83.739,309.067 82.481 C 309.067 81.648,313.466 81.508,313.692 82.333 M348.267 84.000 L 348.267 86.133 345.867 86.133 L 343.467 86.133 343.467 98.809 L 343.467 111.485 340.733 111.409 L 338.000 111.333 337.931 98.733 L 337.861 86.133 335.464 86.133 L 333.067 86.133 333.067 84.000 L 333.067 81.867 340.667 81.867 L 348.267 81.867 348.267 84.000 M355.200 88.000 L 355.200 94.133 358.133 94.133 L 361.067 94.133 361.067 87.991 L 361.067 81.848 363.800 81.924 L 366.533 82.000 366.533 96.667 L 366.533 111.333 363.800 111.409 L 361.067 111.485 361.067 104.809 L 361.067 98.133 358.133 98.133 L 355.200 98.133 355.200 104.809 L 355.200 111.485 352.467 111.409 L 349.733 111.333 349.664 96.933 C 349.626 89.013,349.652 82.383,349.722 82.200 C 349.813 81.964,350.631 81.867,352.525 81.867 L 355.200 81.867 355.200 88.000 M140.070 86.275 C 139.079 86.968,138.936 88.279,138.936 96.667 C 138.936 106.879,139.096 107.467,141.876 107.467 C 144.562 107.467,144.798 106.592,144.792 96.667 C 144.787 88.483,144.641 87.082,143.717 86.333 C 142.992 85.746,140.873 85.712,140.070 86.275 M178.278 86.498 C 177.387 87.388,177.278 88.755,177.379 97.733 C 177.484 107.025,177.608 107.439,180.274 107.458 C 183.032 107.478,183.197 106.869,183.197 96.667 C 183.197 88.279,183.054 86.968,182.064 86.275 C 181.126 85.618,179.035 85.741,178.278 86.498 M276.533 90.133 L 276.533 94.400 277.800 94.385 C 280.804 94.349,281.961 93.180,281.986 90.153 C 282.012 86.980,280.983 85.867,278.026 85.867 L 276.533 85.867 276.533 90.133 M296.861 86.039 C 295.033 86.807,294.751 104.926,296.540 106.714 C 298.111 108.285,300.797 107.468,301.196 105.296 C 301.669 102.727,301.213 87.522,300.640 86.752 C 300.085 86.008,297.912 85.598,296.861 86.039 M295.032 148.857 C 295.336 149.342,288.483 182.176,287.933 182.867 C 287.283 183.684,286.487 183.147,282.602 179.268 L 278.664 175.337 238.198 215.802 C 215.942 238.057,197.544 256.267,197.313 256.267 C 197.083 256.267,189.464 248.826,180.383 239.731 L 163.872 223.196 137.735 249.331 C 123.360 263.706,111.420 275.467,111.202 275.467 C 110.583 275.467,101.333 266.098,101.333 265.470 C 101.333 264.730,163.125 202.933,163.865 202.933 C 164.215 202.933,170.074 208.608,180.866 219.399 L 197.334 235.865 232.799 200.401 L 268.264 164.937 264.399 161.065 C 260.421 157.081,259.803 156.088,261.000 155.600 C 262.290 155.075,292.812 148.310,293.706 148.352 C 294.358 148.382,294.852 148.570,295.032 148.857 M279.360 195.671 C 279.521 195.779,279.791 196.129,279.960 196.449 C 280.373 197.233,280.404 351.244,279.992 352.015 C 279.272 353.360,279.741 353.333,256.613 353.332 C 232.819 353.331,233.616 353.388,233.200 351.675 C 232.693 349.588,233.212 238.776,233.733 237.763 C 234.231 236.795,275.583 197.106,277.313 195.935 C 278.034 195.447,278.865 195.340,279.360 195.671 M161.581 246.647 C 162.425 247.492,162.426 247.549,162.345 300.594 L 162.267 351.721 161.527 352.461 L 160.788 353.200 138.994 353.271 C 123.484 353.322,116.994 353.257,116.485 353.047 C 114.840 352.365,114.913 353.964,114.993 320.479 L 115.067 290.000 115.636 288.769 C 116.172 287.609,157.273 248.039,159.434 246.602 C 160.341 245.999,160.945 246.012,161.581 246.647 M221.052 253.318 C 221.896 254.162,221.889 253.694,221.810 303.661 L 221.733 351.721 220.994 352.461 L 220.255 353.200 198.270 353.271 L 176.285 353.342 175.409 352.560 L 174.533 351.777 174.464 304.183 C 174.390 252.695,174.339 254.617,175.782 254.451 C 177.075 254.301,177.933 255.062,187.447 264.780 C 192.627 270.071,197.049 274.400,197.275 274.400 C 197.501 274.400,202.136 269.880,207.576 264.355 C 219.436 252.310,219.770 252.037,221.052 253.318 " stroke="none" fill="#a41c44" fill-rule="evenodd"></path><path id="path2" d="M177.541 42.292 C 177.500 46.633,177.557 50.240,177.667 50.308 C 177.777 50.376,177.867 46.824,177.867 42.416 C 177.867 38.007,177.810 34.400,177.741 34.400 C 177.672 34.400,177.582 37.952,177.541 42.292 M251.858 48.933 C 251.858 57.000,251.892 60.338,251.933 56.352 C 251.975 52.366,251.975 45.766,251.933 41.686 C 251.892 37.605,251.858 40.867,251.858 48.933 M124.908 42.267 C 124.908 44.613,124.949 45.538,124.999 44.321 C 125.048 43.104,125.048 41.184,124.998 40.054 C 124.948 38.924,124.908 39.920,124.908 42.267 M133.445 48.933 C 133.445 51.867,133.484 53.103,133.532 51.681 C 133.580 50.259,133.580 47.859,133.532 46.348 C 133.485 44.836,133.446 46.000,133.445 48.933 M145.933 44.996 C 146.630 45.051,147.770 45.051,148.467 44.996 C 149.163 44.941,148.593 44.896,147.200 44.896 C 145.807 44.896,145.237 44.941,145.933 44.996 M163.290 48.267 C 163.290 49.367,163.337 49.817,163.394 49.267 C 163.452 48.717,163.452 47.817,163.394 47.267 C 163.337 46.717,163.290 47.167,163.290 48.267 M124.911 54.933 C 124.911 57.647,124.950 58.757,124.999 57.400 C 125.047 56.043,125.047 53.823,124.999 52.467 C 124.950 51.110,124.911 52.220,124.911 54.933 M56.613 53.600 C 56.613 54.407,56.663 54.737,56.724 54.333 C 56.785 53.930,56.785 53.270,56.724 52.867 C 56.663 52.463,56.613 52.793,56.613 53.600 M70.462 53.067 C 70.462 53.580,70.517 53.790,70.584 53.533 C 70.651 53.277,70.651 52.857,70.584 52.600 C 70.517 52.343,70.462 52.553,70.462 53.067 M303.267 53.261 C 303.817 53.318,304.717 53.318,305.267 53.261 C 305.817 53.203,305.367 53.156,304.267 53.156 C 303.167 53.156,302.717 53.203,303.267 53.261 M141.267 63.922 C 141.597 63.985,142.137 63.985,142.467 63.922 C 142.797 63.858,142.527 63.806,141.867 63.806 C 141.207 63.806,140.937 63.858,141.267 63.922 M239.933 63.922 C 240.263 63.985,240.803 63.985,241.133 63.922 C 241.463 63.858,241.193 63.806,240.533 63.806 C 239.873 63.806,239.603 63.858,239.933 63.922 M103.533 82.066 C 105.257 82.112,108.077 82.112,109.800 82.066 C 111.523 82.019,110.113 81.981,106.667 81.981 C 103.220 81.981,101.810 82.019,103.533 82.066 M154.327 82.059 C 154.801 82.118,155.641 82.119,156.194 82.061 C 156.747 82.004,156.360 81.955,155.333 81.954 C 154.307 81.953,153.854 82.000,154.327 82.059 M165.267 82.062 C 165.890 82.118,166.910 82.118,167.533 82.062 C 168.157 82.006,167.647 81.960,166.400 81.960 C 165.153 81.960,164.643 82.006,165.267 82.062 M193.533 82.063 C 194.303 82.117,195.563 82.117,196.333 82.063 C 197.103 82.009,196.473 81.965,194.933 81.965 C 193.393 81.965,192.763 82.009,193.533 82.063 M206.311 82.044 C 206.213 82.142,206.135 82.352,206.137 82.511 C 206.140 82.690,206.220 82.677,206.347 82.477 C 206.478 82.270,207.507 82.122,209.209 82.066 L 211.867 81.978 209.178 81.922 C 207.699 81.892,206.409 81.947,206.311 82.044 M217.276 82.064 C 218.051 82.118,219.251 82.117,219.942 82.062 C 220.634 82.008,220.000 81.963,218.533 81.964 C 217.067 81.965,216.501 82.010,217.276 82.064 M273.133 82.065 C 274.270 82.115,276.130 82.115,277.267 82.065 C 278.403 82.015,277.473 81.974,275.200 81.974 C 272.927 81.974,271.997 82.015,273.133 82.065 M310.208 82.063 C 310.909 82.118,311.989 82.117,312.608 82.062 C 313.227 82.006,312.653 81.961,311.333 81.961 C 310.013 81.962,309.507 82.008,310.208 82.063 M319.927 82.059 C 320.401 82.118,321.241 82.119,321.794 82.061 C 322.347 82.004,321.960 81.955,320.933 81.954 C 319.907 81.953,319.454 82.000,319.927 82.059 M329.267 82.062 C 329.890 82.118,330.910 82.118,331.533 82.062 C 332.157 82.006,331.647 81.960,330.400 81.960 C 329.153 81.960,328.643 82.006,329.267 82.062 M333.178 82.228 C 333.102 82.427,333.075 83.357,333.120 84.295 L 333.200 86.000 335.600 86.015 L 338.000 86.030 335.667 85.938 L 333.333 85.847 333.333 83.994 L 333.333 82.142 340.733 82.066 L 348.133 81.991 340.725 81.929 C 334.694 81.878,333.291 81.934,333.178 82.228 M351.133 82.063 C 351.903 82.117,353.163 82.117,353.933 82.063 C 354.703 82.009,354.073 81.965,352.533 81.965 C 350.993 81.965,350.363 82.009,351.133 82.063 M362.333 82.063 C 363.103 82.117,364.363 82.117,365.133 82.063 C 365.903 82.009,365.273 81.965,363.733 81.965 C 362.193 81.965,361.563 82.009,362.333 82.063 M277.137 85.791 C 277.542 85.853,278.142 85.851,278.470 85.788 C 278.798 85.724,278.467 85.674,277.733 85.676 C 277.000 85.678,276.732 85.730,277.137 85.791 M344.608 86.063 C 345.309 86.118,346.389 86.117,347.008 86.062 C 347.627 86.006,347.053 85.961,345.733 85.961 C 344.413 85.962,343.907 86.008,344.608 86.063 M30.760 88.800 C 30.760 90.047,30.806 90.557,30.862 89.933 C 30.918 89.310,30.918 88.290,30.862 87.667 C 30.806 87.043,30.760 87.553,30.760 88.800 M57.401 87.600 C 57.404 88.187,57.458 88.395,57.522 88.064 C 57.586 87.732,57.583 87.252,57.517 86.997 C 57.450 86.742,57.398 87.013,57.401 87.600 M211.825 89.467 C 211.826 90.640,211.873 91.087,211.929 90.460 C 211.985 89.832,211.984 88.872,211.927 88.326 C 211.870 87.780,211.824 88.293,211.825 89.467 M125.662 88.800 C 125.662 89.313,125.717 89.523,125.784 89.267 C 125.851 89.010,125.851 88.590,125.784 88.333 C 125.717 88.077,125.662 88.287,125.662 88.800 M120.117 96.533 C 120.117 100.713,120.154 102.423,120.199 100.333 C 120.244 98.243,120.244 94.823,120.199 92.733 C 120.154 90.643,120.117 92.353,120.117 96.533 M192.091 91.067 C 192.092 92.240,192.139 92.687,192.196 92.060 C 192.252 91.432,192.251 90.472,192.194 89.926 C 192.137 89.380,192.090 89.893,192.091 91.067 M301.451 96.533 C 301.451 100.713,301.488 102.423,301.533 100.333 C 301.578 98.243,301.578 94.823,301.533 92.733 C 301.488 90.643,301.451 92.353,301.451 96.533 M235.578 91.132 L 235.600 92.667 238.201 92.682 L 240.801 92.697 238.280 92.606 L 235.759 92.514 235.658 91.056 L 235.556 89.597 235.578 91.132 M57.401 90.800 C 57.404 91.387,57.458 91.595,57.522 91.264 C 57.586 90.932,57.583 90.452,57.517 90.197 C 57.450 89.942,57.398 90.213,57.401 90.800 M289.982 96.533 C 289.982 100.127,290.020 101.597,290.066 99.800 C 290.112 98.003,290.112 95.063,290.066 93.267 C 290.020 91.470,289.982 92.940,289.982 96.533 M127.142 92.730 C 127.917 92.784,129.117 92.784,129.809 92.729 C 130.501 92.674,129.867 92.630,128.400 92.631 C 126.933 92.631,126.367 92.676,127.142 92.730 M207.825 95.067 C 207.826 96.240,207.873 96.687,207.929 96.060 C 207.985 95.432,207.984 94.472,207.927 93.926 C 207.870 93.380,207.824 93.893,207.825 95.067 M111.251 95.924 L 111.200 97.848 108.467 97.934 L 105.733 98.021 108.475 98.077 C 111.632 98.142,111.539 98.217,111.398 95.705 L 111.303 94.000 111.251 95.924 M157.986 102.667 C 157.986 107.433,158.022 109.383,158.066 107.000 C 158.110 104.617,158.110 100.717,158.066 98.333 C 158.022 95.950,157.986 97.900,157.986 102.667 M261.946 96.465 C 263.089 96.515,264.889 96.515,265.946 96.464 C 267.002 96.414,266.067 96.373,263.867 96.373 C 261.667 96.374,260.802 96.415,261.946 96.465 M196.093 99.200 C 196.093 100.447,196.139 100.957,196.195 100.333 C 196.251 99.710,196.251 98.690,196.195 98.067 C 196.139 97.443,196.093 97.953,196.093 99.200 M261.454 99.924 L 262.910 100.026 263.009 101.946 L 263.107 103.867 263.087 101.867 L 263.067 99.867 261.532 99.845 L 259.997 99.823 261.454 99.924 M235.554 102.000 C 235.555 103.027,235.604 103.414,235.661 102.861 C 235.719 102.307,235.718 101.467,235.659 100.994 C 235.600 100.521,235.553 100.973,235.554 102.000 M212.091 105.200 C 212.092 106.373,212.139 106.820,212.196 106.193 C 212.252 105.566,212.251 104.606,212.194 104.060 C 212.137 103.513,212.090 104.027,212.091 105.200 M125.662 104.267 C 125.662 104.780,125.717 104.990,125.784 104.733 C 125.851 104.477,125.851 104.057,125.784 103.800 C 125.717 103.543,125.662 103.753,125.662 104.267 M191.827 107.467 C 191.827 108.713,191.872 109.223,191.929 108.600 C 191.985 107.977,191.985 106.957,191.929 106.333 C 191.872 105.710,191.827 106.220,191.827 107.467 M208.083 109.733 C 208.084 110.613,208.134 110.941,208.193 110.462 C 208.253 109.983,208.251 109.263,208.191 108.862 C 208.130 108.461,208.081 108.853,208.083 109.733 M232.666 200.600 L 197.200 236.133 232.733 200.667 C 265.769 167.694,268.386 165.067,268.200 165.067 C 268.163 165.067,252.173 181.057,232.666 200.600 M137.599 249.267 L 111.600 275.333 137.667 249.334 C 152.003 235.034,163.733 223.304,163.733 223.267 C 163.733 223.080,161.770 225.034,137.599 249.267 M156.383 249.400 L 155.600 250.267 156.467 249.483 C 156.943 249.053,157.333 248.663,157.333 248.617 C 157.333 248.411,157.113 248.592,156.383 249.400 M179.189 256.600 C 180.294 257.777,180.533 257.989,180.533 257.789 C 180.533 257.746,179.963 257.176,179.267 256.522 L 178.000 255.333 179.189 256.600 M105.867 270.533 C 108.430 273.100,110.588 275.200,110.661 275.200 C 110.734 275.200,108.697 273.100,106.133 270.533 C 103.570 267.967,101.412 265.867,101.339 265.867 C 101.266 265.867,103.303 267.967,105.867 270.533 M192.267 270.000 C 193.212 270.953,194.045 271.733,194.118 271.733 C 194.191 271.733,193.478 270.953,192.533 270.000 C 191.588 269.047,190.755 268.267,190.682 268.267 C 190.609 268.267,191.322 269.047,192.267 270.000 M127.953 353.267 C 133.867 353.307,143.467 353.307,149.287 353.267 C 155.106 353.226,150.267 353.194,138.533 353.194 C 126.800 353.194,122.039 353.227,127.953 353.267 M187.400 353.267 C 193.303 353.307,202.963 353.307,208.867 353.267 C 214.770 353.227,209.940 353.194,198.133 353.194 C 186.327 353.194,181.497 353.227,187.400 353.267 M246.087 353.267 C 252.001 353.307,261.601 353.307,267.420 353.267 C 273.239 353.226,268.400 353.194,256.667 353.194 C 244.933 353.194,240.172 353.227,246.087 353.267 " stroke="none" fill="#d48ca4" fill-rule="evenodd"></path><path id="path3" d="M100.397 48.867 L 100.400 63.600 104.467 63.611 L 108.534 63.622 104.536 63.537 L 100.538 63.453 100.466 48.793 L 100.393 34.133 100.397 48.867 M131.825 36.133 C 131.826 37.307,131.873 37.753,131.929 37.126 C 131.985 36.499,131.984 35.539,131.927 34.993 C 131.870 34.447,131.824 34.960,131.825 36.133 M152.397 48.867 L 152.400 63.600 158.667 63.600 L 164.933 63.600 164.954 61.600 L 164.974 59.600 164.875 61.533 L 164.777 63.467 158.657 63.467 L 152.538 63.467 152.466 48.800 L 152.393 34.133 152.397 48.867 M182.198 48.755 L 182.133 63.510 180.291 63.422 C 179.278 63.373,178.505 63.423,178.574 63.533 C 178.793 63.886,182.138 63.766,182.278 63.400 C 182.348 63.217,182.373 56.527,182.334 48.533 L 182.262 34.000 182.198 48.755 M276.381 40.267 C 276.381 43.713,276.419 45.123,276.466 43.400 C 276.512 41.677,276.512 38.857,276.466 37.133 C 276.419 35.410,276.381 36.820,276.381 40.267 M314.797 48.867 L 314.800 63.600 317.200 63.618 L 319.600 63.635 317.269 63.540 L 314.938 63.446 314.866 48.790 L 314.793 34.133 314.797 48.867 M330.198 48.721 L 330.133 63.442 328.333 63.536 L 326.533 63.629 328.342 63.681 C 330.637 63.747,330.417 65.419,330.334 48.533 L 330.262 34.000 330.198 48.721 M333.463 48.867 L 333.467 63.600 337.534 63.611 L 341.601 63.622 337.603 63.537 L 333.605 63.453 333.532 48.793 L 333.460 34.133 333.463 48.867 M257.803 38.055 C 258.135 38.119,258.615 38.117,258.870 38.050 C 259.125 37.983,258.853 37.931,258.267 37.934 C 257.680 37.937,257.471 37.991,257.803 38.055 M185.931 38.328 L 188.261 38.420 188.331 51.010 L 188.400 63.600 191.067 63.614 L 193.733 63.628 191.136 63.538 L 188.539 63.448 188.469 50.857 L 188.400 38.267 186.000 38.252 L 183.600 38.237 185.931 38.328 M195.000 38.329 C 195.697 38.384,196.837 38.384,197.533 38.329 C 198.230 38.274,197.660 38.229,196.267 38.229 C 194.873 38.229,194.303 38.274,195.000 38.329 M111.050 48.667 C 111.050 52.627,111.087 54.284,111.133 52.349 C 111.178 50.415,111.178 47.175,111.133 45.149 C 111.087 43.124,111.050 44.707,111.050 48.667 M116.650 48.667 C 116.650 52.480,116.687 54.003,116.733 52.051 C 116.778 50.099,116.778 46.979,116.732 45.118 C 116.687 43.256,116.649 44.853,116.650 48.667 M133.395 42.667 C 133.395 43.180,133.450 43.390,133.517 43.133 C 133.584 42.877,133.584 42.457,133.517 42.200 C 133.450 41.943,133.395 42.153,133.395 42.667 M344.116 48.667 C 344.116 52.480,344.154 54.003,344.199 52.051 C 344.245 50.099,344.245 46.979,344.199 45.118 C 344.153 43.256,344.116 44.853,344.116 48.667 M349.716 48.667 C 349.715 52.333,349.753 53.870,349.799 52.082 C 349.845 50.294,349.845 47.294,349.799 45.416 C 349.753 43.537,349.716 45.000,349.716 48.667 M171.471 54.990 L 171.467 63.446 169.133 63.540 L 166.800 63.635 169.200 63.618 L 171.600 63.600 171.733 55.374 C 171.807 50.849,171.779 47.009,171.671 46.840 C 171.563 46.672,171.473 50.339,171.471 54.990 M126.333 50.330 C 127.103 50.384,128.363 50.384,129.133 50.330 C 129.903 50.276,129.273 50.232,127.733 50.232 C 126.193 50.232,125.563 50.276,126.333 50.330 M159.133 50.330 C 159.903 50.384,161.163 50.384,161.933 50.330 C 162.703 50.276,162.073 50.232,160.533 50.232 C 158.993 50.232,158.363 50.276,159.133 50.330 M257.467 50.268 C 258.076 50.481,259.686 50.539,259.566 50.344 C 259.494 50.228,258.932 50.143,258.318 50.154 C 257.703 50.166,257.320 50.217,257.467 50.268 M31.823 53.333 C 31.823 54.433,31.870 54.883,31.928 54.333 C 31.985 53.783,31.985 52.883,31.928 52.333 C 31.870 51.783,31.823 52.233,31.823 53.333 M276.328 57.524 L 276.267 63.448 273.533 63.534 L 270.800 63.621 273.542 63.677 C 276.869 63.745,276.563 64.411,276.467 57.327 L 276.389 51.600 276.328 57.524 M145.800 52.463 C 146.570 52.517,147.830 52.517,148.600 52.463 C 149.370 52.409,148.740 52.365,147.200 52.365 C 145.660 52.365,145.030 52.409,145.800 52.463 M70.462 54.667 C 70.462 55.180,70.517 55.390,70.584 55.133 C 70.651 54.877,70.651 54.457,70.584 54.200 C 70.517 53.943,70.462 54.153,70.462 54.667 M133.395 54.933 C 133.395 55.447,133.450 55.657,133.517 55.400 C 133.584 55.143,133.584 54.723,133.517 54.467 C 133.450 54.210,133.395 54.420,133.395 54.933 M282.369 63.544 C 282.485 63.659,283.770 63.718,285.224 63.675 L 287.867 63.597 285.012 63.465 C 283.442 63.393,282.253 63.428,282.369 63.544 M307.969 63.544 C 308.086 63.660,309.310 63.719,310.691 63.676 L 313.200 63.597 310.479 63.465 C 308.982 63.393,307.853 63.428,307.969 63.544 M122.615 63.666 C 124.420 63.712,127.300 63.712,129.015 63.666 C 130.730 63.619,129.253 63.581,125.733 63.582 C 122.213 63.582,120.810 63.620,122.615 63.666 M212.075 63.663 C 212.776 63.718,213.856 63.717,214.475 63.662 C 215.094 63.606,214.520 63.561,213.200 63.561 C 211.880 63.562,211.374 63.608,212.075 63.663 M222.867 63.662 C 223.490 63.718,224.510 63.718,225.133 63.662 C 225.757 63.606,225.247 63.560,224.000 63.560 C 222.753 63.560,222.243 63.606,222.867 63.662 M253.267 63.663 C 254.037 63.717,255.297 63.717,256.067 63.663 C 256.837 63.609,256.207 63.565,254.667 63.565 C 253.127 63.565,252.497 63.609,253.267 63.663 M264.467 63.663 C 265.237 63.717,266.497 63.717,267.267 63.663 C 268.037 63.609,267.407 63.565,265.867 63.565 C 264.327 63.565,263.697 63.609,264.467 63.663 M296.742 63.664 C 297.517 63.718,298.717 63.717,299.409 63.662 C 300.101 63.608,299.467 63.563,298.000 63.564 C 296.533 63.565,295.967 63.610,296.742 63.664 M100.397 96.667 L 100.400 111.333 106.667 111.333 L 112.933 111.333 112.954 109.333 L 112.974 107.333 112.875 109.267 L 112.777 111.200 106.657 111.200 L 100.538 111.200 100.465 96.600 L 100.393 82.000 100.397 96.667 M215.863 96.667 L 215.867 111.333 218.533 111.347 L 221.200 111.361 218.602 111.271 L 216.005 111.181 215.932 96.591 L 215.860 82.000 215.863 96.667 M349.730 96.667 L 349.733 111.333 352.400 111.347 L 355.067 111.361 352.469 111.271 L 349.871 111.181 349.799 96.591 L 349.726 82.000 349.730 96.667 M366.464 96.591 L 366.400 111.181 363.667 111.268 L 360.933 111.354 363.675 111.410 C 365.666 111.451,366.452 111.375,366.544 111.133 C 366.615 110.950,366.640 104.320,366.600 96.400 L 366.529 82.000 366.464 96.591 M211.823 85.333 C 211.823 86.433,211.870 86.883,211.928 86.333 C 211.985 85.783,211.985 84.883,211.928 84.333 C 211.870 83.783,211.823 84.233,211.823 85.333 M192.093 86.933 C 192.093 88.180,192.139 88.690,192.195 88.067 C 192.251 87.443,192.251 86.423,192.195 85.800 C 192.139 85.177,192.093 85.687,192.093 86.933 M337.996 98.667 L 338.000 111.333 340.667 111.347 L 343.333 111.361 340.736 111.271 L 338.139 111.181 338.065 98.591 L 337.992 86.000 337.996 98.667 M45.161 89.200 C 45.161 90.520,45.206 91.094,45.262 90.475 C 45.317 89.856,45.318 88.776,45.263 88.075 C 45.208 87.374,45.162 87.880,45.161 89.200 M71.828 89.467 C 71.827 90.787,71.872 91.360,71.928 90.741 C 71.984 90.122,71.985 89.042,71.930 88.341 C 71.875 87.640,71.829 88.147,71.828 89.467 M262.485 90.133 C 262.485 91.087,262.534 91.477,262.593 91.000 C 262.652 90.523,262.652 89.743,262.593 89.267 C 262.534 88.790,262.485 89.180,262.485 90.133 M229.984 96.533 C 229.984 100.567,230.021 102.217,230.066 100.200 C 230.111 98.183,230.111 94.883,230.066 92.867 C 230.021 90.850,229.984 92.500,229.984 96.533 M267.806 90.667 C 267.806 91.327,267.858 91.597,267.922 91.267 C 267.985 90.937,267.985 90.397,267.922 90.067 C 267.858 89.737,267.806 90.007,267.806 90.667 M125.680 91.200 C 125.680 92.007,125.730 92.337,125.791 91.933 C 125.852 91.530,125.852 90.870,125.791 90.467 C 125.730 90.063,125.680 90.393,125.680 91.200 M224.382 96.667 C 224.382 100.187,224.420 101.590,224.466 99.785 C 224.512 97.980,224.512 95.100,224.466 93.385 C 224.419 91.670,224.381 93.147,224.382 96.667 M259.819 98.133 C 259.819 99.087,259.867 99.477,259.926 99.000 C 259.985 98.523,259.985 97.743,259.926 97.267 C 259.867 96.790,259.819 97.180,259.819 98.133 M207.823 98.933 C 207.823 100.033,207.870 100.483,207.928 99.933 C 207.985 99.383,207.985 98.483,207.928 97.933 C 207.870 97.383,207.823 97.833,207.823 98.933 M277.000 98.055 C 277.330 98.118,277.870 98.118,278.200 98.055 C 278.530 97.991,278.260 97.939,277.600 97.939 C 276.940 97.939,276.670 97.991,277.000 98.055 M212.091 101.200 C 212.092 102.373,212.139 102.820,212.196 102.193 C 212.252 101.566,212.251 100.606,212.194 100.060 C 212.137 99.513,212.090 100.027,212.091 101.200 M125.685 101.867 C 125.685 102.820,125.734 103.210,125.793 102.733 C 125.852 102.257,125.852 101.477,125.793 101.000 C 125.734 100.523,125.685 100.913,125.685 101.867 M191.825 103.333 C 191.826 104.507,191.873 104.953,191.929 104.326 C 191.985 103.699,191.984 102.739,191.927 102.193 C 191.870 101.647,191.824 102.160,191.825 103.333 M196.093 103.467 C 196.093 104.713,196.139 105.223,196.195 104.600 C 196.251 103.977,196.251 102.957,196.195 102.333 C 196.139 101.710,196.093 102.220,196.093 103.467 M315.467 111.200 L 313.200 111.367 315.384 111.417 C 316.610 111.445,317.641 111.350,317.733 111.200 C 317.824 111.053,317.861 110.956,317.816 110.983 C 317.770 111.010,316.713 111.108,315.467 111.200 M154.475 111.396 C 155.176 111.451,156.256 111.451,156.875 111.395 C 157.494 111.339,156.920 111.294,155.600 111.295 C 154.280 111.295,153.774 111.341,154.475 111.396 M165.933 111.394 C 166.483 111.452,167.383 111.452,167.933 111.394 C 168.483 111.337,168.033 111.290,166.933 111.290 C 165.833 111.290,165.383 111.337,165.933 111.394 M192.733 111.395 C 193.357 111.451,194.377 111.451,195.000 111.395 C 195.623 111.339,195.113 111.293,193.867 111.293 C 192.620 111.293,192.110 111.339,192.733 111.395 M201.267 111.393 C 201.743 111.452,202.523 111.452,203.000 111.393 C 203.477 111.334,203.087 111.285,202.133 111.285 C 201.180 111.285,200.790 111.334,201.267 111.393 M209.274 111.396 C 209.901 111.452,210.861 111.451,211.407 111.394 C 211.953 111.337,211.440 111.290,210.267 111.291 C 209.093 111.292,208.647 111.339,209.274 111.396 M265.261 111.392 C 265.734 111.451,266.574 111.452,267.127 111.395 C 267.681 111.337,267.293 111.289,266.267 111.288 C 265.240 111.286,264.787 111.334,265.261 111.392 M272.467 111.397 C 273.237 111.450,274.497 111.450,275.267 111.397 C 276.037 111.343,275.407 111.299,273.867 111.299 C 272.327 111.299,271.697 111.343,272.467 111.397 M283.667 111.397 C 284.437 111.450,285.697 111.450,286.467 111.397 C 287.237 111.343,286.607 111.299,285.067 111.299 C 283.527 111.299,282.897 111.343,283.667 111.397 M325.267 111.395 C 325.890 111.451,326.910 111.451,327.533 111.395 C 328.157 111.339,327.647 111.293,326.400 111.293 C 325.153 111.293,324.643 111.339,325.267 111.395 M248.650 223.000 L 247.867 223.867 248.733 223.083 C 249.210 222.653,249.600 222.263,249.600 222.217 C 249.600 222.011,249.380 222.192,248.650 223.000 M237.717 233.400 L 236.933 234.267 237.800 233.483 C 238.277 233.053,238.667 232.663,238.667 232.617 C 238.667 232.411,238.447 232.592,237.717 233.400 M188.533 248.133 C 189.031 248.647,189.498 249.067,189.571 249.067 C 189.645 249.067,189.298 248.647,188.800 248.133 C 188.302 247.620,187.835 247.200,187.762 247.200 C 187.689 247.200,188.036 247.620,188.533 248.133 M162.264 299.600 C 162.264 327.907,162.295 339.447,162.333 325.245 C 162.371 311.044,162.371 287.884,162.333 273.779 C 162.295 259.674,162.264 271.293,162.264 299.600 M221.730 302.933 C 221.730 329.553,221.762 340.443,221.800 327.133 C 221.838 313.823,221.838 292.043,221.800 278.733 C 221.762 265.423,221.730 276.313,221.730 302.933 M174.530 303.733 C 174.530 329.913,174.562 340.623,174.600 327.533 C 174.638 314.443,174.638 293.023,174.600 279.933 C 174.562 266.843,174.530 277.553,174.530 303.733 M185.467 262.933 C 186.485 263.960,187.379 264.800,187.452 264.800 C 187.526 264.800,186.752 263.960,185.733 262.933 C 184.715 261.907,183.821 261.067,183.748 261.067 C 183.674 261.067,184.448 261.907,185.467 262.933 M206.533 265.333 C 204.337 267.533,202.600 269.333,202.673 269.333 C 202.747 269.333,204.604 267.533,206.800 265.333 C 208.996 263.133,210.733 261.333,210.660 261.333 C 210.587 261.333,208.730 263.133,206.533 265.333 M137.183 267.533 L 136.400 268.400 137.267 267.617 C 137.743 267.186,138.133 266.796,138.133 266.750 C 138.133 266.544,137.913 266.725,137.183 267.533 M115.062 321.200 C 115.062 337.773,115.094 344.514,115.133 336.179 C 115.172 327.845,115.172 314.285,115.133 306.046 C 115.094 297.807,115.062 304.627,115.062 321.200 " stroke="none" fill="#bc5474" fill-rule="evenodd"></path><path id="path4" d="M36.917 38.467 L 36.133 39.333 37.000 38.550 C 37.477 38.119,37.867 37.729,37.867 37.683 C 37.867 37.477,37.647 37.659,36.917 38.467 M180.667 219.467 C 189.759 228.560,197.258 236.000,197.332 236.000 C 197.405 236.000,190.026 228.560,180.933 219.467 C 171.841 210.373,164.342 202.933,164.268 202.933 C 164.195 202.933,171.574 210.373,180.667 219.467 M214.263 257.667 L 210.533 261.467 214.333 257.737 C 216.423 255.686,218.133 253.976,218.133 253.937 C 218.133 253.746,217.728 254.137,214.263 257.667 M182.000 259.467 C 182.871 260.347,183.643 261.067,183.717 261.067 C 183.790 261.067,183.137 260.347,182.267 259.467 C 181.396 258.587,180.623 257.867,180.550 257.867 C 180.477 257.867,181.129 258.587,182.000 259.467 M195.333 273.067 C 196.056 273.800,196.707 274.400,196.780 274.400 C 196.853 274.400,196.322 273.800,195.600 273.067 C 194.878 272.333,194.227 271.733,194.153 271.733 C 194.080 271.733,194.611 272.333,195.333 273.067 " stroke="none" fill="#c3728a" fill-rule="evenodd"></path></g></svg>