<svg id="svg" version="1.1" xmlns="http://www.w3.org/2000/svg" xmlns:xlink="http://www.w3.org/1999/xlink" width="400" height="400" viewBox="0, 0, 400,400"><g id="svgg"><path id="path0" d="M73.151 33.584 C 62.332 35.308,57.113 42.605,57.074 56.067 L 57.067 58.400 64.211 58.400 L 71.354 58.400 71.662 54.333 C 72.205 47.147,73.678 44.795,77.631 44.801 C 81.762 44.808,83.434 47.328,83.665 53.893 C 83.960 62.311,81.705 65.571,75.413 65.824 L 72.800 65.929 72.800 71.195 L 72.800 76.461 75.267 76.592 C 81.573 76.927,83.717 80.065,83.729 88.977 C 83.739 97.017,82.218 99.828,77.850 99.839 C 73.541 99.849,72.067 97.391,71.588 89.400 L 71.408 86.400 64.238 86.400 L 57.067 86.400 57.069 87.933 C 57.100 104.862,63.961 112.436,78.800 111.921 C 90.467 111.516,96.417 105.627,97.884 93.031 C 99.092 82.665,96.233 74.465,90.308 71.308 L 88.760 70.482 90.313 69.727 C 99.595 65.214,100.993 46.755,92.676 38.527 C 88.630 34.525,80.369 32.434,73.151 33.584 M134.458 34.157 C 129.280 35.044,128.269 37.481,128.273 49.067 C 128.278 61.352,129.576 63.600,136.667 63.600 C 142.158 63.600,143.955 61.658,144.411 55.231 L 144.602 52.533 142.069 52.533 L 139.537 52.533 139.412 55.345 C 139.231 59.408,137.736 60.930,135.246 59.587 C 133.746 58.778,133.644 58.095,133.620 48.725 C 133.595 38.627,133.811 37.867,136.696 37.867 C 138.770 37.867,139.448 39.093,139.460 42.867 L 139.467 44.800 142.034 44.800 L 144.602 44.800 144.409 42.075 C 143.953 35.651,140.726 33.082,134.458 34.157 M36.822 35.486 C 34.991 37.142,28.397 40.940,25.133 42.218 L 24.000 42.662 24.000 47.998 C 24.000 50.932,24.068 53.333,24.151 53.333 C 24.400 53.333,31.212 50.928,32.913 50.239 C 33.781 49.888,34.591 49.600,34.713 49.600 C 34.834 49.600,34.933 63.340,34.933 80.133 L 34.933 110.667 42.267 110.667 L 49.600 110.667 49.600 72.533 L 49.600 34.400 43.800 34.411 L 38.000 34.422 36.822 35.486 M147.200 48.933 L 147.200 63.467 153.200 63.467 L 159.200 63.467 159.200 61.741 L 159.200 60.016 155.800 59.941 L 152.400 59.867 152.331 47.133 L 152.261 34.400 149.731 34.400 L 147.200 34.400 147.200 48.933 M161.333 48.933 L 161.333 63.467 163.867 63.467 L 166.400 63.467 166.400 48.933 L 166.400 34.400 163.867 34.400 L 161.333 34.400 161.333 48.933 M170.300 45.533 C 170.210 51.657,170.084 58.197,170.021 60.067 L 169.906 63.467 171.844 63.467 L 173.783 63.467 173.958 59.424 C 174.055 57.201,174.133 52.801,174.133 49.646 C 174.133 46.492,174.223 43.999,174.333 44.107 C 174.443 44.215,175.442 48.585,176.553 53.818 L 178.572 63.333 180.131 63.333 L 181.690 63.333 183.712 53.621 C 186.043 42.420,186.055 42.413,186.103 52.267 C 186.122 56.007,186.214 60.057,186.308 61.267 L 186.479 63.467 188.333 63.467 L 190.186 63.467 190.017 50.067 C 189.924 42.697,189.784 36.152,189.706 35.524 L 189.564 34.381 186.986 34.457 L 184.407 34.533 182.488 43.600 C 181.432 48.587,180.490 53.083,180.394 53.592 C 180.116 55.071,179.933 54.390,177.833 44.067 L 175.867 34.402 173.165 34.401 L 170.463 34.400 170.300 45.533 M197.867 34.600 C 197.868 34.868,192.278 62.405,192.102 63.000 C 191.977 63.421,192.209 63.467,194.479 63.467 L 196.993 63.467 197.474 60.600 C 198.212 56.197,197.957 56.500,200.855 56.590 L 203.316 56.667 203.912 60.000 C 204.239 61.833,204.513 63.363,204.520 63.400 C 204.542 63.511,209.333 63.475,209.333 63.363 C 209.333 63.235,203.790 35.831,203.597 35.000 C 203.456 34.398,197.866 34.007,197.867 34.600 M208.267 36.267 L 208.267 38.133 210.667 38.133 L 213.067 38.133 213.067 50.800 L 213.067 63.467 215.733 63.467 L 218.400 63.467 218.400 50.800 L 218.400 38.133 220.667 38.133 L 222.933 38.133 222.933 36.267 L 222.933 34.400 215.600 34.400 L 208.267 34.400 208.267 36.267 M224.533 48.933 L 224.533 63.467 230.533 63.467 L 236.533 63.467 236.533 61.741 L 236.533 60.016 233.133 59.941 L 229.733 59.867 229.661 55.000 L 229.588 50.133 232.394 50.133 L 235.200 50.133 235.200 48.267 L 235.200 46.400 232.393 46.400 L 229.586 46.400 229.660 42.200 L 229.733 38.000 233.133 37.925 L 236.533 37.851 236.533 36.125 L 236.533 34.400 230.533 34.400 L 224.533 34.400 224.533 48.933 M201.856 47.679 C 202.302 50.509,202.667 52.944,202.667 53.091 C 202.667 53.250,201.894 53.325,200.733 53.278 C 199.645 53.234,198.815 53.084,198.833 52.933 C 199.347 48.842,200.674 41.614,200.836 42.017 C 200.951 42.301,201.410 44.849,201.856 47.679 M151.154 82.114 C 148.709 82.900,147.297 84.399,146.536 87.018 C 145.783 89.610,146.053 105.536,146.881 107.333 C 148.327 110.471,149.919 111.333,154.267 111.333 C 159.969 111.333,161.737 109.474,162.062 103.133 L 162.209 100.267 159.661 100.267 L 157.114 100.267 157.024 103.222 L 156.933 106.178 156.062 106.956 C 154.544 108.311,152.348 107.800,151.689 105.938 C 151.079 104.216,151.185 88.139,151.813 86.989 C 152.329 86.042,153.165 85.600,154.435 85.600 C 156.364 85.600,157.067 86.843,157.067 90.258 L 157.067 92.533 159.638 92.533 L 162.210 92.533 162.069 89.775 C 161.865 85.767,160.917 83.841,158.533 82.587 C 157.362 81.971,152.556 81.663,151.154 82.114 M192.292 82.162 C 190.355 82.748,188.888 84.190,187.982 86.400 C 187.245 88.200,187.438 105.648,188.214 107.333 C 190.353 111.976,198.036 113.178,201.762 109.452 C 203.855 107.359,204.049 106.165,203.950 95.963 C 203.849 85.477,203.538 84.386,200.133 82.588 C 198.907 81.939,193.922 81.669,192.292 82.162 M133.067 82.373 C 133.067 82.504,131.761 89.044,130.166 96.906 L 127.265 111.200 129.736 111.200 L 132.207 111.200 132.357 110.333 C 132.440 109.857,132.706 108.357,132.948 107.000 L 133.389 104.533 135.974 104.533 L 138.559 104.533 139.032 107.400 C 139.725 111.597,139.399 111.200,142.151 111.200 C 143.461 111.200,144.533 111.149,144.533 111.086 C 144.533 110.946,138.997 83.575,138.798 82.733 C 138.650 82.105,133.067 81.754,133.067 82.373 M162.667 84.000 L 162.667 85.867 165.200 85.867 L 167.733 85.867 167.733 98.533 L 167.733 111.200 170.264 111.200 L 172.795 111.200 172.864 98.600 L 172.933 86.000 175.267 85.923 L 177.600 85.846 177.600 83.990 L 177.600 82.133 170.133 82.133 L 162.667 82.133 162.667 84.000 M179.200 96.667 L 179.200 111.200 181.733 111.200 L 184.267 111.200 184.267 96.667 L 184.267 82.133 181.733 82.133 L 179.200 82.133 179.200 96.667 M206.933 96.655 L 206.933 111.200 209.200 111.200 L 211.467 111.200 211.467 102.756 C 211.467 98.111,211.550 94.394,211.651 94.495 C 211.752 94.597,213.366 98.367,215.238 102.873 L 218.641 111.067 220.387 111.146 L 222.133 111.224 222.133 96.679 L 222.133 82.133 220.000 82.133 L 217.867 82.133 217.867 90.187 C 217.867 95.125,217.771 98.142,217.620 97.987 C 217.484 97.847,215.872 94.253,214.036 90.000 L 210.699 82.267 208.816 82.188 L 206.933 82.110 206.933 96.655 M197.336 86.002 C 198.612 86.661,198.707 87.497,198.616 97.261 L 198.533 106.122 197.841 106.814 C 196.333 108.321,193.696 107.842,193.022 105.938 C 192.412 104.213,192.518 88.139,193.147 86.986 C 193.894 85.618,195.751 85.182,197.336 86.002 M137.057 95.380 C 137.502 98.192,137.867 100.622,137.867 100.780 C 137.867 100.957,137.154 101.067,136.000 101.067 C 133.737 101.067,133.831 101.668,134.991 94.582 C 135.991 88.475,135.961 88.464,137.057 95.380 M191.200 176.830 C 137.248 180.122,85.705 207.925,55.374 250.098 L 53.814 252.267 55.374 254.437 C 98.877 314.967,180.237 342.407,254.133 321.472 C 291.899 310.774,328.593 285.394,350.493 254.824 C 352.255 252.364,352.434 253.091,348.905 248.369 C 313.001 200.331,252.896 173.066,191.200 176.830 M210.000 190.964 C 234.563 193.487,255.971 211.633,262.889 235.793 C 264.089 239.985,263.632 242.135,261.280 243.359 C 259.495 244.287,257.481 243.686,255.895 241.751 C 253.221 238.487,251.554 241.571,253.733 245.752 C 254.247 246.737,254.667 247.742,254.667 247.986 C 254.667 249.152,251.171 251.389,248.048 252.221 C 243.753 253.366,242.008 258.026,244.286 262.267 C 246.992 267.304,247.195 268.038,246.026 268.570 C 244.883 269.091,240.739 266.363,237.568 263.001 C 235.897 261.230,235.793 261.033,233.609 255.506 C 230.873 248.581,230.118 247.748,227.272 248.514 C 225.414 249.014,224.901 249.849,225.292 251.739 C 225.690 253.666,225.485 254.566,224.059 257.177 C 222.260 260.470,221.712 260.571,219.154 258.074 C 217.310 256.274,215.230 255.176,211.165 253.855 C 205.450 251.999,204.308 250.941,203.357 246.621 C 203.081 245.368,201.899 244.307,199.516 243.175 C 198.247 242.572,196.270 241.372,195.123 240.507 C 192.780 238.742,191.892 238.393,191.285 239.001 C 190.649 239.637,191.098 240.215,196.438 245.635 C 200.994 250.260,201.333 250.672,201.333 251.582 C 201.333 255.222,194.913 258.686,192.091 256.568 C 191.628 256.220,189.787 254.330,188.000 252.368 C 184.065 248.045,183.408 247.866,183.872 251.242 C 184.339 254.635,187.279 258.729,190.643 260.669 C 195.145 263.266,195.284 264.832,191.358 268.680 C 188.320 271.657,188.209 271.906,187.982 276.267 C 187.854 278.729,187.626 280.372,187.261 281.467 C 186.968 282.347,186.592 283.547,186.426 284.133 C 186.214 284.887,185.827 285.405,185.109 285.898 C 184.171 286.542,184.007 286.860,182.970 290.053 C 180.893 296.442,178.610 298.764,173.281 299.902 C 169.428 300.726,168.217 298.822,167.815 291.309 C 167.654 288.309,167.650 288.294,166.960 288.214 C 166.033 288.106,165.483 286.906,164.982 283.904 C 164.484 280.916,164.184 280.569,162.492 281.021 C 160.993 281.422,160.848 281.305,160.556 279.458 C 160.374 278.309,160.152 277.876,159.431 277.262 C 158.937 276.842,158.008 276.026,157.367 275.449 C 155.779 274.021,155.221 274.075,151.668 276.000 C 148.533 277.698,148.241 277.774,146.642 277.294 C 143.854 276.459,140.545 261.425,140.860 251.027 L 140.991 246.691 142.467 244.746 C 143.278 243.675,144.132 242.421,144.365 241.957 C 144.844 241.005,147.704 239.833,149.200 239.974 C 151.276 240.171,157.426 241.979,161.366 243.551 C 167.914 246.164,169.593 246.338,172.639 244.719 C 174.986 243.473,175.745 241.828,174.810 240.019 C 174.168 238.777,173.029 238.600,171.323 239.476 L 170.267 240.019 169.507 239.143 C 167.608 236.952,166.899 236.267,166.530 236.267 C 165.968 236.267,166.025 237.447,166.667 239.136 C 168.270 243.355,166.032 242.007,163.589 237.283 C 161.736 233.698,160.176 232.955,158.181 234.706 C 156.643 236.057,151.866 237.846,149.754 237.863 C 149.473 237.865,148.467 238.244,147.520 238.706 C 144.915 239.975,143.396 238.981,143.352 235.980 C 143.311 233.180,147.525 231.385,150.497 232.935 C 152.628 234.046,154.555 232.756,154.307 230.383 C 154.149 228.875,154.542 228.000,155.375 228.000 C 155.522 228.000,156.846 227.279,158.317 226.398 C 162.185 224.081,166.452 223.587,170.077 225.036 C 172.759 226.109,174.074 225.692,177.085 222.815 C 178.224 221.727,179.526 220.645,179.978 220.411 C 180.923 219.923,180.982 219.710,180.333 219.140 C 178.852 217.839,177.503 218.241,175.148 220.684 C 172.541 223.390,171.699 223.700,168.894 222.985 C 160.062 220.734,158.988 217.738,165.782 214.307 C 167.377 213.502,170.401 212.928,174.400 212.672 C 176.052 212.567,178.796 212.119,181.091 211.580 C 185.319 210.587,187.586 210.439,188.813 211.074 C 190.133 211.756,189.496 212.461,185.974 214.220 C 182.746 215.833,181.629 217.169,182.928 217.864 C 183.908 218.388,185.830 217.575,191.258 214.338 C 195.548 211.780,195.781 211.309,193.536 209.739 C 190.349 207.510,189.395 206.028,189.727 203.818 C 190.265 200.230,186.981 199.055,178.206 199.699 C 175.746 199.880,172.833 200.088,171.733 200.162 L 169.733 200.297 170.800 199.593 C 180.928 192.914,196.214 189.549,210.000 190.964 M161.807 208.148 C 164.514 210.044,159.744 215.732,155.446 215.733 C 152.520 215.734,152.509 214.696,155.396 211.050 C 157.937 207.843,160.023 206.899,161.807 208.148 M157.720 218.511 C 159.731 219.351,159.348 220.311,156.267 222.154 C 155.460 222.637,153.382 224.399,151.649 226.070 C 148.142 229.453,146.098 230.621,145.468 229.603 C 145.041 228.911,149.801 220.138,151.047 219.322 C 152.677 218.254,156.107 217.837,157.720 218.511 M261.627 245.102 C 265.223 246.302,266.170 251.389,264.683 261.520 C 263.977 266.328,263.895 266.377,261.710 263.314 C 258.358 258.617,257.819 253.513,260.281 249.795 L 261.117 248.533 260.316 246.821 C 259.316 244.685,259.531 244.403,261.627 245.102 M248.192 258.392 C 249.086 258.937,250.667 260.906,250.667 261.474 C 250.667 262.516,247.895 262.870,246.887 261.958 C 244.489 259.788,245.582 256.801,248.192 258.392 M217.974 258.861 C 220.963 260.384,220.842 262.781,217.776 262.781 C 213.916 262.781,212.266 260.046,215.244 258.586 C 216.161 258.136,216.644 258.185,217.974 258.861 M251.974 264.653 C 252.850 265.106,254.400 266.798,254.400 267.301 C 254.400 269.118,249.452 269.119,248.023 267.302 C 246.661 265.570,249.746 263.501,251.974 264.653 M260.052 270.769 C 261.422 273.484,261.380 274.774,259.806 278.290 C 257.286 283.920,253.596 289.558,249.200 294.496 L 246.918 297.059 245.525 296.497 C 243.365 295.625,242.579 295.585,241.614 296.299 C 240.512 297.113,239.874 296.759,239.849 295.319 C 239.826 293.973,239.603 293.950,237.723 295.095 C 234.065 297.324,233.439 297.215,232.667 294.216 C 232.410 293.217,231.855 291.289,231.433 289.930 C 230.333 286.383,230.503 284.390,232.169 281.304 C 234.349 277.267,237.116 275.772,246.205 273.720 C 251.083 272.619,252.917 271.933,255.584 270.209 C 258.705 268.191,258.753 268.197,260.052 270.769 M195.680 269.387 C 196.249 269.956,196.025 271.563,195.110 273.474 C 194.621 274.497,193.589 277.228,192.818 279.543 C 189.684 288.953,187.922 285.918,190.159 274.962 C 191.015 270.767,194.023 267.730,195.680 269.387 M239.185 301.619 C 240.940 302.374,241.019 302.240,237.400 304.649 C 222.925 314.284,204.851 317.403,188.000 313.175 C 183.693 312.094,183.331 309.761,186.915 306.177 C 192.185 300.907,200.031 300.632,213.854 305.234 C 222.228 308.022,221.672 308.015,224.912 305.378 C 230.337 300.961,234.876 299.766,239.185 301.619 " stroke="none" fill="#fbfbfb" fill-rule="evenodd"></path><path id="path1" d="M0.000 200.000 L 0.000 400.000 200.000 400.000 L 400.000 400.000 400.000 200.000 L 400.000 0.000 200.000 0.000 L 0.000 0.000 0.000 200.000 M84.164 33.850 C 92.664 35.912,97.190 41.447,98.181 50.991 C 99.072 59.582,95.750 67.472,90.186 69.977 L 89.053 70.487 90.351 71.198 C 95.826 74.192,98.202 79.381,98.227 88.400 C 98.270 104.431,91.681 112.051,77.733 112.099 C 63.778 112.147,57.073 104.825,57.068 89.533 L 57.067 86.133 64.359 86.133 L 71.651 86.133 71.814 89.533 C 72.161 96.792,73.459 99.272,77.104 99.646 C 81.338 100.079,82.942 98.112,83.455 91.859 C 84.248 82.186,81.643 76.813,76.152 76.798 C 75.702 76.796,74.703 76.720,73.933 76.627 L 72.533 76.459 72.533 71.030 L 72.533 65.600 74.885 65.600 C 80.660 65.600,82.907 63.366,83.452 57.081 C 84.147 49.078,82.200 45.091,77.590 45.073 C 73.589 45.057,72.181 47.447,71.822 54.867 L 71.651 58.400 64.359 58.400 L 57.067 58.400 57.070 54.467 C 57.084 38.567,68.331 30.009,84.164 33.850 M139.955 34.278 C 143.043 35.195,144.311 37.377,144.482 42.067 L 144.591 45.067 141.895 45.067 L 139.200 45.067 139.200 42.706 C 139.200 38.769,138.217 37.464,135.753 38.128 C 133.926 38.620,133.867 38.956,133.867 48.782 C 133.867 59.143,134.010 59.733,136.533 59.733 C 138.549 59.733,139.200 58.531,139.200 54.809 L 139.200 52.267 141.895 52.267 L 144.590 52.267 144.482 55.400 C 144.272 61.509,142.148 63.848,136.800 63.861 C 129.677 63.879,128.026 61.099,128.008 49.060 C 127.995 40.250,128.609 37.348,130.884 35.463 C 132.740 33.925,136.926 33.378,139.955 34.278 M49.600 72.533 L 49.600 110.933 42.133 110.933 L 34.667 110.933 34.667 80.400 C 34.667 63.607,34.567 49.867,34.446 49.867 C 34.325 49.867,33.515 50.154,32.646 50.506 C 30.945 51.195,24.134 53.600,23.885 53.600 C 23.801 53.600,23.733 51.152,23.733 48.161 L 23.733 42.722 27.800 40.724 C 31.991 38.665,36.178 36.075,37.313 34.838 L 37.960 34.133 43.780 34.133 L 49.600 34.133 49.600 72.533 M152.533 46.933 L 152.533 59.733 156.000 59.733 L 159.467 59.733 159.467 61.733 L 159.467 63.733 153.200 63.733 L 146.933 63.733 146.933 48.933 L 146.933 34.133 149.733 34.133 L 152.533 34.133 152.533 46.933 M166.667 48.943 L 166.667 63.752 163.933 63.676 L 161.200 63.600 161.131 48.867 L 161.062 34.133 163.864 34.133 L 166.667 34.133 166.667 48.943 M176.000 34.235 C 176.000 34.466,180.021 53.710,180.082 53.771 C 180.119 53.808,180.963 49.974,181.959 45.252 C 182.954 40.530,183.890 36.097,184.039 35.400 L 184.310 34.133 187.059 34.133 L 189.808 34.133 189.967 39.533 C 190.054 42.503,190.199 49.163,190.288 54.333 L 190.451 63.733 188.334 63.733 L 186.218 63.733 186.042 58.490 C 185.946 55.607,185.857 51.317,185.845 48.957 L 185.823 44.667 184.680 50.000 C 184.051 52.933,183.144 57.223,182.663 59.533 L 181.788 63.733 180.129 63.733 L 178.470 63.733 177.866 60.867 C 177.534 59.290,176.639 55.060,175.876 51.467 L 174.490 44.933 174.312 51.600 C 174.215 55.267,174.134 59.497,174.134 61.000 L 174.133 63.733 171.957 63.733 L 169.780 63.733 169.956 53.133 C 170.053 47.303,170.133 40.643,170.133 38.333 L 170.133 34.133 173.067 34.133 C 174.680 34.133,176.000 34.179,176.000 34.235 M206.516 48.467 C 208.112 56.350,209.473 63.010,209.540 63.267 C 209.650 63.688,209.404 63.733,206.999 63.733 L 204.335 63.733 204.157 62.600 C 204.059 61.977,203.789 60.417,203.556 59.133 L 203.132 56.800 200.784 56.800 C 198.080 56.800,198.368 56.473,197.733 60.267 C 197.097 64.072,197.412 63.733,194.515 63.733 C 192.299 63.733,192.000 63.678,191.997 63.267 C 191.994 62.829,197.507 35.189,197.742 34.467 C 197.819 34.227,198.662 34.133,200.732 34.133 L 203.613 34.133 206.516 48.467 M223.200 36.267 L 223.200 38.400 220.800 38.400 L 218.400 38.400 218.400 51.076 L 218.400 63.752 215.667 63.676 L 212.933 63.600 212.864 51.000 L 212.795 38.400 210.397 38.400 L 208.000 38.400 208.000 36.267 L 208.000 34.133 215.600 34.133 L 223.200 34.133 223.200 36.267 M236.800 36.133 L 236.800 38.133 233.333 38.133 L 229.867 38.133 229.867 42.267 L 229.867 46.400 232.533 46.400 L 235.200 46.400 235.200 48.400 L 235.200 50.400 232.533 50.400 L 229.867 50.400 229.867 55.067 L 229.867 59.733 233.333 59.733 L 236.800 59.733 236.800 61.733 L 236.800 63.733 230.533 63.733 L 224.267 63.733 224.267 48.933 L 224.267 34.133 230.533 34.133 L 236.800 34.133 236.800 36.133 M199.901 47.277 C 199.493 49.802,199.095 52.137,199.017 52.467 C 198.881 53.043,198.946 53.067,200.638 53.067 C 202.141 53.067,202.399 52.998,202.394 52.600 C 202.385 51.921,200.876 42.921,200.750 42.795 C 200.692 42.736,200.310 44.753,199.901 47.277 M157.567 82.015 C 160.654 82.932,162.018 85.233,162.311 90.020 L 162.481 92.800 159.641 92.800 L 156.800 92.800 156.800 89.988 C 156.800 86.588,156.369 85.867,154.338 85.867 C 151.648 85.867,151.470 86.524,151.468 96.482 C 151.466 106.556,151.690 107.467,154.171 107.467 C 156.355 107.467,156.800 106.701,156.800 102.947 L 156.800 100.267 159.641 100.267 L 162.481 100.267 162.313 103.017 C 161.921 109.424,159.884 111.595,154.267 111.589 C 149.903 111.585,147.657 110.213,146.476 106.829 C 145.668 104.517,145.765 88.180,146.598 86.122 C 148.127 82.347,152.797 80.598,157.567 82.015 M200.087 82.378 C 201.713 83.165,203.011 84.713,203.633 86.608 C 204.263 88.528,204.394 104.342,203.796 106.309 C 201.643 113.395,190.231 113.766,187.809 106.829 C 186.986 104.473,187.099 87.852,187.950 85.971 C 189.735 82.028,195.710 80.259,200.087 82.378 M141.722 96.200 C 143.316 104.083,144.674 110.743,144.741 111.000 C 144.850 111.421,144.604 111.467,142.199 111.467 L 139.535 111.467 139.357 110.333 C 139.259 109.710,138.989 108.150,138.756 106.867 L 138.332 104.533 135.966 104.533 C 134.665 104.533,133.593 104.563,133.585 104.600 C 133.576 104.637,133.300 106.167,132.971 108.000 L 132.372 111.333 129.786 111.410 C 127.464 111.478,127.200 111.438,127.200 111.016 C 127.200 110.569,132.679 83.316,132.966 82.333 C 133.085 81.926,133.469 81.867,135.964 81.867 L 138.825 81.867 141.722 96.200 M177.867 84.000 L 177.867 86.133 175.467 86.133 L 173.067 86.133 173.067 98.800 L 173.067 111.467 170.267 111.467 L 167.467 111.467 167.467 98.800 L 167.467 86.133 165.067 86.133 L 162.667 86.133 162.667 84.000 L 162.667 81.867 170.267 81.867 L 177.867 81.867 177.867 84.000 M184.533 96.667 L 184.533 111.467 181.733 111.467 L 178.933 111.467 178.933 96.667 L 178.933 81.867 181.733 81.867 L 184.533 81.867 184.533 96.667 M214.178 89.867 L 217.587 97.733 217.593 89.800 L 217.600 81.867 220.002 81.867 L 222.405 81.867 222.336 96.600 L 222.267 111.333 220.412 111.333 L 218.558 111.333 215.212 103.256 L 211.867 95.178 211.733 103.256 L 211.600 111.333 209.267 111.410 L 206.933 111.487 206.933 96.665 L 206.933 81.843 208.851 81.922 L 210.770 82.000 214.178 89.867 M193.936 86.275 C 192.950 86.966,192.803 88.285,192.801 96.482 C 192.800 106.564,193.022 107.467,195.513 107.467 C 198.402 107.467,198.507 107.126,198.619 97.467 C 198.720 88.811,198.541 86.982,197.522 86.269 C 196.779 85.748,194.683 85.751,193.936 86.275 M135.106 95.101 C 134.701 97.722,134.308 100.077,134.233 100.333 C 134.114 100.744,134.307 100.800,135.849 100.800 C 137.189 100.800,137.600 100.711,137.600 100.419 C 137.600 99.694,136.241 91.331,136.043 90.834 C 135.917 90.519,135.572 92.091,135.106 95.101 M218.267 176.925 C 270.947 181.314,320.389 208.649,350.228 249.884 L 352.230 252.650 351.000 254.392 C 336.781 274.522,313.377 294.617,288.933 307.684 C 249.575 328.723,200.711 334.223,155.836 322.665 C 116.995 312.662,80.589 288.293,56.467 256.150 C 53.315 251.950,53.315 252.583,56.467 248.384 C 93.575 198.948,155.316 171.680,218.267 176.925 M197.688 190.939 C 190.180 191.668,183.114 193.611,176.400 196.792 C 173.181 198.317,169.741 200.332,170.667 200.150 C 174.652 199.369,184.729 199.164,186.959 199.819 C 189.330 200.516,189.867 201.238,189.867 203.730 C 189.867 206.260,190.222 206.867,193.067 209.200 C 196.105 211.693,196.071 211.769,190.488 215.026 C 184.950 218.255,183.547 218.720,182.575 217.646 C 181.696 216.674,182.253 216.079,185.871 214.125 C 191.817 210.914,189.508 209.720,181.292 211.758 C 179.581 212.182,176.704 212.651,174.892 212.801 C 168.526 213.328,166.924 213.699,164.367 215.237 C 159.606 218.102,161.036 220.722,168.437 222.692 C 171.578 223.528,172.057 223.378,174.933 220.652 C 177.610 218.116,178.819 217.737,180.364 218.953 C 181.285 219.677,181.255 219.841,180.067 220.571 C 179.517 220.909,178.089 222.104,176.895 223.226 C 174.021 225.927,173.055 226.206,170.018 225.214 C 165.949 223.886,161.900 224.310,158.632 226.406 C 157.511 227.125,156.110 227.907,155.518 228.144 C 154.325 228.621,154.001 229.121,154.401 229.868 C 155.536 231.990,152.954 234.232,150.599 233.169 C 148.186 232.081,144.279 232.881,143.719 234.577 C 142.708 237.640,144.789 240.099,147.167 238.649 C 147.661 238.348,149.401 237.806,151.032 237.445 C 154.292 236.724,156.908 235.629,158.309 234.398 C 160.255 232.690,161.690 233.435,163.723 237.206 C 166.167 241.739,167.789 242.893,166.535 239.205 C 165.301 235.575,166.127 235.120,168.710 238.006 L 170.267 239.746 171.642 239.164 C 174.724 237.860,176.731 241.166,174.367 243.652 C 171.598 246.564,168.314 246.592,161.427 243.761 C 157.550 242.167,154.607 241.253,151.067 240.541 L 148.400 240.004 146.761 240.605 C 145.241 241.162,145.023 241.351,143.756 243.203 C 143.005 244.301,142.122 245.538,141.795 245.952 C 139.900 248.348,141.249 263.414,144.155 272.304 C 145.514 276.462,145.833 276.958,147.370 277.291 C 148.541 277.545,148.433 277.588,153.440 274.848 C 155.144 273.916,155.787 273.947,156.999 275.019 C 157.550 275.506,158.457 276.245,159.016 276.662 C 160.175 277.527,160.798 278.570,160.804 279.653 C 160.811 280.995,161.115 281.197,162.527 280.802 C 164.278 280.312,164.638 280.743,165.191 283.993 C 165.694 286.951,166.273 288.133,167.217 288.133 C 167.859 288.133,167.869 288.171,168.027 291.200 C 168.411 298.540,169.488 300.402,173.003 299.799 C 178.073 298.931,180.865 296.161,182.790 290.088 C 183.899 286.589,184.084 286.236,185.150 285.589 C 186.461 284.792,187.455 281.273,187.708 276.533 C 187.940 272.166,188.172 271.634,191.075 268.800 C 194.964 265.003,194.929 263.156,190.926 261.056 C 187.082 259.038,184.040 254.664,183.791 250.797 C 183.583 247.546,183.926 247.678,188.395 252.559 C 190.277 254.614,192.152 256.469,192.562 256.681 C 195.836 258.375,202.281 254.009,201.012 250.957 C 200.822 250.501,198.477 247.922,195.800 245.226 C 190.813 240.205,190.330 239.499,191.321 238.677 C 191.893 238.202,192.671 238.538,195.157 240.330 C 196.380 241.211,198.240 242.351,199.289 242.861 C 202.654 244.499,203.141 245.036,203.900 247.953 C 204.658 250.862,206.070 252.017,210.667 253.489 C 215.028 254.885,216.877 255.857,219.118 257.933 C 221.806 260.423,222.435 260.238,224.259 256.415 C 225.310 254.213,225.453 253.417,225.094 251.744 C 224.630 249.580,225.826 248.269,228.267 248.269 C 230.811 248.269,231.212 248.810,234.003 256.000 C 236.037 261.240,236.762 262.379,239.562 264.730 C 246.140 270.254,248.010 269.729,244.655 263.300 C 242.669 259.496,242.603 258.950,243.750 255.883 C 244.634 253.521,245.652 252.614,248.112 251.996 C 250.477 251.402,254.031 249.385,254.387 248.435 C 254.543 248.017,254.344 247.378,253.637 246.026 C 251.138 241.241,252.890 238.447,256.254 241.853 C 260.516 246.169,264.574 242.620,262.804 236.124 C 255.084 207.786,226.736 188.114,197.688 190.939 M158.246 208.378 C 157.577 208.669,154.424 212.274,153.502 213.802 C 152.717 215.102,154.754 216.007,156.925 215.324 C 160.124 214.318,161.885 212.594,162.077 210.278 C 162.262 208.041,160.746 207.290,158.246 208.378 M154.000 218.520 C 150.602 219.231,149.567 220.426,146.572 227.100 C 145.407 229.697,145.416 229.600,146.348 229.600 C 147.457 229.600,149.177 228.357,151.867 225.612 C 153.246 224.205,155.004 222.727,156.000 222.137 C 157.771 221.089,158.933 220.148,158.933 219.764 C 158.933 219.216,156.533 218.013,155.733 218.161 C 155.660 218.174,154.880 218.336,154.000 218.520 M260.396 246.391 C 261.239 248.056,261.241 248.873,260.405 249.969 C 258.408 252.588,258.448 256.936,260.508 261.016 C 261.476 262.935,263.447 265.464,263.736 265.160 C 264.692 264.157,265.486 250.507,264.707 248.469 C 263.947 246.481,262.159 245.067,260.404 245.067 L 259.724 245.067 260.396 246.391 M245.888 258.626 C 245.102 260.095,246.839 262.267,248.799 262.267 C 250.337 262.267,250.523 262.125,250.277 261.146 C 249.787 259.195,246.572 257.348,245.888 258.626 M214.995 258.934 C 213.045 260.122,213.317 261.448,215.674 262.251 C 219.930 263.701,221.739 260.872,217.781 258.957 C 216.361 258.269,216.088 258.267,214.995 258.934 M249.128 264.800 C 247.145 266.009,247.567 267.558,250.067 268.253 C 253.343 269.162,255.207 267.811,253.267 265.932 C 251.675 264.392,250.379 264.037,249.128 264.800 M256.260 270.044 C 253.112 272.009,251.148 272.776,246.692 273.782 C 238.368 275.663,235.721 276.822,233.569 279.530 C 230.989 282.776,230.343 286.063,231.554 289.767 C 231.932 290.922,232.436 292.647,232.674 293.600 C 233.511 296.957,234.027 297.142,237.182 295.211 C 239.553 293.760,240.000 293.779,240.000 295.333 C 240.000 296.726,240.592 296.946,241.794 296.000 C 242.677 295.305,243.151 295.327,245.108 296.151 L 246.734 296.835 247.529 296.084 C 251.799 292.051,257.790 282.939,260.380 276.539 C 261.190 274.538,261.041 273.001,259.801 270.533 C 258.744 268.433,258.823 268.444,256.260 270.044 M193.164 269.845 C 191.136 271.081,190.264 273.520,189.561 279.919 C 188.761 287.195,190.313 286.618,192.933 278.667 C 193.634 276.540,194.480 274.320,194.814 273.733 C 196.745 270.338,195.843 268.212,193.164 269.845 M231.317 301.592 C 229.376 302.228,227.272 303.562,224.400 305.978 C 221.775 308.186,222.282 308.210,214.131 305.502 C 200.326 300.915,192.494 301.092,187.212 306.112 C 183.389 309.745,183.831 312.025,188.570 313.132 C 205.464 317.079,222.862 314.036,237.133 304.638 C 238.857 303.503,240.267 302.489,240.267 302.383 C 240.267 301.295,233.932 300.736,231.317 301.592 " stroke="none" fill="#3c7c44" fill-rule="evenodd"></path><path id="path2" d="M77.003 33.255 C 77.335 33.319,77.815 33.317,78.070 33.250 C 78.325 33.183,78.053 33.131,77.467 33.134 C 76.880 33.137,76.671 33.191,77.003 33.255 M40.852 34.332 C 42.420 34.379,45.060 34.379,46.719 34.333 C 48.377 34.286,47.093 34.247,43.867 34.247 C 40.640 34.247,39.283 34.285,40.852 34.332 M147.058 48.800 C 147.058 56.940,147.092 60.270,147.133 56.200 C 147.175 52.130,147.175 45.470,147.133 41.400 C 147.092 37.330,147.058 40.660,147.058 48.800 M152.390 46.933 C 152.390 54.047,152.424 56.957,152.466 53.400 C 152.508 49.843,152.508 44.023,152.466 40.467 C 152.424 36.910,152.390 39.820,152.390 46.933 M208.091 36.133 C 208.092 37.307,208.139 37.753,208.196 37.126 C 208.252 36.499,208.251 35.539,208.194 34.993 C 208.137 34.447,208.090 34.960,208.091 36.133 M170.225 39.333 C 170.226 40.507,170.273 40.953,170.329 40.326 C 170.385 39.699,170.384 38.739,170.327 38.193 C 170.270 37.647,170.224 38.160,170.225 39.333 M229.708 42.267 C 229.708 44.613,229.749 45.538,229.799 44.321 C 229.848 43.104,229.848 41.184,229.798 40.054 C 229.748 38.924,229.708 39.920,229.708 42.267 M139.311 43.399 L 139.333 44.933 141.934 44.949 L 144.535 44.964 142.014 44.872 L 139.493 44.781 139.391 43.322 L 139.289 41.864 139.311 43.399 M189.956 45.333 C 189.956 46.433,190.003 46.883,190.061 46.333 C 190.118 45.783,190.118 44.883,190.061 44.333 C 190.003 43.783,189.956 44.233,189.956 45.333 M77.133 44.984 C 77.390 45.051,77.810 45.051,78.067 44.984 C 78.323 44.917,78.113 44.862,77.600 44.862 C 77.087 44.862,76.877 44.917,77.133 44.984 M174.227 47.467 C 174.227 48.713,174.272 49.223,174.329 48.600 C 174.385 47.977,174.385 46.957,174.329 46.333 C 174.272 45.710,174.227 46.220,174.227 47.467 M185.956 51.200 C 185.956 52.300,186.003 52.750,186.061 52.200 C 186.118 51.650,186.118 50.750,186.061 50.200 C 186.003 49.650,185.956 50.100,185.956 51.200 M229.710 55.067 C 229.710 57.707,229.750 58.751,229.799 57.387 C 229.847 56.022,229.847 53.862,229.798 52.587 C 229.750 51.311,229.710 52.427,229.710 55.067 M139.285 54.133 C 139.285 55.087,139.334 55.477,139.393 55.000 C 139.452 54.523,139.452 53.743,139.393 53.267 C 139.334 52.790,139.285 53.180,139.285 54.133 M199.800 53.261 C 200.350 53.318,201.250 53.318,201.800 53.261 C 202.350 53.203,201.900 53.156,200.800 53.156 C 199.700 53.156,199.250 53.203,199.800 53.261 M169.958 55.600 C 169.959 56.773,170.006 57.220,170.062 56.593 C 170.119 55.966,170.118 55.006,170.061 54.460 C 170.003 53.913,169.957 54.427,169.958 55.600 M190.223 61.067 C 190.223 62.167,190.270 62.617,190.328 62.067 C 190.385 61.517,190.385 60.617,190.328 60.067 C 190.270 59.517,190.223 59.967,190.223 61.067 M135.933 63.922 C 136.263 63.985,136.803 63.985,137.133 63.922 C 137.463 63.858,137.193 63.806,136.533 63.806 C 135.873 63.806,135.603 63.858,135.933 63.922 M72.646 71.200 C 72.646 74.207,72.685 75.437,72.732 73.933 C 72.780 72.430,72.780 69.970,72.732 68.467 C 72.685 66.963,72.646 68.193,72.646 71.200 M133.867 82.039 C 136.075 82.235,138.874 82.251,138.760 82.067 C 138.691 81.957,137.352 81.887,135.784 81.911 C 134.216 81.936,133.353 81.994,133.867 82.039 M170.067 82.064 L 177.600 82.142 177.600 83.994 L 177.600 85.846 175.400 85.939 L 173.200 86.031 175.467 86.016 L 177.733 86.000 177.733 84.000 L 177.733 82.000 170.133 81.994 L 162.533 81.987 170.067 82.064 M179.059 82.190 C 178.987 82.379,178.960 89.013,179.000 96.933 L 179.071 111.333 179.136 96.733 L 179.200 82.133 181.731 82.133 L 184.262 82.133 184.334 96.600 L 184.407 111.067 184.403 96.533 L 184.400 82.000 181.795 81.924 C 179.861 81.867,179.157 81.936,179.059 82.190 M207.467 82.030 C 209.058 82.231,210.873 82.251,210.759 82.067 C 210.691 81.957,209.772 81.885,208.718 81.907 C 207.663 81.929,207.100 81.984,207.467 82.030 M217.757 82.096 C 217.566 82.404,217.529 97.884,217.718 98.073 C 217.800 98.155,217.867 94.607,217.867 90.189 L 217.867 82.155 220.067 82.065 L 222.267 81.975 220.082 81.921 C 218.881 81.891,217.834 81.970,217.757 82.096 M165.131 86.062 L 167.461 86.153 167.535 98.610 L 167.608 111.067 167.604 98.533 L 167.600 86.000 165.200 85.985 L 162.800 85.970 165.131 86.062 M158.342 92.730 C 159.117 92.784,160.317 92.784,161.009 92.729 C 161.701 92.674,161.067 92.630,159.600 92.631 C 158.133 92.631,157.567 92.676,158.342 92.730 M38.616 110.866 C 40.715 110.911,44.075 110.911,46.083 110.866 C 48.091 110.821,46.373 110.784,42.267 110.784 C 38.160 110.784,36.517 110.821,38.616 110.866 M76.740 112.196 C 77.368 112.252,78.328 112.251,78.874 112.194 C 79.420 112.137,78.907 112.090,77.733 112.091 C 76.560 112.092,76.113 112.139,76.740 112.196 M201.277 176.464 C 202.200 176.517,203.640 176.516,204.477 176.463 C 205.315 176.411,204.560 176.368,202.800 176.368 C 201.040 176.369,200.355 176.412,201.277 176.464 M151.994 225.533 L 149.733 227.867 152.067 225.606 C 154.234 223.506,154.521 223.200,154.327 223.200 C 154.288 223.200,153.238 224.250,151.994 225.533 M72.128 230.467 L 69.467 233.200 72.200 230.538 C 73.703 229.074,74.933 227.844,74.933 227.805 C 74.933 227.612,74.600 227.928,72.128 230.467 M333.200 230.400 C 334.219 231.427,335.112 232.267,335.186 232.267 C 335.259 232.267,334.485 231.427,333.467 230.400 C 332.448 229.373,331.554 228.533,331.481 228.533 C 331.408 228.533,332.181 229.373,333.200 230.400 M194.667 244.083 C 194.667 244.129,195.057 244.519,195.533 244.950 L 196.400 245.733 195.617 244.867 C 194.887 244.059,194.667 243.877,194.667 244.083 M265.161 252.933 C 265.161 254.253,265.206 254.827,265.262 254.208 C 265.317 253.589,265.318 252.509,265.263 251.808 C 265.208 251.107,265.162 251.613,265.161 252.933 M140.862 255.467 C 140.862 255.980,140.917 256.190,140.984 255.933 C 141.051 255.677,141.051 255.257,140.984 255.000 C 140.917 254.743,140.862 254.953,140.862 255.467 M230.729 286.400 C 230.729 286.913,230.783 287.123,230.850 286.867 C 230.918 286.610,230.918 286.190,230.850 285.933 C 230.783 285.677,230.729 285.887,230.729 286.400 M167.795 290.667 C 167.795 291.180,167.850 291.390,167.917 291.133 C 167.984 290.877,167.984 290.457,167.917 290.200 C 167.850 289.943,167.795 290.153,167.795 290.667 M234.200 300.984 C 234.457 301.051,234.877 301.051,235.133 300.984 C 235.390 300.917,235.180 300.862,234.667 300.862 C 234.153 300.862,233.943 300.917,234.200 300.984 M198.204 302.058 C 198.609 302.119,199.209 302.118,199.537 302.054 C 199.865 301.991,199.533 301.941,198.800 301.943 C 198.067 301.945,197.798 301.997,198.204 302.058 M195.670 328.455 C 196.001 328.519,196.481 328.517,196.736 328.450 C 196.991 328.383,196.720 328.331,196.133 328.334 C 195.547 328.337,195.338 328.391,195.670 328.455 M209.536 328.455 C 209.868 328.519,210.348 328.517,210.603 328.450 C 210.858 328.383,210.587 328.331,210.000 328.334 C 209.413 328.337,209.205 328.391,209.536 328.455 " stroke="none" fill="#9cbca4" fill-rule="evenodd"></path><path id="path3" d="M78.733 33.250 C 78.990 33.318,79.410 33.318,79.667 33.250 C 79.923 33.183,79.713 33.129,79.200 33.129 C 78.687 33.129,78.477 33.183,78.733 33.250 M161.197 48.867 L 161.200 63.600 163.867 63.614 L 166.533 63.628 163.936 63.538 L 161.338 63.448 161.266 48.791 L 161.193 34.133 161.197 48.867 M170.219 35.733 C 170.219 36.687,170.267 37.077,170.326 36.600 C 170.385 36.123,170.385 35.343,170.326 34.867 C 170.267 34.390,170.219 34.780,170.219 35.733 M236.625 36.133 C 236.626 37.307,236.673 37.753,236.729 37.126 C 236.785 36.499,236.784 35.539,236.727 34.993 C 236.670 34.447,236.624 34.960,236.625 36.133 M92.800 38.533 C 93.298 39.047,93.765 39.467,93.838 39.467 C 93.911 39.467,93.564 39.047,93.067 38.533 C 92.569 38.020,92.102 37.600,92.029 37.600 C 91.955 37.600,92.302 38.020,92.800 38.533 M210.464 38.328 L 212.795 38.420 212.864 51.010 L 212.933 63.600 215.600 63.614 L 218.267 63.628 215.669 63.538 L 213.072 63.448 213.003 50.857 L 212.933 38.267 210.533 38.252 L 208.133 38.237 210.464 38.328 M219.533 38.329 C 220.230 38.384,221.370 38.384,222.067 38.329 C 222.763 38.274,222.193 38.229,220.800 38.229 C 219.407 38.229,218.837 38.274,219.533 38.329 M189.958 41.467 C 189.959 42.640,190.006 43.087,190.062 42.460 C 190.119 41.832,190.118 40.872,190.061 40.326 C 190.003 39.780,189.957 40.293,189.958 41.467 M133.717 48.800 C 133.717 52.833,133.754 54.483,133.799 52.467 C 133.845 50.450,133.845 47.150,133.799 45.133 C 133.754 43.117,133.717 44.767,133.717 48.800 M128.115 48.933 C 128.115 52.453,128.153 53.856,128.199 52.051 C 128.246 50.246,128.245 47.366,128.199 45.651 C 128.153 43.936,128.115 45.413,128.115 48.933 M34.600 69.267 C 34.637 80.083,34.698 93.913,34.737 100.000 C 34.775 106.087,34.835 97.237,34.870 80.333 C 34.905 63.430,34.843 49.600,34.733 49.600 C 34.623 49.600,34.563 58.450,34.600 69.267 M169.958 51.600 C 169.959 52.773,170.006 53.220,170.062 52.593 C 170.119 51.966,170.118 51.006,170.061 50.460 C 170.003 49.913,169.957 50.427,169.958 51.600 M174.227 51.733 C 174.227 52.980,174.272 53.490,174.329 52.867 C 174.385 52.243,174.385 51.223,174.329 50.600 C 174.272 49.977,174.227 50.487,174.227 51.733 M231.133 50.330 C 231.903 50.384,233.163 50.384,233.933 50.330 C 234.703 50.276,234.073 50.232,232.533 50.232 C 230.993 50.232,230.363 50.276,231.133 50.330 M98.225 53.733 C 98.226 54.907,98.273 55.353,98.329 54.726 C 98.385 54.099,98.384 53.139,98.327 52.593 C 98.270 52.047,98.224 52.560,98.225 53.733 M83.529 53.067 C 83.529 53.580,83.583 53.790,83.650 53.533 C 83.718 53.277,83.718 52.857,83.650 52.600 C 83.583 52.343,83.529 52.553,83.529 53.067 M140.467 52.463 C 141.237 52.517,142.497 52.517,143.267 52.463 C 144.037 52.409,143.407 52.365,141.867 52.365 C 140.327 52.365,139.697 52.409,140.467 52.463 M185.956 54.933 C 185.956 56.033,186.003 56.483,186.061 55.933 C 186.118 55.383,186.118 54.483,186.061 53.933 C 186.003 53.383,185.956 53.833,185.956 54.933 M83.529 56.000 C 83.529 56.513,83.583 56.723,83.650 56.467 C 83.718 56.210,83.718 55.790,83.650 55.533 C 83.583 55.277,83.529 55.487,83.529 56.000 M190.225 57.200 C 190.226 58.373,190.273 58.820,190.329 58.193 C 190.385 57.566,190.384 56.606,190.327 56.060 C 190.270 55.513,190.224 56.027,190.225 57.200 M209.333 63.190 C 209.333 63.332,208.163 63.487,206.733 63.535 L 204.133 63.622 206.867 63.678 C 209.143 63.724,209.600 63.667,209.600 63.333 C 209.600 63.113,209.540 62.933,209.467 62.933 C 209.393 62.933,209.333 63.049,209.333 63.190 M150.082 63.666 C 151.887 63.712,154.767 63.712,156.482 63.666 C 158.197 63.619,156.720 63.581,153.200 63.582 C 149.680 63.582,148.277 63.620,150.082 63.666 M170.867 63.662 C 171.490 63.718,172.510 63.718,173.133 63.662 C 173.757 63.606,173.247 63.560,172.000 63.560 C 170.753 63.560,170.243 63.606,170.867 63.662 M179.127 63.659 C 179.601 63.718,180.441 63.719,180.994 63.661 C 181.547 63.604,181.160 63.555,180.133 63.554 C 179.107 63.553,178.654 63.600,179.127 63.659 M187.133 63.662 C 187.757 63.718,188.777 63.718,189.400 63.662 C 190.023 63.606,189.513 63.560,188.267 63.560 C 187.020 63.560,186.510 63.606,187.133 63.662 M193.276 63.664 C 194.051 63.718,195.251 63.717,195.942 63.662 C 196.634 63.608,196.000 63.563,194.533 63.564 C 193.067 63.565,192.501 63.610,193.276 63.664 M227.415 63.666 C 229.220 63.712,232.100 63.712,233.815 63.666 C 235.530 63.619,234.053 63.581,230.533 63.582 C 227.013 63.582,225.610 63.620,227.415 63.666 M73.400 65.794 C 73.950 65.852,74.850 65.852,75.400 65.794 C 75.950 65.737,75.500 65.690,74.400 65.690 C 73.300 65.690,72.850 65.737,73.400 65.794 M93.183 67.800 L 92.400 68.667 93.267 67.883 C 94.075 67.153,94.256 66.933,94.050 66.933 C 94.004 66.933,93.614 67.323,93.183 67.800 M222.198 96.454 L 222.133 111.176 220.333 111.269 L 218.533 111.362 220.342 111.414 C 222.637 111.481,222.417 113.152,222.334 96.267 L 222.262 81.733 222.198 96.454 M60.749 86.333 C 62.848 86.378,66.208 86.378,68.216 86.333 C 70.224 86.287,68.507 86.250,64.400 86.251 C 60.293 86.251,58.651 86.288,60.749 86.333 M98.229 88.533 C 98.229 89.927,98.274 90.497,98.329 89.800 C 98.384 89.103,98.384 87.963,98.329 87.267 C 98.274 86.570,98.229 87.140,98.229 88.533 M83.529 87.200 C 83.529 87.713,83.583 87.923,83.650 87.667 C 83.718 87.410,83.718 86.990,83.650 86.733 C 83.583 86.477,83.529 86.687,83.529 87.200 M156.891 90.800 C 156.892 91.973,156.939 92.420,156.996 91.793 C 157.052 91.166,157.051 90.206,156.994 89.660 C 156.937 89.113,156.890 89.627,156.891 90.800 M162.223 90.933 C 162.223 92.033,162.270 92.483,162.328 91.933 C 162.385 91.383,162.385 90.483,162.328 89.933 C 162.270 89.383,162.223 89.833,162.223 90.933 M83.529 90.667 C 83.529 91.180,83.583 91.390,83.650 91.133 C 83.718 90.877,83.718 90.457,83.650 90.200 C 83.583 89.943,83.529 90.153,83.529 90.667 M211.467 102.907 L 211.467 111.179 209.267 111.272 L 207.067 111.364 209.333 111.349 L 211.600 111.333 211.733 103.108 C 211.807 98.583,211.777 94.826,211.667 94.759 C 211.557 94.691,211.467 98.358,211.467 102.907 M137.600 100.521 C 137.600 100.661,136.790 100.818,135.800 100.869 L 134.000 100.962 135.933 101.014 C 137.497 101.057,137.867 100.990,137.867 100.667 C 137.867 100.447,137.807 100.267,137.733 100.267 C 137.660 100.267,137.600 100.381,137.600 100.521 M156.893 102.400 C 156.893 103.647,156.939 104.157,156.995 103.533 C 157.051 102.910,157.051 101.890,156.995 101.267 C 156.939 100.643,156.893 101.153,156.893 102.400 M162.223 102.133 C 162.223 103.233,162.270 103.683,162.328 103.133 C 162.385 102.583,162.385 101.683,162.328 101.133 C 162.270 100.583,162.223 101.033,162.223 102.133 M132.267 110.889 C 132.267 111.101,131.438 111.218,129.667 111.255 L 127.067 111.311 129.576 111.399 C 131.896 111.481,132.938 111.249,132.449 110.760 C 132.349 110.660,132.267 110.718,132.267 110.889 M140.733 111.397 C 141.503 111.450,142.763 111.450,143.533 111.397 C 144.303 111.343,143.673 111.299,142.133 111.299 C 140.593 111.299,139.963 111.343,140.733 111.397 M168.876 111.397 C 169.725 111.450,171.045 111.450,171.810 111.396 C 172.574 111.343,171.880 111.299,170.267 111.300 C 168.653 111.300,168.028 111.344,168.876 111.397 M180.343 111.397 C 181.192 111.450,182.512 111.450,183.276 111.396 C 184.041 111.343,183.347 111.299,181.733 111.300 C 180.120 111.300,179.494 111.344,180.343 111.397 M197.538 176.460 C 198.017 176.519,198.737 176.518,199.138 176.457 C 199.539 176.396,199.147 176.348,198.267 176.349 C 197.387 176.351,197.059 176.401,197.538 176.460 M206.605 176.460 C 207.084 176.519,207.804 176.518,208.205 176.457 C 208.605 176.396,208.213 176.348,207.333 176.349 C 206.453 176.351,206.125 176.401,206.605 176.460 M181.404 199.391 C 181.809 199.453,182.409 199.451,182.737 199.388 C 183.065 199.324,182.733 199.274,182.000 199.276 C 181.267 199.278,180.998 199.330,181.404 199.391 M174.250 221.400 L 173.467 222.267 174.333 221.483 C 174.810 221.053,175.200 220.663,175.200 220.617 C 175.200 220.411,174.980 220.592,174.250 221.400 M165.000 224.455 C 165.330 224.518,165.870 224.518,166.200 224.455 C 166.530 224.391,166.260 224.339,165.600 224.339 C 164.940 224.339,164.670 224.391,165.000 224.455 M330.400 227.600 C 330.898 228.113,331.365 228.533,331.438 228.533 C 331.511 228.533,331.164 228.113,330.667 227.600 C 330.169 227.087,329.702 226.667,329.629 226.667 C 329.555 226.667,329.902 227.087,330.400 227.600 M336.000 233.200 C 336.498 233.713,336.965 234.133,337.038 234.133 C 337.111 234.133,336.764 233.713,336.267 233.200 C 335.769 232.687,335.302 232.267,335.229 232.267 C 335.155 232.267,335.502 232.687,336.000 233.200 M252.606 242.400 C 252.606 243.060,252.658 243.330,252.722 243.000 C 252.785 242.670,252.785 242.130,252.722 241.800 C 252.658 241.470,252.606 241.740,252.606 242.400 M197.200 246.667 C 197.773 247.253,198.302 247.733,198.375 247.733 C 198.448 247.733,198.040 247.253,197.467 246.667 C 196.894 246.080,196.365 245.600,196.292 245.600 C 196.218 245.600,196.627 246.080,197.200 246.667 M140.890 252.800 C 140.890 253.900,140.937 254.350,140.994 253.800 C 141.052 253.250,141.052 252.350,140.994 251.800 C 140.937 251.250,140.890 251.700,140.890 252.800 M242.995 259.200 C 242.995 259.713,243.050 259.923,243.117 259.667 C 243.184 259.410,243.184 258.990,243.117 258.733 C 243.050 258.477,242.995 258.687,242.995 259.200 M187.813 277.067 C 187.813 277.873,187.863 278.203,187.924 277.800 C 187.985 277.397,187.985 276.737,187.924 276.333 C 187.863 275.930,187.813 276.260,187.813 277.067 M167.795 289.067 C 167.795 289.580,167.850 289.790,167.917 289.533 C 167.984 289.277,167.984 288.857,167.917 288.600 C 167.850 288.343,167.795 288.553,167.795 289.067 M193.933 328.450 C 194.190 328.518,194.610 328.518,194.867 328.450 C 195.123 328.383,194.913 328.329,194.400 328.329 C 193.887 328.329,193.677 328.383,193.933 328.450 M211.267 328.450 C 211.523 328.518,211.943 328.518,212.200 328.450 C 212.457 328.383,212.247 328.329,211.733 328.329 C 211.220 328.329,211.010 328.383,211.267 328.450 " stroke="none" fill="#6c9c74" fill-rule="evenodd"></path><path id="path4" d="M148.476 34.330 C 149.251 34.384,150.451 34.384,151.142 34.329 C 151.834 34.274,151.200 34.230,149.733 34.231 C 148.267 34.231,147.701 34.276,148.476 34.330 M163.798 34.332 L 166.395 34.419 166.467 49.010 L 166.538 63.600 166.602 48.867 L 166.667 34.133 163.933 34.189 L 161.200 34.245 163.798 34.332 M171.667 34.330 C 172.437 34.384,173.697 34.384,174.467 34.330 C 175.237 34.276,174.607 34.232,173.067 34.232 C 171.527 34.232,170.897 34.276,171.667 34.330 M184.440 34.333 C 184.372 34.443,185.496 34.496,186.937 34.449 C 189.495 34.367,189.561 34.380,189.676 34.983 C 189.781 35.533,189.798 35.521,189.830 34.867 L 189.867 34.133 187.216 34.133 C 185.758 34.133,184.509 34.223,184.440 34.333 M199.276 34.331 C 200.125 34.384,201.445 34.383,202.210 34.330 C 202.974 34.276,202.280 34.232,200.667 34.233 C 199.053 34.234,198.428 34.278,199.276 34.331 M215.522 34.333 L 222.910 34.408 223.002 36.338 L 223.094 38.267 223.147 36.200 L 223.200 34.133 215.667 34.196 L 208.133 34.258 215.522 34.333 M224.331 48.867 L 224.395 63.600 224.467 49.005 L 224.538 34.410 230.602 34.333 L 236.667 34.256 230.467 34.195 L 224.267 34.133 224.331 48.867 M231.544 38.065 C 232.541 38.116,234.101 38.116,235.011 38.064 C 235.922 38.012,235.107 37.970,233.200 37.970 C 231.293 37.971,230.548 38.013,231.544 38.065 M170.225 43.333 C 170.226 44.507,170.273 44.953,170.329 44.326 C 170.385 43.699,170.384 42.739,170.327 42.193 C 170.270 41.647,170.224 42.160,170.225 43.333 M23.786 48.067 C 23.757 51.110,23.823 53.600,23.933 53.600 C 24.043 53.601,24.102 51.951,24.064 49.934 C 23.936 43.148,23.840 42.498,23.786 48.067 M174.133 44.651 C 174.133 45.468,174.285 45.534,174.477 44.800 C 174.554 44.507,174.508 44.200,174.375 44.118 C 174.242 44.036,174.133 44.276,174.133 44.651 M185.958 47.333 C 185.959 48.507,186.006 48.953,186.062 48.326 C 186.119 47.699,186.118 46.739,186.061 46.193 C 186.003 45.647,185.957 46.160,185.958 47.333 M189.958 49.200 C 189.959 50.373,190.006 50.820,190.062 50.193 C 190.119 49.566,190.118 48.606,190.061 48.060 C 190.003 47.513,189.957 48.027,189.958 49.200 M71.556 56.533 C 71.556 57.633,71.603 58.083,71.661 57.533 C 71.718 56.983,71.718 56.083,71.661 55.533 C 71.603 54.983,71.556 55.433,71.556 56.533 M199.067 56.702 C 200.952 56.900,203.408 56.918,203.293 56.733 C 203.225 56.623,202.066 56.553,200.718 56.576 C 199.370 56.599,198.627 56.656,199.067 56.702 M169.958 59.600 C 169.959 60.773,170.006 61.220,170.062 60.593 C 170.119 59.966,170.118 59.006,170.061 58.460 C 170.003 57.913,169.957 58.427,169.958 59.600 M173.960 60.267 C 173.960 61.513,174.006 62.023,174.062 61.400 C 174.118 60.777,174.118 59.757,174.062 59.133 C 174.006 58.510,173.960 59.020,173.960 60.267 M155.788 59.932 L 159.176 60.016 159.269 61.808 L 159.362 63.600 159.414 61.667 L 159.467 59.733 155.933 59.791 L 152.400 59.849 155.788 59.932 M233.121 59.932 L 236.509 60.016 236.602 61.808 L 236.696 63.600 236.748 61.667 L 236.800 59.733 233.267 59.791 L 229.733 59.849 233.121 59.932 M186.216 62.000 C 186.217 62.880,186.267 63.208,186.327 62.729 C 186.386 62.249,186.385 61.529,186.324 61.129 C 186.263 60.728,186.214 61.120,186.216 62.000 M153.670 81.791 C 154.076 81.853,154.676 81.851,155.004 81.788 C 155.332 81.724,155.000 81.674,154.267 81.676 C 153.533 81.678,153.265 81.730,153.670 81.791 M195.004 81.791 C 195.409 81.853,196.009 81.851,196.337 81.788 C 196.665 81.724,196.333 81.674,195.600 81.676 C 194.867 81.678,194.598 81.730,195.004 81.791 M172.923 98.667 C 172.923 105.633,172.958 108.483,173.000 105.000 C 173.042 101.517,173.042 95.817,173.000 92.333 C 172.958 88.850,172.923 91.700,172.923 98.667 M71.549 87.867 C 71.551 88.747,71.601 89.075,71.660 88.595 C 71.719 88.116,71.718 87.396,71.657 86.995 C 71.596 86.595,71.548 86.987,71.549 87.867 M151.318 96.533 C 151.318 100.860,151.355 102.630,151.399 100.467 C 151.444 98.303,151.444 94.763,151.399 92.600 C 151.355 90.437,151.318 92.207,151.318 96.533 M192.651 96.667 C 192.651 100.920,192.688 102.623,192.733 100.450 C 192.778 98.278,192.778 94.798,192.733 92.717 C 192.688 90.636,192.651 92.413,192.651 96.667 M145.983 96.667 C 145.983 100.627,146.020 102.284,146.066 100.349 C 146.111 98.415,146.111 95.175,146.066 93.149 C 146.021 91.124,145.984 92.707,145.983 96.667 M187.316 96.533 C 187.316 100.420,187.354 102.010,187.399 100.067 C 187.445 98.123,187.445 94.943,187.399 93.000 C 187.354 91.057,187.316 92.647,187.316 96.533 M204.115 96.533 C 204.115 99.980,204.153 101.390,204.199 99.667 C 204.246 97.943,204.246 95.123,204.199 93.400 C 204.153 91.677,204.115 93.087,204.115 96.533 M77.400 99.917 C 77.657 99.984,78.077 99.984,78.333 99.917 C 78.590 99.850,78.380 99.795,77.867 99.795 C 77.353 99.795,77.143 99.850,77.400 99.917 M153.803 111.655 C 154.135 111.719,154.615 111.717,154.870 111.650 C 155.125 111.583,154.853 111.531,154.267 111.534 C 153.680 111.537,153.471 111.591,153.803 111.655 M195.267 111.650 C 195.523 111.718,195.943 111.718,196.200 111.650 C 196.457 111.583,196.247 111.529,195.733 111.529 C 195.220 111.529,195.010 111.583,195.267 111.650 M211.000 176.717 C 211.257 176.784,211.677 176.784,211.933 176.717 C 212.190 176.650,211.980 176.595,211.467 176.595 C 210.953 176.595,210.743 176.650,211.000 176.717 M246.933 208.933 C 247.878 209.887,248.711 210.667,248.785 210.667 C 248.858 210.667,248.145 209.887,247.200 208.933 C 246.255 207.980,245.422 207.200,245.349 207.200 C 245.275 207.200,245.988 207.980,246.933 208.933 M193.067 242.483 C 193.067 242.529,193.457 242.919,193.933 243.350 L 194.800 244.133 194.017 243.267 C 193.287 242.459,193.067 242.277,193.067 242.483 M69.067 271.017 C 69.067 271.063,69.457 271.453,69.933 271.883 L 70.800 272.667 70.017 271.800 C 69.287 270.992,69.067 270.811,69.067 271.017 M74.400 276.350 C 74.400 276.396,74.790 276.786,75.267 277.217 L 76.133 278.000 75.350 277.133 C 74.620 276.325,74.400 276.144,74.400 276.350 M189.139 282.400 C 189.139 283.060,189.191 283.330,189.255 283.000 C 189.318 282.670,189.318 282.130,189.255 281.800 C 189.191 281.470,189.139 281.740,189.139 282.400 M202.470 315.125 C 202.876 315.186,203.476 315.184,203.804 315.121 C 204.132 315.058,203.800 315.008,203.067 315.010 C 202.333 315.012,202.065 315.063,202.470 315.125 M197.805 328.460 C 198.284 328.519,199.004 328.518,199.405 328.457 C 199.805 328.396,199.413 328.348,198.533 328.349 C 197.653 328.351,197.325 328.401,197.805 328.460 M206.871 328.460 C 207.351 328.519,208.071 328.518,208.471 328.457 C 208.872 328.396,208.480 328.348,207.600 328.349 C 206.720 328.351,206.392 328.401,206.871 328.460 " stroke="none" fill="#acc4ac" fill-rule="evenodd"></path></g></svg>