<svg id="svg" version="1.1" xmlns="http://www.w3.org/2000/svg" xmlns:xlink="http://www.w3.org/1999/xlink" width="400" height="400" viewBox="0, 0, 400,400"><g id="svgg"><path id="path0" d="M254.533 33.995 C 254.387 34.048,253.709 34.166,253.027 34.258 C 249.336 34.754,247.037 38.828,247.977 43.209 C 248.443 45.380,249.577 46.880,253.013 49.865 C 258.122 54.303,259.340 56.930,257.297 59.105 C 255.485 61.035,252.953 59.117,252.395 55.390 C 252.270 54.562,252.075 54.133,251.822 54.133 C 250.797 54.133,247.733 55.012,247.733 55.306 C 247.733 60.446,250.720 63.593,255.600 63.598 C 260.789 63.602,263.101 61.223,262.893 56.090 C 262.741 52.352,261.638 50.661,256.375 46.098 C 252.480 42.721,251.595 40.380,253.553 38.631 C 255.619 36.785,258.133 38.670,258.133 42.066 C 258.133 42.543,258.250 42.671,258.600 42.575 C 258.857 42.505,259.855 42.307,260.819 42.136 L 262.572 41.824 262.377 40.389 C 261.989 37.528,260.441 35.219,258.399 34.454 C 257.641 34.170,254.935 33.849,254.533 33.995 M317.845 34.125 C 314.027 34.806,312.265 37.060,312.269 41.258 C 312.273 45.034,312.927 46.074,318.106 50.553 C 321.388 53.392,322.392 54.873,322.397 56.880 C 322.402 58.838,321.595 59.733,319.824 59.733 C 318.152 59.733,317.236 58.388,316.675 55.107 C 316.479 53.962,316.685 53.987,313.294 54.704 L 312.055 54.966 312.184 56.083 C 312.749 60.986,315.073 63.425,319.418 63.674 C 324.516 63.967,327.317 61.423,327.312 56.504 C 327.308 52.661,326.248 50.993,320.565 45.881 C 316.802 42.497,316.036 40.457,317.846 38.646 C 319.823 36.669,322.392 38.541,322.399 41.962 C 322.400 42.617,322.485 42.704,323.000 42.581 C 323.330 42.503,324.355 42.293,325.277 42.116 L 326.955 41.793 326.776 40.563 C 326.058 35.626,322.761 33.249,317.845 34.125 M35.873 35.759 C 33.638 37.609,28.577 40.519,24.867 42.089 L 23.467 42.681 23.467 48.007 C 23.467 50.937,23.544 53.333,23.639 53.333 C 23.954 53.333,32.920 50.082,33.667 49.698 L 34.400 49.320 34.400 79.993 L 34.400 110.667 41.733 110.667 L 49.067 110.667 49.067 72.533 L 49.067 34.400 43.267 34.421 L 37.467 34.442 35.873 35.759 M57.867 39.867 L 57.867 45.333 68.133 45.333 C 74.482 45.333,78.400 45.431,78.400 45.588 C 78.400 45.859,62.742 109.762,62.535 110.338 C 62.438 110.606,63.874 110.661,69.510 110.604 L 76.606 110.533 84.560 77.600 L 92.514 44.667 92.524 39.533 L 92.533 34.400 75.200 34.400 L 57.867 34.400 57.867 39.867 M127.733 48.933 L 127.733 63.467 130.262 63.467 L 132.791 63.467 132.862 57.000 L 132.933 50.533 135.631 50.369 C 141.276 50.026,143.324 47.977,143.330 42.667 C 143.338 35.880,141.469 34.400,132.886 34.400 L 127.733 34.400 127.733 48.933 M148.533 34.467 C 148.533 34.503,147.213 41.003,145.600 48.909 C 143.987 56.816,142.667 63.326,142.667 63.376 C 142.667 63.426,143.782 63.467,145.144 63.467 L 147.622 63.467 148.113 60.467 C 148.791 56.329,148.617 56.533,151.476 56.533 C 152.791 56.533,153.872 56.563,153.880 56.600 C 153.887 56.637,154.161 58.167,154.488 60.000 L 155.084 63.333 157.549 63.410 C 159.999 63.486,160.014 63.483,159.870 62.877 C 159.790 62.541,158.585 56.627,157.193 49.733 C 155.801 42.840,154.534 36.570,154.378 35.800 L 154.096 34.400 151.314 34.400 C 149.785 34.400,148.533 34.430,148.533 34.467 M162.133 48.933 L 162.133 63.467 164.800 63.467 L 167.467 63.467 167.467 56.800 L 167.467 50.133 168.637 50.133 L 169.807 50.133 170.253 51.800 C 170.499 52.717,171.274 55.687,171.976 58.400 L 173.253 63.333 175.924 63.409 L 178.595 63.485 176.598 56.411 L 174.601 49.338 175.944 48.069 C 179.076 45.108,178.713 37.904,175.324 35.755 C 173.561 34.636,172.071 34.400,166.787 34.400 L 162.133 34.400 162.133 48.933 M179.467 36.267 L 179.467 38.133 181.867 38.133 L 184.267 38.133 184.267 50.800 L 184.267 63.467 186.797 63.467 L 189.328 63.467 189.397 50.867 L 189.467 38.267 191.800 38.190 L 194.133 38.113 194.133 36.256 L 194.133 34.400 186.800 34.400 L 179.467 34.400 179.467 36.267 M195.733 48.922 L 195.733 63.467 197.996 63.467 L 200.259 63.467 200.330 54.867 L 200.400 46.267 203.972 54.867 L 207.544 63.467 209.239 63.467 L 210.933 63.467 210.933 48.933 L 210.933 34.400 208.800 34.400 L 206.667 34.400 206.667 42.444 C 206.667 46.869,206.583 50.406,206.481 50.304 C 206.379 50.202,204.779 46.612,202.925 42.326 L 199.553 34.533 197.643 34.455 L 195.733 34.377 195.733 48.922 M214.667 48.933 L 214.667 63.467 220.800 63.467 L 226.933 63.467 226.933 61.741 L 226.933 60.015 223.400 59.941 L 219.867 59.867 219.867 55.067 L 219.867 50.267 222.600 50.191 L 225.333 50.115 225.333 48.257 L 225.333 46.400 222.527 46.400 L 219.720 46.400 219.793 42.200 L 219.867 38.000 223.267 37.925 L 226.667 37.851 226.667 36.125 L 226.667 34.400 220.667 34.400 L 214.667 34.400 214.667 48.933 M229.333 48.910 L 229.333 63.467 231.867 63.467 L 234.400 63.467 234.400 56.800 L 234.400 50.133 235.668 50.133 L 236.936 50.133 238.667 56.800 L 240.397 63.467 242.999 63.467 C 244.429 63.467,245.599 63.377,245.597 63.267 C 245.595 63.157,244.705 59.947,243.618 56.133 C 241.903 50.113,241.697 49.165,242.050 48.933 C 244.255 47.490,244.843 46.294,245.008 42.916 C 245.337 36.208,243.393 34.607,234.733 34.450 L 229.333 34.353 229.333 48.910 M265.600 48.933 L 265.600 63.467 268.129 63.467 L 270.657 63.467 270.729 56.867 L 270.800 50.267 273.800 50.191 L 276.800 50.116 276.800 56.791 L 276.800 63.467 279.467 63.467 L 282.133 63.467 282.133 48.933 L 282.133 34.400 279.472 34.400 L 276.810 34.400 276.738 40.467 L 276.667 46.533 273.733 46.533 L 270.800 46.533 270.728 40.467 L 270.657 34.400 268.128 34.400 L 265.600 34.400 265.600 48.933 M285.867 48.933 L 285.867 63.467 288.533 63.467 L 291.200 63.467 291.200 48.933 L 291.200 34.400 288.533 34.400 L 285.867 34.400 285.867 48.933 M294.933 48.933 L 294.933 63.467 297.462 63.467 L 299.991 63.467 300.062 57.000 L 300.133 50.533 302.831 50.369 C 308.763 50.009,310.974 47.469,310.599 41.445 C 310.241 35.697,308.306 34.400,300.086 34.400 L 294.933 34.400 294.933 48.933 M136.508 38.215 C 138.038 38.751,138.477 39.631,138.487 42.183 C 138.502 45.786,137.691 46.667,134.360 46.667 L 132.800 46.667 132.800 42.444 C 132.800 40.122,132.880 38.142,132.978 38.044 C 133.263 37.759,135.519 37.868,136.508 38.215 M171.200 38.334 C 172.590 39.028,173.113 40.257,173.009 42.586 C 172.880 45.518,172.006 46.434,169.000 46.790 L 167.467 46.972 167.467 42.419 L 167.467 37.867 168.867 37.867 C 169.665 37.867,170.668 38.068,171.200 38.334 M238.854 38.567 C 239.796 39.271,240.340 41.042,240.171 42.854 C 239.916 45.575,238.877 46.569,236.133 46.715 L 234.533 46.800 234.460 42.303 L 234.387 37.806 236.252 37.911 C 237.600 37.987,238.321 38.169,238.854 38.567 M303.708 38.215 C 305.221 38.745,305.718 39.695,305.726 42.077 C 305.739 45.680,304.883 46.667,301.747 46.667 L 300.000 46.667 300.000 42.444 C 300.000 40.122,300.080 38.142,300.178 38.044 C 300.463 37.759,302.719 37.868,303.708 38.215 M152.400 47.429 C 152.913 50.537,153.333 53.137,153.333 53.206 C 153.333 53.276,152.424 53.333,151.312 53.333 L 149.291 53.333 149.437 52.600 C 149.626 51.650,151.200 41.900,151.200 41.679 C 151.200 41.587,151.260 41.571,151.333 41.644 C 151.407 41.718,151.887 44.321,152.400 47.429 M145.659 82.245 C 141.745 83.514,140.809 86.272,140.809 96.533 C 140.809 108.468,142.199 111.136,148.563 111.414 C 156.118 111.744,157.391 109.785,157.540 97.600 C 157.680 86.181,157.212 84.389,153.600 82.508 C 152.367 81.866,147.341 81.699,145.659 82.245 M247.624 82.286 C 243.785 83.693,242.946 86.268,242.941 96.667 C 242.935 106.596,243.711 109.278,247.035 110.826 C 250.040 112.225,253.620 111.591,255.097 109.398 C 255.734 108.453,255.988 108.755,255.996 110.467 C 256.000 111.191,256.021 111.200,257.733 111.200 L 259.467 111.200 259.467 103.867 L 259.467 96.533 255.600 96.533 L 251.733 96.533 251.733 98.133 L 251.733 99.733 253.200 99.733 L 254.667 99.733 254.667 102.275 C 254.667 106.037,253.903 107.408,251.665 107.660 C 248.701 107.994,248.266 106.545,248.268 96.349 C 248.270 86.551,248.439 85.926,251.148 85.665 C 253.379 85.451,254.378 86.887,254.394 90.333 L 254.400 91.733 256.836 91.733 L 259.271 91.733 259.145 89.115 C 258.956 85.183,257.776 83.269,254.917 82.261 C 253.468 81.750,249.047 81.765,247.624 82.286 M267.198 82.102 C 265.042 82.803,263.977 83.750,262.967 85.867 L 262.267 87.333 262.183 95.963 C 262.076 107.039,262.557 108.922,265.959 110.741 C 267.586 111.611,273.199 111.622,274.800 110.758 C 278.223 108.911,278.516 107.872,278.614 97.248 C 278.715 86.147,278.323 84.537,275.084 82.755 C 273.655 81.969,268.836 81.570,267.198 82.102 M316.989 82.275 C 314.326 83.253,313.037 85.118,312.855 88.258 C 312.614 92.436,313.020 93.081,319.922 99.467 C 322.683 102.021,323.491 103.656,322.941 105.572 C 321.878 109.279,317.943 107.681,317.432 103.334 L 317.255 101.822 316.294 101.999 C 315.766 102.096,314.748 102.299,314.032 102.450 L 312.730 102.726 312.898 104.363 C 313.929 114.403,328.475 113.908,327.947 103.851 C 327.781 100.694,326.957 99.147,323.908 96.267 C 317.382 90.103,316.940 89.438,317.873 87.184 C 318.900 84.704,322.347 85.388,322.796 88.160 C 323.158 90.400,323.187 90.460,323.812 90.315 C 324.135 90.240,325.105 90.036,325.967 89.863 L 327.535 89.548 327.376 88.174 C 326.796 83.171,321.988 80.441,316.989 82.275 M127.733 96.667 L 127.733 111.200 130.262 111.200 L 132.791 111.200 132.862 104.600 L 132.933 98.000 135.533 97.924 L 138.133 97.847 138.133 96.133 L 138.133 94.419 135.533 94.343 L 132.933 94.267 132.933 90.000 L 132.933 85.733 136.200 85.658 L 139.467 85.584 139.467 83.858 L 139.467 82.133 133.600 82.133 L 127.733 82.133 127.733 96.667 M160.533 96.667 L 160.533 111.200 163.200 111.200 L 165.867 111.200 165.867 104.533 L 165.867 97.867 167.067 97.867 C 167.727 97.867,168.267 97.897,168.268 97.933 C 168.277 98.243,171.695 110.984,171.797 111.086 C 171.871 111.160,173.067 111.186,174.455 111.143 L 176.979 111.067 175.168 104.667 C 172.739 96.084,172.865 96.968,173.973 96.284 C 177.357 94.192,177.304 85.843,173.891 83.585 C 172.190 82.459,170.275 82.142,165.133 82.137 L 160.533 82.133 160.533 96.667 M185.333 84.000 L 185.333 85.867 187.733 85.867 L 190.133 85.867 190.133 98.533 L 190.133 111.200 192.664 111.200 L 195.195 111.200 195.264 98.600 L 195.333 86.000 197.667 85.923 L 200.000 85.846 200.000 83.990 L 200.000 82.133 192.667 82.133 L 185.333 82.133 185.333 84.000 M201.600 96.667 L 201.600 111.200 204.129 111.200 L 206.657 111.200 206.729 104.600 L 206.800 98.000 209.733 98.000 L 212.667 98.000 212.738 104.600 L 212.809 111.200 215.338 111.200 L 217.867 111.200 217.867 96.667 L 217.867 82.133 215.338 82.133 L 212.810 82.133 212.738 88.200 L 212.667 94.267 209.733 94.267 L 206.800 94.267 206.728 88.200 L 206.657 82.133 204.128 82.133 L 201.600 82.133 201.600 96.667 M221.333 96.667 L 221.333 111.200 227.467 111.200 L 233.600 111.200 233.600 109.475 L 233.600 107.749 230.200 107.675 L 226.800 107.600 226.727 102.733 L 226.655 97.867 229.327 97.867 L 232.000 97.867 232.000 96.000 L 232.000 94.133 229.327 94.133 L 226.653 94.133 226.727 89.933 L 226.800 85.733 230.200 85.659 L 233.600 85.584 233.600 83.859 L 233.600 82.133 227.467 82.133 L 221.333 82.133 221.333 96.667 M286.001 82.733 C 285.719 83.916,280.267 110.801,280.267 111.008 C 280.267 111.125,281.372 111.186,282.722 111.143 L 285.177 111.067 285.728 107.867 L 286.279 104.667 288.849 104.591 L 291.418 104.515 291.686 105.791 C 291.832 106.492,292.100 107.997,292.280 109.133 L 292.607 111.200 295.074 111.200 L 297.542 111.200 296.531 106.333 C 295.975 103.657,294.645 97.117,293.575 91.800 L 291.630 82.133 288.887 82.133 C 286.262 82.133,286.137 82.159,286.001 82.733 M299.467 96.667 L 299.467 111.200 305.600 111.200 L 311.733 111.200 311.733 109.474 L 311.733 107.749 308.200 107.674 L 304.667 107.600 304.597 94.867 L 304.528 82.133 301.997 82.133 L 299.467 82.133 299.467 96.667 M150.775 85.904 C 152.217 86.561,152.294 87.160,152.210 97.056 L 152.133 106.122 151.452 106.803 C 150.084 108.170,147.602 107.905,146.721 106.296 C 146.078 105.122,146.031 88.334,146.667 87.074 C 147.345 85.731,149.221 85.196,150.775 85.904 M169.324 85.948 C 170.790 86.453,171.467 87.712,171.467 89.932 C 171.467 93.181,170.544 94.254,167.473 94.575 L 165.867 94.743 165.867 90.171 L 165.867 85.600 167.133 85.615 C 167.830 85.623,168.816 85.773,169.324 85.948 M271.837 85.855 C 273.333 86.424,273.458 87.140,273.554 95.656 C 273.655 104.637,273.494 105.993,272.195 107.086 C 271.101 108.006,269.368 107.890,268.302 106.823 L 267.600 106.122 267.517 97.261 C 267.427 87.602,267.528 86.674,268.743 86.014 C 269.584 85.558,270.879 85.491,271.837 85.855 M289.845 94.667 C 290.303 97.527,290.737 100.137,290.811 100.467 C 290.939 101.047,290.879 101.067,288.938 101.067 C 287.836 101.067,286.933 100.969,286.933 100.850 C 286.933 99.999,288.807 89.248,288.932 89.381 C 288.976 89.428,289.387 91.807,289.845 94.667 M197.067 155.770 C 177.642 157.759,160.697 170.582,153.595 188.667 C 152.813 190.657,152.988 190.556,149.984 190.754 C 134.115 191.796,118.147 201.884,109.685 216.213 C 96.790 238.047,101.570 266.801,120.750 282.778 L 122.604 284.321 122.230 285.694 C 117.775 302.066,122.329 320.800,133.941 333.867 C 150.639 352.658,179.126 356.760,200.569 343.461 L 202.637 342.178 205.495 343.877 C 244.104 366.844,291.978 332.166,283.041 287.706 L 282.336 284.198 283.635 283.102 C 306.914 263.459,308.731 228.457,287.614 206.439 C 279.104 197.565,266.527 191.588,254.546 190.722 L 251.941 190.533 250.565 187.333 C 241.472 166.188,219.859 153.436,197.067 155.770 M209.333 166.565 C 221.441 168.560,232.623 176.437,238.885 187.383 C 240.566 190.321,240.913 191.186,240.464 191.312 C 240.282 191.363,238.753 191.730,237.067 192.127 C 223.017 195.439,209.528 206.174,203.300 219.000 C 202.401 220.852,202.394 220.853,201.627 219.267 C 195.238 206.048,180.885 194.803,166.622 191.841 C 163.773 191.249,163.809 191.299,164.812 189.300 C 173.103 172.778,191.141 163.567,209.333 166.565 M150.223 202.333 C 149.857 204.161,150.033 212.767,150.499 215.733 C 152.227 226.749,157.124 236.592,164.871 244.618 C 165.978 245.765,166.744 246.744,166.575 246.794 C 166.405 246.845,165.309 247.030,164.139 247.206 C 149.070 249.468,136.336 258.493,127.028 273.507 C 126.658 274.104,125.574 273.167,122.814 269.867 C 107.192 251.184,110.344 223.953,129.822 209.328 C 135.439 205.111,144.186 201.557,149.412 201.370 L 150.424 201.333 150.223 202.333 M258.078 201.751 C 290.408 208.317,302.813 247.042,280.447 271.578 C 277.939 274.329,278.278 274.322,276.728 271.655 C 269.530 259.272,256.412 249.959,242.267 247.192 C 240.653 246.877,239.043 246.562,238.689 246.493 C 238.089 246.376,238.192 246.216,240.176 244.184 C 247.003 237.190,251.989 227.666,253.838 218.086 C 254.406 215.144,254.988 208.175,254.797 206.618 C 254.737 206.131,254.627 204.743,254.552 203.533 L 254.417 201.333 255.220 201.333 C 255.661 201.333,256.947 201.521,258.078 201.751 M164.000 202.010 C 184.629 206.802,199.150 226.965,196.527 247.176 C 196.204 249.668,196.453 249.542,193.259 248.827 C 172.581 244.196,158.448 224.563,160.652 203.533 C 160.886 201.294,160.895 201.289,164.000 202.010 M244.083 203.333 C 246.782 223.251,232.795 243.329,212.582 248.553 C 207.869 249.771,208.122 250.122,208.154 242.400 C 208.233 223.370,220.976 207.237,239.867 202.248 C 243.501 201.288,243.817 201.370,244.083 203.333 M239.803 257.328 C 251.681 259.841,261.773 267.044,267.868 277.360 C 268.674 278.724,269.333 279.924,269.333 280.028 C 269.333 280.624,261.811 283.290,257.600 284.185 C 254.008 284.949,245.329 284.875,241.642 284.049 C 229.298 281.285,219.291 273.860,213.091 262.865 L 212.225 261.330 214.046 260.512 C 218.165 258.664,223.164 257.271,227.733 256.698 C 230.018 256.412,237.260 256.790,239.803 257.328 M176.838 257.077 C 181.395 257.533,187.682 259.290,191.283 261.113 L 192.300 261.628 191.323 263.414 C 181.053 282.188,157.231 290.022,137.533 281.104 C 135.367 280.123,135.376 280.218,137.181 277.212 C 145.377 263.561,161.228 255.513,176.838 257.077 M207.133 274.631 C 218.600 290.468,217.136 313.465,203.783 327.263 L 202.560 328.526 201.919 327.930 C 186.407 313.497,185.974 285.556,201.022 270.051 L 202.267 268.768 203.867 270.549 C 204.747 271.528,206.217 273.365,207.133 274.631 M231.786 292.099 C 243.613 296.517,257.739 296.326,269.412 291.591 C 271.056 290.924,272.515 290.354,272.655 290.323 C 273.639 290.106,273.951 300.765,273.102 305.600 C 268.567 331.422,241.288 347.102,217.130 337.772 C 215.162 337.012,211.578 335.357,211.239 335.052 C 211.187 335.005,211.985 333.969,213.011 332.750 C 223.004 320.881,227.417 304.516,224.633 289.647 L 224.467 288.761 226.833 289.947 C 228.135 290.599,230.364 291.568,231.786 292.099 M179.801 291.400 C 177.574 305.838,182.427 321.775,192.580 333.365 L 194.127 335.130 191.397 336.472 C 181.366 341.401,169.878 342.133,159.427 338.511 C 140.363 331.903,128.544 312.562,131.494 292.800 C 131.914 289.987,131.866 290.055,133.017 290.637 C 145.493 296.952,164.632 296.727,177.600 290.113 C 180.309 288.732,180.221 288.680,179.801 291.400 " stroke="none" fill="#fafbfb" fill-rule="evenodd"></path><path id="path1" d="M0.000 200.000 L 0.000 400.000 200.000 400.000 L 400.000 400.000 400.000 200.000 L 400.000 0.000 200.000 0.000 L 0.000 0.000 0.000 200.000 M259.372 34.811 C 261.040 35.828,262.437 38.401,262.495 40.566 L 262.533 41.967 260.339 42.411 C 257.878 42.909,257.867 42.905,257.867 41.729 C 257.867 38.280,254.266 36.570,253.072 39.453 C 252.315 41.281,252.867 42.571,255.417 44.933 C 262.394 51.395,263.067 52.416,263.066 56.533 C 263.063 66.853,248.408 66.471,247.692 56.133 L 247.600 54.800 249.600 54.359 C 252.595 53.698,252.434 53.638,252.626 55.479 C 253.130 60.305,257.867 61.443,257.867 56.738 C 257.867 54.804,257.019 53.578,253.648 50.637 C 247.959 45.674,246.736 43.049,248.002 38.527 C 249.144 34.446,255.412 32.398,259.372 34.811 M323.067 34.501 C 325.269 35.539,326.399 37.271,326.881 40.348 C 327.153 42.083,327.459 41.838,324.181 42.506 C 322.148 42.920,322.245 42.990,322.050 40.970 C 321.686 37.188,317.195 37.019,317.251 40.790 C 317.278 42.559,317.943 43.554,320.608 45.817 C 325.858 50.275,327.223 52.332,327.414 56.075 C 327.941 66.438,313.036 66.879,312.093 56.528 L 311.934 54.790 314.167 54.327 C 316.946 53.751,316.800 53.740,316.800 54.520 C 316.800 58.366,319.856 61.153,321.648 58.940 C 323.128 57.112,322.039 54.249,318.747 51.318 C 312.490 45.747,312.134 45.202,312.134 41.200 C 312.133 35.309,317.634 31.938,323.067 34.501 M49.067 72.538 L 49.067 110.942 41.667 110.871 L 34.267 110.800 34.199 80.230 L 34.131 49.659 32.295 50.406 C 30.575 51.106,23.562 53.600,23.313 53.600 C 23.251 53.600,23.200 51.153,23.200 48.162 L 23.200 42.725 26.828 40.963 C 31.378 38.754,34.527 36.860,36.182 35.337 L 37.467 34.155 43.267 34.144 L 49.067 34.133 49.067 72.538 M92.812 39.000 L 92.825 43.867 84.753 77.400 L 76.681 110.933 69.540 110.933 C 64.159 110.933,62.400 110.854,62.400 110.613 C 62.400 110.437,65.940 95.886,70.267 78.278 C 74.593 60.670,78.133 46.114,78.133 45.932 C 78.133 45.673,75.875 45.600,67.867 45.600 L 57.600 45.600 57.600 39.867 L 57.600 34.133 75.200 34.133 L 92.800 34.133 92.812 39.000 M138.952 34.561 C 142.003 35.461,143.571 38.183,143.544 42.533 C 143.510 47.936,141.285 50.209,135.667 50.577 L 133.067 50.747 133.067 57.250 L 133.067 63.752 130.333 63.676 L 127.600 63.600 127.531 48.867 L 127.462 34.133 132.483 34.133 C 136.308 34.133,137.848 34.235,138.952 34.561 M157.105 48.400 C 160.630 65.726,160.580 63.733,157.494 63.733 L 154.989 63.733 154.567 61.400 C 154.336 60.117,154.068 58.557,153.972 57.933 L 153.799 56.800 151.353 56.800 L 148.908 56.800 148.431 59.667 C 147.673 64.218,148.057 63.733,145.216 63.733 C 143.863 63.733,142.692 63.670,142.615 63.593 C 142.492 63.470,148.075 35.347,148.399 34.458 C 148.492 34.201,149.241 34.134,151.376 34.191 L 154.229 34.267 157.105 48.400 M172.366 34.439 C 176.232 35.215,177.903 37.268,178.086 41.467 C 178.249 45.195,177.384 47.595,175.455 48.768 L 174.730 49.209 176.692 56.138 C 177.772 59.949,178.658 63.217,178.661 63.400 C 178.673 64.097,173.360 63.842,173.100 63.133 C 172.978 62.803,172.171 59.803,171.306 56.467 L 169.733 50.400 168.600 50.400 L 167.467 50.400 167.467 57.076 L 167.467 63.752 164.733 63.676 L 162.000 63.600 161.931 48.867 L 161.862 34.133 166.353 34.133 C 168.823 34.133,171.529 34.271,172.366 34.439 M194.345 36.200 L 194.267 38.267 191.933 38.344 L 189.600 38.421 189.600 51.086 L 189.600 63.752 186.867 63.676 L 184.133 63.600 184.064 51.000 L 183.995 38.400 181.597 38.400 L 179.200 38.400 179.200 36.267 L 179.200 34.133 186.811 34.133 L 194.422 34.133 194.345 36.200 M202.932 41.980 L 206.267 49.693 206.337 41.913 L 206.408 34.133 208.806 34.133 L 211.205 34.133 211.136 48.867 L 211.067 63.600 209.300 63.678 L 207.534 63.756 206.212 60.611 C 205.484 58.882,203.939 55.165,202.778 52.353 L 200.667 47.238 200.533 55.419 L 200.400 63.600 198.067 63.677 L 195.733 63.754 195.733 48.932 L 195.733 34.110 197.666 34.188 L 199.598 34.267 202.932 41.980 M226.933 36.133 L 226.933 38.133 223.467 38.133 L 220.000 38.133 220.000 42.267 L 220.000 46.400 222.812 46.400 L 225.623 46.400 225.545 48.333 L 225.467 50.267 222.733 50.343 L 220.000 50.419 220.000 55.076 L 220.000 59.733 223.467 59.733 L 226.933 59.733 226.933 61.738 L 226.933 63.743 220.733 63.672 L 214.533 63.600 214.464 48.867 L 214.395 34.133 220.664 34.133 L 226.933 34.133 226.933 36.133 M241.113 34.897 C 244.103 36.068,245.202 38.052,245.196 42.267 C 245.192 45.543,244.406 47.621,242.815 48.560 C 241.662 49.240,241.524 48.196,243.853 56.395 C 244.936 60.206,245.764 63.416,245.695 63.529 C 245.570 63.731,240.267 63.830,240.267 63.630 C 240.267 63.487,237.669 53.530,237.180 51.800 C 236.789 50.414,236.775 50.400,235.731 50.400 L 234.676 50.400 234.605 57.000 L 234.533 63.600 231.867 63.600 L 229.200 63.600 229.131 48.839 L 229.062 34.078 234.331 34.191 C 238.977 34.292,239.779 34.375,241.113 34.897 M270.933 40.267 L 270.933 46.400 273.733 46.400 L 276.533 46.400 276.533 40.267 L 276.533 34.133 279.333 34.133 L 282.133 34.133 282.133 48.943 L 282.133 63.752 279.400 63.676 L 276.667 63.600 276.595 57.000 L 276.524 50.400 273.729 50.400 L 270.933 50.400 270.933 57.076 L 270.933 63.752 268.200 63.676 L 265.467 63.600 265.398 48.867 L 265.329 34.133 268.131 34.133 L 270.933 34.133 270.933 40.267 M291.200 48.933 L 291.200 63.733 288.533 63.733 L 285.867 63.733 285.867 48.933 L 285.867 34.133 288.533 34.133 L 291.200 34.133 291.200 48.933 M306.089 34.545 C 309.456 35.545,311.272 39.074,310.818 43.733 C 310.377 48.269,308.057 50.235,302.734 50.585 L 300.267 50.747 300.267 57.250 L 300.267 63.752 297.533 63.676 L 294.800 63.600 294.731 48.867 L 294.662 34.133 299.683 34.133 C 303.431 34.133,305.054 34.238,306.089 34.545 M133.067 42.437 L 133.067 46.740 134.867 46.556 C 137.837 46.253,138.590 45.176,138.336 41.594 C 138.140 38.817,137.381 38.133,134.494 38.133 L 133.067 38.133 133.067 42.437 M167.467 42.400 L 167.467 46.667 168.467 46.665 C 171.584 46.661,172.800 45.461,172.800 42.392 C 172.800 38.993,172.049 38.133,169.080 38.133 L 167.467 38.133 167.467 42.400 M234.667 42.437 L 234.667 46.741 236.276 46.595 C 239.013 46.347,240.000 45.183,240.000 42.209 C 239.999 39.300,238.920 38.144,236.200 38.137 L 234.667 38.133 234.667 42.437 M300.267 42.437 L 300.267 46.740 302.039 46.559 C 304.944 46.261,305.600 45.480,305.600 42.315 C 305.600 39.041,304.762 38.133,301.742 38.133 L 300.267 38.133 300.267 42.437 M150.565 46.810 C 150.151 49.445,149.749 51.930,149.673 52.333 L 149.533 53.067 151.300 53.067 C 153.404 53.067,153.306 53.740,152.176 47.077 L 151.319 42.020 150.565 46.810 M153.535 82.385 C 157.267 84.024,157.733 85.596,157.733 96.533 C 157.733 109.567,156.573 111.614,149.200 111.591 C 141.962 111.569,140.933 109.678,140.933 96.400 L 140.933 87.333 141.651 85.867 C 143.613 81.856,148.844 80.324,153.535 82.385 M254.512 81.980 C 257.658 82.927,259.168 85.195,259.403 89.326 L 259.541 91.733 256.837 91.733 L 254.133 91.733 254.133 89.884 C 254.133 86.150,251.786 84.471,249.415 86.510 L 248.667 87.153 248.584 95.510 C 248.472 106.923,248.600 107.467,251.404 107.467 C 253.669 107.467,254.356 106.390,254.595 102.467 L 254.745 100.000 253.106 100.000 L 251.467 100.000 251.467 98.126 L 251.467 96.253 255.533 96.326 L 259.600 96.400 259.600 103.867 L 259.600 111.333 257.834 111.411 C 255.896 111.497,255.746 111.360,255.737 109.494 L 255.733 108.721 255.131 109.627 C 253.160 112.593,247.029 112.369,244.768 109.247 C 242.904 106.673,242.004 90.386,243.509 86.452 C 245.069 82.373,249.642 80.515,254.512 81.980 M274.761 82.381 C 278.384 84.135,278.800 85.620,278.800 96.800 L 278.800 105.733 278.042 107.374 C 276.573 110.553,274.680 111.600,270.400 111.600 C 265.894 111.600,263.761 110.248,262.482 106.581 C 261.761 104.515,261.756 88.565,262.476 86.504 C 263.970 82.223,270.150 80.149,274.761 82.381 M323.908 82.346 C 325.977 83.414,327.356 85.765,327.527 88.516 L 327.600 89.698 325.333 90.158 C 324.087 90.412,323.058 90.600,323.047 90.576 C 323.036 90.553,322.890 89.765,322.722 88.826 C 322.027 84.933,317.865 84.614,317.868 88.455 C 317.869 90.174,318.383 90.932,321.365 93.615 C 326.562 98.293,327.862 100.177,328.171 103.482 C 328.648 108.596,325.192 112.043,319.964 111.669 C 315.648 111.360,312.875 108.372,312.712 103.856 L 312.667 102.586 314.919 102.096 C 317.404 101.555,317.587 101.621,317.597 103.067 C 317.627 107.309,322.205 109.282,322.835 105.324 C 323.221 102.897,322.385 101.730,316.484 96.460 C 312.366 92.782,311.354 88.348,313.779 84.609 C 315.576 81.837,320.702 80.692,323.908 82.346 M139.733 83.867 L 139.733 85.867 136.400 85.867 L 133.067 85.867 133.067 90.000 L 133.067 94.133 135.733 94.133 L 138.400 94.133 138.400 96.133 L 138.400 98.133 135.733 98.133 L 133.067 98.133 133.067 104.809 L 133.067 111.485 130.333 111.409 L 127.600 111.333 127.531 96.600 L 127.462 81.867 133.598 81.867 L 139.733 81.867 139.733 83.867 M172.342 82.648 C 177.293 84.565,178.347 93.455,173.973 96.403 L 173.159 96.951 175.110 103.876 C 176.183 107.684,177.063 110.954,177.064 111.143 C 177.066 111.405,176.422 111.467,174.333 111.409 L 171.600 111.333 169.879 104.733 L 168.157 98.133 167.012 98.133 L 165.867 98.133 165.867 104.800 L 165.867 111.467 163.200 111.467 L 160.533 111.467 160.533 96.635 L 160.533 81.803 165.667 81.927 C 170.164 82.035,170.991 82.124,172.342 82.648 M200.267 84.000 L 200.267 86.133 197.867 86.133 L 195.467 86.133 195.467 98.809 L 195.467 111.485 192.733 111.409 L 190.000 111.333 189.931 98.733 L 189.861 86.133 187.464 86.133 L 185.067 86.133 185.067 84.000 L 185.067 81.867 192.667 81.867 L 200.267 81.867 200.267 84.000 M206.933 88.000 L 206.933 94.133 209.733 94.133 L 212.533 94.133 212.533 88.000 L 212.533 81.867 215.333 81.867 L 218.133 81.867 218.133 96.676 L 218.133 111.485 215.400 111.409 L 212.667 111.333 212.595 104.733 L 212.524 98.133 209.733 98.133 L 206.943 98.133 206.871 104.733 L 206.800 111.333 204.067 111.409 L 201.333 111.485 201.333 96.676 L 201.333 81.867 204.133 81.867 L 206.933 81.867 206.933 88.000 M233.812 83.933 L 233.890 85.867 230.412 85.867 L 226.933 85.867 226.933 90.000 L 226.933 94.133 229.600 94.133 L 232.267 94.133 232.267 96.133 L 232.267 98.133 229.600 98.133 L 226.933 98.133 226.933 102.800 L 226.933 107.467 230.412 107.467 L 233.890 107.467 233.812 109.400 L 233.733 111.333 227.533 111.405 L 221.333 111.476 221.333 96.667 L 221.333 81.857 227.533 81.928 L 233.733 82.000 233.812 83.933 M291.862 82.467 C 292.291 84.314,297.600 110.821,297.600 111.115 C 297.600 111.414,292.582 111.696,292.519 111.400 C 292.511 111.363,292.241 109.833,291.919 108.000 L 291.333 104.667 288.905 104.591 L 286.477 104.514 285.995 107.391 C 285.262 111.762,285.501 111.467,282.689 111.467 C 281.374 111.467,280.242 111.376,280.174 111.265 C 280.105 111.154,281.384 104.494,283.015 96.465 L 285.981 81.867 288.852 81.867 C 291.610 81.867,291.729 81.890,291.862 82.467 M304.800 94.667 L 304.800 107.467 308.267 107.467 L 311.733 107.467 311.733 109.472 L 311.733 111.476 305.533 111.405 L 299.333 111.333 299.264 96.600 L 299.195 81.867 301.998 81.867 L 304.800 81.867 304.800 94.667 M147.642 86.169 C 146.520 86.821,146.400 87.813,146.401 96.458 C 146.403 106.905,146.554 107.467,149.346 107.467 C 151.988 107.467,152.252 106.496,152.260 96.746 C 152.267 88.815,152.061 86.927,151.118 86.266 C 150.462 85.806,148.366 85.748,147.642 86.169 M165.867 90.103 L 165.867 94.400 167.000 94.399 C 170.349 94.394,171.813 92.556,171.320 88.973 C 171.027 86.839,170.105 86.046,167.765 85.914 L 165.867 85.806 165.867 90.103 M268.550 86.333 C 267.625 87.082,267.480 88.483,267.475 96.667 C 267.468 106.633,267.690 107.467,270.341 107.467 C 273.178 107.467,273.330 106.915,273.330 96.667 C 273.330 88.279,273.187 86.968,272.197 86.275 C 271.394 85.712,269.275 85.746,268.550 86.333 M288.831 90.194 C 288.814 90.301,288.440 92.573,288.000 95.244 C 287.560 97.915,287.200 100.257,287.200 100.450 C 287.200 100.703,287.681 100.800,288.936 100.800 L 290.673 100.800 290.513 99.800 C 289.934 96.182,288.857 90.033,288.831 90.194 M210.000 155.900 C 228.269 158.527,244.110 170.954,251.083 188.130 L 251.947 190.261 255.124 190.578 C 301.049 195.167,319.044 252.598,284.069 282.955 L 282.405 284.400 282.920 286.400 C 285.755 297.412,284.288 310.717,279.053 321.467 C 265.512 349.268,230.919 359.528,204.597 343.549 L 202.656 342.371 200.390 343.740 C 166.601 364.149,123.578 341.943,120.529 302.520 C 120.122 297.264,120.896 289.431,122.268 284.922 C 122.402 284.482,122.014 284.024,120.234 282.522 C 106.186 270.671,99.484 250.723,103.326 232.197 C 108.025 209.536,127.572 192.228,150.413 190.504 L 152.768 190.326 153.357 188.830 C 162.319 166.055,185.776 152.418,210.000 155.900 M196.800 166.536 C 183.479 168.366,172.005 176.405,165.371 188.556 C 163.942 191.173,163.860 190.998,166.867 191.718 C 181.525 195.227,194.002 204.774,201.013 217.845 L 202.337 220.314 203.479 218.223 C 210.841 204.752,223.203 195.227,237.867 191.727 C 239.260 191.395,240.443 191.087,240.495 191.044 C 240.548 191.000,239.979 189.803,239.232 188.383 C 231.152 173.035,213.954 164.180,196.800 166.536 M147.600 201.762 C 118.636 206.930,103.902 239.651,119.242 264.738 C 121.077 267.739,125.982 273.600,126.659 273.600 C 126.764 273.600,127.366 272.730,127.997 271.667 C 135.420 259.154,148.919 249.803,163.371 247.162 L 166.645 246.563 164.316 244.148 C 154.482 233.949,149.594 221.143,149.911 206.406 C 149.971 203.616,149.956 201.344,149.877 201.357 C 149.798 201.370,148.773 201.553,147.600 201.762 M254.870 206.080 C 255.287 220.635,250.260 233.969,240.541 244.093 L 238.451 246.270 241.637 246.875 C 256.110 249.621,269.342 258.853,276.811 271.416 C 278.310 273.937,278.051 273.938,280.387 271.403 C 295.527 254.971,295.492 230.327,280.308 214.357 C 273.389 207.081,266.084 203.285,255.568 201.502 L 254.735 201.360 254.870 206.080 M160.970 202.632 C 157.766 222.666,171.837 243.274,192.222 248.405 C 196.566 249.498,196.465 249.629,196.508 242.800 C 196.629 223.688,183.267 206.837,164.400 202.308 C 161.065 201.507,161.151 201.499,160.970 202.632 M242.667 201.785 C 223.711 204.995,209.073 221.643,208.351 240.815 C 208.036 249.156,208.158 249.455,211.546 248.669 C 230.447 244.286,243.903 227.747,244.090 208.667 C 244.124 205.123,243.833 201.571,243.512 201.636 C 243.414 201.656,243.033 201.723,242.667 201.785 M224.933 257.301 C 220.574 258.104,217.128 259.205,213.550 260.940 L 212.566 261.416 213.251 262.775 C 222.774 281.659,248.716 290.257,267.533 280.766 C 269.381 279.834,269.368 280.102,267.703 277.333 C 258.799 262.527,241.235 254.300,224.933 257.301 M168.061 257.343 C 157.045 258.727,146.796 264.581,139.999 273.373 C 138.278 275.598,135.564 279.925,135.768 280.119 C 135.822 280.171,137.007 280.698,138.400 281.290 C 157.720 289.507,179.839 282.282,190.704 264.205 C 192.295 261.557,192.311 261.783,190.467 260.929 C 183.993 257.931,174.931 256.480,168.061 257.343 M200.637 270.731 C 186.516 285.831,186.536 310.946,200.683 326.350 L 202.474 328.300 203.401 327.417 C 217.746 313.752,218.450 288.217,204.929 272.000 C 202.164 268.684,202.468 268.774,200.637 270.731 M178.133 290.016 C 170.714 293.850,162.466 295.637,153.333 295.388 C 145.317 295.169,140.605 294.070,132.364 290.498 C 131.549 290.144,130.946 298.577,131.454 303.228 C 134.600 332.066,165.667 349.218,191.377 336.311 L 193.866 335.062 192.421 333.405 C 185.313 325.255,180.953 315.700,179.572 305.252 C 179.103 301.699,179.191 293.072,179.723 290.556 C 180.070 288.917,180.183 288.956,178.133 290.016 M224.802 289.292 C 224.803 289.388,224.981 290.787,225.197 292.400 C 227.145 306.957,222.439 322.070,212.284 333.867 C 211.219 335.105,211.112 334.959,214.087 336.340 C 223.608 340.759,234.800 341.460,244.684 338.258 C 262.294 332.551,274.609 314.714,273.489 296.533 C 273.330 293.943,272.853 290.400,272.664 290.400 C 272.620 290.400,271.772 290.764,270.782 291.208 C 257.205 297.299,239.110 296.754,226.200 289.865 C 225.430 289.454,224.801 289.196,224.802 289.292 " stroke="none" fill="#1c4c6c" fill-rule="evenodd"></path><path id="path2" d="M40.319 34.332 C 41.887 34.379,44.527 34.379,46.185 34.333 C 47.843 34.286,46.560 34.247,43.333 34.247 C 40.107 34.247,38.750 34.285,40.319 34.332 M66.333 34.333 C 71.210 34.374,79.190 34.374,84.067 34.333 C 88.943 34.293,84.953 34.259,75.200 34.259 C 65.447 34.259,61.457 34.293,66.333 34.333 M127.591 48.800 C 127.591 56.940,127.625 60.270,127.666 56.200 C 127.708 52.130,127.708 45.470,127.666 41.400 C 127.625 37.330,127.591 40.660,127.591 48.800 M194.225 36.133 C 194.226 37.307,194.273 37.753,194.329 37.126 C 194.385 36.499,194.384 35.539,194.327 34.993 C 194.270 34.447,194.224 34.960,194.225 36.133 M211.058 48.800 C 211.058 56.940,211.092 60.270,211.133 56.200 C 211.175 52.130,211.175 45.470,211.133 41.400 C 211.092 37.330,211.058 40.660,211.058 48.800 M229.191 48.800 C 229.191 56.940,229.225 60.270,229.266 56.200 C 229.308 52.130,229.308 45.470,229.266 41.400 C 229.225 37.330,229.191 40.660,229.191 48.800 M265.458 48.800 C 265.458 56.940,265.492 60.270,265.533 56.200 C 265.575 52.130,265.575 45.470,265.533 41.400 C 265.492 37.330,265.458 40.660,265.458 48.800 M294.791 48.800 C 294.791 56.940,294.825 60.270,294.866 56.200 C 294.908 52.130,294.908 45.470,294.866 41.400 C 294.825 37.330,294.791 40.660,294.791 48.800 M234.509 42.400 C 234.509 44.820,234.549 45.810,234.598 44.600 C 234.648 43.390,234.648 41.410,234.598 40.200 C 234.549 38.990,234.509 39.980,234.509 42.400 M184.123 50.933 C 184.123 57.900,184.158 60.750,184.200 57.267 C 184.242 53.783,184.242 48.083,184.200 44.600 C 184.158 41.117,184.123 43.967,184.123 50.933 M245.149 42.000 C 245.151 42.880,245.201 43.208,245.260 42.729 C 245.319 42.249,245.318 41.529,245.257 41.129 C 245.196 40.728,245.148 41.120,245.149 42.000 M62.733 45.533 C 65.630 45.576,70.370 45.576,73.267 45.533 C 76.163 45.490,73.793 45.455,68.000 45.455 C 62.207 45.455,59.837 45.490,62.733 45.533 M272.343 50.331 C 273.192 50.384,274.512 50.383,275.276 50.330 C 276.041 50.276,275.347 50.232,273.733 50.233 C 272.120 50.234,271.494 50.278,272.343 50.331 M234.516 56.933 C 234.515 60.600,234.553 62.137,234.599 60.349 C 234.645 58.561,234.645 55.561,234.599 53.682 C 234.553 51.804,234.516 53.267,234.516 56.933 M149.508 53.133 C 149.576 53.243,150.397 53.333,151.333 53.333 C 152.269 53.333,153.091 53.243,153.159 53.133 C 153.227 53.023,152.405 52.933,151.333 52.933 C 150.261 52.933,149.440 53.023,149.508 53.133 M255.133 63.922 C 255.463 63.985,256.003 63.985,256.333 63.922 C 256.663 63.858,256.393 63.806,255.733 63.806 C 255.073 63.806,254.803 63.858,255.133 63.922 M319.670 63.922 C 320.001 63.986,320.481 63.983,320.736 63.917 C 320.991 63.850,320.720 63.798,320.133 63.801 C 319.547 63.804,319.338 63.858,319.670 63.922 M127.589 82.200 C 127.519 82.383,127.494 89.013,127.533 96.933 L 127.605 111.333 127.669 96.738 L 127.733 82.143 133.800 82.066 L 139.867 81.989 133.792 81.928 C 129.131 81.881,127.687 81.944,127.589 82.200 M162.467 82.065 C 163.603 82.115,165.463 82.115,166.600 82.065 C 167.737 82.015,166.807 81.974,164.533 81.974 C 162.260 81.974,161.330 82.015,162.467 82.065 M188.883 82.066 C 191.055 82.111,194.535 82.111,196.616 82.066 C 198.697 82.021,196.920 81.984,192.667 81.984 C 188.413 81.984,186.711 82.021,188.883 82.066 M203.928 82.060 L 206.657 82.152 206.736 88.143 L 206.815 94.134 206.808 88.067 L 206.800 82.000 204.000 81.985 L 201.200 81.969 203.928 82.060 M212.653 82.206 C 212.581 82.393,212.557 85.183,212.600 88.406 L 212.678 94.267 212.739 88.209 L 212.800 82.152 215.533 82.066 L 218.267 81.979 215.525 81.923 C 213.508 81.882,212.749 81.956,212.653 82.206 M224.333 82.066 C 226.057 82.112,228.877 82.112,230.600 82.066 C 232.323 82.019,230.913 81.981,227.467 81.981 C 224.020 81.981,222.610 82.019,224.333 82.066 M286.040 82.067 C 285.972 82.177,286.835 82.234,287.958 82.194 C 291.541 82.067,291.951 81.958,289.016 81.911 C 287.448 81.887,286.109 81.957,286.040 82.067 M299.322 82.200 C 299.252 82.383,299.227 89.013,299.266 96.933 L 299.338 111.333 299.402 96.743 L 299.467 82.152 302.200 82.066 L 304.933 81.979 302.192 81.923 C 300.201 81.882,299.415 81.958,299.322 82.200 M134.744 85.798 C 135.741 85.849,137.301 85.849,138.211 85.797 C 139.122 85.745,138.307 85.703,136.400 85.704 C 134.493 85.704,133.748 85.747,134.744 85.798 M166.470 85.791 C 166.876 85.853,167.476 85.851,167.804 85.788 C 168.132 85.724,167.800 85.674,167.067 85.676 C 166.333 85.678,166.065 85.730,166.470 85.791 M186.200 86.063 C 186.897 86.118,188.037 86.118,188.733 86.063 C 189.430 86.008,188.860 85.963,187.467 85.963 C 186.073 85.963,185.503 86.008,186.200 86.063 M196.600 86.063 C 197.297 86.118,198.437 86.118,199.133 86.063 C 199.830 86.008,199.260 85.963,197.867 85.963 C 196.473 85.963,195.903 86.008,196.600 86.063 M157.716 96.533 C 157.716 100.420,157.754 102.010,157.799 100.067 C 157.845 98.123,157.845 94.943,157.799 93.000 C 157.754 91.057,157.716 92.647,157.716 96.533 M254.206 90.667 C 254.206 91.327,254.258 91.597,254.322 91.267 C 254.385 90.937,254.385 90.397,254.322 90.067 C 254.258 89.737,254.206 90.007,254.206 90.667 M253.400 96.465 C 254.537 96.515,256.397 96.515,257.533 96.465 C 258.670 96.415,257.740 96.374,255.467 96.374 C 253.193 96.374,252.263 96.415,253.400 96.465 M134.333 98.063 C 135.103 98.117,136.363 98.117,137.133 98.063 C 137.903 98.009,137.273 97.965,135.733 97.965 C 134.193 97.965,133.563 98.009,134.333 98.063 M228.200 98.063 C 228.970 98.117,230.230 98.117,231.000 98.063 C 231.770 98.009,231.140 97.965,229.600 97.965 C 228.060 97.965,227.430 98.009,228.200 98.063 M206.782 104.667 C 206.782 108.333,206.820 109.870,206.866 108.082 C 206.912 106.294,206.912 103.294,206.866 101.416 C 206.820 99.537,206.782 101.000,206.782 104.667 M212.649 104.667 C 212.649 108.333,212.686 109.870,212.732 108.082 C 212.778 106.294,212.779 103.294,212.733 101.416 C 212.687 99.537,212.649 101.000,212.649 104.667 M252.200 99.926 C 252.677 99.985,253.457 99.985,253.933 99.926 C 254.410 99.867,254.020 99.819,253.067 99.819 C 252.113 99.819,251.723 99.867,252.200 99.926 M328.067 104.400 C 328.070 104.987,328.125 105.195,328.189 104.864 C 328.252 104.532,328.250 104.052,328.183 103.797 C 328.116 103.542,328.064 103.813,328.067 104.400 M233.690 109.333 C 233.690 110.433,233.737 110.883,233.794 110.333 C 233.852 109.783,233.852 108.883,233.794 108.333 C 233.737 107.783,233.690 108.233,233.690 109.333 M38.083 110.866 C 40.182 110.911,43.542 110.911,45.549 110.866 C 47.557 110.821,45.840 110.784,41.733 110.784 C 37.627 110.784,35.984 110.821,38.083 110.866 M65.949 110.866 C 67.975 110.911,71.215 110.911,73.149 110.866 C 75.084 110.820,73.427 110.783,69.467 110.783 C 65.507 110.784,63.924 110.821,65.949 110.866 M172.657 178.467 L 171.333 179.867 172.733 178.543 C 173.503 177.816,174.133 177.186,174.133 177.143 C 174.133 176.944,173.886 177.166,172.657 178.467 M286.933 205.733 C 287.431 206.247,287.898 206.667,287.971 206.667 C 288.045 206.667,287.698 206.247,287.200 205.733 C 286.702 205.220,286.235 204.800,286.162 204.800 C 286.089 204.800,286.436 205.220,286.933 205.733 M196.595 241.333 C 196.595 241.847,196.650 242.057,196.717 241.800 C 196.784 241.543,196.784 241.123,196.717 240.867 C 196.650 240.610,196.595 240.820,196.595 241.333 M112.888 242.800 C 112.889 243.827,112.937 244.214,112.995 243.661 C 113.052 243.107,113.051 242.267,112.992 241.794 C 112.934 241.321,112.886 241.773,112.888 242.800 M102.206 242.933 C 102.206 243.593,102.258 243.863,102.322 243.533 C 102.385 243.203,102.385 242.663,102.322 242.333 C 102.258 242.003,102.206 242.273,102.206 242.933 M229.667 256.717 C 229.923 256.784,230.343 256.784,230.600 256.717 C 230.857 256.650,230.647 256.595,230.133 256.595 C 229.620 256.595,229.410 256.650,229.667 256.717 M232.867 256.717 C 233.123 256.784,233.543 256.784,233.800 256.717 C 234.057 256.650,233.847 256.595,233.333 256.595 C 232.820 256.595,232.610 256.650,232.867 256.717 M135.724 261.800 L 134.267 263.333 135.800 261.876 C 137.225 260.522,137.455 260.267,137.258 260.267 C 137.216 260.267,136.526 260.957,135.724 261.800 M125.067 272.400 C 125.564 272.913,126.031 273.333,126.105 273.333 C 126.178 273.333,125.831 272.913,125.333 272.400 C 124.836 271.887,124.369 271.467,124.295 271.467 C 124.222 271.467,124.569 271.887,125.067 272.400 M201.600 327.600 C 202.098 328.113,202.565 328.533,202.638 328.533 C 202.711 328.533,202.364 328.113,201.867 327.600 C 201.369 327.087,200.902 326.667,200.829 326.667 C 200.755 326.667,201.102 327.087,201.600 327.600 M230.867 340.460 C 231.343 340.519,232.123 340.519,232.600 340.460 C 233.077 340.400,232.687 340.352,231.733 340.352 C 230.780 340.352,230.390 340.400,230.867 340.460 M231.267 351.117 C 231.523 351.184,231.943 351.184,232.200 351.117 C 232.457 351.050,232.247 350.995,231.733 350.995 C 231.220 350.995,231.010 351.050,231.267 351.117 M170.200 351.384 C 170.457 351.451,170.877 351.451,171.133 351.384 C 171.390 351.317,171.180 351.262,170.667 351.262 C 170.153 351.262,169.943 351.317,170.200 351.384 " stroke="none" fill="#8ca4b4" fill-rule="evenodd"></path><path id="path3" d="M129.933 34.332 C 131.217 34.381,133.317 34.381,134.600 34.332 C 135.883 34.283,134.833 34.243,132.267 34.243 C 129.700 34.243,128.650 34.283,129.933 34.332 M149.943 34.331 C 150.792 34.384,152.112 34.383,152.876 34.330 C 153.641 34.276,152.947 34.232,151.333 34.233 C 149.720 34.234,149.094 34.278,149.943 34.331 M164.079 34.332 C 165.222 34.382,167.022 34.382,168.079 34.331 C 169.135 34.281,168.200 34.240,166.000 34.240 C 163.800 34.240,162.935 34.282,164.079 34.332 M179.253 36.200 L 179.306 38.267 179.398 36.338 L 179.490 34.408 186.878 34.333 L 194.267 34.258 186.733 34.196 L 179.200 34.133 179.253 36.200 M196.267 34.297 C 197.858 34.497,199.673 34.517,199.559 34.333 C 199.491 34.223,198.572 34.151,197.518 34.173 C 196.463 34.195,195.900 34.251,196.267 34.297 M207.667 34.329 C 208.290 34.385,209.310 34.385,209.933 34.329 C 210.557 34.272,210.047 34.227,208.800 34.227 C 207.553 34.227,207.043 34.272,207.667 34.329 M220.600 34.333 L 226.667 34.410 226.667 36.130 L 226.667 37.851 223.267 37.925 L 219.867 38.000 219.856 42.200 L 219.846 46.401 219.930 42.267 L 220.014 38.133 223.473 38.133 L 226.933 38.133 226.933 36.133 L 226.933 34.133 220.733 34.195 L 214.533 34.256 220.600 34.333 M231.133 34.331 C 232.197 34.382,233.937 34.382,235.000 34.331 C 236.063 34.281,235.193 34.239,233.067 34.239 C 230.940 34.239,230.070 34.281,231.133 34.331 M268.062 34.332 L 270.657 34.419 270.728 40.476 L 270.800 46.533 273.733 46.548 L 276.667 46.563 273.800 46.473 L 270.933 46.382 270.933 40.258 L 270.933 34.133 268.200 34.189 L 265.467 34.245 268.062 34.332 M278.067 34.330 C 278.837 34.384,280.097 34.384,280.867 34.330 C 281.637 34.276,281.007 34.232,279.467 34.232 C 277.927 34.232,277.297 34.276,278.067 34.330 M287.133 34.330 C 287.903 34.384,289.163 34.384,289.933 34.330 C 290.703 34.276,290.073 34.232,288.533 34.232 C 286.993 34.232,286.363 34.276,287.133 34.330 M297.133 34.332 C 298.417 34.381,300.517 34.381,301.800 34.332 C 303.083 34.283,302.033 34.243,299.467 34.243 C 296.900 34.243,295.850 34.283,297.133 34.332 M57.713 39.867 C 57.713 42.947,57.752 44.170,57.799 42.586 C 57.846 41.001,57.846 38.481,57.799 36.986 C 57.751 35.490,57.713 36.787,57.713 39.867 M92.644 39.333 C 92.645 42.120,92.684 43.224,92.732 41.786 C 92.780 40.349,92.780 38.069,92.732 36.719 C 92.684 35.370,92.644 36.547,92.644 39.333 M132.918 38.211 C 132.845 38.401,132.822 40.411,132.867 42.678 L 132.948 46.800 133.007 42.481 L 133.067 38.161 134.467 38.063 L 135.867 37.965 134.458 37.916 C 133.515 37.883,133.006 37.980,132.918 38.211 M300.118 38.211 C 300.045 38.401,300.022 40.411,300.067 42.678 L 300.148 46.800 300.207 42.481 L 300.267 38.161 301.667 38.063 L 303.067 37.965 301.658 37.916 C 300.715 37.883,300.206 37.980,300.118 38.211 M189.457 50.933 C 189.457 57.900,189.491 60.750,189.533 57.267 C 189.575 53.783,189.575 48.083,189.533 44.600 C 189.491 41.117,189.457 43.967,189.457 50.933 M312.080 41.067 C 312.080 41.873,312.130 42.203,312.191 41.800 C 312.252 41.397,312.252 40.737,312.191 40.333 C 312.130 39.930,312.080 40.260,312.080 41.067 M305.676 42.267 C 305.678 43.000,305.730 43.268,305.791 42.863 C 305.853 42.458,305.851 41.858,305.788 41.530 C 305.724 41.202,305.674 41.533,305.676 42.267 M138.462 42.400 C 138.462 42.913,138.517 43.123,138.584 42.867 C 138.651 42.610,138.651 42.190,138.584 41.933 C 138.517 41.677,138.462 41.887,138.462 42.400 M23.253 48.067 C 23.224 51.110,23.290 53.600,23.400 53.600 C 23.510 53.601,23.569 51.951,23.531 49.934 C 23.403 43.148,23.306 42.498,23.253 48.067 M253.600 43.550 C 253.600 43.596,253.990 43.986,254.467 44.417 L 255.333 45.200 254.550 44.333 C 253.820 43.525,253.600 43.344,253.600 43.550 M219.857 55.133 L 219.867 59.867 223.400 59.879 L 226.934 59.891 223.473 59.804 L 220.012 59.718 219.930 55.059 L 219.848 50.400 219.857 55.133 M270.782 56.933 C 270.782 60.600,270.820 62.137,270.866 60.349 C 270.912 58.561,270.912 55.561,270.866 53.682 C 270.820 51.804,270.782 53.267,270.782 56.933 M132.915 57.067 C 132.915 60.660,132.953 62.130,132.999 60.333 C 133.045 58.537,133.045 55.597,132.999 53.800 C 132.953 52.003,132.915 53.473,132.915 57.067 M300.115 57.067 C 300.115 60.660,300.153 62.130,300.199 60.333 C 300.245 58.537,300.245 55.597,300.199 53.800 C 300.153 52.003,300.115 53.473,300.115 57.067 M263.010 56.667 C 263.012 57.400,263.063 57.668,263.125 57.263 C 263.186 56.858,263.184 56.258,263.121 55.930 C 263.058 55.602,263.008 55.933,263.010 56.667 M150.200 56.729 C 150.897 56.784,152.037 56.784,152.733 56.729 C 153.430 56.674,152.860 56.629,151.467 56.629 C 150.073 56.629,149.503 56.674,150.200 56.729 M148.604 81.791 C 149.009 81.853,149.609 81.851,149.937 81.788 C 150.265 81.724,149.933 81.674,149.200 81.676 C 148.467 81.678,148.198 81.730,148.604 81.791 M250.737 81.791 C 251.142 81.853,251.742 81.851,252.070 81.788 C 252.398 81.724,252.067 81.674,251.333 81.676 C 250.600 81.678,250.332 81.730,250.737 81.791 M269.667 81.791 C 270.070 81.852,270.730 81.852,271.133 81.791 C 271.537 81.730,271.207 81.680,270.400 81.680 C 269.593 81.680,269.263 81.730,269.667 81.791 M319.667 81.788 C 319.997 81.852,320.537 81.852,320.867 81.788 C 321.197 81.725,320.927 81.673,320.267 81.673 C 319.607 81.673,319.337 81.725,319.667 81.788 M139.554 83.867 C 139.555 84.893,139.604 85.281,139.661 84.727 C 139.719 84.174,139.718 83.334,139.659 82.861 C 139.600 82.387,139.553 82.840,139.554 83.867 M185.156 84.000 C 185.156 85.100,185.203 85.550,185.261 85.000 C 185.318 84.450,185.318 83.550,185.261 83.000 C 185.203 82.450,185.156 82.900,185.156 84.000 M200.090 84.000 C 200.090 85.100,200.137 85.550,200.194 85.000 C 200.252 84.450,200.252 83.550,200.194 83.000 C 200.137 82.450,200.090 82.900,200.090 84.000 M201.458 96.667 C 201.458 104.733,201.492 108.072,201.533 104.086 C 201.575 100.099,201.575 93.499,201.533 89.419 C 201.492 85.338,201.458 88.600,201.458 96.667 M217.991 96.667 C 217.991 104.733,218.025 108.072,218.066 104.086 C 218.108 100.099,218.108 93.499,218.067 89.419 C 218.025 85.338,217.991 88.600,217.991 96.667 M304.663 94.800 L 304.667 107.600 308.133 107.612 L 311.600 107.623 308.203 107.537 L 304.805 107.451 304.732 94.726 L 304.659 82.000 304.663 94.800 M228.611 85.798 C 229.607 85.849,231.167 85.849,232.078 85.797 C 232.988 85.745,232.173 85.703,230.267 85.704 C 228.360 85.704,227.615 85.747,228.611 85.798 M132.923 90.066 L 132.933 94.267 135.521 94.343 L 138.109 94.419 138.202 96.210 L 138.296 98.000 138.348 96.067 L 138.400 94.133 135.740 94.133 L 133.080 94.133 132.996 90.000 L 132.912 85.866 132.923 90.066 M195.323 98.667 C 195.323 105.633,195.358 108.483,195.400 105.000 C 195.442 101.517,195.442 95.817,195.400 92.333 C 195.358 88.850,195.323 91.700,195.323 98.667 M146.251 96.667 C 146.251 101.067,146.288 102.904,146.333 100.750 C 146.377 98.596,146.378 94.996,146.333 92.750 C 146.288 90.504,146.252 92.267,146.251 96.667 M259.280 90.400 C 259.280 91.207,259.330 91.537,259.391 91.133 C 259.452 90.730,259.452 90.070,259.391 89.667 C 259.330 89.263,259.280 89.593,259.280 90.400 M273.451 96.667 C 273.451 100.920,273.488 102.623,273.533 100.450 C 273.578 98.278,273.578 94.798,273.533 92.717 C 273.488 90.636,273.451 92.413,273.451 96.667 M278.783 96.533 C 278.783 100.420,278.820 102.010,278.866 100.067 C 278.912 98.123,278.912 94.943,278.866 93.000 C 278.820 91.057,278.783 92.647,278.783 96.533 M261.982 96.667 C 261.982 100.187,262.020 101.590,262.066 99.785 C 262.112 97.980,262.112 95.100,262.066 93.385 C 262.019 91.670,261.981 93.147,261.982 96.667 M208.343 94.331 C 209.192 94.384,210.512 94.383,211.276 94.330 C 212.041 94.276,211.347 94.232,209.733 94.233 C 208.120 94.234,207.494 94.278,208.343 94.331 M232.090 96.000 C 232.090 97.100,232.137 97.550,232.194 97.000 C 232.252 96.450,232.252 95.550,232.194 95.000 C 232.137 94.450,232.090 94.900,232.090 96.000 M166.333 94.588 C 166.663 94.652,167.203 94.652,167.533 94.588 C 167.863 94.525,167.593 94.473,166.933 94.473 C 166.273 94.473,166.003 94.525,166.333 94.588 M251.552 98.133 C 251.552 99.087,251.600 99.477,251.660 99.000 C 251.719 98.523,251.719 97.743,251.660 97.267 C 251.600 96.790,251.552 97.180,251.552 98.133 M208.343 98.064 C 209.192 98.117,210.512 98.117,211.276 98.063 C 212.041 98.009,211.347 97.966,209.733 97.966 C 208.120 97.967,207.494 98.011,208.343 98.064 M132.916 104.667 C 132.915 108.333,132.953 109.870,132.999 108.082 C 133.045 106.294,133.045 103.294,132.999 101.416 C 132.953 99.537,132.916 101.000,132.916 104.667 M228.611 107.665 C 229.607 107.716,231.167 107.716,232.078 107.664 C 232.988 107.612,232.173 107.570,230.267 107.570 C 228.360 107.571,227.615 107.613,228.611 107.665 M148.867 111.650 C 149.123 111.718,149.543 111.718,149.800 111.650 C 150.057 111.583,149.847 111.529,149.333 111.529 C 148.820 111.529,148.610 111.583,148.867 111.650 M249.937 111.658 C 250.342 111.719,250.942 111.718,251.270 111.654 C 251.598 111.591,251.267 111.541,250.533 111.543 C 249.800 111.545,249.532 111.597,249.937 111.658 M269.933 111.650 C 270.190 111.718,270.610 111.718,270.867 111.650 C 271.123 111.583,270.913 111.529,270.400 111.529 C 269.887 111.529,269.677 111.583,269.933 111.650 M320.333 111.650 C 320.590 111.718,321.010 111.718,321.267 111.650 C 321.523 111.583,321.313 111.529,320.800 111.529 C 320.287 111.529,320.077 111.583,320.333 111.650 M201.400 166.061 C 201.950 166.118,202.850 166.118,203.400 166.061 C 203.950 166.003,203.500 165.956,202.400 165.956 C 201.300 165.956,200.850 166.003,201.400 166.061 M191.733 205.733 C 192.231 206.247,192.698 206.667,192.771 206.667 C 192.845 206.667,192.498 206.247,192.000 205.733 C 191.502 205.220,191.035 204.800,190.962 204.800 C 190.889 204.800,191.236 205.220,191.733 205.733 M254.734 206.000 C 254.737 206.587,254.791 206.795,254.855 206.464 C 254.919 206.132,254.917 205.652,254.850 205.397 C 254.783 205.142,254.731 205.413,254.734 206.000 M160.329 208.000 C 160.329 208.513,160.383 208.723,160.450 208.467 C 160.518 208.210,160.518 207.790,160.450 207.533 C 160.383 207.277,160.329 207.487,160.329 208.000 M254.739 209.867 C 254.739 210.527,254.791 210.797,254.855 210.467 C 254.918 210.137,254.918 209.597,254.855 209.267 C 254.791 208.937,254.739 209.207,254.739 209.867 M291.806 241.600 C 291.806 242.260,291.858 242.530,291.922 242.200 C 291.985 241.870,291.985 241.330,291.922 241.000 C 291.858 240.670,291.806 240.940,291.806 241.600 M291.806 244.000 C 291.806 244.660,291.858 244.930,291.922 244.600 C 291.985 244.270,291.985 243.730,291.922 243.400 C 291.858 243.070,291.806 243.340,291.806 244.000 M239.323 245.133 L 238.000 246.533 239.400 245.210 C 240.701 243.980,240.922 243.733,240.723 243.733 C 240.681 243.733,240.051 244.363,239.323 245.133 M171.933 256.995 C 172.557 257.051,173.577 257.051,174.200 256.995 C 174.823 256.939,174.313 256.893,173.067 256.893 C 171.820 256.893,171.310 256.939,171.933 256.995 M268.800 261.467 C 269.298 261.980,269.765 262.400,269.838 262.400 C 269.911 262.400,269.564 261.980,269.067 261.467 C 268.569 260.953,268.102 260.533,268.029 260.533 C 267.955 260.533,268.302 260.953,268.800 261.467 M202.133 268.883 C 202.133 268.929,202.523 269.319,203.000 269.750 L 203.867 270.533 203.083 269.667 C 202.353 268.859,202.133 268.677,202.133 268.883 M279.286 272.539 C 278.527 273.269,277.992 273.867,278.097 273.867 C 278.201 273.867,278.878 273.267,279.600 272.533 C 281.296 270.812,281.078 270.816,279.286 272.539 M152.470 295.389 C 152.801 295.452,153.281 295.450,153.536 295.383 C 153.791 295.316,153.520 295.264,152.933 295.267 C 152.347 295.270,152.138 295.325,152.470 295.389 M156.200 295.388 C 156.530 295.452,157.070 295.452,157.400 295.388 C 157.730 295.325,157.460 295.273,156.800 295.273 C 156.140 295.273,155.870 295.325,156.200 295.388 M247.400 295.388 C 247.730 295.452,248.270 295.452,248.600 295.388 C 248.930 295.325,248.660 295.273,248.000 295.273 C 247.340 295.273,247.070 295.325,247.400 295.388 M251.403 295.389 C 251.735 295.452,252.215 295.450,252.470 295.383 C 252.725 295.316,252.453 295.264,251.867 295.267 C 251.280 295.270,251.071 295.325,251.403 295.389 M179.267 296.400 C 179.270 296.987,179.325 297.195,179.389 296.864 C 179.452 296.532,179.450 296.052,179.383 295.797 C 179.316 295.542,179.264 295.813,179.267 296.400 M131.025 298.800 C 131.026 299.973,131.073 300.420,131.129 299.793 C 131.185 299.166,131.184 298.206,131.127 297.660 C 131.070 297.113,131.024 297.627,131.025 298.800 M225.423 298.933 C 225.423 300.033,225.470 300.483,225.528 299.933 C 225.585 299.383,225.585 298.483,225.528 297.933 C 225.470 297.383,225.423 297.833,225.423 298.933 M273.667 298.533 C 273.670 299.120,273.725 299.329,273.789 298.997 C 273.852 298.665,273.850 298.185,273.783 297.930 C 273.716 297.675,273.664 297.947,273.667 298.533 M179.267 300.667 C 179.270 301.253,179.325 301.462,179.389 301.130 C 179.452 300.799,179.450 300.319,179.383 300.064 C 179.316 299.809,179.264 300.080,179.267 300.667 M143.333 328.533 C 144.056 329.267,144.707 329.867,144.780 329.867 C 144.853 329.867,144.322 329.267,143.600 328.533 C 142.878 327.800,142.227 327.200,142.153 327.200 C 142.080 327.200,142.611 327.800,143.333 328.533 M172.200 351.393 C 172.677 351.452,173.457 351.452,173.933 351.393 C 174.410 351.334,174.020 351.285,173.067 351.285 C 172.113 351.285,171.723 351.334,172.200 351.393 " stroke="none" fill="#9cacbc" fill-rule="evenodd"></path><path id="path4" d="M161.997 48.867 L 162.000 63.600 164.667 63.614 L 167.333 63.628 164.736 63.538 L 162.138 63.448 162.066 48.791 L 161.993 34.133 161.997 48.867 M206.341 42.026 C 206.300 46.366,206.357 49.974,206.467 50.041 C 206.577 50.109,206.667 46.558,206.667 42.149 C 206.667 37.740,206.610 34.133,206.541 34.133 C 206.472 34.133,206.382 37.685,206.341 42.026 M214.530 48.867 L 214.533 63.600 220.667 63.607 L 226.800 63.615 220.736 63.536 L 214.671 63.457 214.599 48.795 L 214.526 34.133 214.530 48.867 M276.648 40.267 C 276.648 43.713,276.686 45.123,276.732 43.400 C 276.779 41.677,276.779 38.857,276.732 37.133 C 276.686 35.410,276.648 36.820,276.648 40.267 M167.936 38.055 C 168.268 38.119,168.748 38.117,169.003 38.050 C 169.258 37.983,168.987 37.931,168.400 37.934 C 167.813 37.937,167.605 37.991,167.936 38.055 M235.136 38.055 C 235.468 38.119,235.948 38.117,236.203 38.050 C 236.458 37.983,236.187 37.931,235.600 37.934 C 235.013 37.937,234.805 37.991,235.136 38.055 M180.333 38.329 C 181.030 38.384,182.170 38.384,182.867 38.329 C 183.563 38.274,182.993 38.229,181.600 38.229 C 180.207 38.229,179.637 38.274,180.333 38.329 M190.741 38.330 C 191.442 38.385,192.522 38.384,193.141 38.328 C 193.760 38.272,193.187 38.227,191.867 38.228 C 190.547 38.229,190.040 38.275,190.741 38.330 M172.876 42.267 C 172.878 43.000,172.930 43.268,172.991 42.863 C 173.053 42.458,173.051 41.858,172.988 41.530 C 172.924 41.202,172.874 41.533,172.876 42.267 M310.749 42.533 C 310.751 43.413,310.801 43.741,310.860 43.262 C 310.919 42.783,310.918 42.063,310.857 41.662 C 310.796 41.261,310.748 41.653,310.749 42.533 M143.534 42.533 C 143.537 43.120,143.591 43.329,143.655 42.997 C 143.719 42.665,143.717 42.185,143.650 41.930 C 143.583 41.675,143.531 41.947,143.534 42.533 M225.385 48.191 L 225.333 50.115 222.600 50.201 L 219.867 50.288 222.608 50.344 C 225.765 50.409,225.673 50.484,225.532 47.972 L 225.436 46.267 225.385 48.191 M200.329 54.990 L 200.267 63.446 197.933 63.535 L 195.600 63.624 197.942 63.678 C 200.833 63.746,200.556 64.719,200.467 54.797 L 200.392 46.533 200.329 54.990 M34.262 80.133 C 34.262 97.000,34.294 103.861,34.333 95.379 C 34.372 86.898,34.372 73.098,34.333 64.713 C 34.294 56.327,34.262 63.267,34.262 80.133 M167.933 50.322 C 168.263 50.385,168.803 50.385,169.133 50.322 C 169.463 50.258,169.193 50.206,168.533 50.206 C 167.873 50.206,167.603 50.258,167.933 50.322 M235.133 50.322 C 235.463 50.385,236.003 50.385,236.333 50.322 C 236.663 50.258,236.393 50.206,235.733 50.206 C 235.073 50.206,234.803 50.258,235.133 50.322 M133.794 50.592 C 134.267 50.651,135.107 50.652,135.661 50.595 C 136.214 50.537,135.827 50.489,134.800 50.488 C 133.773 50.486,133.321 50.534,133.794 50.592 M276.660 57.000 L 276.667 63.600 279.333 63.614 L 282.000 63.628 279.405 63.538 L 276.809 63.448 276.731 56.924 L 276.652 50.400 276.660 57.000 M300.994 50.592 C 301.467 50.651,302.307 50.652,302.861 50.595 C 303.414 50.537,303.027 50.489,302.000 50.488 C 300.973 50.486,300.521 50.534,300.994 50.592 M142.636 63.544 C 142.753 63.660,143.977 63.719,145.357 63.676 L 147.867 63.597 145.145 63.465 C 143.649 63.393,142.520 63.428,142.636 63.544 M129.000 63.663 C 129.770 63.717,131.030 63.717,131.800 63.663 C 132.570 63.609,131.940 63.565,130.400 63.565 C 128.860 63.565,128.230 63.609,129.000 63.663 M156.209 63.664 C 156.984 63.718,158.184 63.717,158.876 63.662 C 159.567 63.608,158.933 63.563,157.467 63.564 C 156.000 63.565,155.434 63.610,156.209 63.664 M174.600 63.663 C 175.370 63.717,176.630 63.717,177.400 63.663 C 178.170 63.609,177.540 63.565,176.000 63.565 C 174.460 63.565,173.830 63.609,174.600 63.663 M185.533 63.663 C 186.303 63.717,187.563 63.717,188.333 63.663 C 189.103 63.609,188.473 63.565,186.933 63.565 C 185.393 63.565,184.763 63.609,185.533 63.663 M208.194 63.659 C 208.667 63.718,209.507 63.719,210.061 63.661 C 210.614 63.604,210.227 63.555,209.200 63.554 C 208.173 63.553,207.721 63.600,208.194 63.659 M230.609 63.664 C 231.384 63.718,232.584 63.717,233.276 63.662 C 233.967 63.608,233.333 63.563,231.867 63.564 C 230.400 63.565,229.834 63.610,230.609 63.664 M241.533 63.663 C 242.303 63.717,243.563 63.717,244.333 63.663 C 245.103 63.609,244.473 63.565,242.933 63.565 C 241.393 63.565,240.763 63.609,241.533 63.663 M266.867 63.663 C 267.637 63.717,268.897 63.717,269.667 63.663 C 270.437 63.609,269.807 63.565,268.267 63.565 C 266.727 63.565,266.097 63.609,266.867 63.663 M287.133 63.663 C 287.903 63.717,289.163 63.717,289.933 63.663 C 290.703 63.609,290.073 63.565,288.533 63.565 C 286.993 63.565,286.363 63.609,287.133 63.663 M296.200 63.663 C 296.970 63.717,298.230 63.717,299.000 63.663 C 299.770 63.609,299.140 63.565,297.600 63.565 C 296.060 63.565,295.430 63.609,296.200 63.663 M233.690 84.000 C 233.690 85.100,233.737 85.550,233.794 85.000 C 233.852 84.450,233.852 83.550,233.794 83.000 C 233.737 82.450,233.690 82.900,233.690 84.000 M226.775 90.000 C 226.775 92.347,226.816 93.271,226.865 92.054 C 226.915 90.837,226.915 88.917,226.865 87.787 C 226.815 86.658,226.774 87.653,226.775 90.000 M189.996 98.667 L 190.000 111.333 192.667 111.347 L 195.333 111.361 192.736 111.271 L 190.139 111.181 190.065 98.591 L 189.992 86.000 189.996 98.667 M248.382 96.667 C 248.382 100.187,248.420 101.590,248.466 99.785 C 248.512 97.980,248.512 95.100,248.466 93.385 C 248.419 91.670,248.381 93.147,248.382 96.667 M318.667 91.283 C 318.667 91.329,319.057 91.719,319.533 92.150 L 320.400 92.933 319.617 92.067 C 318.887 91.259,318.667 91.077,318.667 91.283 M259.529 103.788 L 259.467 111.176 257.667 111.269 L 255.867 111.362 257.675 111.414 C 259.937 111.480,259.757 112.188,259.667 103.596 L 259.591 96.400 259.529 103.788 M166.333 98.055 C 166.663 98.118,167.203 98.118,167.533 98.055 C 167.863 97.991,167.593 97.939,166.933 97.939 C 166.273 97.939,166.003 97.991,166.333 98.055 M226.777 102.800 C 226.777 105.440,226.817 106.484,226.866 105.120 C 226.914 103.756,226.914 101.596,226.865 100.320 C 226.816 99.044,226.777 100.160,226.777 102.800 M287.173 100.880 C 287.291 100.998,288.155 101.057,289.094 101.011 L 290.800 100.927 288.879 100.797 C 287.822 100.725,287.054 100.763,287.173 100.880 M129.000 111.397 C 129.770 111.450,131.030 111.450,131.800 111.397 C 132.570 111.343,131.940 111.299,130.400 111.299 C 128.860 111.299,128.230 111.343,129.000 111.397 M161.800 111.397 C 162.570 111.450,163.830 111.450,164.600 111.397 C 165.370 111.343,164.740 111.299,163.200 111.299 C 161.660 111.299,161.030 111.343,161.800 111.397 M173.000 111.397 C 173.770 111.450,175.030 111.450,175.800 111.397 C 176.570 111.343,175.940 111.299,174.400 111.299 C 172.860 111.299,172.230 111.343,173.000 111.397 M202.600 111.397 C 203.370 111.450,204.630 111.450,205.400 111.397 C 206.170 111.343,205.540 111.299,204.000 111.299 C 202.460 111.299,201.830 111.343,202.600 111.397 M214.067 111.397 C 214.837 111.450,216.097 111.450,216.867 111.397 C 217.637 111.343,217.007 111.299,215.467 111.299 C 213.927 111.299,213.297 111.343,214.067 111.397 M224.333 111.399 C 226.057 111.446,228.877 111.446,230.600 111.399 C 232.323 111.353,230.913 111.315,227.467 111.315 C 224.020 111.315,222.610 111.353,224.333 111.399 M281.400 111.396 C 282.097 111.451,283.237 111.451,283.933 111.396 C 284.630 111.341,284.060 111.296,282.667 111.296 C 281.273 111.296,280.703 111.341,281.400 111.396 M293.809 111.397 C 294.584 111.451,295.784 111.450,296.476 111.396 C 297.167 111.341,296.533 111.297,295.067 111.297 C 293.600 111.298,293.034 111.343,293.809 111.397 M302.467 111.399 C 304.190 111.446,307.010 111.446,308.733 111.399 C 310.457 111.353,309.047 111.315,305.600 111.315 C 302.153 111.315,300.743 111.353,302.467 111.399 M201.667 155.391 C 202.070 155.452,202.730 155.452,203.133 155.391 C 203.537 155.330,203.207 155.280,202.400 155.280 C 201.593 155.280,201.263 155.330,201.667 155.391 M239.333 170.667 C 239.906 171.253,240.435 171.733,240.508 171.733 C 240.582 171.733,240.173 171.253,239.600 170.667 C 239.027 170.080,238.498 169.600,238.425 169.600 C 238.352 169.600,238.760 170.080,239.333 170.667 M125.058 213.533 L 123.600 215.067 125.133 213.609 C 125.977 212.807,126.667 212.117,126.667 212.076 C 126.667 211.878,126.412 212.109,125.058 213.533 M184.267 213.467 C 185.063 214.273,185.775 214.933,185.848 214.933 C 185.922 214.933,185.330 214.273,184.533 213.467 C 183.737 212.660,183.025 212.000,182.952 212.000 C 182.878 212.000,183.470 212.660,184.267 213.467 M278.667 212.617 C 278.667 212.663,279.057 213.053,279.533 213.483 L 280.400 214.267 279.617 213.400 C 278.887 212.592,278.667 212.411,278.667 212.617 M102.201 240.933 C 102.204 241.520,102.258 241.729,102.322 241.397 C 102.386 241.065,102.383 240.585,102.317 240.330 C 102.250 240.075,102.198 240.347,102.201 240.933 M208.091 242.800 C 208.092 243.973,208.139 244.420,208.196 243.793 C 208.252 243.166,208.251 242.206,208.194 241.660 C 208.137 241.113,208.090 241.627,208.091 242.800 M302.490 242.933 C 302.490 244.033,302.537 244.483,302.594 243.933 C 302.652 243.383,302.652 242.483,302.594 241.933 C 302.537 241.383,302.490 241.833,302.490 242.933 M196.595 242.933 C 196.595 243.447,196.650 243.657,196.717 243.400 C 196.784 243.143,196.784 242.723,196.717 242.467 C 196.650 242.210,196.595 242.420,196.595 242.933 M102.201 244.933 C 102.204 245.520,102.258 245.729,102.322 245.397 C 102.386 245.065,102.383 244.585,102.317 244.330 C 102.250 244.075,102.198 244.347,102.201 244.933 M231.267 256.717 C 231.523 256.784,231.943 256.784,232.200 256.717 C 232.457 256.650,232.247 256.595,231.733 256.595 C 231.220 256.595,231.010 256.650,231.267 256.717 M261.056 268.867 C 261.709 269.563,262.279 270.133,262.322 270.133 C 262.522 270.133,262.311 269.894,261.133 268.789 L 259.867 267.600 261.056 268.867 M143.317 269.400 L 142.533 270.267 143.400 269.483 C 143.877 269.053,144.267 268.663,144.267 268.617 C 144.267 268.411,144.047 268.592,143.317 269.400 M220.400 272.533 C 221.122 273.267,221.773 273.867,221.847 273.867 C 221.920 273.867,221.389 273.267,220.667 272.533 C 219.944 271.800,219.293 271.200,219.220 271.200 C 219.147 271.200,219.678 271.800,220.400 272.533 M286.933 280.133 C 286.286 280.793,285.816 281.333,285.889 281.333 C 285.962 281.333,286.552 280.793,287.200 280.133 C 287.848 279.473,288.318 278.933,288.244 278.933 C 288.171 278.933,287.581 279.473,286.933 280.133 M214.760 298.933 C 214.760 300.180,214.806 300.690,214.862 300.067 C 214.918 299.443,214.918 298.423,214.862 297.800 C 214.806 297.177,214.760 297.687,214.760 298.933 M120.352 298.933 C 120.352 299.887,120.400 300.277,120.460 299.800 C 120.519 299.323,120.519 298.543,120.460 298.067 C 120.400 297.590,120.352 297.980,120.352 298.933 M261.058 328.200 L 259.600 329.733 261.133 328.276 C 262.558 326.922,262.789 326.667,262.591 326.667 C 262.549 326.667,261.859 327.357,261.058 328.200 M171.940 340.729 C 172.568 340.785,173.528 340.784,174.074 340.727 C 174.620 340.670,174.107 340.624,172.933 340.625 C 171.760 340.626,171.313 340.673,171.940 340.729 M229.536 351.122 C 229.868 351.186,230.348 351.183,230.603 351.117 C 230.858 351.050,230.587 350.998,230.000 351.001 C 229.413 351.004,229.205 351.058,229.536 351.122 M233.003 351.122 C 233.335 351.186,233.815 351.183,234.070 351.117 C 234.325 351.050,234.053 350.998,233.467 351.001 C 232.880 351.004,232.671 351.058,233.003 351.122 " stroke="none" fill="#54748c" fill-rule="evenodd"></path></g></svg>