<svg id="svg" version="1.1" xmlns="http://www.w3.org/2000/svg" xmlns:xlink="http://www.w3.org/1999/xlink" width="400" height="400" viewBox="0, 0, 400,400"><g id="svgg"><path id="path0" d="M72.667 33.629 C 63.372 34.970,58.453 40.852,56.933 52.444 C 56.337 56.995,56.350 88.963,56.950 93.005 C 58.832 105.681,65.236 111.600,77.067 111.600 C 84.120 111.600,87.866 110.303,91.288 106.675 C 99.353 98.126,99.783 74.940,92.021 67.179 C 87.152 62.310,76.622 61.951,72.196 66.503 L 71.129 67.600 71.283 59.733 C 71.535 46.785,72.579 44.295,77.635 44.581 C 80.710 44.754,82.060 46.414,82.299 50.314 C 82.370 51.461,82.487 52.790,82.559 53.267 L 82.691 54.133 89.518 54.133 L 96.345 54.133 96.185 51.000 C 95.510 37.781,87.075 31.551,72.667 33.629 M183.825 34.128 C 178.802 35.198,178.000 37.235,178.000 48.933 C 178.000 61.395,179.282 63.733,186.113 63.733 C 191.515 63.733,193.743 61.362,194.065 55.267 L 194.210 52.533 191.677 52.533 L 189.143 52.533 188.999 55.367 C 188.799 59.285,187.685 60.553,185.173 59.724 C 183.434 59.150,183.344 58.698,183.246 50.000 C 183.121 38.873,183.367 37.867,186.217 37.867 C 188.393 37.867,189.012 39.016,189.051 43.133 L 189.067 44.800 191.600 44.800 L 194.133 44.800 194.133 42.946 C 194.133 36.108,190.225 32.764,183.825 34.128 M261.639 34.286 C 258.266 35.193,256.711 37.380,256.717 41.205 C 256.723 44.857,257.345 45.824,262.772 50.615 C 266.633 54.024,267.728 56.356,266.543 58.648 C 265.034 61.567,261.333 58.939,261.333 54.949 C 261.333 53.974,261.086 53.941,258.386 54.555 L 256.534 54.976 256.690 56.088 C 257.447 61.474,259.703 63.600,264.661 63.600 C 269.337 63.600,272.000 61.090,272.000 56.682 C 272.000 53.160,270.638 50.877,266.108 46.800 C 261.447 42.605,260.527 40.743,262.171 38.832 C 264.100 36.590,266.925 38.448,266.932 41.962 C 266.933 42.617,267.018 42.704,267.533 42.581 C 267.863 42.503,268.883 42.294,269.800 42.118 C 271.687 41.755,271.727 41.669,271.105 39.333 C 269.925 34.905,266.374 33.012,261.639 34.286 M303.241 34.257 C 298.639 35.370,297.613 38.042,297.607 48.933 C 297.601 60.855,299.200 63.733,305.828 63.733 C 311.389 63.733,313.501 61.525,313.797 55.400 L 313.935 52.533 311.368 52.533 L 308.800 52.533 308.800 54.942 C 308.800 58.630,308.108 59.822,305.970 59.822 C 303.215 59.822,302.826 58.197,302.987 47.333 C 303.117 38.543,303.332 37.867,306.000 37.867 C 308.109 37.867,308.800 39.015,308.800 42.525 L 308.800 44.800 311.333 44.800 L 313.867 44.800 313.867 42.723 C 313.867 35.823,309.884 32.650,303.241 34.257 M127.733 48.768 L 127.733 63.467 130.400 63.467 L 133.067 63.467 133.067 56.964 L 133.067 50.462 135.667 50.353 C 141.214 50.121,143.467 47.790,143.467 42.282 C 143.467 36.152,141.177 34.405,132.867 34.198 L 127.733 34.070 127.733 48.768 M145.600 48.800 L 145.600 63.467 151.733 63.467 L 157.867 63.467 157.867 61.600 L 157.867 59.733 154.400 59.733 L 150.933 59.733 150.933 54.933 L 150.933 50.133 153.733 50.133 L 156.533 50.133 156.533 48.267 L 156.533 46.400 153.733 46.400 L 150.933 46.400 150.933 42.267 L 150.933 38.133 154.400 38.133 L 157.867 38.133 157.867 36.133 L 157.867 34.133 151.733 34.133 L 145.600 34.133 145.600 48.800 M164.694 34.591 C 164.461 35.343,158.933 62.702,158.933 63.105 C 158.933 63.383,159.489 63.467,161.328 63.467 C 164.089 63.467,163.731 63.907,164.474 59.600 L 164.933 56.933 167.498 56.857 L 170.062 56.782 170.507 59.257 C 170.751 60.619,171.021 62.123,171.105 62.600 L 171.259 63.467 173.715 63.467 L 176.172 63.467 173.670 51.133 C 172.294 44.350,170.960 37.780,170.706 36.533 L 170.243 34.267 167.542 34.191 C 165.145 34.124,164.825 34.169,164.694 34.591 M197.067 48.800 L 197.067 63.467 203.200 63.467 L 209.333 63.467 209.333 61.600 L 209.333 59.733 205.867 59.733 L 202.400 59.733 202.400 54.933 L 202.400 50.133 205.067 50.133 L 207.733 50.133 207.733 48.267 L 207.733 46.400 205.067 46.400 L 202.400 46.400 202.400 42.267 L 202.400 38.133 205.867 38.133 L 209.333 38.133 209.333 36.133 L 209.333 34.133 203.200 34.133 L 197.067 34.133 197.067 48.800 M228.799 45.790 C 228.797 60.030,228.750 60.267,225.941 60.267 L 224.800 60.267 224.800 62.158 L 224.800 64.049 227.533 63.958 C 233.899 63.746,234.198 62.894,234.077 45.333 L 234.000 34.267 231.400 34.190 L 228.800 34.114 228.799 45.790 M237.603 45.533 C 237.607 57.807,237.679 58.590,239.024 60.884 C 240.986 64.232,248.274 64.853,251.492 61.946 C 253.663 59.984,253.717 59.615,253.812 46.067 L 253.897 34.133 251.361 34.133 L 248.826 34.133 248.746 45.800 C 248.652 59.681,248.640 59.733,245.632 59.733 C 242.824 59.733,242.681 59.034,242.673 45.267 L 242.667 34.133 240.133 34.133 L 237.600 34.133 237.603 45.533 M272.449 34.307 C 272.349 34.407,272.267 35.309,272.267 36.311 L 272.267 38.133 274.800 38.133 L 277.333 38.133 277.333 50.800 L 277.333 63.467 280.000 63.467 L 282.667 63.467 282.667 50.800 L 282.667 38.133 285.078 38.133 L 287.490 38.133 287.412 36.200 L 287.333 34.267 279.982 34.196 C 275.939 34.157,272.549 34.207,272.449 34.307 M289.067 48.800 L 289.067 63.467 291.733 63.467 L 294.400 63.467 294.400 48.800 L 294.400 34.133 291.733 34.133 L 289.067 34.133 289.067 48.800 M316.800 48.800 L 316.800 63.467 322.933 63.467 L 329.067 63.467 329.067 61.600 L 329.067 59.733 325.600 59.733 L 322.133 59.733 322.133 54.933 L 322.133 50.133 324.933 50.133 L 327.733 50.133 327.733 48.267 L 327.733 46.400 324.933 46.400 L 322.133 46.400 322.133 42.267 L 322.133 38.133 325.600 38.133 L 329.067 38.133 329.067 36.133 L 329.067 34.133 322.933 34.133 L 316.800 34.133 316.800 48.800 M35.420 35.695 C 33.458 37.320,30.072 39.308,25.960 41.248 L 22.673 42.800 22.670 48.067 C 22.667 52.105,22.744 53.333,23.000 53.330 C 23.183 53.329,25.493 52.539,28.133 51.577 C 30.773 50.614,33.143 49.761,33.400 49.682 C 33.843 49.545,33.867 51.116,33.867 80.102 L 33.867 110.667 41.200 110.667 L 48.533 110.667 48.533 72.533 L 48.533 34.400 42.733 34.421 L 36.933 34.442 35.420 35.695 M137.621 38.913 C 138.368 39.660,138.400 39.792,138.400 42.126 C 138.400 45.857,137.704 46.667,134.494 46.667 L 133.067 46.667 133.067 42.400 L 133.067 38.133 134.954 38.133 C 136.684 38.133,136.906 38.198,137.621 38.913 M169.325 52.733 C 169.333 53.299,169.227 53.333,167.467 53.333 C 166.290 53.333,165.600 53.225,165.600 53.041 C 165.600 52.689,167.136 43.404,167.382 42.267 C 167.543 41.525,169.301 50.998,169.325 52.733 M210.933 61.067 L 210.933 63.467 212.267 63.467 C 213.293 63.467,213.600 63.562,213.600 63.880 C 213.600 64.647,212.796 65.855,212.017 66.258 C 211.349 66.603,211.270 66.758,211.440 67.396 C 211.695 68.355,212.445 68.454,213.586 67.678 C 215.397 66.446,215.591 65.933,215.688 62.115 L 215.776 58.667 213.355 58.667 L 210.933 58.667 210.933 61.067 M78.974 74.673 C 81.986 75.510,82.780 78.002,82.791 86.667 C 82.807 98.490,81.045 102.159,76.004 100.801 C 72.101 99.750,71.224 96.893,71.209 85.189 L 71.200 77.711 72.333 76.620 C 74.429 74.602,76.516 73.991,78.974 74.673 M196.933 81.859 C 193.085 82.688,191.338 84.895,191.335 88.933 C 191.332 92.559,191.927 93.587,196.284 97.482 C 201.646 102.276,202.791 104.680,200.749 106.854 C 198.941 108.778,196.426 106.843,195.881 103.107 L 195.693 101.815 194.713 101.995 C 194.174 102.094,193.148 102.299,192.433 102.450 L 191.133 102.725 191.302 104.157 C 192.358 113.142,204.612 114.615,206.406 105.972 C 207.255 101.881,205.692 98.957,200.011 94.010 C 196.828 91.237,196.267 90.424,196.267 88.583 C 196.267 84.508,200.662 84.657,201.372 88.757 L 201.665 90.447 202.633 90.269 C 203.165 90.172,204.170 89.971,204.866 89.824 L 206.133 89.556 205.962 88.445 C 205.196 83.438,201.641 80.845,196.933 81.859 M248.591 81.884 C 243.426 82.792,242.597 84.647,242.460 95.600 C 242.353 104.209,242.505 105.838,243.621 108.041 C 246.333 113.393,256.147 112.691,258.455 106.980 C 259.416 104.601,259.402 88.698,258.436 86.303 C 256.997 82.734,253.269 81.061,248.591 81.884 M286.667 81.955 C 281.789 83.087,281.015 84.925,280.866 95.733 C 280.752 104.012,280.978 106.159,282.189 108.326 C 284.373 112.233,290.644 112.841,292.982 109.372 L 293.576 108.490 293.756 109.845 L 293.935 111.200 295.634 111.200 L 297.333 111.200 297.333 103.867 L 297.333 96.533 293.333 96.533 L 289.333 96.533 289.333 98.133 L 289.333 99.733 290.933 99.733 L 292.533 99.733 292.532 102.067 C 292.529 106.190,291.710 107.600,289.318 107.600 C 286.435 107.600,286.158 106.622,286.151 96.400 C 286.144 86.378,286.330 85.733,289.230 85.733 C 291.458 85.733,292.000 86.467,292.000 89.482 L 292.000 91.733 294.701 91.733 L 297.402 91.733 297.212 89.549 C 296.673 83.379,292.739 80.546,286.667 81.955 M132.000 82.218 C 132.000 82.360,126.385 109.953,126.224 110.600 C 126.078 111.190,126.116 111.200,128.597 111.200 L 131.119 111.200 131.585 108.467 C 132.344 104.022,131.933 104.503,134.889 104.591 L 137.448 104.667 137.991 107.867 L 138.533 111.067 141.000 111.143 C 142.357 111.186,143.467 111.182,143.467 111.136 C 143.467 111.024,137.905 83.493,137.729 82.733 C 137.607 82.206,132.000 81.702,132.000 82.218 M145.600 96.655 L 145.600 111.200 147.863 111.200 L 150.126 111.200 150.196 102.606 L 150.267 94.011 153.829 102.606 L 157.392 111.200 159.096 111.200 L 160.800 111.200 160.800 96.667 L 160.800 82.133 158.667 82.133 L 156.533 82.133 156.533 90.178 C 156.533 94.602,156.451 98.140,156.351 98.040 C 156.251 97.940,154.654 94.350,152.802 90.062 L 149.434 82.267 147.517 82.188 L 145.600 82.110 145.600 96.655 M164.533 96.667 L 164.533 111.248 169.800 111.157 C 179.899 110.983,180.632 109.926,180.486 95.733 C 180.356 83.001,179.850 82.352,169.933 82.180 L 164.533 82.086 164.533 96.667 M206.933 84.000 L 206.933 85.867 209.333 85.867 L 211.733 85.867 211.733 98.533 L 211.733 111.200 214.397 111.200 L 217.061 111.200 217.131 98.600 L 217.200 86.000 219.533 85.923 L 221.867 85.846 221.867 83.990 L 221.867 82.133 214.400 82.133 L 206.933 82.133 206.933 84.000 M223.467 96.643 L 223.467 111.200 226.133 111.200 L 228.800 111.200 228.800 104.533 L 228.800 97.867 229.981 97.867 L 231.162 97.867 231.559 99.267 C 231.778 100.037,232.453 102.587,233.060 104.933 C 233.667 107.280,234.282 109.650,234.426 110.200 L 234.687 111.200 237.362 111.200 C 239.950 111.200,240.030 111.182,239.860 110.645 C 239.359 109.066,236.011 96.972,236.067 96.944 C 238.872 95.571,240.271 90.905,239.094 86.853 C 238.011 83.130,236.224 82.314,228.867 82.183 L 223.467 82.086 223.467 96.643 M262.400 96.667 L 262.400 111.200 264.667 111.200 L 266.933 111.200 266.943 102.600 L 266.953 94.000 270.498 102.533 L 274.044 111.067 275.822 111.146 L 277.600 111.224 277.600 96.679 L 277.600 82.133 275.471 82.133 L 273.341 82.133 273.271 90.333 L 273.200 98.533 271.228 94.000 C 270.144 91.507,268.538 87.817,267.660 85.800 L 266.064 82.133 264.232 82.133 L 262.400 82.133 262.400 96.667 M233.064 86.355 C 234.077 87.106,234.392 87.954,234.396 89.942 C 234.403 93.274,233.397 94.400,230.413 94.400 L 228.800 94.400 228.800 89.961 L 228.800 85.523 230.598 85.691 C 231.712 85.795,232.650 86.047,233.064 86.355 M252.964 86.490 C 254.043 87.745,254.315 104.406,253.287 106.281 C 252.095 108.455,248.680 108.066,248.018 105.681 C 247.648 104.347,247.641 89.008,248.011 87.679 C 248.604 85.542,251.542 84.837,252.964 86.490 M174.336 86.748 L 175.067 87.478 175.151 95.539 C 175.271 106.982,175.201 107.225,171.765 107.420 L 169.867 107.527 169.867 96.667 L 169.867 85.806 171.736 85.912 C 173.342 86.003,173.709 86.121,174.336 86.748 M135.876 95.235 C 136.380 98.222,136.795 100.757,136.797 100.867 C 136.798 100.977,135.892 101.067,134.782 101.067 C 132.987 101.067,132.779 101.015,132.897 100.600 C 132.970 100.343,133.417 97.762,133.890 94.864 C 134.364 91.966,134.798 89.642,134.855 89.699 C 134.912 89.757,135.372 92.248,135.876 95.235 M159.088 130.137 C 156.308 131.223,155.064 133.327,155.070 136.935 C 155.075 140.260,155.759 141.408,159.981 145.183 C 165.281 149.922,166.229 151.628,164.943 154.114 C 163.578 156.754,159.772 154.624,159.735 151.200 C 159.718 149.611,159.570 149.546,157.118 150.038 C 154.620 150.539,154.687 150.413,155.352 153.335 C 157.363 162.179,170.400 161.126,170.400 152.119 C 170.400 148.788,168.864 146.330,164.144 142.110 C 160.609 138.950,160.000 138.079,160.000 136.192 C 160.000 132.356,164.401 132.615,165.122 136.493 C 165.466 138.340,165.385 138.304,167.948 137.754 C 170.052 137.303,169.975 137.406,169.592 135.554 C 168.534 130.433,164.138 128.165,159.088 130.137 M258.589 130.030 C 254.794 131.196,254.049 133.337,253.922 143.424 C 253.765 155.927,254.763 158.280,260.637 159.253 C 265.133 159.998,268.798 158.167,270.065 154.542 C 270.793 152.456,270.767 136.270,270.031 134.157 C 268.699 130.330,263.598 128.490,258.589 130.030 M296.289 130.058 C 293.660 130.987,292.108 133.569,292.157 136.933 C 292.204 140.197,293.103 141.707,297.034 145.127 C 302.400 149.795,303.766 152.525,301.745 154.545 C 299.705 156.586,296.807 154.274,296.801 150.600 C 296.801 150.050,296.710 149.600,296.600 149.600 C 296.490 149.600,295.402 149.798,294.183 150.040 L 291.967 150.480 292.135 151.573 C 292.822 156.046,294.482 158.225,297.857 159.087 C 306.448 161.279,310.823 151.823,304.355 145.042 C 303.511 144.157,301.814 142.571,300.584 141.517 C 296.107 137.679,295.680 133.600,299.755 133.600 C 301.363 133.600,302.394 135.082,302.399 137.400 C 302.400 138.331,302.505 138.333,306.365 137.451 C 307.562 137.178,306.447 133.099,304.698 131.352 C 302.961 129.618,299.183 129.036,296.289 130.058 M127.733 144.400 L 127.733 158.933 130.400 158.933 L 133.067 158.933 133.067 144.400 L 133.067 129.867 130.400 129.867 L 127.733 129.867 127.733 144.400 M136.800 144.400 L 136.800 158.933 139.067 158.933 L 141.333 158.933 141.341 150.333 L 141.350 141.733 144.896 150.267 L 148.442 158.800 150.221 158.879 L 152.000 158.958 152.000 144.412 L 152.000 129.867 149.871 129.867 L 147.741 129.867 147.671 138.067 L 147.600 146.267 145.628 141.733 C 144.544 139.240,142.938 135.550,142.060 133.533 L 140.464 129.867 138.632 129.867 L 136.800 129.867 136.800 144.400 M170.667 131.867 L 170.667 133.867 173.200 133.867 L 175.733 133.867 175.733 146.400 L 175.733 158.933 178.400 158.933 L 181.067 158.933 181.067 146.400 L 181.067 133.867 183.333 133.867 L 185.600 133.867 185.600 131.867 L 185.600 129.867 178.133 129.867 L 170.667 129.867 170.667 131.867 M187.467 144.400 L 187.467 158.933 190.133 158.933 L 192.800 158.933 192.800 144.400 L 192.800 129.867 190.133 129.867 L 187.467 129.867 187.467 144.400 M194.400 131.867 L 194.400 133.867 196.933 133.867 L 199.467 133.867 199.467 146.400 L 199.467 158.933 202.133 158.933 L 204.800 158.933 204.800 146.400 L 204.800 133.867 207.067 133.867 L 209.333 133.867 209.333 131.867 L 209.333 129.867 201.867 129.867 L 194.400 129.867 194.400 131.867 M210.728 141.267 C 210.853 153.808,210.967 154.728,212.657 156.944 C 214.919 159.910,221.997 160.260,224.776 157.543 C 227.012 155.356,227.191 154.120,227.196 140.867 L 227.200 129.867 224.667 129.867 L 222.133 129.867 222.122 140.600 C 222.115 146.503,222.009 151.856,221.886 152.496 C 221.422 154.895,219.555 156.066,217.747 155.093 C 216.127 154.220,216.141 154.328,216.056 141.533 L 215.979 129.867 213.297 129.867 L 210.614 129.867 210.728 141.267 M228.533 131.867 L 228.533 133.867 231.067 133.867 L 233.600 133.867 233.600 146.400 L 233.600 158.933 236.267 158.933 L 238.933 158.933 238.933 146.400 L 238.933 133.867 241.200 133.867 L 243.467 133.867 243.467 131.867 L 243.467 129.867 236.000 129.867 L 228.533 129.867 228.533 131.867 M245.333 144.400 L 245.333 158.933 248.000 158.933 L 250.667 158.933 250.667 144.400 L 250.667 129.867 248.000 129.867 L 245.333 129.867 245.333 144.400 M273.867 144.388 L 273.867 158.933 276.133 158.933 L 278.400 158.933 278.400 150.489 C 278.400 145.844,278.483 142.128,278.585 142.230 C 278.687 142.331,280.297 146.101,282.163 150.607 L 285.556 158.800 287.311 158.879 L 289.067 158.958 289.067 144.412 L 289.067 129.867 286.937 129.867 L 284.808 129.867 284.737 138.046 L 284.667 146.225 281.168 138.113 L 277.670 130.000 275.768 129.922 L 273.867 129.843 273.867 144.388 M263.733 133.674 C 265.235 134.425,265.332 135.074,265.333 144.342 C 265.333 150.988,265.253 153.009,264.962 153.707 C 263.802 156.483,260.098 155.976,259.471 152.956 C 259.008 150.722,259.213 135.851,259.721 134.848 C 260.410 133.489,262.273 132.944,263.733 133.674 M287.902 176.423 C 282.400 177.755,278.907 182.691,279.254 188.643 L 279.333 190.000 281.200 189.917 C 288.592 189.589,293.067 184.929,293.067 177.557 L 293.067 176.000 291.267 176.022 C 290.277 176.034,288.763 176.215,287.902 176.423 M264.997 179.137 C 261.656 185.580,262.791 190.617,268.483 194.610 L 270.093 195.739 270.655 194.949 C 274.878 189.019,273.146 181.422,266.748 177.803 L 265.929 177.340 264.997 179.137 M254.815 189.800 C 250.924 195.702,252.341 202.310,258.346 206.266 C 259.713 207.166,259.825 207.098,261.052 204.614 C 263.987 198.670,262.473 193.345,256.747 189.468 C 255.508 188.628,255.597 188.613,254.815 189.800 M275.611 193.199 C 274.930 194.152,272.250 197.185,269.653 199.938 C 261.692 208.382,259.843 211.080,258.126 216.755 L 257.535 218.711 253.891 215.100 C 249.799 211.045,248.370 210.166,245.500 209.935 C 240.368 209.524,233.468 213.606,223.067 223.208 C 215.304 230.374,209.572 232.915,201.200 232.904 C 191.650 232.891,184.888 229.533,174.933 219.860 C 157.790 203.202,141.980 196.844,122.800 198.896 L 121.200 199.067 122.913 199.995 C 129.495 203.563,132.682 210.182,136.953 229.159 C 142.255 252.714,150.819 263.033,167.387 265.829 L 170.267 266.315 168.133 266.789 C 163.175 267.891,160.774 269.087,152.933 274.361 C 142.635 281.288,135.607 282.898,124.133 280.958 C 121.479 280.509,121.451 280.537,123.669 281.435 C 125.987 282.375,130.271 284.758,135.467 288.000 C 145.198 294.071,148.591 295.894,153.092 297.467 C 158.310 299.290,165.254 300.819,170.233 301.240 L 172.267 301.412 172.267 310.439 L 172.267 319.467 169.000 319.463 C 167.203 319.461,155.293 319.223,142.533 318.934 C 129.773 318.645,118.043 318.407,116.467 318.405 L 113.600 318.400 113.600 324.667 L 113.600 330.933 114.333 330.929 C 114.737 330.926,138.767 330.393,167.733 329.745 L 220.400 328.567 230.133 329.617 C 235.487 330.194,240.250 330.731,240.718 330.809 L 241.570 330.952 241.651 336.432 L 241.733 341.911 242.604 342.689 L 243.475 343.467 260.688 343.467 C 278.944 343.467,278.632 343.489,279.331 342.139 C 279.964 340.913,279.934 307.872,279.298 306.964 C 278.345 305.603,278.308 305.600,260.667 305.600 C 239.659 305.600,241.600 304.814,241.600 313.325 C 241.600 317.203,241.521 318.402,241.267 318.408 C 241.083 318.413,236.253 318.927,230.533 319.550 L 220.133 320.684 207.333 320.368 C 200.293 320.194,193.423 320.040,192.067 320.026 L 189.600 320.000 189.600 310.555 L 189.600 301.109 190.333 300.961 C 190.737 300.880,192.207 300.623,193.600 300.390 C 222.630 295.542,238.928 278.402,237.460 254.267 C 236.435 237.430,242.103 228.851,256.294 225.761 L 256.989 225.609 257.165 228.071 C 257.553 233.499,259.475 240.802,260.512 240.796 C 261.847 240.788,261.868 240.598,260.929 237.167 C 260.045 233.938,259.351 230.116,259.088 227.035 L 258.949 225.404 260.178 225.235 C 260.855 225.142,262.430 225.067,263.679 225.067 L 265.949 225.067 264.241 223.964 C 263.302 223.357,261.834 222.312,260.978 221.641 L 259.423 220.420 259.603 219.224 C 260.306 214.535,263.371 209.528,269.333 203.333 C 274.797 197.655,278.400 193.461,278.400 192.778 C 278.400 192.664,278.051 192.321,277.624 192.017 L 276.848 191.465 275.611 193.199 M281.526 196.913 C 279.750 197.643,277.411 199.365,276.408 200.680 L 275.715 201.588 277.331 202.777 C 282.084 206.276,286.674 205.967,291.022 201.857 C 292.933 200.051,292.920 199.922,290.689 198.351 C 287.754 196.286,284.351 195.751,281.526 196.913 M271.324 208.487 C 268.928 209.379,266.400 210.977,266.400 211.601 C 266.400 212.895,271.050 216.297,273.520 216.811 C 275.955 217.317,280.074 216.043,282.492 214.036 L 283.250 213.407 281.633 211.678 C 278.568 208.401,274.739 207.216,271.324 208.487 M241.503 292.657 C 237.570 294.060,237.170 299.778,240.880 301.574 C 242.019 302.126,242.289 302.133,260.818 302.129 L 279.600 302.125 280.659 301.525 C 284.208 299.515,283.908 294.520,280.133 292.772 C 278.714 292.115,243.320 292.010,241.503 292.657 M184.267 310.640 L 184.267 319.733 180.800 319.733 L 177.333 319.733 177.333 310.844 C 177.333 305.956,177.384 301.906,177.447 301.844 C 177.509 301.783,179.069 301.691,180.913 301.640 L 184.267 301.547 184.267 310.640 M102.828 315.477 C 100.220 316.257,99.672 317.962,99.780 324.957 C 99.899 332.615,100.499 333.600,105.044 333.600 C 109.857 333.600,110.533 332.467,110.533 324.407 C 110.533 316.162,108.482 313.785,102.828 315.477 M241.333 347.358 C 237.709 348.928,237.219 353.783,240.461 356.005 L 241.427 356.667 260.447 356.739 C 278.989 356.809,279.494 356.797,280.509 356.279 C 284.317 354.336,283.840 348.462,279.776 347.244 C 278.041 346.725,242.553 346.830,241.333 347.358 " stroke="none" fill="#fafbfb" fill-rule="evenodd"></path><path id="path1" d="M39.800 34.332 C 41.377 34.379,43.957 34.379,45.533 34.332 C 47.110 34.285,45.820 34.247,42.667 34.247 C 39.513 34.247,38.223 34.285,39.800 34.332 M127.591 48.933 C 127.591 57.000,127.625 60.338,127.666 56.352 C 127.708 52.366,127.708 45.766,127.667 41.686 C 127.625 37.605,127.591 40.867,127.591 48.933 M228.656 46.133 C 228.656 52.660,228.691 55.330,228.733 52.067 C 228.775 48.803,228.775 43.463,228.733 40.200 C 228.691 36.937,228.656 39.607,228.656 46.133 M237.455 44.933 C 237.455 50.800,237.490 53.162,237.533 50.182 C 237.576 47.202,237.576 42.402,237.533 39.516 C 237.490 36.629,237.455 39.067,237.455 44.933 M62.517 38.200 L 61.733 39.067 62.600 38.283 C 63.408 37.553,63.589 37.333,63.383 37.333 C 63.337 37.333,62.947 37.723,62.517 38.200 M188.913 42.933 L 188.933 44.933 191.534 44.949 L 194.135 44.964 191.612 44.872 L 189.090 44.781 188.991 42.857 L 188.893 40.933 188.913 42.933 M303.050 48.933 C 303.050 52.747,303.087 54.270,303.133 52.318 C 303.178 50.366,303.178 47.246,303.132 45.384 C 303.087 43.523,303.049 45.120,303.050 48.933 M310.076 44.997 C 310.851 45.051,312.051 45.050,312.742 44.996 C 313.434 44.941,312.800 44.897,311.333 44.897 C 309.867 44.898,309.301 44.943,310.076 44.997 M207.823 48.267 C 207.823 49.367,207.870 49.817,207.928 49.267 C 207.985 48.717,207.985 47.817,207.928 47.267 C 207.870 46.717,207.823 47.167,207.823 48.267 M259.200 47.600 C 259.698 48.113,260.165 48.533,260.238 48.533 C 260.311 48.533,259.964 48.113,259.467 47.600 C 258.969 47.087,258.502 46.667,258.429 46.667 C 258.355 46.667,258.702 47.087,259.200 47.600 M188.893 54.667 C 188.893 55.913,188.939 56.423,188.995 55.800 C 189.051 55.177,189.051 54.157,188.995 53.533 C 188.939 52.910,188.893 53.420,188.893 54.667 M166.467 53.261 C 167.017 53.318,167.917 53.318,168.467 53.261 C 169.017 53.203,168.567 53.156,167.467 53.156 C 166.367 53.156,165.917 53.203,166.467 53.261 M71.262 55.467 C 71.262 55.980,71.317 56.190,71.384 55.933 C 71.451 55.677,71.451 55.257,71.384 55.000 C 71.317 54.743,71.262 54.953,71.262 55.467 M215.831 61.200 C 215.831 62.667,215.876 63.233,215.930 62.458 C 215.984 61.683,215.984 60.483,215.929 59.791 C 215.874 59.099,215.830 59.733,215.831 61.200 M157.954 61.733 C 157.955 62.760,158.004 63.147,158.061 62.594 C 158.119 62.041,158.118 61.201,158.059 60.727 C 158.000 60.254,157.953 60.707,157.954 61.733 M329.154 61.733 C 329.155 62.760,329.204 63.147,329.261 62.594 C 329.319 62.041,329.318 61.201,329.259 60.727 C 329.200 60.254,329.153 60.707,329.154 61.733 M185.533 63.922 C 185.863 63.985,186.403 63.985,186.733 63.922 C 187.063 63.858,186.793 63.806,186.133 63.806 C 185.473 63.806,185.203 63.858,185.533 63.922 M245.137 63.925 C 245.542 63.986,246.142 63.984,246.470 63.921 C 246.798 63.858,246.467 63.808,245.733 63.810 C 245.000 63.812,244.732 63.863,245.137 63.925 M264.203 63.922 C 264.535 63.986,265.015 63.983,265.270 63.917 C 265.525 63.850,265.253 63.798,264.667 63.801 C 264.080 63.804,263.871 63.858,264.203 63.922 M305.267 63.922 C 305.597 63.985,306.137 63.985,306.467 63.922 C 306.797 63.858,306.527 63.806,305.867 63.806 C 305.207 63.806,304.937 63.858,305.267 63.922 M225.667 64.194 C 226.217 64.252,227.117 64.252,227.667 64.194 C 228.217 64.137,227.767 64.090,226.667 64.090 C 225.567 64.090,225.117 64.137,225.667 64.194 M133.410 82.064 C 134.258 82.117,135.578 82.117,136.343 82.063 C 137.108 82.009,136.413 81.966,134.800 81.966 C 133.187 81.967,132.561 82.011,133.410 82.064 M146.267 82.026 C 147.494 82.225,149.541 82.252,149.426 82.067 C 149.358 81.957,148.499 81.883,147.518 81.903 C 146.536 81.923,145.973 81.978,146.267 82.026 M158.731 82.061 L 160.795 82.155 160.868 96.611 L 160.940 111.067 160.937 96.533 L 160.933 82.000 158.800 81.984 L 156.667 81.968 158.731 82.061 M166.613 82.065 C 167.830 82.115,169.750 82.115,170.879 82.065 C 172.009 82.015,171.013 81.974,168.667 81.975 C 166.320 81.975,165.396 82.016,166.613 82.065 M210.600 82.066 C 212.690 82.111,216.110 82.111,218.200 82.066 C 220.290 82.021,218.580 81.984,214.400 81.984 C 210.220 81.984,208.510 82.021,210.600 82.066 M225.400 82.065 C 226.537 82.115,228.397 82.115,229.533 82.065 C 230.670 82.015,229.740 81.974,227.467 81.974 C 225.193 81.974,224.263 82.015,225.400 82.065 M263.267 82.061 C 263.817 82.118,264.717 82.118,265.267 82.061 C 265.817 82.003,265.367 81.956,264.267 81.956 C 263.167 81.956,262.717 82.003,263.267 82.061 M273.188 82.203 C 273.117 82.388,273.092 86.138,273.133 90.536 L 273.208 98.533 273.271 90.344 L 273.333 82.155 275.533 82.065 L 277.733 81.975 275.525 81.921 C 273.952 81.882,273.279 81.963,273.188 82.203 M82.729 83.200 C 82.729 83.713,82.783 83.923,82.850 83.667 C 82.918 83.410,82.918 82.990,82.850 82.733 C 82.783 82.477,82.729 82.687,82.729 83.200 M229.404 85.791 C 229.809 85.853,230.409 85.851,230.737 85.788 C 231.065 85.724,230.733 85.674,230.000 85.676 C 229.267 85.678,228.998 85.730,229.404 85.791 M208.067 86.063 C 208.763 86.118,209.903 86.118,210.600 86.063 C 211.297 86.008,210.727 85.963,209.333 85.963 C 207.940 85.963,207.370 86.008,208.067 86.063 M217.189 86.200 C 217.119 86.383,217.094 92.113,217.133 98.933 L 217.205 111.333 217.269 98.744 L 217.333 86.154 219.667 86.065 L 222.000 85.976 219.658 85.922 C 217.989 85.882,217.280 85.962,217.189 86.200 M253.719 96.667 C 253.718 101.213,253.755 103.111,253.799 100.883 C 253.844 98.656,253.844 94.936,253.800 92.617 C 253.755 90.297,253.719 92.120,253.719 96.667 M180.648 96.400 C 180.649 99.920,180.686 101.323,180.733 99.518 C 180.779 97.713,180.779 94.833,180.732 93.118 C 180.686 91.403,180.648 92.880,180.648 96.400 M291.546 96.465 C 292.689 96.515,294.489 96.515,295.546 96.464 C 296.602 96.414,295.667 96.373,293.467 96.373 C 291.267 96.374,290.402 96.415,291.546 96.465 M290.338 99.927 C 290.817 99.986,291.537 99.985,291.938 99.924 C 292.339 99.863,291.947 99.814,291.067 99.816 C 290.187 99.817,289.859 99.867,290.338 99.927 M76.867 100.984 C 77.123 101.051,77.543 101.051,77.800 100.984 C 78.057 100.917,77.847 100.862,77.333 100.862 C 76.820 100.862,76.610 100.917,76.867 100.984 M201.395 104.800 C 201.395 105.313,201.450 105.523,201.517 105.267 C 201.584 105.010,201.584 104.590,201.517 104.333 C 201.450 104.077,201.395 104.287,201.395 104.800 M37.400 110.866 C 39.417 110.911,42.717 110.911,44.733 110.866 C 46.750 110.821,45.100 110.784,41.067 110.784 C 37.033 110.784,35.383 110.821,37.400 110.866 M76.200 111.926 C 76.677 111.985,77.457 111.985,77.933 111.926 C 78.410 111.867,78.020 111.819,77.067 111.819 C 76.113 111.819,75.723 111.867,76.200 111.926 M161.937 129.525 C 162.342 129.586,162.942 129.584,163.270 129.521 C 163.598 129.458,163.267 129.408,162.533 129.410 C 161.800 129.412,161.532 129.463,161.937 129.525 M261.667 129.524 C 262.070 129.585,262.730 129.585,263.133 129.524 C 263.537 129.463,263.207 129.413,262.400 129.413 C 261.593 129.413,261.263 129.463,261.667 129.524 M299.004 129.525 C 299.409 129.586,300.009 129.584,300.337 129.521 C 300.665 129.458,300.333 129.408,299.600 129.410 C 298.867 129.412,298.598 129.463,299.004 129.525 M147.585 138.000 C 147.585 142.547,147.621 144.444,147.666 142.217 C 147.711 139.989,147.711 136.269,147.666 133.950 C 147.622 131.631,147.585 133.453,147.585 138.000 M185.690 131.733 C 185.690 132.833,185.737 133.283,185.794 132.733 C 185.852 132.183,185.852 131.283,185.794 130.733 C 185.737 130.183,185.690 130.633,185.690 131.733 M209.423 131.733 C 209.423 132.833,209.470 133.283,209.528 132.733 C 209.585 132.183,209.585 131.283,209.528 130.733 C 209.470 130.183,209.423 130.633,209.423 131.733 M221.989 140.800 C 221.989 146.887,222.024 149.377,222.066 146.333 C 222.109 143.290,222.109 138.310,222.066 135.267 C 222.024 132.223,221.989 134.713,221.989 140.800 M243.556 131.733 C 243.556 132.833,243.603 133.283,243.661 132.733 C 243.718 132.183,243.718 131.283,243.661 130.733 C 243.603 130.183,243.556 130.633,243.556 131.733 M289.131 144.321 L 289.067 158.909 287.267 159.002 L 285.467 159.096 287.275 159.148 C 289.570 159.214,289.350 160.868,289.267 144.133 L 289.195 129.733 289.131 144.321 M261.803 133.522 C 262.135 133.586,262.615 133.583,262.870 133.517 C 263.125 133.450,262.853 133.398,262.267 133.401 C 261.680 133.404,261.471 133.458,261.803 133.522 M175.596 146.400 L 175.600 159.067 178.201 159.082 L 180.801 159.097 178.270 159.006 L 175.739 158.914 175.665 146.324 L 175.592 133.733 175.596 146.400 M199.329 146.400 L 199.333 159.067 201.934 159.082 L 204.535 159.097 202.003 159.006 L 199.472 158.914 199.399 146.324 L 199.325 133.733 199.329 146.400 M233.463 146.400 L 233.467 159.067 236.067 159.082 L 238.668 159.097 236.137 159.006 L 233.605 158.914 233.532 146.324 L 233.459 133.733 233.463 146.400 M259.318 144.400 C 259.318 148.800,259.355 150.637,259.399 148.483 C 259.444 146.329,259.444 142.729,259.400 140.483 C 259.355 138.237,259.318 140.000,259.318 144.400 M270.781 144.400 C 270.781 147.773,270.819 149.117,270.866 147.385 C 270.912 145.653,270.912 142.893,270.866 141.252 C 270.819 139.610,270.781 141.027,270.781 144.400 M303.733 144.400 C 304.231 144.913,304.698 145.333,304.771 145.333 C 304.845 145.333,304.498 144.913,304.000 144.400 C 303.502 143.887,303.035 143.467,302.962 143.467 C 302.889 143.467,303.236 143.887,303.733 144.400 M148.506 159.014 C 148.624 159.131,149.489 159.190,150.427 159.144 L 152.133 159.061 150.212 158.930 C 149.155 158.859,148.388 158.896,148.506 159.014 M129.000 159.130 C 129.770 159.184,131.030 159.184,131.800 159.130 C 132.570 159.076,131.940 159.032,130.400 159.032 C 128.860 159.032,128.230 159.076,129.000 159.130 M137.941 159.130 C 138.642 159.185,139.722 159.184,140.341 159.128 C 140.960 159.072,140.387 159.027,139.067 159.028 C 137.747 159.029,137.240 159.075,137.941 159.130 M188.742 159.130 C 189.517 159.184,190.717 159.184,191.409 159.129 C 192.101 159.074,191.467 159.030,190.000 159.031 C 188.533 159.031,187.967 159.076,188.742 159.130 M246.609 159.130 C 247.384 159.184,248.584 159.184,249.276 159.129 C 249.967 159.074,249.333 159.030,247.867 159.031 C 246.400 159.031,245.834 159.076,246.609 159.130 M275.008 159.130 C 275.709 159.185,276.789 159.184,277.408 159.128 C 278.027 159.072,277.453 159.027,276.133 159.028 C 274.813 159.029,274.307 159.075,275.008 159.130 M291.670 175.922 C 292.001 175.986,292.481 175.983,292.736 175.917 C 292.991 175.850,292.720 175.798,292.133 175.801 C 291.547 175.804,291.338 175.858,291.670 175.922 M269.600 180.133 C 270.098 180.647,270.565 181.067,270.638 181.067 C 270.711 181.067,270.364 180.647,269.867 180.133 C 269.369 179.620,268.902 179.200,268.829 179.200 C 268.755 179.200,269.102 179.620,269.600 180.133 M268.267 201.200 C 267.619 201.860,267.149 202.400,267.222 202.400 C 267.296 202.400,267.886 201.860,268.533 201.200 C 269.181 200.540,269.651 200.000,269.578 200.000 C 269.504 200.000,268.914 200.540,268.267 201.200 M237.431 251.867 C 237.431 253.333,237.476 253.899,237.530 253.124 C 237.584 252.349,237.584 251.149,237.529 250.458 C 237.474 249.766,237.430 250.400,237.431 251.867 M177.455 301.935 C 177.384 302.120,177.358 306.230,177.397 311.069 L 177.467 319.867 177.600 310.733 C 177.673 305.710,177.700 301.600,177.658 301.600 C 177.617 301.600,177.525 301.751,177.455 301.935 M180.337 301.791 C 180.742 301.853,181.342 301.851,181.670 301.788 C 181.998 301.724,181.667 301.674,180.933 301.676 C 180.200 301.678,179.932 301.730,180.337 301.791 M251.686 302.333 C 256.720 302.374,264.880 302.374,269.819 302.333 C 274.759 302.293,270.640 302.259,260.667 302.259 C 250.693 302.259,246.652 302.293,251.686 302.333 M124.738 318.593 C 125.217 318.653,125.937 318.651,126.338 318.591 C 126.739 318.530,126.347 318.481,125.467 318.483 C 124.587 318.484,124.259 318.534,124.738 318.593 M137.000 318.860 C 137.477 318.919,138.257 318.919,138.733 318.860 C 139.210 318.800,138.820 318.752,137.867 318.752 C 136.913 318.752,136.523 318.800,137.000 318.860 M149.267 319.126 C 149.743 319.185,150.523 319.185,151.000 319.126 C 151.477 319.067,151.087 319.019,150.133 319.019 C 149.180 319.019,148.790 319.067,149.267 319.126 M161.800 319.393 C 162.277 319.452,163.057 319.452,163.533 319.393 C 164.010 319.334,163.620 319.285,162.667 319.285 C 161.713 319.285,161.323 319.334,161.800 319.393 M197.271 320.193 C 197.751 320.253,198.471 320.251,198.871 320.191 C 199.272 320.130,198.880 320.081,198.000 320.083 C 197.120 320.084,196.792 320.134,197.271 320.193 M209.005 320.460 C 209.484 320.519,210.204 320.518,210.605 320.457 C 211.005 320.396,210.613 320.348,209.733 320.349 C 208.853 320.351,208.525 320.401,209.005 320.460 M217.005 328.727 C 217.484 328.786,218.204 328.785,218.605 328.724 C 219.005 328.663,218.613 328.614,217.733 328.616 C 216.853 328.617,216.525 328.667,217.005 328.727 M205.005 328.993 C 205.484 329.053,206.204 329.051,206.605 328.991 C 207.005 328.930,206.613 328.881,205.733 328.883 C 204.853 328.884,204.525 328.934,205.005 328.993 M193.005 329.260 C 193.484 329.319,194.204 329.318,194.605 329.257 C 195.005 329.196,194.613 329.148,193.733 329.149 C 192.853 329.151,192.525 329.201,193.005 329.260 M180.733 329.526 C 181.210 329.585,181.990 329.585,182.467 329.526 C 182.943 329.467,182.553 329.419,181.600 329.419 C 180.647 329.419,180.257 329.467,180.733 329.526 M168.733 329.793 C 169.210 329.852,169.990 329.852,170.467 329.793 C 170.943 329.734,170.553 329.685,169.600 329.685 C 168.647 329.685,168.257 329.734,168.733 329.793 M156.733 330.060 C 157.210 330.119,157.990 330.119,158.467 330.060 C 158.943 330.000,158.553 329.952,157.600 329.952 C 156.647 329.952,156.257 330.000,156.733 330.060 M144.733 330.326 C 145.210 330.385,145.990 330.385,146.467 330.326 C 146.943 330.267,146.553 330.219,145.600 330.219 C 144.647 330.219,144.257 330.267,144.733 330.326 M132.733 330.593 C 133.210 330.652,133.990 330.652,134.467 330.593 C 134.943 330.534,134.553 330.485,133.600 330.485 C 132.647 330.485,132.257 330.534,132.733 330.593 M120.733 330.860 C 121.210 330.919,121.990 330.919,122.467 330.860 C 122.943 330.800,122.553 330.752,121.600 330.752 C 120.647 330.752,120.257 330.800,120.733 330.860 M104.200 333.793 C 104.677 333.852,105.457 333.852,105.933 333.793 C 106.410 333.734,106.020 333.685,105.067 333.685 C 104.113 333.685,103.723 333.734,104.200 333.793 M252.353 343.667 C 257.020 343.707,264.580 343.707,269.153 343.666 C 273.725 343.626,269.907 343.592,260.667 343.592 C 251.427 343.592,247.685 343.626,252.353 343.667 M251.800 357.000 C 256.750 357.041,264.850 357.041,269.800 357.000 C 274.750 356.959,270.700 356.926,260.800 356.926 C 250.900 356.926,246.850 356.959,251.800 357.000 " stroke="none" fill="#84b4cc" fill-rule="evenodd"></path><path id="path2" d="M0.000 200.000 L 0.000 400.000 200.000 400.000 L 400.000 400.000 400.000 200.000 L 400.000 0.000 200.000 0.000 L 0.000 0.000 0.000 200.000 M84.754 34.109 C 92.611 36.404,96.486 42.621,96.529 53.000 L 96.533 54.133 89.507 54.133 L 82.480 54.133 82.315 51.667 C 81.944 46.114,80.164 44.074,76.236 44.702 C 72.511 45.298,71.718 47.721,71.539 59.055 L 71.413 67.044 72.540 66.026 C 77.312 61.714,87.509 62.317,92.280 67.192 C 100.064 75.147,99.359 98.944,91.099 107.067 C 87.553 110.554,83.881 111.810,77.200 111.820 C 64.635 111.838,57.851 104.885,56.524 90.627 C 56.034 85.352,56.314 54.464,56.881 51.325 C 58.823 40.580,62.975 35.477,71.200 33.722 C 73.958 33.134,82.222 33.370,84.754 34.109 M189.974 34.413 C 192.841 35.486,193.880 37.394,194.069 41.933 L 194.199 45.067 191.500 45.067 L 188.800 45.067 188.800 42.551 C 188.800 38.674,187.850 37.456,185.353 38.128 C 183.526 38.620,183.467 38.956,183.467 48.782 C 183.467 59.143,183.610 59.733,186.133 59.733 C 188.181 59.733,188.800 58.623,188.800 54.947 L 188.800 52.267 191.495 52.267 L 194.190 52.267 194.082 55.400 C 193.883 61.209,191.955 63.557,187.084 63.924 C 182.545 64.266,179.389 62.348,178.256 58.557 C 177.564 56.243,177.691 41.160,178.422 38.793 C 179.727 34.565,185.018 32.559,189.974 34.413 M266.954 34.171 C 269.224 34.851,270.956 37.175,271.432 40.177 C 271.732 42.072,271.899 41.905,269.192 42.416 L 266.955 42.838 266.829 42.152 C 266.759 41.775,266.631 41.029,266.544 40.494 C 265.956 36.875,261.652 37.386,261.917 41.043 C 262.054 42.936,262.345 43.328,265.936 46.458 C 270.783 50.684,272.068 52.791,272.077 56.533 C 272.102 66.584,257.569 66.580,256.630 56.528 L 256.468 54.790 258.701 54.327 C 259.929 54.072,261.012 53.865,261.108 53.865 C 261.205 53.866,261.366 54.497,261.468 55.267 C 261.968 59.056,264.800 61.076,266.333 58.736 C 267.581 56.831,266.533 54.202,263.419 51.425 C 256.953 45.657,256.667 45.224,256.667 41.200 C 256.666 35.556,261.212 32.451,266.954 34.171 M310.133 34.509 C 312.737 35.859,313.778 37.930,314.044 42.287 L 314.214 45.067 311.374 45.067 L 308.533 45.067 308.533 42.282 C 308.533 38.776,308.096 38.044,306.000 38.044 C 303.302 38.044,303.133 38.762,303.249 49.733 C 303.349 59.252,303.488 59.733,306.131 59.733 C 307.863 59.733,308.385 58.799,308.533 55.424 L 308.667 52.400 311.333 52.400 L 314.000 52.400 313.964 54.849 C 313.869 61.367,311.659 63.868,306.000 63.865 C 301.811 63.863,299.695 62.607,298.290 59.289 C 296.965 56.162,297.403 39.969,298.886 37.229 C 300.517 34.216,306.691 32.723,310.133 34.509 M48.533 72.533 L 48.533 110.933 41.067 110.933 L 33.600 110.933 33.600 80.369 C 33.600 51.383,33.576 49.812,33.133 49.948 C 32.877 50.028,30.507 50.880,27.867 51.843 C 25.227 52.806,22.977 53.595,22.867 53.597 C 22.757 53.599,22.667 51.080,22.667 48.000 C 22.667 43.360,22.731 42.400,23.043 42.400 C 24.349 42.400,34.736 36.441,36.246 34.825 L 36.893 34.133 42.713 34.133 L 48.533 34.133 48.533 72.533 M138.901 34.548 C 142.434 35.598,144.327 39.745,143.468 44.551 C 142.734 48.656,140.638 50.250,135.534 50.585 L 133.067 50.747 133.067 57.240 L 133.067 63.733 130.267 63.733 L 127.467 63.733 127.467 48.933 L 127.467 34.133 132.485 34.133 C 136.250 34.133,137.852 34.237,138.901 34.548 M157.867 36.133 L 157.867 38.133 154.533 38.133 L 151.200 38.133 151.200 42.267 L 151.200 46.400 153.867 46.400 L 156.533 46.400 156.533 48.400 L 156.533 50.400 153.867 50.400 L 151.200 50.400 151.200 55.067 L 151.200 59.733 154.667 59.733 L 158.133 59.733 158.133 61.733 L 158.133 63.733 151.867 63.733 L 145.600 63.733 145.600 48.933 L 145.600 34.133 151.733 34.133 L 157.867 34.133 157.867 36.133 M170.490 34.733 C 170.822 36.087,176.267 63.131,176.267 63.429 C 176.267 63.666,175.570 63.732,173.675 63.676 L 171.083 63.600 170.618 60.800 C 169.881 56.358,170.226 56.800,167.493 56.800 L 165.130 56.800 164.675 59.400 C 164.425 60.830,164.133 62.360,164.027 62.800 L 163.834 63.600 161.250 63.676 C 159.829 63.718,158.667 63.647,158.667 63.519 C 158.667 63.390,159.987 56.777,161.600 48.824 C 163.213 40.871,164.533 34.312,164.533 34.249 C 164.533 33.712,170.355 34.186,170.490 34.733 M209.333 36.133 L 209.333 38.133 205.867 38.133 L 202.400 38.133 202.400 42.267 L 202.400 46.400 205.200 46.400 L 208.000 46.400 208.000 48.400 L 208.000 50.400 205.200 50.400 L 202.400 50.400 202.400 55.067 L 202.400 59.733 206.012 59.733 L 209.623 59.733 209.545 61.667 L 209.467 63.600 203.200 63.600 L 196.933 63.600 196.864 48.867 L 196.795 34.133 203.064 34.133 L 209.333 34.133 209.333 36.133 M234.133 46.387 C 234.133 63.609,233.858 64.267,226.654 64.267 L 224.800 64.267 224.800 62.301 L 224.800 60.335 226.096 60.163 C 228.526 59.841,228.390 60.624,228.474 46.506 L 228.549 34.133 231.341 34.133 L 234.133 34.133 234.133 46.387 M242.717 45.533 C 242.824 59.011,242.978 59.733,245.757 59.733 C 248.370 59.733,248.530 58.908,248.532 45.400 L 248.533 34.133 251.333 34.133 L 254.133 34.133 254.125 44.467 C 254.114 58.224,253.755 60.433,251.200 62.445 C 248.255 64.764,241.841 64.367,239.512 61.722 C 237.534 59.474,237.500 59.222,237.393 45.933 L 237.298 34.133 239.962 34.133 L 242.626 34.133 242.717 45.533 M287.467 36.267 L 287.467 38.400 285.067 38.400 L 282.667 38.400 282.667 51.076 L 282.667 63.752 279.933 63.676 L 277.200 63.600 277.131 51.000 L 277.061 38.400 274.664 38.400 L 272.267 38.400 272.267 36.267 L 272.267 34.133 279.867 34.133 L 287.467 34.133 287.467 36.267 M294.400 48.933 L 294.400 63.733 291.733 63.733 L 289.067 63.733 289.067 48.933 L 289.067 34.133 291.733 34.133 L 294.400 34.133 294.400 48.933 M329.333 36.133 L 329.333 38.133 325.867 38.133 L 322.400 38.133 322.400 42.267 L 322.400 46.400 325.067 46.400 L 327.733 46.400 327.733 48.400 L 327.733 50.400 325.067 50.400 L 322.400 50.400 322.400 55.067 L 322.400 59.733 325.867 59.733 L 329.333 59.733 329.333 61.733 L 329.333 63.733 323.067 63.733 L 316.800 63.733 316.800 48.933 L 316.800 34.133 323.067 34.133 L 329.333 34.133 329.333 36.133 M133.067 42.438 L 133.067 46.743 134.695 46.572 C 137.812 46.247,138.547 45.269,138.334 41.733 C 138.159 38.824,137.422 38.133,134.494 38.133 L 133.067 38.133 133.067 42.438 M167.375 43.200 C 167.152 44.036,165.867 52.091,165.867 52.652 C 165.867 52.984,166.209 53.067,167.583 53.067 L 169.300 53.067 169.159 52.200 C 167.916 44.527,167.534 42.603,167.375 43.200 M215.994 61.267 C 215.983 65.447,215.479 66.764,213.442 67.929 C 211.938 68.789,211.577 68.713,211.261 67.467 C 211.037 66.583,211.057 66.400,211.382 66.400 C 211.968 66.400,213.333 64.922,213.333 64.287 C 213.333 63.809,213.170 63.733,212.133 63.733 L 210.933 63.733 210.933 61.200 L 210.933 58.667 213.467 58.667 L 216.000 58.667 215.994 61.267 M74.506 75.161 C 73.905 75.442,72.975 76.110,72.440 76.645 L 71.467 77.618 71.467 85.623 C 71.467 94.552,71.688 96.317,73.087 98.522 C 75.098 101.693,79.743 101.551,81.332 98.270 C 83.080 94.658,83.249 80.607,81.586 77.171 C 80.459 74.843,77.181 73.912,74.506 75.161 M202.472 82.362 C 204.452 83.333,206.133 86.351,206.133 88.936 C 206.133 89.761,206.105 89.780,204.333 90.103 C 203.343 90.283,202.263 90.497,201.933 90.578 C 201.401 90.708,201.333 90.623,201.332 89.829 C 201.326 86.350,199.021 84.671,197.011 86.682 C 195.201 88.492,196.057 90.283,200.718 94.435 C 206.100 99.229,207.645 102.672,206.353 106.985 C 204.550 113.001,194.564 113.368,192.044 107.510 C 191.430 106.082,190.838 102.905,191.139 102.652 C 191.305 102.512,195.317 101.600,195.768 101.600 C 195.854 101.600,196.000 102.323,196.092 103.207 C 196.591 107.979,201.333 109.215,201.333 104.573 C 201.333 102.639,200.269 101.140,196.697 98.043 C 191.425 93.470,190.202 90.723,191.438 86.221 C 192.492 82.378,198.336 80.335,202.472 82.362 M255.277 82.494 C 258.541 84.091,259.208 86.085,259.389 94.800 C 259.678 108.655,258.149 111.600,250.667 111.600 C 243.525 111.600,242.267 109.362,242.267 96.667 C 242.267 86.247,242.799 84.216,245.957 82.585 C 248.408 81.319,252.788 81.277,255.277 82.494 M292.510 82.018 C 295.545 82.919,296.992 85.168,297.260 89.400 L 297.407 91.733 294.737 91.733 L 292.067 91.733 291.946 89.425 C 291.801 86.671,291.204 85.867,289.301 85.867 C 286.498 85.867,286.400 86.220,286.400 96.347 C 286.400 106.628,286.602 107.467,289.084 107.467 C 291.443 107.467,292.236 106.295,292.464 102.472 L 292.612 100.000 290.973 100.000 L 289.333 100.000 289.333 98.133 L 289.333 96.267 293.471 96.267 L 297.608 96.267 297.537 103.800 L 297.467 111.333 295.758 111.414 C 293.815 111.505,293.610 111.349,293.604 109.761 L 293.600 108.721 292.998 109.627 C 291.306 112.172,286.498 112.495,283.568 110.260 C 281.314 108.541,280.536 105.081,280.540 96.800 C 280.547 84.538,282.102 81.778,289.085 81.640 C 290.259 81.617,291.692 81.775,292.510 82.018 M140.691 96.533 C 142.318 104.527,143.601 111.157,143.542 111.267 C 143.483 111.377,142.318 111.467,140.951 111.467 L 138.468 111.467 138.044 109.133 C 137.811 107.850,137.540 106.286,137.441 105.657 L 137.262 104.514 134.840 104.590 L 132.417 104.667 131.821 108.000 C 131.494 109.833,131.220 111.368,131.213 111.410 C 131.154 111.756,126.007 111.280,126.055 110.933 C 126.151 110.234,131.759 82.548,131.877 82.191 C 131.962 81.934,132.706 81.867,134.862 81.924 L 137.733 82.000 140.691 96.533 M152.800 89.644 L 156.133 97.411 156.204 89.639 L 156.275 81.867 158.671 81.867 L 161.067 81.867 161.067 96.678 L 161.067 111.490 159.168 111.412 L 157.270 111.333 153.902 103.200 L 150.533 95.067 150.400 103.200 L 150.267 111.333 147.933 111.410 L 145.600 111.487 145.600 96.677 L 145.600 81.867 147.533 81.872 L 149.467 81.876 152.800 89.644 M174.546 82.158 C 179.864 83.141,180.801 85.274,180.798 96.382 C 180.794 109.897,179.552 111.450,168.733 111.462 L 164.533 111.467 164.533 96.667 L 164.533 81.867 168.751 81.867 C 171.071 81.867,173.678 81.998,174.546 82.158 M222.133 84.000 L 222.133 86.133 219.733 86.133 L 217.333 86.133 217.333 98.800 L 217.333 111.467 214.533 111.467 L 211.733 111.467 211.733 98.800 L 211.733 86.133 209.333 86.133 L 206.933 86.133 206.933 84.000 L 206.933 81.867 214.533 81.867 L 222.133 81.867 222.133 84.000 M233.474 82.157 C 235.197 82.476,237.210 83.391,237.923 84.181 C 240.561 87.100,240.028 94.693,237.063 96.445 C 236.063 97.035,235.953 96.300,238.242 104.355 C 239.617 109.196,240.104 111.279,239.879 111.365 C 239.704 111.433,238.436 111.453,237.062 111.411 L 234.565 111.333 232.841 104.733 L 231.117 98.133 230.096 98.133 L 229.076 98.133 229.005 104.733 L 228.933 111.333 226.200 111.409 L 223.467 111.485 223.467 96.676 L 223.467 81.867 227.684 81.867 C 230.004 81.867,232.609 81.997,233.474 82.157 M269.570 89.800 L 272.933 97.599 273.004 89.733 L 273.075 81.867 275.473 81.867 L 277.871 81.867 277.802 96.600 L 277.733 111.333 275.867 111.333 L 274.000 111.333 270.533 102.986 L 267.067 94.638 266.996 103.063 L 266.926 111.487 264.596 111.410 L 262.267 111.333 262.198 96.589 L 262.129 81.844 264.168 81.922 L 266.207 82.000 269.570 89.800 M170.133 96.667 L 170.133 107.541 171.621 107.388 C 174.992 107.040,175.042 106.882,175.056 96.533 C 175.069 86.381,175.066 86.373,171.661 85.973 L 170.133 85.793 170.133 96.667 M229.067 90.170 L 229.067 94.474 230.707 94.325 C 233.451 94.076,234.594 92.521,234.306 89.430 C 234.056 86.754,233.074 85.867,230.360 85.867 L 229.067 85.867 229.067 90.170 M248.863 86.399 C 248.016 87.188,247.965 87.877,248.053 97.423 L 248.133 106.180 248.882 106.823 C 249.923 107.719,251.769 107.722,252.661 106.830 C 253.586 105.905,253.636 105.276,253.547 95.777 L 253.467 87.153 252.718 86.510 C 251.736 85.666,249.712 85.607,248.863 86.399 M134.030 94.871 C 133.626 97.472,133.230 99.870,133.152 100.200 C 133.015 100.776,133.079 100.800,134.771 100.800 C 135.740 100.800,136.533 100.688,136.533 100.552 C 136.533 100.155,134.914 90.292,134.836 90.214 C 134.797 90.175,134.434 92.271,134.030 94.871 M165.170 129.711 C 167.780 130.496,169.510 132.849,169.796 136.003 L 169.933 137.514 167.700 137.957 C 166.472 138.201,165.377 138.400,165.267 138.400 C 165.157 138.400,165.067 137.922,165.067 137.339 C 165.067 134.211,162.845 132.555,160.897 134.230 C 158.960 135.897,159.967 138.174,164.380 142.105 C 169.250 146.443,170.400 148.375,170.400 152.217 C 170.400 162.152,155.328 161.993,155.106 152.056 L 155.067 150.315 157.200 149.839 C 159.912 149.235,159.733 149.224,159.733 149.987 C 159.733 153.841,162.460 156.497,164.412 154.545 C 166.326 152.632,165.002 149.740,160.376 145.728 C 155.596 141.583,154.803 140.174,154.975 136.124 C 155.190 131.037,159.846 128.109,165.170 129.711 M266.806 130.258 C 270.331 131.982,270.800 133.644,270.800 144.400 C 270.800 157.263,269.633 159.333,262.381 159.333 C 254.978 159.333,253.861 157.326,253.875 144.054 C 253.886 134.124,254.255 132.540,256.992 130.664 C 259.253 129.115,264.062 128.916,266.806 130.258 M303.310 130.122 C 305.335 131.102,306.727 133.527,306.986 136.528 L 307.067 137.456 304.820 137.935 C 302.314 138.470,302.145 138.402,302.137 136.858 C 302.124 134.035,299.170 132.430,297.741 134.470 C 296.407 136.374,297.388 138.530,301.035 141.705 C 306.980 146.883,308.541 150.156,307.235 154.705 C 304.923 162.763,292.321 160.303,292.161 151.762 L 292.133 150.299 294.400 149.840 C 295.647 149.588,296.677 149.400,296.690 149.424 C 296.702 149.447,296.868 150.365,297.058 151.462 C 297.732 155.349,301.198 156.732,302.098 153.472 C 302.750 151.110,301.723 149.376,297.518 145.747 C 292.818 141.692,291.820 139.928,292.044 136.072 C 292.357 130.664,298.131 127.615,303.310 130.122 M133.067 144.400 L 133.067 159.200 130.400 159.200 L 127.733 159.200 127.733 144.400 L 127.733 129.600 130.400 129.600 L 133.067 129.600 133.067 144.400 M143.970 137.533 L 147.333 145.332 147.404 137.456 L 147.475 129.579 149.804 129.656 L 152.133 129.733 152.202 144.467 L 152.271 159.200 150.336 159.196 L 148.400 159.191 144.933 150.773 L 141.467 142.355 141.396 150.777 L 141.326 159.200 138.930 159.200 L 136.533 159.200 136.533 144.578 C 136.533 136.536,136.618 129.871,136.722 129.767 C 136.825 129.664,137.742 129.614,138.759 129.656 L 140.607 129.733 143.970 137.533 M185.867 131.733 L 185.867 133.867 183.467 133.867 L 181.067 133.867 181.067 146.533 L 181.067 159.200 178.267 159.200 L 175.467 159.200 175.467 146.533 L 175.467 133.867 173.067 133.867 L 170.667 133.867 170.667 131.733 L 170.667 129.600 178.267 129.600 L 185.867 129.600 185.867 131.733 M192.800 144.400 L 192.800 159.200 190.000 159.200 L 187.200 159.200 187.200 144.578 C 187.200 136.536,187.280 129.876,187.378 129.778 C 187.476 129.680,188.736 129.600,190.178 129.600 L 192.800 129.600 192.800 144.400 M209.600 131.733 L 209.600 133.867 207.200 133.867 L 204.800 133.867 204.800 146.533 L 204.800 159.200 202.000 159.200 L 199.200 159.200 199.200 146.533 L 199.200 133.867 196.800 133.867 L 194.400 133.867 194.400 131.733 L 194.400 129.600 202.000 129.600 L 209.600 129.600 209.600 131.733 M216.051 141.133 C 216.149 154.908,216.211 155.200,219.013 155.200 C 221.715 155.200,221.863 154.452,221.865 140.857 L 221.867 129.581 224.600 129.657 L 227.333 129.733 227.408 139.333 C 227.515 153.065,227.156 155.573,224.779 157.720 C 221.758 160.450,214.445 159.943,212.412 156.863 C 210.815 154.445,210.823 154.509,210.726 141.533 L 210.637 129.600 213.303 129.600 L 215.969 129.600 216.051 141.133 M243.733 131.733 L 243.733 133.867 241.333 133.867 L 238.933 133.867 238.933 146.533 L 238.933 159.200 236.133 159.200 L 233.333 159.200 233.333 146.533 L 233.333 133.867 230.933 133.867 L 228.533 133.867 228.533 131.733 L 228.533 129.600 236.133 129.600 L 243.733 129.600 243.733 131.733 M250.667 144.400 L 250.667 159.200 247.867 159.200 L 245.067 159.200 245.067 144.578 C 245.067 136.536,245.147 129.876,245.244 129.778 C 245.342 129.680,246.602 129.600,248.044 129.600 L 250.667 129.600 250.667 144.400 M281.113 137.600 L 284.517 145.467 284.592 137.600 L 284.667 129.733 287.000 129.656 L 289.333 129.579 289.333 144.401 L 289.333 159.223 287.417 159.145 L 285.500 159.067 282.150 150.981 L 278.800 142.896 278.729 151.048 L 278.659 159.200 276.263 159.200 L 273.867 159.200 273.867 144.388 L 273.867 129.577 275.787 129.655 L 277.708 129.733 281.113 137.600 M260.708 133.902 C 259.438 134.640,258.723 151.038,259.844 153.720 C 260.536 155.376,263.054 155.824,264.287 154.512 L 264.933 153.824 264.933 144.355 L 264.933 134.887 264.185 134.244 C 263.371 133.543,261.621 133.372,260.708 133.902 M293.129 177.867 C 292.853 185.686,287.775 190.552,280.379 190.083 L 279.067 190.000 279.152 188.000 C 279.485 180.158,284.181 175.613,291.733 175.825 L 293.200 175.867 293.129 177.867 M267.503 178.156 C 273.151 181.781,274.636 187.136,271.697 193.281 C 270.433 195.922,270.250 196.023,268.678 194.941 C 262.641 190.787,261.318 184.549,265.179 178.434 C 266.009 177.118,265.904 177.130,267.503 178.156 M259.207 191.467 C 263.420 195.618,263.839 201.949,260.200 206.481 L 259.600 207.228 258.345 206.397 C 252.118 202.271,250.728 195.987,254.668 189.773 L 255.472 188.506 256.325 188.987 C 256.794 189.251,258.091 190.367,259.207 191.467 M277.994 192.104 L 278.787 192.739 277.194 194.831 C 276.317 195.982,274.337 198.246,272.794 199.862 C 264.949 208.077,263.684 209.659,261.702 213.733 C 261.060 215.053,260.300 217.033,260.014 218.133 L 259.493 220.133 260.581 221.104 C 261.180 221.638,262.667 222.718,263.884 223.504 C 266.496 225.190,266.590 225.387,264.733 225.292 C 263.963 225.253,262.386 225.246,261.227 225.277 L 259.121 225.333 259.295 227.591 C 259.563 231.085,260.952 237.572,262.035 240.396 C 262.178 240.769,262.016 240.820,260.916 240.749 L 259.629 240.667 259.151 239.067 C 258.291 236.191,257.367 231.656,257.060 228.802 C 256.693 225.388,257.058 225.646,253.802 226.494 C 241.632 229.665,238.075 235.764,237.602 254.267 C 237.203 269.851,234.874 276.656,227.208 284.634 C 219.310 292.854,204.945 299.356,191.133 300.962 L 189.600 301.140 189.600 310.418 L 189.600 319.695 191.000 319.836 C 191.770 319.913,198.704 320.106,206.409 320.265 L 220.418 320.553 230.409 319.468 C 235.904 318.871,240.670 318.324,241.000 318.253 C 241.598 318.124,241.600 318.105,241.600 312.768 L 241.600 307.413 242.507 306.507 L 243.413 305.600 260.573 305.604 C 279.342 305.608,278.706 305.555,279.533 307.204 C 280.205 308.544,280.254 340.584,279.586 341.992 C 278.714 343.830,279.394 343.771,260.311 343.681 L 243.156 343.600 242.378 342.729 L 241.600 341.858 241.600 336.439 L 241.600 331.020 230.936 329.867 L 220.272 328.714 169.136 329.825 C 141.011 330.437,116.980 330.962,115.733 330.993 L 113.467 331.050 113.395 324.568 L 113.324 318.087 118.329 318.252 C 121.081 318.343,131.973 318.590,142.533 318.801 C 153.093 319.012,164.103 319.260,167.000 319.353 L 172.267 319.521 172.267 310.587 L 172.267 301.652 170.600 301.478 C 157.753 300.130,150.153 297.329,136.933 289.070 C 129.880 284.664,123.648 281.370,120.786 280.535 C 118.046 279.736,118.043 279.735,118.169 279.609 C 118.231 279.547,119.157 279.726,120.226 280.007 C 127.192 281.836,136.917 281.779,142.749 279.875 C 145.727 278.903,146.775 278.315,153.113 274.063 C 160.683 268.985,163.250 267.718,168.400 266.516 C 169.089 266.355,168.923 266.280,167.200 265.977 C 150.692 263.068,142.050 252.637,136.813 229.296 C 132.586 210.457,129.194 203.432,122.667 200.003 L 120.933 199.093 121.867 198.861 C 123.655 198.418,134.813 198.536,137.867 199.031 C 151.791 201.284,161.789 206.924,175.748 220.396 C 192.452 236.520,207.388 237.265,223.333 222.773 C 234.085 213.000,239.773 209.671,245.290 209.920 C 248.701 210.074,249.559 210.575,253.835 214.913 L 257.403 218.533 258.123 216.267 C 259.847 210.834,261.919 207.830,269.158 200.276 C 271.481 197.851,274.121 194.878,275.025 193.670 C 276.852 191.226,276.878 191.212,277.994 192.104 M286.791 196.409 C 288.626 196.887,290.564 197.891,291.929 199.071 L 292.900 199.910 292.285 200.774 C 288.712 205.792,282.292 206.636,277.038 202.779 C 275.401 201.577,275.407 201.500,277.267 199.699 C 280.678 196.396,283.285 195.496,286.791 196.409 M277.982 208.693 C 279.549 209.460,281.792 211.305,282.688 212.563 L 283.261 213.368 282.633 214.036 C 278.989 217.915,272.486 217.916,268.343 214.040 C 266.013 211.861,265.860 211.528,266.831 210.753 C 270.382 207.916,274.749 207.110,277.982 208.693 M280.183 292.550 C 283.841 293.933,284.341 299.331,281.014 301.533 L 279.906 302.267 261.353 302.348 C 248.432 302.404,242.495 302.340,241.796 302.136 C 237.376 300.846,236.830 294.879,240.933 292.711 C 241.922 292.189,278.826 292.038,280.183 292.550 M180.600 301.799 L 177.600 301.884 177.600 310.639 L 177.600 319.394 178.837 319.564 C 179.518 319.657,181.018 319.733,182.171 319.733 L 184.267 319.733 184.267 310.667 C 184.267 303.561,184.195 301.612,183.933 301.657 C 183.750 301.688,182.250 301.752,180.600 301.799 M108.183 315.642 C 110.260 316.627,110.522 317.509,110.621 323.846 C 110.716 329.937,110.578 330.897,109.405 332.291 C 107.313 334.778,101.898 334.365,100.331 331.600 C 99.387 329.932,99.523 318.482,100.504 317.107 C 101.864 315.199,105.707 314.466,108.183 315.642 M280.183 347.217 C 283.899 348.621,284.318 354.166,280.869 356.310 L 279.867 356.933 261.067 357.006 L 242.267 357.079 241.082 356.473 C 237.206 354.490,237.123 349.385,240.933 347.376 C 241.922 346.855,278.828 346.705,280.183 347.217 " stroke="none" fill="#046c9c" fill-rule="evenodd"></path><path id="path3" d="M196.930 48.933 L 196.933 63.600 203.200 63.600 L 209.467 63.600 209.486 61.799 L 209.506 59.998 209.408 61.732 L 209.309 63.467 203.190 63.467 L 197.071 63.467 196.999 48.867 L 196.926 34.267 196.930 48.933 M248.655 44.933 C 248.655 50.800,248.690 53.162,248.733 50.182 C 248.776 47.202,248.776 42.402,248.733 39.516 C 248.690 36.629,248.655 39.067,248.655 44.933 M253.988 44.933 C 253.988 50.800,254.023 53.162,254.066 50.182 C 254.109 47.202,254.109 42.402,254.066 39.516 C 254.023 36.629,253.988 39.067,253.988 44.933 M329.154 36.133 C 329.155 37.160,329.204 37.547,329.261 36.994 C 329.319 36.441,329.318 35.601,329.259 35.127 C 329.200 34.654,329.153 35.107,329.154 36.133 M151.041 42.267 C 151.042 44.613,151.082 45.538,151.132 44.321 C 151.181 43.104,151.181 41.184,151.131 40.054 C 151.081 38.924,151.041 39.920,151.041 42.267 M274.731 38.326 L 277.061 38.421 277.131 51.010 L 277.200 63.600 279.867 63.614 L 282.533 63.628 279.936 63.538 L 277.339 63.448 277.269 50.857 L 277.200 38.267 274.800 38.249 L 272.400 38.232 274.731 38.326 M283.808 38.330 C 284.509 38.385,285.589 38.384,286.208 38.328 C 286.827 38.272,286.253 38.227,284.933 38.228 C 283.613 38.229,283.107 38.275,283.808 38.330 M322.241 42.267 C 322.242 44.613,322.282 45.538,322.332 44.321 C 322.381 43.104,322.381 41.184,322.331 40.054 C 322.281 38.924,322.241 39.920,322.241 42.267 M261.662 40.800 C 261.662 41.313,261.717 41.523,261.784 41.267 C 261.851 41.010,261.851 40.590,261.784 40.333 C 261.717 40.077,261.662 40.287,261.662 40.800 M308.623 42.933 C 308.623 44.033,308.670 44.483,308.728 43.933 C 308.785 43.383,308.785 42.483,308.728 41.933 C 308.670 41.383,308.623 41.833,308.623 42.933 M143.534 42.533 C 143.537 43.120,143.591 43.329,143.655 42.997 C 143.719 42.665,143.717 42.185,143.650 41.930 C 143.583 41.675,143.531 41.947,143.534 42.533 M313.952 43.200 C 313.952 44.153,314.000 44.543,314.060 44.067 C 314.119 43.590,314.119 42.810,314.060 42.333 C 314.000 41.857,313.952 42.247,313.952 43.200 M183.316 48.800 C 183.316 52.540,183.353 54.070,183.399 52.200 C 183.445 50.330,183.445 47.270,183.399 45.400 C 183.353 43.530,183.316 45.060,183.316 48.800 M33.729 80.133 C 33.729 97.000,33.761 103.861,33.800 95.379 C 33.839 86.898,33.839 73.098,33.800 64.713 C 33.761 56.327,33.729 63.267,33.729 80.133 M151.052 50.476 C 150.979 50.665,150.956 52.855,151.000 55.343 L 151.080 59.867 151.140 55.143 L 151.200 50.419 153.800 50.332 L 156.400 50.245 153.792 50.189 C 151.870 50.148,151.149 50.224,151.052 50.476 M203.667 50.330 C 204.437 50.384,205.697 50.384,206.467 50.330 C 207.237 50.276,206.607 50.232,205.067 50.232 C 203.527 50.232,202.897 50.276,203.667 50.330 M322.252 50.476 C 322.179 50.665,322.156 52.855,322.200 55.343 L 322.280 59.867 322.340 55.143 L 322.400 50.419 325.000 50.332 L 327.600 50.245 324.992 50.189 C 323.070 50.148,322.349 50.224,322.252 50.476 M133.794 50.592 C 134.267 50.651,135.107 50.652,135.661 50.595 C 136.214 50.537,135.827 50.489,134.800 50.488 C 133.773 50.486,133.321 50.534,133.794 50.592 M96.334 51.867 C 96.337 52.453,96.391 52.662,96.455 52.330 C 96.519 51.999,96.517 51.519,96.450 51.264 C 96.383 51.009,96.331 51.280,96.334 51.867 M190.342 52.464 C 191.117 52.518,192.317 52.517,193.009 52.462 C 193.701 52.408,193.067 52.363,191.600 52.364 C 190.133 52.365,189.567 52.410,190.342 52.464 M308.649 52.617 C 308.571 52.820,308.550 53.814,308.601 54.826 L 308.696 56.667 308.748 54.600 L 308.800 52.533 311.321 52.533 L 313.841 52.533 313.940 54.067 L 314.038 55.600 314.019 54.000 L 314.000 52.400 311.395 52.324 C 309.369 52.264,308.759 52.329,308.649 52.617 M71.313 61.733 C 71.313 64.813,71.352 66.037,71.399 64.452 C 71.446 62.868,71.446 60.348,71.399 58.852 C 71.351 57.357,71.313 58.653,71.313 61.733 M56.392 72.933 C 56.392 81.880,56.426 85.501,56.467 80.981 C 56.508 76.460,56.508 69.140,56.466 64.714 C 56.425 60.288,56.392 63.987,56.392 72.933 M129.009 63.664 C 129.784 63.718,130.984 63.717,131.676 63.662 C 132.367 63.608,131.733 63.563,130.267 63.564 C 128.800 63.565,128.234 63.610,129.009 63.664 M148.600 63.666 C 150.323 63.712,153.143 63.712,154.867 63.666 C 156.590 63.619,155.180 63.581,151.733 63.581 C 148.287 63.581,146.877 63.619,148.600 63.666 M160.067 63.663 C 160.763 63.718,161.903 63.718,162.600 63.663 C 163.297 63.608,162.727 63.563,161.333 63.563 C 159.940 63.563,159.370 63.608,160.067 63.663 M172.333 63.663 C 173.030 63.718,174.170 63.718,174.867 63.663 C 175.563 63.608,174.993 63.563,173.600 63.563 C 172.207 63.563,171.637 63.608,172.333 63.663 M211.200 63.616 C 212.191 63.831,213.550 63.869,213.432 63.678 C 213.361 63.562,212.739 63.481,212.051 63.498 C 211.363 63.515,210.980 63.568,211.200 63.616 M290.333 63.663 C 291.103 63.717,292.363 63.717,293.133 63.663 C 293.903 63.609,293.273 63.565,291.733 63.565 C 290.193 63.565,289.563 63.609,290.333 63.663 M319.800 63.666 C 321.523 63.712,324.343 63.712,326.067 63.666 C 327.790 63.619,326.380 63.581,322.933 63.581 C 319.487 63.581,318.077 63.619,319.800 63.666 M71.317 85.067 C 71.317 89.100,71.354 90.750,71.399 88.733 C 71.445 86.717,71.445 83.417,71.399 81.400 C 71.354 79.383,71.317 81.033,71.317 85.067 M156.208 89.893 C 156.167 94.160,156.221 97.790,156.329 97.959 C 156.437 98.128,156.527 94.637,156.529 90.200 C 156.531 85.763,156.477 82.133,156.408 82.133 C 156.339 82.133,156.249 85.625,156.208 89.893 M221.956 84.000 C 221.956 85.100,222.003 85.550,222.061 85.000 C 222.118 84.450,222.118 83.550,222.061 83.000 C 222.003 82.450,221.956 82.900,221.956 84.000 M262.263 96.667 L 262.267 111.333 264.533 111.349 L 266.800 111.364 264.602 111.272 L 262.405 111.179 262.332 96.590 L 262.260 82.000 262.263 96.667 M277.664 96.588 L 277.600 111.176 275.800 111.269 L 274.000 111.362 275.808 111.414 C 278.103 111.481,277.884 113.135,277.800 96.400 L 277.729 82.000 277.664 96.588 M82.769 87.200 C 82.769 89.033,82.812 89.783,82.864 88.867 C 82.916 87.950,82.916 86.450,82.864 85.533 C 82.812 84.617,82.769 85.367,82.769 87.200 M169.988 96.667 C 169.988 102.680,170.023 105.178,170.066 102.218 C 170.109 99.258,170.109 94.338,170.066 91.285 C 170.024 88.231,169.989 90.653,169.988 96.667 M228.909 90.133 C 228.909 92.553,228.949 93.543,228.998 92.333 C 229.048 91.123,229.048 89.143,228.998 87.933 C 228.949 86.723,228.909 87.713,228.909 90.133 M174.995 89.600 C 174.995 90.113,175.050 90.323,175.117 90.067 C 175.184 89.810,175.184 89.390,175.117 89.133 C 175.050 88.877,174.995 89.087,174.995 89.600 M239.539 89.867 C 239.539 90.527,239.591 90.797,239.655 90.467 C 239.718 90.137,239.718 89.597,239.655 89.267 C 239.591 88.937,239.539 89.207,239.539 89.867 M247.851 96.533 C 247.851 100.860,247.888 102.630,247.933 100.467 C 247.978 98.303,247.978 94.763,247.933 92.600 C 247.888 90.437,247.851 92.207,247.851 96.533 M286.250 96.400 C 286.250 100.213,286.287 101.736,286.333 99.784 C 286.378 97.832,286.378 94.712,286.332 92.851 C 286.287 90.990,286.249 92.587,286.250 96.400 M242.250 96.667 C 242.250 100.480,242.287 102.003,242.333 100.051 C 242.378 98.099,242.378 94.979,242.332 93.118 C 242.287 91.256,242.249 92.853,242.250 96.667 M259.314 96.533 C 259.314 99.833,259.352 101.183,259.399 99.533 C 259.446 97.883,259.446 95.183,259.399 93.533 C 259.352 91.883,259.314 93.233,259.314 96.533 M280.646 96.667 C 280.646 99.747,280.685 100.970,280.732 99.386 C 280.780 97.801,280.780 95.281,280.732 93.786 C 280.685 92.290,280.646 93.587,280.646 96.667 M150.196 102.723 L 150.133 111.178 147.933 111.268 L 145.733 111.358 147.942 111.412 C 150.678 111.480,150.423 112.427,150.333 102.531 L 150.259 94.267 150.196 102.723 M202.933 96.667 C 203.431 97.180,203.898 97.600,203.971 97.600 C 204.045 97.600,203.698 97.180,203.200 96.667 C 202.702 96.153,202.235 95.733,202.162 95.733 C 202.089 95.733,202.436 96.153,202.933 96.667 M297.395 103.788 L 297.333 111.176 295.533 111.269 L 293.733 111.362 295.542 111.414 C 297.804 111.480,297.624 112.188,297.533 103.596 L 297.458 96.400 297.395 103.788 M228.978 98.044 C 228.880 98.142,228.800 101.138,228.800 104.702 L 228.800 111.181 226.200 111.271 L 223.600 111.361 226.267 111.347 L 228.933 111.333 229.005 104.748 L 229.076 98.164 230.205 98.062 L 231.333 97.960 230.244 97.913 C 229.646 97.888,229.076 97.947,228.978 98.044 M134.800 100.800 L 132.933 100.972 134.718 101.020 C 135.699 101.045,136.576 100.947,136.667 100.800 C 136.757 100.653,136.794 100.555,136.749 100.580 C 136.704 100.606,135.827 100.705,134.800 100.800 M174.995 103.200 C 174.995 103.713,175.050 103.923,175.117 103.667 C 175.184 103.410,175.184 102.990,175.117 102.733 C 175.050 102.477,174.995 102.687,174.995 103.200 M234.636 111.277 C 234.752 111.392,236.036 111.452,237.490 111.409 L 240.133 111.330 237.279 111.198 C 235.709 111.126,234.519 111.161,234.636 111.277 M127.267 111.396 C 127.963 111.451,129.103 111.451,129.800 111.396 C 130.497 111.341,129.927 111.296,128.533 111.296 C 127.140 111.296,126.570 111.341,127.267 111.396 M139.800 111.396 C 140.497 111.451,141.637 111.451,142.333 111.396 C 143.030 111.341,142.460 111.296,141.067 111.296 C 139.673 111.296,139.103 111.341,139.800 111.396 M158.061 111.392 C 158.534 111.451,159.374 111.452,159.927 111.395 C 160.481 111.337,160.093 111.289,159.067 111.288 C 158.040 111.286,157.587 111.334,158.061 111.392 M166.600 111.398 C 167.810 111.448,169.790 111.448,171.000 111.398 C 172.210 111.349,171.220 111.309,168.800 111.309 C 166.380 111.309,165.390 111.349,166.600 111.398 M213.276 111.397 C 214.051 111.451,215.251 111.450,215.942 111.396 C 216.634 111.341,216.000 111.297,214.533 111.297 C 213.067 111.298,212.501 111.343,213.276 111.397 M129.000 129.797 C 129.770 129.850,131.030 129.850,131.800 129.797 C 132.570 129.743,131.940 129.699,130.400 129.699 C 128.860 129.699,128.230 129.743,129.000 129.797 M136.656 129.933 C 136.585 130.117,136.560 136.747,136.600 144.667 L 136.671 159.067 136.736 144.446 L 136.800 129.825 138.775 129.912 C 139.862 129.961,140.695 129.910,140.626 129.800 C 140.406 129.446,136.796 129.567,136.656 129.933 M149.931 129.795 L 151.995 129.888 152.068 144.344 L 152.140 158.800 152.137 144.267 L 152.133 129.733 150.000 129.717 L 147.867 129.701 149.931 129.795 M174.333 129.799 C 176.423 129.844,179.843 129.844,181.933 129.799 C 184.023 129.754,182.313 129.717,178.133 129.717 C 173.953 129.717,172.243 129.754,174.333 129.799 M187.322 129.933 C 187.252 130.117,187.227 136.747,187.266 144.667 L 187.338 159.067 187.402 144.476 L 187.467 129.886 190.067 129.799 L 192.667 129.712 190.058 129.656 C 188.175 129.616,187.414 129.693,187.322 129.933 M198.067 129.799 C 200.157 129.844,203.577 129.844,205.667 129.799 C 207.757 129.754,206.047 129.717,201.867 129.717 C 197.687 129.717,195.977 129.754,198.067 129.799 M212.209 129.797 C 212.984 129.851,214.184 129.850,214.876 129.796 C 215.567 129.741,214.933 129.697,213.467 129.697 C 212.000 129.698,211.434 129.743,212.209 129.797 M224.663 129.794 L 227.194 129.886 227.268 140.076 L 227.343 150.267 227.338 140.000 L 227.333 129.733 224.733 129.718 L 222.132 129.703 224.663 129.794 M232.200 129.799 C 234.290 129.844,237.710 129.844,239.800 129.799 C 241.890 129.754,240.180 129.717,236.000 129.717 C 231.820 129.717,230.110 129.754,232.200 129.799 M245.189 129.933 C 245.119 130.117,245.094 136.747,245.133 144.667 L 245.205 159.067 245.269 144.476 L 245.333 129.886 247.933 129.799 L 250.533 129.712 247.925 129.656 C 246.041 129.616,245.281 129.693,245.189 129.933 M274.400 129.764 C 275.992 129.964,277.807 129.984,277.693 129.800 C 277.624 129.690,276.706 129.618,275.651 129.640 C 274.596 129.662,274.033 129.718,274.400 129.764 M284.654 129.936 C 284.583 130.121,284.559 133.811,284.600 138.136 L 284.675 146.000 284.738 137.944 L 284.800 129.888 287.000 129.798 L 289.200 129.709 286.992 129.654 C 285.419 129.616,284.746 129.697,284.654 129.936 M297.129 136.267 C 297.129 136.780,297.183 136.990,297.250 136.733 C 297.318 136.477,297.318 136.057,297.250 135.800 C 297.183 135.543,297.129 135.753,297.129 136.267 M265.185 144.400 C 265.185 148.947,265.221 150.844,265.266 148.617 C 265.311 146.389,265.311 142.669,265.266 140.350 C 265.222 138.031,265.185 139.853,265.185 144.400 M278.400 150.533 C 278.400 155.202,278.457 158.965,278.526 158.896 C 278.706 158.716,278.727 142.371,278.548 142.192 C 278.467 142.111,278.400 145.864,278.400 150.533 M293.139 177.067 C 293.139 177.727,293.191 177.997,293.255 177.667 C 293.318 177.337,293.318 176.797,293.255 176.467 C 293.191 176.137,293.139 176.407,293.139 177.067 M127.004 198.591 C 127.409 198.653,128.009 198.651,128.337 198.588 C 128.665 198.524,128.333 198.474,127.600 198.476 C 126.867 198.478,126.598 198.530,127.004 198.591 M130.600 198.588 C 130.930 198.652,131.470 198.652,131.800 198.588 C 132.130 198.525,131.860 198.473,131.200 198.473 C 130.540 198.473,130.270 198.525,130.600 198.588 M273.803 207.922 C 274.135 207.986,274.615 207.983,274.870 207.917 C 275.125 207.850,274.853 207.798,274.267 207.801 C 273.680 207.804,273.471 207.858,273.803 207.922 M280.533 210.483 C 280.533 210.529,280.923 210.919,281.400 211.350 L 282.267 212.133 281.483 211.267 C 280.753 210.459,280.533 210.277,280.533 210.483 M261.667 225.250 C 261.923 225.318,262.343 225.318,262.600 225.250 C 262.857 225.183,262.647 225.129,262.133 225.129 C 261.620 225.129,261.410 225.183,261.667 225.250 M149.467 257.067 C 150.040 257.653,150.568 258.133,150.642 258.133 C 150.715 258.133,150.306 257.653,149.733 257.067 C 149.160 256.480,148.632 256.000,148.558 256.000 C 148.485 256.000,148.894 256.480,149.467 257.067 M130.733 281.529 C 131.430 281.584,132.570 281.584,133.267 281.529 C 133.963 281.474,133.393 281.429,132.000 281.429 C 130.607 281.429,130.037 281.474,130.733 281.529 M279.859 324.533 C 279.859 333.700,279.892 337.450,279.933 332.867 C 279.974 328.283,279.974 320.783,279.933 316.200 C 279.892 311.617,279.859 315.367,279.859 324.533 M115.405 318.327 C 115.884 318.386,116.604 318.385,117.005 318.324 C 117.405 318.263,117.013 318.214,116.133 318.216 C 115.253 318.217,114.925 318.267,115.405 318.327 M113.388 324.584 C 113.358 328.059,113.423 330.958,113.533 331.026 C 113.643 331.094,113.702 329.271,113.665 326.975 C 113.534 319.072,113.443 318.281,113.388 324.584 M127.667 318.593 C 128.143 318.652,128.923 318.652,129.400 318.593 C 129.877 318.534,129.487 318.485,128.533 318.485 C 127.580 318.485,127.190 318.534,127.667 318.593 M140.205 318.860 C 140.684 318.919,141.404 318.918,141.805 318.857 C 142.205 318.796,141.813 318.748,140.933 318.749 C 140.053 318.751,139.725 318.801,140.205 318.860 M152.471 319.127 C 152.951 319.186,153.671 319.185,154.071 319.124 C 154.472 319.063,154.080 319.014,153.200 319.016 C 152.320 319.017,151.992 319.067,152.471 319.127 M165.005 319.393 C 165.484 319.453,166.204 319.451,166.605 319.391 C 167.005 319.330,166.613 319.281,165.733 319.283 C 164.853 319.284,164.525 319.334,165.005 319.393 M177.933 319.650 C 178.190 319.718,178.610 319.718,178.867 319.650 C 179.123 319.583,178.913 319.529,178.400 319.529 C 177.887 319.529,177.677 319.583,177.933 319.650 M200.205 320.193 C 200.684 320.253,201.404 320.251,201.805 320.191 C 202.205 320.130,201.813 320.081,200.933 320.083 C 200.053 320.084,199.725 320.134,200.205 320.193 M211.938 320.460 C 212.417 320.519,213.137 320.518,213.538 320.457 C 213.939 320.396,213.547 320.348,212.667 320.349 C 211.787 320.351,211.459 320.401,211.938 320.460 M219.533 328.717 C 219.790 328.784,220.210 328.784,220.467 328.717 C 220.723 328.650,220.513 328.595,220.000 328.595 C 219.487 328.595,219.277 328.650,219.533 328.717 M207.938 328.993 C 208.417 329.053,209.137 329.051,209.538 328.991 C 209.939 328.930,209.547 328.881,208.667 328.883 C 207.787 328.884,207.459 328.934,207.938 328.993 M195.938 329.260 C 196.417 329.319,197.137 329.318,197.538 329.257 C 197.939 329.196,197.547 329.148,196.667 329.149 C 195.787 329.151,195.459 329.201,195.938 329.260 M183.938 329.527 C 184.417 329.586,185.137 329.585,185.538 329.524 C 185.939 329.463,185.547 329.414,184.667 329.416 C 183.787 329.417,183.459 329.467,183.938 329.527 M171.938 329.793 C 172.417 329.853,173.137 329.851,173.538 329.791 C 173.939 329.730,173.547 329.681,172.667 329.683 C 171.787 329.684,171.459 329.734,171.938 329.793 M159.938 330.060 C 160.417 330.119,161.137 330.118,161.538 330.057 C 161.939 329.996,161.547 329.948,160.667 329.949 C 159.787 329.951,159.459 330.001,159.938 330.060 M147.938 330.327 C 148.417 330.386,149.137 330.385,149.538 330.324 C 149.939 330.263,149.547 330.214,148.667 330.216 C 147.787 330.217,147.459 330.267,147.938 330.327 M135.938 330.593 C 136.417 330.653,137.137 330.651,137.538 330.591 C 137.939 330.530,137.547 330.481,136.667 330.483 C 135.787 330.484,135.459 330.534,135.938 330.593 M123.938 330.860 C 124.417 330.919,125.137 330.918,125.538 330.857 C 125.939 330.796,125.547 330.748,124.667 330.749 C 123.787 330.751,123.459 330.801,123.938 330.860 " stroke="none" fill="#488fb6" fill-rule="evenodd"></path><path id="path4" d="M268.917 203.800 L 268.133 204.667 269.000 203.883 C 269.477 203.453,269.867 203.063,269.867 203.017 C 269.867 202.811,269.647 202.992,268.917 203.800 M172.800 217.733 C 173.298 218.247,173.765 218.667,173.838 218.667 C 173.911 218.667,173.564 218.247,173.067 217.733 C 172.569 217.220,172.102 216.800,172.029 216.800 C 171.955 216.800,172.302 217.220,172.800 217.733 M174.933 219.817 C 174.933 219.863,175.323 220.253,175.800 220.683 L 176.667 221.467 175.883 220.600 C 175.153 219.792,174.933 219.611,174.933 219.817 " stroke="none" fill="#2c80ac" fill-rule="evenodd"></path></g></svg>