<svg id="svg" version="1.1" xmlns="http://www.w3.org/2000/svg" xmlns:xlink="http://www.w3.org/1999/xlink" width="400" height="400" viewBox="0, 0, 400,400"><g id="svgg"><path id="path0" d="M36.375 34.963 C 35.092 36.383,26.953 41.130,23.667 42.376 L 22.933 42.653 22.933 47.993 C 22.933 50.930,22.984 53.333,23.047 53.333 C 23.295 53.333,30.308 50.840,32.030 50.139 L 33.867 49.392 33.867 80.029 L 33.867 110.667 41.067 110.667 L 48.267 110.667 48.267 72.533 L 48.267 34.400 42.575 34.400 C 37.123 34.400,36.861 34.424,36.375 34.963 M64.857 57.721 L 54.933 81.042 54.933 86.787 L 54.933 92.533 66.400 92.533 L 77.867 92.533 77.867 101.600 L 77.867 110.667 84.396 110.667 L 90.926 110.667 90.996 101.667 L 91.067 92.667 94.867 92.593 L 98.667 92.519 98.667 87.059 L 98.667 81.600 94.800 81.600 L 90.933 81.600 90.933 58.000 L 90.933 34.400 82.857 34.400 L 74.781 34.400 64.857 57.721 M127.733 48.933 L 127.733 63.467 133.867 63.467 L 140.000 63.467 140.000 61.741 L 140.000 60.015 136.467 59.941 L 132.933 59.867 132.864 47.133 L 132.795 34.400 130.264 34.400 L 127.733 34.400 127.733 48.933 M141.867 48.933 L 141.867 63.467 144.400 63.467 L 146.933 63.467 146.933 48.933 L 146.933 34.400 144.400 34.400 L 141.867 34.400 141.867 48.933 M150.667 48.933 L 150.667 63.467 153.200 63.467 L 155.733 63.467 155.733 56.800 L 155.733 50.133 158.400 50.133 L 161.067 50.133 161.067 48.267 L 161.067 46.400 158.400 46.400 L 155.733 46.400 155.733 42.133 L 155.733 37.867 159.067 37.867 L 162.400 37.867 162.400 36.133 L 162.400 34.400 156.533 34.400 L 150.667 34.400 150.667 48.933 M164.267 48.933 L 164.267 63.467 170.400 63.467 L 176.533 63.467 176.533 61.733 L 176.533 60.000 173.067 60.000 L 169.600 60.000 169.600 55.067 L 169.600 50.133 172.267 50.133 L 174.933 50.133 174.933 48.267 L 174.933 46.400 172.267 46.400 L 169.600 46.400 169.600 42.133 L 169.600 37.867 172.933 37.867 L 176.267 37.867 176.267 36.133 L 176.267 34.400 170.267 34.400 L 164.267 34.400 164.267 48.933 M77.867 65.600 L 77.867 81.600 72.133 81.600 C 68.980 81.600,66.400 81.523,66.400 81.429 C 66.400 81.180,77.702 49.600,77.791 49.600 C 77.833 49.600,77.867 56.800,77.867 65.600 M178.700 82.307 C 174.888 83.699,174.275 85.651,174.270 96.400 C 174.265 108.991,175.316 111.114,181.703 111.421 C 186.265 111.641,188.390 110.640,189.909 107.555 L 190.800 105.745 190.800 96.806 C 190.800 85.751,190.436 84.350,187.108 82.603 C 185.627 81.826,180.512 81.646,178.700 82.307 M127.733 96.643 L 127.733 111.200 132.758 111.200 C 140.931 111.200,143.245 109.865,143.972 104.727 C 144.587 100.390,143.383 97.306,140.588 96.054 L 139.453 95.546 140.702 94.903 C 143.635 93.393,144.219 87.269,141.713 84.292 C 140.335 82.653,138.837 82.291,133.000 82.183 L 127.733 82.085 127.733 96.643 M146.667 96.667 L 146.667 111.200 152.800 111.200 L 158.933 111.200 158.933 109.474 L 158.933 107.749 155.400 107.674 L 151.867 107.600 151.867 102.800 L 151.867 98.000 154.600 97.924 L 157.333 97.848 157.333 95.991 L 157.333 94.133 154.527 94.133 L 151.720 94.133 151.793 89.933 L 151.867 85.733 155.267 85.659 L 158.667 85.584 158.667 83.859 L 158.667 82.133 152.667 82.133 L 146.667 82.133 146.667 96.667 M161.067 96.667 L 161.067 111.200 167.067 111.200 L 173.067 111.200 173.067 109.475 L 173.067 107.749 169.667 107.675 L 166.267 107.600 166.197 94.867 L 166.128 82.133 163.597 82.133 L 161.067 82.133 161.067 96.667 M194.971 96.600 C 196.114 104.557,197.053 111.097,197.058 111.133 C 197.063 111.170,198.027 111.200,199.200 111.200 C 200.373 111.200,201.334 111.170,201.334 111.133 C 201.340 110.693,204.543 92.435,204.630 92.348 C 204.793 92.185,204.884 92.675,206.267 101.067 C 206.932 105.100,207.602 109.030,207.757 109.800 L 208.038 111.200 210.106 111.200 L 212.175 111.200 214.120 97.533 C 215.190 90.017,216.126 83.477,216.201 83.000 L 216.336 82.133 214.202 82.133 L 212.068 82.133 211.914 83.133 C 211.829 83.683,211.323 87.673,210.790 92.000 C 210.257 96.327,209.755 100.047,209.675 100.267 C 209.567 100.565,206.465 83.518,206.410 82.321 C 206.404 82.204,205.594 82.144,204.609 82.188 L 202.818 82.267 201.292 91.333 C 200.453 96.320,199.747 100.460,199.722 100.533 C 199.670 100.692,197.360 83.274,197.344 82.600 C 197.335 82.194,197.046 82.133,195.114 82.133 L 192.894 82.133 194.971 96.600 M225.600 82.614 C 225.600 82.879,226.500 89.382,227.600 97.067 C 228.700 104.751,229.600 111.075,229.600 111.119 C 229.600 111.626,233.875 111.121,233.994 110.600 C 234.069 110.270,234.733 106.340,235.469 101.867 C 236.205 97.393,236.884 93.373,236.977 92.933 L 237.147 92.133 237.366 92.800 C 237.487 93.167,238.191 97.127,238.930 101.600 C 239.669 106.073,240.342 110.063,240.425 110.467 C 240.574 111.190,244.800 111.692,244.800 110.986 C 244.800 110.868,245.700 104.484,246.800 96.800 C 247.900 89.116,248.800 82.672,248.800 82.481 C 248.800 81.879,244.538 81.998,244.519 82.600 C 244.469 84.164,242.181 100.594,242.058 100.267 C 241.975 100.047,241.288 96.147,240.531 91.600 C 239.774 87.053,239.092 83.063,239.015 82.733 C 238.827 81.924,235.596 81.806,235.369 82.600 C 235.295 82.857,234.600 86.937,233.823 91.667 C 233.046 96.397,232.347 100.267,232.270 100.267 C 232.192 100.267,231.665 96.577,231.097 92.067 C 230.530 87.557,230.005 83.477,229.931 83.000 L 229.797 82.133 227.698 82.133 C 225.854 82.133,225.600 82.192,225.600 82.614 M254.667 82.362 C 254.667 82.672,249.091 110.146,248.909 110.733 C 248.778 111.155,249.007 111.200,251.286 111.200 L 253.807 111.200 253.957 110.333 C 254.040 109.857,254.306 108.357,254.548 107.000 L 254.989 104.533 257.574 104.533 L 260.159 104.533 260.632 107.400 C 261.325 111.597,260.999 111.200,263.751 111.200 C 265.061 111.200,266.133 111.157,266.133 111.105 C 266.133 110.984,260.584 83.540,260.396 82.733 C 260.252 82.112,254.667 81.750,254.667 82.362 M265.067 84.000 L 265.067 85.867 267.467 85.867 L 269.867 85.867 269.867 98.533 L 269.867 111.200 272.533 111.200 L 275.200 111.200 275.200 98.533 L 275.200 85.867 277.467 85.867 L 279.733 85.867 279.733 84.000 L 279.733 82.133 272.400 82.133 L 265.067 82.133 265.067 84.000 M281.333 96.667 L 281.333 111.200 287.333 111.200 L 293.333 111.200 293.333 109.475 L 293.333 107.749 289.933 107.675 L 286.533 107.600 286.461 102.733 L 286.388 97.867 289.194 97.867 L 292.000 97.867 292.000 96.000 L 292.000 94.133 289.193 94.133 L 286.386 94.133 286.460 89.933 L 286.533 85.733 289.933 85.659 L 293.333 85.584 293.333 83.859 L 293.333 82.133 287.333 82.133 L 281.333 82.133 281.333 96.667 M295.467 96.667 L 295.467 111.200 298.133 111.200 L 300.800 111.200 300.800 104.533 L 300.800 97.867 302.000 97.867 C 302.660 97.867,303.201 97.897,303.202 97.933 C 303.210 98.243,306.629 110.984,306.731 111.086 C 306.804 111.160,308.001 111.186,309.390 111.143 L 311.915 111.067 310.099 104.667 C 307.674 96.119,307.795 96.970,308.906 96.284 C 312.290 94.192,312.237 85.843,308.825 83.585 C 307.123 82.459,305.208 82.142,300.067 82.137 L 295.467 82.133 295.467 96.667 M135.600 85.861 C 137.919 86.235,138.667 87.116,138.667 89.479 C 138.667 92.733,137.679 93.818,134.609 93.936 L 132.933 94.000 132.859 90.146 C 132.761 85.066,132.565 85.372,135.600 85.861 M184.236 86.035 C 185.510 86.928,185.600 87.634,185.600 96.725 C 185.599 104.261,185.548 105.303,185.133 106.130 C 184.052 108.285,180.888 108.254,179.971 106.079 C 179.340 104.584,179.437 87.825,180.082 86.840 C 180.896 85.598,183.023 85.186,184.236 86.035 M304.257 85.948 C 305.723 86.453,306.400 87.712,306.400 89.932 C 306.400 93.124,305.427 94.259,302.423 94.573 L 300.800 94.743 300.800 90.171 L 300.800 85.600 302.067 85.615 C 302.763 85.623,303.749 85.773,304.257 85.948 M258.656 95.412 C 259.102 98.242,259.467 100.672,259.467 100.812 C 259.467 100.952,258.559 101.067,257.449 101.067 C 255.653 101.067,255.446 101.015,255.565 100.600 C 255.639 100.343,256.095 97.695,256.578 94.715 C 257.591 88.463,257.559 88.452,258.656 95.412 M136.248 97.861 C 138.308 98.452,139.424 100.682,139.123 103.601 C 138.821 106.525,137.739 107.467,134.680 107.467 L 132.800 107.467 132.800 102.711 C 132.800 100.096,132.880 97.876,132.978 97.778 C 133.243 97.513,135.208 97.563,136.248 97.861 M138.933 159.751 C 125.796 171.450,110.427 173.707,93.740 166.389 C 90.069 164.779,90.133 164.693,90.133 171.255 L 90.133 176.294 91.133 177.229 C 103.534 188.822,122.042 187.793,136.979 174.680 C 139.941 172.079,139.362 172.062,142.692 174.847 C 158.675 188.212,178.581 187.787,196.550 173.696 C 198.367 172.272,198.648 172.263,200.219 173.578 C 217.525 188.064,239.493 188.152,255.402 173.800 C 257.205 172.173,257.189 172.171,259.793 174.547 C 274.208 187.701,291.811 188.856,305.400 177.539 L 306.667 176.484 306.667 171.328 C 306.667 164.611,306.742 164.718,303.171 166.366 C 287.581 173.561,270.772 171.314,258.725 160.422 C 256.298 158.229,256.479 158.215,252.415 160.929 C 233.805 173.357,214.764 173.008,200.372 159.975 C 198.532 158.309,198.397 158.322,196.000 160.415 C 184.242 170.679,170.160 172.756,154.800 166.492 C 150.384 164.691,143.041 160.481,141.883 159.087 C 141.285 158.366,140.219 158.606,138.933 159.751 M138.875 193.045 C 126.395 204.450,108.988 206.975,93.645 199.606 C 90.182 197.943,90.132 198.013,90.137 204.486 C 90.140 207.225,90.230 209.588,90.337 209.737 C 91.260 211.010,95.949 214.153,99.342 215.774 C 111.420 221.544,125.781 218.359,137.647 207.280 C 139.578 205.477,139.563 205.475,142.513 207.969 C 158.103 221.152,177.489 221.163,195.094 208.000 C 198.835 205.203,198.333 205.322,200.153 206.806 C 212.868 217.175,229.185 220.509,242.321 215.423 C 246.614 213.761,253.595 209.206,256.108 206.428 C 256.903 205.550,257.538 205.747,259.342 207.435 C 273.368 220.556,290.536 222.215,304.133 211.763 C 306.880 209.652,306.667 210.259,306.667 204.552 C 306.667 197.812,306.875 198.034,302.362 199.970 C 286.205 206.903,270.428 204.392,257.811 192.879 C 256.365 191.559,256.052 191.501,255.020 192.363 C 253.782 193.397,250.410 195.588,248.133 196.839 C 230.773 206.373,214.385 205.343,201.126 193.886 C 198.495 191.613,198.333 191.600,196.210 193.502 C 181.550 206.632,161.162 206.473,142.798 193.084 C 140.535 191.435,140.635 191.436,138.875 193.045 M217.600 244.271 C 195.072 246.607,167.982 259.224,142.824 279.099 C 142.008 279.743,141.473 280.012,141.405 279.812 C 140.673 277.642,134.840 269.373,130.800 264.779 C 120.645 253.228,105.913 245.141,93.570 244.341 C 90.153 244.120,90.012 244.534,92.227 248.267 C 99.828 261.074,105.173 277.045,106.143 289.850 C 107.173 303.443,102.165 321.219,92.482 338.336 C 89.882 342.932,90.071 343.245,95.032 342.546 C 112.524 340.081,129.001 328.096,139.852 309.944 L 141.639 306.954 144.086 308.897 C 167.132 327.186,194.651 340.081,215.865 342.533 C 246.703 346.097,280.702 328.883,306.089 296.853 C 308.799 293.434,308.806 293.607,305.800 289.826 C 281.193 258.875,247.012 241.221,217.600 244.271 M253.683 272.625 C 263.077 275.609,266.236 287.096,259.647 294.312 C 254.395 300.064,246.199 300.374,240.541 295.037 C 230.289 285.366,240.260 268.363,253.683 272.625 " stroke="none" fill="#fbfbfb" fill-rule="evenodd"></path><path id="path1" d="M0.000 200.000 L 0.000 400.000 200.000 400.000 L 400.000 400.000 400.000 200.000 L 400.000 0.000 200.000 0.000 L 0.000 0.000 0.000 200.000 M48.533 72.533 L 48.533 110.933 41.067 110.933 L 33.600 110.933 33.600 80.369 C 33.600 51.383,33.576 49.812,33.133 49.948 C 32.877 50.028,30.507 50.880,27.867 51.843 C 25.227 52.806,22.977 53.595,22.867 53.597 C 22.757 53.599,22.667 51.080,22.667 48.000 C 22.667 43.360,22.731 42.400,23.043 42.400 C 24.349 42.400,34.736 36.441,36.246 34.825 L 36.893 34.133 42.713 34.133 L 48.533 34.133 48.533 72.533 M91.200 57.867 L 91.200 81.600 95.067 81.600 L 98.933 81.600 98.933 87.200 L 98.933 92.800 95.067 92.800 L 91.200 92.800 91.200 101.867 L 91.200 110.933 84.533 110.933 L 77.867 110.933 77.867 101.867 L 77.867 92.800 66.267 92.800 L 54.667 92.800 54.667 87.012 L 54.667 81.224 64.431 58.279 C 69.801 45.659,74.298 35.063,74.424 34.733 L 74.653 34.133 82.927 34.133 L 91.200 34.133 91.200 57.867 M133.067 46.933 L 133.067 59.733 136.533 59.733 L 140.000 59.733 140.000 61.733 L 140.000 63.733 133.733 63.733 L 127.467 63.733 127.467 48.933 L 127.467 34.133 130.267 34.133 L 133.067 34.133 133.067 46.933 M147.200 48.943 L 147.200 63.752 144.467 63.676 L 141.733 63.600 141.664 48.867 L 141.595 34.133 144.398 34.133 L 147.200 34.133 147.200 48.943 M162.667 36.133 L 162.667 38.133 159.333 38.133 L 156.000 38.133 156.000 42.267 L 156.000 46.400 158.667 46.400 L 161.333 46.400 161.333 48.400 L 161.333 50.400 158.667 50.400 L 156.000 50.400 156.000 57.067 L 156.000 63.733 153.200 63.733 L 150.400 63.733 150.400 48.933 L 150.400 34.133 156.533 34.133 L 162.667 34.133 162.667 36.133 M176.533 36.133 L 176.533 38.133 173.067 38.133 L 169.600 38.133 169.600 42.267 L 169.600 46.400 172.400 46.400 L 175.200 46.400 175.200 48.400 L 175.200 50.400 172.400 50.400 L 169.600 50.400 169.600 55.067 L 169.600 59.733 173.212 59.733 L 176.823 59.733 176.745 61.667 L 176.667 63.600 170.400 63.600 L 164.133 63.600 164.064 48.867 L 163.995 34.133 170.264 34.133 L 176.533 34.133 176.533 36.133 M72.116 65.762 L 66.499 81.467 72.088 81.539 C 75.163 81.578,77.721 81.567,77.775 81.514 C 77.828 81.461,77.840 74.362,77.802 65.738 L 77.733 50.058 72.116 65.762 M187.067 82.439 C 188.700 83.254,189.968 84.851,190.598 86.884 C 191.287 89.113,191.298 104.189,190.611 106.400 C 188.522 113.130,177.797 113.808,174.897 107.394 C 173.342 103.954,173.895 87.157,175.652 84.503 C 177.501 81.709,183.447 80.634,187.067 82.439 M139.305 82.531 C 144.241 84.340,145.120 93.436,140.533 95.251 C 139.874 95.512,139.879 95.521,141.014 96.060 C 144.753 97.838,145.561 105.473,142.376 108.928 C 140.459 111.009,139.376 111.296,133.000 111.416 L 127.467 111.521 127.467 96.666 L 127.467 81.811 132.733 81.932 C 136.911 82.028,138.270 82.152,139.305 82.531 M158.933 83.867 L 158.933 85.867 155.467 85.867 L 152.000 85.867 152.000 90.000 L 152.000 94.133 154.800 94.133 L 157.600 94.133 157.600 96.133 L 157.600 98.133 154.800 98.133 L 152.000 98.133 152.000 102.800 L 152.000 107.467 155.467 107.467 L 158.933 107.467 158.933 109.467 L 158.933 111.467 152.667 111.467 L 146.400 111.467 146.400 96.667 L 146.400 81.867 152.667 81.867 L 158.933 81.867 158.933 83.867 M166.400 94.667 L 166.400 107.467 169.867 107.467 L 173.333 107.467 173.333 109.467 L 173.333 111.467 167.067 111.467 L 160.800 111.467 160.800 96.667 L 160.800 81.867 163.600 81.867 L 166.400 81.867 166.400 94.667 M198.513 90.467 C 199.095 95.123,199.640 98.933,199.725 98.933 C 199.810 98.933,200.399 95.783,201.034 91.933 C 201.669 88.083,202.309 84.243,202.456 83.400 L 202.724 81.867 204.635 81.867 L 206.546 81.867 207.983 90.556 C 208.774 95.334,209.502 99.084,209.601 98.889 C 209.701 98.693,210.248 94.783,210.819 90.200 L 211.855 81.867 214.224 81.867 L 216.593 81.867 216.440 82.733 C 216.356 83.210,215.441 89.600,214.406 96.933 C 213.371 104.267,212.464 110.537,212.390 110.867 C 212.251 111.492,208.252 111.824,207.892 111.240 C 207.815 111.116,207.084 107.006,206.269 102.107 C 205.453 97.208,204.754 93.094,204.714 92.965 C 204.675 92.835,203.947 96.855,203.097 101.897 C 201.273 112.709,201.792 111.467,199.097 111.467 L 196.892 111.467 194.837 97.000 C 193.707 89.043,192.786 82.379,192.791 82.190 C 192.798 81.930,193.369 81.865,195.128 81.923 L 197.455 82.000 198.513 90.467 M231.042 90.200 C 231.612 94.783,232.154 98.681,232.246 98.861 C 232.339 99.041,233.059 95.291,233.847 90.527 L 235.280 81.867 237.193 81.867 L 239.106 81.867 240.547 90.517 C 241.340 95.275,242.051 99.105,242.127 99.029 C 242.204 98.953,242.750 95.091,243.341 90.446 L 244.416 82.000 246.741 81.923 C 248.505 81.865,249.064 81.929,249.057 82.190 C 249.052 82.379,248.118 89.013,246.982 96.933 L 244.916 111.333 242.658 111.333 L 240.400 111.333 238.900 102.533 C 238.075 97.693,237.355 93.510,237.300 93.237 C 237.245 92.964,236.488 96.958,235.618 102.113 L 234.037 111.486 231.752 111.410 L 229.467 111.333 227.418 97.200 C 226.292 89.427,225.362 82.797,225.352 82.467 C 225.334 81.889,225.419 81.867,227.670 81.867 L 230.006 81.867 231.042 90.200 M263.299 96.141 C 264.888 103.992,266.249 110.652,266.325 110.941 C 266.455 111.438,266.317 111.467,263.799 111.467 L 261.135 111.467 260.957 110.333 C 260.859 109.710,260.589 108.150,260.356 106.867 L 259.932 104.533 257.566 104.533 C 256.265 104.533,255.193 104.563,255.185 104.600 C 255.176 104.637,254.900 106.167,254.571 108.000 L 253.972 111.333 251.386 111.410 C 249.025 111.479,248.800 111.443,248.800 110.995 C 248.800 110.525,254.275 83.296,254.563 82.333 C 254.685 81.927,255.069 81.867,257.556 81.867 L 260.410 81.867 263.299 96.141 M280.000 84.000 L 280.000 86.133 277.600 86.133 L 275.200 86.133 275.200 98.809 L 275.200 111.485 272.467 111.409 L 269.733 111.333 269.664 98.733 L 269.595 86.133 267.197 86.133 L 264.800 86.133 264.800 84.000 L 264.800 81.867 272.400 81.867 L 280.000 81.867 280.000 84.000 M293.600 83.867 L 293.600 85.867 290.133 85.867 L 286.667 85.867 286.667 90.000 L 286.667 94.133 289.333 94.133 L 292.000 94.133 292.000 96.133 L 292.000 98.133 289.333 98.133 L 286.667 98.133 286.667 102.800 L 286.667 107.467 290.133 107.467 L 293.600 107.467 293.600 109.467 L 293.600 111.467 287.333 111.467 L 281.067 111.467 281.067 96.667 L 281.067 81.867 287.333 81.867 L 293.600 81.867 293.600 83.867 M305.748 82.216 C 309.741 83.054,311.266 84.937,311.425 89.228 C 311.561 92.907,311.092 94.513,309.466 95.945 C 307.999 97.236,307.921 96.273,310.133 104.152 C 311.160 107.808,312.000 110.950,312.000 111.133 C 312.000 111.830,306.694 111.576,306.433 110.867 C 306.312 110.537,305.505 107.537,304.639 104.200 L 303.067 98.134 301.933 98.134 L 300.800 98.133 300.800 104.809 L 300.800 111.485 298.067 111.409 L 295.333 111.333 295.264 96.600 L 295.195 81.867 299.664 81.872 C 302.227 81.875,304.822 82.022,305.748 82.216 M133.067 89.903 L 133.067 93.940 134.832 93.798 C 137.096 93.616,137.886 93.056,138.339 91.307 C 139.257 87.772,137.811 85.873,134.200 85.868 L 133.067 85.867 133.067 89.903 M180.975 86.169 C 179.705 86.907,178.990 103.304,180.111 105.987 C 180.788 107.608,183.035 108.041,184.452 106.823 L 185.200 106.180 185.278 97.157 C 185.361 87.535,185.338 87.205,184.527 86.393 C 183.936 85.802,181.834 85.669,180.975 86.169 M300.800 90.140 L 300.800 94.473 302.491 94.337 C 305.529 94.093,306.690 92.444,306.235 89.016 C 305.943 86.818,305.065 86.047,302.698 85.914 L 300.800 85.806 300.800 90.140 M256.697 95.139 C 256.292 97.739,255.902 100.077,255.829 100.333 C 255.713 100.744,255.908 100.800,257.449 100.800 C 258.941 100.800,259.199 100.731,259.194 100.333 C 259.185 99.636,257.675 90.652,257.545 90.523 C 257.483 90.461,257.102 92.538,256.697 95.139 M133.067 102.667 L 133.067 107.467 134.333 107.446 C 137.644 107.393,138.692 106.426,138.875 103.255 C 139.095 99.458,137.820 97.867,134.560 97.867 L 133.067 97.867 133.067 102.667 M142.046 159.031 C 145.247 161.709,153.218 165.931,158.172 167.572 C 171.937 172.131,184.406 169.848,195.333 160.768 C 196.653 159.671,197.881 158.684,198.061 158.575 C 198.521 158.295,199.350 158.792,201.188 160.450 C 215.222 173.114,236.206 172.776,254.106 159.599 C 256.211 158.049,256.126 158.033,259.120 160.565 C 271.726 171.224,287.066 173.265,302.739 166.368 C 306.823 164.571,306.933 164.700,306.933 171.238 C 306.933 176.894,307.097 176.401,304.578 178.349 C 290.598 189.163,273.560 187.652,259.306 174.333 C 257.238 172.401,257.257 172.399,254.464 174.821 C 238.943 188.280,218.144 188.005,200.658 174.109 C 198.287 172.225,198.430 172.240,196.709 173.704 C 180.020 187.901,158.449 188.378,142.513 174.903 C 139.563 172.408,139.578 172.410,137.647 174.213 C 122.964 187.922,103.549 189.219,91.000 177.328 L 90.133 176.506 90.133 171.240 C 90.133 164.691,90.287 164.461,93.559 166.112 C 108.118 173.462,125.673 171.168,138.014 160.304 C 140.330 158.265,140.912 158.082,142.046 159.031 M142.866 192.913 C 160.071 206.149,181.230 206.375,196.000 193.481 C 198.397 191.389,198.532 191.375,200.372 193.042 C 215.183 206.454,236.118 206.361,254.163 192.802 C 256.079 191.363,256.431 191.416,258.725 193.489 C 270.985 204.572,288.987 206.728,304.250 198.942 C 306.675 197.705,306.933 198.242,306.933 204.527 L 306.933 209.587 305.977 210.460 C 295.992 219.577,282.458 221.311,270.066 215.061 C 266.073 213.047,259.813 208.585,258.167 206.579 C 257.519 205.789,256.823 206.091,254.210 208.301 C 238.513 221.575,218.899 221.296,200.869 207.543 C 198.273 205.563,198.412 205.584,196.820 206.916 C 179.553 221.373,157.599 221.659,141.879 207.632 C 139.948 205.909,139.350 205.798,138.250 206.962 C 136.942 208.345,133.875 210.764,131.200 212.521 C 117.648 221.425,103.202 220.874,91.533 211.009 L 90.133 209.825 90.133 204.519 C 90.133 197.881,90.162 197.834,93.357 199.306 C 109.295 206.651,125.517 204.547,138.133 193.497 C 140.522 191.406,140.853 191.365,142.866 192.913 M229.761 244.007 C 256.835 246.162,284.408 262.809,306.380 290.267 C 309.033 293.582,309.040 293.408,306.097 297.088 C 279.697 330.092,244.750 347.199,213.458 342.437 C 192.498 339.247,165.959 326.479,143.840 308.943 L 141.679 307.230 139.867 310.275 C 129.148 328.291,112.181 340.464,94.535 342.800 C 90.273 343.364,89.763 342.632,91.907 339.022 C 99.364 326.468,104.732 310.804,105.884 298.242 C 107.161 284.310,102.128 265.936,92.368 248.896 C 89.738 244.303,90.039 243.680,94.620 244.235 C 111.910 246.330,129.125 258.760,140.019 277.013 C 141.499 279.493,141.704 279.726,142.130 279.413 C 142.389 279.223,144.686 277.490,147.234 275.563 C 176.084 253.746,206.414 242.149,229.761 244.007 M247.763 272.296 C 241.395 273.093,236.522 278.861,236.539 285.582 C 236.567 297.065,250.475 302.907,258.787 294.926 C 268.096 285.986,260.642 270.683,247.763 272.296 " stroke="none" fill="#0c94dc" fill-rule="evenodd"></path><path id="path2" d="M39.785 34.332 C 41.354 34.379,43.994 34.379,45.652 34.333 C 47.310 34.286,46.027 34.247,42.800 34.247 C 39.573 34.247,38.217 34.285,39.785 34.332 M78.733 34.333 C 81.043 34.377,84.823 34.377,87.133 34.333 C 89.443 34.288,87.553 34.252,82.933 34.252 C 78.313 34.252,76.423 34.288,78.733 34.333 M127.591 48.800 C 127.591 56.940,127.625 60.270,127.666 56.200 C 127.708 52.130,127.708 45.470,127.666 41.400 C 127.625 37.330,127.591 40.660,127.591 48.800 M162.451 35.925 L 162.400 37.850 159.133 37.925 L 155.867 38.000 155.856 42.200 L 155.846 46.401 155.930 42.267 L 156.014 38.133 159.215 38.133 C 162.882 38.133,162.740 38.235,162.598 35.705 L 162.503 34.000 162.451 35.925 M161.156 48.267 C 161.156 49.367,161.203 49.817,161.261 49.267 C 161.318 48.717,161.318 47.817,161.261 47.267 C 161.203 46.717,161.156 47.167,161.156 48.267 M175.023 48.267 C 175.023 49.367,175.070 49.817,175.128 49.267 C 175.185 48.717,175.185 47.817,175.128 47.267 C 175.070 46.717,175.023 47.167,175.023 48.267 M155.849 56.933 C 155.849 60.600,155.886 62.137,155.932 60.349 C 155.978 58.561,155.979 55.561,155.933 53.682 C 155.887 51.804,155.849 53.267,155.849 56.933 M54.792 86.800 L 54.800 92.667 66.333 92.671 L 77.867 92.675 66.405 92.601 L 54.944 92.528 54.864 86.731 L 54.784 80.933 54.792 86.800 M98.727 86.993 L 98.667 92.519 94.867 92.601 L 91.067 92.683 94.875 92.741 C 99.430 92.812,98.965 93.503,98.867 86.792 L 98.788 81.467 98.727 86.993 M127.589 82.200 C 127.519 82.383,127.494 89.013,127.533 96.933 L 127.605 111.333 127.669 96.740 L 127.733 82.147 131.933 82.066 L 136.133 81.985 131.925 81.926 C 128.759 81.881,127.685 81.949,127.589 82.200 M146.522 82.200 C 146.452 82.383,146.427 89.013,146.466 96.933 L 146.538 111.333 146.602 96.738 L 146.667 82.143 152.867 82.066 L 159.067 81.990 152.858 81.928 C 148.091 81.881,146.620 81.944,146.522 82.200 M163.397 82.061 L 166.128 82.152 166.201 94.743 L 166.274 107.333 166.271 94.667 L 166.267 82.000 163.467 81.985 L 160.667 81.969 163.397 82.061 M193.941 82.063 C 194.642 82.118,195.722 82.117,196.341 82.062 C 196.960 82.006,196.387 81.961,195.067 81.961 C 193.747 81.962,193.240 82.008,193.941 82.063 M203.661 82.059 C 204.134 82.118,204.974 82.119,205.527 82.061 C 206.081 82.004,205.693 81.955,204.667 81.954 C 203.640 81.953,203.187 82.000,203.661 82.059 M212.533 82.032 C 214.078 82.230,216.475 82.252,216.360 82.067 C 216.291 81.957,215.252 81.885,214.051 81.907 C 212.850 81.929,212.167 81.985,212.533 82.032 M226.475 82.063 C 227.176 82.118,228.256 82.117,228.875 82.062 C 229.494 82.006,228.920 81.961,227.600 81.961 C 226.280 81.962,225.774 82.008,226.475 82.063 M235.867 82.026 C 237.094 82.225,239.141 82.252,239.026 82.067 C 238.958 81.957,238.099 81.883,237.118 81.903 C 236.136 81.923,235.573 81.978,235.867 82.026 M246.525 82.066 C 247.797 82.121,248.732 82.287,248.854 82.479 C 248.994 82.698,249.060 82.652,249.063 82.333 C 249.066 81.920,248.800 81.873,246.733 81.920 L 244.400 81.974 246.525 82.066 M255.467 82.039 C 257.675 82.235,260.474 82.251,260.360 82.067 C 260.291 81.957,258.952 81.887,257.384 81.911 C 255.816 81.936,254.953 81.994,255.467 82.039 M264.911 82.228 C 264.835 82.427,264.809 83.357,264.853 84.295 L 264.933 86.000 267.267 86.017 L 269.601 86.033 267.334 85.939 L 265.067 85.846 265.067 83.994 L 265.067 82.142 272.600 82.066 L 280.133 81.991 272.592 81.929 C 266.449 81.878,265.024 81.934,264.911 82.228 M284.067 82.066 C 285.790 82.112,288.610 82.112,290.333 82.066 C 292.057 82.019,290.647 81.981,287.200 81.981 C 283.753 81.981,282.343 82.019,284.067 82.066 M297.400 82.065 C 298.537 82.115,300.397 82.115,301.533 82.065 C 302.670 82.015,301.740 81.974,299.467 81.974 C 297.193 81.974,296.263 82.015,297.400 82.065 M301.404 85.791 C 301.809 85.853,302.409 85.851,302.737 85.788 C 303.065 85.724,302.733 85.674,302.000 85.676 C 301.267 85.678,300.998 85.730,301.404 85.791 M276.333 86.063 C 277.030 86.118,278.170 86.118,278.867 86.063 C 279.563 86.008,278.993 85.963,277.600 85.963 C 276.207 85.963,275.637 86.008,276.333 86.063 M286.508 90.000 C 286.508 92.347,286.549 93.271,286.599 92.054 C 286.648 90.837,286.648 88.917,286.598 87.787 C 286.548 86.658,286.508 87.653,286.508 90.000 M179.584 96.667 C 179.584 100.920,179.621 102.623,179.666 100.450 C 179.711 98.278,179.711 94.798,179.666 92.717 C 179.621 90.636,179.584 92.413,179.584 96.667 M191.048 96.667 C 191.049 100.187,191.086 101.590,191.133 99.785 C 191.179 97.980,191.179 95.100,191.132 93.385 C 191.086 91.670,191.048 93.147,191.048 96.667 M133.533 97.788 C 133.863 97.852,134.403 97.852,134.733 97.788 C 135.063 97.725,134.793 97.673,134.133 97.673 C 133.473 97.673,133.203 97.725,133.533 97.788 M153.267 98.063 C 154.037 98.117,155.297 98.117,156.067 98.063 C 156.837 98.009,156.207 97.965,154.667 97.965 C 153.127 97.965,152.497 98.009,153.267 98.063 M286.518 98.210 C 286.446 98.399,286.423 100.589,286.467 103.076 L 286.547 107.600 286.607 102.876 L 286.667 98.152 289.400 98.066 L 292.133 97.979 289.392 97.923 C 287.361 97.881,286.616 97.956,286.518 98.210 M139.001 102.800 C 139.004 103.387,139.058 103.595,139.122 103.264 C 139.186 102.932,139.183 102.452,139.117 102.197 C 139.050 101.942,138.998 102.213,139.001 102.800 M37.549 110.866 C 39.648 110.911,43.008 110.911,45.016 110.866 C 47.024 110.821,45.307 110.784,41.200 110.784 C 37.093 110.784,35.451 110.821,37.549 110.866 M81.133 110.866 C 83.003 110.912,86.063 110.912,87.933 110.866 C 89.803 110.820,88.273 110.783,84.533 110.783 C 80.793 110.783,79.263 110.820,81.133 110.866 M170.867 170.055 C 171.197 170.118,171.737 170.118,172.067 170.055 C 172.397 169.991,172.127 169.939,171.467 169.939 C 170.807 169.939,170.537 169.991,170.867 170.055 M224.733 170.055 C 225.063 170.118,225.603 170.118,225.933 170.055 C 226.263 169.991,225.993 169.939,225.333 169.939 C 224.673 169.939,224.403 169.991,224.733 170.055 M109.933 185.517 C 110.190 185.584,110.610 185.584,110.867 185.517 C 111.123 185.450,110.913 185.395,110.400 185.395 C 109.887 185.395,109.677 185.450,109.933 185.517 M283.267 185.517 C 283.523 185.584,283.943 185.584,284.200 185.517 C 284.457 185.450,284.247 185.395,283.733 185.395 C 283.220 185.395,283.010 185.450,283.267 185.517 M166.467 218.061 C 167.017 218.118,167.917 218.118,168.467 218.061 C 169.017 218.003,168.567 217.956,167.467 217.956 C 166.367 217.956,165.917 218.003,166.467 218.061 M228.333 218.061 C 228.883 218.118,229.783 218.118,230.333 218.061 C 230.883 218.003,230.433 217.956,229.333 217.956 C 228.233 217.956,227.783 218.003,228.333 218.061 M111.267 218.850 C 111.523 218.918,111.943 218.918,112.200 218.850 C 112.457 218.783,112.247 218.729,111.733 218.729 C 111.220 218.729,111.010 218.783,111.267 218.850 M284.600 218.850 C 284.857 218.918,285.277 218.918,285.533 218.850 C 285.790 218.783,285.580 218.729,285.067 218.729 C 284.553 218.729,284.343 218.783,284.600 218.850 M223.537 243.925 C 223.942 243.986,224.542 243.984,224.870 243.921 C 225.198 243.858,224.867 243.808,224.133 243.810 C 223.400 243.812,223.132 243.863,223.537 243.925 M293.067 275.867 C 293.564 276.380,294.031 276.800,294.105 276.800 C 294.178 276.800,293.831 276.380,293.333 275.867 C 292.836 275.353,292.369 274.933,292.295 274.933 C 292.222 274.933,292.569 275.353,293.067 275.867 M296.533 279.333 C 297.031 279.847,297.498 280.267,297.571 280.267 C 297.645 280.267,297.298 279.847,296.800 279.333 C 296.302 278.820,295.835 278.400,295.762 278.400 C 295.689 278.400,296.036 278.820,296.533 279.333 M263.006 285.333 C 263.006 285.993,263.058 286.263,263.122 285.933 C 263.185 285.603,263.185 285.063,263.122 284.733 C 263.058 284.403,263.006 284.673,263.006 285.333 M127.724 325.533 L 126.267 327.067 127.800 325.609 C 129.225 324.255,129.455 324.000,129.258 324.000 C 129.216 324.000,128.526 324.690,127.724 325.533 M227.000 343.117 C 227.257 343.184,227.677 343.184,227.933 343.117 C 228.190 343.050,227.980 342.995,227.467 342.995 C 226.953 342.995,226.743 343.050,227.000 343.117 " stroke="none" fill="#77c6e9" fill-rule="evenodd"></path><path id="path3" d="M141.730 48.867 L 141.733 63.600 144.400 63.614 L 147.067 63.628 144.469 63.538 L 141.871 63.448 141.799 48.791 L 141.726 34.133 141.730 48.867 M164.130 48.867 L 164.133 63.600 170.400 63.600 L 176.667 63.600 176.687 61.600 L 176.707 59.600 176.609 61.533 L 176.510 63.467 170.391 63.467 L 164.271 63.467 164.199 48.800 L 164.126 34.133 164.130 48.867 M33.534 69.267 C 33.570 80.083,33.632 93.913,33.670 100.000 C 33.708 106.087,33.768 97.237,33.803 80.333 C 33.838 63.430,33.777 49.600,33.667 49.600 C 33.557 49.600,33.497 58.450,33.534 69.267 M157.267 50.330 C 158.037 50.384,159.297 50.384,160.067 50.330 C 160.837 50.276,160.207 50.232,158.667 50.232 C 157.127 50.232,156.497 50.276,157.267 50.330 M171.010 50.331 C 171.858 50.384,173.178 50.383,173.943 50.330 C 174.708 50.276,174.013 50.232,172.400 50.233 C 170.787 50.234,170.161 50.278,171.010 50.331 M130.615 63.666 C 132.420 63.712,135.300 63.712,137.015 63.666 C 138.730 63.619,137.253 63.581,133.733 63.582 C 130.213 63.582,128.810 63.620,130.615 63.666 M151.810 63.664 C 152.658 63.717,153.978 63.717,154.743 63.663 C 155.508 63.609,154.813 63.566,153.200 63.566 C 151.587 63.567,150.961 63.611,151.810 63.664 M293.425 83.867 C 293.426 85.040,293.473 85.487,293.529 84.860 C 293.585 84.232,293.584 83.272,293.527 82.726 C 293.470 82.180,293.424 82.693,293.425 83.867 M295.330 96.600 L 295.333 111.333 298.000 111.347 L 300.667 111.361 298.069 111.271 L 295.471 111.181 295.399 96.524 L 295.326 81.867 295.330 96.600 M269.729 98.667 L 269.733 111.333 272.400 111.347 L 275.067 111.361 272.469 111.271 L 269.872 111.181 269.799 98.591 L 269.725 86.000 269.729 98.667 M185.452 96.533 C 185.452 101.007,185.488 102.837,185.533 100.600 C 185.577 98.363,185.577 94.703,185.533 92.467 C 185.488 90.230,185.452 92.060,185.452 96.533 M157.425 96.133 C 157.426 97.307,157.473 97.753,157.529 97.126 C 157.585 96.499,157.584 95.539,157.527 94.993 C 157.470 94.447,157.424 94.960,157.425 96.133 M301.267 98.055 C 301.597 98.118,302.137 98.118,302.467 98.055 C 302.797 97.991,302.527 97.939,301.867 97.939 C 301.207 97.939,300.937 97.991,301.267 98.055 M257.467 100.800 L 255.600 100.972 257.533 101.020 C 258.676 101.047,259.467 100.958,259.467 100.800 C 259.467 100.653,259.437 100.555,259.400 100.580 C 259.363 100.606,258.493 100.705,257.467 100.800 M244.800 110.908 C 244.800 111.152,244.211 111.217,242.558 111.153 C 241.325 111.105,240.372 111.157,240.440 111.267 C 240.636 111.581,244.746 111.504,244.944 111.182 C 245.041 111.026,245.048 110.826,244.960 110.738 C 244.872 110.650,244.800 110.727,244.800 110.908 M253.867 110.889 C 253.867 111.101,253.038 111.218,251.267 111.255 L 248.667 111.311 251.176 111.399 C 253.496 111.481,254.538 111.249,254.049 110.760 C 253.949 110.660,253.867 110.718,253.867 110.889 M266.133 110.924 C 266.133 111.065,264.963 111.220,263.533 111.268 L 260.933 111.355 263.667 111.411 C 265.943 111.457,266.400 111.400,266.400 111.067 C 266.400 110.847,266.340 110.667,266.267 110.667 C 266.193 110.667,266.133 110.782,266.133 110.924 M129.947 111.399 C 131.385 111.447,133.665 111.447,135.014 111.399 C 136.363 111.350,135.187 111.311,132.400 111.311 C 129.613 111.311,128.510 111.351,129.947 111.399 M149.549 111.399 C 151.354 111.446,154.234 111.445,155.949 111.399 C 157.664 111.353,156.187 111.315,152.667 111.315 C 149.147 111.315,147.744 111.353,149.549 111.399 M163.949 111.399 C 165.754 111.446,168.634 111.445,170.349 111.399 C 172.064 111.353,170.587 111.315,167.067 111.315 C 163.547 111.315,162.144 111.353,163.949 111.399 M197.941 111.396 C 198.642 111.451,199.722 111.451,200.341 111.395 C 200.960 111.339,200.387 111.294,199.067 111.295 C 197.747 111.295,197.240 111.341,197.941 111.396 M209.000 111.395 C 209.623 111.451,210.643 111.451,211.267 111.395 C 211.890 111.339,211.380 111.293,210.133 111.293 C 208.887 111.293,208.377 111.339,209.000 111.395 M230.741 111.396 C 231.442 111.451,232.522 111.451,233.141 111.395 C 233.760 111.339,233.187 111.294,231.867 111.295 C 230.547 111.295,230.040 111.341,230.741 111.396 M284.215 111.399 C 286.020 111.446,288.900 111.445,290.615 111.399 C 292.330 111.353,290.853 111.315,287.333 111.315 C 283.813 111.315,282.410 111.353,284.215 111.399 M307.933 111.397 C 308.703 111.450,309.963 111.450,310.733 111.397 C 311.503 111.343,310.873 111.299,309.333 111.299 C 307.793 111.299,307.163 111.343,307.933 111.397 M306.778 171.333 C 306.778 174.120,306.818 175.224,306.866 173.786 C 306.914 172.349,306.913 170.069,306.865 168.719 C 306.817 167.370,306.778 168.547,306.778 171.333 M306.778 204.533 C 306.778 207.393,306.818 208.563,306.865 207.133 C 306.913 205.703,306.913 203.363,306.865 201.933 C 306.818 200.503,306.778 201.673,306.778 204.533 M221.267 243.922 C 221.597 243.985,222.137 243.985,222.467 243.922 C 222.797 243.858,222.527 243.806,221.867 243.806 C 221.207 243.806,220.937 243.858,221.267 243.922 M225.937 243.925 C 226.342 243.986,226.942 243.984,227.270 243.921 C 227.598 243.858,227.267 243.808,226.533 243.810 C 225.800 243.812,225.532 243.863,225.937 243.925 M127.867 261.600 C 128.440 262.187,128.968 262.667,129.042 262.667 C 129.115 262.667,128.706 262.187,128.133 261.600 C 127.560 261.013,127.032 260.533,126.958 260.533 C 126.885 260.533,127.294 261.013,127.867 261.600 M236.339 285.333 C 236.339 285.993,236.391 286.263,236.455 285.933 C 236.518 285.603,236.518 285.063,236.455 284.733 C 236.391 284.403,236.339 284.673,236.339 285.333 M258.919 294.867 L 258.000 295.867 259.000 294.948 C 259.931 294.092,260.123 293.867,259.919 293.867 C 259.874 293.867,259.424 294.317,258.919 294.867 " stroke="none" fill="#44b4e4" fill-rule="evenodd"></path><path id="path4" d="M130.197 34.332 L 132.795 34.419 132.864 47.143 L 132.933 59.867 136.467 59.879 L 140.001 59.891 136.534 59.804 L 133.067 59.718 133.067 46.926 L 133.067 34.133 130.333 34.189 L 127.600 34.245 130.197 34.332 M144.331 34.332 L 146.929 34.419 147.000 49.010 L 147.071 63.600 147.136 48.867 L 147.200 34.133 144.467 34.189 L 141.733 34.245 144.331 34.332 M150.464 48.867 L 150.529 63.600 150.600 49.005 L 150.671 34.410 156.602 34.333 L 162.533 34.256 156.467 34.195 L 150.400 34.133 150.464 48.867 M170.200 34.333 L 176.267 34.410 176.267 36.130 L 176.267 37.851 172.867 37.934 L 169.467 38.017 173.000 38.075 L 176.533 38.133 176.533 36.133 L 176.533 34.133 170.333 34.195 L 164.133 34.256 170.200 34.333 M48.396 72.533 C 48.396 93.580,48.428 102.190,48.467 91.667 C 48.505 81.143,48.505 63.923,48.467 53.400 C 48.428 42.877,48.396 51.487,48.396 72.533 M91.061 58.000 C 91.061 71.053,91.094 76.354,91.133 69.780 C 91.173 63.206,91.173 52.526,91.133 46.047 C 91.093 39.568,91.061 44.947,91.061 58.000 M22.720 48.067 C 22.691 51.110,22.757 53.600,22.867 53.600 C 22.977 53.601,23.036 51.951,22.998 49.934 C 22.870 43.148,22.773 42.498,22.720 48.067 M171.267 59.931 C 172.257 59.982,173.877 59.982,174.867 59.931 C 175.857 59.880,175.047 59.838,173.067 59.838 C 171.087 59.838,170.277 59.880,171.267 59.931 M181.937 81.791 C 182.342 81.853,182.942 81.851,183.270 81.788 C 183.598 81.724,183.267 81.674,182.533 81.676 C 181.800 81.678,181.532 81.730,181.937 81.791 M158.667 83.859 L 158.667 85.584 155.267 85.659 L 151.867 85.733 151.856 89.934 L 151.846 94.134 151.930 90.000 L 152.014 85.867 155.473 85.867 L 158.933 85.867 158.933 84.000 C 158.933 82.973,158.873 82.133,158.800 82.133 C 158.727 82.133,158.667 82.910,158.667 83.859 M160.924 96.667 C 160.924 104.733,160.958 108.072,161.000 104.086 C 161.041 100.099,161.041 93.499,161.000 89.419 C 160.958 85.338,160.925 88.600,160.924 96.667 M279.823 84.000 C 279.823 85.100,279.870 85.550,279.928 85.000 C 279.985 84.450,279.985 83.550,279.928 83.000 C 279.870 82.450,279.823 82.900,279.823 84.000 M281.191 96.667 C 281.191 104.733,281.225 108.072,281.266 104.086 C 281.308 100.099,281.308 93.499,281.267 89.419 C 281.225 85.338,281.191 88.600,281.191 96.667 M132.917 85.946 C 132.844 86.136,132.818 88.026,132.859 90.146 L 132.933 94.000 133.936 94.028 L 134.938 94.056 134.002 93.945 L 133.067 93.834 133.067 89.867 L 133.067 85.900 133.933 85.793 L 134.800 85.685 133.925 85.643 C 133.420 85.618,132.994 85.746,132.917 85.946 M288.344 85.798 C 289.341 85.849,290.901 85.849,291.811 85.797 C 292.722 85.745,291.907 85.703,290.000 85.704 C 288.093 85.704,287.348 85.747,288.344 85.798 M91.053 101.733 C 91.053 106.720,91.089 108.722,91.133 106.183 C 91.177 103.644,91.177 99.564,91.133 97.116 C 91.089 94.669,91.053 96.747,91.053 101.733 M301.267 94.588 C 301.597 94.652,302.137 94.652,302.467 94.588 C 302.797 94.525,302.527 94.473,301.867 94.473 C 301.207 94.473,300.937 94.525,301.267 94.588 M132.911 102.667 C 132.911 105.380,132.950 106.490,132.999 105.133 C 133.047 103.777,133.047 101.557,132.999 100.200 C 132.950 98.843,132.911 99.953,132.911 102.667 M151.857 102.866 L 151.867 107.600 155.400 107.612 L 158.934 107.624 155.473 107.538 L 152.012 107.451 151.930 102.792 L 151.848 98.133 151.857 102.866 M169.655 107.666 L 173.043 107.749 173.136 109.541 L 173.229 111.333 173.281 109.400 L 173.333 107.467 169.800 107.525 L 166.267 107.583 169.655 107.666 M289.921 107.666 L 293.309 107.749 293.402 109.541 L 293.496 111.333 293.548 109.400 L 293.600 107.467 290.067 107.525 L 286.533 107.583 289.921 107.666 M182.070 111.655 C 182.401 111.719,182.881 111.717,183.136 111.650 C 183.391 111.583,183.120 111.531,182.533 111.534 C 181.947 111.537,181.738 111.591,182.070 111.655 M110.200 170.584 C 110.457 170.651,110.877 170.651,111.133 170.584 C 111.390 170.517,111.180 170.462,110.667 170.462 C 110.153 170.462,109.943 170.517,110.200 170.584 M113.133 170.584 C 113.390 170.651,113.810 170.651,114.067 170.584 C 114.323 170.517,114.113 170.462,113.600 170.462 C 113.087 170.462,112.877 170.517,113.133 170.584 M282.733 170.584 C 282.990 170.651,283.410 170.651,283.667 170.584 C 283.923 170.517,283.713 170.462,283.200 170.462 C 282.687 170.462,282.477 170.517,282.733 170.584 M285.667 170.584 C 285.923 170.651,286.343 170.651,286.600 170.584 C 286.857 170.517,286.647 170.462,286.133 170.462 C 285.620 170.462,285.410 170.517,285.667 170.584 M166.333 184.729 C 166.957 184.785,167.977 184.785,168.600 184.729 C 169.223 184.672,168.713 184.627,167.467 184.627 C 166.220 184.627,165.710 184.672,166.333 184.729 M228.200 184.729 C 228.823 184.785,229.843 184.785,230.467 184.729 C 231.090 184.672,230.580 184.627,229.333 184.627 C 228.087 184.627,227.577 184.672,228.200 184.729 M171.004 203.391 C 171.409 203.453,172.009 203.451,172.337 203.388 C 172.665 203.324,172.333 203.274,171.600 203.276 C 170.867 203.278,170.598 203.330,171.004 203.391 M224.600 203.391 C 225.003 203.452,225.663 203.452,226.067 203.391 C 226.470 203.330,226.140 203.280,225.333 203.280 C 224.527 203.280,224.197 203.330,224.600 203.391 M294.133 276.883 C 294.133 276.929,294.523 277.319,295.000 277.750 L 295.867 278.533 295.083 277.667 C 294.353 276.859,294.133 276.677,294.133 276.883 M106.221 293.467 C 106.222 294.493,106.270 294.881,106.328 294.327 C 106.386 293.774,106.385 292.934,106.326 292.461 C 106.267 291.987,106.220 292.440,106.221 293.467 M249.137 298.858 C 249.542 298.919,250.142 298.918,250.470 298.854 C 250.798 298.791,250.467 298.741,249.733 298.743 C 249.000 298.745,248.732 298.797,249.137 298.858 M222.876 343.130 C 223.651 343.184,224.851 343.184,225.542 343.129 C 226.234 343.074,225.600 343.030,224.133 343.031 C 222.667 343.031,222.101 343.076,222.876 343.130 " stroke="none" fill="#a5daf2" fill-rule="evenodd"></path></g></svg>