<svg id="svg" version="1.1" xmlns="http://www.w3.org/2000/svg" xmlns:xlink="http://www.w3.org/1999/xlink" width="400" height="400" viewBox="0, 0, 400,400"><g id="svgg"><path id="path0" d="M73.600 33.629 C 62.772 34.856,57.229 42.211,56.628 56.148 L 56.451 60.267 63.524 60.267 L 70.598 60.267 70.730 56.600 C 71.000 49.108,72.774 46.000,76.983 45.651 C 80.884 45.328,82.901 47.631,83.139 52.680 C 83.439 59.051,83.347 59.232,66.709 84.893 L 56.533 100.587 56.533 105.627 L 56.533 110.667 76.000 110.667 L 95.467 110.667 95.467 105.067 L 95.467 99.467 84.267 99.467 C 76.679 99.467,73.067 99.377,73.067 99.189 C 73.067 99.036,77.371 92.466,82.633 84.589 C 96.796 63.384,97.438 62.027,97.434 53.333 C 97.427 39.030,88.809 31.906,73.600 33.629 M165.312 34.125 C 161.653 34.777,159.751 37.154,159.739 41.086 C 159.728 44.891,160.448 45.973,166.636 51.454 C 169.858 54.308,170.900 57.391,169.212 59.079 C 167.315 60.976,164.704 59.096,164.340 55.570 C 164.163 53.850,164.362 53.888,160.298 54.816 C 159.378 55.026,159.625 57.520,160.802 59.911 C 163.973 66.353,174.298 64.561,174.867 57.469 C 175.190 53.451,173.890 51.093,168.912 46.658 C 164.897 43.081,164.667 42.761,164.667 40.752 C 164.667 38.907,165.239 38.166,166.828 37.954 C 168.648 37.712,169.861 39.259,169.865 41.829 C 169.866 42.622,169.935 42.708,170.467 42.581 C 170.797 42.503,171.830 42.292,172.762 42.112 L 174.458 41.786 174.291 40.426 C 173.725 35.809,170.107 33.270,165.312 34.125 M200.433 34.152 C 197.392 34.613,195.315 36.560,194.658 39.567 C 194.033 42.425,194.427 58.031,195.165 59.664 C 197.739 65.359,207.376 65.312,210.054 59.593 L 210.800 58.000 210.800 48.800 C 210.800 39.671,210.795 39.589,210.163 38.190 C 208.673 34.893,205.159 33.434,200.433 34.152 M237.408 34.131 C 230.778 35.124,229.631 43.385,235.419 48.457 C 242.028 54.249,243.622 57.247,241.133 59.205 C 238.974 60.903,236.267 58.371,236.267 54.654 C 236.267 54.021,235.975 54.011,233.553 54.562 L 231.667 54.991 231.835 56.423 C 232.414 61.346,234.852 63.600,239.600 63.600 C 244.744 63.600,247.158 61.034,246.875 55.867 C 246.681 52.333,245.567 50.651,240.501 46.239 C 236.841 43.051,235.974 41.393,236.921 39.396 C 238.215 36.669,241.325 37.676,241.903 41.008 C 242.137 42.360,242.278 42.659,242.630 42.557 C 242.870 42.487,243.817 42.288,244.733 42.114 C 246.649 41.750,246.784 41.391,246.003 38.759 C 244.914 35.093,241.883 33.461,237.408 34.131 M36.375 34.963 C 35.092 36.383,26.953 41.130,23.667 42.376 L 22.933 42.653 22.933 47.993 C 22.933 50.930,22.984 53.333,23.047 53.333 C 23.295 53.333,30.308 50.840,32.030 50.139 L 33.867 49.392 33.867 80.029 L 33.867 110.667 41.067 110.667 L 48.267 110.667 48.267 72.533 L 48.267 34.400 42.575 34.400 C 37.123 34.400,36.861 34.424,36.375 34.963 M127.200 48.933 L 127.200 63.467 129.733 63.467 L 132.267 63.467 132.267 56.785 L 132.267 50.104 133.533 50.185 L 134.800 50.267 136.531 56.867 L 138.261 63.467 140.864 63.467 C 142.295 63.467,143.463 63.377,143.458 63.267 C 143.453 63.157,142.561 59.947,141.477 56.133 C 139.703 49.893,139.550 49.173,139.946 48.933 C 143.489 46.790,144.151 39.592,141.087 36.528 C 139.292 34.733,137.855 34.400,131.916 34.400 L 127.200 34.400 127.200 48.933 M146.133 48.933 L 146.133 63.467 152.133 63.467 L 158.133 63.467 158.133 61.741 L 158.133 60.016 154.733 59.941 L 151.333 59.867 151.261 55.000 L 151.188 50.133 153.994 50.133 L 156.800 50.133 156.800 48.267 L 156.800 46.400 153.993 46.400 L 151.186 46.400 151.260 42.200 L 151.333 38.000 154.733 37.925 L 158.133 37.851 158.133 36.125 L 158.133 34.400 152.133 34.400 L 146.133 34.400 146.133 48.933 M177.067 48.914 L 177.067 63.467 179.733 63.467 L 182.400 63.467 182.400 56.972 L 182.400 50.477 185.133 50.329 C 190.864 50.019,192.667 48.150,192.667 42.514 C 192.667 38.466,191.950 36.702,189.751 35.342 L 188.444 34.533 182.755 34.448 L 177.067 34.362 177.067 48.914 M213.867 48.922 L 213.867 63.467 216.130 63.467 L 218.393 63.467 218.463 54.919 L 218.533 46.371 220.779 51.785 C 222.014 54.763,223.617 58.610,224.341 60.333 L 225.658 63.467 227.362 63.467 L 229.067 63.467 229.067 48.933 L 229.067 34.400 226.933 34.400 L 224.800 34.400 224.800 42.453 C 224.800 47.376,224.704 50.408,224.554 50.253 C 224.419 50.114,222.808 46.520,220.974 42.267 L 217.639 34.533 215.753 34.455 L 213.867 34.377 213.867 48.922 M249.333 48.933 L 249.333 63.467 251.867 63.467 L 254.400 63.467 254.400 48.933 L 254.400 34.400 251.867 34.400 L 249.333 34.400 249.333 48.933 M258.133 48.933 L 258.133 63.514 263.533 63.417 C 272.418 63.259,274.639 61.414,274.355 54.430 C 274.205 50.749,273.179 49.059,270.544 48.153 L 269.520 47.801 270.480 47.484 C 274.829 46.049,274.769 37.733,270.392 35.333 L 268.933 34.533 263.533 34.443 L 258.133 34.353 258.133 48.933 M277.067 48.933 L 277.067 63.467 283.067 63.467 L 289.067 63.467 289.067 61.741 L 289.067 60.016 285.667 59.941 L 282.267 59.867 282.197 47.133 L 282.128 34.400 279.597 34.400 L 277.067 34.400 277.067 48.933 M290.933 48.933 L 290.933 63.467 297.067 63.467 L 303.200 63.467 303.200 61.741 L 303.200 60.016 299.800 59.941 L 296.400 59.867 296.327 55.000 L 296.255 50.133 298.927 50.133 L 301.600 50.133 301.600 48.267 L 301.600 46.400 298.927 46.400 L 296.253 46.400 296.327 42.200 L 296.400 38.000 299.800 37.925 L 303.200 37.851 303.200 36.125 L 303.200 34.400 297.067 34.400 L 290.933 34.400 290.933 48.933 M136.124 38.246 C 137.429 38.791,137.986 39.993,137.986 42.267 C 137.986 45.430,136.978 46.550,133.985 46.714 L 132.400 46.800 132.327 42.333 L 132.254 37.867 133.735 37.867 C 134.550 37.867,135.625 38.037,136.124 38.246 M186.451 38.270 C 188.154 38.931,188.581 44.051,187.078 45.798 C 186.524 46.442,186.239 46.531,184.429 46.623 L 182.400 46.725 182.400 42.257 L 182.400 37.789 184.200 37.942 C 185.190 38.026,186.203 38.174,186.451 38.270 M204.129 38.132 C 205.533 38.665,205.628 39.417,205.543 49.343 L 205.467 58.389 204.727 59.128 C 203.003 60.852,200.298 59.852,199.749 57.288 C 199.375 55.546,199.380 42.030,199.755 40.282 C 200.212 38.150,201.941 37.300,204.129 38.132 M266.355 38.149 C 268.204 38.545,268.871 39.338,269.013 41.309 C 269.252 44.611,268.188 45.940,265.183 46.091 L 263.200 46.192 263.200 42.029 L 263.200 37.867 264.120 37.867 C 264.626 37.867,265.632 37.994,266.355 38.149 M267.195 50.334 C 269.064 51.273,269.936 53.873,269.330 56.699 C 268.860 58.889,267.942 59.574,265.317 59.694 L 263.200 59.790 263.200 54.828 L 263.200 49.867 264.733 49.867 C 265.661 49.867,266.633 50.052,267.195 50.334 M131.732 82.102 C 127.313 83.537,126.800 85.066,126.800 96.800 L 126.800 105.733 127.644 107.515 C 129.090 110.568,131.359 111.656,135.767 111.415 C 140.587 111.150,142.367 109.063,142.602 103.400 L 142.732 100.267 140.300 100.267 L 137.867 100.267 137.861 101.667 C 137.845 105.831,137.169 107.409,135.306 107.631 C 132.210 107.999,131.974 107.166,132.062 96.178 L 132.133 87.156 133.004 86.378 C 135.396 84.241,137.453 85.736,137.743 89.822 L 137.935 92.533 140.331 92.533 L 142.726 92.533 142.627 89.642 C 142.433 83.997,140.590 82.046,135.355 81.943 C 133.730 81.911,132.099 81.983,131.732 82.102 M150.132 82.102 C 145.745 83.527,145.223 84.970,145.116 95.963 C 145.009 107.039,145.490 108.922,148.892 110.741 C 150.520 111.611,156.132 111.622,157.733 110.758 C 161.222 108.875,161.467 107.949,161.467 96.640 L 161.467 87.280 160.533 85.466 C 158.989 82.465,153.990 80.849,150.132 82.102 M186.265 82.494 C 183.626 83.723,182.525 85.714,182.557 89.200 C 182.589 92.775,183.113 93.556,189.144 99.023 C 192.518 102.081,193.299 103.680,192.542 105.975 C 191.357 109.563,186.933 106.699,186.933 102.344 C 186.933 101.760,186.901 101.760,184.384 102.313 L 182.353 102.759 182.522 103.980 C 183.220 109.036,185.744 111.472,190.267 111.452 C 195.056 111.432,197.689 108.944,197.688 104.440 C 197.688 100.658,196.584 98.824,191.653 94.413 C 187.333 90.548,186.440 88.702,187.926 86.712 C 189.632 84.427,192.240 85.783,192.708 89.197 C 192.857 90.288,192.946 90.422,193.439 90.305 C 193.747 90.232,194.737 90.030,195.637 89.857 L 197.275 89.542 197.134 88.438 C 196.429 82.912,191.341 80.130,186.265 82.494 M287.998 82.102 C 283.542 83.550,283.067 84.927,283.067 96.400 C 283.067 109.828,284.144 111.694,291.733 111.411 C 298.362 111.165,299.717 108.662,299.717 96.667 C 299.717 86.948,299.046 84.494,295.922 82.775 C 294.456 81.969,289.662 81.562,287.998 82.102 M164.533 96.655 L 164.533 111.200 166.796 111.200 L 169.059 111.200 169.130 102.603 L 169.200 94.005 172.774 102.603 L 176.347 111.200 178.040 111.200 L 179.733 111.200 179.733 96.667 L 179.733 82.133 177.604 82.133 L 175.474 82.133 175.404 90.303 L 175.333 98.473 171.839 90.370 L 168.346 82.267 166.439 82.188 L 164.533 82.110 164.533 96.655 M199.733 93.156 C 199.733 107.312,200.078 108.989,203.326 110.654 C 205.197 111.613,210.439 111.669,212.159 110.749 C 215.639 108.887,215.823 108.062,215.937 93.800 L 216.031 82.133 213.482 82.133 L 210.933 82.133 210.933 93.082 C 210.933 106.758,210.755 107.600,207.867 107.600 C 204.957 107.600,204.803 106.880,204.801 93.267 L 204.800 82.133 202.267 82.133 L 199.733 82.133 199.733 93.156 M219.467 87.023 C 219.467 89.712,219.387 96.252,219.290 101.556 L 219.114 111.200 221.157 111.200 L 223.200 111.200 223.202 103.533 C 223.202 99.317,223.283 94.847,223.380 93.600 L 223.556 91.333 225.637 101.200 C 226.781 106.627,227.721 111.097,227.725 111.133 C 227.730 111.170,228.428 111.200,229.277 111.200 L 230.820 111.200 232.774 101.800 C 235.099 90.618,235.181 90.407,235.193 95.600 C 235.197 97.800,235.280 102.210,235.376 105.400 L 235.552 111.200 237.498 111.200 L 239.444 111.200 239.321 108.600 C 239.253 107.170,239.124 100.630,239.034 94.067 L 238.870 82.133 236.240 82.133 C 233.732 82.133,233.604 82.161,233.472 82.733 C 233.396 83.063,232.433 87.583,231.334 92.777 C 230.234 97.972,229.295 102.260,229.247 102.308 C 229.200 102.356,228.220 97.836,227.070 92.264 L 224.979 82.133 222.223 82.133 L 219.467 82.133 219.467 87.023 M242.667 96.667 L 242.667 111.200 245.333 111.200 L 248.000 111.200 248.000 104.697 L 248.000 98.194 250.733 98.083 C 256.494 97.850,258.267 95.980,258.267 90.133 C 258.267 83.422,256.563 82.133,247.691 82.133 L 242.667 82.133 242.667 96.667 M258.400 84.000 L 258.400 85.867 260.800 85.867 L 263.200 85.867 263.200 98.533 L 263.200 111.200 265.867 111.200 L 268.533 111.200 268.533 98.533 L 268.533 85.867 270.800 85.867 L 273.067 85.867 273.067 84.000 L 273.067 82.133 265.733 82.133 L 258.400 82.133 258.400 84.000 M274.667 96.667 L 274.667 111.200 277.200 111.200 L 279.733 111.200 279.733 96.667 L 279.733 82.133 277.200 82.133 L 274.667 82.133 274.667 96.667 M302.667 96.654 L 302.667 111.200 304.796 111.200 L 306.926 111.200 306.996 102.600 L 307.067 94.000 310.654 102.600 L 314.241 111.200 315.921 111.200 L 317.600 111.200 317.600 96.667 L 317.600 82.133 315.467 82.133 L 313.333 82.133 313.333 90.178 C 313.333 94.602,313.254 98.143,313.157 98.046 C 313.061 97.950,311.464 94.360,309.609 90.069 L 306.236 82.267 304.452 82.188 L 302.667 82.109 302.667 96.654 M154.770 85.855 C 156.266 86.424,156.392 87.140,156.488 95.656 C 156.589 104.637,156.428 105.993,155.129 107.086 C 154.035 108.006,152.302 107.890,151.235 106.823 L 150.533 106.122 150.451 97.261 C 150.360 87.602,150.461 86.674,151.676 86.014 C 152.517 85.558,153.812 85.491,154.770 85.855 M252.086 86.160 C 253.076 86.611,253.424 87.470,253.531 89.733 C 253.699 93.270,252.772 94.389,249.667 94.396 L 248.000 94.400 248.000 89.963 L 248.000 85.526 249.738 85.704 C 250.694 85.802,251.751 86.007,252.086 86.160 M293.324 86.258 C 294.537 87.356,294.949 104.222,293.813 106.296 C 292.931 107.905,290.450 108.170,289.081 106.803 L 288.400 106.122 288.317 97.261 C 288.227 87.612,288.328 86.684,289.543 85.999 C 290.473 85.474,292.620 85.621,293.324 86.258 M230.715 130.091 C 226.679 131.532,226.267 132.834,226.267 144.133 C 226.267 157.359,227.068 158.900,234.082 159.151 C 241.077 159.401,242.630 157.120,242.856 146.267 C 243.087 135.186,242.316 132.156,238.800 130.331 C 237.236 129.518,232.696 129.383,230.715 130.091 M288.179 130.018 C 284.185 131.290,283.600 133.127,283.600 144.400 C 283.600 157.175,284.467 158.877,291.109 159.148 C 296.970 159.387,299.134 157.330,299.402 151.267 L 299.534 148.267 296.990 148.267 L 294.447 148.267 294.357 151.224 C 294.252 154.669,293.762 155.467,291.754 155.467 C 288.981 155.467,288.747 154.517,288.850 143.644 L 288.933 134.889 289.838 134.081 C 292.236 131.939,294.400 133.615,294.400 137.615 L 294.400 140.267 296.933 140.267 L 299.467 140.267 299.467 137.909 C 299.467 132.151,297.388 129.819,292.133 129.679 C 290.296 129.630,289.066 129.736,288.179 130.018 M329.333 130.107 C 325.438 131.483,324.933 133.122,324.933 144.400 C 324.933 157.510,325.797 159.067,333.067 159.067 C 340.536 159.067,341.772 156.702,341.540 142.849 C 341.391 133.930,340.865 132.199,337.788 130.510 C 335.922 129.485,331.667 129.282,329.333 130.107 M131.467 129.970 C 131.467 130.098,125.924 157.502,125.730 158.333 C 125.592 158.923,125.633 158.933,128.092 158.933 L 130.593 158.933 130.920 156.867 C 131.100 155.730,131.368 154.226,131.514 153.524 L 131.782 152.248 134.348 152.324 L 136.915 152.400 137.458 155.600 L 138.000 158.800 140.488 158.877 C 142.772 158.948,142.964 158.915,142.835 158.477 C 142.685 157.967,137.067 130.235,137.067 130.004 C 137.067 129.928,135.807 129.867,134.267 129.867 C 132.727 129.867,131.467 129.913,131.467 129.970 M144.800 144.400 L 144.800 158.933 146.933 158.933 L 149.067 158.933 149.082 150.333 C 149.094 144.166,149.178 141.851,149.382 142.149 C 149.538 142.377,151.189 146.217,153.050 150.682 L 156.435 158.800 158.217 158.879 L 160.000 158.958 160.000 144.412 L 160.000 129.867 157.867 129.867 L 155.733 129.867 155.733 137.867 C 155.733 142.267,155.639 145.867,155.525 145.867 C 155.410 145.867,153.768 142.267,151.876 137.867 L 148.435 129.867 146.617 129.867 L 144.800 129.867 144.800 144.400 M163.467 144.396 L 163.467 158.982 168.733 158.874 C 178.606 158.672,179.067 158.020,179.067 144.267 C 179.067 130.690,178.689 130.172,168.600 129.932 L 163.467 129.810 163.467 144.396 M189.867 144.400 L 189.867 158.933 192.533 158.933 L 195.200 158.933 195.200 152.429 L 195.200 145.926 198.067 145.822 C 203.741 145.618,205.467 143.798,205.467 138.021 C 205.467 131.155,203.794 129.867,194.885 129.867 L 189.867 129.867 189.867 144.400 M207.733 144.372 L 207.733 158.933 210.267 158.933 L 212.800 158.933 212.800 152.252 L 212.800 145.571 214.041 145.652 L 215.281 145.733 216.185 149.200 C 216.682 151.107,217.459 154.077,217.912 155.800 L 218.735 158.933 221.386 158.933 C 223.787 158.933,224.022 158.890,223.890 158.467 C 223.337 156.698,220.011 144.707,220.066 144.679 C 223.851 142.772,224.788 135.188,221.628 132.028 C 219.962 130.362,218.753 130.072,212.867 129.932 L 207.733 129.810 207.733 144.372 M245.867 144.372 L 245.867 158.933 250.387 158.933 C 257.343 158.933,259.055 158.289,260.667 155.067 L 261.467 153.467 261.467 144.267 L 261.467 135.067 260.741 133.589 C 259.292 130.640,257.827 130.089,251.000 129.930 L 245.867 129.810 245.867 144.372 M264.587 141.933 C 264.693 158.071,265.046 158.882,272.083 159.150 C 279.901 159.448,280.786 157.523,280.795 140.200 L 280.800 129.867 278.267 129.867 L 275.733 129.867 275.733 140.520 C 275.733 153.952,275.527 155.045,272.933 155.364 C 269.729 155.757,269.535 154.976,269.401 141.133 L 269.293 129.867 266.900 129.867 L 264.508 129.867 264.587 141.933 M300.267 131.723 L 300.267 133.579 302.600 133.656 L 304.933 133.733 305.003 146.333 L 305.072 158.933 307.736 158.933 L 310.400 158.933 310.400 146.267 L 310.400 133.600 312.667 133.600 L 314.933 133.600 314.933 131.733 L 314.933 129.867 307.600 129.867 L 300.267 129.867 300.267 131.723 M316.533 144.400 L 316.533 158.933 319.067 158.933 L 321.600 158.933 321.600 144.400 L 321.600 129.867 319.067 129.867 L 316.533 129.867 316.533 144.400 M344.533 144.388 L 344.533 158.933 346.667 158.933 L 348.800 158.933 348.811 150.333 C 348.820 143.015,348.874 141.833,349.176 142.400 C 349.371 142.767,351.009 146.637,352.816 151.000 L 356.100 158.933 357.784 158.933 L 359.467 158.933 359.467 144.400 L 359.467 129.867 357.337 129.867 L 355.208 129.867 355.137 137.997 L 355.067 146.128 351.587 138.064 L 348.107 130.000 346.320 129.921 L 344.533 129.842 344.533 144.388 M217.041 134.069 C 218.081 134.838,218.502 135.934,218.506 137.881 C 218.513 140.890,217.431 142.054,214.372 142.331 L 212.800 142.474 212.800 138.081 C 212.800 135.666,212.890 133.596,213.000 133.483 C 213.366 133.107,216.319 133.535,217.041 134.069 M235.976 133.721 C 237.379 134.446,237.467 135.074,237.467 144.400 C 237.467 153.726,237.379 154.354,235.976 155.079 C 234.745 155.715,233.460 155.572,232.471 154.689 L 231.600 153.910 231.600 144.450 C 231.600 135.365,231.621 134.966,232.133 134.397 C 233.114 133.307,234.652 133.036,235.976 133.721 M334.628 133.713 C 336.052 134.450,336.126 134.908,336.221 143.600 C 336.338 154.289,336.134 155.137,333.374 155.402 C 332.217 155.514,331.978 155.440,331.171 154.719 L 330.267 153.911 330.193 144.889 C 330.127 136.686,330.163 135.782,330.593 134.937 C 331.363 133.425,333.070 132.908,334.628 133.713 M173.003 134.482 L 173.733 135.212 173.733 144.428 L 173.733 153.644 172.887 154.400 C 172.034 155.162,169.483 155.755,168.820 155.346 C 168.623 155.224,168.533 151.783,168.533 144.354 L 168.533 133.540 170.403 133.645 C 172.009 133.736,172.375 133.854,173.003 134.482 M199.308 133.904 C 200.308 134.359,200.800 135.667,200.800 137.867 C 200.800 141.193,199.913 142.176,196.857 142.236 L 195.333 142.267 195.260 137.933 L 195.187 133.600 196.914 133.600 C 197.864 133.600,198.941 133.737,199.308 133.904 M255.363 134.442 C 256.348 135.427,256.621 138.367,256.463 146.287 C 256.296 154.675,256.063 155.201,252.474 155.296 L 251.067 155.333 250.997 144.436 L 250.927 133.539 252.800 133.645 C 254.380 133.735,254.780 133.859,255.363 134.442 M135.320 142.853 C 135.841 145.953,136.267 148.559,136.267 148.644 C 136.267 148.730,135.357 148.800,134.245 148.800 L 132.224 148.800 132.377 148.067 C 132.601 146.989,134.133 137.545,134.133 137.239 C 134.133 136.239,134.500 137.975,135.320 142.853 M128.198 194.664 C 89.261 197.710,66.916 229.037,73.235 271.723 C 79.542 314.328,131.168 335.122,167.507 309.695 L 169.547 308.267 173.983 312.267 C 178.400 316.250,179.251 316.774,179.942 315.933 C 180.233 315.580,186.408 278.037,186.403 276.653 C 186.395 274.592,187.358 274.415,166.078 280.377 C 145.305 286.197,146.738 285.756,146.537 286.387 C 146.280 287.200,146.580 287.543,151.078 291.590 C 153.492 293.761,155.467 295.572,155.467 295.612 C 155.467 296.143,148.098 299.635,145.142 300.504 C 123.044 307.007,99.445 295.512,92.819 275.018 C 88.729 262.369,90.519 242.475,96.700 231.867 C 107.562 213.227,134.382 207.219,154.830 218.846 C 167.088 225.815,178.294 240.087,191.329 265.333 C 203.581 289.061,214.888 302.200,231.026 311.462 C 272.236 335.112,316.188 316.235,322.904 272.000 C 327.997 238.452,315.034 210.822,289.069 199.881 C 260.180 187.709,229.764 196.490,208.198 223.226 C 205.647 226.389,205.626 225.999,208.623 231.098 C 209.992 233.427,211.931 236.815,212.932 238.625 C 215.581 243.416,215.788 243.444,218.827 239.431 C 236.497 216.098,255.799 208.257,278.000 215.392 C 296.294 221.271,305.442 235.651,305.446 258.533 C 305.448 273.875,301.759 284.627,293.733 292.673 C 275.315 311.138,242.314 305.009,221.579 279.272 C 216.600 273.093,213.190 267.573,207.241 256.068 C 193.627 229.738,181.298 213.934,167.200 204.741 C 156.017 197.448,141.281 193.641,128.198 194.664 " stroke="none" fill="#fbfbfb" fill-rule="evenodd"></path><path id="path1" d="M0.000 200.000 L 0.000 400.000 200.000 400.000 L 400.000 400.000 400.000 200.000 L 400.000 0.000 200.000 0.000 L 0.000 0.000 0.000 200.000 M84.752 34.105 C 94.938 37.099,99.876 47.240,97.059 59.379 C 95.766 64.950,94.865 66.542,82.625 84.867 L 73.052 99.200 84.393 99.200 L 95.733 99.200 95.733 105.067 L 95.733 110.933 76.133 110.933 L 56.533 110.933 56.533 105.613 L 56.533 100.294 66.712 84.613 C 82.986 59.543,82.920 59.669,82.929 53.448 C 82.937 48.098,81.348 45.859,77.551 45.873 C 72.941 45.889,71.234 48.614,70.998 56.333 L 70.870 60.533 63.701 60.533 L 56.533 60.533 56.533 56.702 C 56.533 43.190,61.874 35.575,72.800 33.504 C 74.742 33.136,82.840 33.543,84.752 34.105 M169.904 34.176 C 172.157 34.851,173.740 36.937,174.392 40.088 C 174.782 41.973,174.919 41.831,172.178 42.391 L 169.932 42.850 169.645 41.123 C 169.169 38.245,167.132 37.110,165.455 38.788 C 163.804 40.439,164.646 42.602,168.164 45.743 C 173.182 50.223,174.408 51.891,174.961 54.983 C 175.881 60.134,172.778 63.876,167.600 63.859 C 162.791 63.843,160.084 61.299,159.562 56.304 L 159.405 54.800 161.734 54.320 C 164.467 53.758,164.172 53.616,164.499 55.651 C 165.172 59.828,169.070 61.362,169.754 57.719 C 170.217 55.248,169.314 53.976,163.277 48.599 C 155.646 41.804,160.452 31.344,169.904 34.176 M206.089 34.278 C 208.624 35.031,210.286 37.136,210.930 40.409 C 211.445 43.025,211.169 57.392,210.574 58.933 C 208.043 65.499,197.944 65.958,195.025 59.640 L 194.267 58.000 194.267 48.794 L 194.267 39.589 195.145 37.804 C 196.837 34.369,201.420 32.892,206.089 34.278 M242.117 34.261 C 244.629 35.147,246.342 37.610,246.470 40.516 L 246.533 41.965 244.339 42.410 C 241.929 42.898,241.867 42.886,241.865 41.889 C 241.856 37.839,237.319 36.379,236.879 40.285 C 236.657 42.257,237.205 43.089,240.887 46.369 C 247.878 52.597,249.303 58.231,244.874 62.130 C 240.003 66.417,232.956 63.575,231.738 56.831 C 231.369 54.789,231.335 54.828,233.962 54.293 C 236.667 53.743,236.533 53.715,236.533 54.815 C 236.533 58.580,239.369 61.007,241.235 58.838 C 242.975 56.816,241.728 54.161,237.211 50.271 C 232.516 46.228,231.650 44.818,231.642 41.200 C 231.629 35.647,236.639 32.328,242.117 34.261 M48.533 72.538 L 48.533 110.942 41.133 110.871 L 33.733 110.800 33.666 80.194 L 33.598 49.587 32.866 49.959 C 32.163 50.316,23.087 53.600,22.804 53.600 C 22.728 53.600,22.667 51.158,22.667 48.173 L 22.667 42.747 26.733 40.735 C 30.947 38.650,35.124 36.061,36.246 34.838 L 36.893 34.133 42.713 34.133 L 48.533 34.133 48.533 72.538 M138.702 34.774 C 141.860 35.936,143.069 38.013,143.063 42.267 C 143.059 45.543,142.272 47.621,140.681 48.560 C 139.525 49.242,139.390 48.213,141.711 56.400 C 142.792 60.213,143.623 63.423,143.556 63.533 C 143.490 63.643,142.247 63.733,140.795 63.733 L 138.154 63.733 137.895 62.733 C 134.324 48.934,134.836 50.400,133.586 50.400 L 132.543 50.400 132.471 57.000 L 132.400 63.600 129.667 63.676 L 126.933 63.752 126.933 48.915 L 126.933 34.078 132.200 34.199 C 136.270 34.292,137.747 34.423,138.702 34.774 M158.400 36.133 L 158.400 38.133 154.933 38.133 L 151.467 38.133 151.467 42.267 L 151.467 46.400 154.133 46.400 L 156.800 46.400 156.800 48.400 L 156.800 50.400 154.133 50.400 L 151.467 50.400 151.467 55.067 L 151.467 59.733 154.933 59.733 L 158.400 59.733 158.400 61.738 L 158.400 63.743 152.200 63.672 L 146.000 63.600 145.931 48.867 L 145.862 34.133 152.131 34.133 L 158.400 34.133 158.400 36.133 M189.200 34.845 C 191.867 36.277,192.918 38.408,192.927 42.400 C 192.940 48.028,190.806 50.195,184.867 50.585 L 182.400 50.747 182.400 57.250 L 182.400 63.752 179.667 63.676 L 176.933 63.600 176.864 48.844 L 176.795 34.087 182.464 34.180 C 187.653 34.265,188.224 34.321,189.200 34.845 M221.041 42.043 L 224.400 49.820 224.471 41.976 L 224.541 34.133 226.940 34.133 L 229.338 34.133 229.269 48.867 L 229.200 63.600 227.365 63.600 L 225.529 63.600 221.974 55.067 L 218.419 46.533 218.410 55.133 L 218.400 63.733 216.133 63.733 L 213.867 63.733 213.867 48.922 L 213.867 34.110 215.774 34.188 L 217.681 34.267 221.041 42.043 M254.667 48.943 L 254.667 63.752 251.933 63.676 L 249.200 63.600 249.131 48.867 L 249.062 34.133 251.864 34.133 L 254.667 34.133 254.667 48.943 M268.677 34.545 C 269.551 34.771,270.727 35.260,271.290 35.631 C 274.560 37.785,274.630 45.096,271.401 47.178 L 270.401 47.822 271.710 48.570 C 275.464 50.713,275.682 58.872,272.065 61.854 C 270.314 63.296,269.202 63.526,263.267 63.667 L 257.867 63.795 257.867 48.964 L 257.867 34.133 262.477 34.133 C 265.770 34.133,267.542 34.251,268.677 34.545 M282.400 46.933 L 282.400 59.733 285.867 59.733 L 289.333 59.733 289.333 61.733 L 289.333 63.733 283.067 63.733 L 276.800 63.733 276.800 48.933 L 276.800 34.133 279.600 34.133 L 282.400 34.133 282.400 46.933 M303.467 36.133 L 303.467 38.133 300.000 38.133 L 296.533 38.133 296.533 42.267 L 296.533 46.400 299.200 46.400 L 301.867 46.400 301.867 48.400 L 301.867 50.400 299.200 50.400 L 296.533 50.400 296.533 55.067 L 296.533 59.733 300.012 59.733 L 303.490 59.733 303.412 61.667 L 303.333 63.600 297.133 63.672 L 290.933 63.743 290.933 48.938 L 290.933 34.133 297.200 34.133 L 303.467 34.133 303.467 36.133 M201.624 38.100 C 199.940 38.570,199.874 38.932,199.789 48.284 C 199.691 59.099,199.856 59.733,202.772 59.733 C 205.285 59.733,205.587 58.559,205.587 48.800 C 205.587 38.468,205.093 37.134,201.624 38.100 M132.533 42.437 L 132.533 46.741 134.143 46.595 C 136.879 46.347,137.867 45.183,137.866 42.209 C 137.865 39.300,136.787 38.144,134.067 38.137 L 132.533 38.133 132.533 42.437 M182.400 42.439 L 182.400 46.744 184.170 46.578 C 187.160 46.299,187.734 45.591,187.732 42.183 C 187.731 38.858,187.009 38.133,183.700 38.133 L 182.400 38.133 182.400 42.439 M263.467 42.172 L 263.467 46.210 265.199 46.049 C 268.122 45.776,268.800 45.002,268.800 41.939 C 268.800 39.167,267.716 38.133,264.809 38.133 L 263.467 38.133 263.467 42.172 M263.467 54.800 L 263.467 59.467 265.213 59.467 C 268.370 59.467,269.205 58.488,269.194 54.800 C 269.183 51.293,268.126 50.133,264.942 50.133 L 263.467 50.133 263.467 54.800 M139.374 82.553 C 141.734 83.759,142.713 85.801,142.881 89.867 L 143.002 92.800 140.301 92.800 L 137.600 92.800 137.594 90.733 C 137.582 86.845,137.068 85.867,135.038 85.867 C 132.254 85.867,132.165 86.144,132.047 95.242 C 131.909 105.830,132.276 107.467,134.787 107.467 C 136.942 107.467,137.596 106.304,137.599 102.467 L 137.600 100.267 140.301 100.267 L 143.002 100.267 142.863 103.133 C 142.562 109.383,140.511 111.570,134.933 111.590 C 130.524 111.606,128.474 110.329,127.108 106.717 C 125.684 102.955,126.368 87.027,128.060 84.541 C 130.046 81.623,135.634 80.641,139.374 82.553 M157.694 82.381 C 161.317 84.135,161.733 85.620,161.733 96.800 L 161.733 105.733 160.975 107.374 C 159.506 110.553,157.613 111.600,153.333 111.600 C 148.827 111.600,146.694 110.248,145.415 106.581 C 144.694 104.515,144.689 88.565,145.409 86.504 C 146.903 82.223,153.083 80.149,157.694 82.381 M192.784 81.994 C 195.229 82.857,196.933 85.265,197.246 88.299 L 197.396 89.753 195.165 90.181 C 192.589 90.675,192.533 90.660,192.533 89.491 C 192.533 86.438,190.289 84.840,188.348 86.511 C 186.353 88.228,187.298 90.320,191.937 94.452 C 197.543 99.446,199.211 103.673,197.213 107.819 C 194.639 113.156,185.923 113.049,183.368 107.649 C 182.608 106.043,182.043 102.673,182.509 102.525 C 182.777 102.439,186.905 101.600,187.057 101.600 C 187.094 101.600,187.200 102.323,187.292 103.207 C 187.785 107.929,192.533 109.301,192.533 104.721 C 192.533 102.461,191.826 101.434,187.915 98.018 C 183.072 93.789,182.431 92.730,182.414 88.933 C 182.391 83.462,187.415 80.100,192.784 81.994 M295.467 82.314 C 299.204 83.976,299.794 86.062,299.684 97.238 L 299.600 105.733 298.842 107.374 C 296.511 112.419,287.736 113.446,284.549 109.046 C 282.236 105.853,281.765 89.480,283.868 85.331 C 285.578 81.956,291.309 80.465,295.467 82.314 M171.724 89.733 L 175.067 97.467 175.200 89.733 L 175.333 82.000 177.669 81.923 L 180.005 81.846 179.936 96.590 L 179.867 111.333 178.046 111.333 L 176.224 111.333 172.791 103.067 L 169.357 94.800 169.279 103.067 L 169.200 111.333 166.867 111.410 L 164.533 111.487 164.533 96.665 L 164.533 81.843 166.457 81.922 L 168.380 82.000 171.724 89.733 M204.845 93.400 C 204.925 103.858,204.978 105.023,205.413 105.896 C 206.421 107.922,209.079 108.009,210.198 106.053 C 210.447 105.617,210.567 102.462,210.667 93.733 L 210.800 82.000 213.467 82.000 L 216.133 82.000 216.208 92.000 C 216.307 105.329,215.946 107.888,213.690 109.869 C 210.680 112.512,204.141 112.290,201.650 109.460 C 199.667 107.207,199.633 106.959,199.527 93.667 L 199.432 81.867 202.094 81.867 L 204.756 81.867 204.845 93.400 M225.203 82.467 C 225.284 82.797,226.223 87.313,227.290 92.502 L 229.230 101.938 231.348 91.969 L 233.467 82.000 236.110 81.923 C 237.564 81.881,238.840 81.941,238.947 82.056 C 239.054 82.172,239.227 88.842,239.332 96.878 L 239.523 111.490 237.428 111.412 L 235.333 111.333 235.145 103.200 C 235.041 98.727,234.921 94.587,234.878 94.000 C 234.825 93.273,234.221 95.734,232.981 101.733 C 231.980 106.573,231.100 110.749,231.026 111.012 C 230.910 111.418,230.639 111.479,229.245 111.412 L 227.600 111.333 225.600 101.867 L 223.600 92.400 223.435 100.667 C 223.345 105.213,223.255 109.503,223.235 110.200 L 223.200 111.467 221.047 111.467 L 218.894 111.467 219.053 101.000 C 219.140 95.243,219.282 88.583,219.368 86.200 L 219.523 81.867 222.290 81.867 C 224.938 81.867,225.063 81.892,225.203 82.467 M254.533 82.489 C 257.314 83.718,258.511 86.012,258.524 90.133 C 258.543 95.834,256.442 98.012,250.619 98.333 L 248.000 98.478 248.000 104.981 L 248.000 111.485 245.267 111.409 L 242.533 111.333 242.464 96.933 C 242.426 89.013,242.456 82.373,242.531 82.176 C 242.756 81.590,253.111 81.860,254.533 82.489 M273.333 84.000 L 273.333 86.133 270.933 86.133 L 268.533 86.133 268.533 98.809 L 268.533 111.485 265.800 111.409 L 263.067 111.333 262.997 98.733 L 262.928 86.133 260.531 86.133 L 258.133 86.133 258.133 84.000 L 258.133 81.867 265.733 81.867 L 273.333 81.867 273.333 84.000 M280.000 96.676 L 280.000 111.485 277.267 111.409 L 274.533 111.333 274.464 96.933 C 274.426 89.013,274.452 82.383,274.522 82.200 C 274.613 81.964,275.431 81.867,277.325 81.867 L 280.000 81.867 280.000 96.676 M309.600 89.648 L 312.933 97.417 313.067 89.708 L 313.200 82.000 315.536 81.923 L 317.871 81.846 317.802 96.590 L 317.733 111.333 315.965 111.411 L 314.196 111.490 313.276 109.278 C 312.770 108.062,311.226 104.346,309.845 101.022 L 307.333 94.976 307.200 103.155 L 307.067 111.333 304.733 111.410 L 302.400 111.487 302.400 96.677 L 302.400 81.867 304.333 81.873 L 306.267 81.879 309.600 89.648 M151.345 86.498 C 150.454 87.388,150.345 88.755,150.446 97.733 C 150.551 107.025,150.674 107.439,153.341 107.458 C 156.099 107.478,156.264 106.869,156.264 96.667 C 156.264 88.279,156.121 86.968,155.130 86.275 C 154.192 85.618,152.102 85.741,151.345 86.498 M248.000 90.172 L 248.000 94.477 249.916 94.317 C 252.716 94.082,253.170 93.560,253.292 90.430 C 253.436 86.734,252.675 85.872,249.267 85.868 L 248.000 85.867 248.000 90.172 M289.411 86.269 C 288.408 86.972,288.217 88.925,288.313 97.542 C 288.417 107.047,288.532 107.439,291.207 107.458 C 293.974 107.478,294.130 106.892,294.132 96.458 C 294.133 87.736,294.014 86.783,292.840 86.155 C 292.058 85.736,290.078 85.802,289.411 86.269 M238.612 130.134 C 240.317 130.869,241.671 132.365,242.324 134.238 C 243.062 136.349,243.038 152.516,242.295 154.651 C 240.019 161.190,229.222 161.276,226.645 154.775 C 225.358 151.528,225.599 135.977,226.978 133.227 C 228.766 129.663,234.176 128.224,238.612 130.134 M295.600 129.979 C 298.289 131.109,299.492 133.375,299.678 137.667 L 299.802 140.533 297.136 140.533 L 294.470 140.533 294.345 137.730 C 294.191 134.257,293.770 133.600,291.697 133.600 C 289.033 133.600,288.933 134.000,288.933 144.667 C 288.933 155.156,289.012 155.414,292.132 155.152 C 293.775 155.014,294.195 154.192,294.345 150.812 L 294.470 148.000 297.136 148.000 L 299.802 148.000 299.671 150.867 C 299.377 157.270,296.887 159.713,290.960 159.411 C 284.650 159.090,283.425 156.848,283.266 145.333 C 283.126 135.120,283.679 132.569,286.429 130.749 C 288.612 129.304,293.098 128.928,295.600 129.979 M336.933 129.911 C 338.666 130.471,340.391 132.408,341.045 134.528 C 341.893 137.272,341.887 151.548,341.036 154.305 C 338.838 161.436,327.488 161.425,325.150 154.290 C 324.598 152.604,324.316 139.265,324.770 136.340 C 325.660 130.622,330.775 127.918,336.933 129.911 M140.035 143.867 C 143.562 161.201,143.511 159.200,140.428 159.200 L 137.922 159.200 137.501 156.867 C 137.269 155.583,137.001 154.019,136.904 153.390 L 136.729 152.248 134.299 152.324 L 131.870 152.400 131.526 154.400 C 131.337 155.500,131.057 157.034,130.904 157.809 L 130.625 159.219 128.046 159.143 C 125.935 159.080,125.477 158.994,125.522 158.667 C 125.618 157.967,131.226 130.282,131.344 129.924 C 131.429 129.667,132.169 129.601,134.308 129.658 L 137.159 129.733 140.035 143.867 M151.958 137.667 L 155.453 145.733 155.460 137.667 L 155.467 129.600 157.733 129.600 L 160.000 129.600 160.000 144.400 L 160.000 159.200 158.200 159.198 L 156.400 159.196 152.933 150.808 L 149.467 142.420 149.396 150.821 L 149.326 159.221 146.996 159.144 L 144.667 159.067 144.597 144.667 C 144.517 127.933,144.293 129.600,146.623 129.600 L 148.463 129.600 151.958 137.667 M174.616 130.249 C 178.826 131.581,179.333 133.073,179.333 144.133 C 179.333 157.971,178.661 158.889,168.333 159.134 L 163.200 159.257 163.200 144.396 L 163.200 129.536 168.200 129.668 C 171.835 129.765,173.587 129.923,174.616 130.249 M201.867 130.298 C 204.663 131.572,205.701 133.646,205.720 138.000 C 205.744 143.784,203.345 146.133,197.413 146.133 L 195.476 146.133 195.405 152.600 L 195.333 159.067 192.600 159.143 L 189.867 159.219 189.867 144.382 L 189.867 129.545 195.267 129.648 C 200.007 129.738,200.813 129.817,201.867 130.298 M218.759 130.215 C 220.878 130.896,221.997 131.802,222.839 133.520 C 224.478 136.862,223.614 142.502,221.226 144.049 C 220.047 144.813,219.942 143.934,222.133 151.696 C 224.497 160.069,224.591 159.235,221.290 159.143 L 218.581 159.067 217.721 155.733 C 217.248 153.900,216.472 150.930,215.996 149.133 L 215.132 145.867 214.099 145.867 L 213.067 145.867 213.067 152.533 L 213.067 159.200 210.267 159.200 L 207.467 159.200 207.467 144.368 L 207.467 129.536 212.467 129.668 C 215.945 129.759,217.860 129.926,218.759 130.215 M257.016 130.249 C 261.226 131.581,261.733 133.073,261.733 144.133 C 261.733 157.971,261.061 158.889,250.733 159.134 L 245.600 159.257 245.600 144.396 L 245.600 129.536 250.600 129.668 C 254.235 129.765,255.987 129.923,257.016 130.249 M269.600 140.364 C 269.600 152.037,269.738 153.654,270.814 154.600 C 272.158 155.782,274.052 155.339,275.094 153.600 C 275.225 153.380,275.393 147.920,275.467 141.467 L 275.600 129.733 278.213 129.657 L 280.825 129.580 280.739 141.657 C 280.641 155.355,280.638 155.376,278.512 157.502 C 275.715 160.299,268.473 160.114,266.171 157.187 C 264.460 155.012,264.407 154.568,264.321 141.533 L 264.241 129.600 266.921 129.600 L 269.600 129.600 269.600 140.364 M315.200 131.733 L 315.200 133.867 312.800 133.867 L 310.400 133.867 310.400 146.543 L 310.400 159.219 307.667 159.143 L 304.933 159.067 304.864 146.467 L 304.795 133.867 302.397 133.867 L 300.000 133.867 300.000 131.911 C 300.000 129.386,299.279 129.600,307.778 129.600 L 315.200 129.600 315.200 131.733 M321.867 144.409 L 321.867 159.219 319.133 159.143 L 316.400 159.067 316.331 144.667 C 316.293 136.747,316.319 130.117,316.389 129.933 C 316.479 129.697,317.297 129.600,319.192 129.600 L 321.867 129.600 321.867 144.409 M348.281 130.160 C 348.445 130.467,350.067 134.157,351.884 138.360 L 355.188 146.000 355.194 137.800 L 355.200 129.600 357.467 129.600 L 359.733 129.600 359.733 144.400 L 359.733 159.200 357.900 159.200 L 356.067 159.200 352.633 150.956 L 349.200 142.711 349.130 150.956 L 349.059 159.200 346.663 159.200 L 344.267 159.200 344.267 144.400 L 344.267 129.600 346.124 129.600 C 347.737 129.600,348.021 129.673,348.281 130.160 M195.467 137.828 L 195.467 142.133 196.760 142.133 C 199.747 142.133,200.533 141.251,200.533 137.897 C 200.533 134.428,200.164 133.961,197.199 133.685 L 195.467 133.523 195.467 137.828 M213.067 137.867 L 213.067 142.133 214.275 142.133 C 217.190 142.133,218.267 140.949,218.267 137.745 C 218.267 134.535,217.386 133.600,214.360 133.600 L 213.067 133.600 213.067 137.867 M232.540 134.127 C 231.672 134.994,231.600 135.785,231.600 144.400 C 231.600 154.790,231.704 155.200,234.341 155.200 C 237.186 155.200,237.330 154.671,237.332 144.191 C 237.333 135.469,237.214 134.516,236.040 133.888 C 235.123 133.397,233.134 133.533,232.540 134.127 M331.254 134.141 C 330.330 135.001,330.267 135.667,330.267 144.533 C 330.267 154.857,330.357 155.200,333.067 155.200 C 335.887 155.200,336.000 154.785,336.000 144.400 C 336.000 135.456,335.885 134.519,334.707 133.888 C 333.790 133.397,331.903 133.535,331.254 134.141 M168.800 144.533 L 168.800 155.200 170.009 155.200 C 173.615 155.200,173.733 154.846,173.733 144.045 L 173.733 135.423 172.862 134.645 C 172.106 133.969,171.782 133.867,170.396 133.867 L 168.800 133.867 168.800 144.533 M251.200 144.533 L 251.200 155.200 252.409 155.200 C 256.004 155.200,256.133 154.820,256.133 144.241 C 256.133 133.905,256.121 133.867,252.654 133.867 L 251.200 133.867 251.200 144.533 M133.510 142.334 C 133.094 144.937,132.690 147.397,132.613 147.800 L 132.471 148.533 134.236 148.533 C 136.337 148.533,136.238 149.196,135.117 142.601 L 134.267 137.602 133.510 142.334 M266.092 194.402 C 292.410 196.199,312.279 210.304,319.996 232.667 C 325.683 249.150,325.349 271.233,319.177 286.725 C 304.274 324.133,258.850 333.341,222.863 306.251 C 210.386 296.858,201.681 285.676,191.527 266.000 C 179.715 243.110,170.431 230.351,159.710 222.275 C 138.257 206.115,106.626 211.965,95.714 234.111 C 90.417 244.862,89.226 263.673,93.103 275.333 C 100.642 298.007,129.351 309.034,151.434 297.738 C 155.849 295.480,155.864 296.116,151.294 292.011 C 146.601 287.797,146.400 287.583,146.400 286.812 C 146.400 285.732,147.175 285.472,166.260 280.146 C 186.901 274.386,186.403 274.481,186.609 276.275 C 186.672 276.820,180.852 313.478,180.396 315.409 C 179.916 317.441,178.894 316.942,173.539 312.063 L 169.611 308.485 166.339 310.659 C 135.977 330.829,94.367 320.248,78.276 288.267 C 68.587 269.007,70.429 237.902,82.328 219.867 C 98.409 195.493,133.044 187.218,161.009 201.068 C 178.170 209.567,191.923 226.069,208.457 258.000 C 213.652 268.032,216.944 273.302,221.774 279.320 C 247.854 311.815,291.990 310.803,302.657 277.467 C 305.842 267.512,306.210 253.376,303.559 242.802 C 299.674 227.305,288.853 217.380,272.155 213.999 C 252.203 209.959,235.111 218.220,218.740 239.815 C 215.950 243.496,215.482 243.466,213.245 239.467 C 212.384 237.927,210.360 234.408,208.749 231.648 C 205.300 225.742,205.313 226.438,208.581 222.533 C 223.533 204.670,241.742 194.881,261.333 194.175 C 261.847 194.156,263.988 194.259,266.092 194.402 " stroke="none" fill="#bc8c2c" fill-rule="evenodd"></path><path id="path2" d="M39.800 34.332 C 41.377 34.379,43.957 34.379,45.533 34.332 C 47.110 34.285,45.820 34.247,42.667 34.247 C 39.513 34.247,38.223 34.285,39.800 34.332 M145.991 48.933 C 145.991 57.000,146.025 60.338,146.066 56.352 C 146.108 52.366,146.108 45.766,146.067 41.686 C 146.025 37.605,145.991 40.867,145.991 48.933 M158.221 36.133 C 158.222 37.160,158.270 37.547,158.328 36.994 C 158.386 36.441,158.385 35.601,158.326 35.127 C 158.267 34.654,158.220 35.107,158.221 36.133 M224.474 42.292 C 224.433 46.633,224.490 50.240,224.600 50.308 C 224.710 50.376,224.800 46.824,224.800 42.416 C 224.800 38.007,224.743 34.400,224.674 34.400 C 224.605 34.400,224.515 37.952,224.474 42.292 M282.257 47.067 C 282.257 54.107,282.291 56.948,282.333 53.382 C 282.375 49.815,282.375 44.055,282.333 40.582 C 282.291 37.108,282.257 40.027,282.257 47.067 M263.317 38.212 C 263.244 38.402,263.222 40.292,263.267 42.412 L 263.349 46.267 263.408 42.219 C 263.465 38.254,263.479 38.168,264.067 38.055 L 264.667 37.939 264.058 37.903 C 263.724 37.883,263.390 38.022,263.317 38.212 M132.375 42.400 C 132.375 44.820,132.416 45.810,132.465 44.600 C 132.514 43.390,132.514 41.410,132.465 40.200 C 132.416 38.990,132.375 39.980,132.375 42.400 M151.308 42.267 C 151.308 44.613,151.349 45.538,151.399 44.321 C 151.448 43.104,151.448 41.184,151.398 40.054 C 151.348 38.924,151.308 39.920,151.308 42.267 M159.543 41.200 C 159.545 41.933,159.597 42.202,159.658 41.796 C 159.719 41.391,159.718 40.791,159.654 40.463 C 159.591 40.135,159.541 40.467,159.543 41.200 M143.010 42.000 C 143.012 42.733,143.063 43.002,143.125 42.596 C 143.186 42.191,143.184 41.591,143.121 41.263 C 143.058 40.935,143.008 41.267,143.010 42.000 M187.810 42.267 C 187.812 43.000,187.863 43.268,187.925 42.863 C 187.986 42.458,187.984 41.858,187.921 41.530 C 187.858 41.202,187.808 41.533,187.810 42.267 M192.883 42.533 C 192.884 43.413,192.934 43.741,192.993 43.262 C 193.053 42.783,193.051 42.063,192.991 41.662 C 192.930 41.261,192.881 41.653,192.883 42.533 M211.050 48.800 C 211.050 52.687,211.087 54.277,211.133 52.333 C 211.178 50.390,211.178 47.210,211.133 45.267 C 211.087 43.323,211.050 44.913,211.050 48.800 M263.310 54.800 C 263.310 57.440,263.350 58.484,263.399 57.120 C 263.447 55.756,263.447 53.596,263.398 52.320 C 263.350 51.044,263.310 52.160,263.310 54.800 M132.382 56.933 C 132.382 60.600,132.420 62.137,132.466 60.349 C 132.512 58.561,132.512 55.561,132.466 53.682 C 132.420 51.804,132.382 53.267,132.382 56.933 M151.310 55.067 C 151.310 57.707,151.350 58.751,151.399 57.387 C 151.447 56.022,151.447 53.862,151.398 52.587 C 151.350 51.311,151.310 52.427,151.310 55.067 M70.734 55.867 C 70.737 56.453,70.791 56.662,70.855 56.330 C 70.919 55.999,70.917 55.519,70.850 55.264 C 70.783 55.009,70.731 55.280,70.734 55.867 M303.288 61.733 C 303.289 62.760,303.337 63.147,303.395 62.594 C 303.452 62.041,303.451 61.201,303.392 60.727 C 303.334 60.254,303.286 60.707,303.288 61.733 M167.136 63.922 C 167.468 63.986,167.948 63.983,168.203 63.917 C 168.458 63.850,168.187 63.798,167.600 63.801 C 167.013 63.804,166.805 63.858,167.136 63.922 M202.067 63.922 C 202.397 63.985,202.937 63.985,203.267 63.922 C 203.597 63.858,203.327 63.806,202.667 63.806 C 202.007 63.806,201.737 63.858,202.067 63.922 M239.133 63.922 C 239.463 63.985,240.003 63.985,240.333 63.922 C 240.663 63.858,240.393 63.806,239.733 63.806 C 239.073 63.806,238.803 63.858,239.133 63.922 M165.400 82.061 C 165.950 82.118,166.850 82.118,167.400 82.061 C 167.950 82.003,167.500 81.956,166.400 81.956 C 165.300 81.956,164.850 82.003,165.400 82.061 M177.664 82.061 L 179.729 82.155 179.801 96.611 L 179.873 111.067 179.870 96.533 L 179.867 82.000 177.733 81.984 L 175.600 81.968 177.664 82.061 M199.588 82.201 C 199.518 82.384,199.493 87.214,199.533 92.934 L 199.606 103.333 199.670 92.743 L 199.733 82.153 202.333 82.065 L 204.933 81.978 202.325 81.922 C 200.439 81.882,199.681 81.959,199.588 82.201 M212.209 82.064 C 212.984 82.118,214.184 82.117,214.876 82.062 C 215.567 82.008,214.933 81.963,213.467 81.964 C 212.000 81.965,211.434 82.010,212.209 82.064 M220.876 82.064 C 221.725 82.117,223.045 82.117,223.810 82.063 C 224.574 82.009,223.880 81.966,222.267 81.966 C 220.653 81.967,220.028 82.011,220.876 82.064 M234.867 82.063 C 235.637 82.117,236.897 82.117,237.667 82.063 C 238.437 82.009,237.807 81.965,236.267 81.965 C 234.727 81.965,234.097 82.009,234.867 82.063 M244.853 82.065 C 246.129 82.114,248.289 82.114,249.653 82.066 C 251.017 82.017,249.973 81.977,247.333 81.977 C 244.693 81.977,243.577 82.016,244.853 82.065 M262.083 82.066 C 264.182 82.111,267.542 82.111,269.549 82.066 C 271.557 82.021,269.840 81.984,265.733 81.984 C 261.627 81.984,259.984 82.021,262.083 82.066 M275.942 82.064 C 276.717 82.118,277.917 82.117,278.609 82.062 C 279.301 82.008,278.667 81.963,277.200 81.964 C 275.733 81.965,275.167 82.010,275.942 82.064 M303.394 82.059 C 303.867 82.118,304.707 82.119,305.261 82.061 C 305.814 82.004,305.427 81.955,304.400 81.954 C 303.373 81.953,302.921 82.000,303.394 82.059 M315.531 82.061 L 317.595 82.155 317.668 96.611 L 317.740 111.067 317.737 96.533 L 317.733 82.000 315.600 81.984 L 313.467 81.968 315.531 82.061 M259.541 86.063 C 260.242 86.118,261.322 86.117,261.941 86.062 C 262.560 86.006,261.987 85.961,260.667 85.961 C 259.347 85.962,258.840 86.008,259.541 86.063 M269.675 86.063 C 270.376 86.118,271.456 86.117,272.075 86.062 C 272.694 86.006,272.120 85.961,270.800 85.961 C 269.480 85.962,268.974 86.008,269.675 86.063 M239.023 88.000 C 239.023 89.100,239.070 89.550,239.128 89.000 C 239.185 88.450,239.185 87.550,239.128 87.000 C 239.070 86.450,239.023 86.900,239.023 88.000 M282.783 96.667 C 282.783 100.480,282.820 102.003,282.866 100.051 C 282.912 98.099,282.912 94.979,282.866 93.118 C 282.820 91.256,282.783 92.853,282.783 96.667 M219.290 92.267 C 219.290 93.367,219.337 93.817,219.394 93.267 C 219.452 92.717,219.452 91.817,219.394 91.267 C 219.337 90.717,219.290 91.167,219.290 92.267 M126.515 96.800 C 126.515 100.247,126.553 101.657,126.599 99.933 C 126.646 98.210,126.646 95.390,126.599 93.667 C 126.553 91.943,126.515 93.353,126.515 96.800 M235.021 94.000 C 235.022 95.027,235.070 95.414,235.128 94.861 C 235.186 94.307,235.185 93.467,235.126 92.994 C 235.067 92.521,235.020 92.973,235.021 94.000 M139.000 92.729 C 139.697 92.784,140.837 92.784,141.533 92.729 C 142.230 92.674,141.660 92.629,140.267 92.629 C 138.873 92.629,138.303 92.674,139.000 92.729 M306.933 102.800 C 306.933 107.469,306.990 111.232,307.059 111.163 C 307.239 110.983,307.261 94.638,307.082 94.459 C 307.000 94.378,306.933 98.131,306.933 102.800 M248.738 98.327 C 249.217 98.386,249.937 98.385,250.338 98.324 C 250.739 98.263,250.347 98.214,249.467 98.216 C 248.587 98.217,248.259 98.267,248.738 98.327 M223.291 100.667 C 223.292 101.840,223.339 102.287,223.396 101.660 C 223.452 101.032,223.451 100.072,223.394 99.526 C 223.337 98.980,223.290 99.493,223.291 100.667 M239.291 103.867 C 239.292 105.040,239.339 105.487,239.396 104.860 C 239.452 104.232,239.451 103.272,239.394 102.726 C 239.337 102.180,239.290 102.693,239.291 103.867 M219.025 108.667 C 219.026 109.840,219.073 110.287,219.129 109.660 C 219.185 109.032,219.184 108.072,219.127 107.526 C 219.070 106.980,219.024 107.493,219.025 108.667 M235.288 109.200 C 235.289 110.227,235.337 110.614,235.395 110.061 C 235.452 109.507,235.451 108.667,235.392 108.194 C 235.334 107.721,235.286 108.173,235.288 109.200 M37.400 110.866 C 39.417 110.911,42.717 110.911,44.733 110.866 C 46.750 110.821,45.100 110.784,41.067 110.784 C 37.033 110.784,35.383 110.821,37.400 110.866 M66.200 110.867 C 71.590 110.907,80.410 110.907,85.800 110.867 C 91.190 110.826,86.780 110.793,76.000 110.793 C 65.220 110.793,60.810 110.826,66.200 110.867 M233.667 129.524 C 234.070 129.585,234.730 129.585,235.133 129.524 C 235.537 129.463,235.207 129.413,234.400 129.413 C 233.593 129.413,233.263 129.463,233.667 129.524 M291.000 129.524 C 291.403 129.585,292.063 129.585,292.467 129.524 C 292.870 129.463,292.540 129.413,291.733 129.413 C 290.927 129.413,290.597 129.463,291.000 129.524 M332.333 129.524 C 332.737 129.585,333.397 129.585,333.800 129.524 C 334.203 129.463,333.873 129.413,333.067 129.413 C 332.260 129.413,331.930 129.463,332.333 129.524 M275.588 140.400 C 275.588 146.267,275.623 148.629,275.666 145.649 C 275.709 142.669,275.709 137.869,275.666 134.982 C 275.623 132.095,275.588 134.533,275.588 140.400 M300.090 131.733 C 300.090 132.833,300.137 133.283,300.194 132.733 C 300.252 132.183,300.252 131.283,300.194 130.733 C 300.137 130.183,300.090 130.633,300.090 131.733 M212.923 137.867 L 212.933 142.267 213.733 142.292 C 214.475 142.315,214.480 142.308,213.807 142.208 L 213.080 142.101 212.996 137.784 L 212.912 133.467 212.923 137.867 M168.655 144.533 C 168.655 150.473,168.690 152.903,168.733 149.933 C 168.776 146.963,168.776 142.103,168.733 139.133 C 168.690 136.163,168.655 138.593,168.655 144.533 M251.055 144.533 C 251.055 150.473,251.090 152.903,251.133 149.933 C 251.176 146.963,251.176 142.103,251.133 139.133 C 251.090 136.163,251.055 138.593,251.055 144.533 M299.556 138.400 C 299.556 139.500,299.603 139.950,299.661 139.400 C 299.718 138.850,299.718 137.950,299.661 137.400 C 299.603 136.850,299.556 137.300,299.556 138.400 M336.117 144.400 C 336.117 148.507,336.154 150.149,336.199 148.051 C 336.245 145.952,336.244 142.592,336.199 140.584 C 336.154 138.576,336.117 140.293,336.117 144.400 M225.983 144.267 C 225.983 148.153,226.020 149.743,226.066 147.800 C 226.112 145.857,226.112 142.677,226.066 140.733 C 226.020 138.790,225.983 140.380,225.983 144.267 M324.649 144.267 C 324.649 147.860,324.686 149.330,324.733 147.533 C 324.779 145.737,324.779 142.797,324.733 141.000 C 324.686 139.203,324.649 140.673,324.649 144.267 M283.315 144.533 C 283.315 148.127,283.353 149.597,283.399 147.800 C 283.445 146.003,283.445 143.063,283.399 141.267 C 283.353 139.470,283.315 140.940,283.315 144.533 M348.800 150.507 L 348.800 158.912 346.733 159.005 L 344.667 159.099 346.800 159.083 L 348.933 159.067 349.067 150.708 C 349.140 146.110,349.110 142.293,349.000 142.225 C 348.890 142.157,348.800 145.884,348.800 150.507 M212.978 145.778 C 212.880 145.876,212.800 148.871,212.800 152.435 L 212.800 158.914 210.266 159.006 L 207.732 159.097 210.333 159.082 L 212.933 159.067 213.005 152.482 L 213.076 145.897 214.205 145.795 L 215.333 145.693 214.244 145.647 C 213.646 145.621,213.076 145.680,212.978 145.778 M196.333 146.061 C 196.883 146.118,197.783 146.118,198.333 146.061 C 198.883 146.003,198.433 145.956,197.333 145.956 C 196.233 145.956,195.783 146.003,196.333 146.061 M299.556 150.133 C 299.556 151.233,299.603 151.683,299.661 151.133 C 299.718 150.583,299.718 149.683,299.661 149.133 C 299.603 148.583,299.556 149.033,299.556 150.133 M126.733 159.129 C 127.430 159.184,128.570 159.184,129.267 159.129 C 129.963 159.074,129.393 159.029,128.000 159.029 C 126.607 159.029,126.037 159.074,126.733 159.129 M139.267 159.129 C 139.963 159.184,141.103 159.184,141.800 159.129 C 142.497 159.074,141.927 159.029,140.533 159.029 C 139.140 159.029,138.570 159.074,139.267 159.129 M145.800 159.129 C 146.423 159.185,147.443 159.185,148.067 159.129 C 148.690 159.072,148.180 159.027,146.933 159.027 C 145.687 159.027,145.177 159.072,145.800 159.129 M157.261 159.126 C 157.734 159.185,158.574 159.186,159.127 159.128 C 159.681 159.070,159.293 159.022,158.267 159.021 C 157.240 159.020,156.787 159.067,157.261 159.126 M165.546 159.132 C 166.763 159.181,168.683 159.181,169.813 159.131 C 170.942 159.081,169.947 159.041,167.600 159.041 C 165.253 159.042,164.329 159.082,165.546 159.132 M191.133 159.130 C 191.903 159.184,193.163 159.184,193.933 159.130 C 194.703 159.076,194.073 159.032,192.533 159.032 C 190.993 159.032,190.363 159.076,191.133 159.130 M219.933 159.130 C 220.703 159.184,221.963 159.184,222.733 159.130 C 223.503 159.076,222.873 159.032,221.333 159.032 C 219.793 159.032,219.163 159.076,219.933 159.130 M247.946 159.132 C 249.163 159.181,251.083 159.181,252.213 159.131 C 253.342 159.081,252.347 159.041,250.000 159.041 C 247.653 159.042,246.729 159.082,247.946 159.132 M306.333 159.130 C 307.103 159.184,308.363 159.184,309.133 159.130 C 309.903 159.076,309.273 159.032,307.733 159.032 C 306.193 159.032,305.563 159.076,306.333 159.130 M317.809 159.130 C 318.584 159.184,319.784 159.184,320.476 159.129 C 321.167 159.074,320.533 159.030,319.067 159.031 C 317.600 159.031,317.034 159.076,317.809 159.130 M357.000 159.126 C 357.477 159.185,358.257 159.185,358.733 159.126 C 359.210 159.067,358.820 159.019,357.867 159.019 C 356.913 159.019,356.523 159.067,357.000 159.126 M90.734 255.600 C 90.737 256.187,90.791 256.395,90.855 256.064 C 90.919 255.732,90.917 255.252,90.850 254.997 C 90.783 254.742,90.731 255.013,90.734 255.600 M305.432 258.400 C 305.432 259.940,305.476 260.570,305.530 259.800 C 305.584 259.030,305.584 257.770,305.530 257.000 C 305.476 256.230,305.432 256.860,305.432 258.400 M90.734 261.467 C 90.737 262.053,90.791 262.262,90.855 261.930 C 90.919 261.599,90.917 261.119,90.850 260.864 C 90.783 260.609,90.731 260.880,90.734 261.467 M266.061 303.392 C 266.534 303.451,267.374 303.452,267.927 303.395 C 268.481 303.337,268.093 303.289,267.067 303.288 C 266.040 303.286,265.587 303.334,266.061 303.392 " stroke="none" fill="#dcc494" fill-rule="evenodd"></path><path id="path3" d="M176.930 48.867 L 176.933 63.600 179.600 63.614 L 182.267 63.628 179.669 63.538 L 177.071 63.448 176.999 48.791 L 176.926 34.133 176.930 48.867 M229.131 48.755 L 229.067 63.510 227.225 63.422 C 226.211 63.373,225.439 63.423,225.507 63.533 C 225.726 63.886,229.071 63.766,229.211 63.400 C 229.281 63.217,229.306 56.527,229.267 48.533 L 229.195 34.000 229.131 48.755 M249.197 48.867 L 249.200 63.600 251.867 63.614 L 254.533 63.628 251.936 63.538 L 249.338 63.448 249.266 48.791 L 249.193 34.133 249.197 48.867 M303.291 36.133 C 303.292 37.307,303.339 37.753,303.396 37.126 C 303.452 36.499,303.451 35.539,303.394 34.993 C 303.337 34.447,303.290 34.960,303.291 36.133 M133.003 38.055 C 133.335 38.119,133.815 38.117,134.070 38.050 C 134.325 37.983,134.053 37.931,133.467 37.934 C 132.880 37.937,132.671 37.991,133.003 38.055 M296.375 42.267 C 296.375 44.613,296.416 45.538,296.465 44.321 C 296.515 43.104,296.515 41.184,296.465 40.054 C 296.415 38.924,296.374 39.920,296.375 42.267 M231.534 41.200 C 231.537 41.787,231.591 41.995,231.655 41.664 C 231.719 41.332,231.717 40.852,231.650 40.597 C 231.583 40.342,231.531 40.613,231.534 41.200 M268.867 41.733 C 268.870 42.320,268.925 42.529,268.989 42.197 C 269.052 41.865,269.050 41.385,268.983 41.130 C 268.916 40.875,268.864 41.147,268.867 41.733 M166.400 44.400 C 166.898 44.913,167.365 45.333,167.438 45.333 C 167.511 45.333,167.164 44.913,166.667 44.400 C 166.169 43.887,165.702 43.467,165.629 43.467 C 165.555 43.467,165.902 43.887,166.400 44.400 M77.133 45.784 C 77.390 45.851,77.810 45.851,78.067 45.784 C 78.323 45.717,78.113 45.662,77.600 45.662 C 77.087 45.662,76.877 45.717,77.133 45.784 M233.600 47.017 C 233.600 47.063,233.990 47.453,234.467 47.883 L 235.333 48.667 234.550 47.800 C 233.820 46.992,233.600 46.811,233.600 47.017 M170.667 48.083 C 170.667 48.129,171.057 48.519,171.533 48.950 L 172.400 49.733 171.617 48.867 C 170.887 48.059,170.667 47.877,170.667 48.083 M33.729 80.133 C 33.729 97.000,33.761 103.861,33.800 95.379 C 33.839 86.898,33.839 73.098,33.800 64.713 C 33.761 56.327,33.729 63.267,33.729 80.133 M263.936 50.055 C 264.268 50.119,264.748 50.117,265.003 50.050 C 265.258 49.983,264.987 49.931,264.400 49.934 C 263.813 49.937,263.605 49.991,263.936 50.055 M133.000 50.322 C 133.330 50.385,133.870 50.385,134.200 50.322 C 134.530 50.258,134.260 50.206,133.600 50.206 C 132.940 50.206,132.670 50.258,133.000 50.322 M152.733 50.330 C 153.503 50.384,154.763 50.384,155.533 50.330 C 156.303 50.276,155.673 50.232,154.133 50.232 C 152.593 50.232,151.963 50.276,152.733 50.330 M296.385 50.476 C 296.313 50.665,296.289 52.855,296.334 55.343 L 296.414 59.867 296.474 55.143 L 296.533 50.419 299.267 50.332 L 302.000 50.246 299.258 50.190 C 297.227 50.148,296.482 50.222,296.385 50.476 M183.127 50.592 C 183.601 50.651,184.441 50.652,184.994 50.595 C 185.547 50.537,185.160 50.489,184.133 50.488 C 183.107 50.486,182.654 50.534,183.127 50.592 M83.019 53.333 C 83.019 54.287,83.067 54.677,83.126 54.200 C 83.185 53.723,83.185 52.943,83.126 52.467 C 83.067 51.990,83.019 52.380,83.019 53.333 M97.688 53.467 C 97.689 54.493,97.737 54.881,97.795 54.327 C 97.852 53.774,97.851 52.934,97.792 52.461 C 97.734 51.987,97.686 52.440,97.688 53.467 M166.933 51.817 C 166.933 51.863,167.323 52.253,167.800 52.683 L 168.667 53.467 167.883 52.600 C 167.153 51.792,166.933 51.611,166.933 51.817 M70.756 58.667 C 70.756 59.767,70.803 60.217,70.861 59.667 C 70.918 59.117,70.918 58.217,70.861 57.667 C 70.803 57.117,70.756 57.567,70.756 58.667 M264.205 59.660 C 264.684 59.719,265.404 59.718,265.805 59.657 C 266.205 59.596,265.813 59.548,264.933 59.549 C 264.053 59.551,263.725 59.601,264.205 59.660 M128.200 63.663 C 128.970 63.717,130.230 63.717,131.000 63.663 C 131.770 63.609,131.140 63.565,129.600 63.565 C 128.060 63.565,127.430 63.609,128.200 63.663 M139.400 63.663 C 140.170 63.717,141.430 63.717,142.200 63.663 C 142.970 63.609,142.340 63.565,140.800 63.565 C 139.260 63.565,138.630 63.609,139.400 63.663 M149.133 63.666 C 150.857 63.712,153.677 63.712,155.400 63.666 C 157.123 63.619,155.713 63.581,152.267 63.581 C 148.820 63.581,147.410 63.619,149.133 63.666 M215.008 63.663 C 215.709 63.718,216.789 63.717,217.408 63.662 C 218.027 63.606,217.453 63.561,216.133 63.561 C 214.813 63.562,214.307 63.608,215.008 63.663 M260.053 63.665 C 261.329 63.714,263.489 63.714,264.853 63.666 C 266.217 63.617,265.173 63.577,262.533 63.577 C 259.893 63.577,258.777 63.616,260.053 63.665 M279.949 63.666 C 281.754 63.712,284.634 63.712,286.349 63.666 C 288.064 63.619,286.587 63.581,283.067 63.582 C 279.547 63.582,278.144 63.620,279.949 63.666 M293.933 63.666 C 295.657 63.712,298.477 63.712,300.200 63.666 C 301.923 63.619,300.513 63.581,297.067 63.581 C 293.620 63.581,292.210 63.619,293.933 63.666 M175.141 89.893 C 175.100 94.160,175.155 97.790,175.263 97.959 C 175.370 98.128,175.460 94.637,175.463 90.200 C 175.465 85.763,175.410 82.133,175.341 82.133 C 175.272 82.133,175.182 85.625,175.141 89.893 M210.788 92.667 C 210.788 98.533,210.823 100.895,210.866 97.916 C 210.909 94.936,210.909 90.136,210.866 87.249 C 210.823 84.362,210.788 86.800,210.788 92.667 M216.122 92.667 C 216.122 98.533,216.157 100.895,216.200 97.916 C 216.243 94.936,216.243 90.136,216.200 87.249 C 216.157 84.362,216.121 86.800,216.122 92.667 M239.025 84.133 C 239.026 85.307,239.073 85.753,239.129 85.126 C 239.185 84.499,239.184 83.539,239.127 82.993 C 239.070 82.447,239.024 82.960,239.025 84.133 M242.530 96.667 L 242.533 111.333 245.200 111.347 L 247.867 111.361 245.269 111.271 L 242.671 111.181 242.599 96.591 L 242.526 82.000 242.530 96.667 M274.530 96.667 L 274.533 111.333 277.200 111.347 L 279.867 111.361 277.269 111.271 L 274.671 111.181 274.599 96.591 L 274.526 82.000 274.530 96.667 M313.008 89.893 C 312.967 94.160,313.021 97.790,313.129 97.959 C 313.237 98.128,313.327 94.637,313.329 90.200 C 313.331 85.763,313.277 82.133,313.208 82.133 C 313.139 82.133,313.049 85.625,313.008 89.893 M219.293 88.267 C 219.293 89.513,219.339 90.023,219.395 89.400 C 219.451 88.777,219.451 87.757,219.395 87.133 C 219.339 86.510,219.293 87.020,219.293 88.267 M263.063 98.667 L 263.067 111.333 265.733 111.347 L 268.400 111.361 265.803 111.271 L 263.205 111.181 263.132 98.591 L 263.059 86.000 263.063 98.667 M169.129 102.723 L 169.067 111.179 166.733 111.268 L 164.400 111.357 166.742 111.412 C 169.633 111.480,169.356 112.453,169.267 102.531 L 169.192 94.267 169.129 102.723 M235.025 97.733 C 235.026 98.907,235.073 99.353,235.129 98.726 C 235.185 98.099,235.184 97.139,235.127 96.593 C 235.070 96.047,235.024 96.560,235.025 97.733 M239.291 99.867 C 239.292 101.040,239.339 101.487,239.396 100.860 C 239.452 100.232,239.451 99.272,239.394 98.726 C 239.337 98.180,239.290 98.693,239.291 99.867 M219.025 104.667 C 219.026 105.840,219.073 106.287,219.129 105.660 C 219.185 105.032,219.184 104.072,219.127 103.526 C 219.070 102.980,219.024 103.493,219.025 104.667 M223.293 104.800 C 223.293 106.047,223.339 106.557,223.395 105.933 C 223.451 105.310,223.451 104.290,223.395 103.667 C 223.339 103.043,223.293 103.553,223.293 104.800 M176.239 111.280 C 176.357 111.398,177.222 111.457,178.160 111.411 L 179.867 111.327 177.945 111.197 C 176.889 111.125,176.121 111.163,176.239 111.280 M227.707 111.281 C 227.825 111.399,228.630 111.458,229.494 111.411 L 231.067 111.327 229.279 111.197 C 228.296 111.125,227.588 111.163,227.707 111.281 M235.438 111.279 C 235.555 111.396,236.540 111.455,237.626 111.410 L 239.600 111.328 237.412 111.198 C 236.209 111.126,235.320 111.162,235.438 111.279 M219.933 111.395 C 220.557 111.451,221.577 111.451,222.200 111.395 C 222.823 111.339,222.313 111.293,221.067 111.293 C 219.820 111.293,219.310 111.339,219.933 111.395 M303.541 111.396 C 304.242 111.451,305.322 111.451,305.941 111.395 C 306.560 111.339,305.987 111.294,304.667 111.295 C 303.347 111.295,302.840 111.341,303.541 111.396 M314.861 111.392 C 315.334 111.451,316.174 111.452,316.727 111.395 C 317.281 111.337,316.893 111.289,315.867 111.288 C 314.840 111.286,314.387 111.334,314.861 111.392 M131.379 129.791 C 131.308 129.906,132.516 129.962,134.065 129.915 C 136.168 129.852,136.942 129.920,137.127 130.182 C 137.321 130.458,137.351 130.447,137.265 130.133 C 137.146 129.696,131.638 129.376,131.379 129.791 M144.656 129.933 C 144.585 130.117,144.560 136.747,144.600 144.667 L 144.671 159.067 144.736 144.478 L 144.800 129.890 146.733 129.798 L 148.667 129.706 146.725 129.653 C 145.376 129.616,144.744 129.702,144.656 129.933 M156.608 129.796 C 157.309 129.851,158.389 129.851,159.008 129.795 C 159.627 129.739,159.053 129.694,157.733 129.695 C 156.413 129.695,155.907 129.741,156.608 129.796 M165.267 129.798 C 166.477 129.848,168.457 129.848,169.667 129.798 C 170.877 129.749,169.887 129.709,167.467 129.709 C 165.047 129.709,164.057 129.749,165.267 129.798 M192.200 129.799 C 193.557 129.847,195.777 129.847,197.133 129.799 C 198.490 129.750,197.380 129.711,194.667 129.711 C 191.953 129.711,190.843 129.750,192.200 129.799 M209.533 129.798 C 210.743 129.848,212.723 129.848,213.933 129.798 C 215.143 129.749,214.153 129.709,211.733 129.709 C 209.313 129.709,208.323 129.749,209.533 129.798 M247.667 129.798 C 248.877 129.848,250.857 129.848,252.067 129.798 C 253.277 129.749,252.287 129.709,249.867 129.709 C 247.447 129.709,246.457 129.749,247.667 129.798 M265.533 129.797 C 266.303 129.850,267.563 129.850,268.333 129.797 C 269.103 129.743,268.473 129.699,266.933 129.699 C 265.393 129.699,264.763 129.743,265.533 129.797 M277.009 129.797 C 277.784 129.851,278.984 129.850,279.676 129.796 C 280.367 129.741,279.733 129.697,278.267 129.697 C 276.800 129.698,276.234 129.743,277.009 129.797 M303.933 129.799 C 306.023 129.844,309.443 129.844,311.533 129.799 C 313.623 129.754,311.913 129.717,307.733 129.717 C 303.553 129.717,301.843 129.754,303.933 129.799 M316.389 129.933 C 316.319 130.117,316.294 136.747,316.333 144.667 L 316.405 159.067 316.469 144.476 L 316.533 129.885 319.267 129.799 L 322.000 129.712 319.258 129.656 C 317.268 129.615,316.482 129.691,316.389 129.933 M345.133 129.794 C 345.683 129.852,346.583 129.852,347.133 129.794 C 347.683 129.737,347.233 129.690,346.133 129.690 C 345.033 129.690,344.583 129.737,345.133 129.794 M356.341 129.796 C 357.042 129.851,358.122 129.851,358.741 129.795 C 359.360 129.739,358.787 129.694,357.467 129.695 C 356.147 129.695,355.640 129.741,356.341 129.796 M169.404 133.791 C 169.809 133.853,170.409 133.851,170.737 133.788 C 171.065 133.724,170.733 133.674,170.000 133.676 C 169.267 133.678,168.998 133.730,169.404 133.791 M195.309 137.867 C 195.309 140.287,195.349 141.277,195.398 140.067 C 195.448 138.857,195.448 136.877,195.398 135.667 C 195.349 134.457,195.309 135.447,195.309 137.867 M251.804 133.791 C 252.209 133.853,252.809 133.851,253.137 133.788 C 253.465 133.724,253.133 133.674,252.400 133.676 C 251.667 133.678,251.398 133.730,251.804 133.791 M304.923 146.400 C 304.923 153.367,304.958 156.217,305.000 152.733 C 305.042 149.250,305.042 143.550,305.000 140.067 C 304.958 136.583,304.923 139.433,304.923 146.400 M200.613 137.867 C 200.613 138.673,200.663 139.003,200.724 138.600 C 200.785 138.197,200.785 137.537,200.724 137.133 C 200.663 136.730,200.613 137.060,200.613 137.867 M195.315 152.533 C 195.315 156.127,195.353 157.597,195.399 155.800 C 195.445 154.003,195.445 151.063,195.399 149.267 C 195.353 147.470,195.315 148.940,195.315 152.533 M133.261 148.726 C 133.734 148.785,134.574 148.786,135.127 148.728 C 135.681 148.670,135.293 148.622,134.267 148.621 C 133.240 148.620,132.787 148.667,133.261 148.726 M260.994 194.326 C 261.467 194.385,262.307 194.386,262.861 194.328 C 263.414 194.270,263.027 194.222,262.000 194.221 C 260.973 194.220,260.521 194.267,260.994 194.326 M89.052 211.400 L 88.133 212.400 89.133 211.481 C 90.064 210.626,90.256 210.400,90.052 210.400 C 90.008 210.400,89.558 210.850,89.052 211.400 M216.800 213.733 C 216.152 214.393,215.682 214.933,215.756 214.933 C 215.829 214.933,216.419 214.393,217.067 213.733 C 217.714 213.073,218.184 212.533,218.111 212.533 C 218.038 212.533,217.448 213.073,216.800 213.733 M132.200 212.995 C 132.823 213.051,133.843 213.051,134.467 212.995 C 135.090 212.939,134.580 212.893,133.333 212.893 C 132.087 212.893,131.577 212.939,132.200 212.995 M259.800 212.984 C 260.057 213.051,260.477 213.051,260.733 212.984 C 260.990 212.917,260.780 212.862,260.267 212.862 C 259.753 212.862,259.543 212.917,259.800 212.984 M263.136 212.989 C 263.468 213.052,263.948 213.050,264.203 212.983 C 264.458 212.916,264.187 212.864,263.600 212.867 C 263.013 212.870,262.805 212.925,263.136 212.989 M213.067 217.467 C 212.419 218.127,211.949 218.667,212.022 218.667 C 212.096 218.667,212.686 218.127,213.333 217.467 C 213.981 216.807,214.451 216.267,214.378 216.267 C 214.304 216.267,213.714 216.807,213.067 217.467 M102.133 224.667 C 101.486 225.327,101.016 225.867,101.089 225.867 C 101.162 225.867,101.752 225.327,102.400 224.667 C 103.048 224.007,103.518 223.467,103.444 223.467 C 103.371 223.467,102.781 224.007,102.133 224.667 M90.758 258.533 C 90.759 259.707,90.806 260.153,90.862 259.526 C 90.919 258.899,90.918 257.939,90.861 257.393 C 90.803 256.847,90.757 257.360,90.758 258.533 M72.085 258.400 C 72.085 259.353,72.134 259.743,72.193 259.267 C 72.252 258.790,72.252 258.010,72.193 257.533 C 72.134 257.057,72.085 257.447,72.085 258.400 M102.000 290.133 C 102.573 290.720,103.102 291.200,103.175 291.200 C 103.248 291.200,102.840 290.720,102.267 290.133 C 101.694 289.547,101.165 289.067,101.092 289.067 C 101.018 289.067,101.427 289.547,102.000 290.133 M293.600 292.667 C 292.952 293.327,292.482 293.867,292.556 293.867 C 292.629 293.867,293.219 293.327,293.867 292.667 C 294.514 292.007,294.984 291.467,294.911 291.467 C 294.838 291.467,294.248 292.007,293.600 292.667 M213.867 298.533 C 215.107 299.780,216.182 300.800,216.255 300.800 C 216.328 300.800,215.374 299.780,214.133 298.533 C 212.893 297.287,211.818 296.267,211.745 296.267 C 211.672 296.267,212.626 297.287,213.867 298.533 M308.117 304.333 L 307.333 305.200 308.200 304.417 C 309.008 303.687,309.189 303.467,308.983 303.467 C 308.937 303.467,308.547 303.857,308.117 304.333 M305.183 307.267 L 304.400 308.133 305.267 307.350 C 306.075 306.620,306.256 306.400,306.050 306.400 C 306.004 306.400,305.614 306.790,305.183 307.267 " stroke="none" fill="#cfae6d" fill-rule="evenodd"></path><path id="path4" d="M126.998 48.867 L 127.062 63.600 127.133 49.007 L 127.205 34.415 131.002 34.333 L 134.800 34.251 130.867 34.192 L 126.933 34.133 126.998 48.867 M149.148 34.333 C 150.880 34.379,153.640 34.379,155.282 34.332 C 156.923 34.286,155.507 34.247,152.133 34.248 C 148.760 34.248,147.417 34.286,149.148 34.333 M179.267 34.332 C 180.550 34.381,182.650 34.381,183.933 34.332 C 185.217 34.283,184.167 34.243,181.600 34.243 C 179.033 34.243,177.983 34.283,179.267 34.332 M214.733 34.328 C 215.283 34.385,216.183 34.385,216.733 34.328 C 217.283 34.270,216.833 34.223,215.733 34.223 C 214.633 34.223,214.183 34.270,214.733 34.328 M225.800 34.329 C 226.423 34.385,227.443 34.385,228.067 34.329 C 228.690 34.272,228.180 34.227,226.933 34.227 C 225.687 34.227,225.177 34.272,225.800 34.329 M251.798 34.332 L 254.395 34.419 254.467 49.010 L 254.538 63.600 254.602 48.867 L 254.667 34.133 251.933 34.189 L 249.200 34.245 251.798 34.332 M257.931 48.867 L 257.995 63.600 258.067 49.007 L 258.138 34.414 262.202 34.333 L 266.267 34.252 262.067 34.193 L 257.867 34.133 257.931 48.867 M276.864 48.867 L 276.929 63.600 277.000 49.010 L 277.071 34.419 279.669 34.332 L 282.267 34.245 279.533 34.189 L 276.800 34.133 276.864 48.867 M293.933 34.332 C 295.657 34.379,298.477 34.379,300.200 34.332 C 301.923 34.286,300.513 34.248,297.067 34.248 C 293.620 34.248,292.210 34.286,293.933 34.332 M48.396 72.533 C 48.396 93.580,48.428 102.190,48.467 91.667 C 48.505 81.143,48.505 63.923,48.467 53.400 C 48.428 42.877,48.396 51.487,48.396 72.533 M153.144 38.065 C 154.141 38.116,155.701 38.116,156.611 38.064 C 157.522 38.012,156.707 37.970,154.800 37.970 C 152.893 37.971,152.148 38.013,153.144 38.065 M183.000 38.058 C 183.403 38.119,184.063 38.119,184.467 38.058 C 184.870 37.997,184.540 37.947,183.733 37.947 C 182.927 37.947,182.597 37.997,183.000 38.058 M298.211 38.065 C 299.207 38.116,300.767 38.116,301.678 38.064 C 302.588 38.012,301.773 37.970,299.867 37.970 C 297.960 37.971,297.215 38.013,298.211 38.065 M199.585 48.800 C 199.585 53.127,199.621 54.897,199.666 52.733 C 199.711 50.570,199.711 47.030,199.666 44.867 C 199.621 42.703,199.585 44.473,199.585 48.800 M194.250 48.800 C 194.250 52.833,194.287 54.483,194.333 52.467 C 194.378 50.450,194.378 47.150,194.333 45.133 C 194.287 43.117,194.250 44.767,194.250 48.800 M22.720 48.067 C 22.691 51.110,22.757 53.600,22.867 53.600 C 22.977 53.601,23.036 51.951,22.998 49.934 C 22.870 43.148,22.773 42.498,22.720 48.067 M301.690 48.267 C 301.690 49.367,301.737 49.817,301.794 49.267 C 301.852 48.717,301.852 47.817,301.794 47.267 C 301.737 46.717,301.690 47.167,301.690 48.267 M269.401 55.067 C 269.404 55.653,269.458 55.862,269.522 55.530 C 269.586 55.199,269.583 54.719,269.517 54.464 C 269.450 54.209,269.398 54.480,269.401 55.067 M246.995 56.533 C 246.995 57.047,247.050 57.257,247.117 57.000 C 247.184 56.743,247.184 56.323,247.117 56.067 C 247.050 55.810,246.995 56.020,246.995 56.533 M154.721 59.932 L 158.109 60.016 158.202 61.808 L 158.296 63.600 158.348 61.667 L 158.400 59.733 154.867 59.791 L 151.333 59.849 154.721 59.932 M285.655 59.932 L 289.043 60.016 289.136 61.808 L 289.229 63.600 289.281 61.667 L 289.333 59.733 285.800 59.791 L 282.267 59.849 285.655 59.932 M298.211 59.931 C 299.207 59.983,300.767 59.982,301.678 59.930 C 302.588 59.879,301.773 59.836,299.867 59.837 C 297.960 59.837,297.215 59.880,298.211 59.931 M60.083 60.466 C 62.108 60.511,65.348 60.511,67.283 60.466 C 69.217 60.420,67.560 60.383,63.600 60.383 C 59.640 60.384,58.057 60.421,60.083 60.466 M134.204 81.791 C 134.609 81.853,135.209 81.851,135.537 81.788 C 135.865 81.724,135.533 81.674,134.800 81.676 C 134.067 81.678,133.798 81.730,134.204 81.791 M152.870 81.791 C 153.276 81.853,153.876 81.851,154.204 81.788 C 154.532 81.724,154.200 81.674,153.467 81.676 C 152.733 81.678,152.465 81.730,152.870 81.791 M189.533 81.788 C 189.863 81.852,190.403 81.852,190.733 81.788 C 191.063 81.725,190.793 81.673,190.133 81.673 C 189.473 81.673,189.203 81.725,189.533 81.788 M290.737 81.791 C 291.142 81.853,291.742 81.851,292.070 81.788 C 292.398 81.724,292.067 81.674,291.333 81.676 C 290.600 81.678,290.332 81.730,290.737 81.791 M258.223 84.000 C 258.223 85.100,258.270 85.550,258.328 85.000 C 258.385 84.450,258.385 83.550,258.328 83.000 C 258.270 82.450,258.223 82.900,258.223 84.000 M273.156 84.000 C 273.156 85.100,273.203 85.550,273.261 85.000 C 273.318 84.450,273.318 83.550,273.261 83.000 C 273.203 82.450,273.156 82.900,273.156 84.000 M279.858 96.667 C 279.858 104.733,279.892 108.072,279.933 104.086 C 279.975 100.099,279.975 93.499,279.933 89.419 C 279.892 85.338,279.858 88.600,279.858 96.667 M302.524 96.667 C 302.524 104.733,302.558 108.072,302.600 104.086 C 302.641 100.099,302.641 93.499,302.600 89.419 C 302.558 85.338,302.525 88.600,302.524 96.667 M248.467 85.788 C 248.797 85.852,249.337 85.852,249.667 85.788 C 249.997 85.725,249.727 85.673,249.067 85.673 C 248.407 85.673,248.137 85.725,248.467 85.788 M294.252 96.533 C 294.252 101.007,294.288 102.837,294.333 100.600 C 294.377 98.363,294.377 94.703,294.333 92.467 C 294.288 90.230,294.252 92.060,294.252 96.533 M156.384 96.667 C 156.384 100.920,156.421 102.623,156.466 100.450 C 156.511 98.278,156.511 94.798,156.466 92.717 C 156.421 90.636,156.384 92.413,156.384 96.667 M137.683 91.067 C 137.684 91.947,137.734 92.275,137.793 91.795 C 137.853 91.316,137.851 90.596,137.791 90.195 C 137.730 89.795,137.681 90.187,137.683 91.067 M161.717 96.667 C 161.717 100.627,161.754 102.284,161.799 100.349 C 161.845 98.415,161.845 95.175,161.799 93.149 C 161.754 91.124,161.717 92.707,161.717 96.667 M258.462 90.400 C 258.462 90.913,258.517 91.123,258.584 90.867 C 258.651 90.610,258.651 90.190,258.584 89.933 C 258.517 89.677,258.462 89.887,258.462 90.400 M142.747 91.200 C 142.747 92.007,142.797 92.337,142.858 91.933 C 142.919 91.530,142.919 90.870,142.858 90.467 C 142.797 90.063,142.747 90.393,142.747 91.200 M239.025 91.867 C 239.026 93.040,239.073 93.487,239.129 92.860 C 239.185 92.232,239.184 91.272,239.127 90.726 C 239.070 90.180,239.024 90.693,239.025 91.867 M144.914 96.667 C 144.915 100.040,144.953 101.383,144.999 99.652 C 145.046 97.920,145.046 95.160,144.999 93.518 C 144.952 91.877,144.914 93.293,144.914 96.667 M219.293 96.267 C 219.293 97.513,219.339 98.023,219.395 97.400 C 219.451 96.777,219.451 95.757,219.395 95.133 C 219.339 94.510,219.293 95.020,219.293 96.267 M223.293 96.533 C 223.293 97.780,223.339 98.290,223.395 97.667 C 223.451 97.043,223.451 96.023,223.395 95.400 C 223.339 94.777,223.293 95.287,223.293 96.533 M84.195 99.400 L 95.456 99.472 95.534 105.136 L 95.611 110.800 95.672 105.000 L 95.733 99.200 84.333 99.264 L 72.933 99.327 84.195 99.400 M137.688 102.000 C 137.689 103.027,137.737 103.414,137.795 102.861 C 137.852 102.307,137.851 101.467,137.792 100.994 C 137.734 100.521,137.686 100.973,137.688 102.000 M142.749 101.733 C 142.751 102.613,142.801 102.941,142.860 102.462 C 142.919 101.983,142.918 101.263,142.857 100.862 C 142.796 100.461,142.748 100.853,142.749 101.733 M235.291 105.467 C 235.292 106.640,235.339 107.087,235.396 106.460 C 235.452 105.832,235.451 104.872,235.394 104.326 C 235.337 103.780,235.290 104.293,235.291 105.467 M239.290 107.733 C 239.290 108.833,239.337 109.283,239.394 108.733 C 239.452 108.183,239.452 107.283,239.394 106.733 C 239.337 106.183,239.290 106.633,239.290 107.733 M134.467 111.650 C 134.723 111.718,135.143 111.718,135.400 111.650 C 135.657 111.583,135.447 111.529,134.933 111.529 C 134.420 111.529,134.210 111.583,134.467 111.650 M152.867 111.650 C 153.123 111.718,153.543 111.718,153.800 111.650 C 154.057 111.583,153.847 111.529,153.333 111.529 C 152.820 111.529,152.610 111.583,152.867 111.650 M189.933 111.650 C 190.190 111.718,190.610 111.718,190.867 111.650 C 191.123 111.583,190.913 111.529,190.400 111.529 C 189.887 111.529,189.677 111.583,189.933 111.650 M207.403 111.655 C 207.735 111.719,208.215 111.717,208.470 111.650 C 208.725 111.583,208.453 111.531,207.867 111.534 C 207.280 111.537,207.071 111.591,207.403 111.655 M290.733 111.650 C 290.990 111.718,291.410 111.718,291.667 111.650 C 291.923 111.583,291.713 111.529,291.200 111.529 C 290.687 111.529,290.477 111.583,290.733 111.650 M155.408 137.867 C 155.367 142.267,155.423 145.867,155.533 145.867 C 155.643 145.867,155.733 142.267,155.733 137.867 C 155.733 133.467,155.677 129.867,155.608 129.867 C 155.539 129.867,155.449 133.467,155.408 137.867 M163.324 144.400 C 163.324 152.467,163.358 155.805,163.400 151.819 C 163.441 147.833,163.441 141.233,163.400 137.152 C 163.358 133.072,163.325 136.333,163.324 144.400 M207.591 144.400 C 207.591 152.467,207.625 155.805,207.666 151.819 C 207.708 147.833,207.708 141.233,207.667 137.152 C 207.625 133.072,207.591 136.333,207.591 144.400 M245.724 144.400 C 245.724 152.467,245.758 155.805,245.800 151.819 C 245.841 147.833,245.841 141.233,245.800 137.152 C 245.758 133.072,245.725 136.333,245.724 144.400 M264.388 140.533 C 264.388 146.473,264.423 148.903,264.466 145.933 C 264.509 142.963,264.509 138.103,264.466 135.133 C 264.423 132.163,264.388 134.593,264.388 140.533 M269.455 140.267 C 269.455 146.060,269.490 148.430,269.533 145.533 C 269.576 142.637,269.576 137.897,269.533 135.000 C 269.490 132.103,269.455 134.473,269.455 140.267 M314.933 131.723 L 314.933 133.579 312.600 133.668 L 310.267 133.757 312.733 133.812 L 315.200 133.867 315.200 131.867 C 315.200 130.767,315.140 129.867,315.067 129.867 C 314.993 129.867,314.933 130.702,314.933 131.723 M321.724 144.400 C 321.724 152.467,321.758 155.805,321.800 151.819 C 321.841 147.833,321.841 141.233,321.800 137.152 C 321.758 133.072,321.725 136.333,321.724 144.400 M344.391 144.400 C 344.391 152.467,344.425 155.805,344.466 151.819 C 344.508 147.833,344.508 141.233,344.467 137.152 C 344.425 133.072,344.391 136.333,344.391 144.400 M359.591 144.400 C 359.591 152.467,359.625 155.805,359.666 151.819 C 359.708 147.833,359.708 141.233,359.667 137.152 C 359.625 133.072,359.591 136.333,359.591 144.400 M213.670 133.525 C 214.076 133.586,214.676 133.584,215.004 133.521 C 215.332 133.458,215.000 133.408,214.267 133.410 C 213.533 133.412,213.265 133.463,213.670 133.525 M301.408 133.796 C 302.109 133.851,303.189 133.851,303.808 133.795 C 304.427 133.739,303.853 133.694,302.533 133.695 C 301.213 133.695,300.707 133.741,301.408 133.796 M205.683 138.000 C 205.684 138.880,205.734 139.208,205.793 138.729 C 205.853 138.249,205.851 137.529,205.791 137.129 C 205.730 136.728,205.681 137.120,205.683 138.000 M237.451 144.400 C 237.451 148.800,237.488 150.637,237.533 148.483 C 237.577 146.329,237.578 142.729,237.533 140.483 C 237.488 138.237,237.452 140.000,237.451 144.400 M218.462 137.867 C 218.462 138.380,218.517 138.590,218.584 138.333 C 218.651 138.077,218.651 137.657,218.584 137.400 C 218.517 137.143,218.462 137.353,218.462 137.867 M261.715 144.133 C 261.715 147.653,261.753 149.056,261.799 147.251 C 261.846 145.446,261.845 142.566,261.799 140.851 C 261.753 139.136,261.715 140.613,261.715 144.133 M179.314 144.267 C 179.314 147.567,179.352 148.917,179.399 147.267 C 179.446 145.617,179.446 142.917,179.399 141.267 C 179.352 139.617,179.314 140.967,179.314 144.267 M256.380 144.133 C 256.381 147.360,256.419 148.643,256.466 146.985 C 256.513 145.327,256.513 142.687,256.466 141.119 C 256.418 139.550,256.380 140.907,256.380 144.133 M295.676 140.464 C 296.451 140.518,297.651 140.517,298.342 140.462 C 299.034 140.408,298.400 140.363,296.933 140.364 C 295.467 140.365,294.901 140.410,295.676 140.464 M149.186 150.400 C 149.186 155.167,149.222 157.117,149.266 154.733 C 149.310 152.350,149.310 148.450,149.266 146.067 C 149.222 143.683,149.186 145.633,149.186 150.400 M195.933 142.322 C 196.263 142.385,196.803 142.385,197.133 142.322 C 197.463 142.258,197.193 142.206,196.533 142.206 C 195.873 142.206,195.603 142.258,195.933 142.322 M295.676 148.197 C 296.451 148.251,297.651 148.250,298.342 148.196 C 299.034 148.141,298.400 148.097,296.933 148.097 C 295.467 148.098,294.901 148.143,295.676 148.197 M169.270 155.389 C 169.601 155.452,170.081 155.450,170.336 155.383 C 170.591 155.316,170.320 155.264,169.733 155.267 C 169.147 155.270,168.938 155.325,169.270 155.389 M251.670 155.389 C 252.001 155.452,252.481 155.450,252.736 155.383 C 252.991 155.316,252.720 155.264,252.133 155.267 C 251.547 155.270,251.338 155.325,251.670 155.389 M233.533 159.393 C 234.010 159.452,234.790 159.452,235.267 159.393 C 235.743 159.334,235.353 159.285,234.400 159.285 C 233.447 159.285,233.057 159.334,233.533 159.393 M271.938 159.393 C 272.417 159.453,273.137 159.451,273.538 159.391 C 273.939 159.330,273.547 159.281,272.667 159.283 C 271.787 159.284,271.459 159.334,271.938 159.393 M290.871 159.393 C 291.351 159.453,292.071 159.451,292.471 159.391 C 292.872 159.330,292.480 159.281,291.600 159.283 C 290.720 159.284,290.392 159.334,290.871 159.393 M332.471 159.393 C 332.951 159.453,333.671 159.451,334.071 159.391 C 334.472 159.330,334.080 159.281,333.200 159.283 C 332.320 159.284,331.992 159.334,332.471 159.393 M129.667 194.584 C 129.923 194.651,130.343 194.651,130.600 194.584 C 130.857 194.517,130.647 194.462,130.133 194.462 C 129.620 194.462,129.410 194.517,129.667 194.584 M306.667 211.600 C 307.463 212.407,308.175 213.067,308.248 213.067 C 308.322 213.067,307.730 212.407,306.933 211.600 C 306.137 210.793,305.425 210.133,305.352 210.133 C 305.278 210.133,305.870 210.793,306.667 211.600 M293.067 224.083 C 293.067 224.129,293.457 224.519,293.933 224.950 L 294.800 225.733 294.017 224.867 C 293.287 224.059,293.067 223.877,293.067 224.083 M227.854 228.867 L 226.800 230.000 227.933 228.946 C 228.987 227.966,229.189 227.733,228.987 227.733 C 228.944 227.733,228.434 228.243,227.854 228.867 M166.667 228.350 C 166.667 228.396,167.057 228.786,167.533 229.217 L 168.400 230.000 167.617 229.133 C 166.887 228.325,166.667 228.144,166.667 228.350 M72.329 253.600 C 72.329 254.113,72.383 254.323,72.450 254.067 C 72.518 253.810,72.518 253.390,72.450 253.133 C 72.383 252.877,72.329 253.087,72.329 253.600 M323.795 254.667 C 323.795 255.180,323.850 255.390,323.917 255.133 C 323.984 254.877,323.984 254.457,323.917 254.200 C 323.850 253.943,323.795 254.153,323.795 254.667 M305.395 261.867 C 305.395 262.380,305.450 262.590,305.517 262.333 C 305.584 262.077,305.584 261.657,305.517 261.400 C 305.450 261.143,305.395 261.353,305.395 261.867 M323.801 262.267 C 323.804 262.853,323.858 263.062,323.922 262.730 C 323.986 262.399,323.983 261.919,323.917 261.664 C 323.850 261.409,323.798 261.680,323.801 262.267 M131.670 302.322 C 132.001 302.386,132.481 302.383,132.736 302.317 C 132.991 302.250,132.720 302.198,132.133 302.201 C 131.547 302.204,131.338 302.258,131.670 302.322 M130.733 320.729 C 131.430 320.784,132.570 320.784,133.267 320.729 C 133.963 320.674,133.393 320.629,132.000 320.629 C 130.607 320.629,130.037 320.674,130.733 320.729 M269.667 321.784 C 269.923 321.851,270.343 321.851,270.600 321.784 C 270.857 321.717,270.647 321.662,270.133 321.662 C 269.620 321.662,269.410 321.717,269.667 321.784 " stroke="none" fill="#e4cca4" fill-rule="evenodd"></path></g></svg>