<svg id="svg" version="1.1" xmlns="http://www.w3.org/2000/svg" xmlns:xlink="http://www.w3.org/1999/xlink" width="400" height="400" viewBox="0, 0, 400,400"><g id="svgg"><path id="path0" d="M48.800 33.629 C 37.964 34.857,32.394 42.239,31.821 56.130 L 31.650 60.267 38.758 60.267 L 45.867 60.267 45.876 57.400 C 45.902 49.358,48.109 45.584,52.773 45.606 C 56.329 45.623,58.113 47.890,58.339 52.680 C 58.637 59.016,58.404 59.474,41.912 84.880 L 31.733 100.560 31.733 105.613 L 31.733 110.667 51.200 110.667 L 70.667 110.667 70.667 105.067 L 70.667 99.467 59.467 99.467 C 52.033 99.467,48.267 99.375,48.267 99.195 C 48.267 99.045,52.568 92.475,57.826 84.595 C 71.913 63.479,72.613 62.010,72.648 53.467 C 72.709 39.139,64.013 31.905,48.800 33.629 M161.011 34.148 C 155.965 34.911,154.918 37.094,154.734 47.247 C 154.481 61.111,156.130 64.080,163.851 63.673 C 167.792 63.465,169.794 62.070,170.993 58.692 C 171.599 56.986,171.467 40.517,170.833 38.697 C 169.579 35.096,165.927 33.405,161.011 34.148 M104.533 36.133 L 104.533 37.867 108.133 37.867 C 110.113 37.867,111.733 37.948,111.733 38.047 C 111.733 38.147,109.993 43.167,107.867 49.205 C 104.495 58.775,104.000 60.391,104.000 61.824 L 104.000 63.467 110.667 63.467 L 117.333 63.467 117.333 61.733 L 117.333 60.000 113.349 60.000 C 111.158 60.000,109.316 59.910,109.256 59.800 C 109.196 59.690,110.924 54.620,113.096 48.533 C 116.400 39.272,117.046 37.217,117.055 35.933 L 117.067 34.400 110.800 34.400 L 104.533 34.400 104.533 36.133 M120.267 48.933 L 120.267 63.467 126.267 63.467 L 132.267 63.467 132.267 61.741 L 132.267 60.016 128.867 59.941 L 125.467 59.867 125.394 55.000 L 125.321 50.133 128.127 50.133 L 130.933 50.133 130.933 48.267 L 130.933 46.400 128.127 46.400 L 125.320 46.400 125.393 42.200 L 125.467 38.000 128.867 37.925 L 132.267 37.851 132.267 36.125 L 132.267 34.400 126.267 34.400 L 120.267 34.400 120.267 48.933 M135.467 48.910 L 135.467 63.467 138.000 63.467 L 140.533 63.467 140.533 56.800 L 140.533 50.133 141.801 50.133 L 143.069 50.133 144.800 56.800 L 146.531 63.467 149.132 63.467 C 150.563 63.467,151.732 63.377,151.730 63.267 C 151.729 63.157,150.838 59.947,149.752 56.133 C 148.036 50.113,147.830 49.165,148.184 48.933 C 150.388 47.490,150.977 46.294,151.142 42.916 C 151.470 36.208,149.527 34.607,140.867 34.450 L 135.467 34.353 135.467 48.910 M144.987 38.567 C 145.929 39.271,146.474 41.042,146.304 42.854 C 146.050 45.575,145.010 46.569,142.267 46.715 L 140.667 46.800 140.593 42.303 L 140.520 37.806 142.385 37.911 C 143.733 37.987,144.454 38.169,144.987 38.567 M164.784 38.259 C 166.039 38.907,166.133 39.648,166.133 48.848 C 166.133 58.222,166.046 58.818,164.568 59.582 C 163.103 60.340,161.198 59.810,160.507 58.454 C 160.011 57.480,159.807 42.403,160.262 40.339 C 160.759 38.081,162.708 37.185,164.784 38.259 M170.132 82.102 C 165.869 83.486,165.067 85.767,165.067 96.497 C 165.067 105.672,165.490 107.878,167.642 109.919 C 170.126 112.276,175.345 112.049,177.024 109.511 L 177.733 108.438 177.954 109.819 L 178.174 111.200 179.887 111.200 L 181.600 111.200 181.600 103.867 L 181.600 96.533 177.600 96.533 L 173.600 96.533 173.600 98.133 L 173.600 99.733 175.200 99.733 L 176.800 99.733 176.799 101.933 C 176.796 106.118,175.924 107.600,173.467 107.600 C 170.466 107.600,170.337 107.084,170.451 95.511 L 170.533 87.156 171.438 86.348 C 173.748 84.284,176.087 85.746,176.227 89.340 L 176.320 91.733 178.827 91.733 L 181.333 91.733 181.333 90.056 C 181.333 86.462,180.158 83.975,177.843 82.671 C 176.589 81.964,171.672 81.602,170.132 82.102 M105.067 96.667 L 105.067 111.200 107.733 111.200 L 110.400 111.200 110.400 104.533 L 110.400 97.867 113.333 97.867 L 116.267 97.867 116.267 104.533 L 116.267 111.200 118.933 111.200 L 121.600 111.200 121.600 96.667 L 121.600 82.133 118.933 82.133 L 116.267 82.133 116.267 88.267 L 116.267 94.400 113.333 94.400 L 110.400 94.400 110.400 88.267 L 110.400 82.133 107.733 82.133 L 105.067 82.133 105.067 96.667 M125.608 92.333 C 125.622 109.713,126.316 111.333,133.739 111.333 C 141.310 111.333,141.859 110.132,141.864 93.533 L 141.867 82.133 139.485 82.133 L 137.103 82.133 136.999 93.400 C 136.875 106.834,136.683 107.728,133.920 107.732 C 130.981 107.737,130.814 106.999,130.720 93.533 L 130.640 82.133 128.120 82.133 L 125.600 82.133 125.608 92.333 M146.133 96.667 L 146.133 111.200 148.267 111.200 L 150.400 111.200 150.400 102.800 C 150.400 98.180,150.490 94.401,150.600 94.402 C 150.710 94.404,152.360 98.181,154.267 102.797 L 157.733 111.189 159.400 111.194 L 161.067 111.200 161.067 96.667 L 161.067 82.133 158.937 82.133 L 156.808 82.133 156.737 90.192 L 156.667 98.250 153.200 90.196 L 149.733 82.143 147.933 82.138 L 146.133 82.133 146.133 96.667 M185.600 96.667 L 185.600 111.200 191.600 111.200 L 197.600 111.200 197.600 109.475 L 197.600 107.749 194.200 107.675 L 190.800 107.600 190.727 102.733 L 190.655 97.867 193.327 97.867 L 196.000 97.867 196.000 96.000 L 196.000 94.133 193.327 94.133 L 190.653 94.133 190.727 89.933 L 190.800 85.733 194.200 85.659 L 197.600 85.584 197.600 83.859 L 197.600 82.133 191.600 82.133 L 185.600 82.133 185.600 96.667 M200.800 96.639 L 200.800 111.200 203.333 111.200 L 205.867 111.200 205.867 104.519 L 205.867 97.837 207.108 97.919 L 208.350 98.000 208.948 100.267 C 209.277 101.513,210.055 104.483,210.676 106.867 L 211.806 111.200 214.454 111.200 C 216.853 111.200,217.089 111.156,216.961 110.733 C 214.551 102.820,213.097 96.910,213.498 96.667 C 215.550 95.423,216.268 93.968,216.465 90.652 C 216.855 84.121,214.691 82.359,206.067 82.184 L 200.800 82.078 200.800 96.639 M209.605 86.033 C 211.071 86.620,211.569 87.626,211.569 90.000 C 211.569 93.169,210.470 94.384,207.515 94.483 L 206.000 94.533 205.927 90.067 L 205.854 85.600 207.188 85.600 C 207.922 85.600,209.010 85.795,209.605 86.033 M150.773 164.503 C 147.905 165.243,146.259 167.210,143.052 173.733 C 136.195 187.681,135.488 201.438,141.059 212.518 C 142.888 216.155,143.500 217.015,148.946 223.600 C 155.134 231.081,157.030 239.640,154.169 247.172 L 153.651 248.533 160.543 248.533 C 164.334 248.533,167.501 248.427,167.582 248.296 C 167.976 247.658,168.576 243.804,168.707 241.067 C 169.119 232.444,165.932 224.182,159.048 216.029 C 155.580 211.922,154.683 210.655,153.442 208.114 C 148.786 198.585,150.321 186.051,157.623 173.962 C 159.234 171.294,159.509 169.954,158.818 168.143 C 157.783 165.434,153.928 163.690,150.773 164.503 M192.906 164.503 C 189.618 165.351,186.440 169.862,183.083 178.449 C 176.637 194.934,178.710 209.057,189.406 221.531 C 196.903 230.273,199.316 238.499,196.644 246.200 L 195.834 248.533 202.808 248.533 L 209.782 248.533 210.087 247.133 C 212.548 235.823,209.525 225.630,200.653 215.333 C 190.565 203.625,190.263 189.469,199.769 173.967 C 203.209 168.357,199.232 162.873,192.906 164.503 M235.022 164.507 C 232.299 165.206,230.728 167.023,227.708 172.967 C 220.260 187.626,219.699 202.360,226.145 213.997 C 227.418 216.295,228.702 218.027,233.333 223.697 C 239.145 230.813,241.155 238.951,238.840 246.000 C 238.455 247.173,238.139 248.223,238.137 248.333 C 238.135 248.443,241.235 248.533,245.026 248.533 L 251.918 248.533 252.384 246.467 C 254.725 236.083,251.410 225.317,242.796 215.333 C 232.840 203.792,232.444 190.200,241.610 174.517 C 244.045 170.349,244.134 168.853,242.085 166.518 C 240.600 164.827,237.364 163.906,235.022 164.507 M86.532 258.244 C 85.528 259.248,85.510 259.898,86.369 264.153 C 93.366 298.789,121.042 328.628,156.867 340.159 L 159.200 340.910 159.200 343.930 C 159.200 347.178,159.544 348.537,160.493 349.045 C 161.230 349.439,229.145 349.453,229.881 349.059 C 230.931 348.497,231.200 347.422,231.200 343.783 L 231.200 340.339 234.333 339.201 C 270.072 326.214,295.853 297.291,302.386 262.857 C 302.985 259.700,302.807 258.513,301.640 257.888 C 301.257 257.683,270.250 257.600,194.139 257.600 L 87.176 257.600 86.532 258.244 " stroke="none" fill="#fbfbfb" fill-rule="evenodd"></path><path id="path1" d="M0.000 200.000 L 0.000 400.000 200.000 400.000 L 400.000 400.000 400.000 200.000 L 400.000 0.000 200.000 0.000 L 0.000 0.000 0.000 200.000 M58.177 33.709 C 68.140 35.622,73.842 43.881,72.924 55.067 C 72.299 62.673,71.193 64.883,58.339 84.210 C 52.946 92.319,48.533 99.009,48.533 99.077 C 48.533 99.145,53.573 99.200,59.733 99.200 L 70.933 99.200 70.933 105.067 L 70.933 110.933 51.333 110.933 L 31.733 110.933 31.733 105.592 L 31.733 100.252 41.112 85.792 C 58.131 59.555,58.135 59.546,58.132 53.357 C 58.129 48.161,56.498 45.860,52.827 45.873 C 48.150 45.888,46.417 48.619,46.192 56.333 L 46.070 60.533 38.869 60.533 L 31.669 60.533 31.803 55.533 C 32.139 42.953,37.172 35.702,46.933 33.733 C 49.304 33.255,55.739 33.241,58.177 33.709 M166.622 34.278 C 170.812 35.522,171.736 38.172,171.729 48.916 C 171.721 61.221,170.281 63.825,163.467 63.855 C 158.701 63.877,156.341 62.431,155.221 58.806 C 154.471 56.376,154.376 41.611,155.095 39.189 C 156.426 34.706,161.206 32.670,166.622 34.278 M117.333 35.620 C 117.333 36.883,112.640 50.966,109.445 59.294 C 109.293 59.690,109.673 59.733,113.305 59.733 L 117.333 59.733 117.333 61.733 L 117.333 63.733 110.667 63.733 L 104.000 63.733 104.000 61.708 C 104.000 59.786,104.193 59.134,107.733 49.067 C 109.787 43.228,111.467 38.380,111.467 38.292 C 111.467 38.205,109.847 38.133,107.867 38.133 L 104.267 38.133 104.267 36.133 L 104.267 34.133 110.800 34.133 L 117.333 34.133 117.333 35.620 M132.533 36.133 L 132.533 38.133 129.067 38.133 L 125.600 38.133 125.600 42.267 L 125.600 46.400 128.267 46.400 L 130.933 46.400 130.933 48.400 L 130.933 50.400 128.267 50.400 L 125.600 50.400 125.600 55.067 L 125.600 59.733 129.067 59.733 L 132.533 59.733 132.533 61.733 L 132.533 63.733 126.267 63.733 L 120.000 63.733 120.000 48.933 L 120.000 34.133 126.267 34.133 L 132.533 34.133 132.533 36.133 M145.654 34.433 C 149.848 35.322,151.719 38.050,151.383 42.786 C 151.148 46.107,150.259 47.989,148.464 48.968 C 148.030 49.205,148.149 49.775,149.997 56.345 C 151.099 60.261,152.000 63.526,152.000 63.599 C 152.000 63.673,150.745 63.733,149.210 63.733 L 146.421 63.733 146.159 62.733 C 146.015 62.183,145.401 59.813,144.794 57.467 C 142.817 49.823,143.057 50.400,141.848 50.400 L 140.800 50.400 140.800 57.067 L 140.800 63.733 138.000 63.733 L 135.200 63.733 135.200 48.933 L 135.200 34.133 139.720 34.133 C 142.206 34.133,144.876 34.268,145.654 34.433 M162.157 38.100 C 160.473 38.571,160.408 38.932,160.323 48.284 C 160.237 57.731,160.347 58.685,161.597 59.332 C 163.713 60.426,165.435 59.475,165.890 56.959 C 166.386 54.221,166.105 40.326,165.533 39.279 C 165.132 38.546,163.655 37.759,162.933 37.895 C 162.860 37.909,162.511 38.001,162.157 38.100 M140.800 42.438 L 140.800 46.743 142.448 46.570 C 145.205 46.282,146.134 45.183,146.133 42.209 C 146.132 39.300,145.053 38.144,142.333 38.137 L 140.800 38.133 140.800 42.438 M176.767 82.015 C 179.700 82.886,181.225 85.293,181.523 89.522 L 181.679 91.733 178.973 91.733 L 176.267 91.733 176.255 90.467 C 176.224 87.026,175.493 85.867,173.354 85.867 C 170.650 85.867,170.533 86.309,170.533 96.533 C 170.533 106.710,170.738 107.467,173.490 107.467 C 175.721 107.467,176.529 106.067,176.532 102.200 L 176.533 100.000 175.067 100.000 L 173.600 100.000 173.600 98.133 L 173.600 96.267 177.600 96.267 L 181.600 96.267 181.600 103.879 L 181.600 111.491 179.803 111.412 C 178.242 111.344,177.995 111.263,177.926 110.800 C 177.882 110.507,177.782 109.972,177.704 109.612 L 177.563 108.958 177.032 109.796 C 174.804 113.315,167.791 112.015,165.897 107.732 C 164.242 103.988,164.329 88.917,166.027 85.405 C 167.618 82.112,172.212 80.662,176.767 82.015 M110.400 88.000 L 110.400 94.133 113.333 94.133 L 116.267 94.133 116.267 88.000 L 116.267 81.867 119.069 81.867 L 121.871 81.867 121.802 96.600 L 121.733 111.333 119.000 111.409 L 116.267 111.485 116.267 104.809 L 116.267 98.133 113.333 98.133 L 110.400 98.133 110.400 104.809 L 110.400 111.485 107.667 111.409 L 104.933 111.333 104.864 96.600 L 104.795 81.867 107.598 81.867 L 110.400 81.867 110.400 88.000 M130.933 92.949 C 130.933 106.591,131.105 107.467,133.787 107.467 C 136.616 107.467,136.652 107.298,136.746 93.533 L 136.826 81.867 139.480 81.867 L 142.133 81.867 142.133 93.022 C 142.133 105.232,142.028 106.371,140.694 108.610 C 138.433 112.406,130.348 112.878,127.466 109.382 C 125.769 107.323,125.756 107.215,125.661 93.933 L 125.575 81.867 128.254 81.867 L 130.933 81.867 130.933 92.949 M153.225 89.833 L 156.667 97.799 156.737 89.833 L 156.808 81.867 159.071 81.867 L 161.333 81.867 161.333 96.667 L 161.333 111.467 159.504 111.467 L 157.674 111.467 154.237 103.159 L 150.800 94.852 150.730 103.159 L 150.659 111.467 148.263 111.467 L 145.867 111.467 145.867 96.667 L 145.867 81.867 147.825 81.867 L 149.783 81.867 153.225 89.833 M197.867 83.867 L 197.867 85.867 194.400 85.867 L 190.933 85.867 190.933 90.000 L 190.933 94.133 193.600 94.133 L 196.267 94.133 196.267 96.133 L 196.267 98.133 193.600 98.133 L 190.933 98.133 190.933 102.800 L 190.933 107.467 194.400 107.467 L 197.867 107.467 197.867 109.467 L 197.867 111.467 191.600 111.467 L 185.333 111.467 185.333 96.667 L 185.333 81.867 191.600 81.867 L 197.867 81.867 197.867 83.867 M212.225 82.512 C 217.097 84.073,218.547 93.381,214.368 96.271 C 213.872 96.614,213.426 96.923,213.377 96.959 C 213.300 97.015,216.920 110.208,217.270 111.143 C 217.370 111.411,216.777 111.469,214.526 111.409 L 211.654 111.333 210.749 107.867 C 210.252 105.960,209.474 102.990,209.021 101.267 L 208.198 98.133 207.166 98.133 L 206.133 98.133 206.133 104.800 L 206.133 111.467 203.333 111.467 L 200.533 111.467 200.533 96.638 L 200.533 81.810 205.667 81.933 C 209.504 82.025,211.160 82.171,212.225 82.512 M206.133 90.170 L 206.133 94.474 207.774 94.325 C 210.412 94.086,211.418 92.923,211.452 90.072 C 211.486 87.178,210.247 85.867,207.475 85.867 L 206.133 85.867 206.133 90.170 M155.948 164.957 C 159.770 166.862,160.311 169.756,157.672 174.173 C 148.615 189.325,148.701 203.770,157.911 214.411 C 167.494 225.482,170.834 236.200,168.096 247.096 L 167.668 248.800 160.551 248.800 L 153.434 248.800 154.230 246.467 C 156.873 238.710,154.405 229.792,147.466 222.030 C 136.308 209.548,134.181 195.081,140.972 177.867 C 145.637 166.042,150.211 162.099,155.948 164.957 M198.150 165.000 C 201.771 166.836,202.483 170.042,200.098 173.770 C 190.572 188.662,190.793 203.806,200.702 215.139 C 209.731 225.466,212.986 236.771,210.107 247.800 L 209.846 248.800 202.707 248.800 L 195.568 248.800 196.310 246.580 C 199.076 238.311,196.751 230.011,189.351 221.733 C 176.530 207.393,176.007 186.988,187.982 168.320 C 190.525 164.356,194.392 163.094,198.150 165.000 M240.135 164.894 C 243.859 166.628,244.667 169.866,242.318 173.640 C 235.955 183.859,233.703 195.629,236.441 204.364 C 237.716 208.431,239.229 210.905,243.582 216.039 C 252.044 226.019,255.104 237.197,252.263 247.748 L 251.979 248.800 244.923 248.800 C 240.494 248.800,237.867 248.703,237.867 248.539 C 237.867 248.395,238.041 247.825,238.255 247.272 C 241.456 238.985,239.201 230.598,231.318 221.467 C 219.492 207.767,218.247 191.117,227.672 172.683 C 231.723 164.761,235.193 162.592,240.135 164.894 M301.793 257.859 C 303.310 258.785,303.239 260.873,301.447 268.003 C 293.328 300.311,268.595 326.734,234.800 339.205 L 231.333 340.485 231.268 343.909 C 231.188 348.150,231.123 348.425,230.060 349.074 C 229.032 349.701,161.927 349.921,160.716 349.302 C 159.377 348.617,159.212 348.093,159.206 344.489 L 159.200 341.110 157.000 340.388 C 121.186 328.619,94.317 300.163,86.510 265.733 C 85.230 260.085,85.297 258.605,86.873 257.749 C 88.185 257.037,300.623 257.146,301.793 257.859 " stroke="none" fill="#dcac3c" fill-rule="evenodd"></path><path id="path2" d="M104.380 36.000 L 104.400 38.000 108.067 38.133 C 110.084 38.207,111.734 38.177,111.734 38.067 C 111.734 37.957,110.119 37.867,108.145 37.867 L 104.557 37.867 104.458 35.933 L 104.360 34.000 104.380 36.000 M132.358 36.133 C 132.359 37.307,132.406 37.753,132.462 37.126 C 132.519 36.499,132.518 35.539,132.461 34.993 C 132.403 34.447,132.357 34.960,132.358 36.133 M135.325 48.800 C 135.325 56.940,135.358 60.270,135.400 56.200 C 135.441 52.130,135.441 45.470,135.400 41.400 C 135.358 37.330,135.325 40.660,135.325 48.800 M125.441 42.267 C 125.442 44.613,125.482 45.538,125.532 44.321 C 125.581 43.104,125.581 41.184,125.531 40.054 C 125.481 38.924,125.441 39.920,125.441 42.267 M140.642 42.400 C 140.642 44.820,140.682 45.810,140.732 44.600 C 140.781 43.390,140.781 41.410,140.732 40.200 C 140.682 38.990,140.642 39.980,140.642 42.400 M151.283 42.000 C 151.284 42.880,151.334 43.208,151.393 42.729 C 151.453 42.249,151.451 41.529,151.391 41.129 C 151.330 40.728,151.281 41.120,151.283 42.000 M160.117 48.800 C 160.117 52.833,160.154 54.483,160.199 52.467 C 160.245 50.450,160.245 47.150,160.199 45.133 C 160.154 43.117,160.117 44.767,160.117 48.800 M171.583 48.800 C 171.583 52.540,171.620 54.070,171.666 52.200 C 171.712 50.330,171.712 47.270,171.666 45.400 C 171.620 43.530,171.583 45.060,171.583 48.800 M125.444 55.067 C 125.444 57.707,125.484 58.751,125.532 57.387 C 125.581 56.022,125.580 53.862,125.532 52.587 C 125.483 51.311,125.443 52.427,125.444 55.067 M140.649 56.933 C 140.649 60.600,140.686 62.137,140.732 60.349 C 140.778 58.561,140.779 55.561,140.733 53.682 C 140.687 51.804,140.649 53.267,140.649 56.933 M162.470 63.925 C 162.876 63.986,163.476 63.984,163.804 63.921 C 164.132 63.858,163.800 63.808,163.067 63.810 C 162.333 63.812,162.065 63.863,162.470 63.925 M106.333 82.063 C 107.103 82.117,108.363 82.117,109.133 82.063 C 109.903 82.009,109.273 81.965,107.733 81.965 C 106.193 81.965,105.563 82.009,106.333 82.063 M117.533 82.063 C 118.303 82.117,119.563 82.117,120.333 82.063 C 121.103 82.009,120.473 81.965,118.933 81.965 C 117.393 81.965,116.763 82.009,117.533 82.063 M128.130 82.061 L 130.660 82.153 130.735 92.343 L 130.809 102.533 130.805 92.267 L 130.800 82.000 128.199 81.985 L 125.599 81.969 128.130 82.061 M138.067 82.063 C 138.837 82.117,140.097 82.117,140.867 82.063 C 141.637 82.009,141.007 81.965,139.467 81.965 C 137.927 81.965,137.297 82.009,138.067 82.063 M145.989 82.200 C 145.919 82.383,145.894 89.013,145.933 96.933 L 146.005 111.333 146.069 96.746 L 146.133 82.158 147.933 82.064 L 149.733 81.971 147.925 81.919 C 146.683 81.883,146.077 81.971,145.989 82.200 M157.941 82.063 C 158.642 82.118,159.722 82.117,160.341 82.062 C 160.960 82.006,160.387 81.961,159.067 81.961 C 157.747 81.962,157.240 82.008,157.941 82.063 M188.333 82.066 C 190.057 82.112,192.877 82.112,194.600 82.066 C 196.323 82.019,194.913 81.981,191.467 81.981 C 188.020 81.981,186.610 82.019,188.333 82.066 M202.613 82.065 C 203.830 82.115,205.750 82.115,206.879 82.065 C 208.009 82.015,207.013 81.974,204.667 81.975 C 202.320 81.975,201.396 82.016,202.613 82.065 M205.984 85.945 C 205.912 86.134,205.889 88.144,205.934 90.411 L 206.015 94.533 206.074 90.215 L 206.133 85.897 207.267 85.795 L 208.400 85.693 207.258 85.647 C 206.535 85.617,206.068 85.726,205.984 85.945 M181.401 90.800 C 181.404 91.387,181.458 91.595,181.522 91.264 C 181.586 90.932,181.583 90.452,181.517 90.197 C 181.450 89.942,181.398 90.213,181.401 90.800 M164.914 96.667 C 164.915 100.040,164.953 101.383,164.999 99.652 C 165.046 97.920,165.046 95.160,164.999 93.518 C 164.952 91.877,164.914 93.293,164.914 96.667 M175.533 96.465 C 176.670 96.515,178.530 96.515,179.667 96.465 C 180.803 96.415,179.873 96.374,177.600 96.374 C 175.327 96.374,174.397 96.415,175.533 96.465 M192.200 98.063 C 192.970 98.117,194.230 98.117,195.000 98.063 C 195.770 98.009,195.140 97.965,193.600 97.965 C 192.060 97.965,191.430 98.009,192.200 98.063 M205.982 104.667 C 205.982 108.333,206.020 109.870,206.066 108.082 C 206.112 106.294,206.112 103.294,206.066 101.416 C 206.020 99.537,205.982 101.000,205.982 104.667 M174.338 99.927 C 174.817 99.986,175.537 99.985,175.938 99.924 C 176.339 99.863,175.947 99.814,175.067 99.816 C 174.187 99.817,173.859 99.867,174.338 99.927 M197.690 109.333 C 197.690 110.433,197.737 110.883,197.794 110.333 C 197.852 109.783,197.852 108.883,197.794 108.333 C 197.737 107.783,197.690 108.233,197.690 109.333 M41.380 110.867 C 46.759 110.907,55.639 110.907,61.114 110.867 C 66.588 110.826,62.187 110.793,51.333 110.793 C 40.480 110.793,36.001 110.826,41.380 110.867 M150.752 196.267 C 150.752 197.220,150.800 197.610,150.860 197.133 C 150.919 196.657,150.919 195.877,150.860 195.400 C 150.800 194.923,150.752 195.313,150.752 196.267 M137.139 196.267 C 137.139 196.927,137.191 197.197,137.255 196.867 C 137.318 196.537,137.318 195.997,137.255 195.667 C 137.191 195.337,137.139 195.607,137.139 196.267 M192.862 196.267 C 192.862 196.780,192.917 196.990,192.984 196.733 C 193.051 196.477,193.051 196.057,192.984 195.800 C 192.917 195.543,192.862 195.753,192.862 196.267 M253.147 239.733 C 253.147 240.540,253.197 240.870,253.258 240.467 C 253.319 240.063,253.319 239.403,253.258 239.000 C 253.197 238.597,253.147 238.927,253.147 239.733 M275.191 313.533 L 273.733 315.067 275.267 313.609 C 276.691 312.255,276.922 312.000,276.724 312.000 C 276.683 312.000,275.993 312.690,275.191 313.533 M178.200 349.533 C 187.550 349.572,202.850 349.572,212.200 349.533 C 221.550 349.494,213.900 349.463,195.200 349.463 C 176.500 349.463,168.850 349.494,178.200 349.533 " stroke="none" fill="#ecd197" fill-rule="evenodd"></path><path id="path3" d="M141.270 38.055 C 141.601 38.119,142.081 38.117,142.336 38.050 C 142.591 37.983,142.320 37.931,141.733 37.934 C 141.147 37.937,140.938 37.991,141.270 38.055 M52.333 45.784 C 52.590 45.851,53.010 45.851,53.267 45.784 C 53.523 45.717,53.313 45.662,52.800 45.662 C 52.287 45.662,52.077 45.717,52.333 45.784 M126.867 50.330 C 127.637 50.384,128.897 50.384,129.667 50.330 C 130.437 50.276,129.807 50.232,128.267 50.232 C 126.727 50.232,126.097 50.276,126.867 50.330 M141.267 50.322 C 141.597 50.385,142.137 50.385,142.467 50.322 C 142.797 50.258,142.527 50.206,141.867 50.206 C 141.207 50.206,140.937 50.258,141.267 50.322 M58.216 53.200 C 58.217 54.080,58.267 54.408,58.327 53.929 C 58.386 53.449,58.385 52.729,58.324 52.329 C 58.263 51.928,58.214 52.320,58.216 53.200 M72.885 53.333 C 72.885 54.287,72.934 54.677,72.993 54.200 C 73.052 53.723,73.052 52.943,72.993 52.467 C 72.934 51.990,72.885 52.380,72.885 53.333 M45.961 58.267 C 45.961 59.587,46.006 60.160,46.062 59.541 C 46.117 58.922,46.118 57.842,46.063 57.141 C 46.008 56.440,45.962 56.947,45.961 58.267 M107.267 63.666 C 109.137 63.712,112.197 63.712,114.067 63.666 C 115.937 63.620,114.407 63.583,110.667 63.583 C 106.927 63.583,105.397 63.620,107.267 63.666 M123.149 63.666 C 124.954 63.712,127.834 63.712,129.549 63.666 C 131.264 63.619,129.787 63.581,126.267 63.582 C 122.747 63.582,121.344 63.620,123.149 63.666 M136.610 63.664 C 137.458 63.717,138.778 63.717,139.543 63.663 C 140.308 63.609,139.613 63.566,138.000 63.566 C 136.387 63.567,135.761 63.611,136.610 63.664 M147.810 63.664 C 148.658 63.717,149.978 63.717,150.743 63.663 C 151.508 63.609,150.813 63.566,149.200 63.566 C 147.587 63.567,146.961 63.611,147.810 63.664 M104.930 96.600 L 104.933 111.333 107.600 111.347 L 110.267 111.361 107.669 111.271 L 105.071 111.181 104.999 96.524 L 104.926 81.867 104.930 96.600 M121.664 96.457 L 121.600 111.181 118.867 111.268 L 116.133 111.354 118.875 111.410 C 120.866 111.451,121.652 111.375,121.744 111.133 C 121.814 110.950,121.840 104.260,121.800 96.267 L 121.729 81.733 121.664 96.457 M197.691 83.867 C 197.692 85.040,197.739 85.487,197.796 84.860 C 197.852 84.232,197.851 83.272,197.794 82.726 C 197.737 82.180,197.690 82.693,197.691 83.867 M190.775 90.000 C 190.775 92.347,190.816 93.271,190.865 92.054 C 190.915 90.837,190.915 88.917,190.865 87.787 C 190.815 86.658,190.774 87.653,190.775 90.000 M206.600 98.055 C 206.930 98.118,207.470 98.118,207.800 98.055 C 208.130 97.991,207.860 97.939,207.200 97.939 C 206.540 97.939,206.270 97.991,206.600 98.055 M190.777 102.800 C 190.777 105.440,190.817 106.484,190.866 105.120 C 190.914 103.756,190.914 101.596,190.865 100.320 C 190.816 99.044,190.777 100.160,190.777 102.800 M176.621 101.733 C 176.622 102.760,176.670 103.147,176.728 102.594 C 176.786 102.041,176.785 101.201,176.726 100.727 C 176.667 100.254,176.620 100.707,176.621 101.733 M178.106 111.280 C 178.224 111.398,179.089 111.457,180.027 111.411 L 181.733 111.327 179.812 111.197 C 178.755 111.125,177.988 111.163,178.106 111.280 M211.641 111.267 C 211.709 111.377,213.018 111.467,214.549 111.467 C 216.080 111.467,217.333 111.377,217.333 111.267 C 217.333 111.157,216.025 111.067,214.425 111.067 C 212.826 111.067,211.573 111.157,211.641 111.267 M147.000 111.396 C 147.697 111.451,148.837 111.451,149.533 111.396 C 150.230 111.341,149.660 111.296,148.267 111.296 C 146.873 111.296,146.303 111.341,147.000 111.396 M158.467 111.394 C 159.017 111.452,159.917 111.452,160.467 111.394 C 161.017 111.337,160.567 111.290,159.467 111.290 C 158.367 111.290,157.917 111.337,158.467 111.394 M188.482 111.399 C 190.287 111.446,193.167 111.445,194.882 111.399 C 196.597 111.353,195.120 111.315,191.600 111.315 C 188.080 111.315,186.677 111.353,188.482 111.399 M201.943 111.397 C 202.792 111.450,204.112 111.450,204.876 111.396 C 205.641 111.343,204.947 111.299,203.333 111.300 C 201.720 111.300,201.094 111.344,201.943 111.397 M159.262 169.867 C 159.262 170.380,159.317 170.590,159.384 170.333 C 159.451 170.077,159.451 169.657,159.384 169.400 C 159.317 169.143,159.262 169.353,159.262 169.867 M137.129 194.400 C 137.129 194.913,137.183 195.123,137.250 194.867 C 137.318 194.610,137.318 194.190,137.250 193.933 C 137.183 193.677,137.129 193.887,137.129 194.400 M179.293 196.267 C 179.293 197.513,179.339 198.023,179.395 197.400 C 179.451 196.777,179.451 195.757,179.395 195.133 C 179.339 194.510,179.293 195.020,179.293 196.267 M221.413 196.267 C 221.413 197.073,221.463 197.403,221.524 197.000 C 221.585 196.597,221.585 195.937,221.524 195.533 C 221.463 195.130,221.413 195.460,221.413 196.267 M137.129 198.133 C 137.129 198.647,137.183 198.857,137.250 198.600 C 137.318 198.343,137.318 197.923,137.250 197.667 C 137.183 197.410,137.129 197.620,137.129 198.133 M210.995 238.400 C 210.995 238.913,211.050 239.123,211.117 238.867 C 211.184 238.610,211.184 238.190,211.117 237.933 C 211.050 237.677,210.995 237.887,210.995 238.400 M168.888 239.867 C 168.889 240.893,168.937 241.281,168.995 240.727 C 169.052 240.174,169.051 239.334,168.992 238.861 C 168.934 238.387,168.886 238.840,168.888 239.867 M155.283 239.867 C 155.284 240.747,155.334 241.075,155.393 240.595 C 155.453 240.116,155.451 239.396,155.391 238.995 C 155.330 238.595,155.281 238.987,155.283 239.867 M210.995 241.067 C 210.995 241.580,211.050 241.790,211.117 241.533 C 211.184 241.277,211.184 240.857,211.117 240.600 C 211.050 240.343,210.995 240.553,210.995 241.067 " stroke="none" fill="#e4bc67" fill-rule="evenodd"></path><path id="path4" d="M110.720 34.333 L 117.039 34.410 117.137 35.805 L 117.235 37.200 117.284 35.667 L 117.333 34.133 110.867 34.195 L 104.400 34.257 110.720 34.333 M120.064 48.867 L 120.129 63.600 120.200 49.005 L 120.271 34.410 126.336 34.333 L 132.400 34.256 126.200 34.195 L 120.000 34.133 120.064 48.867 M137.267 34.331 C 138.330 34.382,140.070 34.382,141.133 34.331 C 142.197 34.281,141.327 34.239,139.200 34.239 C 137.073 34.239,136.203 34.281,137.267 34.331 M127.278 38.065 C 128.274 38.116,129.834 38.116,130.744 38.064 C 131.655 38.012,130.840 37.970,128.933 37.970 C 127.027 37.971,126.282 38.013,127.278 38.065 M109.300 59.807 C 109.414 59.921,111.299 59.981,113.487 59.940 L 117.467 59.865 113.279 59.732 C 110.976 59.660,109.185 59.693,109.300 59.807 M128.855 59.932 L 132.243 60.016 132.336 61.808 L 132.429 63.600 132.481 61.667 L 132.533 59.733 129.000 59.791 L 125.467 59.849 128.855 59.932 M35.283 60.466 C 37.308 60.511,40.548 60.511,42.483 60.466 C 44.417 60.420,42.760 60.383,38.800 60.383 C 34.840 60.384,33.257 60.421,35.283 60.466 M172.604 81.791 C 173.009 81.853,173.609 81.851,173.937 81.788 C 174.265 81.724,173.933 81.674,173.200 81.676 C 172.467 81.678,172.198 81.730,172.604 81.791 M136.922 92.667 C 136.922 98.533,136.957 100.895,137.000 97.916 C 137.043 94.936,137.043 90.136,137.000 87.249 C 136.957 84.362,136.921 86.800,136.922 92.667 M141.988 92.800 C 141.988 98.740,142.023 101.170,142.066 98.200 C 142.109 95.230,142.109 90.370,142.066 87.400 C 142.023 84.430,141.988 86.860,141.988 92.800 M161.191 96.667 C 161.191 104.733,161.225 108.072,161.266 104.086 C 161.308 100.099,161.308 93.499,161.267 89.419 C 161.225 85.338,161.191 88.600,161.191 96.667 M185.458 96.667 C 185.458 104.733,185.492 108.072,185.533 104.086 C 185.575 100.099,185.575 93.499,185.533 89.419 C 185.492 85.338,185.458 88.600,185.458 96.667 M200.658 96.667 C 200.658 104.733,200.692 108.072,200.733 104.086 C 200.775 100.099,200.775 93.499,200.733 89.419 C 200.692 85.338,200.658 88.600,200.658 96.667 M192.611 85.798 C 193.607 85.849,195.167 85.849,196.078 85.797 C 196.988 85.745,196.173 85.703,194.267 85.704 C 192.360 85.704,191.615 85.747,192.611 85.798 M211.534 90.000 C 211.537 90.587,211.591 90.795,211.655 90.464 C 211.719 90.132,211.717 89.652,211.650 89.397 C 211.583 89.142,211.531 89.413,211.534 90.000 M111.800 94.330 C 112.643 94.383,114.023 94.383,114.867 94.330 C 115.710 94.277,115.020 94.234,113.333 94.234 C 111.647 94.234,110.957 94.277,111.800 94.330 M196.090 96.000 C 196.090 97.100,196.137 97.550,196.194 97.000 C 196.252 96.450,196.252 95.550,196.194 95.000 C 196.137 94.450,196.090 94.900,196.090 96.000 M150.457 102.867 C 150.514 111.325,150.604 110.369,150.732 99.933 C 150.769 96.890,150.710 94.400,150.600 94.400 C 150.490 94.400,150.426 98.210,150.457 102.867 M206.603 94.589 C 206.935 94.652,207.415 94.650,207.670 94.583 C 207.925 94.516,207.653 94.464,207.067 94.467 C 206.480 94.470,206.271 94.525,206.603 94.589 M111.800 98.064 C 112.643 98.117,114.023 98.117,114.867 98.064 C 115.710 98.011,115.020 97.968,113.333 97.968 C 111.647 97.968,110.957 98.011,111.800 98.064 M59.395 99.400 L 70.656 99.472 70.734 105.136 L 70.811 110.800 70.872 105.000 L 70.933 99.200 59.533 99.264 L 48.133 99.327 59.395 99.400 M192.611 107.665 C 193.607 107.716,195.167 107.716,196.078 107.664 C 196.988 107.612,196.173 107.570,194.267 107.570 C 192.360 107.571,191.615 107.613,192.611 107.665 M133.400 111.650 C 133.657 111.718,134.077 111.718,134.333 111.650 C 134.590 111.583,134.380 111.529,133.867 111.529 C 133.353 111.529,133.143 111.583,133.400 111.650 M172.070 111.658 C 172.476 111.719,173.076 111.718,173.404 111.654 C 173.732 111.591,173.400 111.541,172.667 111.543 C 171.933 111.545,171.665 111.597,172.070 111.658 M235.019 196.267 C 235.019 197.220,235.067 197.610,235.126 197.133 C 235.185 196.657,235.185 195.877,235.126 195.400 C 235.067 194.923,235.019 195.313,235.019 196.267 M160.533 248.533 L 153.467 248.680 160.451 248.740 C 164.885 248.778,167.495 248.703,167.600 248.533 C 167.691 248.387,167.728 248.294,167.682 248.327 C 167.637 248.360,164.420 248.453,160.533 248.533 M237.866 248.600 C 237.867 248.710,241.017 248.775,244.867 248.745 C 251.880 248.689,251.075 248.597,242.466 248.468 C 239.936 248.431,237.866 248.490,237.866 248.600 M199.133 248.733 C 201.077 248.778,204.257 248.778,206.200 248.733 C 208.143 248.687,206.553 248.650,202.667 248.650 C 198.780 248.650,197.190 248.687,199.133 248.733 M141.155 257.533 C 170.464 257.571,218.344 257.571,247.555 257.533 C 276.766 257.496,252.787 257.465,194.267 257.465 C 135.747 257.465,111.846 257.496,141.155 257.533 M113.067 313.467 C 113.863 314.273,114.575 314.933,114.648 314.933 C 114.722 314.933,114.130 314.273,113.333 313.467 C 112.537 312.660,111.825 312.000,111.752 312.000 C 111.678 312.000,112.270 312.660,113.067 313.467 " stroke="none" fill="#f4ddb5" fill-rule="evenodd"></path></g></svg>