<svg id="svg" version="1.1" xmlns="http://www.w3.org/2000/svg" xmlns:xlink="http://www.w3.org/1999/xlink" width="400" height="400" viewBox="0, 0, 400,400"><g id="svgg"><path id="path0" d="M110.533 34.123 C 105.308 35.262,104.667 36.868,104.667 48.800 C 104.667 61.331,105.873 63.733,112.164 63.733 C 112.954 63.733,113.600 63.843,113.600 63.978 C 113.600 64.369,117.465 68.355,118.334 68.860 L 119.125 69.319 119.599 67.566 L 120.074 65.813 118.744 64.484 L 117.414 63.154 118.818 61.750 C 121.030 59.538,121.150 58.948,121.272 49.733 C 121.398 40.135,120.994 37.775,118.890 35.813 C 117.313 34.343,113.272 33.526,110.533 34.123 M124.802 44.733 C 124.805 62.055,125.794 64.112,133.912 63.686 C 140.546 63.338,141.200 61.726,141.200 45.733 L 141.200 34.267 138.667 34.267 L 136.133 34.267 136.000 46.000 C 135.861 58.241,135.834 58.513,134.690 59.392 C 133.974 59.941,131.918 59.812,131.234 59.174 C 130.080 58.100,130.040 57.678,129.925 45.667 L 129.815 34.133 127.307 34.133 L 124.800 34.133 124.802 44.733 M149.600 34.362 C 149.600 34.612,144.098 61.782,143.837 62.825 L 143.676 63.467 146.208 63.467 L 148.741 63.467 148.891 62.600 C 148.973 62.123,149.240 60.619,149.483 59.257 L 149.925 56.781 152.490 56.857 L 155.055 56.933 155.605 60.133 L 156.156 63.333 158.611 63.410 C 159.962 63.452,161.067 63.430,161.067 63.361 C 161.067 63.293,159.747 56.729,158.133 48.776 C 156.520 40.823,155.200 34.275,155.200 34.224 C 155.200 34.174,153.940 34.133,152.400 34.133 C 150.860 34.133,149.600 34.236,149.600 34.362 M163.911 34.311 C 163.813 34.409,163.733 41.009,163.733 48.978 L 163.733 63.467 170.012 63.467 L 176.291 63.467 176.212 61.667 L 176.133 59.867 172.600 59.792 L 169.067 59.718 169.067 46.926 L 169.067 34.133 166.578 34.133 C 165.209 34.133,164.009 34.213,163.911 34.311 M178.933 48.800 L 178.933 63.467 181.600 63.467 L 184.267 63.467 184.267 48.800 L 184.267 34.133 181.600 34.133 L 178.933 34.133 178.933 48.800 M186.578 34.311 C 186.480 34.409,186.400 35.309,186.400 36.311 L 186.400 38.133 188.933 38.133 L 191.467 38.133 191.467 50.800 L 191.467 63.467 194.133 63.467 L 196.800 63.467 196.800 50.800 L 196.800 38.133 199.067 38.133 L 201.333 38.133 201.333 36.133 L 201.333 34.133 194.044 34.133 C 190.036 34.133,186.676 34.213,186.578 34.311 M201.867 34.316 C 201.867 34.417,203.187 38.545,204.800 43.490 L 207.733 52.482 207.733 57.974 L 207.733 63.467 210.267 63.467 L 212.800 63.467 212.800 57.841 L 212.800 52.215 215.561 43.774 C 217.080 39.132,218.410 35.059,218.516 34.723 C 218.709 34.114,218.705 34.113,216.251 34.190 L 213.793 34.267 212.162 39.779 C 211.264 42.811,210.465 45.358,210.384 45.438 C 210.238 45.584,209.790 44.269,207.741 37.667 L 206.644 34.133 204.255 34.133 C 202.942 34.133,201.867 34.216,201.867 34.316 M40.041 57.690 L 30.133 80.981 30.133 86.757 L 30.133 92.533 41.600 92.533 L 53.067 92.533 53.067 101.600 L 53.067 110.667 59.733 110.667 L 66.400 110.667 66.400 101.600 L 66.400 92.533 70.133 92.533 L 73.867 92.533 73.867 87.067 L 73.867 81.600 70.133 81.600 L 66.400 81.600 66.400 58.000 L 66.400 34.400 58.174 34.400 L 49.949 34.400 40.041 57.690 M114.929 38.621 C 115.959 39.652,116.055 40.715,115.952 50.000 C 115.877 56.769,115.808 57.840,115.398 58.590 C 114.489 60.252,111.513 60.332,110.457 58.722 C 109.971 57.980,109.605 43.270,110.005 40.557 C 110.382 38.003,113.202 36.894,114.929 38.621 M153.477 47.373 C 153.977 50.431,154.389 53.023,154.393 53.133 C 154.397 53.243,153.560 53.333,152.533 53.333 C 150.776 53.333,150.666 53.298,150.663 52.733 C 150.658 51.923,152.355 41.599,152.474 41.718 C 152.525 41.770,152.977 44.314,153.477 47.373 M53.067 65.600 L 53.067 81.600 47.333 81.600 C 44.180 81.600,41.600 81.512,41.600 81.404 C 41.600 81.139,52.896 49.600,52.991 49.600 C 53.033 49.600,53.067 56.800,53.067 65.600 M165.600 81.970 C 160.459 83.110,159.867 84.643,159.867 96.800 L 159.867 105.733 160.702 107.496 C 162.059 110.360,164.102 111.510,167.877 111.533 C 173.333 111.567,175.455 109.288,175.893 102.924 L 176.076 100.267 173.371 100.267 L 170.667 100.267 170.666 103.000 C 170.664 106.954,169.527 108.376,167.031 107.544 C 165.248 106.949,165.209 106.739,165.115 97.248 C 165.010 86.540,165.247 85.600,168.056 85.600 C 170.044 85.600,170.667 86.613,170.667 89.846 L 170.667 92.533 173.373 92.533 L 176.079 92.533 175.900 89.992 C 175.428 83.275,171.946 80.563,165.600 81.970 M227.525 81.884 C 224.691 82.382,222.848 83.913,221.935 86.525 C 221.113 88.880,221.239 104.902,222.097 107.031 C 224.613 113.270,234.854 113.269,237.370 107.030 C 238.354 104.589,238.348 88.739,237.362 86.267 C 235.955 82.739,232.192 81.062,227.525 81.884 M105.067 96.667 L 105.067 111.200 111.200 111.200 L 117.333 111.200 117.333 109.333 L 117.333 107.467 113.867 107.467 L 110.400 107.467 110.400 102.667 L 110.400 97.867 113.067 97.867 L 115.733 97.867 115.733 96.000 L 115.733 94.133 113.067 94.133 L 110.400 94.133 110.400 90.008 L 110.400 85.883 113.800 85.808 L 117.200 85.733 117.279 83.933 L 117.358 82.133 111.212 82.133 L 105.067 82.133 105.067 96.667 M120.267 96.687 L 120.267 111.241 125.400 111.132 C 135.242 110.923,136.037 109.931,136.210 97.652 C 136.411 83.399,135.495 82.133,124.983 82.133 L 120.267 82.133 120.267 96.687 M139.795 93.800 C 139.903 106.657,139.949 107.033,141.683 109.207 C 144.205 112.367,151.853 112.388,154.254 109.240 C 155.983 106.973,156.091 106.108,156.206 93.533 L 156.311 82.133 153.622 82.133 L 150.933 82.133 150.927 93.533 C 150.922 104.158,150.887 105.009,150.415 106.050 C 149.751 107.512,148.389 108.015,146.844 107.369 C 144.973 106.587,144.953 106.447,144.850 93.533 L 144.760 82.133 142.229 82.133 L 139.698 82.133 139.795 93.800 M183.733 82.348 C 183.733 82.560,178.277 109.451,178.001 110.600 C 177.859 111.190,177.899 111.200,180.367 111.200 L 182.878 111.200 183.319 108.733 C 183.561 107.377,183.827 105.877,183.909 105.400 L 184.059 104.533 186.645 104.533 L 189.230 104.533 189.703 107.501 C 189.963 109.133,190.239 110.633,190.317 110.834 C 190.464 111.217,195.200 111.397,195.200 111.020 C 195.200 110.754,189.603 83.148,189.438 82.600 C 189.289 82.105,183.733 81.859,183.733 82.348 M194.933 84.000 L 194.933 85.867 197.333 85.867 L 199.733 85.867 199.733 98.533 L 199.733 111.200 202.397 111.200 L 205.061 111.200 205.131 98.600 L 205.200 86.000 207.533 85.923 L 209.867 85.846 209.867 83.990 L 209.867 82.133 202.400 82.133 L 194.933 82.133 194.933 84.000 M212.267 96.667 L 212.267 111.200 214.800 111.200 L 217.333 111.200 217.333 96.667 L 217.333 82.133 214.800 82.133 L 212.267 82.133 212.267 96.667 M241.867 96.655 L 241.867 111.200 244.133 111.200 L 246.400 111.200 246.408 102.600 L 246.416 94.000 249.979 102.533 L 253.542 111.067 255.304 111.146 L 257.067 111.224 257.067 96.679 L 257.067 82.133 254.933 82.133 L 252.800 82.133 252.800 90.187 C 252.800 95.165,252.705 98.143,252.552 97.987 C 252.415 97.847,250.801 94.253,248.966 90.000 L 245.629 82.267 243.748 82.188 L 241.867 82.110 241.867 96.655 M231.775 86.323 C 232.650 87.198,232.787 88.584,232.794 96.615 C 232.801 105.328,232.651 106.440,231.361 107.226 C 229.643 108.274,227.459 107.509,226.951 105.681 C 226.581 104.347,226.575 89.008,226.944 87.679 C 227.504 85.663,230.323 84.871,231.775 86.323 M129.526 86.393 C 130.754 87.141,130.800 87.511,130.800 96.667 C 130.800 107.106,130.676 107.467,127.080 107.467 L 125.600 107.467 125.600 96.667 L 125.600 85.867 127.133 85.868 C 128.187 85.868,128.936 86.033,129.526 86.393 M187.609 94.968 C 188.114 97.956,188.528 100.550,188.530 100.733 C 188.532 100.969,187.984 101.067,186.667 101.067 C 185.357 101.067,184.797 100.967,184.788 100.733 C 184.770 100.209,186.524 89.370,186.613 89.458 C 186.657 89.501,187.105 91.981,187.609 94.968 M304.196 161.076 C 299.163 162.334,297.768 164.847,297.649 172.867 L 297.563 178.667 306.134 178.667 L 314.705 178.667 314.619 173.000 C 314.539 167.701,314.492 167.242,313.898 165.928 C 312.324 162.444,307.790 160.177,304.196 161.076 M93.245 175.667 L 89.599 178.533 89.666 249.583 L 89.733 320.633 133.333 332.710 L 176.933 344.788 181.246 344.794 L 185.558 344.800 225.379 332.154 C 247.280 325.198,267.000 318.971,269.200 318.315 L 273.200 317.123 273.264 247.828 L 273.327 178.533 269.831 175.779 C 267.908 174.264,266.169 172.961,265.967 172.884 C 265.656 172.764,265.600 183.340,265.597 242.171 L 265.595 311.600 225.264 324.611 L 184.933 337.623 181.237 337.611 L 177.541 337.600 138.304 326.651 C 116.723 320.630,98.677 315.580,98.200 315.431 L 97.333 315.159 97.333 243.979 C 97.333 204.831,97.234 172.800,97.112 172.800 C 96.990 172.800,95.250 174.090,93.245 175.667 M104.866 240.441 L 104.933 307.855 140.933 318.723 C 160.733 324.700,176.963 329.593,177.000 329.596 C 177.037 329.598,177.067 303.704,177.067 272.053 L 177.067 214.507 141.305 193.853 C 121.637 182.494,105.377 173.161,105.172 173.114 C 104.853 173.040,104.809 182.828,104.866 240.441 M221.333 193.956 L 185.200 214.831 185.133 272.247 L 185.065 329.663 185.666 329.512 C 185.996 329.429,202.375 324.525,222.064 318.614 L 257.861 307.867 257.864 240.467 C 257.865 203.397,257.777 173.070,257.667 173.074 C 257.557 173.079,241.207 182.475,221.333 193.956 M297.591 245.400 L 297.583 305.467 301.779 320.199 C 304.087 328.301,306.058 334.841,306.159 334.732 C 306.259 334.623,308.214 327.965,310.504 319.936 L 314.667 305.339 314.667 245.336 L 314.667 185.333 306.133 185.333 L 297.600 185.333 297.591 245.400 " stroke="none" fill="#fbfbfb" fill-rule="evenodd"></path><path id="path1" d="M0.000 200.000 L 0.000 400.000 200.000 400.000 L 400.000 400.000 400.000 200.000 L 400.000 0.000 200.000 0.000 L 0.000 0.000 0.000 200.000 M117.467 34.718 C 120.780 36.435,121.577 39.131,121.592 48.674 C 121.605 57.361,120.977 60.227,118.619 62.246 L 117.536 63.172 118.885 64.486 L 120.234 65.800 119.829 67.367 C 119.606 68.228,119.322 69.039,119.198 69.167 C 118.714 69.669,115.396 66.839,114.042 64.770 C 113.663 64.189,113.331 64.050,112.060 63.934 C 105.669 63.353,104.271 60.637,104.271 48.800 C 104.271 39.971,104.829 37.386,107.150 35.463 C 109.300 33.682,114.713 33.291,117.467 34.718 M66.400 57.867 L 66.400 81.600 70.267 81.600 L 74.133 81.600 74.133 87.200 L 74.133 92.800 70.267 92.800 L 66.400 92.800 66.400 101.867 L 66.400 110.933 59.733 110.933 L 53.067 110.933 53.067 101.867 L 53.067 92.800 41.467 92.800 L 29.867 92.800 29.867 87.038 L 29.867 81.277 39.632 58.315 C 45.002 45.686,49.522 35.078,49.674 34.743 L 49.952 34.133 58.176 34.133 L 66.400 34.133 66.400 57.867 M130.133 45.215 C 130.133 58.672,130.233 59.261,132.567 59.633 C 135.743 60.139,135.851 59.696,135.946 45.800 L 136.026 34.133 138.680 34.133 L 141.333 34.133 141.333 45.411 C 141.333 57.736,141.239 58.685,139.782 61.063 C 137.301 65.109,128.690 64.962,126.216 60.831 C 124.878 58.596,124.800 57.751,124.800 45.454 L 124.800 34.133 127.467 34.133 L 130.133 34.133 130.133 45.215 M158.239 48.601 C 159.838 56.557,161.158 63.187,161.173 63.333 C 161.189 63.494,160.198 63.600,158.673 63.600 L 156.146 63.600 155.831 62.133 C 155.658 61.327,155.374 59.792,155.199 58.724 L 154.882 56.781 152.449 56.857 L 150.017 56.933 149.421 60.267 C 149.094 62.100,148.820 63.630,148.813 63.667 C 148.737 64.060,143.733 63.667,143.730 63.267 C 143.727 62.829,149.241 35.189,149.475 34.467 C 149.553 34.227,150.393 34.134,152.458 34.134 L 155.333 34.135 158.239 48.601 M169.333 46.933 L 169.333 59.733 172.800 59.733 L 176.267 59.733 176.267 61.733 L 176.267 63.733 170.000 63.733 L 163.733 63.733 163.733 48.933 L 163.733 34.133 166.533 34.133 L 169.333 34.133 169.333 46.933 M184.267 48.933 L 184.267 63.733 181.600 63.733 L 178.933 63.733 178.933 48.933 L 178.933 34.133 181.600 34.133 L 184.267 34.133 184.267 48.933 M208.543 39.723 C 209.486 42.797,210.330 45.167,210.420 44.990 C 210.510 44.812,211.280 42.297,212.132 39.400 L 213.681 34.133 216.275 34.133 L 218.869 34.133 215.838 43.400 L 212.808 52.667 212.804 58.210 L 212.800 63.753 210.200 63.676 L 207.600 63.600 207.467 57.600 L 207.333 51.600 204.533 43.069 L 201.733 34.537 201.600 36.402 L 201.467 38.267 199.133 38.344 L 196.800 38.421 196.800 51.086 L 196.800 63.752 194.067 63.676 L 191.333 63.600 191.264 51.000 L 191.195 38.400 188.797 38.400 L 186.400 38.400 186.400 36.267 L 186.400 34.133 196.614 34.133 L 206.828 34.133 208.543 39.723 M111.803 38.164 C 110.147 38.643,110.104 38.936,110.190 49.229 L 110.267 58.447 111.015 59.090 C 112.431 60.308,114.678 59.875,115.356 58.254 C 115.907 56.934,115.906 40.663,115.355 39.343 C 115.021 38.545,113.626 37.753,112.800 37.892 C 112.727 37.905,112.278 38.027,111.803 38.164 M151.626 47.139 C 151.219 49.739,150.824 52.137,150.748 52.467 C 150.614 53.042,150.680 53.067,152.371 53.067 C 153.748 53.067,154.133 52.980,154.133 52.673 C 154.133 52.137,152.557 42.601,152.451 42.495 C 152.404 42.449,152.033 44.538,151.626 47.139 M47.298 65.715 L 41.662 81.467 47.270 81.539 C 50.355 81.578,52.921 81.567,52.974 81.514 C 53.028 81.461,53.040 74.341,53.002 65.691 L 52.933 49.964 47.298 65.715 M172.315 82.480 C 174.837 83.714,176.000 86.274,176.000 90.589 L 176.000 92.800 173.333 92.800 L 170.667 92.800 170.665 90.600 C 170.663 88.015,170.307 86.512,169.606 86.136 C 168.817 85.714,166.764 85.807,166.284 86.287 C 165.293 87.279,165.224 87.795,165.119 95.067 C 164.959 106.021,165.335 107.577,168.097 107.412 C 170.093 107.293,170.493 106.604,170.624 103.056 L 170.727 100.267 173.398 100.267 L 176.069 100.267 175.937 103.133 C 175.650 109.398,173.610 111.567,167.982 111.589 C 163.446 111.607,161.153 110.016,159.926 106.000 C 159.370 104.180,159.478 88.795,160.060 86.916 C 161.527 82.179,167.374 80.063,172.315 82.480 M234.235 82.506 C 237.461 84.085,238.152 86.161,238.325 94.800 C 238.603 108.605,237.098 111.545,229.733 111.584 C 222.472 111.623,221.200 109.379,221.200 96.533 C 221.200 87.526,221.344 86.503,222.921 84.326 C 224.893 81.604,230.537 80.697,234.235 82.506 M117.333 83.867 L 117.333 85.867 113.867 85.867 L 110.400 85.867 110.400 90.000 L 110.400 94.133 113.212 94.133 L 116.023 94.133 115.945 96.067 L 115.867 98.000 113.133 98.076 L 110.400 98.152 110.400 102.809 L 110.400 107.467 113.867 107.467 L 117.333 107.467 117.333 109.472 L 117.333 111.476 111.133 111.405 L 104.933 111.333 104.864 96.600 L 104.795 81.867 111.064 81.867 L 117.333 81.867 117.333 83.867 M130.533 82.270 C 133.010 82.792,134.309 83.728,135.330 85.725 L 136.133 87.296 136.133 96.515 C 136.133 110.381,135.440 111.309,125.067 111.326 L 120.133 111.333 120.064 96.600 L 119.995 81.867 124.331 81.871 C 127.117 81.874,129.334 82.017,130.533 82.270 M145.073 93.000 C 145.081 106.628,145.245 107.467,147.899 107.467 C 150.752 107.467,150.785 107.314,150.882 93.533 L 150.964 81.867 153.630 81.867 L 156.297 81.867 156.208 93.800 C 156.111 106.759,156.116 106.714,154.537 109.107 C 152.208 112.635,143.719 112.524,141.273 108.933 C 139.838 106.827,139.733 105.759,139.733 93.277 L 139.733 81.867 142.400 81.867 L 145.067 81.867 145.073 93.000 M189.477 82.200 C 189.880 83.263,195.371 111.103,195.211 111.278 C 195.105 111.394,193.956 111.454,192.659 111.411 L 190.299 111.333 190.110 110.533 C 190.006 110.093,189.717 108.563,189.469 107.133 L 189.017 104.533 186.642 104.533 C 185.336 104.533,184.260 104.563,184.251 104.600 C 184.243 104.637,183.967 106.167,183.637 108.000 L 183.038 111.333 180.452 111.410 C 178.252 111.475,177.867 111.424,177.867 111.069 C 177.867 110.725,183.139 84.432,183.602 82.467 C 183.770 81.756,189.214 81.509,189.477 82.200 M210.000 84.000 L 210.000 86.000 207.669 86.077 L 205.339 86.154 205.269 98.744 L 205.200 111.333 202.467 111.409 L 199.733 111.485 199.733 98.819 L 199.733 86.153 197.267 86.077 L 194.800 86.000 194.720 84.295 C 194.594 81.641,193.913 81.849,202.460 81.929 L 210.000 82.000 210.000 84.000 M217.536 96.600 L 217.467 111.333 214.800 111.333 L 212.133 111.333 212.064 96.600 L 211.995 81.867 214.800 81.867 L 217.605 81.867 217.536 96.600 M249.027 89.809 L 252.400 97.618 252.471 89.732 L 252.541 81.846 254.871 81.923 L 257.200 82.000 257.200 96.667 L 257.200 111.333 255.348 111.333 L 253.496 111.333 250.015 102.933 L 246.533 94.533 246.463 103.010 L 246.392 111.487 244.063 111.410 L 241.733 111.333 241.664 96.933 C 241.583 80.155,241.351 81.822,243.757 81.922 L 245.655 82.000 249.027 89.809 M125.600 96.666 L 125.600 107.541 127.210 107.395 C 130.594 107.088,130.671 106.840,130.639 96.400 C 130.607 86.222,130.635 86.311,127.267 85.963 L 125.600 85.791 125.600 96.666 M227.748 86.385 C 226.956 87.177,226.899 88.001,226.986 97.423 L 227.067 106.180 227.815 106.823 C 228.850 107.713,230.617 107.713,231.652 106.823 L 232.400 106.180 232.400 96.711 L 232.400 87.243 231.754 86.555 C 230.910 85.657,228.575 85.558,227.748 86.385 M185.766 95.110 C 185.353 97.726,184.959 100.077,184.890 100.333 C 184.779 100.743,184.977 100.800,186.515 100.800 C 188.600 100.800,188.495 101.313,187.589 95.604 C 186.647 89.662,186.628 89.657,185.766 95.110 M309.163 161.342 C 311.008 162.033,312.734 163.551,313.742 165.372 L 314.533 166.800 314.618 172.733 L 314.703 178.667 305.995 178.667 L 297.287 178.667 297.397 173.133 C 297.525 166.732,297.733 165.866,299.661 163.722 C 302.134 160.971,305.750 160.065,309.163 161.342 M97.336 243.800 L 97.340 315.067 137.270 326.205 L 177.200 337.342 181.309 337.338 L 185.418 337.333 222.642 325.302 C 243.116 318.685,261.157 312.861,262.733 312.359 L 265.600 311.448 265.600 241.968 C 265.600 201.243,265.699 172.526,265.838 172.578 C 265.970 172.627,267.765 173.987,269.829 175.600 L 273.580 178.533 273.523 247.859 L 273.467 317.186 270.400 318.095 C 268.713 318.595,249.041 324.809,226.684 331.902 L 186.035 344.800 181.351 344.812 L 176.667 344.825 133.000 332.751 L 89.333 320.678 89.344 249.606 L 89.354 178.533 93.144 175.544 C 95.228 173.901,97.023 172.551,97.133 172.544 C 97.243 172.538,97.335 204.603,97.336 243.800 M141.208 193.659 L 177.333 214.517 177.333 272.221 C 177.333 324.678,177.295 329.909,176.912 329.762 C 176.681 329.673,160.751 324.856,141.512 319.056 C 122.274 313.256,106.143 308.387,105.667 308.235 L 104.800 307.959 104.800 240.379 C 104.800 203.211,104.864 172.800,104.941 172.800 C 105.019 172.800,121.339 182.186,141.208 193.659 M258.133 240.257 C 258.133 304.231,258.109 307.727,257.667 307.960 C 257.410 308.095,241.120 313.036,221.467 318.940 C 201.813 324.845,185.583 329.731,185.400 329.800 C 185.134 329.899,185.067 318.296,185.067 272.345 L 185.067 214.766 221.400 193.784 C 241.383 182.244,257.823 172.801,257.933 172.801 C 258.043 172.800,258.133 203.156,258.133 240.257 M314.667 245.603 L 314.667 305.873 310.504 320.470 C 308.214 328.498,306.259 335.156,306.158 335.265 C 306.058 335.375,304.031 328.652,301.655 320.327 L 297.333 305.190 297.333 245.261 L 297.333 185.333 306.000 185.333 L 314.667 185.333 314.667 245.603 " stroke="none" fill="#c41c2c" fill-rule="evenodd"></path><path id="path2" d="M54.067 34.333 C 56.303 34.377,59.963 34.377,62.200 34.333 C 64.437 34.288,62.607 34.252,58.133 34.252 C 53.660 34.252,51.830 34.288,54.067 34.333 M129.988 44.533 C 129.988 50.180,130.023 52.490,130.066 49.667 C 130.110 46.843,130.110 42.223,130.066 39.400 C 130.023 36.577,129.988 38.887,129.988 44.533 M169.190 47.067 C 169.190 54.107,169.224 56.948,169.266 53.382 C 169.309 49.815,169.308 44.055,169.266 40.582 C 169.224 37.108,169.190 40.027,169.190 47.067 M201.423 36.267 C 201.423 37.367,201.470 37.817,201.528 37.267 C 201.585 36.717,201.585 35.817,201.528 35.267 C 201.470 34.717,201.423 35.167,201.423 36.267 M191.323 50.800 C 191.323 57.840,191.358 60.682,191.400 57.115 C 191.442 53.548,191.442 47.788,191.400 44.315 C 191.358 40.842,191.323 43.760,191.323 50.800 M115.852 48.933 C 115.852 53.480,115.888 55.377,115.933 53.150 C 115.977 50.922,115.977 47.202,115.933 44.883 C 115.888 42.564,115.852 44.387,115.852 48.933 M151.533 53.261 C 152.083 53.318,152.983 53.318,153.533 53.261 C 154.083 53.203,153.633 53.156,152.533 53.156 C 151.433 53.156,150.983 53.203,151.533 53.261 M112.203 63.922 C 112.535 63.986,113.015 63.983,113.270 63.917 C 113.525 63.850,113.253 63.798,112.667 63.801 C 112.080 63.804,111.871 63.858,112.203 63.922 M132.467 63.922 C 132.797 63.985,133.337 63.985,133.667 63.922 C 133.997 63.858,133.727 63.806,133.067 63.806 C 132.407 63.806,132.137 63.858,132.467 63.922 M29.992 86.800 L 30.000 92.667 41.533 92.671 L 53.067 92.675 41.605 92.601 L 30.144 92.528 30.064 86.731 L 29.984 80.933 29.992 86.800 M73.927 86.993 L 73.867 92.519 70.067 92.601 L 66.267 92.683 70.075 92.741 C 74.630 92.812,74.165 93.503,74.067 86.792 L 73.988 81.467 73.927 86.993 M104.922 82.200 C 104.852 82.383,104.827 89.013,104.866 96.933 L 104.938 111.333 105.002 96.738 L 105.067 82.143 111.133 82.066 L 117.200 81.989 111.125 81.928 C 106.465 81.881,105.020 81.944,104.922 82.200 M120.122 82.200 C 120.052 82.383,120.027 89.013,120.066 96.933 L 120.138 111.333 120.202 96.740 L 120.267 82.147 124.333 82.066 L 128.400 81.985 124.325 81.926 C 121.266 81.881,120.218 81.950,120.122 82.200 M142.263 82.061 L 144.794 82.153 144.868 92.610 L 144.943 103.067 144.938 92.533 L 144.933 82.000 142.333 81.985 L 139.732 81.969 142.263 82.061 M152.333 82.063 C 153.030 82.118,154.170 82.118,154.867 82.063 C 155.563 82.008,154.993 81.963,153.600 81.963 C 152.207 81.963,151.637 82.008,152.333 82.063 M186.524 82.061 C 188.203 82.120,189.266 82.273,189.411 82.477 C 189.575 82.707,189.609 82.685,189.532 82.400 C 189.445 82.078,188.879 81.997,186.645 81.984 L 183.867 81.968 186.524 82.061 M198.600 82.066 C 200.690 82.111,204.110 82.111,206.200 82.066 C 208.290 82.021,206.580 81.984,202.400 81.984 C 198.220 81.984,196.510 82.021,198.600 82.066 M212.126 82.190 C 212.054 82.379,212.027 89.013,212.066 96.933 L 212.138 111.333 212.202 96.733 L 212.267 82.133 214.798 82.133 L 217.329 82.133 217.401 96.600 L 217.473 111.067 217.470 96.533 L 217.467 82.000 214.862 81.924 C 212.928 81.867,212.224 81.936,212.126 82.190 M242.733 82.061 C 243.283 82.118,244.183 82.118,244.733 82.061 C 245.283 82.003,244.833 81.956,243.733 81.956 C 242.633 81.956,242.183 82.003,242.733 82.061 M252.654 82.203 C 252.583 82.388,252.559 86.078,252.600 90.403 L 252.675 98.267 252.738 90.211 L 252.800 82.155 255.000 82.065 L 257.200 81.975 254.992 81.921 C 253.419 81.882,252.746 81.963,252.654 82.203 M196.067 86.063 C 196.763 86.118,197.903 86.118,198.600 86.063 C 199.297 86.008,198.727 85.963,197.333 85.963 C 195.940 85.963,195.370 86.008,196.067 86.063 M205.189 86.200 C 205.119 86.383,205.094 92.113,205.133 98.933 L 205.205 111.333 205.269 98.744 L 205.333 86.154 207.667 86.065 L 210.000 85.976 207.658 85.922 C 205.989 85.882,205.280 85.962,205.189 86.200 M232.652 96.667 C 232.652 101.213,232.688 103.111,232.733 100.883 C 232.777 98.656,232.777 94.936,232.733 92.617 C 232.688 90.297,232.652 92.120,232.652 96.667 M130.783 96.400 C 130.783 100.360,130.820 102.017,130.866 100.083 C 130.911 98.148,130.911 94.908,130.866 92.883 C 130.821 90.857,130.784 92.440,130.783 96.400 M159.580 96.667 C 159.580 99.747,159.619 100.970,159.666 99.386 C 159.713 97.801,159.713 95.281,159.665 93.786 C 159.618 92.290,159.579 93.587,159.580 96.667 M172.067 92.729 C 172.763 92.784,173.903 92.784,174.600 92.729 C 175.297 92.674,174.727 92.629,173.333 92.629 C 171.940 92.629,171.370 92.674,172.067 92.729 M111.667 98.063 C 112.437 98.117,113.697 98.117,114.467 98.063 C 115.237 98.009,114.607 97.965,113.067 97.965 C 111.527 97.965,110.897 98.009,111.667 98.063 M56.349 110.866 C 58.227 110.912,61.227 110.912,63.016 110.866 C 64.804 110.820,63.267 110.782,59.600 110.782 C 55.933 110.782,54.470 110.820,56.349 110.866 M89.399 249.518 C 89.363 288.559,89.423 320.557,89.533 320.625 C 89.714 320.737,89.713 273.064,89.532 204.267 C 89.495 190.113,89.435 210.476,89.399 249.518 M273.465 247.867 C 273.465 286.000,273.496 301.640,273.533 282.621 C 273.571 263.603,273.571 232.403,273.533 213.288 C 273.496 194.173,273.465 209.733,273.465 247.867 M177.198 272.133 C 177.198 303.813,177.229 316.734,177.267 300.845 C 177.305 284.957,177.305 259.037,177.267 243.245 C 177.229 227.454,177.198 240.453,177.198 272.133 M179.133 337.532 C 180.343 337.581,182.323 337.581,183.533 337.532 C 184.743 337.482,183.753 337.442,181.333 337.442 C 178.913 337.442,177.923 337.482,179.133 337.532 " stroke="none" fill="#e48c94" fill-rule="evenodd"></path><path id="path3" d="" stroke="none" fill="#d9717c" fill-rule="evenodd"></path><path id="path4" d="M187.533 38.329 C 188.230 38.384,189.370 38.384,190.067 38.329 C 190.763 38.274,190.193 38.229,188.800 38.229 C 187.407 38.229,186.837 38.274,187.533 38.329 M197.941 38.330 C 198.642 38.385,199.722 38.384,200.341 38.328 C 200.960 38.272,200.387 38.227,199.067 38.228 C 197.747 38.229,197.240 38.275,197.941 38.330 M109.985 48.800 C 109.985 53.127,110.021 54.897,110.066 52.733 C 110.111 50.570,110.111 47.030,110.066 44.867 C 110.021 42.703,109.985 44.473,109.985 48.800 M104.383 48.800 C 104.383 52.687,104.420 54.277,104.466 52.333 C 104.512 50.390,104.512 47.210,104.466 45.267 C 104.420 43.323,104.383 44.913,104.383 48.800 M121.448 48.800 C 121.448 52.247,121.486 53.657,121.532 51.933 C 121.579 50.210,121.579 47.390,121.532 45.667 C 121.486 43.943,121.448 45.353,121.448 48.800 M207.592 57.933 L 207.600 63.600 210.201 63.615 L 212.801 63.631 210.273 63.539 L 207.744 63.447 207.664 57.857 L 207.584 52.266 207.592 57.933 M158.667 63.467 L 156.133 63.631 158.584 63.682 C 159.989 63.712,161.106 63.619,161.200 63.467 C 161.291 63.320,161.328 63.223,161.282 63.251 C 161.237 63.279,160.060 63.376,158.667 63.467 M145.009 63.664 C 145.784 63.718,146.984 63.717,147.676 63.662 C 148.367 63.608,147.733 63.563,146.267 63.564 C 144.800 63.565,144.234 63.610,145.009 63.664 M166.882 63.666 C 168.687 63.712,171.567 63.712,173.282 63.666 C 174.997 63.619,173.520 63.581,170.000 63.582 C 166.480 63.582,165.077 63.620,166.882 63.666 M180.200 63.663 C 180.970 63.717,182.230 63.717,183.000 63.663 C 183.770 63.609,183.140 63.565,181.600 63.565 C 180.060 63.565,179.430 63.609,180.200 63.663 M192.733 63.663 C 193.503 63.717,194.763 63.717,195.533 63.663 C 196.303 63.609,195.673 63.565,194.133 63.565 C 192.593 63.565,191.963 63.609,192.733 63.663 M194.756 84.000 C 194.756 85.100,194.803 85.550,194.861 85.000 C 194.918 84.450,194.918 83.550,194.861 83.000 C 194.803 82.450,194.756 82.900,194.756 84.000 M209.956 84.000 C 209.956 85.100,210.003 85.550,210.061 85.000 C 210.118 84.450,210.118 83.550,210.061 83.000 C 210.003 82.450,209.956 82.900,209.956 84.000 M241.730 96.667 L 241.733 111.333 244.000 111.349 L 246.267 111.364 244.069 111.272 L 241.871 111.179 241.799 96.590 L 241.726 82.000 241.730 96.667 M257.131 96.588 L 257.067 111.176 255.267 111.269 L 253.467 111.362 255.275 111.414 C 257.570 111.481,257.350 113.135,257.267 96.400 L 257.195 82.000 257.131 96.588 M226.784 96.667 C 226.784 100.920,226.821 102.623,226.866 100.450 C 226.911 98.278,226.911 94.798,226.866 92.717 C 226.821 90.636,226.784 92.413,226.784 96.667 M159.529 90.400 C 159.529 90.913,159.583 91.123,159.650 90.867 C 159.718 90.610,159.718 90.190,159.650 89.933 C 159.583 89.677,159.529 89.887,159.529 90.400 M221.183 96.667 C 221.183 100.480,221.220 102.003,221.266 100.051 C 221.312 98.099,221.312 94.979,221.266 93.118 C 221.220 91.256,221.183 92.853,221.183 96.667 M238.248 96.533 C 238.248 99.980,238.286 101.390,238.332 99.667 C 238.379 97.943,238.379 95.123,238.332 93.400 C 238.286 91.677,238.248 93.087,238.248 96.533 M115.823 96.000 C 115.823 97.100,115.870 97.550,115.928 97.000 C 115.985 96.450,115.985 95.550,115.928 95.000 C 115.870 94.450,115.823 94.900,115.823 96.000 M188.267 100.521 C 188.267 100.661,187.457 100.818,186.467 100.869 L 184.667 100.962 186.600 101.014 C 188.164 101.057,188.533 100.990,188.533 100.667 C 188.533 100.447,188.473 100.267,188.400 100.267 C 188.327 100.267,188.267 100.381,188.267 100.521 M159.529 102.933 C 159.529 103.447,159.583 103.657,159.650 103.400 C 159.718 103.143,159.718 102.723,159.650 102.467 C 159.583 102.210,159.529 102.420,159.529 102.933 M182.933 110.889 C 182.933 111.101,182.105 111.218,180.333 111.255 L 177.733 111.311 180.243 111.399 C 182.562 111.481,183.605 111.249,183.116 110.760 C 183.015 110.660,182.933 110.718,182.933 110.889 M108.067 111.399 C 109.790 111.446,112.610 111.446,114.333 111.399 C 116.057 111.353,114.647 111.315,111.200 111.315 C 107.753 111.315,106.343 111.353,108.067 111.399 M122.333 111.398 C 123.543 111.448,125.523 111.448,126.733 111.398 C 127.943 111.349,126.953 111.309,124.533 111.309 C 122.113 111.309,121.123 111.349,122.333 111.398 M191.533 111.396 C 192.230 111.451,193.370 111.451,194.067 111.396 C 194.763 111.341,194.193 111.296,192.800 111.296 C 191.407 111.296,190.837 111.341,191.533 111.396 M201.000 111.397 C 201.770 111.450,203.030 111.450,203.800 111.397 C 204.570 111.343,203.940 111.299,202.400 111.299 C 200.860 111.299,200.230 111.343,201.000 111.397 M213.542 111.397 C 214.317 111.451,215.517 111.450,216.209 111.396 C 216.901 111.341,216.267 111.297,214.800 111.297 C 213.333 111.298,212.767 111.343,213.542 111.397 M297.445 173.600 C 297.445 176.460,297.484 177.630,297.532 176.200 C 297.580 174.770,297.580 172.430,297.532 171.000 C 297.484 169.570,297.445 170.740,297.445 173.600 M257.998 240.267 C 257.998 277.447,258.029 292.657,258.067 274.067 C 258.104 255.477,258.104 225.057,258.067 206.467 C 258.029 187.877,257.998 203.087,257.998 240.267 M297.464 245.467 C 297.464 278.613,297.495 292.134,297.533 275.512 C 297.571 258.890,297.571 231.770,297.533 215.245 C 297.495 198.720,297.464 212.320,297.464 245.467 " stroke="none" fill="#d45464" fill-rule="evenodd"></path></g></svg>