<svg id="svg" version="1.1" xmlns="http://www.w3.org/2000/svg" xmlns:xlink="http://www.w3.org/1999/xlink" width="400" height="400" viewBox="0, 0, 400,400"><g id="svgg"><path id="path0" d="M48.267 33.629 C 39.260 34.650,34.276 40.028,32.343 50.811 C 31.709 54.347,31.615 90.482,32.231 93.867 C 34.454 106.088,40.715 111.591,52.400 111.593 C 59.276 111.595,62.666 110.426,66.277 106.806 C 74.441 98.624,74.994 75.039,67.207 67.179 C 62.464 62.391,51.741 62.028,47.393 66.508 L 46.341 67.592 46.474 59.596 C 46.680 47.170,47.707 44.533,52.338 44.533 C 56.029 44.533,57.241 46.137,57.728 51.667 L 57.922 53.867 64.694 53.867 L 71.467 53.867 71.465 52.200 C 71.452 38.515,63.230 31.933,48.267 33.629 M110.794 34.123 C 107.957 34.555,105.962 36.247,105.124 38.933 C 104.429 41.162,104.448 57.158,105.149 58.933 C 106.552 62.491,108.371 63.600,112.800 63.600 C 118.478 63.600,120.533 61.355,120.533 55.152 L 120.533 52.533 118.133 52.533 L 115.733 52.533 115.733 54.387 C 115.733 58.509,114.994 59.867,112.749 59.867 C 109.960 59.867,109.801 59.190,109.916 47.778 L 110.000 39.422 110.871 38.644 C 113.542 36.259,115.691 38.188,115.722 43.000 L 115.733 44.800 118.133 44.800 L 120.533 44.800 120.533 42.309 C 120.533 35.957,117.193 33.150,110.794 34.123 M124.267 48.933 L 124.267 63.467 130.400 63.467 L 136.533 63.467 136.533 61.733 L 136.533 60.000 133.067 60.000 L 129.600 60.000 129.600 47.200 L 129.600 34.400 126.933 34.400 L 124.267 34.400 124.267 48.933 M139.200 48.933 L 139.200 63.467 145.333 63.467 L 151.467 63.467 151.467 61.733 L 151.467 60.000 148.000 60.000 L 144.533 60.000 144.533 55.067 L 144.533 50.133 147.200 50.133 L 149.867 50.133 149.867 48.267 L 149.867 46.400 147.200 46.400 L 144.533 46.400 144.533 42.133 L 144.533 37.867 148.000 37.867 L 151.467 37.867 151.467 36.133 L 151.467 34.400 145.333 34.400 L 139.200 34.400 139.200 48.933 M158.799 34.724 C 158.610 35.242,153.067 62.688,153.067 63.105 C 153.067 63.383,153.621 63.467,155.455 63.467 L 157.842 63.467 157.999 62.600 C 158.085 62.123,158.363 60.593,158.618 59.200 L 159.081 56.667 161.590 56.667 L 164.099 56.667 164.293 57.467 C 164.399 57.907,164.691 59.437,164.941 60.867 L 165.396 63.467 167.765 63.467 C 169.849 63.467,170.131 63.411,170.117 63.000 C 170.108 62.743,168.814 56.233,167.243 48.533 L 164.386 34.533 161.655 34.457 C 159.617 34.401,158.892 34.468,158.799 34.724 M173.067 48.933 L 173.067 63.467 175.200 63.467 L 177.333 63.467 177.333 54.880 C 177.333 49.495,177.427 46.388,177.585 46.547 C 177.723 46.686,179.379 50.520,181.265 55.067 L 184.693 63.333 186.480 63.412 L 188.267 63.491 188.267 48.946 L 188.267 34.400 186.133 34.400 L 184.000 34.400 184.000 42.400 C 184.000 46.800,183.910 50.400,183.799 50.400 C 183.689 50.400,182.047 46.800,180.151 42.400 L 176.703 34.400 174.885 34.400 L 173.067 34.400 173.067 48.933 M200.267 34.881 C 200.267 35.145,201.167 41.649,202.267 49.333 C 203.367 57.018,204.267 63.341,204.267 63.386 C 204.267 63.893,208.541 63.388,208.661 62.867 C 208.736 62.537,209.464 58.251,210.278 53.344 C 211.091 48.436,211.796 44.382,211.843 44.334 C 211.969 44.209,212.139 45.139,213.611 54.000 C 214.343 58.400,215.009 62.330,215.092 62.733 C 215.240 63.457,215.269 63.467,217.308 63.467 L 219.375 63.467 221.320 49.800 C 222.390 42.283,223.326 35.743,223.401 35.267 L 223.536 34.400 221.402 34.400 L 219.268 34.400 219.119 35.400 C 219.037 35.950,218.514 40.030,217.958 44.467 C 217.402 48.903,216.884 52.533,216.807 52.533 C 216.730 52.533,216.016 48.663,215.220 43.933 C 214.425 39.203,213.720 35.118,213.653 34.855 C 213.549 34.446,213.280 34.388,211.789 34.455 L 210.046 34.533 208.565 43.533 C 207.750 48.483,207.018 52.533,206.938 52.533 C 206.857 52.533,206.328 48.843,205.761 44.333 C 205.194 39.823,204.670 35.743,204.597 35.267 L 204.464 34.400 202.365 34.400 C 200.521 34.400,200.267 34.458,200.267 34.881 M230.269 34.733 C 230.086 35.266,224.532 62.765,224.533 63.133 C 224.533 63.375,225.188 63.467,226.914 63.467 L 229.296 63.467 229.572 62.067 C 229.724 61.297,230.004 59.767,230.193 58.667 L 230.537 56.667 233.063 56.667 L 235.588 56.667 235.902 58.133 C 236.075 58.940,236.359 60.470,236.533 61.533 L 236.848 63.467 239.224 63.467 C 240.531 63.467,241.606 63.377,241.613 63.267 C 241.620 63.157,240.330 56.617,238.746 48.734 L 235.867 34.402 233.125 34.401 C 231.170 34.400,230.350 34.496,230.269 34.733 M241.600 36.267 L 241.600 38.133 244.000 38.133 L 246.400 38.133 246.400 50.800 L 246.400 63.467 248.931 63.467 L 251.461 63.467 251.531 50.867 L 251.600 38.267 253.933 38.190 L 256.267 38.113 256.267 36.256 L 256.267 34.400 248.933 34.400 L 241.600 34.400 241.600 36.267 M258.667 48.933 L 258.667 63.467 264.667 63.467 L 270.667 63.467 270.667 61.741 L 270.667 60.016 267.267 59.941 L 263.867 59.867 263.794 55.000 L 263.721 50.133 266.527 50.133 L 269.333 50.133 269.333 48.267 L 269.333 46.400 266.527 46.400 L 263.720 46.400 263.793 42.200 L 263.867 38.000 267.267 37.925 L 270.667 37.851 270.667 36.125 L 270.667 34.400 264.667 34.400 L 258.667 34.400 258.667 48.933 M273.867 48.910 L 273.867 63.467 276.400 63.467 L 278.933 63.467 278.933 56.800 L 278.933 50.133 280.200 50.134 L 281.467 50.135 283.199 56.801 L 284.931 63.467 287.532 63.467 C 288.963 63.467,290.133 63.398,290.133 63.314 C 290.133 63.230,289.302 60.200,288.287 56.581 C 287.271 52.961,286.401 49.799,286.354 49.554 C 286.301 49.284,286.633 48.861,287.200 48.477 C 290.060 46.543,290.556 39.231,288.005 36.621 C 286.222 34.798,285.261 34.559,279.267 34.450 L 273.867 34.353 273.867 48.910 M283.387 38.567 C 284.329 39.271,284.874 41.042,284.704 42.854 C 284.450 45.575,283.410 46.569,280.667 46.715 L 279.067 46.800 278.993 42.303 L 278.920 37.806 280.785 37.911 C 282.133 37.987,282.854 38.169,283.387 38.567 M163.447 52.600 C 163.467 53.332,163.463 53.333,161.600 53.333 C 160.145 53.333,159.733 53.248,159.733 52.946 C 159.733 52.309,161.348 42.300,161.521 41.867 C 161.676 41.479,163.406 51.125,163.447 52.600 M234.922 52.600 C 234.933 53.331,234.928 53.333,233.067 53.333 C 231.754 53.333,231.198 53.234,231.195 53.000 C 231.187 52.477,232.836 42.314,233.001 41.867 C 233.151 41.462,234.902 51.247,234.922 52.600 M54.479 74.760 C 57.381 75.973,58.003 78.149,57.991 87.067 C 57.977 98.095,56.831 100.927,52.381 100.932 C 47.651 100.936,46.412 97.721,46.405 85.427 L 46.400 77.654 47.836 76.341 C 49.865 74.487,52.388 73.886,54.479 74.760 M175.465 82.116 C 172.391 83.051,170.884 85.233,170.847 88.800 C 170.809 92.372,171.648 93.880,175.550 97.259 C 180.899 101.891,181.992 103.837,180.677 106.381 C 179.231 109.177,175.940 107.169,175.352 103.133 C 175.140 101.681,175.301 101.731,172.671 102.309 L 170.659 102.751 170.833 104.109 C 171.441 108.879,173.762 111.189,178.168 111.412 C 187.414 111.881,188.991 102.646,180.915 95.326 C 175.976 90.849,175.733 90.526,175.733 88.419 C 175.733 84.251,180.485 84.862,180.986 89.094 C 181.136 90.356,181.180 90.418,181.839 90.293 C 184.643 89.756,185.600 89.554,185.600 89.497 C 185.600 84.030,180.760 80.505,175.465 82.116 M298.459 82.245 C 294.333 83.583,293.463 86.476,293.660 98.217 C 293.839 108.931,295.089 111.129,301.169 111.421 C 305.745 111.641,307.966 110.590,309.422 107.515 L 310.267 105.733 310.267 96.800 C 310.267 85.751,309.902 84.348,306.574 82.604 C 305.169 81.868,300.287 81.652,298.459 82.245 M109.333 82.348 C 109.333 82.560,103.877 109.451,103.601 110.600 C 103.459 111.190,103.499 111.200,105.954 111.200 L 108.452 111.200 108.918 108.467 C 109.672 104.051,109.264 104.533,112.244 104.533 L 114.830 104.533 115.303 107.501 C 115.945 111.529,115.665 111.200,118.457 111.200 C 120.813 111.200,120.855 111.189,120.710 110.600 C 120.629 110.270,119.351 104.000,117.869 96.667 C 116.388 89.333,115.108 83.063,115.026 82.733 C 114.873 82.122,109.333 81.746,109.333 82.348 M123.733 96.654 L 123.733 111.200 125.867 111.200 L 128.000 111.200 128.011 102.600 C 128.020 95.281,128.074 94.099,128.376 94.667 C 128.571 95.033,130.209 98.903,132.016 103.267 L 135.300 111.200 136.984 111.200 L 138.667 111.200 138.667 96.667 L 138.667 82.133 136.533 82.133 L 134.400 82.133 134.400 90.178 C 134.400 94.602,134.321 98.143,134.224 98.046 C 134.127 97.950,132.531 94.360,130.676 90.069 L 127.303 82.267 125.518 82.188 L 123.733 82.109 123.733 96.654 M142.933 96.667 L 142.933 111.256 148.200 111.161 C 158.142 110.983,158.933 109.904,158.933 96.533 C 158.933 83.188,158.312 82.346,148.333 82.173 L 142.933 82.079 142.933 96.667 M190.586 96.460 C 189.002 104.347,187.712 110.890,187.719 111.000 C 187.727 111.110,188.800 111.200,190.104 111.200 C 192.837 111.200,192.471 111.661,193.224 107.267 L 193.693 104.533 196.283 104.533 L 198.874 104.533 199.024 105.400 C 199.106 105.877,199.372 107.377,199.615 108.733 L 200.055 111.200 202.428 111.200 C 204.152 111.200,204.798 111.109,204.791 110.867 C 204.786 110.683,203.489 104.173,201.909 96.400 L 199.035 82.267 196.251 82.193 L 193.467 82.119 190.586 96.460 M207.733 96.667 L 207.733 111.200 209.867 111.200 L 212.000 111.200 212.016 102.600 C 212.026 96.687,212.116 94.125,212.302 94.400 C 212.451 94.620,214.097 98.460,215.958 102.933 L 219.343 111.067 221.138 111.146 L 222.933 111.224 222.933 96.679 L 222.933 82.133 220.800 82.133 L 218.667 82.133 218.667 90.282 C 218.667 94.764,218.573 98.374,218.458 98.303 C 218.344 98.232,216.695 94.565,214.795 90.154 L 211.341 82.133 209.537 82.133 L 207.733 82.133 207.733 96.667 M227.200 96.667 L 227.200 111.200 229.867 111.200 L 232.533 111.200 232.533 96.667 L 232.533 82.133 229.867 82.133 L 227.200 82.133 227.200 96.667 M234.933 84.000 L 234.933 85.867 237.333 85.867 L 239.733 85.867 239.733 98.533 L 239.733 111.200 242.264 111.200 L 244.795 111.200 244.864 98.600 L 244.933 86.000 247.267 85.923 L 249.600 85.846 249.600 83.990 L 249.600 82.133 242.267 82.133 L 234.933 82.133 234.933 84.000 M256.139 82.457 C 255.955 82.993,250.399 110.493,250.400 110.867 C 250.400 111.108,251.054 111.200,252.778 111.200 L 255.156 111.200 255.421 109.933 C 255.567 109.237,255.833 107.737,256.013 106.600 L 256.340 104.533 258.936 104.533 L 261.532 104.533 261.975 107.000 C 262.219 108.357,262.487 109.857,262.572 110.333 L 262.726 111.200 265.096 111.200 C 267.182 111.200,267.465 111.144,267.450 110.733 C 267.441 110.477,266.148 103.967,264.576 96.267 L 261.720 82.267 258.988 82.191 C 256.948 82.134,256.227 82.201,256.139 82.457 M267.200 84.000 L 267.200 85.867 269.733 85.867 L 272.267 85.867 272.267 98.533 L 272.267 111.200 274.797 111.200 L 277.328 111.200 277.397 98.600 L 277.467 86.000 279.800 85.923 L 282.133 85.846 282.133 83.990 L 282.133 82.133 274.667 82.133 L 267.200 82.133 267.200 84.000 M284.533 96.667 L 284.533 111.200 287.067 111.200 L 289.600 111.200 289.600 96.667 L 289.600 82.133 287.067 82.133 L 284.533 82.133 284.533 96.667 M314.400 96.654 L 314.400 111.200 316.530 111.200 L 318.659 111.200 318.730 102.603 L 318.800 94.005 322.374 102.603 L 325.947 111.200 327.640 111.200 L 329.333 111.200 329.333 96.667 L 329.333 82.133 327.204 82.133 L 325.074 82.133 325.004 90.286 L 324.933 98.438 321.441 90.352 L 317.948 82.267 316.174 82.188 L 314.400 82.109 314.400 96.654 M304.062 86.378 L 304.933 87.156 305.016 95.911 C 305.102 104.955,304.995 106.166,304.035 107.035 C 302.777 108.173,300.330 107.773,299.521 106.296 C 298.878 105.122,298.831 88.334,299.467 87.074 C 300.298 85.428,302.607 85.078,304.062 86.378 M152.596 86.645 L 153.467 87.422 153.538 96.311 C 153.627 107.316,153.575 107.467,149.716 107.467 L 148.267 107.467 148.267 96.667 L 148.267 85.867 149.996 85.867 C 151.529 85.867,151.823 85.955,152.596 86.645 M113.221 94.983 C 113.716 97.962,114.124 100.550,114.127 100.733 C 114.132 100.971,113.555 101.067,112.115 101.067 C 110.320 101.067,110.112 101.015,110.233 100.600 C 110.308 100.343,110.753 97.700,111.222 94.726 C 111.691 91.752,112.130 89.374,112.198 89.442 C 112.265 89.510,112.726 92.003,113.221 94.983 M198.127 100.467 C 198.133 101.032,198.027 101.067,196.267 101.067 C 194.812 101.067,194.400 100.981,194.400 100.679 C 194.400 100.076,196.010 90.050,196.179 89.600 C 196.322 89.219,198.112 99.209,198.127 100.467 M260.780 100.333 C 260.800 101.065,260.797 101.067,258.933 101.067 C 257.621 101.067,257.065 100.968,257.062 100.733 C 257.054 100.213,258.702 90.049,258.867 89.600 C 259.012 89.206,260.741 98.907,260.780 100.333 M125.285 161.733 C 124.974 162.415,149.293 310.928,149.901 312.064 C 150.039 312.322,150.178 312.561,150.209 312.595 C 150.241 312.628,157.287 312.718,165.867 312.795 L 181.467 312.933 182.445 324.133 C 182.984 330.293,183.434 335.723,183.445 336.200 L 183.467 337.067 177.134 337.067 L 170.801 337.067 185.534 351.800 L 200.267 366.533 215.000 351.800 L 229.733 337.067 223.549 337.067 C 220.148 337.067,217.319 336.977,217.264 336.867 C 217.208 336.757,217.615 331.507,218.168 325.200 C 218.720 318.893,219.179 313.523,219.186 313.267 C 219.199 312.828,220.131 312.800,234.914 312.800 C 252.073 312.800,251.241 312.876,251.577 311.269 C 253.070 304.132,274.589 162.188,274.255 161.678 L 273.854 161.067 199.721 161.067 L 125.589 161.067 125.285 161.733 M268.169 168.067 C 268.083 168.543,267.156 174.213,266.110 180.667 C 263.920 194.172,264.348 192.704,262.741 192.237 C 259.053 191.166,255.099 191.777,247.867 194.536 C 225.776 202.962,213.876 203.011,193.090 194.761 C 176.967 188.361,172.355 187.899,161.723 191.618 C 153.266 194.577,149.403 195.642,144.400 196.395 C 142.025 196.753,137.067 196.959,137.067 196.701 C 137.067 196.646,135.807 190.142,134.267 182.248 C 132.727 174.353,131.467 167.738,131.467 167.547 C 131.467 167.263,143.881 167.200,199.896 167.200 L 268.326 167.200 268.169 168.067 M205.359 224.533 C 210.856 232.844,217.764 243.486,219.469 246.267 C 231.718 266.245,222.059 286.492,200.267 286.519 C 180.388 286.543,169.940 268.940,178.784 250.321 C 180.362 246.997,199.823 216.959,200.291 217.123 C 200.411 217.165,202.692 220.500,205.359 224.533 " stroke="none" fill="#fbfbfc" fill-rule="evenodd"></path><path id="path1" d="M0.000 200.000 L 0.000 400.000 200.000 400.000 L 400.000 400.000 400.000 200.000 L 400.000 0.000 200.000 0.000 L 0.000 0.000 0.000 200.000 M59.998 34.122 C 67.521 36.316,70.932 41.388,71.622 51.404 L 71.810 54.133 64.745 54.133 L 57.680 54.133 57.515 51.667 C 57.210 47.092,56.268 45.366,53.773 44.808 C 48.038 43.526,46.447 47.665,46.408 63.967 L 46.400 67.268 47.573 66.186 C 50.057 63.897,52.902 63.072,57.600 63.280 C 68.287 63.753,73.129 71.375,72.707 87.067 C 72.244 104.335,66.070 111.812,52.267 111.820 C 39.824 111.827,33.107 104.957,31.714 90.800 C 31.159 85.164,31.548 54.049,32.218 50.533 C 34.140 40.440,38.361 35.437,46.400 33.722 C 49.185 33.128,57.422 33.370,59.998 34.122 M116.103 34.244 C 119.257 35.193,120.574 37.402,120.751 42.040 L 120.867 45.067 118.167 45.067 L 115.467 45.067 115.467 42.706 C 115.467 38.789,114.481 37.465,112.051 38.119 C 110.165 38.628,110.133 38.799,110.133 48.650 C 110.133 59.159,110.272 59.733,112.800 59.733 C 114.815 59.733,115.467 58.531,115.467 54.809 L 115.467 52.267 118.166 52.267 L 120.866 52.267 120.746 55.400 C 120.522 61.230,118.604 63.539,113.664 63.926 C 109.751 64.232,106.618 62.660,105.373 59.765 C 103.798 56.106,103.799 41.493,105.373 37.833 C 106.793 34.534,111.658 32.906,116.103 34.244 M129.600 46.933 L 129.600 59.733 133.212 59.733 L 136.823 59.733 136.745 61.667 L 136.667 63.600 130.400 63.600 L 124.133 63.600 124.064 48.867 L 123.995 34.133 126.798 34.133 L 129.600 34.133 129.600 46.933 M151.467 36.133 L 151.467 38.133 148.000 38.133 L 144.533 38.133 144.533 42.267 L 144.533 46.400 147.333 46.400 L 150.133 46.400 150.133 48.400 L 150.133 50.400 147.333 50.400 L 144.533 50.400 144.533 55.067 L 144.533 59.733 148.145 59.733 L 151.757 59.733 151.678 61.667 L 151.600 63.600 145.333 63.600 L 139.067 63.600 138.998 48.867 L 138.929 34.133 145.198 34.133 L 151.467 34.133 151.467 36.133 M164.533 34.240 C 164.533 34.298,165.853 40.850,167.467 48.800 C 169.080 56.750,170.400 63.366,170.400 63.503 C 170.400 63.646,169.294 63.720,167.809 63.676 L 165.217 63.600 164.621 60.267 C 164.294 58.433,164.020 56.903,164.013 56.867 C 164.006 56.830,162.925 56.800,161.612 56.800 L 159.224 56.800 159.048 57.800 C 158.951 58.350,158.674 59.880,158.433 61.200 L 157.994 63.600 155.397 63.676 C 153.418 63.734,152.800 63.671,152.802 63.410 C 152.803 63.221,154.123 56.601,155.735 48.698 C 157.347 40.795,158.667 34.285,158.667 34.231 C 158.667 34.177,159.987 34.133,161.600 34.133 C 163.213 34.133,164.533 34.181,164.533 34.240 M180.215 42.111 L 183.600 49.956 183.671 42.045 L 183.741 34.133 186.004 34.133 L 188.267 34.133 188.267 48.933 L 188.267 63.733 186.467 63.733 L 184.667 63.733 181.144 55.266 L 177.621 46.800 177.610 55.267 L 177.600 63.733 175.200 63.733 L 172.800 63.733 172.800 48.922 L 172.800 34.111 174.815 34.189 L 176.831 34.267 180.215 42.111 M205.707 42.467 C 206.274 47.050,206.816 50.949,206.912 51.131 C 207.007 51.313,207.594 48.303,208.215 44.442 C 208.836 40.580,209.475 36.681,209.634 35.777 L 209.924 34.133 211.848 34.133 L 213.773 34.133 215.214 42.784 C 216.006 47.541,216.717 51.372,216.794 51.296 C 216.871 51.220,217.413 47.357,218.000 42.712 L 219.067 34.267 221.432 34.189 L 223.797 34.112 223.642 34.989 C 223.557 35.472,222.641 41.867,221.606 49.200 C 220.571 56.533,219.663 62.808,219.588 63.144 C 219.457 63.728,219.355 63.751,217.259 63.677 L 215.067 63.600 213.467 54.187 L 211.867 44.774 210.290 54.264 L 208.713 63.753 206.423 63.676 L 204.133 63.600 202.085 49.467 C 200.959 41.693,200.029 35.063,200.018 34.733 C 200.001 34.155,200.086 34.133,202.338 34.133 L 204.675 34.133 205.707 42.467 M236.000 34.202 C 236.000 34.240,237.320 40.788,238.933 48.752 C 240.547 56.716,241.867 63.349,241.867 63.492 C 241.867 63.649,240.838 63.722,239.281 63.676 L 236.695 63.600 236.096 60.267 C 235.767 58.433,235.490 56.903,235.482 56.867 C 235.474 56.830,234.398 56.800,233.091 56.800 L 230.716 56.800 230.264 59.400 C 230.016 60.830,229.728 62.360,229.623 62.800 L 229.434 63.600 226.850 63.676 C 225.333 63.721,224.267 63.647,224.267 63.498 C 224.267 63.358,225.587 56.738,227.200 48.788 C 228.813 40.837,230.133 34.288,230.133 34.233 C 230.133 34.178,231.453 34.133,233.067 34.133 C 234.680 34.133,236.000 34.164,236.000 34.202 M256.533 36.267 L 256.533 38.400 254.133 38.400 L 251.733 38.400 251.733 51.067 L 251.733 63.733 248.933 63.733 L 246.133 63.733 246.133 51.067 L 246.133 38.400 243.733 38.400 L 241.333 38.400 241.333 36.267 L 241.333 34.133 248.933 34.133 L 256.533 34.133 256.533 36.267 M270.933 36.133 L 270.933 38.133 267.467 38.133 L 264.000 38.133 264.000 42.267 L 264.000 46.400 266.667 46.400 L 269.333 46.400 269.333 48.400 L 269.333 50.400 266.667 50.400 L 264.000 50.400 264.000 55.067 L 264.000 59.733 267.467 59.733 L 270.933 59.733 270.933 61.733 L 270.933 63.733 264.667 63.733 L 258.400 63.733 258.400 48.933 L 258.400 34.133 264.667 34.133 L 270.933 34.133 270.933 36.133 M284.054 34.433 C 288.248 35.322,290.119 38.050,289.783 42.786 C 289.548 46.107,288.659 47.989,286.864 48.968 C 286.430 49.205,286.549 49.775,288.397 56.345 C 289.499 60.261,290.400 63.526,290.400 63.599 C 290.400 63.673,289.145 63.733,287.610 63.733 L 284.821 63.733 284.559 62.733 C 284.415 62.183,283.801 59.813,283.194 57.467 C 281.217 49.823,281.457 50.400,280.248 50.400 L 279.200 50.400 279.200 57.067 L 279.200 63.733 276.400 63.733 L 273.600 63.733 273.600 48.933 L 273.600 34.133 278.120 34.133 C 280.606 34.133,283.276 34.268,284.054 34.433 M279.200 42.438 L 279.200 46.743 280.848 46.570 C 283.605 46.282,284.534 45.183,284.533 42.209 C 284.532 39.300,283.453 38.144,280.733 38.137 L 279.200 38.133 279.200 42.438 M161.600 42.667 C 161.576 42.740,161.168 45.110,160.693 47.933 L 159.831 53.067 161.642 53.067 L 163.453 53.067 163.310 52.333 C 163.231 51.930,162.824 49.560,162.405 47.067 C 161.987 44.573,161.625 42.593,161.600 42.667 M232.978 43.200 C 232.706 44.247,231.467 51.876,231.467 52.503 C 231.467 53.019,231.613 53.067,233.193 53.067 L 234.920 53.067 234.776 52.333 C 234.696 51.930,234.298 49.560,233.891 47.067 C 233.396 44.035,233.094 42.754,232.978 43.200 M49.689 75.183 C 49.077 75.461,48.072 76.208,47.454 76.844 L 46.332 78.000 46.466 85.733 C 46.615 94.338,46.899 96.334,48.285 98.519 C 50.089 101.364,54.414 101.605,56.139 98.958 C 58.214 95.773,58.618 80.758,56.727 77.082 C 55.554 74.802,52.402 73.951,49.689 75.183 M182.070 82.359 C 184.023 83.370,185.600 86.248,185.600 88.802 L 185.600 89.774 183.800 90.103 C 182.810 90.283,181.730 90.497,181.400 90.578 C 180.856 90.711,180.800 90.628,180.799 89.696 C 180.794 86.379,178.657 84.753,176.615 86.511 C 174.724 88.138,175.704 90.444,179.835 94.094 C 185.960 99.505,187.602 103.525,185.470 107.884 C 181.948 115.082,170.667 111.831,170.667 103.618 L 170.667 102.492 172.467 102.164 C 173.457 101.984,174.537 101.770,174.867 101.689 C 175.371 101.566,175.467 101.651,175.467 102.225 C 175.467 106.119,178.493 108.923,180.295 106.698 C 181.898 104.719,180.678 101.929,176.711 98.498 C 171.464 93.959,170.892 93.097,170.721 89.451 C 170.538 85.565,172.080 82.993,175.192 81.994 C 176.997 81.415,180.617 81.607,182.070 82.359 M306.474 82.393 C 310.036 84.088,310.526 85.783,310.530 96.400 C 310.535 109.470,309.358 111.600,302.133 111.600 C 294.775 111.600,293.608 109.536,293.603 96.515 C 293.599 85.220,294.225 83.451,298.753 81.967 C 300.514 81.390,304.873 81.630,306.474 82.393 M117.980 96.334 C 119.583 104.290,120.945 110.950,121.009 111.133 C 121.096 111.385,120.474 111.467,118.456 111.467 L 115.788 111.467 115.494 109.733 C 115.332 108.780,115.068 107.220,114.906 106.267 L 114.612 104.533 112.257 104.533 C 109.545 104.533,109.834 104.206,109.200 108.000 C 108.564 111.806,108.878 111.467,105.982 111.467 C 103.765 111.467,103.466 111.411,103.463 111.000 C 103.461 110.563,108.974 82.922,109.208 82.200 C 109.286 81.961,110.127 81.867,112.192 81.867 L 115.067 81.868 117.980 96.334 M130.668 89.603 L 134.000 97.340 134.071 89.603 L 134.141 81.867 136.537 81.867 L 138.933 81.867 138.933 96.678 L 138.933 111.490 137.048 111.412 L 135.163 111.333 131.725 103.067 L 128.287 94.800 128.277 103.133 L 128.267 111.467 125.867 111.467 L 123.467 111.467 123.467 96.667 L 123.467 81.867 125.401 81.867 L 127.336 81.867 130.668 89.603 M152.943 82.158 C 158.212 83.132,158.978 84.759,159.132 95.299 C 159.342 109.813,158.428 111.143,148.067 111.402 L 142.933 111.530 142.933 96.698 L 142.933 81.867 147.151 81.867 C 149.471 81.867,152.077 81.998,152.943 82.158 M199.200 82.006 C 199.200 82.082,200.520 88.652,202.133 96.606 C 203.747 104.559,205.067 111.161,205.067 111.276 C 205.067 111.392,203.897 111.452,202.468 111.410 L 199.870 111.333 199.526 109.333 C 199.337 108.233,199.058 106.703,198.906 105.933 L 198.629 104.533 196.260 104.533 L 193.891 104.533 193.715 105.533 C 193.618 106.083,193.341 107.613,193.100 108.933 L 192.660 111.333 190.064 111.410 C 188.085 111.468,187.467 111.404,187.469 111.143 C 187.470 110.954,188.790 104.328,190.402 96.418 C 192.014 88.508,193.333 81.998,193.333 81.951 C 193.333 81.905,194.653 81.867,196.267 81.867 C 197.880 81.867,199.200 81.929,199.200 82.006 M214.894 89.933 L 218.388 98.000 218.394 89.933 L 218.400 81.867 220.667 81.867 L 222.933 81.867 222.933 96.667 L 222.933 111.467 221.117 111.467 L 219.300 111.467 215.850 103.133 L 212.400 94.800 212.330 103.133 L 212.259 111.467 209.863 111.467 L 207.467 111.467 207.467 96.667 L 207.467 81.867 209.434 81.867 L 211.401 81.867 214.894 89.933 M232.533 96.667 L 232.533 111.467 229.867 111.467 L 227.200 111.467 227.200 96.667 L 227.200 81.867 229.867 81.867 L 232.533 81.867 232.533 96.667 M249.867 84.000 L 249.867 86.133 247.467 86.133 L 245.067 86.133 245.067 98.800 L 245.067 111.467 242.267 111.467 L 239.467 111.467 239.467 98.800 L 239.467 86.133 237.067 86.133 L 234.667 86.133 234.667 84.000 L 234.667 81.867 242.267 81.867 L 249.867 81.867 249.867 84.000 M261.867 81.978 C 261.867 82.040,263.187 88.595,264.800 96.545 C 266.413 104.496,267.733 111.110,267.733 111.243 C 267.733 111.378,266.576 111.452,265.142 111.410 L 262.550 111.333 261.955 108.000 C 261.627 106.167,261.353 104.637,261.346 104.600 C 261.339 104.563,260.264 104.533,258.958 104.533 L 256.583 104.533 256.131 107.133 C 255.883 108.563,255.594 110.093,255.490 110.533 L 255.301 111.333 252.717 111.410 C 251.200 111.454,250.133 111.381,250.133 111.231 C 250.133 111.091,251.453 104.472,253.067 96.521 C 254.680 88.571,256.000 82.021,256.000 81.966 C 256.000 81.911,257.320 81.867,258.933 81.867 C 260.547 81.867,261.867 81.917,261.867 81.978 M282.400 84.000 L 282.400 86.133 280.000 86.133 L 277.600 86.133 277.600 98.800 L 277.600 111.467 274.800 111.467 L 272.000 111.467 272.000 98.800 L 272.000 86.133 269.600 86.133 L 267.200 86.133 267.200 84.000 L 267.200 81.867 274.800 81.867 L 282.400 81.867 282.400 84.000 M289.867 96.667 L 289.867 111.467 287.200 111.467 L 284.533 111.467 284.533 96.667 L 284.533 81.867 287.200 81.867 L 289.867 81.867 289.867 96.667 M321.333 89.644 L 324.667 97.411 324.737 89.639 L 324.808 81.867 327.204 81.867 L 329.600 81.867 329.600 96.678 L 329.600 111.490 327.702 111.412 L 325.804 111.333 322.435 103.200 L 319.067 95.067 318.933 103.200 L 318.800 111.333 316.467 111.410 L 314.133 111.487 314.133 96.677 L 314.133 81.867 316.067 81.872 L 318.000 81.876 321.333 89.644 M148.533 96.632 L 148.533 107.467 149.533 107.452 C 153.327 107.395,153.467 107.017,153.467 96.847 C 153.467 86.292,153.487 86.358,150.164 85.982 L 148.533 85.798 148.533 96.632 M300.442 86.169 C 299.172 86.907,298.457 103.304,299.577 105.987 C 300.242 107.578,302.506 108.043,303.862 106.867 C 305.796 105.188,305.555 86.787,303.588 86.032 C 302.907 85.771,300.982 85.854,300.442 86.169 M111.356 95.022 C 110.930 97.686,110.526 100.077,110.459 100.333 C 110.353 100.743,110.553 100.800,112.102 100.800 C 113.540 100.800,113.867 100.721,113.867 100.374 C 113.867 99.921,112.275 90.320,112.185 90.230 C 112.156 90.200,111.783 92.357,111.356 95.022 M258.836 90.933 C 258.557 92.063,257.333 99.639,257.333 100.236 C 257.333 100.752,257.480 100.800,259.060 100.800 L 260.787 100.800 260.643 100.067 C 260.564 99.663,260.162 97.293,259.750 94.800 C 259.262 91.848,258.943 90.499,258.836 90.933 M195.318 95.734 L 194.502 100.800 196.275 100.800 L 198.048 100.800 197.431 97.000 C 197.092 94.910,196.736 92.630,196.639 91.933 C 196.356 89.881,196.177 90.396,195.318 95.734 M274.179 161.241 C 274.932 161.923,275.326 159.177,263.193 237.655 C 252.002 310.040,251.703 311.881,251.045 312.467 L 250.370 313.067 234.931 313.067 L 219.491 313.067 219.349 313.933 C 219.272 314.410,218.846 319.240,218.403 324.667 C 217.961 330.093,217.532 335.043,217.450 335.667 L 217.301 336.800 223.783 336.800 L 230.266 336.800 215.267 351.799 L 200.267 366.799 185.467 352.000 C 177.327 343.861,170.667 337.111,170.667 337.001 C 170.667 336.890,173.487 336.800,176.933 336.800 L 183.200 336.800 183.199 336.067 C 183.198 335.663,182.778 330.475,182.265 324.537 C 181.753 318.600,181.333 313.593,181.333 313.410 C 181.333 313.151,177.970 313.063,165.876 313.006 C 151.912 312.940,150.376 312.891,149.978 312.492 C 149.615 312.130,124.821 164.106,124.803 162.200 C 124.801 162.017,125.040 161.627,125.333 161.333 C 126.096 160.571,273.338 160.480,274.179 161.241 M134.309 181.533 C 135.818 189.270,137.121 195.882,137.205 196.227 C 137.585 197.795,148.672 195.904,158.141 192.656 C 166.143 189.911,167.076 189.636,169.481 189.315 C 175.430 188.521,180.463 189.594,191.733 194.059 C 214.011 202.884,225.728 202.948,247.788 194.368 C 254.882 191.608,259.209 190.944,262.727 192.073 L 263.986 192.477 264.132 191.639 C 264.629 188.774,268.000 167.934,268.000 167.723 C 268.000 167.560,243.310 167.467,199.782 167.467 L 131.564 167.467 134.309 181.533 M193.828 226.870 C 180.903 246.403,178.668 250.156,177.263 254.685 C 172.850 268.903,179.364 281.952,192.726 285.660 C 195.640 286.469,204.482 286.534,207.311 285.767 C 223.110 281.483,229.312 264.878,220.969 249.200 C 219.262 245.991,200.645 217.341,200.267 217.340 C 200.193 217.340,197.296 221.628,193.828 226.870 " stroke="none" fill="#24bce4" fill-rule="evenodd"></path><path id="path2" d="M48.867 33.517 C 49.123 33.584,49.543 33.584,49.800 33.517 C 50.057 33.450,49.847 33.395,49.333 33.395 C 48.820 33.395,48.610 33.450,48.867 33.517 M54.733 33.517 C 54.990 33.584,55.410 33.584,55.667 33.517 C 55.923 33.450,55.713 33.395,55.200 33.395 C 54.687 33.395,54.477 33.450,54.733 33.517 M125.533 34.330 C 126.303 34.384,127.563 34.384,128.333 34.330 C 129.103 34.276,128.473 34.232,126.933 34.232 C 125.393 34.232,124.763 34.276,125.533 34.330 M142.200 34.332 C 143.923 34.379,146.743 34.379,148.467 34.332 C 150.190 34.286,148.780 34.248,145.333 34.248 C 141.887 34.248,140.477 34.286,142.200 34.332 M158.667 34.333 C 158.667 34.443,159.987 34.533,161.600 34.533 C 163.213 34.533,164.533 34.443,164.533 34.333 C 164.533 34.223,163.213 34.133,161.600 34.133 C 159.987 34.133,158.667 34.223,158.667 34.333 M172.922 34.467 C 172.852 34.650,172.827 41.280,172.866 49.200 L 172.938 63.600 173.002 49.012 L 173.067 34.423 175.000 34.331 L 176.933 34.239 174.992 34.186 C 173.643 34.150,173.011 34.235,172.922 34.467 M183.674 42.267 C 183.633 46.740,183.690 50.400,183.800 50.400 C 183.910 50.400,184.000 46.805,184.000 42.411 L 184.000 34.422 186.200 34.332 L 188.400 34.242 186.074 34.188 L 183.748 34.133 183.674 42.267 M200.031 34.733 C 200.053 35.168,200.095 35.208,200.182 34.877 C 200.280 34.503,200.696 34.405,202.484 34.331 L 204.667 34.242 202.333 34.188 C 200.067 34.135,200.001 34.151,200.031 34.733 M210.048 34.322 C 209.975 34.438,210.734 34.494,211.734 34.446 C 213.072 34.381,213.583 34.452,213.669 34.712 C 213.748 34.954,213.776 34.939,213.756 34.667 C 213.725 34.230,210.303 33.911,210.048 34.322 M219.733 34.299 C 221.281 34.497,223.734 34.518,223.734 34.333 C 223.734 34.223,222.683 34.151,221.400 34.173 C 220.117 34.195,219.367 34.252,219.733 34.299 M230.307 34.333 C 230.238 34.443,231.101 34.501,232.225 34.461 C 235.807 34.334,236.218 34.224,233.282 34.178 C 231.714 34.154,230.375 34.223,230.307 34.333 M241.386 36.196 L 241.439 38.267 241.531 36.333 L 241.623 34.400 248.933 34.400 L 256.243 34.400 256.342 36.333 L 256.440 38.267 256.420 36.267 L 256.400 34.267 248.867 34.196 L 241.333 34.125 241.386 36.196 M258.464 48.862 L 258.529 63.600 258.600 49.000 L 258.671 34.400 264.669 34.400 L 270.667 34.400 270.667 36.125 L 270.667 37.851 267.267 37.925 L 263.867 38.000 263.856 42.200 L 263.846 46.401 263.930 42.275 L 264.013 38.149 267.407 38.075 L 270.800 38.000 270.800 36.133 L 270.800 34.267 264.600 34.195 L 258.400 34.124 258.464 48.862 M273.722 34.467 C 273.652 34.650,273.627 41.280,273.666 49.200 L 273.738 63.600 273.802 49.007 L 273.867 34.413 278.200 34.333 L 282.533 34.252 278.192 34.193 C 274.919 34.148,273.819 34.215,273.722 34.467 M37.717 38.200 L 36.933 39.067 37.800 38.283 C 38.608 37.553,38.789 37.333,38.583 37.333 C 38.537 37.333,38.147 37.723,37.717 38.200 M146.200 38.064 C 147.190 38.116,148.810 38.116,149.800 38.064 C 150.790 38.013,149.980 37.971,148.000 37.971 C 146.020 37.971,145.210 38.013,146.200 38.064 M279.057 42.333 L 279.067 46.800 279.867 46.839 C 280.614 46.875,280.619 46.869,279.940 46.755 L 279.213 46.632 279.130 42.249 L 279.047 37.866 279.057 42.333 M246.257 50.800 C 246.257 57.840,246.291 60.682,246.333 57.115 C 246.375 53.548,246.375 47.788,246.333 44.315 C 246.291 40.842,246.257 43.760,246.257 50.800 M251.590 50.933 C 251.590 57.900,251.624 60.750,251.666 57.267 C 251.709 53.783,251.709 48.083,251.666 44.600 C 251.624 41.117,251.590 43.967,251.590 50.933 M120.586 42.600 L 120.533 44.800 118.145 44.800 L 115.756 44.800 115.660 42.799 L 115.564 40.798 115.582 42.866 L 115.600 44.933 118.071 45.010 C 120.956 45.100,120.865 45.191,120.732 42.375 L 120.639 40.400 120.586 42.600 M289.680 42.133 C 289.680 42.940,289.730 43.270,289.791 42.867 C 289.852 42.463,289.852 41.803,289.791 41.400 C 289.730 40.997,289.680 41.327,289.680 42.133 M284.610 42.267 C 284.612 43.000,284.663 43.268,284.725 42.863 C 284.786 42.458,284.784 41.858,284.721 41.530 C 284.658 41.202,284.608 41.533,284.610 42.267 M161.528 41.761 C 161.421 41.868,161.333 42.140,161.333 42.364 C 161.333 42.665,161.412 42.694,161.630 42.477 C 161.793 42.313,161.881 42.042,161.824 41.873 C 161.768 41.705,161.635 41.654,161.528 41.761 M149.956 48.267 C 149.956 49.367,150.003 49.817,150.061 49.267 C 150.118 48.717,150.118 47.817,150.061 47.267 C 150.003 46.717,149.956 47.167,149.956 48.267 M177.452 54.933 C 177.452 59.700,177.489 61.650,177.533 59.267 C 177.577 56.883,177.577 52.983,177.533 50.600 C 177.489 48.217,177.452 50.167,177.452 54.933 M263.857 55.000 L 263.867 59.867 267.255 59.941 L 270.643 60.016 270.736 61.808 L 270.829 63.600 270.881 61.667 L 270.933 59.733 267.473 59.733 L 264.012 59.733 263.930 54.933 L 263.848 50.133 263.857 55.000 M279.049 56.800 C 279.049 60.540,279.087 62.070,279.133 60.200 C 279.178 58.330,279.178 55.270,279.133 53.400 C 279.087 51.530,279.049 53.060,279.049 56.800 M57.647 52.867 L 57.600 54.133 64.667 54.133 L 71.733 54.133 71.702 53.533 C 71.679 53.082,71.641 53.049,71.550 53.400 C 71.437 53.829,70.881 53.867,64.662 53.867 L 57.897 53.867 57.795 52.733 L 57.693 51.600 57.647 52.867 M206.667 52.133 C 206.667 52.353,206.787 52.533,206.933 52.533 C 207.080 52.533,207.200 52.353,207.200 52.133 C 207.200 51.913,207.080 51.733,206.933 51.733 C 206.787 51.733,206.667 51.913,206.667 52.133 M216.533 52.133 C 216.533 52.353,216.653 52.533,216.800 52.533 C 216.947 52.533,217.067 52.353,217.067 52.133 C 217.067 51.913,216.947 51.733,216.800 51.733 C 216.653 51.733,216.533 51.913,216.533 52.133 M115.560 54.667 C 115.560 55.913,115.606 56.423,115.662 55.800 C 115.718 55.177,115.718 54.157,115.662 53.533 C 115.606 52.910,115.560 53.420,115.560 54.667 M120.628 54.800 C 120.627 56.120,120.672 56.694,120.728 56.075 C 120.784 55.456,120.785 54.376,120.730 53.675 C 120.675 52.974,120.629 53.480,120.628 54.800 M160.600 53.261 C 161.150 53.318,162.050 53.318,162.600 53.261 C 163.150 53.203,162.700 53.156,161.600 53.156 C 160.500 53.156,160.050 53.203,160.600 53.261 M232.067 53.261 C 232.617 53.318,233.517 53.318,234.067 53.261 C 234.617 53.203,234.167 53.156,233.067 53.156 C 231.967 53.156,231.517 53.203,232.067 53.261 M46.473 54.667 C 46.473 55.327,46.525 55.597,46.588 55.267 C 46.652 54.937,46.652 54.397,46.588 54.067 C 46.525 53.737,46.473 54.007,46.473 54.667 M159.111 56.711 C 159.013 56.809,158.935 57.019,158.937 57.178 C 158.940 57.357,159.019 57.345,159.146 57.145 C 159.274 56.944,160.254 56.789,161.742 56.733 L 164.133 56.643 161.711 56.588 C 160.379 56.558,159.209 56.613,159.111 56.711 M230.578 56.711 C 230.480 56.809,230.402 57.019,230.404 57.178 C 230.407 57.357,230.486 57.345,230.613 57.145 C 230.740 56.944,231.721 56.789,233.209 56.733 L 235.600 56.643 233.178 56.588 C 231.846 56.558,230.676 56.613,230.578 56.711 M31.591 73.067 C 31.591 81.060,31.625 84.330,31.666 80.333 C 31.708 76.337,31.708 69.797,31.666 65.800 C 31.625 61.803,31.591 65.073,31.591 73.067 M112.333 59.917 C 112.590 59.984,113.010 59.984,113.267 59.917 C 113.523 59.850,113.313 59.795,112.800 59.795 C 112.287 59.795,112.077 59.850,112.333 59.917 M131.267 59.931 C 132.257 59.982,133.877 59.982,134.867 59.931 C 135.857 59.880,135.047 59.838,133.067 59.838 C 131.087 59.838,130.277 59.880,131.267 59.931 M146.200 59.931 C 147.190 59.982,148.810 59.982,149.800 59.931 C 150.790 59.880,149.980 59.838,148.000 59.838 C 146.020 59.838,145.210 59.880,146.200 59.931 M55.667 63.395 C 56.290 63.451,57.310 63.451,57.933 63.395 C 58.557 63.339,58.047 63.293,56.800 63.293 C 55.553 63.293,55.043 63.339,55.667 63.395 M112.200 63.922 C 112.530 63.985,113.070 63.985,113.400 63.922 C 113.730 63.858,113.460 63.806,112.800 63.806 C 112.140 63.806,111.870 63.858,112.200 63.922 M57.949 83.067 C 57.951 83.947,58.001 84.275,58.060 83.795 C 58.119 83.316,58.118 82.596,58.057 82.195 C 57.996 81.795,57.948 82.187,57.949 83.067 M72.610 82.800 C 72.612 83.533,72.663 83.802,72.725 83.396 C 72.786 82.991,72.784 82.391,72.721 82.063 C 72.658 81.735,72.608 82.067,72.610 82.800 M177.538 81.793 C 178.017 81.853,178.737 81.851,179.138 81.791 C 179.539 81.730,179.147 81.681,178.267 81.683 C 177.387 81.684,177.059 81.734,177.538 81.793 M300.994 81.792 C 301.467 81.851,302.307 81.852,302.861 81.795 C 303.414 81.737,303.027 81.689,302.000 81.688 C 300.973 81.686,300.521 81.734,300.994 81.792 M110.743 82.064 C 111.592 82.117,112.912 82.117,113.676 82.063 C 114.441 82.009,113.747 81.966,112.133 81.966 C 110.520 81.967,109.894 82.011,110.743 82.064 M123.589 82.200 C 123.519 82.383,123.494 89.013,123.533 96.933 L 123.605 111.333 123.669 96.711 L 123.733 82.090 125.575 82.178 C 126.589 82.227,127.361 82.177,127.293 82.067 C 127.074 81.714,123.729 81.834,123.589 82.200 M136.598 82.061 L 138.662 82.155 138.734 96.611 L 138.807 111.067 138.803 96.533 L 138.800 82.000 136.667 81.984 L 134.533 81.968 136.598 82.061 M145.013 82.065 C 146.230 82.115,148.150 82.115,149.279 82.065 C 150.409 82.015,149.413 81.974,147.067 81.975 C 144.720 81.975,143.796 82.016,145.013 82.065 M194.400 82.039 C 196.632 82.235,199.141 82.251,199.026 82.067 C 198.958 81.957,197.679 81.887,196.184 81.911 C 194.690 81.936,193.887 81.993,194.400 82.039 M207.589 82.200 C 207.519 82.383,207.494 89.013,207.533 96.933 L 207.605 111.333 207.669 96.746 L 207.733 82.158 209.533 82.064 L 211.333 81.971 209.525 81.919 C 208.283 81.883,207.677 81.971,207.589 82.200 M218.556 82.096 C 218.366 82.404,218.329 98.151,218.518 98.340 C 218.600 98.422,218.667 94.814,218.667 90.322 L 218.667 82.155 220.867 82.065 L 223.067 81.975 220.882 81.921 C 219.681 81.891,218.634 81.970,218.556 82.096 M228.467 82.063 C 229.237 82.117,230.497 82.117,231.267 82.063 C 232.037 82.009,231.407 81.965,229.867 81.965 C 228.327 81.965,227.697 82.009,228.467 82.063 M234.780 82.224 C 234.702 82.425,234.675 83.357,234.720 84.295 L 234.800 86.000 237.131 86.077 L 239.461 86.154 239.533 98.744 L 239.605 111.333 239.669 98.600 L 239.733 85.867 237.333 85.867 L 234.933 85.867 234.933 84.000 L 234.933 82.133 242.267 82.133 L 249.600 82.133 249.600 83.990 L 249.600 85.846 247.267 85.923 L 244.933 86.000 244.929 98.667 L 244.925 111.333 244.999 98.744 L 245.072 86.154 247.403 86.077 L 249.733 86.000 249.733 84.000 L 249.733 82.000 242.327 81.929 C 236.250 81.871,234.895 81.924,234.780 82.224 M256.175 82.067 C 256.107 82.177,257.348 82.267,258.933 82.267 C 260.519 82.267,261.760 82.177,261.692 82.067 C 261.624 81.957,260.383 81.867,258.933 81.867 C 257.484 81.867,256.243 81.957,256.175 82.067 M274.600 82.064 L 282.133 82.142 282.133 83.994 L 282.133 85.846 279.800 85.923 L 277.467 86.000 277.463 98.533 L 277.459 111.067 277.532 98.610 L 277.605 86.154 279.936 86.077 L 282.267 86.000 282.267 84.000 L 282.267 82.000 274.667 81.994 L 267.067 81.987 274.600 82.064 M287.064 82.061 L 289.595 82.153 289.668 96.610 L 289.740 111.067 289.737 96.533 L 289.733 82.000 287.133 81.985 L 284.532 81.969 287.064 82.061 M314.256 82.200 C 314.185 82.383,314.160 89.013,314.200 96.933 L 314.271 111.333 314.336 96.711 L 314.400 82.090 316.242 82.178 C 317.255 82.227,318.028 82.177,317.960 82.067 C 317.740 81.714,314.396 81.834,314.256 82.200 M327.264 82.061 L 329.329 82.155 329.401 96.611 L 329.473 111.067 329.470 96.533 L 329.467 82.000 327.333 81.984 L 325.200 81.968 327.264 82.061 M269.531 86.065 L 271.995 86.153 272.067 98.743 L 272.139 111.333 272.203 98.600 L 272.267 85.867 269.667 85.922 L 267.067 85.977 269.531 86.065 M72.616 88.133 C 72.617 89.013,72.667 89.341,72.727 88.862 C 72.786 88.383,72.785 87.663,72.724 87.262 C 72.663 86.861,72.614 87.253,72.616 88.133 M299.052 96.667 C 299.052 101.213,299.088 103.111,299.133 100.883 C 299.177 98.656,299.177 94.936,299.133 92.617 C 299.088 90.297,299.052 92.120,299.052 96.667 M196.194 89.494 C 196.088 89.601,196.000 89.873,196.000 90.098 C 196.000 90.398,196.079 90.428,196.297 90.210 C 196.460 90.047,196.547 89.775,196.491 89.607 C 196.435 89.438,196.301 89.388,196.194 89.494 M258.861 89.494 C 258.754 89.601,258.667 89.873,258.667 90.098 C 258.667 90.398,258.746 90.428,258.963 90.210 C 259.127 90.047,259.214 89.775,259.158 89.607 C 259.102 89.438,258.968 89.388,258.861 89.494 M159.050 96.400 C 159.050 100.213,159.087 101.736,159.133 99.784 C 159.178 97.832,159.178 94.712,159.132 92.851 C 159.087 90.990,159.049 92.587,159.050 96.400 M57.939 91.200 C 57.939 91.860,57.991 92.130,58.055 91.800 C 58.118 91.470,58.118 90.930,58.055 90.600 C 57.991 90.270,57.939 90.540,57.939 91.200 M310.515 96.533 C 310.515 100.127,310.553 101.597,310.599 99.800 C 310.645 98.003,310.645 95.063,310.599 93.267 C 310.553 91.470,310.515 92.940,310.515 96.533 M128.000 102.667 C 128.000 107.409,128.057 111.232,128.127 111.162 C 128.306 110.983,128.327 94.371,128.148 94.192 C 128.066 94.111,128.000 97.924,128.000 102.667 M212.000 102.667 C 212.000 107.409,212.057 111.232,212.126 111.163 C 212.306 110.983,212.327 94.371,212.148 94.192 C 212.067 94.111,212.000 97.924,212.000 102.667 M182.400 96.667 C 182.898 97.180,183.365 97.600,183.438 97.600 C 183.511 97.600,183.164 97.180,182.667 96.667 C 182.169 96.153,181.702 95.733,181.629 95.733 C 181.555 95.733,181.902 96.153,182.400 96.667 M51.936 100.989 C 52.268 101.052,52.748 101.050,53.003 100.983 C 53.258 100.916,52.987 100.864,52.400 100.867 C 51.813 100.870,51.605 100.925,51.936 100.989 M177.933 111.658 C 178.337 111.719,178.997 111.719,179.400 111.658 C 179.803 111.597,179.473 111.547,178.667 111.547 C 177.860 111.547,177.530 111.597,177.933 111.658 M301.267 111.660 C 301.743 111.719,302.523 111.719,303.000 111.660 C 303.477 111.600,303.087 111.552,302.133 111.552 C 301.180 111.552,300.790 111.600,301.267 111.660 M51.400 111.926 C 51.877 111.985,52.657 111.985,53.133 111.926 C 53.610 111.867,53.220 111.819,52.267 111.819 C 51.313 111.819,50.923 111.867,51.400 111.926 M163.022 161.000 C 183.383 161.038,216.623 161.038,236.888 161.000 C 257.153 160.962,240.493 160.931,199.867 160.931 C 159.240 160.931,142.660 160.962,163.022 161.000 M199.647 167.400 C 264.423 167.464,267.967 167.492,268.083 167.934 C 268.174 168.284,268.212 168.251,268.236 167.800 L 268.267 167.200 199.800 167.266 L 131.333 167.332 199.647 167.400 M171.938 189.260 C 172.417 189.319,173.137 189.318,173.538 189.257 C 173.939 189.196,173.547 189.148,172.667 189.149 C 171.787 189.151,171.459 189.201,171.938 189.260 M215.267 200.717 C 215.523 200.784,215.943 200.784,216.200 200.717 C 216.457 200.650,216.247 200.595,215.733 200.595 C 215.220 200.595,215.010 200.650,215.267 200.717 M175.534 263.600 C 175.537 264.187,175.591 264.395,175.655 264.064 C 175.719 263.732,175.717 263.252,175.650 262.997 C 175.583 262.742,175.531 263.013,175.534 263.600 M198.467 286.598 C 199.457 286.649,201.077 286.649,202.067 286.598 C 203.057 286.546,202.247 286.504,200.267 286.504 C 198.287 286.504,197.477 286.546,198.467 286.598 M218.462 321.600 C 218.462 322.113,218.517 322.323,218.584 322.067 C 218.651 321.810,218.651 321.390,218.584 321.133 C 218.517 320.877,218.462 321.087,218.462 321.600 M182.195 322.933 C 182.195 323.447,182.250 323.657,182.317 323.400 C 182.384 323.143,182.384 322.723,182.317 322.467 C 182.250 322.210,182.195 322.420,182.195 322.933 M182.462 326.133 C 182.462 326.647,182.517 326.857,182.584 326.600 C 182.651 326.343,182.651 325.923,182.584 325.667 C 182.517 325.410,182.462 325.620,182.462 326.133 M217.395 334.133 C 217.395 334.647,217.450 334.857,217.517 334.600 C 217.584 334.343,217.584 333.923,217.517 333.667 C 217.450 333.410,217.395 333.620,217.395 334.133 M183.262 335.467 C 183.262 335.980,183.317 336.190,183.384 335.933 C 183.451 335.677,183.451 335.257,183.384 335.000 C 183.317 334.743,183.262 334.953,183.262 335.467 M225.725 337.000 L 229.717 337.082 214.925 351.941 L 200.133 366.800 215.000 352.001 C 223.177 343.861,229.867 337.111,229.867 337.001 C 229.867 336.890,228.037 336.827,225.800 336.859 L 221.733 336.918 225.725 337.000 " stroke="none" fill="#99def4" fill-rule="evenodd"></path><path id="path3" d="M124.130 48.933 L 124.133 63.600 130.400 63.600 L 136.667 63.600 136.686 61.799 L 136.706 59.998 136.608 61.732 L 136.509 63.467 130.390 63.467 L 124.271 63.467 124.199 48.867 L 124.126 34.267 124.130 48.933 M139.063 48.933 L 139.067 63.600 145.333 63.600 L 151.600 63.600 151.620 61.799 L 151.640 59.998 151.541 61.732 L 151.442 63.467 145.323 63.467 L 139.205 63.467 139.132 48.867 L 139.060 34.267 139.063 48.933 M65.867 37.150 C 65.867 37.196,66.257 37.586,66.733 38.017 L 67.600 38.800 66.817 37.933 C 66.087 37.125,65.867 36.944,65.867 37.150 M279.670 38.055 C 280.001 38.119,280.481 38.117,280.736 38.050 C 280.991 37.983,280.720 37.931,280.133 37.934 C 279.547 37.937,279.338 37.991,279.670 38.055 M242.741 38.330 C 243.442 38.385,244.522 38.384,245.141 38.328 C 245.760 38.272,245.187 38.227,243.867 38.228 C 242.547 38.229,242.040 38.275,242.741 38.330 M252.875 38.330 C 253.576 38.385,254.656 38.384,255.275 38.328 C 255.894 38.272,255.320 38.227,254.000 38.228 C 252.680 38.229,252.174 38.275,252.875 38.330 M109.985 48.800 C 109.985 53.127,110.021 54.897,110.066 52.733 C 110.111 50.570,110.111 47.030,110.066 44.867 C 110.021 42.703,109.985 44.473,109.985 48.800 M104.382 48.933 C 104.382 52.600,104.420 54.137,104.466 52.349 C 104.512 50.561,104.512 47.561,104.466 45.682 C 104.420 43.804,104.382 45.267,104.382 48.933 M145.800 50.330 C 146.570 50.384,147.830 50.384,148.600 50.330 C 149.370 50.276,148.740 50.232,147.200 50.232 C 145.660 50.232,145.030 50.276,145.800 50.330 M265.267 50.330 C 266.037 50.384,267.297 50.384,268.067 50.330 C 268.837 50.276,268.207 50.232,266.667 50.232 C 265.127 50.232,264.497 50.276,265.267 50.330 M279.667 50.322 C 279.997 50.385,280.537 50.385,280.867 50.322 C 281.197 50.258,280.927 50.206,280.267 50.206 C 279.607 50.206,279.337 50.258,279.667 50.322 M71.534 52.133 C 71.537 52.720,71.591 52.929,71.655 52.597 C 71.719 52.265,71.717 51.785,71.650 51.530 C 71.583 51.275,71.531 51.547,71.534 52.133 M116.867 52.463 C 117.563 52.518,118.703 52.518,119.400 52.463 C 120.097 52.408,119.527 52.363,118.133 52.363 C 116.740 52.363,116.170 52.408,116.867 52.463 M46.483 57.200 C 46.484 58.080,46.534 58.408,46.593 57.929 C 46.653 57.449,46.651 56.729,46.591 56.329 C 46.530 55.928,46.481 56.320,46.483 57.200 M31.539 57.600 C 31.539 58.260,31.591 58.530,31.655 58.200 C 31.718 57.870,31.718 57.330,31.655 57.000 C 31.591 56.670,31.539 56.940,31.539 57.600 M165.135 63.200 C 165.221 63.518,165.758 63.604,167.755 63.617 L 170.267 63.635 167.875 63.539 C 166.413 63.481,165.395 63.319,165.255 63.122 C 165.092 62.893,165.057 62.916,165.135 63.200 M155.467 63.467 L 152.933 63.631 155.384 63.682 C 156.789 63.712,157.906 63.619,158.000 63.467 C 158.091 63.320,158.128 63.223,158.082 63.251 C 158.037 63.279,156.860 63.376,155.467 63.467 M204.237 63.545 C 204.355 63.662,205.399 63.721,206.559 63.676 L 208.667 63.596 206.345 63.464 C 205.069 63.392,204.120 63.429,204.237 63.545 M215.171 63.545 C 215.288 63.662,216.333 63.721,217.492 63.676 L 219.600 63.596 217.279 63.464 C 216.002 63.392,215.053 63.429,215.171 63.545 M174.067 63.662 C 174.690 63.718,175.710 63.718,176.333 63.662 C 176.957 63.606,176.447 63.560,175.200 63.560 C 173.953 63.560,173.443 63.606,174.067 63.662 M185.527 63.659 C 186.001 63.718,186.841 63.719,187.394 63.661 C 187.947 63.604,187.560 63.555,186.533 63.554 C 185.507 63.553,185.054 63.600,185.527 63.659 M225.667 63.663 C 226.363 63.718,227.503 63.718,228.200 63.663 C 228.897 63.608,228.327 63.563,226.933 63.563 C 225.540 63.563,224.970 63.608,225.667 63.663 M237.933 63.663 C 238.630 63.718,239.770 63.718,240.467 63.663 C 241.163 63.608,240.593 63.563,239.200 63.563 C 237.807 63.563,237.237 63.608,237.933 63.663 M247.676 63.664 C 248.451 63.718,249.651 63.717,250.342 63.662 C 251.034 63.608,250.400 63.563,248.933 63.564 C 247.467 63.565,246.901 63.610,247.676 63.664 M261.682 63.666 C 263.413 63.712,266.173 63.712,267.815 63.666 C 269.457 63.619,268.040 63.581,264.667 63.581 C 261.293 63.581,259.950 63.619,261.682 63.666 M275.142 63.664 C 275.917 63.718,277.117 63.717,277.809 63.662 C 278.501 63.608,277.867 63.563,276.400 63.564 C 274.933 63.565,274.367 63.610,275.142 63.664 M286.342 63.664 C 287.117 63.718,288.317 63.717,289.009 63.662 C 289.701 63.608,289.067 63.563,287.600 63.564 C 286.133 63.565,285.567 63.610,286.342 63.664 M134.075 89.892 C 134.034 94.160,134.090 97.707,134.200 97.775 C 134.310 97.843,134.400 94.351,134.400 90.016 C 134.400 85.680,134.344 82.133,134.275 82.133 C 134.206 82.133,134.116 85.625,134.075 89.892 M324.741 89.893 C 324.700 94.160,324.755 97.790,324.863 97.959 C 324.970 98.128,325.060 94.637,325.063 90.200 C 325.065 85.763,325.010 82.133,324.941 82.133 C 324.872 82.133,324.782 85.625,324.741 89.893 M57.966 87.333 C 57.967 88.947,58.011 89.572,58.064 88.724 C 58.117 87.875,58.117 86.555,58.063 85.790 C 58.009 85.026,57.966 85.720,57.966 87.333 M148.388 96.667 C 148.388 102.680,148.423 105.178,148.466 102.218 C 148.509 99.258,148.509 94.338,148.466 91.285 C 148.424 88.231,148.389 90.653,148.388 96.667 M31.534 88.400 C 31.537 88.987,31.591 89.195,31.655 88.864 C 31.719 88.532,31.717 88.052,31.650 87.797 C 31.583 87.542,31.531 87.813,31.534 88.400 M318.729 102.723 L 318.667 111.178 316.467 111.268 L 314.267 111.358 316.475 111.412 C 319.211 111.480,318.956 112.427,318.867 102.531 L 318.792 94.267 318.729 102.723 M112.133 100.800 L 110.267 100.972 112.200 101.020 C 113.343 101.047,114.133 100.958,114.133 100.800 C 114.133 100.653,114.103 100.555,114.067 100.580 C 114.030 100.606,113.160 100.705,112.133 100.800 M195.267 100.994 C 195.817 101.052,196.717 101.052,197.267 100.994 C 197.817 100.937,197.367 100.890,196.267 100.890 C 195.167 100.890,194.717 100.937,195.267 100.994 M257.933 100.994 C 258.483 101.052,259.383 101.052,259.933 100.994 C 260.483 100.937,260.033 100.890,258.933 100.890 C 257.833 100.890,257.383 100.937,257.933 100.994 M262.468 110.933 C 262.554 111.251,263.092 111.337,265.088 111.351 L 267.600 111.368 265.209 111.273 C 263.746 111.214,262.729 111.053,262.588 110.855 C 262.426 110.626,262.391 110.649,262.468 110.933 M118.400 111.200 L 115.867 111.365 118.318 111.416 C 119.722 111.445,120.839 111.353,120.933 111.200 C 121.024 111.053,121.061 110.956,121.016 110.984 C 120.970 111.012,119.793 111.109,118.400 111.200 M190.000 111.200 L 187.333 111.363 189.918 111.415 C 191.411 111.445,192.571 111.354,192.667 111.200 C 192.757 111.053,192.794 110.957,192.749 110.985 C 192.704 111.013,191.467 111.110,190.000 111.200 M199.970 111.278 C 200.087 111.394,201.251 111.453,202.558 111.409 L 204.933 111.330 202.345 111.198 C 200.922 111.126,199.853 111.162,199.970 111.278 M104.742 111.397 C 105.517 111.451,106.717 111.450,107.409 111.396 C 108.101 111.341,107.467 111.297,106.000 111.297 C 104.533 111.298,103.967 111.343,104.742 111.397 M124.733 111.395 C 125.357 111.451,126.377 111.451,127.000 111.395 C 127.623 111.339,127.113 111.293,125.867 111.293 C 124.620 111.293,124.110 111.339,124.733 111.395 M136.200 111.393 C 136.677 111.452,137.457 111.452,137.933 111.393 C 138.410 111.334,138.020 111.285,137.067 111.285 C 136.113 111.285,135.723 111.334,136.200 111.393 M145.000 111.398 C 146.210 111.448,148.190 111.448,149.400 111.398 C 150.610 111.349,149.620 111.309,147.200 111.309 C 144.780 111.309,143.790 111.349,145.000 111.398 M208.733 111.395 C 209.357 111.451,210.377 111.451,211.000 111.395 C 211.623 111.339,211.113 111.293,209.867 111.293 C 208.620 111.293,208.110 111.339,208.733 111.395 M220.194 111.392 C 220.667 111.451,221.507 111.452,222.061 111.395 C 222.614 111.337,222.227 111.289,221.200 111.288 C 220.173 111.286,219.721 111.334,220.194 111.392 M228.467 111.397 C 229.237 111.450,230.497 111.450,231.267 111.397 C 232.037 111.343,231.407 111.299,229.867 111.299 C 228.327 111.299,227.697 111.343,228.467 111.397 M241.009 111.397 C 241.784 111.451,242.984 111.450,243.676 111.396 C 244.367 111.341,243.733 111.297,242.267 111.297 C 240.800 111.298,240.234 111.343,241.009 111.397 M251.533 111.396 C 252.230 111.451,253.370 111.451,254.067 111.396 C 254.763 111.341,254.193 111.296,252.800 111.296 C 251.407 111.296,250.837 111.341,251.533 111.396 M273.542 111.397 C 274.317 111.451,275.517 111.450,276.209 111.396 C 276.901 111.341,276.267 111.297,274.800 111.297 C 273.333 111.298,272.767 111.343,273.542 111.397 M285.809 111.397 C 286.584 111.451,287.784 111.450,288.476 111.396 C 289.167 111.341,288.533 111.297,287.067 111.297 C 285.600 111.298,285.034 111.343,285.809 111.397 M326.594 111.392 C 327.067 111.451,327.907 111.452,328.461 111.395 C 329.014 111.337,328.627 111.289,327.600 111.288 C 326.573 111.286,326.121 111.334,326.594 111.392 M258.204 191.658 C 258.609 191.719,259.209 191.718,259.537 191.654 C 259.865 191.591,259.533 191.541,258.800 191.543 C 258.067 191.545,257.798 191.597,258.204 191.658 M158.467 313.000 C 162.683 313.041,169.583 313.041,173.800 313.000 C 178.017 312.959,174.567 312.925,166.133 312.925 C 157.700 312.925,154.250 312.959,158.467 313.000 M219.378 312.978 C 219.280 313.076,219.202 313.286,219.204 313.444 C 219.207 313.617,219.293 313.600,219.418 313.402 C 219.581 313.146,223.128 313.055,235.081 313.000 L 250.533 312.929 235.044 312.864 C 226.526 312.829,219.476 312.880,219.378 312.978 M183.200 336.489 C 183.200 336.717,181.566 336.800,177.082 336.800 C 173.718 336.800,170.905 336.897,170.831 337.016 C 170.758 337.135,177.381 343.885,185.549 352.016 L 200.400 366.800 185.601 351.933 L 170.802 337.067 176.985 337.067 C 182.769 337.067,183.954 336.931,183.360 336.338 C 183.272 336.250,183.200 336.318,183.200 336.489 M218.475 336.996 C 219.176 337.051,220.256 337.051,220.875 336.995 C 221.494 336.939,220.920 336.894,219.600 336.895 C 218.280 336.895,217.774 336.941,218.475 336.996 " stroke="none" fill="#67d0ec" fill-rule="evenodd"></path><path id="path4" d="" stroke="none" fill="#4ccce4" fill-rule="evenodd"></path></g></svg>