<svg id="svg" version="1.1" xmlns="http://www.w3.org/2000/svg" xmlns:xlink="http://www.w3.org/1999/xlink" width="400" height="400" viewBox="0, 0, 400,400"><g id="svgg"><path id="path0" d="M47.333 33.613 C 36.334 35.336,30.920 43.709,30.939 58.968 C 30.955 72.138,35.098 79.773,43.157 81.481 C 48.047 82.517,53.052 81.499,55.883 78.890 L 57.138 77.733 56.990 85.733 C 56.755 98.330,55.847 100.670,51.210 100.627 C 47.492 100.593,45.886 98.260,45.871 92.867 L 45.867 91.200 38.933 91.200 L 32.000 91.200 32.000 92.474 C 32.000 105.554,38.069 111.599,51.200 111.599 C 63.553 111.599,69.048 106.821,71.385 94.046 C 71.967 90.867,72.244 57.993,71.730 53.245 C 70.164 38.806,61.042 31.466,47.333 33.613 M155.506 33.736 C 151.532 34.851,149.644 38.505,150.771 42.900 C 151.361 45.203,152.287 46.378,156.121 49.686 C 160.373 53.354,161.651 55.771,160.490 57.951 C 158.880 60.973,155.208 58.646,155.201 54.600 C 155.200 53.415,155.047 53.386,152.231 54.026 L 150.357 54.452 150.544 55.826 C 151.234 60.918,153.566 63.067,158.400 63.067 C 163.576 63.067,166.292 60.139,165.767 55.123 C 165.435 51.947,163.947 49.738,159.600 45.974 C 155.493 42.418,154.482 40.258,156.012 38.313 C 157.712 36.151,160.251 37.480,160.686 40.758 C 160.787 41.515,160.883 42.133,160.901 42.133 C 160.919 42.133,161.874 41.953,163.023 41.733 C 164.173 41.513,165.177 41.333,165.254 41.333 C 165.506 41.333,165.029 38.851,164.509 37.463 C 163.294 34.217,159.456 32.628,155.506 33.736 M275.600 33.607 C 272.375 34.258,270.620 36.055,269.877 39.467 C 269.448 41.440,269.621 56.773,270.089 58.181 C 272.390 65.109,283.491 65.127,285.762 58.206 C 286.609 55.622,286.521 40.230,285.646 38.063 C 284.113 34.266,280.430 32.632,275.600 33.607 M347.025 33.594 C 341.924 34.682,341.199 36.529,341.204 48.400 C 341.209 57.970,341.252 58.294,342.822 60.564 C 345.389 64.273,353.955 64.067,356.326 60.238 C 357.969 57.585,358.622 41.746,357.239 38.098 C 355.881 34.514,351.586 32.620,347.025 33.594 M89.067 48.267 L 89.067 62.933 91.600 62.933 L 94.133 62.933 94.133 48.267 L 94.133 33.600 91.600 33.600 L 89.067 33.600 89.067 48.267 M96.978 33.778 C 96.880 33.876,96.800 40.476,96.800 48.444 L 96.800 62.933 99.063 62.933 L 101.326 62.933 101.396 54.336 L 101.467 45.738 105.040 54.336 L 108.614 62.933 110.307 62.933 L 112.000 62.933 112.000 48.267 L 112.000 33.600 109.867 33.600 L 107.733 33.600 107.710 41.800 L 107.687 50.000 106.811 48.133 C 106.329 47.107,104.705 43.417,103.202 39.933 L 100.469 33.600 98.812 33.600 C 97.901 33.600,97.076 33.680,96.978 33.778 M114.667 48.250 L 114.667 62.982 119.800 62.872 C 129.840 62.655,130.530 61.724,130.532 48.400 C 130.534 34.824,129.936 34.022,119.533 33.679 L 114.667 33.518 114.667 48.250 M132.588 45.533 C 132.683 59.082,132.737 59.451,134.908 61.412 C 138.126 64.319,145.414 63.699,147.376 60.350 C 148.721 58.056,148.793 57.273,148.797 45.000 L 148.800 33.600 146.267 33.600 L 143.733 33.600 143.727 44.733 C 143.719 58.501,143.576 59.200,140.768 59.200 C 137.760 59.200,137.748 59.147,137.654 45.267 L 137.574 33.600 135.039 33.600 L 132.503 33.600 132.588 45.533 M165.067 35.600 L 165.067 37.600 167.467 37.600 L 169.867 37.600 169.867 50.267 L 169.867 62.933 172.533 62.933 L 175.200 62.933 175.200 50.267 L 175.200 37.600 177.600 37.600 L 180.000 37.600 180.000 35.600 L 180.000 33.600 172.533 33.600 L 165.067 33.600 165.067 35.600 M180.533 48.226 L 180.533 62.933 183.200 62.933 L 185.867 62.933 185.867 56.267 L 185.867 49.600 187.025 49.600 L 188.184 49.600 189.907 56.200 L 191.631 62.800 194.216 62.876 C 196.080 62.931,196.800 62.864,196.800 62.635 C 196.800 62.460,195.943 59.276,194.896 55.559 L 192.992 48.800 194.209 47.728 C 197.304 45.004,197.205 37.723,194.043 35.432 C 192.302 34.171,190.747 33.855,185.400 33.679 L 180.533 33.518 180.533 48.226 M196.800 33.795 C 196.800 33.913,198.120 37.965,199.733 42.800 L 202.667 51.591 202.667 57.262 L 202.667 62.933 205.200 62.933 L 207.733 62.933 207.733 57.407 L 207.733 51.881 210.667 42.898 C 212.280 37.957,213.600 33.844,213.600 33.757 C 213.600 33.671,212.527 33.600,211.216 33.600 L 208.832 33.600 208.171 35.800 C 207.808 37.010,207.069 39.500,206.530 41.333 C 205.991 43.167,205.466 44.755,205.365 44.864 C 205.263 44.972,204.395 42.512,203.437 39.397 L 201.695 33.733 199.247 33.657 C 197.901 33.614,196.800 33.677,196.800 33.795 M226.667 48.257 L 226.667 62.933 229.336 62.933 L 232.005 62.933 231.936 48.333 L 231.867 33.733 229.267 33.657 L 226.667 33.581 226.667 48.257 M234.667 48.254 L 234.667 62.933 236.800 62.933 L 238.933 62.933 238.933 54.347 C 238.933 49.494,239.034 45.870,239.164 46.013 C 239.291 46.153,240.941 50.016,242.831 54.598 L 246.267 62.930 248.069 62.931 L 249.871 62.933 249.802 48.333 L 249.733 33.733 247.537 33.656 L 245.341 33.579 245.271 41.759 L 245.200 49.940 241.706 41.837 L 238.212 33.733 236.440 33.654 L 234.667 33.576 234.667 48.254 M252.267 48.267 L 252.267 62.933 254.530 62.933 L 256.793 62.933 256.863 54.388 L 256.933 45.842 260.442 54.321 L 263.951 62.800 265.709 62.879 L 267.467 62.958 267.467 48.279 L 267.467 33.600 265.333 33.600 L 263.200 33.600 263.200 41.787 C 263.200 46.630,263.102 49.870,262.961 49.720 C 262.829 49.581,261.183 45.897,259.302 41.533 L 255.883 33.600 254.075 33.600 L 252.267 33.600 252.267 48.267 M287.206 34.067 C 287.210 34.323,288.505 40.893,290.083 48.667 L 292.954 62.800 295.544 62.876 C 296.968 62.918,298.133 62.918,298.133 62.875 C 298.133 62.832,299.453 56.335,301.067 48.436 C 302.680 40.538,304.000 33.968,304.000 33.838 C 304.000 33.707,302.920 33.600,301.600 33.600 C 300.208 33.600,299.200 33.710,299.200 33.862 C 299.200 34.701,295.716 53.672,295.586 53.542 C 295.533 53.488,294.697 49.250,293.729 44.122 C 292.761 38.995,291.903 34.530,291.822 34.200 C 291.622 33.380,287.195 33.252,287.206 34.067 M308.774 33.657 C 308.759 33.699,307.402 40.273,305.758 48.267 L 302.769 62.800 305.162 62.877 C 307.994 62.969,307.762 63.222,308.394 59.336 L 308.893 56.267 311.467 56.267 L 314.040 56.267 314.509 59.000 C 315.262 63.395,314.896 62.933,317.629 62.933 C 319.714 62.933,319.998 62.877,319.987 62.467 C 319.979 62.210,318.680 55.640,317.099 47.867 L 314.224 33.733 311.512 33.657 C 310.020 33.616,308.788 33.616,308.774 33.657 M318.133 35.600 L 318.133 37.600 320.533 37.600 L 322.933 37.600 322.933 50.267 L 322.933 62.933 325.600 62.933 L 328.267 62.933 328.267 50.267 L 328.267 37.600 330.667 37.600 L 333.067 37.600 333.067 35.600 L 333.067 33.600 325.600 33.600 L 318.133 33.600 318.133 35.600 M333.600 48.267 L 333.600 62.933 336.267 62.933 L 338.933 62.933 338.933 48.267 L 338.933 33.600 336.267 33.600 L 333.600 33.600 333.600 48.267 M360.000 48.254 L 360.000 62.933 362.263 62.933 L 364.526 62.933 364.596 54.495 L 364.667 46.057 368.142 54.429 L 371.618 62.800 373.409 62.879 L 375.200 62.958 375.200 48.268 L 375.200 33.578 373.000 33.656 L 370.800 33.733 370.667 41.762 L 370.533 49.790 367.060 41.762 L 363.586 33.733 361.793 33.654 L 360.000 33.576 360.000 48.254 M190.099 38.064 C 190.968 38.708,191.437 39.992,191.437 41.733 C 191.437 44.744,190.171 46.133,187.427 46.133 L 185.867 46.133 185.867 41.697 L 185.867 37.260 187.632 37.402 C 188.786 37.495,189.640 37.724,190.099 38.064 M279.994 38.087 C 281.241 39.333,281.632 55.922,280.465 58.056 C 279.542 59.745,276.596 59.824,275.524 58.189 C 274.850 57.161,274.681 40.737,275.327 39.046 C 276.041 37.175,278.565 36.657,279.994 38.087 M351.464 38.090 C 352.511 39.137,352.582 39.916,352.484 49.346 C 352.389 58.528,352.366 58.643,350.435 59.221 C 349.002 59.650,347.614 59.175,346.995 58.044 C 346.498 57.135,346.147 43.488,346.539 40.288 C 346.884 37.478,349.628 36.253,351.464 38.090 M124.261 38.353 C 125.280 39.372,125.410 40.817,125.287 49.754 C 125.162 58.826,125.004 59.200,121.294 59.200 L 120.000 59.200 120.000 48.400 L 120.000 37.600 121.754 37.600 C 123.323 37.600,123.587 37.679,124.261 38.353 M313.313 52.200 C 313.332 52.767,313.231 52.800,311.467 52.800 C 309.948 52.800,309.600 52.722,309.600 52.381 C 309.600 51.755,311.210 42.063,311.391 41.600 C 311.533 41.236,313.266 50.793,313.313 52.200 M53.888 44.873 C 56.536 46.658,57.053 49.133,57.061 60.066 L 57.067 67.465 56.085 68.552 C 53.158 71.792,48.561 71.429,46.806 67.820 C 45.057 64.224,45.567 49.015,47.533 46.134 C 48.819 44.249,52.019 43.614,53.888 44.873 M213.067 60.533 L 213.067 62.933 214.400 62.933 C 215.426 62.933,215.733 63.028,215.733 63.347 C 215.733 64.115,214.929 65.322,214.147 65.726 C 213.431 66.097,213.389 66.197,213.618 66.996 C 213.755 67.473,213.867 67.896,213.867 67.935 C 213.867 68.156,215.957 67.084,216.497 66.587 C 217.598 65.574,217.867 64.519,217.867 61.209 L 217.867 58.133 215.467 58.133 L 213.067 58.133 213.067 60.533 M231.502 81.343 C 227.706 82.125,225.903 84.394,225.878 88.419 C 225.856 92.051,226.788 93.432,232.841 98.736 C 235.957 101.467,237.004 104.620,235.345 106.279 C 233.449 108.175,230.918 106.369,230.502 102.823 C 230.303 101.133,230.394 101.169,227.766 101.762 L 225.867 102.191 225.867 103.205 C 225.867 110.204,234.456 113.850,239.255 108.889 C 242.974 105.044,241.469 99.501,235.220 94.029 C 231.360 90.650,230.831 89.941,230.814 88.127 C 230.773 83.899,235.483 84.132,235.921 88.379 C 236.105 90.156,235.886 90.112,239.933 89.193 C 240.961 88.959,240.441 85.858,239.012 83.698 C 237.777 81.832,234.348 80.757,231.502 81.343 M300.267 81.336 C 294.879 82.266,294.074 84.008,293.929 95.067 C 293.754 108.390,295.043 110.937,302.000 111.009 C 307.691 111.068,310.102 108.139,310.128 101.133 L 310.133 99.733 307.490 99.733 L 304.846 99.733 304.756 102.793 C 304.647 106.520,304.314 107.067,302.154 107.067 C 299.384 107.067,299.203 106.387,299.201 95.925 C 299.200 85.885,299.427 85.067,302.213 85.067 C 304.175 85.067,304.800 86.093,304.800 89.313 L 304.800 92.000 307.507 92.000 L 310.214 92.000 310.050 89.533 C 309.685 84.054,308.182 82.030,303.966 81.346 C 302.085 81.041,301.979 81.041,300.267 81.336 M93.206 81.933 C 93.038 82.439,87.467 110.077,87.467 110.403 C 87.467 110.589,88.317 110.660,89.927 110.610 L 92.388 110.533 92.939 107.333 L 93.489 104.133 96.049 104.057 L 98.608 103.981 99.050 106.457 C 99.294 107.819,99.560 109.323,99.643 109.800 L 99.793 110.667 102.267 110.667 L 104.741 110.667 103.329 103.800 C 102.552 100.023,101.228 93.483,100.386 89.267 L 98.855 81.600 96.086 81.600 C 94.107 81.600,93.285 81.695,93.206 81.933 M106.133 96.122 L 106.133 110.667 108.396 110.667 L 110.659 110.667 110.730 102.067 L 110.800 93.467 114.364 102.067 L 117.928 110.667 119.631 110.667 L 121.333 110.667 121.333 96.133 L 121.333 81.600 119.200 81.600 L 117.067 81.600 117.067 89.644 C 117.067 94.069,116.988 97.610,116.891 97.513 C 116.794 97.416,115.197 93.826,113.342 89.535 L 109.970 81.733 108.051 81.655 L 106.133 81.577 106.133 96.122 M124.533 96.130 L 124.533 110.707 129.667 110.598 C 139.730 110.385,140.404 109.450,140.393 95.733 C 140.383 82.647,139.758 81.815,129.800 81.643 L 124.533 81.552 124.533 96.130 M150.667 96.133 L 150.667 110.667 153.200 110.667 L 155.733 110.667 155.733 96.133 L 155.733 81.600 153.200 81.600 L 150.667 81.600 150.667 96.133 M158.933 96.133 L 158.933 110.667 161.196 110.667 L 163.459 110.667 163.530 102.236 L 163.600 93.806 167.083 102.170 L 170.566 110.533 172.349 110.612 L 174.133 110.691 174.133 96.146 L 174.133 81.600 171.871 81.600 L 169.608 81.600 169.537 89.561 L 169.467 97.521 166.032 89.561 L 162.597 81.600 160.765 81.600 L 158.933 81.600 158.933 96.133 M177.067 96.133 L 177.067 110.667 179.733 110.667 L 182.400 110.667 182.400 104.000 L 182.400 97.333 185.067 97.333 L 187.733 97.333 187.733 95.467 L 187.733 93.600 185.067 93.600 L 182.400 93.600 182.400 89.333 L 182.400 85.067 185.733 85.067 L 189.067 85.067 189.067 83.333 L 189.067 81.600 183.067 81.600 L 177.067 81.600 177.067 96.133 M190.400 96.110 L 190.400 110.667 193.067 110.667 L 195.733 110.667 195.733 104.000 L 195.733 97.333 196.942 97.333 C 197.671 97.333,198.194 97.465,198.262 97.667 C 198.323 97.850,199.117 100.850,200.026 104.333 L 201.679 110.667 204.306 110.667 C 205.751 110.667,206.933 110.637,206.933 110.600 C 206.932 110.563,206.036 107.356,204.941 103.473 C 203.123 97.027,202.989 96.390,203.408 96.160 C 206.901 94.237,207.571 86.421,204.489 83.546 C 202.851 82.018,201.613 81.747,195.800 81.646 L 190.400 81.553 190.400 96.110 M213.473 81.933 C 213.314 82.413,207.733 110.118,207.733 110.428 C 207.733 110.582,208.728 110.656,210.194 110.610 L 212.655 110.533 213.205 107.333 L 213.756 104.133 216.315 104.057 L 218.875 103.981 219.317 106.457 C 219.560 107.819,219.827 109.323,219.909 109.800 L 220.059 110.667 222.533 110.667 L 225.007 110.667 223.328 102.467 C 222.405 97.957,221.081 91.417,220.386 87.933 L 219.122 81.600 216.353 81.600 C 214.374 81.600,213.552 81.695,213.473 81.933 M240.800 83.457 L 240.800 85.313 243.267 85.390 L 245.733 85.467 245.803 98.067 L 245.872 110.667 248.400 110.667 L 250.928 110.667 250.997 98.067 L 251.067 85.467 253.400 85.390 L 255.733 85.313 255.733 83.456 L 255.733 81.600 248.267 81.600 L 240.800 81.600 240.800 83.457 M256.800 96.133 L 256.800 110.667 259.467 110.667 L 262.133 110.667 262.133 104.000 L 262.133 97.333 263.279 97.333 L 264.424 97.333 266.145 103.933 L 267.867 110.533 270.467 110.610 C 271.897 110.652,273.070 110.592,273.073 110.476 C 273.077 110.361,272.216 107.180,271.161 103.407 L 269.243 96.547 270.468 95.468 C 272.340 93.820,273.133 90.759,272.536 87.478 C 271.674 82.737,269.553 81.600,261.572 81.600 L 256.800 81.600 256.800 96.133 M275.254 93.400 C 275.344 106.697,275.408 107.148,277.518 109.197 C 280.642 112.231,287.919 111.572,290.028 108.064 C 291.359 105.850,291.467 104.693,291.467 92.622 L 291.467 81.600 288.933 81.600 L 286.400 81.600 286.394 92.600 C 286.386 106.296,286.224 107.067,283.349 107.067 C 280.442 107.067,280.267 106.240,280.267 92.549 L 280.267 81.600 277.720 81.600 L 275.174 81.600 275.254 93.400 M310.133 83.467 L 310.133 85.333 312.667 85.333 L 315.200 85.333 315.200 98.000 L 315.200 110.667 317.867 110.667 L 320.533 110.667 320.533 98.000 L 320.533 85.333 322.933 85.333 L 325.333 85.333 325.333 83.467 L 325.333 81.600 317.733 81.600 L 310.133 81.600 310.133 83.467 M325.930 93.133 C 326.042 105.556,326.106 106.160,327.537 108.284 C 330.068 112.039,338.199 112.039,340.729 108.284 C 342.168 106.149,342.230 105.563,342.337 93.133 L 342.436 81.600 339.751 81.600 L 337.067 81.600 337.067 93.075 C 337.067 106.014,337.056 106.097,335.289 106.836 C 334.012 107.369,332.544 106.986,331.829 105.931 C 331.367 105.250,331.328 104.392,331.256 93.400 L 331.179 81.600 328.503 81.600 L 325.827 81.600 325.930 93.133 M345.067 96.133 L 345.067 110.667 347.733 110.667 L 350.400 110.667 350.400 104.000 L 350.400 97.333 351.590 97.333 C 352.740 97.333,352.788 97.367,353.043 98.333 C 353.189 98.883,353.963 101.833,354.765 104.889 C 356.492 111.472,355.923 110.703,359.001 110.610 L 361.538 110.533 359.550 103.467 C 357.691 96.857,357.593 96.383,358.045 96.133 C 361.976 93.966,362.156 85.605,358.327 83.023 C 356.586 81.850,355.076 81.600,349.720 81.600 L 345.067 81.600 345.067 96.133 M363.733 96.133 L 363.733 110.667 369.867 110.667 L 376.000 110.667 376.000 108.800 L 376.000 106.933 372.533 106.933 L 369.067 106.933 369.067 102.133 L 369.067 97.333 371.733 97.333 L 374.400 97.333 374.400 95.467 L 374.400 93.600 371.733 93.600 L 369.067 93.600 369.067 89.467 L 369.067 85.333 372.533 85.333 L 376.000 85.333 376.000 83.467 L 376.000 81.600 369.867 81.600 L 363.733 81.600 363.733 96.133 M199.795 85.616 C 200.902 86.120,201.333 87.197,201.333 89.454 C 201.333 92.807,200.376 93.867,197.347 93.867 L 195.733 93.867 195.733 89.644 C 195.733 87.322,195.823 85.330,195.933 85.216 C 196.194 84.948,198.957 85.234,199.795 85.616 M266.398 85.821 C 268.114 87.093,268.189 91.511,266.521 93.078 C 265.970 93.596,265.488 93.737,263.987 93.822 L 262.133 93.927 262.133 89.458 L 262.133 84.990 263.931 85.157 C 265.043 85.261,265.984 85.514,266.398 85.821 M354.413 85.607 C 355.461 86.168,355.998 87.460,355.999 89.426 C 356.001 92.706,354.959 93.867,352.013 93.867 L 350.400 93.867 350.400 89.428 L 350.400 84.990 352.132 85.151 C 353.084 85.240,354.111 85.445,354.413 85.607 M133.561 85.713 C 134.876 86.393,134.933 86.828,134.933 96.171 C 134.933 106.829,134.898 106.933,131.321 106.933 L 129.867 106.933 129.867 96.133 L 129.867 85.333 131.347 85.333 C 132.161 85.333,133.157 85.504,133.561 85.713 M96.171 100.479 C 95.162 100.522,94.289 100.511,94.231 100.453 C 94.130 100.352,95.552 91.115,95.921 89.467 C 96.052 88.886,96.362 90.274,97.053 94.533 L 98.006 100.400 96.171 100.479 M216.442 100.479 C 215.430 100.522,214.555 100.510,214.496 100.452 C 214.397 100.352,215.808 91.218,216.193 89.467 C 216.320 88.891,216.637 90.308,217.325 94.533 L 218.281 100.400 216.442 100.479 M196.922 151.116 C 151.272 177.401,150.348 177.950,149.835 179.067 C 149.370 180.079,149.344 181.546,149.328 208.000 L 149.311 235.867 127.536 248.400 C 99.448 264.567,100.702 263.818,100.321 264.655 C 99.732 265.947,99.874 324.190,100.468 325.160 C 101.235 326.412,151.241 355.181,152.670 355.192 C 153.603 355.199,156.831 353.415,177.988 341.205 L 202.236 327.210 203.318 327.835 C 252.483 356.268,250.741 355.293,252.111 355.129 C 253.738 354.935,303.593 326.111,304.144 325.046 C 304.479 324.399,304.533 320.124,304.533 294.676 L 304.533 265.059 303.667 264.154 C 303.138 263.602,293.473 257.876,278.867 249.462 L 254.933 235.675 254.933 207.411 L 254.933 179.147 254.067 178.295 C 252.731 176.983,203.670 148.774,202.460 148.623 C 201.584 148.514,200.931 148.808,196.922 151.116 M176.133 197.715 C 186.693 203.814,195.362 208.894,195.397 209.002 C 195.431 209.111,193.751 210.176,191.663 211.369 C 189.575 212.562,180.697 217.681,171.933 222.745 L 156.000 231.951 156.000 209.033 C 156.000 187.286,156.024 186.128,156.467 186.370 C 156.723 186.510,165.573 191.616,176.133 197.715 M248.533 208.962 C 248.533 230.594,248.509 231.781,248.067 231.612 C 247.713 231.477,214.476 212.359,209.663 209.522 L 208.792 209.009 228.596 197.575 C 239.488 191.286,248.430 186.139,248.467 186.137 C 248.503 186.135,248.533 196.406,248.533 208.962 M198.869 249.032 L 198.800 260.463 179.133 249.108 C 168.317 242.862,159.469 237.688,159.472 237.609 C 159.475 237.531,168.325 232.362,179.139 226.124 L 198.800 214.781 198.869 226.190 C 198.908 232.466,198.908 242.744,198.869 249.032 M225.497 226.200 C 236.249 232.397,245.050 237.527,245.055 237.600 C 245.062 237.715,238.114 241.753,211.007 257.385 L 205.600 260.503 205.600 237.718 C 205.600 225.186,205.678 214.933,205.774 214.933 C 205.870 214.933,214.745 220.003,225.497 226.200 M273.600 253.998 C 284.967 260.551,294.355 265.996,294.464 266.100 C 294.915 266.530,251.954 290.998,251.284 290.693 C 250.786 290.466,209.131 266.484,208.861 266.269 C 208.437 265.931,251.895 241.425,252.377 241.731 C 252.683 241.925,262.233 247.445,273.600 253.998 M128.108 284.393 L 149.333 296.654 149.333 321.393 C 149.333 335.000,149.267 346.133,149.186 346.133 C 149.105 346.133,139.445 340.597,127.719 333.830 L 106.400 321.527 106.400 296.741 C 106.400 282.094,106.499 271.992,106.641 272.044 C 106.773 272.093,116.433 277.650,128.108 284.393 M198.832 317.523 C 198.659 317.696,159.653 295.085,159.667 294.820 C 159.673 294.684,168.481 289.490,179.240 283.278 L 198.800 271.983 198.868 294.701 C 198.906 307.196,198.890 317.466,198.832 317.523 M298.133 296.747 L 298.133 321.494 276.794 333.814 C 265.057 340.590,255.336 346.133,255.192 346.133 C 255.022 346.133,254.954 337.460,254.999 321.418 L 255.067 296.703 276.400 284.365 C 288.133 277.579,297.823 272.021,297.933 272.013 C 298.043 272.006,298.133 283.136,298.133 296.747 M176.808 312.516 C 186.997 318.399,195.361 323.299,195.394 323.406 C 195.427 323.513,186.577 328.719,175.727 334.975 L 156.000 346.351 156.000 323.417 L 156.000 300.483 157.141 301.151 C 157.769 301.519,166.619 306.633,176.808 312.516 " stroke="none" fill="#fcfbfa" fill-rule="evenodd"></path><path id="path1" d="M0.000 200.000 L 0.000 400.000 200.000 400.000 L 400.000 400.000 400.000 200.000 L 400.000 0.000 200.000 0.000 L 0.000 0.000 0.000 200.000 M58.000 33.969 C 65.409 35.988,70.000 41.721,71.571 50.914 C 72.197 54.582,72.210 89.049,71.587 93.249 C 69.735 105.722,64.088 111.334,52.800 111.919 C 39.543 112.607,32.622 106.690,32.072 94.200 L 31.928 90.933 38.870 90.933 L 45.811 90.933 45.990 93.133 C 46.473 99.059,47.891 100.807,51.942 100.471 C 55.820 100.150,56.548 98.012,56.728 86.416 L 56.853 78.298 55.886 79.147 C 51.751 82.777,43.392 82.990,38.277 79.595 C 32.707 75.898,29.730 65.538,30.921 54.000 C 32.150 42.100,37.130 35.548,46.420 33.608 C 48.299 33.216,56.131 33.460,58.000 33.969 M161.871 34.149 C 162.591 34.545,163.411 35.321,163.933 36.100 L 164.800 37.394 164.800 35.483 L 164.800 33.572 177.800 33.654 C 191.853 33.743,191.812 33.739,194.003 35.239 C 197.653 37.737,197.230 47.275,193.413 48.559 C 193.189 48.634,193.690 50.777,195.079 55.677 C 196.172 59.532,197.067 62.802,197.067 62.943 C 197.067 63.460,191.739 63.258,191.533 62.733 C 191.432 62.477,190.626 59.507,189.741 56.133 L 188.133 50.000 187.000 49.918 L 185.867 49.836 185.867 56.527 L 185.867 63.219 183.133 63.143 L 180.400 63.067 180.331 50.400 L 180.263 37.733 177.867 37.819 L 175.472 37.904 175.403 50.486 L 175.333 63.067 172.600 63.143 L 169.867 63.219 169.867 50.561 L 169.867 37.903 167.336 37.818 C 165.050 37.742,164.819 37.777,164.950 38.188 C 165.030 38.438,165.191 39.250,165.308 39.993 C 165.550 41.520,165.842 41.309,162.581 41.973 C 160.548 42.386,160.645 42.456,160.450 40.436 C 160.132 37.138,156.253 36.402,155.629 39.521 C 155.216 41.585,155.773 42.372,161.086 47.235 C 168.747 54.247,167.232 63.321,158.400 63.331 C 153.724 63.336,150.939 60.728,150.490 55.926 L 150.333 54.238 152.033 53.910 C 152.968 53.729,154.063 53.512,154.467 53.426 C 155.117 53.289,155.200 53.349,155.200 53.956 C 155.200 57.852,158.226 60.657,160.028 58.431 C 161.482 56.637,160.445 53.701,157.413 51.026 C 150.971 45.339,150.533 44.681,150.533 40.667 C 150.533 37.587,150.995 36.384,152.726 34.950 C 154.849 33.192,159.405 32.793,161.871 34.149 M282.497 34.237 C 285.920 35.912,286.400 37.640,286.400 48.287 C 286.400 60.603,285.246 62.906,278.830 63.390 C 273.458 63.795,270.381 61.395,269.566 56.165 C 269.007 52.573,269.393 39.868,270.118 38.000 C 271.791 33.690,277.704 31.892,282.497 34.237 M354.050 34.210 C 357.351 35.918,357.930 37.752,358.076 46.954 C 358.289 60.369,356.731 63.333,349.467 63.333 C 342.172 63.333,340.570 60.157,340.871 46.293 C 341.073 36.992,341.926 35.029,346.400 33.569 C 347.953 33.062,352.581 33.450,354.050 34.210 M94.336 48.333 L 94.267 63.067 91.600 63.067 L 88.933 63.067 88.864 48.333 L 88.795 33.600 91.600 33.600 L 94.405 33.600 94.336 48.333 M104.000 41.381 L 107.333 49.149 107.404 41.375 L 107.475 33.600 109.873 33.600 L 112.271 33.600 112.202 48.333 L 112.133 63.067 110.367 63.145 L 108.601 63.223 107.285 60.078 C 106.562 58.348,105.017 54.632,103.852 51.819 L 101.733 46.705 101.600 54.886 L 101.467 63.067 99.133 63.144 L 96.800 63.221 96.800 48.410 L 96.800 33.600 98.733 33.606 L 100.667 33.612 104.000 41.381 M124.854 33.900 C 130.118 35.015,130.725 36.575,130.614 48.698 C 130.491 62.051,129.733 63.015,119.333 63.050 L 114.533 63.067 114.464 48.333 L 114.395 33.600 118.918 33.600 C 121.405 33.600,124.076 33.735,124.854 33.900 M137.867 45.075 C 137.867 58.641,137.980 59.200,140.722 59.200 C 143.450 59.200,143.705 57.880,143.722 43.667 L 143.733 33.600 146.417 33.600 L 149.102 33.600 149.012 45.400 C 148.909 58.902,148.858 59.238,146.542 61.486 C 143.877 64.072,137.099 64.012,134.579 61.381 C 132.568 59.281,132.279 57.108,132.272 44.067 L 132.267 33.600 135.067 33.600 L 137.867 33.600 137.867 45.075 M203.475 39.053 C 204.403 42.052,205.240 44.457,205.336 44.398 C 205.433 44.339,206.219 41.885,207.083 38.945 L 208.655 33.600 211.253 33.600 C 213.210 33.600,213.823 33.682,213.742 33.933 C 213.683 34.117,212.397 37.987,210.885 42.533 L 208.135 50.800 208.001 56.933 L 207.867 63.067 205.267 63.143 L 202.667 63.219 202.667 57.698 L 202.667 52.176 199.987 44.021 C 198.513 39.536,197.140 35.357,196.936 34.733 L 196.566 33.600 199.177 33.600 L 201.789 33.600 203.475 39.053 M232.000 48.400 L 232.000 63.200 229.333 63.200 L 226.667 63.200 226.667 48.400 L 226.667 33.600 229.333 33.600 L 232.000 33.600 232.000 48.400 M241.752 41.602 L 245.200 49.604 245.271 41.602 L 245.341 33.600 247.604 33.600 L 249.867 33.600 249.867 48.400 L 249.867 63.200 248.166 63.200 C 246.050 63.200,246.573 64.021,242.645 54.539 L 239.333 46.545 239.200 54.806 L 239.067 63.067 236.800 63.067 L 234.533 63.067 234.464 48.333 L 234.395 33.600 236.349 33.600 L 238.303 33.600 241.752 41.602 M259.441 41.510 L 262.800 49.286 262.871 41.443 L 262.941 33.600 265.340 33.600 L 267.738 33.600 267.669 48.333 L 267.600 63.067 265.765 63.067 L 263.929 63.067 260.374 54.533 L 256.819 46.000 256.810 54.600 L 256.800 63.200 254.533 63.200 L 252.267 63.200 252.267 48.388 L 252.267 33.577 254.174 33.655 L 256.081 33.733 259.441 41.510 M293.748 43.502 C 294.767 48.948,295.633 53.238,295.673 53.035 C 295.712 52.833,296.501 48.407,297.426 43.200 L 299.107 33.733 301.687 33.657 C 303.106 33.615,304.261 33.615,304.254 33.657 C 304.247 33.699,302.889 40.333,301.236 48.400 L 298.231 63.067 295.739 63.144 C 294.369 63.186,293.148 63.122,293.027 63.000 C 292.862 62.835,286.933 34.343,286.933 33.715 C 286.933 33.652,288.050 33.600,289.415 33.600 L 291.897 33.600 293.748 43.502 M314.400 33.766 C 314.400 33.857,315.720 40.442,317.333 48.400 C 318.947 56.358,320.267 62.947,320.267 63.044 C 320.267 63.140,319.101 63.185,317.675 63.143 L 315.084 63.067 314.488 59.733 C 314.161 57.900,313.887 56.370,313.880 56.333 C 313.872 56.297,312.792 56.267,311.479 56.267 L 309.091 56.267 308.935 57.133 C 308.849 57.610,308.570 59.140,308.316 60.533 L 307.854 63.067 305.260 63.143 C 303.448 63.196,302.667 63.127,302.667 62.915 C 302.667 62.747,303.987 56.123,305.600 48.194 C 307.213 40.266,308.533 33.739,308.533 33.690 C 308.533 33.640,309.853 33.600,311.467 33.600 C 313.080 33.600,314.400 33.675,314.400 33.766 M333.067 35.733 L 333.067 37.867 330.803 37.867 L 328.539 37.867 328.469 50.467 L 328.400 63.067 325.667 63.143 L 322.933 63.219 322.933 50.553 L 322.933 37.887 320.467 37.810 L 318.000 37.733 317.922 35.667 L 317.844 33.600 325.455 33.600 L 333.067 33.600 333.067 35.733 M338.933 48.400 L 338.933 63.200 336.267 63.200 L 333.600 63.200 333.600 48.400 L 333.600 33.600 336.267 33.600 L 338.933 33.600 338.933 48.400 M366.404 39.933 C 367.909 43.417,369.473 46.987,369.881 47.867 L 370.621 49.467 370.644 41.533 L 370.667 33.600 372.933 33.600 L 375.200 33.600 375.200 48.412 L 375.200 63.224 373.400 63.146 L 371.600 63.067 368.133 54.742 L 364.667 46.417 364.596 54.819 L 364.526 63.221 362.196 63.144 L 359.867 63.067 359.798 48.333 L 359.729 33.600 361.699 33.600 L 363.669 33.600 366.404 39.933 M276.870 37.641 C 275.214 38.099,275.171 38.396,275.257 48.696 L 275.333 57.913 276.082 58.557 C 277.123 59.452,278.969 59.455,279.861 58.563 C 280.785 57.639,280.836 57.008,280.747 47.539 L 280.667 38.945 280.000 38.305 C 279.215 37.552,278.071 37.309,276.870 37.641 M348.315 37.637 C 346.750 38.087,346.667 38.624,346.667 48.267 C 346.667 57.353,346.779 58.280,347.960 58.912 C 348.927 59.429,350.568 59.259,351.385 58.557 L 352.133 57.913 352.210 48.696 C 352.297 38.258,352.274 38.116,350.466 37.614 C 349.916 37.461,349.407 37.346,349.333 37.359 C 349.260 37.371,348.802 37.496,348.315 37.637 M120.000 48.401 L 120.000 59.276 121.648 59.104 C 125.085 58.744,125.124 58.614,125.016 47.672 L 124.933 39.211 124.233 38.511 C 123.660 37.939,123.207 37.784,121.766 37.669 L 120.000 37.527 120.000 48.401 M185.867 41.874 L 185.867 46.207 187.507 46.059 C 190.422 45.794,191.259 44.724,191.143 41.406 C 191.039 38.427,190.471 37.800,187.736 37.645 L 185.867 37.540 185.867 41.874 M310.508 47.400 L 309.718 52.400 311.424 52.480 C 312.362 52.523,313.161 52.523,313.200 52.480 C 313.333 52.328,311.617 42.400,311.457 42.400 C 311.370 42.400,310.942 44.650,310.508 47.400 M49.871 44.526 C 46.821 45.288,45.664 49.875,45.935 60.133 C 46.146 68.095,47.049 70.061,50.731 70.565 C 52.483 70.805,54.019 70.262,55.498 68.878 L 56.800 67.660 56.795 59.497 C 56.788 46.280,55.345 43.160,49.871 44.526 M218.122 61.000 C 218.104 65.425,216.602 68.000,214.040 68.000 C 213.518 68.000,213.149 66.061,213.641 65.897 C 215.499 65.278,215.981 63.200,214.267 63.200 L 213.067 63.200 213.067 60.667 L 213.067 58.133 215.600 58.133 L 218.133 58.133 218.122 61.000 M236.974 81.813 C 239.043 82.881,240.422 85.231,240.593 87.982 L 240.667 89.165 238.400 89.625 C 237.153 89.878,236.124 90.066,236.113 90.043 C 236.102 90.019,235.956 89.232,235.789 88.293 C 235.279 85.436,233.252 84.324,231.588 85.988 C 229.832 87.744,230.888 90.089,235.067 93.708 C 239.467 97.518,240.937 99.727,241.241 102.989 C 242.151 112.728,228.204 114.536,225.996 104.965 C 225.340 102.124,225.357 102.096,228.000 101.569 C 230.488 101.072,230.654 101.133,230.664 102.533 C 230.694 106.775,235.272 108.748,235.901 104.790 C 236.287 102.363,235.452 101.197,229.551 95.927 C 225.060 91.916,224.249 86.779,227.555 83.280 C 229.643 81.070,234.169 80.365,236.974 81.813 M306.202 81.802 C 308.885 83.007,310.133 85.576,310.133 89.895 L 310.133 92.267 307.467 92.267 L 304.800 92.267 304.799 90.067 C 304.796 86.173,304.304 85.333,302.028 85.333 C 299.452 85.333,299.425 85.453,299.522 96.579 L 299.600 105.558 300.258 106.257 C 300.823 106.858,301.101 106.946,302.231 106.879 C 304.235 106.759,304.642 106.057,304.758 102.515 L 304.849 99.733 307.524 99.733 L 310.200 99.733 310.078 102.733 C 309.825 108.945,307.258 111.452,301.462 111.148 C 297.494 110.939,295.499 109.458,294.209 105.761 C 293.414 103.484,293.504 88.221,294.325 86.039 C 295.993 81.606,301.439 79.664,306.202 81.802 M99.184 82.709 C 99.962 86.335,104.800 110.411,104.800 110.655 C 104.800 110.889,99.771 111.098,99.718 110.867 C 99.710 110.830,99.433 109.300,99.104 107.467 L 98.505 104.133 96.052 104.057 C 94.704 104.014,93.600 104.067,93.600 104.174 C 93.600 104.281,93.342 105.846,93.026 107.651 L 92.453 110.933 89.798 110.933 C 87.180 110.933,87.144 110.925,87.282 110.333 C 87.359 110.003,88.713 103.343,90.291 95.533 L 93.160 81.333 96.025 81.333 L 98.889 81.333 99.184 82.709 M113.332 89.181 L 116.667 96.894 116.800 89.181 L 116.933 81.467 119.267 81.390 L 121.600 81.313 121.600 96.123 L 121.600 110.933 119.763 110.933 L 117.925 110.933 116.833 108.333 C 116.232 106.903,114.663 103.153,113.347 100.000 L 110.953 94.267 110.876 102.533 L 110.800 110.800 108.467 110.877 L 106.133 110.954 106.133 96.132 L 106.133 81.310 108.066 81.388 L 109.998 81.467 113.332 89.181 M134.299 81.625 C 136.860 82.071,138.601 83.241,139.592 85.181 L 140.400 86.762 140.400 95.981 C 140.400 104.792,140.375 105.254,139.838 106.414 C 138.182 109.993,136.524 110.702,129.400 110.873 L 124.267 110.997 124.267 96.165 L 124.267 81.333 128.445 81.333 C 130.743 81.333,133.377 81.465,134.299 81.625 M155.867 96.133 L 155.867 110.800 153.133 110.876 L 150.400 110.952 150.400 96.133 L 150.400 81.315 153.133 81.391 L 155.867 81.467 155.867 96.133 M164.601 85.933 C 165.699 88.463,167.243 92.033,168.032 93.867 L 169.467 97.200 169.537 89.267 L 169.608 81.333 171.871 81.333 L 174.133 81.333 174.133 96.133 L 174.133 110.933 172.333 110.929 L 170.533 110.925 167.067 102.506 L 163.600 94.088 163.530 102.521 L 163.459 110.954 161.130 110.877 L 158.800 110.800 158.731 96.400 C 158.650 79.664,158.425 81.333,160.760 81.333 L 162.604 81.333 164.601 85.933 M189.200 83.333 L 189.200 85.200 185.933 85.275 L 182.667 85.350 182.667 89.475 L 182.667 93.600 185.345 93.600 L 188.023 93.600 187.945 95.533 L 187.867 97.467 185.271 97.543 L 182.676 97.619 182.605 104.210 L 182.533 110.800 179.800 110.876 L 177.067 110.952 177.067 96.138 L 177.067 81.323 183.133 81.395 L 189.200 81.467 189.200 83.333 M200.230 81.613 C 202.036 81.906,204.105 82.816,204.856 83.648 C 207.465 86.535,207.041 93.915,204.159 95.783 C 203.635 96.122,203.205 96.484,203.203 96.588 C 203.200 96.748,206.668 109.135,207.089 110.467 C 207.223 110.891,206.981 110.933,204.437 110.933 L 201.638 110.933 201.239 109.533 C 200.902 108.348,200.342 106.212,198.372 98.600 C 198.127 97.656,198.053 97.600,197.056 97.600 L 196.000 97.600 196.000 104.267 L 196.000 110.933 193.200 110.933 L 190.400 110.933 190.400 96.133 L 190.400 81.333 194.467 81.335 C 196.703 81.336,199.297 81.461,200.230 81.613 M219.290 81.933 C 219.616 83.260,225.067 110.328,225.067 110.620 C 225.067 110.885,220.038 111.129,219.987 110.867 C 219.980 110.830,219.706 109.300,219.379 107.467 L 218.783 104.133 216.325 104.057 C 214.973 104.014,213.867 104.067,213.867 104.174 C 213.867 104.281,213.609 105.846,213.293 107.651 L 212.720 110.933 210.064 110.933 C 207.447 110.933,207.411 110.925,207.550 110.333 C 207.627 110.003,208.981 103.343,210.560 95.533 L 213.429 81.333 216.285 81.333 C 219.027 81.333,219.148 81.358,219.290 81.933 M256.000 83.467 L 256.000 85.600 253.600 85.600 L 251.200 85.600 251.200 98.267 L 251.200 110.933 248.400 110.933 L 245.600 110.933 245.600 98.267 L 245.600 85.600 243.200 85.600 L 240.800 85.600 240.800 83.467 L 240.800 81.333 248.400 81.333 L 256.000 81.333 256.000 83.467 M268.209 81.974 C 271.240 82.946,272.800 85.491,272.800 89.467 C 272.800 92.682,271.406 95.724,269.671 96.292 C 269.436 96.369,269.911 98.416,271.335 103.467 C 272.432 107.353,273.330 110.623,273.331 110.733 C 273.332 110.843,272.092 110.933,270.575 110.933 L 267.816 110.933 266.093 104.333 L 264.370 97.733 263.252 97.651 L 262.133 97.569 262.133 104.251 L 262.133 110.933 259.333 110.933 L 256.533 110.933 256.533 96.105 L 256.533 81.277 261.667 81.400 C 265.482 81.491,267.162 81.639,268.209 81.974 M280.533 93.422 L 280.667 105.378 281.538 106.155 C 282.481 106.999,284.042 107.207,284.800 106.592 C 286.022 105.599,285.993 105.884,286.133 93.359 L 286.267 81.467 289.000 81.391 L 291.733 81.315 291.731 91.924 C 291.728 109.207,290.603 111.596,282.681 111.135 C 275.737 110.731,274.939 108.750,274.935 91.924 L 274.933 81.315 277.667 81.391 L 280.400 81.467 280.533 93.422 M325.333 83.467 L 325.333 85.600 322.933 85.600 L 320.533 85.600 320.533 98.276 L 320.533 110.952 317.800 110.876 L 315.067 110.800 314.997 98.200 L 314.928 85.600 312.531 85.600 L 310.133 85.600 310.133 83.467 L 310.133 81.333 317.733 81.333 L 325.333 81.333 325.333 83.467 M331.200 92.254 C 331.200 106.074,331.372 106.933,334.133 106.933 C 336.907 106.933,337.067 106.142,337.067 92.415 L 337.067 81.333 339.746 81.333 L 342.425 81.333 342.346 93.407 L 342.267 105.481 341.333 107.340 C 338.847 112.295,329.823 112.723,327.221 108.009 C 325.971 105.746,325.875 104.652,325.871 92.600 L 325.867 81.333 328.533 81.333 L 331.200 81.333 331.200 92.254 M354.786 81.596 C 359.435 82.357,361.289 84.794,361.146 89.954 C 361.065 92.881,360.249 94.767,358.595 95.851 C 357.659 96.464,357.575 95.896,359.733 103.581 C 360.760 107.238,361.600 110.392,361.600 110.591 C 361.600 110.876,361.028 110.936,358.874 110.876 L 356.147 110.800 354.430 104.200 L 352.713 97.600 351.694 97.600 L 350.676 97.600 350.605 104.200 L 350.533 110.800 347.800 110.876 L 345.067 110.952 345.067 96.143 L 345.067 81.333 349.133 81.335 C 351.370 81.336,353.914 81.453,354.786 81.596 M376.000 83.333 L 376.000 85.333 372.533 85.333 L 369.067 85.333 369.067 89.467 L 369.067 93.600 371.867 93.600 L 374.667 93.600 374.667 95.600 L 374.667 97.600 371.867 97.600 L 369.067 97.600 369.067 102.267 L 369.067 106.933 372.678 106.933 L 376.290 106.933 376.212 108.867 L 376.133 110.800 369.867 110.800 L 363.600 110.800 363.531 96.400 C 363.493 88.480,363.519 81.850,363.589 81.667 C 363.686 81.413,365.191 81.333,369.858 81.333 L 376.000 81.333 376.000 83.333 M129.867 96.132 L 129.867 107.007 131.476 106.861 C 134.840 106.556,134.930 106.276,134.930 96.133 C 134.930 85.982,134.866 85.780,131.515 85.430 L 129.867 85.257 129.867 96.132 M196.000 89.600 L 196.000 93.867 197.267 93.866 C 199.918 93.865,201.345 92.363,201.318 89.600 C 201.287 86.501,200.216 85.335,197.400 85.334 L 196.000 85.333 196.000 89.600 M262.133 89.606 L 262.133 93.940 263.814 93.805 C 266.780 93.567,267.583 92.508,267.425 89.041 C 267.295 86.166,266.701 85.531,264.003 85.379 L 262.133 85.273 262.133 89.606 M350.667 89.637 L 350.667 93.941 352.307 93.792 C 355.083 93.540,356.217 91.969,355.878 88.844 C 355.585 86.150,354.674 85.333,351.960 85.333 L 350.667 85.333 350.667 89.637 M95.906 90.400 C 95.473 92.728,94.400 99.449,94.400 99.836 C 94.400 100.189,94.717 100.267,96.145 100.267 L 97.891 100.267 97.728 99.400 C 97.639 98.923,97.232 96.493,96.823 94.000 C 96.235 90.413,96.044 89.662,95.906 90.400 M216.294 89.733 C 216.276 89.880,215.903 92.100,215.467 94.667 C 214.419 100.828,214.324 100.267,216.412 100.267 L 218.158 100.267 217.996 99.400 C 217.907 98.923,217.495 96.493,217.081 94.000 C 216.667 91.507,216.313 89.587,216.294 89.733 M228.652 163.153 C 244.852 172.506,254.168 178.036,254.519 178.505 C 255.061 179.232,255.068 179.511,255.200 207.499 L 255.333 235.758 279.441 249.679 C 295.322 258.849,303.739 263.857,304.108 264.353 C 304.666 265.105,304.667 265.139,304.746 294.219 C 304.828 324.577,304.823 324.725,303.671 325.792 C 302.624 326.761,253.029 355.240,252.135 355.385 C 251.037 355.563,253.174 356.735,225.918 341.009 C 212.639 333.347,202.203 327.485,201.988 327.568 C 201.778 327.648,190.970 333.854,177.971 341.359 C 151.463 356.662,153.204 355.749,151.658 355.165 C 148.720 354.056,100.687 325.920,100.208 325.027 C 99.432 323.579,99.479 265.887,100.258 264.609 C 100.917 263.528,98.846 264.775,126.063 249.078 L 149.326 235.661 149.396 207.302 L 149.467 178.943 150.267 178.176 C 150.834 177.631,191.736 153.829,200.667 148.847 C 202.333 147.918,201.765 147.627,228.652 163.153 M156.000 209.073 L 156.000 231.746 156.893 231.273 C 159.564 229.859,195.191 209.174,195.195 209.035 C 195.200 208.877,156.417 186.400,156.138 186.400 C 156.062 186.400,156.000 196.603,156.000 209.073 M228.627 197.676 C 217.899 203.867,209.199 209.013,209.294 209.110 C 209.389 209.207,218.197 214.325,228.867 220.483 L 248.267 231.679 248.267 209.040 C 248.267 196.588,248.237 186.404,248.200 186.409 C 248.163 186.414,239.356 191.484,228.627 197.676 M179.270 226.196 C 168.529 232.395,159.739 237.534,159.737 237.616 C 159.732 237.814,198.711 260.311,198.838 260.184 C 198.892 260.130,198.906 249.925,198.868 237.506 L 198.800 214.926 179.270 226.196 M205.600 237.600 C 205.600 250.084,205.690 260.252,205.800 260.195 C 207.436 259.348,244.798 237.700,244.792 237.603 C 244.786 237.497,215.192 220.342,207.156 215.785 L 205.600 214.902 205.600 237.600 M230.311 253.920 C 216.570 261.860,209.149 266.292,209.378 266.421 C 209.573 266.532,219.194 272.087,230.756 278.767 L 251.779 290.912 273.090 278.603 C 284.811 271.833,294.311 266.207,294.201 266.100 C 293.918 265.827,251.913 241.598,251.741 241.610 C 251.663 241.615,242.020 247.154,230.311 253.920 M180.667 282.602 C 170.693 288.364,161.845 293.469,161.003 293.945 L 159.472 294.812 179.136 306.170 L 198.800 317.529 198.870 306.078 C 198.908 299.780,198.908 289.564,198.870 283.376 L 198.800 272.126 180.667 282.602 M106.667 296.903 L 106.667 321.539 127.000 333.272 C 138.183 339.726,147.784 345.272,148.335 345.597 L 149.336 346.188 149.268 321.456 L 149.200 296.724 128.027 284.495 C 116.382 277.770,106.812 272.267,106.761 272.267 C 106.709 272.267,106.667 283.353,106.667 296.903 M276.400 284.500 L 255.333 296.692 255.265 321.444 L 255.197 346.196 255.799 345.811 C 256.129 345.599,265.730 340.044,277.133 333.467 L 297.867 321.508 297.867 296.887 C 297.867 283.346,297.777 272.276,297.667 272.288 C 297.557 272.299,287.987 277.795,276.400 284.500 M156.000 323.445 L 156.000 346.146 156.894 345.673 C 160.397 343.819,195.179 323.559,195.129 323.402 C 195.074 323.226,157.158 301.213,156.333 300.878 C 156.068 300.771,156.000 305.389,156.000 323.445 " stroke="none" fill="#fc6c24" fill-rule="evenodd"></path><path id="path2" d="M88.924 48.400 C 88.924 56.467,88.958 59.805,89.000 55.819 C 89.041 51.833,89.041 45.233,89.000 41.152 C 88.958 37.072,88.925 40.333,88.924 48.400 M94.258 48.400 C 94.258 56.467,94.292 59.805,94.333 55.819 C 94.375 51.833,94.375 45.233,94.333 41.152 C 94.292 37.072,94.258 40.333,94.258 48.400 M112.124 48.400 C 112.124 56.467,112.158 59.805,112.200 55.819 C 112.241 51.833,112.241 45.233,112.200 41.152 C 112.158 37.072,112.125 40.333,112.124 48.400 M148.921 44.267 C 148.921 50.060,148.957 52.430,149.000 49.533 C 149.043 46.637,149.043 41.897,149.000 39.000 C 148.957 36.103,148.921 38.473,148.921 44.267 M234.524 48.400 C 234.524 56.467,234.558 59.805,234.600 55.819 C 234.641 51.833,234.641 45.233,234.600 41.152 C 234.558 37.072,234.525 40.333,234.524 48.400 M262.874 41.759 C 262.833 46.100,262.890 49.707,263.000 49.775 C 263.110 49.843,263.200 46.291,263.200 41.882 C 263.200 37.474,263.143 33.867,263.074 33.867 C 263.005 33.867,262.915 37.418,262.874 41.759 M359.858 48.400 C 359.858 56.467,359.892 59.805,359.933 55.819 C 359.975 51.833,359.975 45.233,359.933 41.152 C 359.892 37.072,359.858 40.333,359.858 48.400 M175.323 50.267 C 175.323 57.307,175.358 60.148,175.400 56.582 C 175.442 53.015,175.442 47.255,175.400 43.782 C 175.358 40.308,175.323 43.227,175.323 50.267 M346.519 48.400 C 346.518 52.947,346.555 54.844,346.599 52.617 C 346.644 50.389,346.644 46.669,346.600 44.350 C 346.555 42.031,346.519 43.853,346.519 48.400 M280.918 48.400 C 280.918 52.800,280.955 54.637,280.999 52.483 C 281.044 50.329,281.044 46.729,281.000 44.483 C 280.955 42.237,280.918 44.000,280.918 48.400 M125.184 48.133 C 125.184 52.240,125.221 53.883,125.266 51.784 C 125.311 49.685,125.311 46.325,125.266 44.317 C 125.221 42.309,125.184 44.027,125.184 48.133 M269.447 48.267 C 269.447 51.567,269.486 52.917,269.532 51.267 C 269.579 49.617,269.579 46.917,269.532 45.267 C 269.486 43.617,269.447 44.967,269.447 48.267 M238.933 54.400 C 238.933 59.142,238.990 62.965,239.060 62.896 C 239.239 62.717,239.260 46.105,239.081 45.926 C 239.000 45.844,238.933 49.658,238.933 54.400 M157.867 51.283 C 157.867 51.329,158.257 51.719,158.733 52.150 L 159.600 52.933 158.817 52.067 C 158.087 51.259,157.867 51.077,157.867 51.283 M310.467 52.728 C 311.017 52.785,311.917 52.785,312.467 52.728 C 313.017 52.670,312.567 52.623,311.467 52.623 C 310.367 52.623,309.917 52.670,310.467 52.728 M30.764 59.067 C 30.765 60.533,30.810 61.099,30.864 60.324 C 30.918 59.549,30.917 58.349,30.862 57.658 C 30.808 56.966,30.763 57.600,30.764 59.067 M217.964 60.667 C 217.965 62.133,218.010 62.699,218.064 61.924 C 218.118 61.149,218.117 59.949,218.062 59.258 C 218.008 58.566,217.963 59.200,217.964 60.667 M140.070 63.391 C 140.476 63.453,141.076 63.451,141.404 63.388 C 141.732 63.324,141.400 63.274,140.667 63.276 C 139.933 63.278,139.665 63.330,140.070 63.391 M158.070 63.389 C 158.401 63.452,158.881 63.450,159.136 63.383 C 159.391 63.316,159.120 63.264,158.533 63.267 C 157.947 63.270,157.738 63.325,158.070 63.389 M277.404 63.391 C 277.809 63.453,278.409 63.451,278.737 63.388 C 279.065 63.324,278.733 63.274,278.000 63.276 C 277.267 63.278,276.998 63.330,277.404 63.391 M348.870 63.391 C 349.276 63.453,349.876 63.451,350.204 63.388 C 350.532 63.324,350.200 63.274,349.467 63.276 C 348.733 63.278,348.465 63.330,348.870 63.391 M93.240 81.533 C 93.172 81.643,93.975 81.701,95.025 81.660 C 98.455 81.530,98.851 81.424,96.082 81.378 C 94.588 81.354,93.309 81.423,93.240 81.533 M106.800 81.493 C 108.027 81.692,110.074 81.718,109.959 81.533 C 109.891 81.423,109.032 81.350,108.051 81.370 C 107.070 81.390,106.507 81.445,106.800 81.493 M119.267 81.528 L 121.333 81.622 121.333 96.131 L 121.333 110.641 119.732 110.741 L 118.131 110.842 119.799 110.821 L 121.467 110.800 121.467 96.133 L 121.467 81.467 119.333 81.451 L 117.200 81.434 119.267 81.528 M124.389 81.667 C 124.319 81.850,124.293 88.480,124.331 96.400 L 124.400 110.800 128.133 110.811 L 131.867 110.822 128.200 110.737 L 124.533 110.652 124.533 96.133 L 124.533 81.614 128.467 81.533 L 132.400 81.451 128.458 81.392 C 125.506 81.348,124.485 81.417,124.389 81.667 M150.522 81.667 C 150.452 81.850,150.426 88.480,150.464 96.400 L 150.533 110.800 153.200 110.816 L 155.867 110.832 153.267 110.740 L 150.667 110.647 150.667 96.133 L 150.667 81.619 153.267 81.532 L 155.867 81.445 153.258 81.389 C 151.375 81.349,150.614 81.426,150.522 81.667 M159.661 81.526 C 160.134 81.585,160.974 81.586,161.527 81.528 C 162.081 81.470,161.693 81.422,160.667 81.421 C 159.640 81.420,159.187 81.467,159.661 81.526 M170.867 81.529 C 171.490 81.585,172.510 81.585,173.133 81.529 C 173.757 81.472,173.247 81.427,172.000 81.427 C 170.753 81.427,170.243 81.472,170.867 81.529 M180.082 81.533 C 181.813 81.579,184.573 81.579,186.215 81.532 C 187.857 81.486,186.440 81.447,183.067 81.448 C 179.693 81.448,178.350 81.486,180.082 81.533 M192.612 81.532 C 193.756 81.582,195.556 81.582,196.612 81.531 C 197.669 81.481,196.733 81.440,194.533 81.440 C 192.333 81.440,191.469 81.482,192.612 81.532 M213.507 81.533 C 213.439 81.643,214.241 81.701,215.291 81.660 C 218.721 81.530,219.117 81.424,216.349 81.378 C 214.854 81.354,213.575 81.423,213.507 81.533 M248.200 81.531 L 255.733 81.608 255.733 83.460 L 255.733 85.313 253.400 85.390 L 251.067 85.467 250.997 98.067 L 250.928 110.667 248.400 110.667 L 245.872 110.667 245.803 98.067 L 245.733 85.467 243.200 85.450 L 240.667 85.433 243.131 85.527 L 245.595 85.620 245.664 98.210 L 245.733 110.800 248.400 110.800 L 251.067 110.800 251.136 98.210 L 251.205 85.621 253.536 85.544 L 255.867 85.467 255.867 83.467 L 255.867 81.467 248.267 81.460 L 240.667 81.454 248.200 81.531 M256.656 81.667 C 256.585 81.850,256.559 88.480,256.597 96.400 L 256.667 110.800 259.333 110.816 L 262.000 110.832 259.400 110.740 L 256.800 110.647 256.800 96.131 L 256.800 81.614 260.733 81.533 L 264.667 81.451 260.725 81.392 C 257.773 81.348,256.751 81.417,256.656 81.667 M275.055 81.668 C 274.984 81.851,274.960 86.501,275.000 92.001 L 275.073 102.000 275.137 91.810 L 275.200 81.619 277.800 81.532 L 280.400 81.445 277.792 81.389 C 275.904 81.349,275.148 81.426,275.055 81.668 M288.930 81.528 L 291.460 81.619 291.535 91.676 L 291.610 101.733 291.605 91.600 L 291.600 81.467 288.999 81.451 L 286.399 81.436 288.930 81.528 M314.083 81.533 C 316.182 81.578,319.542 81.578,321.549 81.533 C 323.557 81.487,321.840 81.450,317.733 81.451 C 313.627 81.451,311.984 81.488,314.083 81.533 M327.142 81.530 C 327.917 81.584,329.117 81.584,329.809 81.529 C 330.501 81.474,329.867 81.430,328.400 81.431 C 326.933 81.431,326.367 81.476,327.142 81.530 M338.609 81.530 C 339.384 81.584,340.584 81.584,341.276 81.529 C 341.967 81.474,341.333 81.430,339.867 81.431 C 338.400 81.431,337.834 81.476,338.609 81.530 M347.012 81.532 C 348.156 81.582,349.956 81.582,351.012 81.531 C 352.069 81.481,351.133 81.440,348.933 81.440 C 346.733 81.440,345.869 81.482,347.012 81.532 M366.733 81.532 C 368.457 81.579,371.277 81.579,373.000 81.532 C 374.723 81.486,373.313 81.448,369.867 81.448 C 366.420 81.448,365.010 81.486,366.733 81.532 M184.078 85.265 C 185.074 85.316,186.634 85.316,187.544 85.264 C 188.455 85.212,187.640 85.170,185.733 85.170 C 183.827 85.171,183.082 85.213,184.078 85.265 M195.851 85.411 C 195.778 85.601,195.755 87.611,195.800 89.878 L 195.882 94.000 195.941 89.682 L 196.000 85.364 197.133 85.262 L 198.267 85.160 197.125 85.113 C 196.401 85.084,195.935 85.193,195.851 85.411 M262.737 85.258 C 263.142 85.319,263.742 85.318,264.070 85.254 C 264.398 85.191,264.067 85.141,263.333 85.143 C 262.600 85.145,262.332 85.197,262.737 85.258 M351.004 85.258 C 351.409 85.319,352.009 85.318,352.337 85.254 C 352.665 85.191,352.333 85.141,351.600 85.143 C 350.867 85.145,350.598 85.197,351.004 85.258 M311.533 85.529 C 312.230 85.584,313.370 85.584,314.067 85.529 C 314.763 85.474,314.193 85.429,312.800 85.429 C 311.407 85.429,310.837 85.474,311.533 85.529 M321.675 85.530 C 322.376 85.585,323.456 85.584,324.075 85.528 C 324.694 85.472,324.120 85.427,322.800 85.428 C 321.480 85.429,320.974 85.475,321.675 85.530 M230.729 88.000 C 230.729 88.513,230.783 88.723,230.850 88.467 C 230.918 88.210,230.918 87.790,230.850 87.533 C 230.783 87.277,230.729 87.487,230.729 88.000 M306.200 92.196 C 306.897 92.251,308.037 92.251,308.733 92.196 C 309.430 92.141,308.860 92.096,307.467 92.096 C 306.073 92.096,305.503 92.141,306.200 92.196 M374.451 95.391 L 374.400 97.315 371.667 97.401 L 368.933 97.488 371.675 97.544 C 374.832 97.609,374.739 97.684,374.598 95.172 L 374.503 93.467 374.451 95.391 M183.667 97.530 C 184.437 97.584,185.697 97.584,186.467 97.530 C 187.237 97.476,186.607 97.432,185.067 97.432 C 183.527 97.432,182.897 97.476,183.667 97.530 M195.795 103.924 L 195.733 110.647 193.133 110.735 L 190.533 110.822 193.142 110.878 C 196.326 110.946,196.027 111.712,195.933 103.728 L 195.857 97.200 195.795 103.924 M241.129 104.000 C 241.129 104.513,241.183 104.723,241.250 104.467 C 241.318 104.210,241.318 103.790,241.250 103.533 C 241.183 103.277,241.129 103.487,241.129 104.000 M87.375 110.733 C 87.443 110.843,88.564 110.933,89.867 110.933 C 91.169 110.933,92.291 110.843,92.359 110.733 C 92.427 110.623,91.305 110.533,89.867 110.533 C 88.428 110.533,87.307 110.623,87.375 110.733 M170.639 110.747 C 170.757 110.865,171.622 110.923,172.560 110.877 L 174.267 110.794 172.345 110.664 C 171.289 110.592,170.521 110.630,170.639 110.747 M207.641 110.733 C 207.709 110.843,208.831 110.933,210.133 110.933 C 211.436 110.933,212.557 110.843,212.625 110.733 C 212.693 110.623,211.572 110.533,210.133 110.533 C 208.695 110.533,207.573 110.623,207.641 110.733 M267.908 110.733 C 267.976 110.843,269.157 110.933,270.533 110.933 C 271.909 110.933,273.091 110.843,273.159 110.733 C 273.227 110.623,272.045 110.533,270.533 110.533 C 269.021 110.533,267.840 110.623,267.908 110.733 M101.009 110.864 C 101.784 110.918,102.984 110.917,103.676 110.862 C 104.367 110.808,103.733 110.763,102.267 110.764 C 100.800 110.765,100.234 110.810,101.009 110.864 M107.400 110.862 C 108.023 110.918,109.043 110.918,109.667 110.862 C 110.290 110.806,109.780 110.760,108.533 110.760 C 107.287 110.760,106.777 110.806,107.400 110.862 M160.075 110.863 C 160.776 110.918,161.856 110.917,162.475 110.862 C 163.094 110.806,162.520 110.761,161.200 110.761 C 159.880 110.762,159.374 110.808,160.075 110.863 M178.333 110.863 C 179.103 110.917,180.363 110.917,181.133 110.863 C 181.903 110.809,181.273 110.765,179.733 110.765 C 178.193 110.765,177.563 110.809,178.333 110.863 M202.867 110.863 C 203.637 110.917,204.897 110.917,205.667 110.863 C 206.437 110.809,205.807 110.765,204.267 110.765 C 202.727 110.765,202.097 110.809,202.867 110.863 M221.276 110.864 C 222.051 110.918,223.251 110.917,223.942 110.862 C 224.634 110.808,224.000 110.763,222.533 110.764 C 221.067 110.765,220.501 110.810,221.276 110.864 M316.467 110.863 C 317.237 110.917,318.497 110.917,319.267 110.863 C 320.037 110.809,319.407 110.765,317.867 110.765 C 316.327 110.765,315.697 110.809,316.467 110.863 M346.333 110.863 C 347.103 110.917,348.363 110.917,349.133 110.863 C 349.903 110.809,349.273 110.765,347.733 110.765 C 346.193 110.765,345.563 110.809,346.333 110.863 M357.533 110.863 C 358.303 110.917,359.563 110.917,360.333 110.863 C 361.103 110.809,360.473 110.765,358.933 110.765 C 357.393 110.765,356.763 110.809,357.533 110.863 M366.733 110.866 C 368.457 110.912,371.277 110.912,373.000 110.866 C 374.723 110.819,373.313 110.781,369.867 110.781 C 366.420 110.781,365.010 110.819,366.733 110.866 M50.333 111.926 C 50.810 111.985,51.590 111.985,52.067 111.926 C 52.543 111.867,52.153 111.819,51.200 111.819 C 50.247 111.819,49.857 111.867,50.333 111.926 M254.997 207.784 C 254.962 223.139,255.023 235.758,255.133 235.826 C 255.314 235.937,255.313 216.142,255.130 189.867 C 255.091 184.367,255.032 192.430,254.997 207.784 M99.862 294.800 C 99.862 310.787,99.894 317.366,99.933 309.420 C 99.972 301.475,99.972 288.395,99.933 280.354 C 99.894 272.313,99.862 278.813,99.862 294.800 M297.995 296.800 C 297.995 310.513,298.027 316.123,298.067 309.267 C 298.106 302.410,298.106 291.190,298.067 284.333 C 298.027 277.477,297.995 283.087,297.995 296.800 M255.061 321.467 C 255.061 335.107,255.094 340.648,255.133 333.780 C 255.173 326.912,255.173 315.752,255.133 308.980 C 255.094 302.208,255.061 307.827,255.061 321.467 " stroke="none" fill="#fcb494" fill-rule="evenodd"></path><path id="path3" d="M107.408 41.492 C 107.367 45.833,107.423 49.440,107.533 49.508 C 107.643 49.576,107.733 46.024,107.733 41.616 C 107.733 37.207,107.677 33.600,107.608 33.600 C 107.539 33.600,107.449 37.152,107.408 41.492 M114.530 48.333 L 114.533 63.067 118.600 63.077 L 122.667 63.088 118.669 63.004 L 114.671 62.919 114.599 48.260 L 114.526 33.600 114.530 48.333 M132.388 44.400 C 132.388 50.413,132.423 52.911,132.466 49.951 C 132.509 46.991,132.509 42.071,132.466 39.018 C 132.424 35.965,132.389 38.387,132.388 44.400 M137.722 44.267 C 137.722 50.207,137.757 52.637,137.800 49.667 C 137.843 46.697,137.843 41.837,137.800 38.867 C 137.757 35.897,137.722 38.327,137.722 44.267 M164.799 35.546 C 164.643 37.999,164.565 37.942,167.868 37.799 L 170.000 37.707 167.545 37.654 L 165.089 37.600 165.010 35.533 L 164.931 33.467 164.799 35.546 M180.000 35.590 L 180.000 37.579 177.800 37.676 L 175.600 37.772 177.931 37.753 L 180.263 37.733 180.331 50.400 L 180.400 63.067 183.067 63.081 L 185.733 63.095 183.133 63.005 L 180.533 62.915 180.533 48.257 C 180.533 38.664,180.441 33.600,180.267 33.600 C 180.113 33.600,180.000 34.441,180.000 35.590 M267.531 48.188 L 267.467 62.909 265.667 63.002 L 263.867 63.096 265.675 63.148 C 267.970 63.214,267.750 64.886,267.667 48.000 L 267.595 33.467 267.531 48.188 M317.982 35.666 L 318.000 37.733 320.533 37.750 L 323.067 37.767 320.611 37.674 L 318.155 37.580 318.060 35.589 L 317.964 33.598 317.982 35.666 M186.336 37.522 C 186.668 37.586,187.148 37.583,187.403 37.517 C 187.658 37.450,187.387 37.398,186.800 37.401 C 186.213 37.404,186.005 37.458,186.336 37.522 M36.917 38.467 L 36.133 39.333 37.000 38.550 C 37.477 38.119,37.867 37.729,37.867 37.683 C 37.867 37.477,37.647 37.659,36.917 38.467 M328.444 37.778 C 328.347 37.876,328.267 43.571,328.267 50.435 L 328.267 62.915 325.667 63.005 L 323.067 63.095 325.733 63.081 L 328.400 63.067 328.469 50.477 L 328.539 37.887 330.869 37.799 L 333.200 37.710 330.911 37.655 C 329.652 37.625,328.542 37.680,328.444 37.778 M275.052 48.267 C 275.052 52.740,275.088 54.570,275.133 52.333 C 275.177 50.097,275.177 46.437,275.133 44.200 C 275.088 41.963,275.052 43.793,275.052 48.267 M191.267 41.733 C 191.270 42.320,191.325 42.529,191.389 42.197 C 191.452 41.865,191.450 41.385,191.383 41.130 C 191.316 40.875,191.264 41.147,191.267 41.733 M352.384 48.400 C 352.384 52.653,352.421 54.356,352.466 52.184 C 352.511 50.011,352.511 46.531,352.466 44.450 C 352.421 42.369,352.384 44.147,352.384 48.400 M357.983 48.400 C 357.983 52.213,358.020 53.736,358.066 51.784 C 358.112 49.832,358.112 46.712,358.066 44.851 C 358.020 42.990,357.983 44.587,357.983 48.400 M340.915 48.267 C 340.915 51.713,340.953 53.123,340.999 51.400 C 341.046 49.677,341.046 46.857,340.999 45.133 C 340.953 43.410,340.915 44.820,340.915 48.267 M101.396 54.456 L 101.333 62.913 99.000 63.001 L 96.667 63.090 99.008 63.145 C 101.900 63.213,101.623 64.186,101.533 54.264 L 101.459 46.000 101.396 54.456 M186.000 49.735 C 186.610 49.948,188.219 50.006,188.099 49.811 C 188.027 49.695,187.466 49.609,186.851 49.621 C 186.236 49.633,185.853 49.684,186.000 49.735 M207.794 57.257 L 207.733 62.914 205.133 63.001 L 202.533 63.088 205.142 63.144 C 208.310 63.212,208.030 63.823,207.933 57.059 L 207.855 51.600 207.794 57.257 M56.917 60.000 C 56.917 64.033,56.954 65.683,56.999 63.667 C 57.045 61.650,57.045 58.350,56.999 56.333 C 56.954 54.317,56.917 55.967,56.917 60.000 M295.600 62.933 L 292.933 63.097 295.518 63.148 C 297.011 63.178,298.171 63.087,298.267 62.933 C 298.357 62.787,298.394 62.690,298.349 62.718 C 298.304 62.747,297.067 62.843,295.600 62.933 M305.200 62.933 L 302.533 63.097 305.118 63.148 C 306.611 63.178,307.771 63.087,307.867 62.933 C 307.957 62.787,307.994 62.690,307.949 62.718 C 307.904 62.747,306.667 62.843,305.200 62.933 M315.169 63.011 C 315.286 63.126,316.510 63.186,317.891 63.142 L 320.400 63.063 317.679 62.932 C 316.182 62.859,315.053 62.895,315.169 63.011 M90.342 63.130 C 91.117 63.184,92.317 63.184,93.009 63.129 C 93.701 63.074,93.067 63.030,91.600 63.031 C 90.133 63.031,89.567 63.076,90.342 63.130 M109.261 63.126 C 109.734 63.185,110.574 63.186,111.127 63.128 C 111.681 63.070,111.293 63.022,110.267 63.021 C 109.240 63.020,108.787 63.067,109.261 63.126 M171.133 63.130 C 171.903 63.184,173.163 63.184,173.933 63.130 C 174.703 63.076,174.073 63.032,172.533 63.032 C 170.993 63.032,170.363 63.076,171.133 63.130 M193.000 63.130 C 193.770 63.184,195.030 63.184,195.800 63.130 C 196.570 63.076,195.940 63.032,194.400 63.032 C 192.860 63.032,192.230 63.076,193.000 63.130 M213.333 63.082 C 214.324 63.298,215.684 63.336,215.566 63.144 C 215.494 63.028,214.872 62.947,214.184 62.964 C 213.496 62.981,213.113 63.034,213.333 63.082 M227.933 63.130 C 228.703 63.184,229.963 63.184,230.733 63.130 C 231.503 63.076,230.873 63.032,229.333 63.032 C 227.793 63.032,227.163 63.076,227.933 63.130 M235.667 63.129 C 236.290 63.185,237.310 63.185,237.933 63.129 C 238.557 63.072,238.047 63.027,236.800 63.027 C 235.553 63.027,235.043 63.072,235.667 63.129 M247.127 63.126 C 247.601 63.185,248.441 63.186,248.994 63.128 C 249.547 63.070,249.160 63.022,248.133 63.021 C 247.107 63.020,246.654 63.067,247.127 63.126 M253.408 63.130 C 254.109 63.185,255.189 63.184,255.808 63.128 C 256.427 63.072,255.853 63.027,254.533 63.028 C 253.213 63.029,252.707 63.075,253.408 63.130 M334.867 63.130 C 335.637 63.184,336.897 63.184,337.667 63.130 C 338.437 63.076,337.807 63.032,336.267 63.032 C 334.727 63.032,334.097 63.076,334.867 63.130 M361.141 63.130 C 361.842 63.185,362.922 63.184,363.541 63.128 C 364.160 63.072,363.587 63.027,362.267 63.028 C 360.947 63.029,360.440 63.075,361.141 63.130 M372.461 63.126 C 372.934 63.185,373.774 63.186,374.327 63.128 C 374.881 63.070,374.493 63.022,373.467 63.021 C 372.440 63.020,371.987 63.067,372.461 63.126 M56.499 78.318 C 56.262 78.610,56.249 78.700,56.461 78.572 C 56.715 78.419,56.807 79.621,56.867 83.921 L 56.945 89.467 57.006 83.667 C 57.039 80.477,57.021 77.867,56.966 77.867 C 56.911 77.867,56.701 78.070,56.499 78.318 M116.741 89.359 C 116.700 93.626,116.757 97.174,116.867 97.241 C 116.977 97.309,117.067 93.818,117.067 89.482 C 117.067 85.147,117.010 81.600,116.941 81.600 C 116.872 81.600,116.782 85.092,116.741 89.359 M155.858 96.133 C 155.858 104.200,155.892 107.538,155.933 103.552 C 155.975 99.566,155.975 92.966,155.933 88.886 C 155.892 84.805,155.858 88.067,155.858 96.133 M158.791 96.133 C 158.791 104.200,158.825 107.538,158.866 103.552 C 158.908 99.566,158.908 92.966,158.867 88.886 C 158.825 84.805,158.791 88.067,158.791 96.133 M189.154 83.333 C 189.155 84.360,189.204 84.747,189.261 84.194 C 189.319 83.641,189.318 82.801,189.259 82.327 C 189.200 81.854,189.153 82.307,189.154 83.333 M280.388 92.400 C 280.388 98.413,280.423 100.911,280.466 97.951 C 280.509 94.991,280.509 90.071,280.466 87.018 C 280.424 83.965,280.389 86.387,280.388 92.400 M286.255 92.400 C 286.255 98.413,286.290 100.911,286.333 97.951 C 286.376 94.991,286.376 90.071,286.333 87.018 C 286.290 83.965,286.255 86.387,286.255 92.400 M363.591 96.133 C 363.591 104.200,363.625 107.538,363.666 103.552 C 363.708 99.566,363.708 92.966,363.667 88.886 C 363.625 84.805,363.591 88.067,363.591 96.133 M46.470 82.058 C 46.876 82.119,47.476 82.118,47.804 82.054 C 48.132 81.991,47.800 81.941,47.067 81.943 C 46.333 81.945,46.065 81.997,46.470 82.058 M182.508 89.467 C 182.508 91.813,182.549 92.738,182.599 91.521 C 182.648 90.304,182.648 88.384,182.598 87.254 C 182.548 86.124,182.508 87.120,182.508 89.467 M350.509 89.600 C 350.509 92.020,350.549 93.010,350.598 91.800 C 350.648 90.590,350.648 88.610,350.598 87.400 C 350.549 86.190,350.509 87.180,350.509 89.600 M315.057 98.133 C 315.057 105.100,315.091 107.950,315.133 104.467 C 315.175 100.983,315.175 95.283,315.133 91.800 C 315.091 88.317,315.057 91.167,315.057 98.133 M299.318 96.000 C 299.318 100.327,299.355 102.097,299.399 99.933 C 299.444 97.770,299.444 94.230,299.399 92.067 C 299.355 89.903,299.318 91.673,299.318 96.000 M361.129 89.333 C 361.129 89.847,361.183 90.057,361.250 89.800 C 361.318 89.543,361.318 89.123,361.250 88.867 C 361.183 88.610,361.129 88.820,361.129 89.333 M293.716 96.133 C 293.716 99.947,293.754 101.470,293.799 99.518 C 293.845 97.566,293.845 94.446,293.799 92.584 C 293.753 90.723,293.716 92.320,293.716 96.133 M35.400 91.133 C 37.343 91.178,40.523 91.178,42.467 91.133 C 44.410 91.087,42.820 91.050,38.933 91.050 C 35.047 91.050,33.457 91.087,35.400 91.133 M187.823 95.467 C 187.823 96.567,187.870 97.017,187.928 96.467 C 187.985 95.917,187.985 95.017,187.928 94.467 C 187.870 93.917,187.823 94.367,187.823 95.467 M110.786 102.267 C 110.786 106.960,110.822 108.842,110.866 106.450 C 110.911 104.057,110.910 100.217,110.866 97.917 C 110.822 95.616,110.786 97.573,110.786 102.267 M196.467 97.522 C 196.797 97.585,197.337 97.585,197.667 97.522 C 197.997 97.458,197.727 97.406,197.067 97.406 C 196.407 97.406,196.137 97.458,196.467 97.522 M262.267 97.468 C 262.876 97.681,264.486 97.739,264.366 97.544 C 264.294 97.428,263.732 97.343,263.118 97.354 C 262.503 97.366,262.120 97.417,262.267 97.468 M350.520 97.672 C 350.449 97.858,350.425 100.888,350.467 104.405 L 350.543 110.800 350.605 104.216 L 350.667 97.632 351.667 97.528 L 352.667 97.423 351.658 97.378 C 351.053 97.351,350.598 97.469,350.520 97.672 M182.516 104.133 C 182.515 107.800,182.553 109.337,182.599 107.549 C 182.645 105.761,182.645 102.761,182.599 100.882 C 182.553 99.004,182.516 100.467,182.516 104.133 M94.373 100.347 C 94.491 100.465,95.355 100.523,96.294 100.477 L 98.000 100.394 96.079 100.264 C 95.022 100.192,94.254 100.230,94.373 100.347 M214.639 100.347 C 214.757 100.465,215.622 100.523,216.560 100.477 L 218.267 100.394 216.345 100.264 C 215.289 100.192,214.521 100.230,214.639 100.347 M376.090 108.800 C 376.090 109.900,376.137 110.350,376.194 109.800 C 376.252 109.250,376.252 108.350,376.194 107.800 C 376.137 107.250,376.090 107.700,376.090 108.800 M248.394 209.067 C 248.394 221.607,248.427 226.737,248.467 220.467 C 248.506 214.197,248.506 203.937,248.467 197.667 C 248.427 191.397,248.394 196.527,248.394 209.067 M304.662 294.800 C 304.662 310.933,304.694 317.494,304.733 309.380 C 304.772 301.265,304.772 288.065,304.733 280.046 C 304.694 272.027,304.662 278.667,304.662 294.800 M106.528 296.800 C 106.528 310.513,106.560 316.123,106.600 309.267 C 106.640 302.410,106.640 291.190,106.600 284.333 C 106.560 277.477,106.528 283.087,106.528 296.800 " stroke="none" fill="#fc9363" fill-rule="evenodd"></path><path id="path4" d="M233.067 99.017 C 233.067 99.063,233.457 99.453,233.933 99.883 L 234.800 100.667 234.017 99.800 C 233.287 98.992,233.067 98.811,233.067 99.017 " stroke="none" fill="#fcac84" fill-rule="evenodd"></path></g></svg>